<?xml version="1.0" encoding="utf-8"?>
<!-- Generator: Adobe Illustrator 24.3.0, SVG Export Plug-In . SVG Version: 6.00 Build 0)  -->
<svg version="1.1" id="Layer_1" xmlns="http://www.w3.org/2000/svg" xmlns:xlink="http://www.w3.org/1999/xlink" x="0px" y="0px"
	 viewBox="0 0 550 690" style="enable-background:new 0 0 550 690;" xml:space="preserve">
<style type="text/css">
	.st0{fill:#FFFFFF;}
</style>
<g>
	<path class="st0" d="M41.7218,376.4853c-2.2137,3.354-4.9631,5.9618-8.609,7.8578c-2.3013,1.1967-3.935,0.3753-4.6742-1.0851
		c-1.7712-3.4989-3.0333-7.267-4.3567-10.9778c-1.4138-3.9641-2.7255-7.9679-3.9581-11.9922
		c-0.7008-2.2879-1.175-4.6469-1.7141-6.9824c-0.9932-4.3027-2.0614-8.5917-2.9117-12.923
		c-1.1884-6.0532-2.2223-12.1371-3.2902-18.2134c-0.6626-3.7702-1.4667-7.5308-1.8467-11.3318
		c-0.5143-5.1453-0.7488-10.3221-0.9821-15.4909c-0.2623-5.813-0.6559-11.6391-0.5024-17.4466
		c0.1595-6.0331,0.8462-12.0563,1.4132-18.0735c0.4314-4.5775,0.8857-9.1624,1.6038-13.7007
		c0.8068-5.0993,1.9931-10.1373,2.8877-15.2242c2.0574-11.6996,6.5708-22.5969,10.8239-33.5835
		c2.0382-5.2651,3.9007-10.6045,6.1234-15.79c1.9041-4.4421,4.0643-8.7907,6.3676-13.0418
		c3.8241-7.0576,7.7586-14.0601,11.8406-20.9711c1.7962-3.041,4.1048-5.7758,6.1156-8.6945
		c2.2553-3.2737,4.2831-6.7155,6.692-9.8687c2.5978-3.4006,5.385-6.6821,8.3333-9.7838
		c5.7717-6.0719,11.6247-12.0729,17.6124-17.9312c4.5773-4.4783,9.4751-8.6271,14.1151-13.0436
		c3.5343-3.3641,6.8194-6.9895,10.3418-10.3667c3.2338-3.1004,6.5648-6.1094,9.9846-9.003
		c3.6308-3.0721,7.3408-6.0632,11.1608-8.8946c2.6055-1.9312,5.3969-3.6373,8.2205-5.2409c2.5362-1.4404,5.2789-2.5138,7.8403-3.914
		c2.6238-1.4343,5.2121-2.9602,7.6824-4.6421c3.4627-2.3575,6.8455-4.8396,10.1677-7.3918
		c1.0211-0.7844,1.8115-1.9164,2.5707-2.9864c3.3827-4.7675,8.1485-7.6213,13.3143-10.0652
		c5.1498-2.4363,10.0221-5.5033,15.2755-7.6625c4.1924-1.7232,8.7263-2.7421,13.1968-3.6288
		c5.0847-1.0086,10.2483-1.7369,15.4123-2.1984c6.5675-0.5869,13.1681-1.0106,19.758-1.0633
		c3.953-0.0316,7.9057,0.869,11.8718,1.1805c2.8704,0.2255,5.7813-0.0096,8.6413,0.2828c4.7703,0.4878,9.5302,1.1357,14.2634,1.9068
		c2.9101,0.4741,5.7601,1.3123,8.6411,1.9696c4.9779,1.1356,9.9778,2.1808,14.9345,3.4021
		c9.1216,2.2476,18.233,4.5404,27.3191,6.927c3.9218,1.0301,7.7097,2.6632,11.674,3.4045c2.4393,0.4562,4.9441,0.2423,7.4395,1.1381
		c3.0865,1.108,6.4867,1.3102,9.6416,2.266c7.0592,2.1385,14.0843,4.4035,21.0555,6.8126c3.7058,1.2807,7.268,2.9759,10.8997,4.4726
		c4.1632,1.7158,8.3413,3.3958,12.4952,5.1339c4.409,1.8447,8.8366,3.653,13.1814,5.6403c3.2816,1.501,6.5019,3.1589,9.6478,4.9277
		c3.83,2.1534,7.6194,4.3942,11.3091,6.7787c7.6036,4.9138,15.3114,9.6975,22.6277,15.0146
		c5.5193,4.0111,10.4855,8.7813,15.718,13.1898c5.8076,4.893,10.105,11.1388,15.0796,16.7773
		c3.457,3.9182,6.8994,7.8515,10.2465,11.8632c1.3399,1.6059,2.599,3.3395,3.563,5.1881
		c3.7334,7.1591,7.416,14.3474,10.9578,21.6028c3.1519,6.4564,6.3084,12.9262,9.062,19.5566
		c2.4684,5.9438,4.6588,12.0359,6.4703,18.2096c1.4885,5.0726,2.3829,10.3369,3.2803,15.5609
		c0.9118,5.3073,1.5475,10.664,2.2227,16.0094c0.4429,3.5073,0.8182,7.0269,1.0874,10.5514
		c0.5047,6.6084,1.0492,13.2188,1.3197,19.8389c0.2875,7.0363,0.5204,14.0912,0.3359,21.1264
		c-0.2501,9.5349-0.9115,19.0593-1.4124,28.5874c-0.3474,6.6109-0.5911,13.2309-1.118,19.8279
		c-0.6171,7.7247-1.4904,15.4289-2.2544,23.1418c-0.5125,5.1729-1.0268,10.3456-1.5425,15.5181
		c-0.3548,3.5575-0.9387,7.1108-1.001,10.6733c-0.0527,3.0206,0.8913,6.0581-0.5495,9.0121
		c-0.6393,1.3107-0.9705,2.7804-1.6738,4.0493c-1.0521,1.8977-3.3204,1.6584-5.3488,0.3968
		c-3.3167-2.063-5.5117-4.9373-7.0275-8.3434c-2.3152-5.202-4.6053-10.4354-6.4951-15.8002
		c-1.5342-4.3553-2.2794-8.9835-3.7092-13.3819c-1.7411-5.3562-3.8019-10.6101-5.7831-15.8862
		c-1.4138-3.7652-2.6085-7.6615-4.4793-11.1929c-1.9193-3.623-4.2964-7.0774-6.9196-10.2348
		c-3.2184-3.8738-6.8586-7.4035-10.3966-11.0031c-2.0462-2.0819-4.3686-3.899-6.3504-6.0357
		c-2.0555-2.216-3.6267-4.9095-5.8061-6.9762c-4.2015-3.9845-7.0646-8.9154-10.191-13.6485
		c-1.9145-2.8983-3.6256-6.0112-4.8997-9.2364c-3.1108-7.8748-5.7647-15.9307-8.8975-23.7961
		c-1.8875-4.7389-4.1233-9.3694-6.5712-13.8471c-3.0576-5.5932-6.3393-11.0803-9.8189-16.4212
		c-2.515-3.8604-5.3588-7.5358-8.3326-11.0603c-3.1516-3.7351-6.3528-7.5196-10.0524-10.6725
		c-3.0581-2.6062-6.8028-4.4534-10.3715-6.4022c-4.5203-2.4685-9.0534-4.9777-13.7919-6.9669
		c-6.9345-2.911-14.1825-5.0906-21.0539-8.1311c-4.5782-2.0258-8.9256-4.7363-13.0241-7.6378
		c-4.1874-2.9645-8.2568-6.2376-11.7957-9.9331c-3.056-3.1912-5.3001-7.1612-7.8928-10.7944
		c-1.7214-2.4122-3.4791-4.8014-5.1108-7.2734c-0.7287-1.104-1.1877-2.386-1.7691-3.5873c0.3368-0.2147,0.6736-0.4294,1.0105-0.6441
		c2.2124,2.597,4.3859,5.2283,6.6492,7.7802c1.8691,2.1074,3.7751,4.1915,5.7882,6.1596c3.1938,3.1224,6.1708,6.6133,9.8257,9.0795
		c4.4342,2.992,9.3073,5.5195,14.2977,7.4567c7.1788,2.7867,14.7095,4.6545,21.95,7.2982
		c6.4655,2.3607,12.7776,5.158,19.0891,7.9188c5.3369,2.3344,10.1384,5.5232,14.4254,9.5168
		c2.7897,2.5988,5.9443,4.8149,8.6511,7.4902c1.4893,1.472,2.361,3.5591,3.5615,5.3349c4.5645,6.7522,9.052,13.5595,13.7586,20.2115
		c3.571,5.047,6.7566,10.3091,9.3522,15.8939c2.1369,4.5979,3.7145,9.4554,5.844,14.0573
		c3.1791,6.8701,5.0834,14.3636,10.123,20.3467c2.0133,2.3903,3.4095,5.2943,5.3727,7.7343
		c2.3126,2.8742,4.8699,5.5622,7.439,8.2168c4.0414,4.1759,8.2283,8.2112,12.2628,12.3934
		c2.5991,2.6942,5.0443,5.5375,7.5435,8.3272c3.9013,4.3548,7.1213,9.1178,9.2552,14.6202
		c2.2824,5.8858,5.0051,11.6078,7.124,17.5481c2.0197,5.662,3.4648,11.5268,5.249,17.2756
		c0.9314,3.0009,2.0963,5.9287,3.0618,8.9198c0.4506,1.3955,0.6781,2.863,1.0068,4.2979c0.361,0.0167,0.7219,0.0334,1.0828,0.0502
		c0.1514-2.0308,0.7269-4.1405,0.3665-6.076c-0.7637-4.1012-0.6443-8.0778-0.1487-12.2044c0.4943-4.116,0.1399-8.3338,0.1574-12.507
		c0.03-7.1842,0.084-14.3683,0.0835-21.5525c-0.0005-7.7201-0.0574-15.4402-0.0802-23.1603
		c-0.0139-4.6912,0.0612-9.3839-0.0359-14.0732c-0.0799-3.8628-0.345-7.722-0.5449-11.5819
		c-0.215-4.1508-0.3913-8.3047-0.6908-12.4495c-0.3552-4.9162-0.7736-9.8292-1.2597-14.7341
		c-0.3669-3.7028-0.7471-7.4137-1.3639-11.0802c-0.9565-5.6865-2.0648-11.3493-3.2114-17.0014
		c-1.0123-4.9903-1.8574-10.046-3.3376-14.9017c-1.6504-5.4141-3.767-10.7062-5.9828-15.9231
		c-3.1197-7.3448-6.3155-14.6719-9.8633-21.8155c-2.6052-5.2455-5.4342-10.4708-8.8708-15.1901
		c-4.6327-6.3618-9.8948-12.2712-14.983-18.2934c-3.4396-4.0711-6.8848-8.1612-10.6329-11.9398
		c-2.4841-2.5043-5.5482-4.425-8.2789-6.6958c-2.2478-1.8693-4.242-4.0714-6.6056-5.7679
		c-4.4638-3.2041-9.1067-6.1591-13.6858-9.2016c-3.6928-2.4536-7.3596-4.9502-11.1193-7.2974
		c-2.0557-1.2834-4.268-2.3203-6.432-3.4248c-2.7816-1.4196-5.5443-2.887-8.3888-4.1703
		c-5.3339-2.4064-10.6862-4.7793-16.0948-7.0112c-6.3634-2.6259-12.7547-5.1951-19.209-7.5865
		c-5.4182-2.0075-10.915-3.8171-16.4317-5.5392c-4.0304-1.2581-8.1455-2.247-12.2318-3.3222
		c-1.1122-0.2926-2.2565-0.463-3.7634-0.197c1.4218,1.6271,2.7415,3.3589,4.2836,4.8626
		c5.6306,5.4903,6.7122,12.1278,5.2638,19.5263c-0.7131,3.6426-0.5762,7.5817-1.9351,10.9366
		c-1.9073,4.7093-4.7406,8.9257-8.7752,12.4629c-4.1687,3.6547-8.4677,7.0175-13.1721,9.879
		c-5.0824,3.0914-10.191,6.1507-15.4034,9.0141c-5.4754,3.0079-11.0487,5.8455-16.6519,8.6103
		c-4.6426,2.2908-9.3076,4.5767-14.1121,6.4895c-7.0358,2.8012-14.1786,5.3426-21.328,7.8454
		c-3.7938,1.3281-7.7037,2.3222-11.5501,3.5032c-2.6082,0.8008-5.2034,1.6454-7.7932,2.5043
		c-4.6165,1.5311-9.1994,3.1679-13.8425,4.6124c-5.1634,1.6063-10.3898,3.0089-15.5671,4.5723
		c-3.8337,1.1577-7.6636,2.3432-11.4373,3.68c-3.1131,1.1028-6.1335,2.465-9.2085,3.6778
		c-5.9998,2.3664-12.0698,4.567-17.9935,7.1094c-4.1475,1.7801-8.1458,3.929-12.1284,6.0665
		c-4.467,2.3974-9.0062,4.7223-13.2021,7.5426c-3.1681,2.1294-5.9102,4.9195-8.718,7.5479c-1.7616,1.649-3.2774,3.5584-4.934,5.3223
		c-1.5607,1.6619-3.2212,3.2332-4.7312,4.9387c-2.7713,3.13-5.6684,6.1791-8.1408,9.536
		c-3.4798,4.7246-6.6644,9.6701-9.8945,14.5743c-3.7276,5.6595-7.4499,11.3258-11.0128,17.0891
		c-1.9838,3.209-3.7405,6.5708-5.4162,9.9546c-2.0692,4.1783-4.136,8.3757-5.8651,12.7002
		c-2.6061,6.5181-4.9208,13.1529-7.3555,19.7394c-1.5365,4.1567-3.1634,8.2835-4.5667,12.4848
		c-1.0579,3.167-1.6777,6.4819-2.7663,9.6365c-0.9724,2.8176-2.2095,5.5599-3.5244,8.24
		c-2.8131,5.7343-5.568,11.5101-8.6901,17.0764c-3.267,5.8246-6.865,11.4689-10.4521,17.1068
		c-2.9482,4.6336-5.9256,9.2669-9.2055,13.6652c-2.3901,3.205-5.3334,5.9932-7.937,9.0465
		c-0.5525,0.648-1.1298,1.7501-0.9503,2.4526C40.0806,373.1019,40.9545,374.688,41.7218,376.4853z M186.5567,91.1298
		c-16.882-8.8846-25.1758-22.2374-24.1552-41.1992c-1.1935,1.1191-1.8691,2.4992-2.9677,3.2964
		c-3.44,2.496-7.2128,4.5528-10.5395,7.1812c-6.0536,4.783-11.9939,9.7259-17.7553,14.856c-3.2865,2.9263-6.0653,6.415-9.1808,9.543
		c-4.9783,4.9981-10.077,9.8762-15.0658,14.8639c-3.3391,3.3383-6.6001,6.7559-9.8523,10.1795
		c-3.7239,3.9201-7.3985,7.8869-11.0963,11.8317c-2.447,2.6105-5.0944,5.0628-7.2994,7.8635
		c-3.2649,4.1469-6.2398,8.5238-9.2953,12.8332c-2.6321,3.7122-5.3555,7.3723-7.7631,11.2276
		c-2.7543,4.4105-5.3085,8.9553-7.7589,13.5437c-2.7816,5.2085-5.4859,10.4678-7.9638,15.8253
		c-1.4817,3.2037-2.4429,6.6462-3.6771,9.9668c-2.6702,7.1844-5.3571,14.3625-8.0554,21.5364
		c-0.9034,2.4017-1.9875,4.7428-2.7626,7.1836c-0.8867,2.7922-1.6064,5.6456-2.2434,8.5069
		c-0.7482,3.3606-1.338,6.7567-1.9804,10.1404c-0.516,2.718-1.1355,5.4246-1.4808,8.165c-0.512,4.0632-0.7993,8.1542-1.2247,12.2289
		c-0.4622,4.4268-1.2604,8.8409-1.3794,13.2747c-0.1119,4.171,0.5087,8.3585,0.7336,12.5427
		c0.147,2.734,0.1255,5.4767,0.2463,8.2125c0.1884,4.2662,0.1496,8.5686,0.7244,12.7852
		c0.7706,5.6536,1.9366,11.2605,3.1076,16.8509c2.1783,10.399,4.4828,20.7714,6.831,31.5987
		c0.6592-1.0381,0.9538-1.5469,1.291-2.0258c2.7476-3.9014,5.6624-7.696,8.2201-11.7179
		c4.1147-6.4701,8.0634-13.0497,11.9186-19.6781c0.7958-1.3683,1.0896-3.1339,1.2369-4.7508
		c0.2513-2.7588,0.0063-5.5676,0.322-8.3149c0.6688-5.8193,1.7166-11.5968,2.3207-17.4213
		c0.5152-4.968,0.5314-9.9859,0.9433-14.9672c0.4546-5.4968,0.9868-10.9932,1.7092-16.4602
		c0.754-5.7056,1.611-11.4081,2.7229-17.0529c1.2302-6.2454,2.7263-12.4421,4.2471-18.6254
		c1.1134-4.5271,2.056-9.1581,3.7831-13.4583c2.8174-7.0146,6.1073-13.8482,9.4027-20.6591
		c2.0573-4.2521,4.3061-8.4374,6.8041-12.4438c2.8564-4.5812,6.0699-8.9408,9.1561-13.3773
		c2.2548-3.2412,4.5166-6.479,6.8549-9.6597c0.8364-1.1378,1.8971-2.1126,2.8717-3.1464c2.0488-2.1732,4.1536-4.2955,6.1508-6.5149
		c1.9673-2.1861,3.6372-4.6738,5.7778-6.6631c4.845-4.5027,9.8077-8.8908,14.9012-13.1098
		c3.3547-2.7787,7.0331-5.1648,10.5414-7.7606c1.6644-1.2315,3.2964-2.5102,4.8974-3.8231
		c4.0073-3.2863,7.7928-6.8858,12.0329-9.8339c4.6467-3.2308,9.6634-5.9421,14.5962-8.7437
		C180.2747,94.1301,183.2966,92.767,186.5567,91.1298z M70.5718,285.773c0.2102,0.0061,0.4203,0.0122,0.6305,0.0182
		c0.9694-2.987,1.8548-6.0046,2.9256-8.9549c2.307-6.3561,4.5551-12.7409,7.1209-18.9934
		c2.0899-5.093,4.4222-10.1082,6.9893-14.9774c2.2638-4.2939,4.9783-8.3523,7.538-12.4873
		c1.4365-2.3207,3.0107-4.5564,4.4349-6.8842c1.4967-2.4464,2.7348-5.0626,4.3558-7.419
		c4.2836-6.2273,8.6064-12.4339,13.1275-18.489c2.4432-3.2722,5.3038-6.2356,8.0196-9.2998
		c0.9102-1.027,2.3631-1.7611,2.8602-2.9301c1.3924-3.2744,4.3307-4.9804,6.7386-7.1888c3.2377-2.9694,6.6575-5.7482,10.093-8.4912
		c2.4189-1.9313,4.8613-3.8966,7.5289-5.439c4.6109-2.6661,9.4126-5.0012,14.1192-7.5034c2.7341-1.4535,5.3685-3.1158,8.1768-4.4023
		c2.8121-1.2883,5.8091-2.1663,8.6818-3.3306c4.8917-1.9825,9.6872-4.2191,14.6402-6.0287
		c4.4648-1.6312,9.0999-2.7907,13.6357-4.2342c6.9603-2.2151,13.8761-4.5728,20.8562-6.7225
		c5.1925-1.5992,10.4802-2.8877,15.6801-4.4646c2.9438-0.8927,5.7593-2.2059,8.698-3.1187
		c4.1045-1.2748,8.3412-2.1491,12.3936-3.5611c6.4648-2.2524,12.7735-4.954,19.2418-7.1956
		c8.1129-2.8116,15.8533-6.414,23.2353-10.7306c5.1054-2.9854,9.9749-6.3865,14.8573-9.7365
		c3.0273-2.0772,6.2223-4.0789,8.7386-6.6949c4.4211-4.5963,7.6951-10.0539,8.6274-16.4978c0.351-2.4258,0.9364-5.284-1.2773-7.2883
		c-1.7396-1.5749-3.7-2.9378-5.7003-4.1709c-0.5217-0.3216-1.9548-0.0848-2.2798,0.3788c-0.7644,1.0906-1.0249,2.5181-1.6487,3.7269
		c-1.0902,2.1127-2.009,4.4164-3.5352,6.1751c-1.8316,2.1106-4.0134,4.105-6.4264,5.4761c-3.0497,1.7328-6.3876,3.4692-9.7802,3.955
		c-3.9949,0.572-8.2178,0.0862-12.2766-0.442c-6.9455-0.9039-13.8338-0.5149-20.7426,0.1454
		c-3.3002,0.3154-6.5973,0.6656-9.8998,0.9533c-3.0841,0.2687-6.1748,0.4612-9.2604,0.7141
		c-2.7667,0.2268-5.5981,0.1919-8.2811,0.8006c-5.319,1.2068-10.5946,2.6491-15.8126,4.2415
		c-3.7287,1.1379-7.3435,2.655-10.9921,4.0473c-3.5382,1.3502-7.0055,2.9046-10.5922,4.1054
		c-5.764,1.9298-11.6077,3.6209-17.3957,5.4812c-0.5612,0.1804-1.0002,0.8102-1.4404,1.2832
		c-0.9024,0.9698-1.5816,2.3285-2.6793,2.904c-4.8007,2.5167-9.7602,4.729-14.5796,7.2118
		c-3.6395,1.8749-7.3855,3.6761-10.6685,6.078c-4.6163,3.3773-8.8022,7.3369-13.2615,10.9369
		c-2.5087,2.0253-5.238,3.7753-7.7908,5.749c-1.901,1.4698-3.6655,3.115-5.5136,4.6547c-3.1026,2.5848-6.3077,5.0538-9.3104,7.7489
		c-2.4991,2.2431-4.7525,4.7583-7.1459,7.1214c-2.4449,2.4141-5.1498,4.6042-7.3401,7.2271
		c-3.0441,3.6453-5.706,7.6089-8.5483,11.4238c-1.6859,2.2628-3.5798,4.3912-5.074,6.7722
		c-4.187,6.6717-8.4743,13.3023-12.2289,20.2169c-3.4091,6.2781-6.4357,12.8-9.1281,19.419
		c-1.9508,4.7956-3.193,9.8953-4.5321,14.9178c-0.7753,2.9076-1.0115,5.9546-1.6752,8.8971
		c-1.3675,6.0629-3.1239,12.0501-4.2256,18.1577c-1.1165,6.1893-1.6855,12.4806-2.3944,18.7386
		C70.7784,280.425,70.7331,283.1056,70.5718,285.773z M320.1365,36.1596c-3.5024-0.7482-6.4042-1.4326-9.3315-1.9812
		c-8.0108-1.5013-16.0083-3.0979-24.057-4.3655c-6.7998-1.0709-13.6635-1.7375-20.4997-2.5761
		c-2.4219-0.2971-4.8421-0.7597-7.2706-0.8151c-3.5221-0.0802-7.0508,0.2096-10.577,0.2163
		c-4.7868,0.0092-9.609-0.4907-14.3522-0.0637c-6.553,0.59-13.0654,1.731-19.5569,2.857c-2.9373,0.5095-5.8947,1.2815-8.6386,2.4249
		c-2.9086,1.212-5.5368,3.08-8.3567,4.5266c-3.1195,1.6002-6.4971,2.7663-9.4301,4.6413c-2.8643,1.8311-5.7815,3.9591-7.8031,6.6196
		c-1.9436,2.5579-3.6423,5.9123-3.8289,9.0143c-0.1694,2.8157,1.6443,5.854,2.9313,8.6332
		c2.903,6.2689,8.4034,9.2192,14.7418,10.9621c4.31,1.1852,8.6072,2.4206,12.939,3.5197c0.7377,0.1872,1.7545,0.0251,2.4126-0.3641
		c2.0779-1.229,3.8922-3.0242,6.0869-3.9125c6.3594-2.5739,12.7969-4.9893,19.3187-7.1142
		c3.7749-1.2299,7.7609-1.8314,11.6709-2.622c4.2472-0.8588,8.4981-1.7321,12.7815-2.3695
		c3.7739-0.5617,7.5883-0.902,11.3968-1.1696c5.6977-0.4004,11.4095-0.5976,17.1086-0.9819
		c5.0432-0.3401,10.0768-0.8207,15.1151-1.2343c6.4889-0.5326,12.9781-1.0603,19.3654-1.5817
		c0.3361-2.5276,0.7502-4.5213-2.2343-5.3656c-1.4607-0.4132-2.8647-1.6642-3.8759-2.8832
		c-1.6109-1.9419-3.0705-4.0735-4.2083-6.3202c-0.7018-1.3856-1.6312-3.4349,0.3626-4.536c1.6994-0.9385,3.7527-1.2207,5.618-1.8821
		C318.6492,37.1934,319.2432,36.6958,320.1365,36.1596z"/>
	<path class="st0" d="M69.9094,388.56c0.736,3.5576,1.4218,7.0013,2.1632,10.433c2.825,13.0755,5.4205,26.2074,8.583,39.2011
		c2.5024,10.2815,5.7748,20.3734,8.5871,30.582c3.7062,13.4536,6.9595,27.043,11.0691,40.37
		c2.3015,7.4633,6.0778,14.4604,8.9394,21.7655c3.3078,8.4441,6.3989,16.9749,9.4765,25.5069
		c3.1532,8.7416,8.2707,16.014,15.5076,21.8713c2.3718,1.9197,4.4015,4.2648,6.5692,6.4338
		c9.8813,9.8864,21.2631,17.8046,33.0793,25.1363c9.341,5.7959,18.6559,11.6435,28.1514,17.1783
		c11.06,6.4468,22.0764,13.0366,33.5299,18.7218c12.3791,6.1446,25.1771,11.468,37.9209,16.8451
		c5.9001,2.4896,11.9511,1.5492,17.7179-1.0252c12.044-5.3769,24.3475-10.2587,36.0361-16.3234
		c14.2603-7.3989,28.0835-15.6596,41.9332-23.8236c9.5477-5.628,18.9133-11.5808,28.1884-17.6511
		c9.5753-6.2668,18.5978-13.2578,26.4725-21.6504c3.4488-3.6755,7.1725-7.0914,10.7123-10.6835
		c5.1202-5.1959,7.5236-11.8367,9.9256-18.5271c2.7585-7.6833,5.3631-15.4745,8.8499-22.8324
		c6.1387-12.9537,10.3035-26.5132,13.9888-40.2886c3.4254-12.8039,7.2328-25.5071,10.5439-38.3394
		c2.5584-9.915,4.6039-19.9622,6.8875-29.9484c2.1031-9.1967,4.2661-18.3802,6.2611-27.6003
		c0.208-0.9611-0.2097-2.477-0.9044-3.1475c-5.5572-5.363-11.4861-10.3573-16.846-15.9043
		c-7.2868-7.5412-13.5097-15.9696-18.9548-24.9525c-5.9171-9.7616-10.1839-20.2115-11.9886-31.4709
		c-1.3586-8.476-2.0034-17.0713-2.8252-25.627c-0.8153-8.4886-1.1953-17.029-2.3299-25.4709
		c-0.3369-2.5071-2.5712-4.7622-3.9488-7.1253c-0.7247-1.2432-1.4768-2.4704-2.282-3.814c5.3119-1.5664,9.6231,0.1514,12.4634,4.085
		c3.6306,5.0281,4.6796,10.8875,5.8486,16.7046c2.1761,10.8297,3.9618,21.7418,6.3237,32.5289
		c2.094,9.5636,6.2238,18.3497,11.7491,26.4465c5.0497,7.3998,10.9543,14.015,17.8764,19.7445
		c4.0908,3.386,7.8159,7.2195,11.9578,10.5367c5.5825,4.4708,12.2127,7.031,18.9101,9.2967
		c2.5657,0.868,3.5156,2.3936,3.6049,4.9664c0.1776,5.117-1.4349,9.822-3.282,14.4226c-2.1249,5.2926-5.1525,5.3001-9.863,4.2878
		c-2.7545-0.592-5.3376-1.9814-8.2856-3.1235c-2.9541,44.1294-10.0564,87.5898-21.1809,130.6396
		c0.9984-0.2995,2.2789-0.7902,3.6043-1.0583c2.5215-0.5099,5.1704-0.5858,7.5859-1.3864
		c6.8705-2.2771,11.6064-7.2645,15.3321-13.203c4.7372-7.5508,6.7079-15.8654,6.3417-24.7901
		c-0.1876-4.5735-0.0329-9.161-0.0329-14.3826c-2.9849,1.5909-5.1455,2.968-7.4773,3.9306
		c-3.2274,1.3325-5.3387,0.7861-7.3296-1.9281c-2.7917-3.8058-3.634-9.8547,2.9639-11.6246
		c1.5264-0.4094,2.9462-1.2697,4.3642-2.0187c4.0078-2.1166,4.0281-2.3442,2.0872-6.5729
		c-0.9675-2.1079-1.9253-4.2508-2.5467-6.4731c-0.2713-0.9703-0.0399-2.5392,0.6101-3.1752c0.604-0.5909,2.1334-0.584,3.142-0.3506
		c3.4853,0.8067,4.535,3.9684,6.4013,7.57c1.4197-3.4204,2.767-6.162,3.7134-9.0357c3.7062-11.2521,4.178-22.8924,3.8361-34.6028
		c-0.0972-3.3306-0.4577-6.6536-0.5491-9.9842c-0.0258-0.9426,0.2208-2.4991,0.7792-2.7336
		c1.4647-0.6148,2.8813-0.0654,3.3588,1.7151c0.8015,2.9893,1.9493,5.9513,2.2552,8.9948
		c0.7433,7.3949,1.5485,14.8346,1.4756,22.2478c-0.0939,9.5441-0.8581,19.1101-5.1116,27.9611
		c-0.3466,0.721-0.5087,1.6009-1.0248,2.1589c-3.8178,4.1278-3.671,8.6338-2.1689,13.7599
		c2.3704,8.0896,2.5223,16.5321,1.8826,24.8544c-0.7444,9.6859-4.6372,18.3047-10.3566,26.1766
		c-5.5331,7.6155-12.1432,13.6507-21.5036,16.0145c-2.0543,0.5188-4.2396,1.0507-6.3062,0.8777
		c-4.2143-0.3527-6.2306-2.9766-6.8447-8.1042c-0.071-0.5925-0.081-1.1923-0.1192-1.7888
		c-0.2466-0.0771-0.4931-0.1541-0.7396-0.2312c-3.7345,9.885-7.6828,19.6958-11.1457,29.6751
		c-3.7621,10.8419-8.5934,21.0686-16.5623,29.4125c-12.1999,12.774-25.599,24.2709-40.6607,33.498
		c-16.1391,9.8871-32.7613,18.9875-49.206,28.3727c-7.747,4.4214-15.3249,9.2503-23.419,12.9265
		c-12.4577,5.6578-25.3269,10.4034-37.9583,15.6871c-8.5396,3.572-17.3479,3.4671-25.9443,1.2448
		c-7.0266-1.8164-13.7431-4.9102-20.4968-7.6821c-6.9234-2.8414-13.8654-5.7007-20.5432-9.061
		c-7.879-3.9647-15.4716-8.4968-23.2114-12.7408c-4.3021-2.3589-8.733-4.4926-12.9639-6.9703
		c-12.9346-7.5748-25.9684-15.0009-38.6401-22.9975c-10.2532-6.4704-19.9244-13.8291-28.531-22.4601
		c-4.9592-4.9734-10.4303-9.5604-14.6899-15.0787c-6.6351-8.5958-10.5065-18.6917-13.8782-29.0228
		c-2.7465-8.4153-6.4089-16.5319-10.2258-24.5884c-0.202,1.3315-0.3584,2.6719-0.6139,3.9932
		c-1.0531,5.4457-4.2468,6.4146-9.0205,5.7995c-11.4334-1.4733-19.3024-8.4183-25.6538-17.3842
		c-4.4118-6.2279-8.145-12.9551-8.9619-20.6403c-0.697-6.557-0.8536-13.2477-0.4224-19.8251
		c0.3693-5.6327,1.9436-11.1829,2.8898-16.7857c0.1103-0.6529-0.2226-1.5218-0.6252-2.0984
		c-4.1663-5.9659-6.9294-12.4816-7.7615-19.7382c-0.6244-5.4449-1.5086-10.9002-1.5696-16.3587
		c-0.0653-5.8444,0.4817-11.7238,1.1741-17.5387c0.4835-4.061,1.6391-8.0442,2.5397-12.052
		c0.3699-1.6463,1.1773-2.825,3.1719-2.3343c1.9074,0.4693,1.3019,1.7165,1.2089,3.1014
		c-0.8319,12.3844-1.3637,24.7326,1.4355,37.0268c1.2333,5.4166,2.7454,10.6124,5.4911,15.9635
		c1.1274-1.8701,1.9642-3.4074,2.9557-4.8376c0.4697-0.6775,1.1647-1.5011,1.8806-1.6444c1.6225-0.3249,3.3212-0.2689,4.9889-0.3677
		c0.0114,1.525,0.3833,3.1611-0.045,4.5505c-0.7608,2.4685-1.9304,4.825-3.0765,7.1559c-0.7506,1.5264-0.4284,2.6434,0.963,3.3734
		c2.537,1.3311,5.068,2.7256,7.7349,3.7445c3.3643,1.2853,4.5578,4.0665,3.0098,8.6921c-1.2931,3.8641-4.5594,5.5727-8.0911,4.3756
		c-1.2527-0.4246-2.4757-0.9688-3.6536-1.5727c-1.1662-0.5979-2.2586-1.3398-3.6627-2.1871
		c-1.2973,12.3504-2.058,24.3456,3.7123,35.5949c3.7816,7.3723,8.8476,13.7111,17.0654,16.421
		c3.7149,1.225,7.7106,1.5985,11.6025,2.363c-1.6079-5.7461-3.4229-11.3993-4.7467-17.1653
		c-1.814-7.9009-3.3116-15.8766-4.8408-23.8402c-1.6292-8.4847-3.2173-16.9791-4.6718-25.4951
		c-1.1132-6.5175-2.1232-13.0589-2.9393-19.6195c-1.0368-8.3347-1.8958-16.6932-2.7097-25.0533
		c-0.6633-6.8134-1.1566-13.6434-1.7068-20.4676c-0.2099-2.6039-0.2857-5.222-0.6018-7.8117
		c-0.0906-0.7426-0.6382-1.7254-1.264-2.0601c-5.4001-2.8883-8.0219-8.0791-10.6892-13.098
		c-1.8183-3.4214-0.424-6.0994,3.3819-7.1987c4.9483-1.4294,10.0624-2.3276,14.9317-3.969
		c2.3564-0.7943,4.4781-2.5728,6.4305-4.2303c12.284-10.4286,19.218-23.8608,21.6097-39.6576
		c1.1493-7.5906,1.8845-15.2455,2.7356-22.8793c1.3462-12.0735,2.2062-24.2718,8.0997-35.2743
		c4.7512-8.8699,10.4885-16.9096,19.9501-21.4016c1.355-0.6433,2.8678-1.095,4.3527-1.2886
		c1.8897-0.2464,3.218,0.9704,3.3504,2.6995c0.0477,0.6225-1.5655,1.3989-2.4534,2.0613c-2.4961,1.8624-5.5446,3.2784-7.4089,5.6349
		c-4.4876,5.6728-8.5631,11.8229-9.6879,19.138c-0.8339,5.4232-0.836,10.9912-0.9585,16.5002
		c-0.0718,3.2279,0.4441,6.4644,0.5266,9.7012c0.2375,9.3128,0.9445,18.659,0.424,27.9336
		c-0.5637,10.0435-2.924,19.8594-6.418,29.3835c-3.1195,8.5033-7.0619,16.4711-12.7506,23.5788
		c-5.8436,7.3014-12.6615,13.0795-22.0467,15.1378C73.6023,388.3569,71.9717,388.3565,69.9094,388.56z"/>
	<path class="st0" d="M135.4729,364.8064c-1.0511-1.534-2.1459-2.84-2.8795-4.3245c-0.3716-0.752-0.0911-1.8263-0.1055-2.7549
		c1.0373,0.1336,2.3381-0.0841,3.066,0.462c3.0785,2.3095,5.8842,4.9879,9.0001,7.2401c1.5506,1.1208,3.5556,1.6128,5.5796,1.8461
		c-2.1345-2.2054-4.387-4.3135-6.3336-6.6739c-0.6045-0.7329-0.909-2.6007-0.4291-3.1644c1.1727-1.3777,2.2479-0.2612,3.5655,0.5952
		c4.6233,3.0052,9.2806,6.1171,14.322,8.25c2.3629,0.9997,5.6547,0.0239,8.4875-0.3471
		c10.3028-1.3493,20.1498-0.0688,29.6972,4.1977c7.9274,3.5427,14.7238,8.6103,20.9391,14.5164
		c1.7639,1.6762,3.6093,3.6505,3.0414,6.5414c-0.1403,0.714-0.4758,1.3896-0.7581,2.1862
		c-10.1252-7.6042-18.9591-12.1534-24.1517-12.4876c-7.0264-0.6966-27.0865-0.5734-44.4373,0.8559
		c-8.295,0.7054-16.1529-1.3213-23.9228-3.8272c-4.0797-1.3157-6.6766-4.2185-8.3725-8.04
		c-0.8242-1.8573-0.207-3.0783,1.6293-3.8057c3.5342-1.4002,7.0936-2.4662,10.9179-1.1388
		C134.6097,365.031,134.9814,364.8684,135.4729,364.8064z"/>
	<path class="st0" d="M405.7495,381.9111c-20.6313,1.7371-34.1568-4.8925-44.491-1.7831
		c-9.0056,2.2573-16.8902,6.4822-23.8442,12.547c-1.8811-2.4598-1.2167-5.6928,1.7898-8.4442
		c6.0359-5.5237,12.4154-10.5009,19.886-14.0767c9.2845-4.4439,19.0242-5.7677,29.1348-5.1707
		c3.0304,0.1789,6.0887,1.1457,9.0493,0.8628c2.5409-0.2428,5.104-1.4956,7.3978-2.7692c2.8952-1.6075,5.6718-3.516,8.2137-5.6371
		c1.3504-1.1268,2.6189-1.638,3.732-0.5312c0.4431,0.4406-0.0181,2.4193-0.6648,3.2086c-1.8909,2.3083-4.0823,4.3703-6.1219,6.4935
		c3.3645,0.6734,5.718-1.6947,8.1765-3.4698c2.1769-1.5719,3.9362-3.7163,6.085-5.336c0.7924-0.5974,2.1708-0.4175,3.2819-0.5921
		c-0.0989,1.0184,0.0651,2.1656-0.3563,3.0262c-0.6924,1.4139-1.7643,2.6419-2.3356,3.4604
		c3.3045,0.3943,6.8046,0.4843,10.1305,1.2922c4.1091,0.9981,4.2736,2.9913,2.0658,6.6072
		c-3.5444,5.805-9.4389,6.6842-15.1333,7.8889C416.5194,380.5934,411.1697,381.1142,405.7495,381.9111z"/>
	<path class="st0" d="M179.8208,248.7799c-0.9498-1.0117-1.8675-1.9892-2.7853-2.9667c0.0485-0.3133,0.097-0.6266,0.1455-0.94
		c1.533-0.0784,3.0659-0.1568,4.5989-0.2352c0.2093,0.3044,0.4187,0.6088,0.628,0.9131
		c6.6234-11.9658,13.5013-23.8014,19.7232-35.9724c2.0029-3.918,2.4105-8.6936,3.2779-13.1296
		c0.3498-1.7889,0.8203-2.8272,2.7976-2.8282c2.0294-0.001,2.5439,1.0937,2.7279,2.9049c0.9292,9.1424-2.1563,17.4375-5.839,25.4105
		c-5.8823,12.7353-12.7964,25.0072-18.3784,37.8639c-4.2903,9.8817-7.1907,20.3658-10.732,30.5741
		c-1.289,3.7157-2.5251,7.4574-4.0179,11.0916c-0.7636,1.8589-2.2423,3.7586-4.4301,3.2953
		c-1.4833-0.3141-3.0721-1.712-3.9422-3.059c-3.3389-5.1687-2.5321-10.674-0.2998-15.9309
		c5.0102-11.799,10.2511-23.5,15.418-35.2322C178.9912,249.908,179.452,249.3573,179.8208,248.7799z"/>
	<path class="st0" d="M348.4007,548.9472c-1.6029,1.8364-2.9804,3.9576-4.8595,5.4454c-3.1483,2.4928-6.5308,4.7224-9.9677,6.8112
		c-7.0788,4.3021-14.9316,6.5564-23.0042,8.0119c-4.568,0.8236-9.1927,1.4376-13.8189,1.8088
		c-6.8252,0.5477-13.6992,0.5493-20.5069,1.235c-7.7201,0.7778-15.2579-0.0884-22.7412-1.6911
		c-4.1472-0.8882-8.3617-1.8455-12.2467-3.4819c-5.3954-2.2727-10.4972-5.2379-15.7493-7.8574
		c-3.4331-1.7122-7.1773-2.9579-10.2686-5.1403c-1.91-1.3483-2.969-4.0038-4.1204-6.2228
		c-0.1873-0.3608,0.9763-1.9012,1.7825-2.2188c4.1856-1.6489,8.0889-0.2739,11.8647,1.5564
		c1.3849,0.6714,2.6581,1.5707,4.0322,2.2676c5.1062,2.5897,10.1021,5.4579,15.3843,7.6243
		c7.1369,2.9269,14.3445,5.7985,22.3036,5.8544c8.9568,0.0629,17.9294,0.7825,26.8627,0.4201
		c8.3718-0.3398,16.7968-1.225,25.0176-2.8086c5.93-1.1422,11.67-3.5683,17.2894-5.9138c3.3594-1.4022,6.2996-3.7928,9.4799-5.6506
		c0.8308-0.4852,1.8549-0.6393,2.7903-0.9455C348.0833,548.3501,348.242,548.6486,348.4007,548.9472z"/>
	<path class="st0" d="M398.9213,222.5333c0.462,8.4984-0.3196,17.0922,2.7689,25.2985c3.5299,9.3792,9.5281,16.3294,18.6371,20.532
		c3.033,1.3993,4.1587,3.2136,3.5021,6.4838c-0.4189,2.086-1.0251,4.1552-1.7664,6.1506c-1.0475,2.8201-3.2614,3.7441-5.9926,2.5674
		c-7.5113-3.2361-12.9462-8.817-17.4465-15.4806c-4.615-6.8333-7.9153-14.1839-8.1822-22.5109
		c-0.1796-5.6064,0.3315-11.2321,0.4285-16.851c0.1098-6.363,1.646-12.7719-0.5051-19.0718
		c-0.3172-0.9291-0.6307-1.8998-1.1667-2.7041c-0.7042-1.0566-2.4168-2.2372-0.7421-3.2184
		c1.1703-0.6857,3.7264-0.6959,4.5769,0.1221c1.662,1.5984,3.0762,3.8514,3.6685,6.0792
		C397.7939,214.0377,398.2185,218.3224,398.9213,222.5333z"/>
	<path class="st0" d="M287.3882,226.3145c0.7549-10.9551,1.707-20.5574,1.9942-30.1795c0.2618-8.7726,1.0255-17.6732-2.1277-26.1951
		c-0.3242-0.8762-1.0795-1.5883-1.4382-2.4576c-0.4316-1.0461-0.6529-2.1789-0.9653-3.2741
		c1.2512-0.1889,3.1454-0.983,3.6389-0.4588c1.8368,1.9515,3.8944,4.1364,4.617,6.6008c1.3896,4.7393,2.4224,9.6993,2.7155,14.6206
		c0.6874,11.5428,0.4555,23.148,1.3633,34.6674c0.6273,7.9612,2.4698,15.8337,3.9336,23.7154
		c0.2642,1.4226,1.1278,2.8561,2.0551,4.0112c3.308,4.1204,2.4488,8.3917,0.5317,12.6153c-1.0795,2.3784-2.683,2.7057-4.8833,1.2836
		c-5.3857-3.4809-8.1862-8.8496-9.2444-14.8234C288.3304,239.3954,287.9916,232.1892,287.3882,226.3145z"/>
	<path class="st0" d="M167.4602,215.6669c-1.7623,6.3199-3.235,12.7386-5.3476,18.9392
		c-4.3335,12.7191-9.2788,25.2336-13.4446,38.0045c-2.5011,7.6677-3.9996,15.6621-5.969,23.5045
		c-0.191,0.7605-0.3981,1.5673-0.8152,2.2118c-1.784,2.7558-3.4655,2.5456-5.5675-0.031
		c-4.7512-5.8238-3.5084-12.0711-1.5486-18.3288c3.6549-11.6703,8.6243-22.8091,13.6485-33.9502
		c4.4293-9.8217,8.1-19.9864,12.0587-30.0182c0.4228-1.0713,0.5089-2.2722,0.791-3.4031c0.4197-1.6824,1.4176-2.7814,3.2512-2.4956
		c1.7217,0.2684,2.2192,1.5959,2.1969,3.1841c-0.0102,0.7256-0.0018,1.4515-0.0018,2.1773
		C166.9616,215.5298,167.2109,215.5984,167.4602,215.6669z"/>
	<path class="st0" d="M246.2074,186.072c-1.4228,7.4361-2.4282,15.1478-4.4324,22.5905
		c-3.0087,11.1733-6.442,22.2536-10.2313,33.1875c-2.3059,6.6535-5.5357,12.9977-10.5201,18.2308
		c-2.0159,2.1165-6.2495,2.9609-9.1208,1.1477c-2.4706-1.5601-1.9846-4.1276-1.071-6.0241
		c1.7995-3.7355,3.9861-7.3232,6.3436-10.7439c6.8326-9.9137,11.3906-20.8799,14.9744-32.257
		c2.7298-8.666,4.9817-17.483,7.4195-26.2402c0.5219-1.8746,0.8347-3.8124,1.4444-5.6548c0.1905-0.5757,1.05-1.3134,1.584-1.2982
		c0.7236,0.0205,1.8475,0.538,2.0641,1.1172C245.3374,181.9348,245.6667,183.8714,246.2074,186.072z"/>
	<path class="st0" d="M377.258,244.4741c-1.3149,3.9229-2.1168,7.035-3.4075,9.9291c-0.9618,2.1567-3.7568,2.0135-5.7866-0.5346
		c-2.7242-3.4199-4.671-7.0953-5.1295-11.8105c-0.6536-6.7223-2.0076-13.4598-3.8784-19.9559
		c-1.7135-5.95-4.2771-11.6976-6.9216-17.3201c-1.4404-3.0624-3.9161-5.6238-5.7433-8.5254
		c-0.7153-1.1359-0.9339-2.5847-1.3788-3.8909c1.9389-0.4834,4.2224-1.8453,5.7382-1.2506
		c2.4549,0.9632,4.8297,2.8751,6.4944,4.9759c6.439,8.126,10.873,17.3922,14.0157,27.2224
		C373.5572,230.4971,375.3917,237.8286,377.258,244.4741z"/>
	<path class="st0" d="M273.5765,183.481c0,4.051,0.0934,8.1046-0.0188,12.1525c-0.2601,9.381-1.9415,18.5182-5.6484,27.1512
		c-0.6546,1.5245-2.7654,3.0894-4.3855,3.3118c-1.1827,0.1624-2.9742-1.6221-3.94-2.9438
		c-1.4804-2.0259-2.1208-4.5116-1.1387-7.0087c5.1907-13.198,5.666-27.0014,5.4859-40.9195
		c-0.0157-1.2103,0.7114-3.1483,1.5887-3.4951c1.5833-0.6257,3.7879-0.85,5.257-0.187c0.9974,0.4501,1.4333,2.6599,1.6748,4.1547
		c0.4135,2.5598,0.4779,5.1759,0.6889,7.7684C273.2858,183.4707,273.4312,183.4759,273.5765,183.481z"/>
	<path class="st0" d="M335.2307,221.8841c0,2.9398,0.2728,5.9129-0.0797,8.8098c-0.3279,2.6955-1.0748,5.4089-2.0856,7.9349
		c-1.2558,3.1381-3.2738,3.068-5.602,0.5671c-2.8792-3.0928-2.8481-6.5766-2.249-10.3265c1.1308-7.0769,1.4078-14.19-0.1673-21.2133
		c-1.4756-6.5792-3.2017-13.1089-5.0517-19.5936c-0.6252-2.1916-2.0548-4.1426-2.9359-6.2782
		c-0.333-0.8072-0.1553-1.825-0.2104-2.7468c1.2313,0.0459,3.0848-0.4051,3.5866,0.2232c2.2285,2.7908,4.4248,5.718,5.9819,8.913
		c4.1207,8.4547,6.4271,17.528,8.1865,26.7308c0.4371,2.2862,0.5168,4.6407,0.7609,6.9638
		C335.3202,221.8737,335.2755,221.8789,335.2307,221.8841z"/>
	<path class="st0" d="M262.9348,473.5574c3.7233-0.7451,4.9083,2.5624,6.6792,4.5123c1.9477,2.1446,4.1826,2.8345,6.7892,3.0487
		c1.0812,0.0888,2.2124-0.1583,3.2539,0.0628c0.9384,0.1992,1.7854,0.8293,2.6727,1.2693
		c-0.6872,1.0179-1.1978,2.7045-2.0915,2.9406c-4.3658,1.1532-8.8468,2.2758-12.904-1.1071
		c-0.9559-0.7971-2.0932-1.4124-3.22-1.9618c-2.9077-1.4176-3.5918-4.3206-4.4323-6.9674
		c-0.1479-0.4659,1.7947-1.5956,2.7719-2.4188C262.6142,473.1431,262.7745,473.3503,262.9348,473.5574z"/>
	<path class="st0" d="M186.5567,91.1298c-3.2601,1.6372-6.2819,3.0003-9.1521,4.6304c-4.9328,2.8016-9.9496,5.5129-14.5962,8.7437
		c-4.2401,2.9481-8.0256,6.5477-12.0329,9.8339c-1.601,1.313-3.233,2.5916-4.8974,3.8231
		c-3.5084,2.5958-7.1868,4.9819-10.5414,7.7606c-5.0935,4.219-10.0563,8.607-14.9012,13.1098
		c-2.1406,1.9893-3.8105,4.477-5.7778,6.6631c-1.9972,2.2194-4.102,4.3417-6.1508,6.5149
		c-0.9746,1.0338-2.0353,2.0086-2.8717,3.1464c-2.3383,3.1808-4.6002,6.4185-6.8549,9.6597
		c-3.0863,4.4365-6.2997,8.7961-9.1561,13.3773c-2.498,4.0063-4.7468,8.1916-6.8041,12.4438
		c-3.2954,6.8109-6.5853,13.6444-9.4027,20.6591c-1.7271,4.3002-2.6697,8.9312-3.7831,13.4583
		c-1.5208,6.1833-3.0169,12.38-4.2471,18.6254c-1.1119,5.6448-1.969,11.3474-2.7229,17.0529
		c-0.7225,5.467-1.2547,10.9634-1.7092,16.4602c-0.4119,4.9813-0.4281,9.9991-0.9433,14.9672
		c-0.604,5.8245-1.6519,11.602-2.3207,17.4213c-0.3157,2.7473-0.0707,5.5561-0.322,8.3149
		c-0.1473,1.6169-0.4411,3.3824-1.2369,4.7508c-3.8552,6.6284-7.8039,13.208-11.9186,19.6781
		c-2.5577,4.0219-5.4725,7.8165-8.2201,11.7179c-0.3372,0.4789-0.6318,0.9877-1.291,2.0258
		c-2.3482-10.8273-4.6528-21.1998-6.831-31.5987c-1.171-5.5904-2.337-11.1972-3.1076-16.8509
		c-0.5747-4.2166-0.536-8.519-0.7244-12.7852c-0.1208-2.7358-0.0993-5.4785-0.2463-8.2125
		c-0.2249-4.1842-0.8455-8.3717-0.7336-12.5427c0.119-4.4339,0.9172-8.8479,1.3794-13.2747
		c0.4254-4.0747,0.7127-8.1657,1.2247-12.2289c0.3454-2.7404,0.9648-5.4469,1.4808-8.165
		c0.6424-3.3837,1.2322-6.7799,1.9804-10.1404c0.637-2.8614,1.3567-5.7147,2.2434-8.5069c0.7751-2.4407,1.8592-4.7818,2.7626-7.1836
		c2.6983-7.1738,5.3852-14.352,8.0554-21.5364c1.2342-3.3206,2.1953-6.7631,3.6771-9.9668
		c2.4779-5.3575,5.1822-10.6168,7.9638-15.8253c2.4504-4.5883,5.0046-9.1332,7.7589-13.5437
		c2.4075-3.8552,5.131-7.5154,7.7631-11.2276c3.0555-4.3094,6.0304-8.6864,9.2953-12.8332c2.2051-2.8007,4.8524-5.253,7.2994-7.8635
		c3.6978-3.9448,7.3724-7.9117,11.0963-11.8317c3.2523-3.4236,6.5132-6.8412,9.8523-10.1795
		c4.9889-4.9878,10.0876-9.8658,15.0658-14.8639c3.1155-3.1279,5.8943-6.6166,9.1808-9.543
		c5.7614-5.1301,11.7016-10.073,17.7553-14.856c3.3267-2.6284,7.0995-4.6852,10.5395-7.1812
		c1.0986-0.7971,1.7743-2.1773,2.9677-3.2964C161.3809,68.8924,169.6746,82.2452,186.5567,91.1298z"/>
	<path class="st0" d="M70.5718,285.773c0.1612-2.6675,0.2065-5.3481,0.5069-7.9998c0.7089-6.258,1.2779-12.5493,2.3944-18.7386
		c1.1017-6.1076,2.8581-12.0948,4.2256-18.1577c0.6637-2.9426,0.8999-5.9895,1.6752-8.8971
		c1.3391-5.0225,2.5813-10.1222,4.5321-14.9178c2.6924-6.6189,5.719-13.1409,9.1281-19.419
		c3.7547-6.9146,8.042-13.5452,12.2289-20.2169c1.4942-2.381,3.3882-4.5094,5.074-6.7722
		c2.8423-3.8149,5.5042-7.7785,8.5483-11.4238c2.1903-2.6229,4.8952-4.813,7.3401-7.2271c2.3933-2.3632,4.6468-4.8783,7.1459-7.1214
		c3.0027-2.6951,6.2078-5.1641,9.3104-7.7489c1.8481-1.5397,3.6126-3.1849,5.5136-4.6547c2.5528-1.9737,5.282-3.7237,7.7908-5.749
		c4.4593-3.6,8.6452-7.5596,13.2615-10.9369c3.2831-2.4019,7.029-4.203,10.6685-6.078c4.8194-2.4828,9.7789-4.6951,14.5796-7.2118
		c1.0977-0.5755,1.7769-1.9342,2.6793-2.904c0.4401-0.473,0.8792-1.1029,1.4404-1.2832c5.7881-1.8603,11.6317-3.5514,17.3957-5.4812
		c3.5867-1.2009,7.054-2.7552,10.5922-4.1054c3.6487-1.3923,7.2634-2.9094,10.9921-4.0473
		c5.218-1.5924,10.4936-3.0347,15.8126-4.2415c2.683-0.6087,5.5144-0.5738,8.2811-0.8006c3.0856-0.2529,6.1763-0.4454,9.2604-0.7141
		c3.3025-0.2877,6.5996-0.6379,9.8998-0.9533c6.9087-0.6603,13.797-1.0493,20.7426-0.1454c4.0588,0.5282,8.2817,1.014,12.2766,0.442
		c3.3925-0.4857,6.7304-2.2222,9.7802-3.955c2.413-1.371,4.5948-3.3654,6.4264-5.4761c1.5262-1.7588,2.445-4.0624,3.5352-6.1751
		c0.6238-1.2089,0.8844-2.6364,1.6487-3.7269c0.325-0.4636,1.7581-0.7004,2.2798-0.3788c2.0003,1.2332,3.9608,2.596,5.7003,4.1709
		c2.2138,2.0042,1.6283,4.8625,1.2773,7.2883c-0.9323,6.4439-4.2064,11.9015-8.6274,16.4978
		c-2.5163,2.616-5.7113,4.6177-8.7386,6.6949c-4.8824,3.3501-9.7519,6.7512-14.8573,9.7365
		c-7.382,4.3166-15.1224,7.919-23.2353,10.7306c-6.4683,2.2416-12.7769,4.9432-19.2418,7.1956
		c-4.0525,1.4119-8.2891,2.2862-12.3936,3.5611c-2.9388,0.9128-5.7542,2.226-8.698,3.1187
		c-5.1998,1.5769-10.4876,2.8654-15.6801,4.4646c-6.9801,2.1497-13.8958,4.5074-20.8562,6.7225
		c-4.5358,1.4435-9.171,2.603-13.6357,4.2342c-4.953,1.8096-9.7485,4.0461-14.6402,6.0287
		c-2.8728,1.1643-5.8697,2.0423-8.6818,3.3306c-2.8084,1.2865-5.4427,2.9488-8.1768,4.4023
		c-4.7066,2.5022-9.5083,4.8373-14.1192,7.5034c-2.6676,1.5425-5.11,3.5077-7.5289,5.439c-3.4355,2.743-6.8554,5.5217-10.093,8.4912
		c-2.4079,2.2084-5.3462,3.9144-6.7386,7.1888c-0.4971,1.169-1.95,1.9031-2.8602,2.9301c-2.7158,3.0642-5.5764,6.0276-8.0196,9.2998
		c-4.5211,6.0551-8.8439,12.2617-13.1275,18.489c-1.6209,2.3564-2.859,4.9727-4.3558,7.419
		c-1.4242,2.3278-2.9984,4.5636-4.4349,6.8842c-2.5596,4.1351-5.2742,8.1934-7.538,12.4873
		c-2.5671,4.8692-4.8994,9.8844-6.9893,14.9774c-2.5657,6.2526-4.8139,12.6373-7.1209,18.9934
		c-1.0708,2.9503-1.9562,5.9679-2.9256,8.9549C70.9921,285.7852,70.782,285.7791,70.5718,285.773z"/>
	<path class="st0" d="M320.1365,36.1596c-0.8933,0.5362-1.4873,1.0338-2.1717,1.2764c-1.8653,0.6614-3.9186,0.9436-5.618,1.8821
		c-1.9938,1.1011-1.0643,3.1504-0.3626,4.536c1.1378,2.2467,2.5974,4.3783,4.2083,6.3202c1.0112,1.219,2.4152,2.4699,3.8759,2.8832
		c2.9845,0.8443,2.5704,2.838,2.2343,5.3656c-6.3873,0.5215-12.8766,1.0491-19.3654,1.5817
		c-5.0383,0.4136-10.072,0.8941-15.1151,1.2343c-5.699,0.3844-11.4109,0.5816-17.1086,0.9819
		c-3.8085,0.2676-7.6228,0.608-11.3968,1.1696c-4.2834,0.6375-8.5343,1.5107-12.7815,2.3695
		c-3.91,0.7906-7.896,1.3921-11.6709,2.622c-6.5218,2.1249-12.9593,4.5403-19.3187,7.1142
		c-2.1947,0.8883-4.009,2.6835-6.0869,3.9125c-0.6581,0.3892-1.6749,0.5513-2.4126,0.3641
		c-4.3318-1.0991-8.629-2.3345-12.939-3.5197c-6.3383-1.743-11.8387-4.6932-14.7418-10.9621
		c-1.287-2.7792-3.1008-5.8175-2.9313-8.6332c0.1867-3.1019,1.8853-6.4564,3.8289-9.0143c2.0216-2.6605,4.9388-4.7886,7.8031-6.6196
		c2.9329-1.8749,6.3106-3.0411,9.4301-4.6413c2.8199-1.4465,5.4481-3.3145,8.3567-4.5266c2.7439-1.1434,5.7013-1.9154,8.6386-2.4249
		c6.4915-1.126,13.0039-2.2671,19.5569-2.857c4.7432-0.427,9.5654,0.0728,14.3522,0.0637c3.5262-0.0067,7.0549-0.2965,10.577-0.2163
		c2.4285,0.0553,4.8487,0.518,7.2706,0.8151c6.8362,0.8385,13.6999,1.5052,20.4997,2.5761
		c8.0487,1.2676,16.0462,2.8642,24.057,4.3655C313.7323,34.727,316.6341,35.4114,320.1365,36.1596z"/>
</g>
</svg>
