<?xml version="1.0" encoding="utf-8"?>
<!-- Generator: Adobe Illustrator 24.3.0, SVG Export Plug-In . SVG Version: 6.00 Build 0)  -->
<svg version="1.1" id="Layer_1" xmlns="http://www.w3.org/2000/svg" xmlns:xlink="http://www.w3.org/1999/xlink" x="0px" y="0px"
	 viewBox="0 0 1112.1865 1113.2542" style="enable-background:new 0 0 1112.1865 1113.2542;" xml:space="preserve">
<style type="text/css">
	.st0{fill:#FFFFFF;}
</style>
<g>
	<path class="st0" d="M888.146,415.2643c-0.6405-9.1181-1.4832-17.2447-1.7241-25.389c-0.4348-14.6993-0.5328-29.409-0.7083-44.1151
		c-0.0237-1.9865,0.2814-3.9814,0.4989-5.9652c0.3083-2.8121,0.9293-5.3507,4.273-6.1811c4.1391-1.0278,8.3361-0.1028,10.31,2.9634
		c1.4573,2.2638,2.6778,4.7834,3.4729,7.3533c4.7713,15.4221,9.762,30.7917,13.9387,46.3772
		c3.2839,12.2539,5.6351,24.7671,8.1017,37.2244c0.6856,3.4627,2.1974,5.0991,5.5049,6.358
		c21.024,8.0024,42.1135,15.8763,62.8396,24.6042c17.429,7.3394,33.9226,16.5953,48.7712,28.4888
		c13.3459,10.69,23.7402,23.4313,27.8398,40.5068c2.3433,9.7604,1.4592,19.4761-0.1949,29.1968
		c-2.2717,13.348-5.9385,26.2383-13.3276,37.7424c-3.8635,6.0149-8.338,11.5991-15.9955,13.0276
		c-6.8785,1.2831-13.7454,1.4315-20.3509-1.3355c-5.4643-2.289-6.0251-4.3339-3.6331-9.6484
		c7.9159-17.5881,11.1658-36.1024,9.1482-55.2321c-1.7489-16.5823-9.9802-30.1187-22.171-41.3198
		c-9.2942-8.5397-19.6934-15.5711-30.9172-21.1894c-12.4805-6.2473-25.3198-11.7791-38.0162-17.5929
		c-1.1274-0.5163-2.3541-0.8157-3.4727-1.1949c-0.3271,0.4963-0.6989,0.7982-0.6685,1.0517
		c1.2148,10.0901,2.5331,20.1684,3.6625,30.2678c0.2611,2.3354,1.7634,3.312,3.3116,4.6055
		c2.6725,2.2328,2.9504,4.0567,0.2945,6.3043c-2.3154,1.9594-1.9436,4.0259-1.7583,6.3429
		c0.6803,8.5062,1.4993,17.004,2.0152,25.5202c2.5168,41.5536,2.8327,83.1371,0.8459,124.7122
		c-0.6754,14.1328-2.4502,28.2126-3.7106,42.3179c-0.2545,2.8482-0.4543,5.7013-0.6871,8.6498
		c4.3829,1.2632,8.3445,1.4566,12.1923,0.1381c33.8757-11.6075,51.3513-32.908,54.6341-64.8984
		c0.352-3.4298,0.6345-6.877,0.7092-10.3215c0.0533-2.4518,1.3038-3.5555,3.4431-4.2045c5.6973-1.7283,10.5487,0.753,12.2487,6.5375
		c2.2937,7.8052,2.462,15.7216,1.0151,23.7211c-2.8625,15.8263-10.113,28.9815-23.0601,38.8391
		c-13.6642,10.4037-28.5576,18.0551-45.8038,20.1042c-5.3333,0.6337-10.8054,0.0986-16.5919,0.0986
		c-0.6153,4.6209-1.2108,8.8983-1.7513,13.1827c-5.4026,42.8326-14.386,84.8055-29.8146,125.2581
		c-6.2086,16.2784-11.3176,33.0378-18.4687,48.8824c-15.3409,33.9902-33.1582,66.6951-56.7182,95.8379
		c-15.1565,18.748-33.1506,34.4601-53.2406,47.9018c-29.3926,19.6658-61.9871,31.5105-95.862,40.3746
		c-8.2694,2.1637-16.735,3.1306-25.3416,2.9929c-11.2583-0.1799-22.5267-0.2542-33.7819,0.0055
		c-16.6464,0.384-32.999-1.7106-49.0998-5.6223c-17.622-4.2814-35.3315-8.3842-52.6338-13.7539
		c-20.8801-6.4802-39.9291-17.2466-59.0487-27.7104c-22.5931-12.3649-42.4971-28.4741-62.4636-44.4991
		c-22.1125-17.7474-43.4512-36.3785-62.9093-57.0389c-26.7313-28.3832-50.8265-58.7617-69.6381-93.0995
		c-8.4909-15.4988-15.1715-31.7578-21.115-48.3546c-0.7231-2.0193-1.5555-3.9995-2.4088-6.1808
		c-4.4081,0.4835-8.5167,1.0654-12.6458,1.3657c-25.4706,1.8524-50.8665,1.7529-75.7396-4.9186
		c-30.646-8.2199-52.7058-26.934-65.6228-55.9237c-9.7677-21.9218-7.5495-42.8322,7.0537-62.1199
		c9.7537-12.8825,22.0367-23.0563,35.1365-32.3223c1.6008-1.1323,3.2039-2.2615,5.8474-4.127
		c-2.6077-0.1818-4.1012-0.3879-5.5928-0.3745c-18.7259,0.1683-37.4041-0.5286-55.974-3.111
		c-10.9841-1.5275-21.8486-3.6136-32.224-7.6877c-6.2955-2.472-12.2607-5.5494-17.0059-10.5127
		c-2.5456-2.6627-5.0666-5.6308-3.7892-9.6276c1.2979-4.0611,5.1934-4.8112,8.7809-5.4041
		c5.1656-0.8536,10.3852-0.5471,14.4492,3.085c8.423,7.528,18.6708,10.1964,29.3905,11.6407
		c20.4458,2.7548,40.9758,2.0645,61.4646,0.7745c21.929-1.3807,43.774-3.6818,65.4794-7.2433
		c21.9454-3.6008,43.2749-9.3621,63.7651-17.9984c9.373-3.9506,18.824-5.2446,28.698-2.7334
		c1.9113,0.4861,3.8254,1.2283,5.5291,2.2137c5.124,2.964,5.248,6.7914,0.3793,10.0314c-1.6551,1.1015-3.4727,1.9641-5.2392,2.8919
		c-24.8629,13.059-51.5737,20.3452-79.0639,25.0813c-12.1447,2.0923-24.3625,3.7606-36.4904,5.6126
		c-0.5225,2.4711-0.6055,5.0657-1.6298,7.2109c-1.6994,3.5587-4.858,3.4855-7.0851,0.1678
		c-0.8026-1.1957-1.5427-2.4435-2.4502-3.5542c-0.4292-0.5255-1.1853-0.7839-2.0473-1.3218
		c-1.3087,0.9247-2.6979,1.7659-3.9277,2.7971c-12.0455,10.1001-22.5516,21.6058-31.0961,34.8124
		c-9.6981,14.9899-11.9894,31.0733-5.5985,47.8514c2.4973,6.5562,5.7928,12.9554,9.6494,18.818
		c9.986,15.18,22.9104,27.1383,40.1318,33.8672c7.7003,3.0088,15.8035,4.3174,23.9583,4.6606
		c10.5027,0.442,21.0354,0.218,31.5547,0.1732c1.7731-0.0076,3.5438-0.5593,5.7988-0.9415
		c-2.0648-5.7341-4.0426-11.1465-5.9648-16.5786c-7.8696-22.2393-15.614-44.5239-23.6855-66.6895
		c-1.3792-3.7874-1.0579-6.3029,3.868-7.6956c3.5901-1.0151,7.496-1.2633,11.2572-1.2392c5.277,0.0338,9.3077,2.3488,11.5619,7.5016
		c6.1103,13.9673,12.6587,27.7493,18.5091,41.8227c10.3804,24.9709,20.63,50.0026,30.4635,75.1926
		c12.2607,31.4078,29.4063,59.9709,50.0655,86.4009c18.8062,24.0595,39.1803,46.8453,61.8367,67.3512
		c23.6953,21.4461,48.0412,42.2532,74.719,59.9482c23.8005,15.7867,49.0138,29.1931,76.3739,37.816
		c19.0376,6,38.4951,10.8496,58.3245,13.2631c21.4775,2.6139,43.3063,4.2566,64.4121-1.7638
		c25.1535-7.1749,49.5374-16.3879,71.446-31.4235c25.3021-17.3641,47.1402-38.0339,64.4249-63.4183
		c23.5135-34.5319,42.6943-71.2248,56.1948-110.8826c8.7749-25.7763,18.4154-51.2476,24.0701-77.9886
		c5.6014-26.4893,9.9875-53.158,12.6781-80.1017c1.5694-15.7159,3.3994-31.4114,4.6258-47.154
		c0.803-10.3071,1.0522-20.6839,0.9949-31.0264c-0.138-24.8792-0.596-49.7566-0.9494-74.6343
		c-0.0229-1.6138-0.253-3.2245-0.3779-4.7285c-4.609-1.6697-60.431-4.6147-81.9011,4.6511
		c-13.2704,4.1761-25.6203,10.1913-36.7454,18.5975c-3.319,2.5078-6.8779,4.1205-11.1139,3.3776
		c-4.5172-0.7921-5.7555-3.5718-3.2357-7.438c3.124-4.7932,7.4297-8.4146,12.1323-11.5901
		c12.9725-8.7596,27.4168-14.0184,42.4808-17.7505c23.7003-5.8717,47.7668-6.5214,71.9834-4.8799
		c1.753,0.1188,3.5098,0.1807,5.8703,0.2996c-0.4974-8.2074-0.9651-15.9235-1.4627-24.1328
		c-3.4754,0.1758-6.5022,0.3141-9.5273,0.4841c-40.9467,2.3008-79.8247-5.7457-116.6474-23.6439
		c-9.2913-4.5162-18.4026-9.467-27.2823-14.7466c-8.3412-4.9596-15.3556-11.5317-20.6569-19.8203
		c-5.4224-8.4779-7.4338-17.8503-6.3082-27.6159c1.3071-11.3384,3.4618-22.5834,5.392-33.8443
		c1.8711-10.916,4.4368-21.8035,3.6455-32.9345c-0.4456-6.2677-1.5959-12.6436-3.5742-18.5897
		c-1.3752-4.1335-4.3817-7.8867-7.2617-11.3018c-2.0223-2.398-4.7519-4.0909-8.6241-3.3472
		c-2.8703,0.5513-5.5854-1.0488-7.4221-4.0813c1.7137-3.4798,5.0751-3.7295,8.2187-4.0245
		c6.6475-0.624,13.0316,0.8582,19.1773,3.2116c15.1303,5.7939,22.9756,17.6883,26.7584,32.7487
		c2.142,8.5285,2.5114,17.2629,1.7026,25.9852c-0.9384,10.1196-2.3791,20.193-3.2938,30.3142
		c-0.5541,6.1305-0.8245,12.3202-0.6928,18.472c0.2526,11.8055,5.3471,21.5223,14.6011,28.6119
		c6.0097,4.6042,12.5602,8.6801,19.324,12.0889c20.3054,10.2331,41.2293,18.9567,63.706,23.3073
		c13.2414,2.5631,26.5856,3.9435,40.0873,2.7069c2.2944-0.2101,4.5609-0.726,7.2037-1.1603
		c-0.403-5.075-0.7454-9.7414-1.149-14.4025c-1.0339-11.9391-2.2355-23.8662-3.058-35.8196
		c-0.2391-3.4749-1.6865-5.0024-4.7985-6.1502c-15.5096-5.7206-30.713-12.117-44.9249-20.703
		c-14.332-8.6584-24.3347-20.4886-28.0989-37.0966c-1.9078-8.417-2.382-16.8485-0.6676-25.3883
		c1.132-5.6386,4.1824-9.2833,9.9395-10.0169c3.5596-0.4536,7.2441-0.6284,10.7997-0.2474
		c5.4791,0.5871,9.1349,3.5218,11.0084,9.0793c3.8299,11.3616,8.4967,22.3625,14.821,32.6529
		C866.0342,401.9498,875.6186,409.4846,888.146,415.2643z"/>
	<path class="st0" d="M155.2294,465.6948c-0.57,4.3819-1.2614,8.6259-1.6546,12.8975c-2.1318,23.1575-3.7092,46.3454-3.4459,69.6227
		c0.0123,1.0896,0.0096,2.1805,0.0635,3.2684c0.2962,5.9821-0.6166,7.7239-6.1893,9.8629
		c-9.5227,3.6549-19.173,3.5488-28.7748,0.2202c-5.8882-2.0413-9.2109-6.7312-10.4642-12.3719
		c-1.7253-7.7644-2.877-15.7-3.6505-23.6231c-1.6461-16.86-0.7684-33.7513,0.0993-50.627c0.0727-1.4146,0.0096-2.8362,0.0096-4.7521
		c-3.6405,0.2678-7.0027,0.6467-10.3727,0.74c-13.9643,0.3865-27.9306,0.8656-41.897,0.8927
		c-3.5014,0.0068-7.139-1.2056-10.45-2.522c-1.5521-0.6171-3.4104-2.8057-3.4214-4.2947c-0.0108-1.4705,1.8663-3.7903,3.3837-4.2771
		c4.2577-1.3658,8.743-2.6743,13.1635-2.7629c15.8423-0.3177,31.5231-1.9457,47.1267-4.555
		c4.8581-0.8124,4.8842-0.7959,5.7892-5.4484c3.8256-19.6685,9.3195-38.8186,17.6597-57.0908
		c0.3681-0.8063,0.6099-1.6703,1.0166-2.803c-9.7377-7.864-11.4604-18.6285-9.9532-30.0325
		c3.5266-26.6829,11.9891-51.5949,28.3919-73.2995c10.3752-13.7287,23.0116-25.1598,37.147-34.9357
		c16.7958-11.6157,34.5199-21.503,53.9025-28.1262c13.6677-4.6704,27.6827-5.9718,41.8381-2.5815
		c3.6248,0.8681,7.2599,2.4878,10.3616,4.5552c4.3953,2.9296,3.7991,6.9045-1.0942,9.0519
		c-4.0998,1.7992-8.4538,2.5377-12.6485,0.4035c-3.1158-1.5853-5.9076-1.1333-8.8288,0.2825
		c-11.1491,5.4038-21.5318,12.0441-31.5045,19.3631c-16.3875,12.0269-31.0856,25.6967-41.4812,43.4043
		c-3.5771,6.0932-6.5971,12.5154-9.807,18.8202c-0.5353,1.0515-0.7386,2.272-1.4242,4.4676
		c6.3071-4.935,11.464-9.5344,17.1692-13.3038c8.9148-5.8898,18.032-11.5236,27.3836-16.6859
		c7.4182-4.095,15.6476-5.6903,24.2052-5.1227c4.7809,0.3171,6.5959,1.028,9.7449,4.0986
		c-0.6037,2.7111-3.1144,2.4811-5.0325,3.2151c-2.6628,1.0189-5.7395,1.6139-7.8355,3.3567
		c-26.4604,22.002-49.7936,46.7131-65.5421,77.7378c-10.3033,20.2976-15.6277,42.1331-19.2347,64.4539
		c-0.0796,0.4926,0.1171,1.0298,0.2344,1.9232c1.2992-0.1885,2.5134-0.2303,3.6476-0.5531
		c4.3633-1.2418,8.6383-2.869,13.0621-3.8056c7.4277-1.5726,13.0756-5.6011,18.2309-11.0233
		c26.4155-27.7837,52.0701-56.2331,75.4887-86.6073c16.9681-22.0079,28.3807-46.7892,35.1565-73.7173
		c1.1881-4.7216,2.6104-5.9571,7.4711-6.2556c6.9232-0.4251,11.1029,2.3033,13.0702,8.9554
		c2.3191,7.8418,1.568,15.8717,0.6472,23.7992c-2.0007,17.2255-8.3217,33.0467-16.697,48.0528
		c-9.7635,17.4933-21.5417,33.6116-34.412,48.9443c-3.3787,4.025-6.6723,8.1214-10.6384,12.9573
		c1.7008-0.4772,2.55-0.5852,3.28-0.9391c30.5927-14.8284,60.3947-31.0108,87.8675-51.2013
		c20.4732-15.0463,38.4292-32.6715,54.1941-52.5645c4.3991-5.5509,8.7951-11.1042,13.2165-16.6373
		c3.2961-4.1248,7.5699-5.5055,12.5003-4.1002c3.2367,0.9226,4.2846,2.3679,3.242,5.6286c-1.0443,3.266-2.4536,6.4554-4.0437,9.5005
		c-13.0238,24.942-30.3791,46.4019-51.9315,64.5016c-23.3399,19.6009-49.1067,35.5302-75.7942,50.0218
		c-26.3641,14.3159-53.7098,26.4589-82.1078,36.2163c-2.8245,0.9705-5.4059,2.9012-7.8285,4.7433
		c-8.4059,6.3917-16.9829,12.4828-26.8934,16.3669c-10.3134,4.042-20.9651,5.751-32.0317,4.3061
		C157.2189,465.6164,156.5064,465.6948,155.2294,465.6948z"/>
	<path class="st0" d="M605.3244,53.9765c2.5417,2.9131,5.1161,5.6736,7.4663,8.6134c2.145,2.6829,4.1815,5.4755,6.0085,8.3815
		c1.2067,1.9192,1.7814,4.528-0.3525,5.8991c-1.6019,1.0292-4.1522,1.3558-6.0442,0.9347
		c-1.7641-0.3927-3.2742-2.1152-4.7961-3.3734c-5.8599-4.8441-11.6797-9.7368-17.9127-14.944
		c-8.8447,4.9297-17.5153,9.4633-25.8878,14.4934c-15.574,9.3566-30.674,19.4253-44.2809,31.56
		c-7.3631,6.5665-13.9131,13.7308-18.2353,22.8086c-1.0636,2.2338-3.4324,4.418-5.7255,5.3966
		c-10.4792,4.4721-21.2109,4.5441-31.7763,0.2094c-5.2946-2.1723-6.2466-4.4696-5.7396-10.3078
		c0.7142-8.2254,5.1534-14.6085,10.1028-20.7128c8.0704-9.9535,17.9592-17.9608,28.1581-25.5626
		c16.7798-12.5067,34.4957-23.4809,53.7034-31.9283c1.6285-0.7162,3.1875-1.5903,5.994-3.0026
		c-6.679-1.8339-12.1868-3.5326-17.7843-4.8507c-24.007-5.6535-47.9765-5.5777-71.4842,2.1495
		c-31.4917,10.3516-56.6776,29.2493-73.6928,57.9614c-14.1297,23.8428-24.352,49.4567-31.8943,76.1144
		c-1.0297,3.6394-1.457,7.4722-1.9054,11.246c-0.3693,3.1078,0.2465,6.0511,1.8549,8.8913
		c2.1194,3.7426,1.6108,5.9694-1.8868,8.3163c-2.0752,1.3924-4.456,2.5247-6.8607,3.1949
		c-8.2121,2.2886-16.5401,2.3222-24.7622,0.1029c-11.4731-3.0968-18.2097-12.0825-18.3776-23.9868
		c-0.122-8.6476,1.882-16.91,4.2964-25.1224c7.5598-25.7143,19.3023-49.3594,35.8158-70.4517
		c18.6005-23.758,42.9315-39.8127,70.6603-51.1205c32.2756-13.1619,65.7676-17.6705,100.3376-14.1229
		c17.5823,1.8043,34.7294,5.7428,51.0518,12.7179c3.1696,1.3545,6.0195,1.6658,9.4037,0.6229
		c34.1152-10.5137,69.0652-12.9839,104.5023-10.5272c24.2128,1.6786,47.8642,6.1105,70.6617,14.587
		c11.1072,4.1298,21.5988,9.478,31.0379,16.7363c6.993,5.3774,12.7383,11.8552,17.1888,19.4817
		c2.1455,3.6765,3.5437,7.5593,3.4042,11.8755c-0.1392,4.311-1.8332,6.3944-6.0212,7.0918c-3.963,0.6599-7.627,0.0543-10.324-3.3372
		c-20.4238-25.682-48.0054-38.4775-79.5247-44.2c-24.8693-4.5152-49.7983-4.9773-74.8005-1.1941
		C627.6462,46.0187,612.1447,50.5414,605.3244,53.9765z"/>
	<path class="st0" d="M167.2282,597.1679c-3.8112,0-7.6873,0.4333-11.4146-0.1258c-3.5051-0.5258-7.1086-1.6334-10.2042-3.3317
		c-3.6885-2.0237-3.6028-5.2802-0.3232-7.88c0.9795-0.7765,2.1284-1.4367,3.3056-1.8453c2.2204-0.7708,4.49-1.7446,6.7873-1.8939
		c17.0609-1.1089,32.3283-7.7687,47.4946-14.893c31.8214-14.9481,60.1792-35.0135,86.4055-58.2413
		c20.9518-18.5563,41.2307-37.8154,59.3311-59.2076c22.8836-27.0454,40.3021-57.2342,50.9281-91.1431
		c1.4516-4.6322,2.3135-9.5219,2.7963-14.3576c0.2898-2.9029,1.7874-3.7167,4.0155-4.2124
		c8.5057-1.8921,15.5183,2.2126,17.0031,10.9015c1.0264,6.0069,1.112,12.291,0.7392,18.3977
		c-0.9837,16.1136-5.6606,31.3553-11.7784,46.2219c-7.7272,18.7776-18.0497,35.9943-30.7204,51.8173
		c-19.4743,24.3191-41.0501,46.5673-65.4943,65.9502c-22.037,17.474-46.3119,31.2297-71.8125,42.9096
		c-16.0188,7.337-32.1883,14.3808-49.552,17.8893c-9.0353,1.8258-18.2568,2.7306-27.3942,4.0514
		C167.3032,597.8393,167.2657,597.5035,167.2282,597.1679z"/>
	<path class="st0" d="M938.1426,226.715c-9.7161,2.2931-18.6747,4.5736-27.7085,6.5033
		c-16.4166,3.5068-33.0737,4.5399-49.8195,4.1469c-22.5507-0.5292-44.9343-2.6859-66.9956-7.554
		c-19.7297-4.3537-38.058-12.0013-54.386-24.0199c-11.9572-8.8014-22.3716-19.1444-29.5014-32.337
		c-2.2241-4.1154-3.9313-8.582-5.2953-13.0643c-0.8765-2.8802-1.007-6.0918-0.9175-9.1385c0.1535-5.2269,1.877-7.1378,6.3938-8.0379
		c5.3348-1.0631,9.4477,0.5921,11.2135,5.1391c9.9876,25.7188,29.5794,42.0512,53.0457,54.646
		c17.5696,9.43,36.5852,13.806,56.2234,15.87c8.6633,0.9105,17.3529,1.6182,26.0453,2.1964
		c25.1869,1.6753,49.5276-2.823,73.4807-10.1919c6.5761-2.0231,13.2064-3.9707,19.9326-5.3741
		c5.4006-1.1269,10.8669-0.3102,16.013,1.8555c3.8824,1.634,6.1221,4.5126,5.9555,8.8571
		c-0.4246,11.0743-0.9767,22.1412-4.3486,32.8245c-3.5677,11.303-10.0629,20.3559-20.118,26.886
		c-10.4488,6.7856-21.8786,11.3533-33.5215,15.48c-18.176,6.4424-36.5877,11.8334-56.0272,12.8895
		c-27.835,1.5122-52.7165-5.8229-74.3414-23.8098c-11.5191-9.5812-22.2841-19.7613-30.035-32.7367
		c-1.7652-2.955-3.3365-6.04-4.7978-9.1585c-1.433-3.0581-0.8666-4.5371,1.9791-6.2888c8.153-5.0188,21.3462-2.7894,26.9899,4.8596
		c11.1244,15.0773,24.5546,27.6678,40.1794,37.9449c2.8777,1.8928,5.8544,3.6546,8.8859,5.2906
		c10.0899,5.4453,20.7118,7.5142,32.0873,5.0287c17.9782-3.9281,35.3131-9.7021,51.9391-17.616
		c10.6963-5.0914,17.9407-13.3703,22.5181-24.1135C935.4675,238.3979,937.4128,232.9842,938.1426,226.715z"/>
	<path class="st0" d="M601.2281,252.1209c-9.8433-5.0485-19.2375-7.7756-29.1115-7.9296
		c-25.4815-0.3974-48.7293,6.6941-69.1466,22.1545c-3.5714,2.7043-6.6204,6.1869-9.559,9.6117
		c-2.5437,2.9645-3.8322,6.4164-2.7063,10.6034c0.8405,3.1256-0.1306,4.4294-3.2015,5.0587
		c-5.6903,1.1662-10.3468-0.9092-14.1343-5.0974c-3.3989-3.7585-3.4007-8.1246-0.9466-12.11
		c2.6358-4.2805,5.5728-8.558,9.1514-12.0429c12.7986-12.4636,28.6131-19.5926,45.5039-24.634
		c19.7333-5.8898,39.8455-7.8421,60.312-5.5958c14.3839,1.5787,27.9787,5.9277,41.0394,12.1258
		c2.3538,1.1171,5.1633,1.8932,7.7382,1.8307c31.7557-0.77,59.3248,10.4978,84.167,29.3192
		c10.8726,8.2375,20.8028,17.6027,28.9853,28.606c2.3544,3.1662,4.4512,6.6819,5.8785,10.3443
		c2.4042,6.1691-0.2885,10.8669-6.8224,12.0643c-3.3347,0.6111-6.9014,0.6127-10.275,0.1883
		c-4.2477-0.5344-7.9969-1.8681-8.5052-7.425c-0.2091-2.2859-2.0667-4.6469-3.6801-6.5436
		c-16.7827-19.7299-36.2943-35.9956-60.0708-46.7549c-0.9362-0.4237-1.9504-0.6751-3.3235-0.3125
		c3.9472,3.3167,7.9906,6.5268,11.8159,9.9786c4.3076,3.887,8.4507,7.9591,12.5942,12.0231c1.158,1.1357,2.1359,2.4774,3.0753,3.81
		c4.9822,7.0675,3.5226,11.8023-4.6149,14.4937c-5.6797,1.8784-11.454,1.9086-17.0845-0.2622
		c-2.3708-0.9141-4.5875-2.0011-4.2296-5.4416c0.1346-1.2947-0.9392-3.0695-1.9899-4.0728
		c-5.1132-4.8824-10.1755-9.8654-15.6903-14.2684c-7.3687-5.8832-15.1931-11.192-22.7059-16.9
		c-2.7813-2.1132-5.342-2.228-8.558-1.0008c-11.8413,4.5182-22.6678,10.7073-31.9096,19.3785
		c-14.1794,13.3038-27.7617,27.2151-39.392,42.8429c-4.3932,5.9033-10.3085,6.4707-15.9188,4.8268
		c-4.4757-1.3115-6.0161-4.2917-4.7068-8.8291c0.5483-1.9005,1.3003-3.8177,2.342-5.489
		c16.6501-26.7127,37.2313-49.145,67.1715-61.3041c1.343-0.5454,2.7141-1.0214,4.0694-1.5367
		C597.9646,253.3844,599.1366,252.9275,601.2281,252.1209z"/>
	<path class="st0" d="M896.8102,118.8779c24.489,1.4094,46.2972,4.5366,66.9218,13.5389
		c33.354,14.5584,53.4844,40.1633,62.2892,74.9785c3.9813,15.7426,5.4886,31.8141,3.5779,48.0651
		c-0.9417,8.0096-2.8929,15.7069-7.3593,22.5567c-8.7133,13.3628-22.1117,15.7746-35.8408,11.5669
		c-1.661-0.5091-3.4407-1.5546-4.4754-2.8871c-0.8072-1.0398-1.2914-3.5002-0.6426-4.325
		c9.3801-11.9224,8.622-25.8912,7.8273-39.6478c-1.0953-18.9622-5.418-37.3051-12.6758-54.8994
		c-12.3315-29.8941-34.5378-47.7093-66.2038-53.7589c-6.5814-1.2573-13.2518-2.0927-19.9097-2.8806
		c-2.106-0.2492-4.3187,0.1895-6.4586,0.4865c-4.1783,0.58-8.3295,0.8617-12.3276-0.8184
		c-2.0001-0.8404-4.5835-1.8154-4.0718-4.3539c0.3218-1.596,2.1442-3.4328,3.7399-4.111c2.9609-1.2584,6.2078-2.1356,9.4093-2.4742
		C886.7338,119.2665,892.909,119.1074,896.8102,118.8779z"/>
	<path class="st0" d="M709.139,84.8712c13.8448-0.1413,28.9825,1.3171,43.7666,5.5031c8.6135,2.4389,16.7093,6.0455,23.8829,11.5161
		c12.2001,9.3039,16.3231,21.517,11.7464,36.1208c-3.2487,10.3663-8.7289,19.5394-16.4957,27.211
		c-7.7418,7.6469-17.0417,10.8974-27.842,8.9698c-2.6052-0.465-5.2302-1.5486-7.5089-2.9116
		c-2.3739-1.4199-2.4753-3.1956-0.9415-5.568c0.7851-1.2144,1.7858-2.2881,2.6701-3.4399
		c6.6141-8.6145,11.3333-18.1402,13.6756-28.7757c3.0256-13.7383-1.6231-22.9063-14.4871-28.5402
		c-10.2128-4.4728-21.1033-5.2593-32.0148-5.2346c-30.7668,0.0697-59.1991,8.0372-84.353,26.1703
		c-18.4283,13.2848-32.7435,30.1741-43.165,50.3988c-1.8061,3.5049-4.119,6.8376-6.675,9.8439
		c-3.0184,3.5502-12.8811,3.4007-15.8411-0.1257c-0.9122-1.0868-1.33-3.0081-1.1883-4.4712
		c0.2777-2.8668,0.877-5.7534,1.7493-8.5029c3.6544-11.5183,9.0488-22.1074,16.7193-31.5494
		c19.1624-23.5881,43.6964-38.9706,72.5489-47.7641C665.6707,87.5394,686.4625,84.7207,709.139,84.8712z"/>
	<path class="st0" d="M536.8167,538.0646c12.5515-0.2676,25.6285,0.7107,37.8594,5.8691
		c6.4461,2.7188,12.4871,6.5677,18.3238,10.4833c2.5732,1.7263,4.6099,4.6566,6.1282,7.454
		c2.1619,3.9833,0.6141,7.9045-3.2959,10.178c-8.6705,5.0414-23.8204,3.5284-31.2985-2.944
		c-7.2448-6.2706-15.9219-9.3824-25.3123-10.2795c-11.3573-1.085-22.3897,1.3061-33.3846,3.8335
		c-18.8521,4.3336-36.5346,11.8438-54.1779,19.5405c-25.1459,10.9696-51.4329,17.8023-78.7709,20.009
		c-8.8003,0.7104-17.7399-0.2449-26.6132-0.5204c-5.3815-0.1671-8.8289-3.85-12.3401-7.2341
		c-1.5543-1.4979-0.9424-3.2402,0.8874-3.8994c2.1696-0.7816,4.5235-1.221,6.831-1.4196c7.0439-0.6066,14.125-0.8232,21.1534-1.5578
		c20.0874-2.0996,39.1331-8.0085,56.9644-17.3142c22.9826-11.9939,46.886-21.29,72.1945-26.9211
		C506.5301,540.1014,521.228,537.9054,536.8167,538.0646z"/>
	<path class="st0" d="M1031.2538,245.414c2.8092-3.3909,5.709-3.6957,8.6266-3.5279c13.6252,0.7836,25.3251,6.0082,34.7428,15.8831
		c17.9541,18.8259,19.537,47.3186,4.0707,68.4466c-5.8795,8.0318-13.236,14.4009-21.5607,19.7065
		c-18.5823,11.8431-38.5519,20.0514-60.5484,22.8859c-7.6613,0.9873-15.2247,0.5477-22.5961-1.7857
		c-2.532-0.8015-5.645-1.6638-5.5081-5.0967c0.1207-3.0283,2.907-4.0764,5.3608-4.635c3.151-0.7174,6.4178-0.9417,9.6419-1.3163
		c2.5027-0.2907,5.1208-0.1133,7.5089-0.7822c20.2344-5.6679,38.5139-15.0386,53.5819-29.869
		c15.7894-15.5407,19.5404-41.4236,9.0496-60.9274c-3.667-6.8174-8.4619-12.5906-16.4707-14.8987
		C1035.1028,248.9061,1033.4387,246.9749,1031.2538,245.414z"/>
	<path class="st0" d="M243.8206,529.3707c-3.7944-0.8742-7.0548-1.319-10.0582-2.4476c-1.4859-0.5584-3.3375-2.2889-3.4802-3.6508
		c-0.1327-1.2668,1.5242-3.1105,2.851-4.0612c2.9389-2.1057,6.1754-3.7936,9.2726-5.6814
		c17.4915-10.6616,32.7935-23.9314,46.5205-39.0764c18.0106-19.8709,33.4966-41.4703,45.1399-65.7195
		c1.4102-2.9371,2.9617-5.8333,4.7295-8.5662c3.619-5.595,8.4649-7.46,14.9755-6.0546c4.653,1.0044,5.9611,2.368,5.6092,7.0582
		c-0.2969,3.9581-0.9742,7.9226-1.8702,11.7947c-3.4019,14.7011-10.0542,27.9951-18.6061,40.2741
		c-21.8579,31.384-49.0992,56.6981-84.0855,72.9654C251.2948,527.8438,247.2704,528.4053,243.8206,529.3707z"/>
	<path class="st0" d="M778.9987,374.5161c0.4315-14.9473,4.0956-30.8303,8.2845-46.6451c0.9094-3.4337,3.5989-5.1239,8.5647-4.8723
		c4.3273,0.2193,5.9127,1.4195,6.3219,5.8886c0.8268,9.0302,1.158,18.1046,1.7905,27.1539
		c0.8889,12.7176,3.0089,25.1924,7.2044,37.2924c5.5216,15.9246,15.4077,29.106,26.0549,41.7941
		c7.3629,8.7743,15.4785,16.8211,24.4106,24.0312c4.2315,3.4156,3.851,6.2228-1.2662,8.0907
		c-6.1656,2.2506-12.6275,2.5305-18.5928-0.2732c-5.2103-2.4488-10.3304-5.4062-14.8442-8.9597
		c-13.4854-10.6163-24.9514-23.1922-34.7502-37.315C782.83,407.2304,778.9238,392.2344,778.9987,374.5161z"/>
	<path class="st0" d="M961.1211,503.4206c1.3904-2.6782,3.6884-3.108,6.0392-3.4546c7.2681-1.0717,13.6467,1.1942,19.3968,5.4099
		c13.9263,10.21,21.1869,24.1774,22.0624,41.2516c1.0723,20.9083-2.4225,41.2056-9.6212,60.848
		c-2.8205,7.6961-7.2576,14.1909-14.6158,18.3146c-6.0834,3.4093-12.4419,3.7698-18.8946,1.4032
		c-4.3423-1.5925-4.862-4.003-1.5215-7.1224c3.4672-3.2377,5.2749-7.3259,6.7255-11.6392
		c4.1863-12.4484,6.3503-25.3362,7.5331-38.3488c0.8521-9.3749,1.298-18.8294,1.1779-28.2388
		c-0.1373-10.7635-3.5952-20.7151-9.9731-29.4409C967.1198,509.243,964.1003,506.6014,961.1211,503.4206z"/>
	<path class="st0" d="M1052.2245,366.6155c1.7512-2.9823,4.3516-3.272,6.8239-3.5034c4.8827-0.4569,9.3497,0.9837,13.375,3.674
		c8.8593,5.9214,14.4779,14.2472,16.7803,24.5293c2.3068,10.3016-0.9419,19.3509-7.7881,27.1738
		c-8.1443,9.3062-18.2682,15.9191-29.2954,21.2607c-15.7583,7.6333-32.3831,11.5994-49.9109,11.3227
		c-3.1867-0.0503-6.4642-0.8386-9.4874-1.8945c-1.4194-0.4958-3.2009-2.4163-3.2315-3.7281
		c-0.03-1.2855,1.7052-3.1735,3.1114-3.8064c2.4311-1.0942,5.1735-1.7358,7.8435-2.0211
		c16.9901-1.8156,31.4937-9.2426,44.7114-19.5885c2.4185-1.8929,4.6448-4.0507,6.8326-6.2148
		c13.4919-13.3453,12.6583-28.7086,3.3356-42.9604C1054.3591,369.3826,1053.2443,368.0042,1052.2245,366.6155z"/>
	<path class="st0" d="M251.5122,185.9212c-0.3874-2.9651-0.8199-5.2743-0.966-7.6015c-0.3092-4.9277,1.2981-7.4328,5.7535-9.35
		c9.98-4.2944,22.7433-1.6864,29.8894,6.3309c5.3035,5.9501,10.4728,12.0267,15.5245,18.1924
		c4.3056,5.2551,3.57,8.8669-2.3072,12.3047c-4.7914,2.8026-10.1194,3.8702-15.5715,4.3721
		c-1.801,0.1658-3.6293,0.252-5.4319,0.1473c-9.7363-0.5656-19.3846-1.0158-29.1693,0.556
		c-6.9604,1.1181-14.1019-0.5722-20.8056-2.9855c-2.4968-0.8988-4.9464-2.3387-6.9676-4.06
		c-3.794-3.2311-3.8279-7.0213,0.1558-10.0688c2.816-2.1542,6.1548-3.9728,9.5458-4.943c4.6615-1.3336,9.5859-1.7698,14.4122-2.4936
		C247.3357,186.0581,249.1386,186.0717,251.5122,185.9212z"/>
	<path class="st0" d="M756.5956,847.9764c-0.8768,1.4288-1.354,2.6262-2.1799,3.4904
		c-18.2163,19.0623-39.8713,32.3796-65.5386,38.8486c-11.9527,3.0125-24.0547,3.0829-36.1847,1.1345
		c-18.4235-2.9593-35.9557-8.516-52.0273-18.1812c-1.9035-1.1447-4.9767-1.984-4.4508-4.8325
		c0.5771-3.1254,3.8058-3.6809,6.436-4.1118c5.0963-0.8348,9.9728-0.2461,14.8033,2.0665
		c12.8005,6.1281,26.2065,10.4764,40.174,13.2104c9.3743,1.8351,18.3771,1.0211,27.2959-2.0953
		c14.4325-5.0429,28.1725-11.4752,41.0303-19.8138c5.9191-3.8386,12.0182-7.4453,18.2702-10.7081
		C747.9973,845.0149,752.168,844.6885,756.5956,847.9764z"/>
	<path class="st0" d="M812.971,127.2405c16.0389,0.888,30.2853,6.631,43.0233,16.2434c3.279,2.4744,6.1037,5.5544,4.6783,10.1362
		c-1.3077,4.2038-5.3877,4.8068-8.8734,5.071c-3.8965,0.2952-7.9385-0.1983-11.7911-0.9746
		c-1.6929-0.3411-3.6863-1.9229-4.4703-3.4812c-1.6898-3.3587-4.4304-5.3823-7.5508-6.7335
		c-7.9614-3.4472-16.0732-6.5477-24.1343-9.7633c-1.5076-0.6014-3.179-0.8837-4.5657-1.6783
		c-3.0908-1.7709-3.2125-4.6561,0.0261-6.1948c2.8704-1.3638,6.1644-1.8958,9.3188-2.5748
		C810.0176,126.9924,811.521,127.2405,812.971,127.2405z"/>
	<path class="st0" d="M713.4548,703.0375c-3.4276,3.5891-7.045,3.3544-10.6215,2.6016c-4.6545-0.9796-8.2125-3.7862-10.8471-7.6481
		c-8.2288-12.0627-9.2239-24.865-3.5088-38.2028c1.6717-3.9014,3.9752-5.1013,8.1666-4.8513
		c4.4621,0.2662,5.6024,1.6526,5.2133,6.2131c-0.3079,3.6087-0.8624,7.2318-0.7635,10.8335
		C701.4139,683.6351,703.5853,694.67,713.4548,703.0375z"/>
</g>
</svg>
