<svg width="78" height="89" viewBox="0 0 78 89" fill="none" xmlns="http://www.w3.org/2000/svg">
<path d="M62.1051 64.4844C62.149 63.6608 62.2237 62.8375 62.2279 62.0138C62.232 61.2028 62.1813 60.3905 62.1196 59.581C62.0972 59.2877 62.1903 59.1134 62.4754 59.0383C62.4754 58.6806 62.4754 58.349 62.4754 58.0268C62.7147 57.8362 62.9151 57.8767 63.1098 58.1082C63.1494 58.0091 63.2006 57.9338 63.2078 57.8551C63.3188 56.642 63.4249 55.4284 63.5305 54.2149C63.6865 52.4211 63.9983 50.6466 64.2943 48.8696C64.5258 47.4801 64.7332 46.087 64.9285 44.6928C65.0655 43.716 65.1817 42.7361 65.2753 41.755C65.3799 40.658 65.4599 39.5586 65.5293 38.4592C65.5851 37.5757 65.6387 36.6906 65.6419 35.8061C65.6524 32.8787 65.2638 29.9898 64.6055 27.1284C64.2464 25.5672 63.9119 24.0011 63.5534 22.4398C63.0449 20.2254 62.1626 18.1288 61.1652 16.0684C60.8121 15.3388 60.4565 14.6086 60.1483 13.8625C59.6994 12.7754 59.0295 11.8142 58.2515 10.9119C57.6634 10.2299 57.0648 9.55438 56.4408 8.90029C56.1195 8.5636 55.7648 8.23836 55.3696 7.97973C53.6434 6.8498 51.8648 5.79258 49.922 4.9995C48.0755 4.24574 46.1276 3.83213 44.1284 3.59337C41.8174 3.31738 39.4982 3.28233 37.1781 3.39626C34.1859 3.5432 31.3188 4.14887 28.621 5.40533C26.7571 6.27342 24.9588 7.22824 23.2348 8.31431C21.9772 9.10649 20.9701 10.1132 20.0293 11.1935C19.2004 12.1454 18.3668 13.0937 17.5348 14.0432C17.1364 14.4979 16.812 14.9887 16.5636 15.5307C15.8462 17.0964 15.083 18.6444 14.3796 20.2152C13.6192 21.9135 13.0893 23.6762 12.8545 25.5037C12.7011 26.697 12.5592 27.8936 12.4803 29.0925C12.3823 30.5834 12.321 32.0779 12.3032 33.5714C12.2651 36.7696 12.2486 39.9682 12.2574 43.1665C12.2611 44.517 12.3362 45.8679 12.4068 47.2173C12.4597 48.2302 12.5566 49.2412 12.6366 50.2528C12.6409 50.3066 12.6709 50.3587 12.7094 50.4713C12.8372 50.3614 12.9569 50.2922 13.0249 50.193C13.1556 50.0021 13.3418 50.0153 13.5253 50.0592C13.5943 50.0757 13.6813 50.174 13.6871 50.2404C13.7032 50.4265 13.7096 50.6206 13.6697 50.8023C13.3971 52.0435 13.28 53.2986 13.2104 54.5612C13.1902 54.9261 13.2284 55.2701 13.3085 55.7233C13.5074 55.4042 13.6386 55.1637 13.8009 54.9424C13.9495 54.7396 14.1084 54.5338 14.3041 54.3714C14.6755 54.0633 15.0971 54.1972 15.1525 54.6442C15.1966 55.0007 15.2028 55.3667 15.1725 55.7246C15.0326 57.3746 14.9725 59.0262 15.0509 60.6795C15.0801 61.2958 15.1743 61.9094 15.2389 62.5242C15.2755 62.5278 15.3121 62.5314 15.3487 62.535C15.4088 62.3374 15.4795 62.142 15.5271 61.942C15.7192 61.1344 16.1839 60.4365 16.5852 59.7141C16.7193 59.4727 17.3353 59.4417 17.5008 59.6611C17.5535 59.731 17.5738 59.8712 17.5332 59.9431C17.2089 60.5187 17.3251 61.1405 17.3204 61.7398C17.3022 64.0588 17.648 66.3465 18.0902 68.6237C18.104 68.6948 18.1278 68.7649 18.1535 68.8333C18.1685 68.8732 18.1968 68.909 18.1796 68.88C18.1796 68.1776 18.1717 67.4114 18.1813 66.6454C18.197 65.3952 18.2991 64.151 18.6695 62.9428C18.8274 62.4278 19.0665 61.9339 19.2722 61.4317C19.2997 61.3646 19.3428 61.3014 19.3879 61.2423C19.5195 61.0698 19.7081 60.9891 19.9235 61.0536C20.149 61.1212 20.0791 61.313 20.0644 61.4661C19.8258 63.9461 20.3212 66.355 20.8959 68.7563C20.906 68.7986 20.9246 68.8395 20.9432 68.8795C20.9485 68.8909 20.9677 68.8969 21.0043 68.9211C21.0717 68.3044 21.1315 67.7002 21.2049 67.0974C21.3402 65.9867 21.5294 64.8866 21.8579 63.8059C22.0835 63.0639 22.4853 62.4158 22.9479 61.7897C23.0854 61.6036 23.5335 61.529 23.7108 61.679C23.783 61.7401 23.8356 61.9063 23.7968 61.9798C23.3617 62.8026 23.4882 63.6845 23.4677 64.5471C23.4173 66.6607 23.6776 68.7515 24.0653 70.8309C24.0747 70.8817 24.1041 70.9293 24.1967 70.9803C24.2125 70.9065 24.2358 70.8333 24.2431 70.7588C24.4086 69.0777 24.7475 67.4242 25.2746 65.8101C25.583 64.8659 25.9913 63.949 26.3653 63.0233C26.4534 62.8054 26.5684 62.6003 26.887 62.5851C27.2514 62.5676 27.4004 62.6685 27.3726 63.0006C27.341 63.377 27.2778 63.7512 27.2296 64.1265C27.2211 64.1928 27.2193 64.2598 27.2652 64.3376C27.3184 64.1887 27.3682 64.0387 27.4254 63.8912C27.648 63.3171 27.8408 62.7307 28.1081 62.1747C28.2908 61.7947 28.5707 61.4526 28.8232 61.1034C28.9288 60.9573 29.2135 60.9275 29.3842 61.0105C29.598 61.1145 29.5187 61.2689 29.4837 61.4272C29.2523 62.4726 29.2422 63.5298 29.302 64.5896C29.305 64.6427 29.3445 64.6941 29.3991 64.8209C29.4593 64.6512 29.5055 64.552 29.5295 64.4483C29.7377 63.5486 30.0549 62.6874 30.5738 61.8951C30.7639 61.6048 30.9874 61.3436 31.3071 61.1671C31.4131 61.1086 31.5316 61.0549 31.6516 61.0344C32.0917 60.9595 32.2086 61.0884 32.1277 61.4917C31.9152 62.5517 31.9625 63.6104 32.2776 64.6437C32.5036 65.3848 32.3509 66.0488 31.9713 66.6962C31.8069 66.9766 31.643 67.2604 31.4415 67.5179C31.3288 67.662 31.151 67.7737 30.9797 67.863C30.9087 67.9 30.7373 67.8748 30.6814 67.8189C30.3978 67.5349 30.0373 67.3113 29.9143 66.9C29.8206 66.5868 29.6516 66.2927 29.4752 65.8989C29.427 66.1105 29.386 66.2203 29.3792 66.3319C29.3388 66.9905 29.0373 67.567 28.7098 68.1327C28.5214 68.4579 28.3355 68.4847 28.0561 68.2014C27.8493 67.9917 27.6887 67.7383 27.5374 67.4891C27.4165 67.2898 27.3406 67.0674 27.1584 66.86C27.1499 67.235 27.1333 67.6101 27.1343 67.9851C27.1406 70.4934 27.4173 72.9716 28.1257 75.4004C28.2363 75.7792 28.3359 76.1637 28.4887 76.5286C28.9116 77.5388 28.8795 78.58 28.7561 79.6235C28.6708 80.3444 28.5305 81.0599 28.4087 81.777C28.3426 82.1662 28.2266 82.2525 27.8003 82.1581C27.5144 82.0947 27.1935 82.0199 26.9803 81.8515C26.2707 81.2912 25.6372 80.6684 25.3345 79.8161C25.1787 79.3774 24.962 78.9569 24.7454 78.466C24.4187 78.9499 24.5673 79.526 24.1427 79.9416C23.4619 79.665 22.9641 79.1735 22.5807 78.6171C22.2051 78.0722 21.9503 77.4568 21.6236 76.8365C21.5411 77.0477 21.4664 77.2387 21.3607 77.5091C20.4562 76.7231 19.8582 75.8522 19.4287 74.851C19.005 73.8633 18.6247 72.8731 18.4507 71.796C18.4207 71.8512 18.3779 71.9035 18.3626 71.9618C18.149 72.7782 17.7505 73.515 17.2182 74.1912C16.9723 74.5036 16.7024 74.4988 16.3889 74.2555C15.852 73.8389 15.5187 73.3242 15.2904 72.7132C15.0752 72.1375 14.7716 71.589 14.6998 70.9737C14.6612 70.6425 14.6471 70.3089 14.6222 69.9788C13.8728 69.8323 13.3775 69.3525 12.8789 68.8871C12.0385 68.1027 11.7502 67.0516 11.3458 66.0675C10.9779 65.1723 10.7116 64.2419 10.3943 63.3289C10.3271 63.1358 10.2416 62.9469 10.1497 62.7623C9.73798 61.9355 9.62804 61.0738 9.7103 60.1703C9.74786 59.7578 9.66545 59.3346 9.62165 58.9176C9.49289 57.6917 9.303 56.469 9.23648 55.2404C9.15793 53.7899 9.18549 52.3346 9.16298 50.8814C9.14744 49.8787 9.12562 48.8761 9.10427 47.8735C9.10283 47.8059 9.08163 47.7387 9.06312 47.6349C8.92233 47.7004 8.81507 47.7535 8.70491 47.8008C8.39083 47.9359 8.08168 48.0829 7.75956 48.1994C6.94515 48.4938 6.23864 48.2899 5.54251 47.8408C4.25345 47.0091 3.34561 45.913 2.61926 44.6414C2.01409 43.5819 1.59397 42.4838 1.49152 41.2984C1.36954 39.8871 1.72157 38.5544 2.45425 37.3127C2.91636 36.5295 3.48099 35.8157 4.22871 35.2342C4.94529 34.677 5.7638 34.3246 6.68275 34.1663C6.79015 34.1478 6.90317 34.1538 7.01359 34.1539C7.76781 34.1543 7.93167 34.4314 7.54677 35.0521C6.83728 35.149 6.29789 35.5408 5.81999 35.9775C5.01401 36.7141 4.40914 37.5782 4.14036 38.6135C3.72827 40.2008 4.16871 41.6289 5.12317 42.9506C5.5568 43.551 6.12306 44.0421 6.8043 44.3984C7.52456 44.7751 8.17065 45.2326 8.76042 45.7634C8.82478 45.8213 8.90217 45.8669 9.0085 45.9435C9.03198 45.8574 9.05657 45.8075 9.05773 45.7571C9.07573 44.9726 9.07402 44.1874 9.11012 43.4037C9.17016 42.1001 9.24275 40.7968 9.33095 39.4946C9.42304 38.1349 9.53449 36.7763 9.64757 35.4179C9.72811 34.4503 9.83329 33.4845 9.91295 32.5169C9.99507 31.5196 10.047 30.5201 10.1346 29.5233C10.2921 27.7323 10.4952 25.9463 10.8143 24.1717C11.2902 21.5247 12.2223 18.9941 13.0655 16.4378C13.5048 15.1063 14.3091 13.965 15.0298 12.7746C15.4157 12.137 15.8855 11.5575 16.4131 11.0105C17.6312 9.74781 18.8708 8.50459 20.263 7.40163C21.5587 6.37508 22.9273 5.45945 24.5016 4.79407C26.0162 4.15391 27.5759 3.66503 29.1704 3.24178C29.9581 3.03269 30.725 2.75791 31.5044 2.52153C31.8335 2.42174 32.1662 2.32562 32.5047 2.2601C33.7407 2.02085 34.9754 1.77272 36.2192 1.57274C36.9795 1.45049 37.7538 1.36488 38.5245 1.34254C40.0247 1.29907 41.5298 1.25493 43.0272 1.32022C44.0933 1.3667 45.1571 1.55871 46.2097 1.74449C47.986 2.058 49.6598 2.67588 51.329 3.29822C51.3437 3.30368 51.3577 3.31068 51.3724 3.31573C52.4067 3.66927 53.4457 4.01178 54.4728 4.38216C54.8209 4.50769 55.1597 4.67613 55.4673 4.87209C56.8178 5.73246 58.1472 6.62096 59.5015 7.47612C60.0432 7.8182 60.5193 8.20038 60.8961 8.70071C61.1374 9.02106 61.412 9.33463 61.731 9.58809C62.5782 10.2613 63.1677 11.1006 63.6114 12.0225C64.5706 14.0151 65.5024 16.019 66.4247 18.0263C67.22 19.7576 67.7496 21.564 68.2016 23.3951C68.7675 25.6878 69.3381 27.9788 69.7117 30.3062C69.8243 31.0079 69.8913 31.7164 69.9623 32.4232C70.1381 34.1737 70.2114 35.929 70.1821 37.6861C70.1497 39.6333 70.0872 41.5802 70.0348 43.5271C70.0156 44.2382 69.9871 44.9491 69.9641 45.6601C69.9604 45.7726 69.9636 45.8852 69.9636 45.9957C70.0295 45.9992 70.0696 46.0132 70.0873 46.0005C70.6619 45.5928 71.2467 45.1961 71.8045 44.7696C72.8683 43.9564 73.479 42.8953 73.7466 41.6574C74.0704 40.1593 74.0462 38.6567 73.7907 37.1554C73.6835 36.5254 73.521 35.9036 73.4001 35.2753C73.3458 34.9931 73.3321 34.7042 73.3018 34.4346C73.8468 34.1714 73.9505 34.1665 74.3019 34.5524C74.5519 34.8269 74.7774 35.1347 74.9416 35.4586C75.6564 36.8682 76.0597 38.3529 76.1324 39.9107C76.1472 40.2286 76.1948 40.5457 76.1978 40.8634C76.2172 42.88 75.5927 44.7323 74.4408 46.4316C74.1437 46.8699 73.7559 47.2681 73.3526 47.6309C72.5984 48.3095 71.6756 48.5227 70.6422 48.3218C70.4 48.2747 70.1579 48.2276 69.8715 48.1719C69.8314 48.6296 69.7988 49.0466 69.7575 49.463C69.5932 51.1225 69.4653 52.7862 69.2482 54.4398C69.0632 55.8489 68.7565 57.2441 68.5369 58.6499C68.3438 59.8858 68.1076 61.1114 67.7866 62.3254C67.3008 64.162 66.7648 65.9836 65.9576 67.7257C65.6421 68.4066 65.2859 69.0734 64.9109 69.7284C64.6162 70.2431 64.2357 70.7074 63.7395 71.0836C63.6205 71.1738 63.5214 71.2951 63.4406 71.4175C63.1784 71.8143 62.9232 72.2153 62.6782 72.6213C62.6116 72.7317 62.5713 72.8628 62.5516 72.9887C62.3055 74.5638 61.8421 76.0807 61.1444 77.5379C60.7608 78.3392 60.2679 79.0802 59.7315 79.7999C58.8045 81.0435 57.4092 80.7578 56.6727 79.6785C56.6103 79.7952 56.5548 79.8921 56.506 79.9917C56.201 80.6134 55.9338 81.2538 55.5825 81.8524C55.2843 82.3608 54.9121 82.8371 54.5281 83.2961C54.3417 83.5188 54.0709 83.6952 53.8075 83.8473C53.2181 84.1874 52.6203 84.037 52.0431 83.7998C51.9294 83.7532 51.8556 83.6245 51.754 83.5244C51.4753 83.9263 51.2132 84.3353 50.9167 84.7219C50.6911 85.0159 50.4644 85.3317 50.1628 85.5494C49.5181 86.0149 49.0482 85.9276 48.5417 85.5383C48.1981 85.2743 47.9878 84.9776 47.8981 84.5657C47.7422 83.8495 47.5832 83.1395 47.7442 82.4087C47.7971 82.1687 47.884 81.935 47.9609 81.6804C47.878 81.5781 47.7856 81.4641 47.6537 81.3014C47.6163 81.431 47.585 81.5155 47.568 81.6024C47.3834 82.5446 47.2489 83.4978 47.0049 84.4267C46.7466 85.4102 46.1961 86.283 45.5458 87.097C45.2354 87.4855 44.8278 87.7452 44.3103 87.8506C43.9514 87.9237 43.8312 87.86 43.821 87.5276C43.8046 86.9935 43.8172 86.4587 43.8175 85.9241C43.8176 85.6557 43.8175 85.3872 43.8175 85.0895C43.6082 85.5014 43.43 85.9036 43.2042 86.2818C42.9842 86.6501 42.7335 87.0059 42.463 87.3446C42.2033 87.6699 41.8582 87.8925 41.3925 87.9135C41.0143 87.9305 40.8571 87.849 40.7926 87.5098C40.7274 87.1672 40.6954 86.818 40.6705 86.4704C40.6033 85.5325 40.7142 84.6236 41.0973 83.7365C41.9839 81.683 42.6292 79.5624 43.0839 77.3927C43.227 76.7101 43.3769 76.0287 43.5232 75.3492C43.9495 75.1867 44.0786 75.2037 44.2176 75.5549C44.3616 75.9188 44.4848 76.3023 44.5266 76.6855C44.6701 78.0024 44.6411 79.3212 44.4897 80.6382C44.3904 81.5021 44.3067 82.3675 44.2525 83.2483C44.299 83.1518 44.3599 83.0589 44.3898 82.9583C44.7965 81.5883 45.2218 80.2226 45.5941 78.8447C45.8333 77.9595 46.0059 77.0583 46.1841 76.1602C46.3367 75.3911 46.4617 74.6172 46.5841 73.8435C46.6207 73.6126 46.7725 73.569 46.9785 73.558C47.2737 73.5422 47.4267 73.6223 47.4888 73.8312C47.7616 74.7477 47.8714 75.6829 47.8683 76.6311C47.8679 76.7317 47.8682 76.8322 47.9416 76.9551C47.9884 76.8605 48.0507 76.7696 48.0795 76.6705C48.4656 75.3395 48.8399 74.0056 49.2328 72.6763C49.4023 72.103 49.6072 71.5385 49.7971 70.9703C49.8762 70.7339 50.0997 70.7272 50.3006 70.7377C50.4964 70.748 50.6159 70.8319 50.6643 71.0565C50.9751 72.4983 51.0018 73.9549 51.0236 75.433C51.0768 75.3048 51.1367 75.1787 51.1822 75.0482C51.6587 73.6797 52.053 72.2912 52.3102 70.8736C52.5335 69.6429 52.7613 68.411 52.9149 67.1721C53.0217 66.3107 53.0168 65.4368 53.0387 64.568C53.0448 64.3283 52.9685 64.0868 52.9288 63.839C53.2204 63.6666 53.4015 63.6444 53.6106 63.8607C53.8046 64.0613 53.9964 64.3029 54.0696 64.5558C54.2724 65.2561 54.4479 65.9666 54.5704 66.6823C54.8343 68.2232 54.8317 69.7779 54.7612 71.3321C54.7297 72.0262 54.6665 72.7191 54.6537 73.4314C54.6966 73.3411 54.7513 73.2538 54.7806 73.1599C55.2106 71.7796 55.6118 70.3934 55.7972 68.9627C55.9111 68.083 56.0535 67.206 56.1448 66.3245C56.2269 65.5314 56.2689 64.7342 56.3025 63.9378C56.3127 63.6958 56.2431 63.4497 56.1978 63.2073C56.1175 62.7773 56.168 62.6474 56.462 62.5763C56.9464 62.4592 57.3204 62.5911 57.4522 62.9251C58.2968 65.0655 58.6617 67.2727 58.6062 69.5498C58.5732 70.9024 58.4629 72.2461 58.2683 73.5852C58.2228 73.898 58.1473 74.2072 58.153 74.5402C58.1934 74.4833 58.2449 74.4306 58.2725 74.3689C58.8442 73.091 59.2557 71.773 59.5262 70.411C59.9203 68.4263 59.8926 66.4301 59.8235 64.4282C59.788 63.3995 59.7881 62.3698 59.775 61.3405C59.7717 61.0795 59.8332 61.02 60.1246 60.9718C60.5566 60.9003 60.7634 61.0429 60.8309 61.4379C60.8576 61.5942 60.9121 61.7482 60.9695 61.8982C61.2779 62.7056 61.5908 63.5115 61.9035 64.3174C61.9283 64.3812 61.9636 64.4415 61.994 64.5035C62.0311 64.4971 62.0681 64.4908 62.1051 64.4844Z" fill="#32D0BF"/>
<path d="M37.7133 40.4189C37.6148 41.2611 37.5162 42.124 37.4124 42.9863C37.3154 43.7919 37.2132 44.597 37.113 45.4023C37.0629 45.8047 37.0223 46.2084 36.9584 46.609C36.9198 46.8506 36.8557 47.0903 36.7837 47.3258C36.6239 47.8484 36.2565 48.158 35.6692 48.2744C34.9618 48.4146 34.2693 48.6246 33.5579 48.7384C32.9404 48.8373 32.3063 48.8589 31.6781 48.8887C30.3874 48.95 29.0962 49.0089 27.8044 49.0405C26.636 49.069 25.4665 49.0626 24.2975 49.0659C23.8237 49.0673 23.3479 49.0769 22.8765 49.042C22.0142 48.9782 21.1535 48.892 20.2942 48.7989C19.9306 48.7595 19.6591 48.5589 19.4466 48.2888C18.9024 47.5972 18.5431 46.8223 18.2884 46.0101C18.0655 45.2996 17.8443 44.5823 17.7192 43.8539C17.5869 43.0835 17.5629 42.2969 17.5028 41.5166C17.4316 40.5917 17.3797 39.6656 17.3051 38.741C17.2613 38.1978 17.4429 37.8551 17.9638 37.597C18.5636 37.2997 19.2257 37.2467 19.8866 37.1968C21.948 37.041 24.0136 37.0307 26.0802 37.0359C29.1605 37.0437 32.2408 37.0368 35.3211 37.0393C36.1848 37.04 36.9456 37.3316 37.6748 37.735C38.0758 37.9568 38.135 38.4741 38.0591 38.9949C38.045 39.0919 38.0077 39.186 37.9583 39.3635C40.0373 37.9892 42.0458 37.9611 44.0605 39.3707C44.1963 39.0764 44.0661 38.7622 44.0298 38.4601C43.9711 37.9707 44.1484 37.6132 44.5872 37.3508C45.01 37.098 45.4954 37.0213 45.9781 36.9556C46.3981 36.8984 46.824 36.8617 47.2483 36.8513C48.9358 36.8103 50.6236 36.7815 52.3113 36.7514C53.6057 36.7283 54.9002 36.6914 56.1946 36.694C58.1684 36.6979 60.1421 36.7362 62.1159 36.7486C62.9709 36.7539 63.7154 37.0402 64.4155 37.4557C64.9007 37.7437 64.8914 38.2266 64.7939 38.629C64.5365 39.6923 64.3501 40.7603 64.2339 41.8436C64.101 43.0827 63.9256 44.3178 63.7713 45.5549C63.7034 46.1 63.7115 46.6522 63.457 47.1725C63.2607 47.5739 62.9768 47.8363 62.5067 47.9451C61.941 48.0759 61.3913 48.2861 60.8189 48.3665C59.9807 48.4842 59.1296 48.5356 58.2818 48.581C57.4788 48.624 56.6727 48.6158 55.8685 48.6427C54.6864 48.6823 53.5051 48.7631 52.323 48.7709C51.0291 48.7794 49.7341 48.7379 48.4408 48.6909C47.9872 48.6745 47.5371 48.5768 47.0853 48.5172C46.5684 48.4489 46.2457 48.1414 45.9909 47.7571C45.5442 47.0836 45.2003 46.3662 44.9797 45.6046C44.7727 44.8897 44.5751 44.171 44.4182 43.4457C44.3234 43.0079 44.2997 42.5553 44.2698 42.1079C44.2223 41.3987 44.2045 40.6878 44.1527 39.979C44.1446 39.8688 44.0454 39.7429 43.9501 39.663C43.2812 39.1019 42.4702 38.84 41.5831 38.7853C40.3422 38.7087 39.2918 39.0973 38.4443 39.9411C38.3481 40.0368 38.247 40.132 38.1328 40.2078C38.0192 40.2831 37.8861 40.3337 37.7133 40.4189ZM64.3909 39.0313C64.2859 38.8466 64.1181 38.654 64.0691 38.4385C64.012 38.1875 63.8634 38.0518 63.6378 37.9702C63.2579 37.833 62.8788 37.6699 62.4824 37.602C61.9898 37.5176 61.4806 37.5071 60.9775 37.4856C60.0323 37.4452 59.0864 37.4168 58.1406 37.3889C56.9263 37.353 55.7118 37.3177 54.4971 37.2914C53.4233 37.2682 52.3489 37.2365 51.2752 37.2471C50.0765 37.2589 48.8778 37.3061 47.68 37.3543C47.1774 37.3746 46.6712 37.4081 46.1772 37.4897C45.7644 37.5579 45.3496 37.6694 44.968 37.8277C44.6266 37.9694 44.6403 38.0754 44.6917 38.4305C44.8374 39.4349 44.9659 40.4415 45.0921 41.4482C45.175 42.1096 45.2006 42.7795 45.3283 43.4329C45.4565 44.0881 45.6441 44.7384 45.8716 45.3707C46.074 45.9331 46.3579 46.4717 46.6233 47.0135C46.7546 47.2815 46.972 47.4353 47.3295 47.4231C47.6415 47.4125 47.9557 47.4847 48.2699 47.4938C49.6105 47.5325 50.9513 47.5659 52.2923 47.5916C52.8608 47.6025 53.4306 47.606 53.9985 47.5841C54.9427 47.5478 55.8855 47.4839 56.8294 47.44C57.7266 47.3984 58.6242 47.3635 59.522 47.333C60.4661 47.301 61.337 46.9742 62.2385 46.7713C62.4806 46.7168 62.5901 46.5401 62.6474 46.3311C62.7593 45.923 62.8715 45.5151 62.9828 45.1069C63.1633 44.4458 63.3679 43.7892 63.5182 43.1222C63.8221 41.774 64.0965 40.4201 64.3909 39.0313ZM26.0638 39.9391C24.6776 40.0741 23.3491 40.3695 22.1434 41.0221C21.7243 40.7826 21.6528 40.5332 21.9249 40.2089C22.0387 40.0734 22.1747 39.9373 22.3329 39.8526C22.8635 39.5683 23.3857 39.2535 23.9526 39.0469C25.7933 38.3763 27.7071 38.0686 29.6898 38.2517C30.4429 38.3212 31.1795 38.465 31.8737 38.7774C32.5157 39.0664 32.7177 39.5597 32.7562 40.1586C32.768 40.342 32.6962 40.4614 32.4929 40.5157C32.0434 40.6359 31.6039 40.6643 31.1456 40.5247C30.5479 40.3427 29.938 40.194 29.331 40.0384C29.2254 40.0113 27.2605 39.7447 26.0638 39.9391ZM28.7939 47.7855C29.8653 47.7527 30.9368 47.7188 32.008 47.6798C32.2909 47.6694 32.5726 47.6317 32.8555 47.6213C33.7346 47.589 34.5477 47.2924 35.3879 47.1023C35.7103 47.0294 35.8626 46.8582 35.9391 46.578C36.1466 45.8177 36.3932 45.0658 36.5772 44.301C36.962 42.7015 37.3184 41.0961 37.678 39.4916C37.6967 39.4078 37.6521 39.302 37.6093 39.2185C37.484 38.9736 37.3446 38.7349 37.1597 38.4019C36.6162 38.0229 35.875 37.8584 35.088 37.8326C33.9847 37.7964 32.8811 37.7674 31.7778 37.7327C30.2332 37.684 28.6888 37.6283 27.144 37.5851C26.5757 37.5691 26.0061 37.5927 25.4378 37.5766C23.5433 37.5228 21.652 37.5809 19.767 37.7471C19.2737 37.7906 18.7774 37.9233 18.3128 38.0875C17.9218 38.2256 17.891 38.3666 17.9737 38.7421C18.1933 39.7385 18.281 40.749 18.3626 41.7605C18.4045 42.2802 18.4119 42.8077 18.5213 43.316C18.6988 44.1405 18.9068 44.9637 19.1797 45.765C19.3714 46.3281 19.6865 46.8564 19.9588 47.395C20.0571 47.5893 20.2232 47.6871 20.4822 47.6995C21.0634 47.7273 21.6415 47.8265 22.2224 47.8393C23.7377 47.8728 25.2539 47.8764 26.7697 47.8886C26.8837 47.8896 28.6917 47.7886 28.7939 47.7855Z" fill="#32D0BF"/>
<path d="M35.4909 82.393C35.271 82.7195 35.0555 83.0485 34.8299 83.3716C34.6505 83.6285 34.4667 83.9381 34.0823 83.8855C33.7318 83.8376 33.5539 83.5404 33.4187 83.2598C33.2477 82.9051 33.1018 82.5403 32.9017 82.08C32.7933 82.3484 32.7369 82.5262 32.6516 82.6914C32.4691 83.0451 32.2963 83.4061 32.074 83.7384C31.809 84.1343 31.4606 84.1442 31.0962 83.8346C30.6243 83.4336 30.3129 82.9586 30.0484 82.4126C29.2007 80.6622 29.1278 78.8103 29.0765 76.9499C29.0434 75.7514 29.2669 74.5825 29.6084 73.4304C29.7768 72.8623 30.569 72.6597 31.0229 73.0752C31.1036 73.149 31.1912 73.2827 31.1733 73.3712C31.022 74.1175 31.2797 74.8166 31.4658 75.5167C31.7956 76.7574 32.17 77.988 32.5308 79.2217C32.561 79.3252 32.6287 79.4194 32.7506 79.5067C32.8064 79.1106 32.8722 78.7156 32.9161 78.3185C33.0467 77.1358 33.1745 75.9529 33.2891 74.7689C33.3127 74.5258 33.2734 74.2776 33.2647 74.0317C33.2526 73.6861 33.3141 73.5674 33.5391 73.4955C33.8521 73.3955 34.1564 73.4653 34.3395 73.705C34.4184 73.8083 34.4582 73.9397 34.5018 74.0625C34.6582 74.5042 34.7902 74.9539 34.965 75.3891C35.4005 76.4734 35.5914 77.6084 35.8095 78.7376C35.9004 79.208 35.9579 79.6839 36.0324 80.169C36.2662 79.8735 36.8203 76.7494 36.8874 75.3951C37.2688 75.2131 37.3729 75.254 37.512 75.5857C37.8078 76.2908 37.8561 77.0348 37.8777 77.7713C37.9167 79.1036 37.9123 80.4377 37.8915 81.7707C37.8735 82.9248 37.5638 84.0099 36.8087 84.9556C36.6618 85.1396 36.4793 85.3103 36.2796 85.4451C36.0337 85.6109 35.8662 85.5537 35.7936 85.2741C35.5958 84.5119 35.4257 83.7438 35.5082 82.951C35.5271 82.7694 35.5426 82.5875 35.5597 82.4057C35.5368 82.4014 35.5138 82.3972 35.4909 82.393Z" fill="#32D0BF"/>
<path d="M47.9416 68.9815C47.9247 69.0988 47.9052 69.1958 47.8975 69.2936C47.8469 69.9422 47.5797 70.5149 47.0798 70.9615C46.2641 71.6903 45.3713 72.3366 44.3984 72.8842C43.0104 73.6653 41.5529 73.838 40.0008 73.3488C39.0227 73.0405 38.0976 72.6589 37.3052 72.0298C36.5222 71.4082 36.0625 70.6203 35.8185 69.7102C35.7546 69.4717 35.6848 69.2345 35.6125 68.9981C35.4632 68.5099 35.5937 68.2948 36.115 68.1753C36.2067 68.1542 36.2955 68.1199 36.3882 68.106C36.7712 68.0487 37.1379 67.9619 37.5399 68.1186C37.8334 68.233 38.1866 68.25 38.5139 68.2532C40.2805 68.27 42.0475 68.2624 43.8142 68.2765C45.0895 68.2866 46.3669 68.2636 47.6357 68.4298C47.8528 68.4583 48.0774 68.436 48.2962 68.4571C48.4462 68.4716 48.6398 68.4808 48.6347 68.6819C48.6298 68.8762 48.483 68.9518 48.2826 68.9564C48.175 68.9588 48.0678 68.9718 47.9416 68.9815ZM45.9287 69.3094C45.9112 69.283 45.8937 69.2565 45.8763 69.2301C43.0656 69.6305 40.2549 70.0309 37.3835 70.4399C37.7417 70.8963 38.1385 71.1939 38.6033 71.4173C39.2231 71.7152 39.8837 71.9005 40.5648 72.0442C41.5105 72.2436 42.3669 72.1191 43.1754 71.6054C44.0121 71.0739 44.7598 70.4534 45.4743 69.7947C45.6378 69.644 45.7778 69.4717 45.9287 69.3094Z" fill="#32D0BF"/>
<path d="M63.1514 34.4931C62.2045 34.3717 61.2802 34.3177 60.4315 33.9068C58.6457 33.0422 56.7235 32.63 54.7226 32.4622C53.4449 32.3549 52.1677 32.3297 50.8935 32.4199C49.4816 32.5199 48.0663 32.635 46.6981 33.011C46.5052 33.064 46.3631 33.0396 46.256 32.8714C46.1458 32.6981 46.0582 32.5224 46.253 32.3608C46.4034 32.236 46.5671 32.1168 46.7446 32.0292C47.6716 31.5718 48.6831 31.3351 49.6959 31.1113C51.9156 30.6209 54.1674 30.3916 56.4503 30.4793C57.859 30.5334 59.2436 30.7378 60.5639 31.2127C60.9883 31.3654 61.3927 31.5694 61.7943 31.7702C62.195 31.9704 62.5025 32.2818 62.6706 32.6603C62.8901 33.1543 63.0397 33.6752 63.2033 34.1888C63.2299 34.2722 63.1733 34.3779 63.1514 34.4931Z" fill="#32D0BF"/>
<path d="M19.085 35.3483C18.7204 35.0281 18.6837 34.7973 19.0252 34.4784C19.2886 34.2324 19.587 34.0091 19.9012 33.8198C21.4728 32.8727 23.1722 32.1954 25.004 31.7974C26.3123 31.5132 27.6336 31.3184 28.9784 31.3264C30.0212 31.3327 31.0564 31.4495 32.0448 31.7775C32.4878 31.9245 32.9132 32.1189 33.339 32.3062C33.6829 32.4575 33.8566 32.7403 33.879 33.0743C33.8982 33.3601 33.8842 33.657 33.8202 33.9365C33.6532 34.6664 32.9532 34.9747 32.235 34.6431C31.2985 34.2105 30.326 33.8823 29.2935 33.7065C28.0585 33.4963 26.8208 33.4898 25.5726 33.6005C23.9117 33.7478 22.3095 34.1107 20.7541 34.6504C20.1979 34.8434 19.6686 35.102 19.085 35.3483Z" fill="#32D0BF"/>
<path d="M38.4491 86.5483C38.371 86.3215 38.3003 86.2042 38.2939 86.084C38.2339 84.9547 38.0733 83.8199 38.2802 82.6964C38.4086 81.999 38.6739 81.3237 38.8558 80.6335C39.1858 79.3808 39.4977 78.1241 39.8207 76.8698C39.9407 76.4042 40.0715 75.9411 40.1957 75.4764C40.2462 75.2876 40.3836 75.2195 40.5822 75.2331C40.7714 75.2461 40.8832 75.309 40.9411 75.5065C41.3958 77.0562 41.3597 78.6375 41.3234 80.2191C41.3105 80.7842 41.2945 81.3504 41.2453 81.9136C41.1763 82.7021 40.9418 83.4562 40.5723 84.1699C40.2254 84.8401 39.8539 85.502 39.2549 86.0176C39.0421 86.2007 38.7787 86.3341 38.4491 86.5483Z" fill="#32D0BF"/>
<path d="M49.8618 69.4058C49.786 69.239 49.7128 69.1382 49.6953 69.0298C49.5637 68.2137 49.429 67.3974 49.3275 66.5779C49.2979 66.3387 49.3666 66.0878 49.4008 65.8436C49.5681 64.6515 49.6185 63.4538 49.6115 62.2533C49.6102 62.0398 49.5318 61.8043 49.8507 61.7169C50.1853 61.6253 50.5093 61.7189 50.6822 61.9776C50.7721 62.112 50.8411 62.2637 50.8883 62.4159C51.3021 63.747 51.5903 65.1022 51.5299 66.4897C51.4988 67.2029 51.2112 67.8788 50.7811 68.4843C50.6013 68.7374 50.3907 68.973 50.1808 69.2064C50.1158 69.2787 50.0068 69.3175 49.8618 69.4058Z" fill="#32D0BF"/>
<path d="M44.0338 62.5604C44.0338 62.2133 44.0274 61.866 44.0354 61.5189C44.0454 61.0784 44.3762 60.9006 44.7994 61.1088C45.0524 61.2332 45.2569 61.402 45.4032 61.6415C45.8787 62.4201 46.1847 63.257 46.4054 64.119C46.5157 64.5497 46.425 64.9938 46.2369 65.3935C46.0383 65.8155 45.7942 66.2248 45.5208 66.6101C45.2072 67.0522 44.7734 67.0622 44.495 66.5733C44.1144 65.905 43.8404 65.19 43.8762 64.411C43.8788 64.3532 43.8864 64.2954 43.8941 64.2379C43.9682 63.6808 44.043 63.1238 44.1175 62.5668C44.0896 62.5647 44.0617 62.5626 44.0338 62.5604Z" fill="#32D0BF"/>
<path d="M46.9851 67.807C46.9018 67.5963 46.8281 67.4712 46.8037 67.3385C46.6413 66.4523 46.4429 65.5756 46.534 64.6592C46.6117 63.8777 46.4684 63.0956 46.3133 62.3221C46.2371 61.9419 46.3702 61.8193 46.788 61.8407C47.0991 61.8567 47.348 61.9945 47.4773 62.2414C47.7435 62.7495 47.9896 63.2678 48.213 63.7931C48.3212 64.0476 48.3678 64.3257 48.4278 64.5958C48.6672 65.6746 48.2831 66.5999 47.5671 67.4303C47.4475 67.569 47.2416 67.6449 46.9851 67.807Z" fill="#32D0BF"/>
<path d="M35.501 64.1795C35.571 63.8811 35.6063 63.5738 35.7172 63.2918C35.9258 62.7614 36.1459 62.2304 36.4252 61.7298C36.5698 61.4706 36.8359 61.2603 37.0783 61.0599C37.1813 60.9748 37.3643 60.9391 37.511 60.939C37.7216 60.9388 37.8154 61.089 37.7405 61.2699C37.4068 62.0759 37.452 62.9027 37.6829 63.705C37.9446 64.6138 37.5301 65.3193 37.02 66.0122C36.8337 66.2652 36.592 66.2565 36.3521 66.036C35.7966 65.5253 35.6438 64.8623 35.501 64.1795Z" fill="#32D0BF"/>
<path d="M41.7075 61.0034C41.7013 60.97 41.6977 60.9558 41.6961 60.9414C41.6787 60.7882 41.5983 60.6173 41.8051 60.5178C41.9759 60.4356 42.3138 60.5054 42.4438 60.6786C42.6664 60.9754 42.9033 61.2739 43.0539 61.6028C43.2173 61.9598 43.3066 62.3488 43.3969 62.7301C43.5841 63.5206 43.403 64.2526 42.9305 64.928C42.8283 65.0741 42.7347 65.2277 42.6136 65.3597C42.3036 65.6977 41.9109 65.6894 41.6952 65.3047C41.3286 64.6505 41.1299 63.9685 41.3285 63.2101C41.4936 62.5795 41.5724 61.9296 41.6859 61.2878C41.7035 61.1882 41.7017 61.0857 41.7075 61.0034Z" fill="#32D0BF"/>
<path d="M34.7675 61.259C34.7035 61.5381 34.6078 61.7744 34.6028 62.0124C34.59 62.6344 34.5997 63.2578 34.6323 63.8793C34.6763 64.7198 34.3798 65.4477 33.8291 66.0998C33.7037 66.2483 33.5441 66.275 33.3826 66.1308C33.3373 66.0903 33.2845 66.0545 33.2485 66.0079C32.7316 65.3388 32.3544 64.615 32.5828 63.7775C32.8276 62.8794 33.2852 62.0696 34.0016 61.3967C34.2155 61.1957 34.4338 61.1296 34.7675 61.259Z" fill="#32D0BF"/>
<path d="M39.2062 65.9088C39.065 65.7668 38.894 65.651 38.8056 65.4956C38.5178 64.9897 38.3285 64.4606 38.4412 63.8706C38.5989 63.0452 38.738 62.2169 38.8855 61.3898C38.8957 61.3327 38.9099 61.2761 38.921 61.2191C38.9475 61.0831 39.0461 60.9922 39.1814 61.0369C39.2718 61.0668 39.3768 61.1816 39.3893 61.2688C39.4609 61.7692 39.4877 62.2752 39.5672 62.7743C39.6333 63.1886 39.7287 63.6017 39.8512 64.0051C40.0512 64.6639 39.8431 65.2297 39.44 65.7606C39.3995 65.814 39.317 65.8403 39.2062 65.9088Z" fill="#32D0BF"/>
<path d="M45.929 69.3092C45.7781 69.4716 45.6381 69.6439 45.4746 69.7946C44.76 70.4532 44.0124 71.0737 43.1757 71.6053C42.3672 72.1189 41.5108 72.2434 40.5651 72.044C39.884 71.9004 39.2233 71.715 38.6036 71.4171C38.1388 71.1938 37.742 70.8961 37.3838 70.4397C40.2552 70.0307 43.0659 69.6303 45.8766 69.23C45.894 69.2564 45.9115 69.2828 45.929 69.3092Z" fill="#32D0BF"/>
<path d="M53.742 39.3298C52.5446 39.6212 51.6946 39.3074 50.8174 38.7179C50.9619 38.1874 51.296 37.8744 51.8462 37.7231C52.7471 37.4754 53.6508 37.5195 54.5638 37.6359C55.8794 37.8037 57.1735 38.0467 58.4006 38.5299C59.2632 38.8696 60.0748 39.289 60.703 39.9468C60.8965 40.1494 61.0346 40.3992 61.1801 40.6367C61.2172 40.6973 61.1856 40.7935 61.1856 40.952C59.6478 39.5852 57.7665 39.3305 55.704 39.2402C54.86 39.1921 54.2436 39.2473 53.742 39.3298Z" fill="#32D0BF"/>
</svg>
