<?xml version="1.0" encoding="utf-8"?>
<!-- Generator: Adobe Illustrator 24.3.0, SVG Export Plug-In . SVG Version: 6.00 Build 0)  -->
<svg version="1.1" id="Layer_1" xmlns="http://www.w3.org/2000/svg" xmlns:xlink="http://www.w3.org/1999/xlink" x="0px" y="0px"
	 viewBox="0 0 884.8787 1111.5471" style="enable-background:new 0 0 884.8787 1111.5471;" xml:space="preserve">
<style type="text/css">
	.st0{fill:#FFFFFF;}
</style>
<g>
	<path class="st0" d="M707.9662,805.3643c0.5037-10.2851,1.3625-20.5684,1.4105-30.8557
		c0.047-10.1284-0.5355-20.2742-1.2446-30.3841c-0.257-3.6628,0.8131-5.8395,4.0888-6.777c0-4.468,0-8.6097,0-12.6334
		c2.7502-2.3807,5.053-1.8751,7.2904,1.017c0.4556-1.2381,1.0441-2.1785,1.127-3.1616c1.2755-15.1512,2.4943-30.3072,3.7077-45.4636
		c1.7936-22.4028,5.3764-44.5653,8.7785-66.7591c2.6601-17.3531,5.0427-34.7523,7.2882-52.1646
		c1.5733-12.1996,2.909-24.4382,3.9846-36.6915c1.2026-13.7012,2.1216-27.4311,2.9196-41.1628
		c0.6411-11.0338,1.2574-22.0876,1.2938-33.1346c0.1202-36.5616-4.3455-72.6411-11.9102-108.3781
		c-4.1274-19.4987-7.9705-39.0575-12.0907-58.5578c-5.8434-27.6561-15.9837-53.8417-27.445-79.574
		c-4.0585-9.1122-8.1451-18.2315-11.6863-27.55c-5.1592-13.5768-12.8572-25.5816-21.798-36.8506
		c-6.7581-8.5181-13.6371-16.9551-20.8087-25.1242c-3.6916-4.205-7.7687-8.267-12.3094-11.4971
		c-19.8374-14.1121-40.2778-27.316-62.6042-37.221c-21.2194-9.4139-43.605-14.5796-66.5794-17.5615
		c-26.5575-3.447-53.2097-3.8847-79.8721-2.4618c-34.3864,1.8351-67.3353,9.3996-98.3374,25.0918
		c-21.4197,10.8419-42.0859,22.7669-61.8988,36.3312c-14.4512,9.8937-26.0251,22.4669-36.8365,35.9593
		c-9.5255,11.8877-19.1053,23.7318-28.6672,35.5902c-4.5787,5.6785-8.3059,11.8083-11.1603,18.5785
		c-8.2442,19.5537-17.0159,38.8874-25.0988,58.5059c-8.7384,21.2097-14.8283,43.2258-17.5267,66.0489
		c-1.7621,14.9039-3.3931,29.8484-4.2994,44.8221c-1.1271,18.6203-1.8307,37.2852-2.0353,55.9383
		c-0.4382,39.9428-0.6284,79.891-0.5273,119.8359c0.0427,16.8663,0.9064,33.7382,1.7172,50.5921
		c0.6086,12.6501,1.7212,25.2762,2.6413,37.9107c0.0489,0.6719,0.3942,1.3223,0.8358,2.7288
		c1.4696-1.3723,2.8452-2.2365,3.626-3.4756c1.5023-2.3843,3.6416-2.2193,5.7512-1.6707c0.7922,0.2061,1.7927,1.4335,1.8587,2.2622
		c0.1852,2.3243,0.2592,4.7495-0.1993,7.0184c-3.1326,15.5015-4.4785,31.1772-5.2791,46.9464
		c-0.2313,4.5566,0.2072,8.8531,1.1282,14.5133c2.2858-3.9848,3.7936-6.9891,5.6579-9.7531
		c1.7085-2.533,3.5341-5.1033,5.7829-7.1305c4.2686-3.8483,9.1131-2.1769,9.7496,3.4069c0.5075,4.4523,0.5787,9.0225,0.23,13.4925
		c-1.6076,20.6077-2.2987,41.2351-1.3974,61.8841c0.3359,7.6962,1.4188,15.3598,2.1612,23.0383
		c0.4204,0.045,0.8409,0.09,1.2613,0.135c0.6905-2.4672,1.5032-4.9077,2.0501-7.4063c2.2077-10.0865,7.5477-18.8028,12.1593-27.8243
		c1.5416-3.0157,8.6203-3.4024,10.5222-0.6618c0.6055,0.8724,0.8386,2.623,0.3728,3.5212
		c-3.7276,7.1888-2.3921,14.9554-2.4461,22.4402c-0.209,28.9617,3.7651,57.5347,8.8472,85.9742
		c0.1588,0.8885,0.4312,1.7636,0.727,2.6184c0.1726,0.4987,0.4972,0.9447,0.2996,0.5825c0-8.7714-0.0901-18.3408,0.0204-27.9078
		c0.1802-15.6143,1.3531-31.1534,5.6102-46.2435c1.8142-6.4309,4.5615-12.6,6.9257-18.8726c0.3157-0.8377,0.812-1.6271,1.3299-2.365
		c1.5124-2.1548,3.6797-3.1619,6.1551-2.3561c2.5912,0.8436,1.7881,3.2392,1.6189,5.1512
		c-2.7418,30.9739,2.9518,61.0596,9.5554,91.05c0.1162,0.5278,0.3304,1.0385,0.5442,1.5377c0.0612,0.143,0.2815,0.218,0.7014,0.5206
		c0.7745-7.7027,1.4619-15.2486,2.3056-22.7769c1.5547-13.8721,3.729-27.6116,7.5048-41.1088
		c2.5923-9.2666,7.2101-17.3618,12.5255-25.1809c1.5803-2.3248,6.73-3.2564,8.7676-1.3821c0.8294,0.7629,1.4341,2.8386,0.9879,3.756
		c-4.9994,10.277-3.5457,21.291-3.782,32.0634c-0.5791,26.3979,2.4123,52.5101,6.8673,78.4804
		c0.1088,0.6343,0.4468,1.2292,1.5102,1.8663c0.1822-0.9217,0.4497-1.8357,0.534-2.7662
		c1.902-20.9958,5.796-41.6472,11.8536-61.8054c3.5439-11.7932,8.2366-23.2449,12.5343-34.8051
		c1.012-2.722,2.3344-5.2831,5.9951-5.4736c4.1875-0.2181,5.9005,1.0417,5.5803,5.1899c-0.363,4.701-1.0896,9.374-1.6425,14.0609
		c-0.0977,0.8279-0.1191,1.6647,0.4081,2.6371c0.6115-1.8594,1.1837-3.7328,1.8413-5.5757
		c2.558-7.1698,4.774-14.4931,7.8458-21.4371c2.0997-4.7463,5.3166-9.0186,8.2179-13.3804
		c1.2138-1.8248,4.4847-2.1967,6.4473-1.1597c2.4562,1.2979,1.5457,3.2272,1.1429,5.2044
		c-2.6592,13.0559-2.7755,26.2588-2.0879,39.4954c0.0345,0.6636,0.4883,1.3055,1.1162,2.889
		c0.6914-2.1193,1.2227-3.3589,1.4982-4.6531c2.3928-11.2374,6.0376-21.9929,12.0008-31.888
		c2.1849-3.6255,4.7532-6.8882,8.427-9.0919c1.2188-0.7311,2.5806-1.4022,3.959-1.6572c5.0573-0.9354,6.4009,0.6744,5.4719,5.7109
		c-2.442,13.2384-1.8987,26.4605,1.7221,39.3658c2.597,9.2564,0.8426,17.5493-3.5194,25.6344
		c-1.8893,3.5018-3.7732,7.0464-6.0883,10.263c-1.2951,1.7992-3.339,3.1945-5.3073,4.3093
		c-0.8166,0.4625-2.7857,0.1481-3.428-0.5507c-3.2591-3.5463-7.4026-6.3394-8.8162-11.4764
		c-1.0762-3.9112-3.019-7.5839-5.0459-12.5025c-0.5536,2.6423-1.0243,4.014-1.103,5.4077
		c-0.4646,8.2248-3.9287,15.4256-7.6929,22.4903c-2.1644,4.0621-4.3013,4.3967-7.5118,0.858
		c-2.3763-2.619-4.2223-5.7832-5.961-8.8963c-1.3898-2.4884-2.2622-5.2657-4.355-7.8564
		c-0.0977,4.6838-0.2888,9.3679-0.2779,14.0515c0.073,31.3267,3.2522,62.2784,11.394,92.6118
		c1.27,4.7314,2.4154,9.5335,4.1708,14.0901c4.8608,12.6178,4.4918,25.6208,3.0732,38.653
		c-0.98,9.0036-2.5925,17.9402-3.9919,26.8958c-0.7597,4.8619-2.0931,5.9396-6.9926,4.7596
		c-3.2845-0.7909-6.973-1.7253-9.4229-3.828c-8.1541-6.998-15.435-14.7764-18.913-25.4209
		c-1.7906-5.48-4.2808-10.7313-6.7698-16.8616c-3.7552,6.043-2.0475,13.2383-6.9263,18.4283
		c-7.8237-3.4539-13.545-9.5931-17.9513-16.5419c-4.3157-6.8058-7.2438-14.4915-10.9978-22.2385
		c-0.949,2.6385-1.8069,5.024-3.0213,8.4005c-10.3953-9.8168-17.2677-20.6935-22.2031-33.1975
		c-4.8689-12.3353-9.2396-24.7026-11.2393-38.1549c-0.3445,0.6886-0.8359,1.3419-1.0116,2.0711
		c-2.4557,10.1958-7.0342,19.3975-13.1519,27.8434c-2.826,3.9014-5.9271,3.8408-9.5298,0.8026
		c-6.1701-5.2033-10.0006-11.6316-12.6247-19.2618c-2.4728-7.1905-5.962-14.041-6.7865-21.7249
		c-0.4439-4.1368-0.6055-8.3039-0.8923-12.4265c-8.6118-1.8291-14.3036-7.8215-20.0339-13.6343
		c-9.6576-9.7963-12.9707-22.924-17.6185-35.2152c-4.2276-11.18-7.2879-22.7996-10.9344-34.2025
		c-0.7715-2.4124-1.7545-4.7711-2.8108-7.0764c-4.7312-10.3258-5.9946-21.0886-5.0493-32.3724
		c0.4316-5.1516-0.5154-10.4377-1.0187-15.6451c-1.4797-15.3106-3.6619-30.5819-4.4264-45.9255
		c-0.9027-18.1163-0.586-36.2924-0.8447-54.4419c-0.1785-12.5227-0.4293-25.0444-0.6747-37.566
		c-0.0165-0.8437-0.2601-1.6829-0.4728-2.9796c-1.618,0.8176-2.8506,1.4808-4.1166,2.0723
		c-3.6094,1.6866-7.1621,3.5231-10.8639,4.9776c-9.3591,3.6775-17.4783,1.1308-25.4781-4.4788
		c-14.8138-10.3873-25.2467-24.0773-33.5938-39.9586c-6.9546-13.2317-11.7826-26.9458-12.96-41.7516
		c-1.4017-17.6263,2.6438-34.2703,11.0637-49.7782c5.3105-9.7811,11.7992-18.6969,20.392-25.9585
		c8.2348-6.959,17.6411-11.3611,28.2016-13.3379c1.2342-0.231,2.5331-0.1559,3.802-0.1552
		c8.6674,0.0051,10.5505,3.4668,6.1273,11.2184c-8.1535,1.2107-14.3521,6.1035-19.8441,11.558
		c-9.2622,9.1989-16.2134,19.9908-19.3022,32.9213c-4.7357,19.8244,0.3258,37.6601,11.2944,54.1667
		c4.9833,7.4993,11.4907,13.633,19.3194,18.0827c8.2772,4.7046,15.702,10.4182,22.4797,17.0474
		c0.7396,0.7233,1.6289,1.2936,2.8509,2.2493c0.2698-1.0745,0.5524-1.6984,0.5657-2.3279
		c0.2069-9.7976,0.1872-19.6042,0.6021-29.3925c0.69-16.2807,1.5242-32.558,2.5377-48.8217
		c1.0583-16.9814,2.3391-33.9499,3.6386-50.9152c0.9256-12.0839,2.1343-24.1463,3.0498-36.2309
		c0.9437-12.4556,1.5401-24.9383,2.5472-37.3882c1.8094-22.3684,4.144-44.6741,7.8107-66.8373
		c5.4693-33.0589,16.1805-64.6648,25.8715-96.591c5.0477-16.6292,14.2912-30.8831,22.5727-45.7516
		c4.4351-7.9626,9.8341-15.2005,15.8975-22.0314c13.9982-15.7704,28.2437-31.2974,44.242-45.0726
		c14.89-12.8208,30.6179-24.2564,48.7096-32.5666c17.4059-7.9951,35.3306-14.1009,53.6539-19.387
		c9.0521-2.6114,17.8654-6.0432,26.8224-8.9954c3.7814-1.2463,7.6058-2.4467,11.4955-3.265
		c14.2033-2.9881,28.3934-6.0871,42.6863-8.5847c8.7373-1.5268,17.6354-2.596,26.4927-2.875
		c17.2404-0.543,34.5363-1.0942,51.7445-0.2788c12.2516,0.5805,24.4766,2.9786,36.5728,5.2988
		c20.414,3.9156,39.6491,11.6324,58.8315,19.405c0.1682,0.0682,0.3289,0.1556,0.4988,0.2187
		c11.886,4.4155,23.826,8.6932,35.6295,13.319c4.0003,1.5677,7.8936,3.6715,11.4283,6.1188
		c15.5197,10.7455,30.7971,21.8422,46.3605,32.5225c6.2258,4.2724,11.6972,9.0455,16.0271,15.2943
		c2.7724,4.0009,5.9288,7.9172,9.5942,11.0827c9.7359,8.4082,16.5104,18.89,21.6099,30.4037
		c11.0225,24.886,21.7315,49.9134,32.3295,74.9841c9.1401,21.6219,15.2264,44.1826,20.4206,67.0518
		c6.5037,28.6345,13.0607,57.248,17.3536,86.3144c1.2946,8.7647,2.0647,17.613,2.8803,26.441
		c2.0197,21.8618,2.8625,43.7847,2.5261,65.7296c-0.3729,24.3194-1.0903,48.6337-1.6931,72.9493
		c-0.2202,8.8813-0.5484,17.7598-0.8127,26.64c-0.0417,1.4046-0.0059,2.8116-0.0059,4.1918
		c0.7579,0.0435,1.2182,0.2178,1.4225,0.0601c6.6033-5.0924,13.3232-10.0469,19.7339-15.3731
		c12.2243-10.1562,19.2422-23.4085,22.3174-38.8702c3.7211-18.7092,3.4438-37.4762,0.5078-56.2264
		c-1.232-7.8679-3.0999-15.6343-4.4888-23.4804c-0.6241-3.5255-0.7822-7.1335-1.1306-10.4997
		c6.264-3.2877,7.4548-3.3494,11.4942,1.471c2.8728,3.4285,5.4634,7.2718,7.3508,11.3169
		c8.2146,17.6049,12.8489,36.1484,13.6846,55.6043c0.1705,3.9698,0.7169,7.9302,0.752,11.8979
		c0.2228,25.1869-6.9545,48.3207-20.1918,69.5437c-3.4142,5.4739-7.8708,10.4468-12.5053,14.9782
		c-8.6677,8.475-19.2721,11.1376-31.1478,8.6284c-2.783-0.5881-5.566-1.1765-8.8567-1.8721
		c-0.4615,5.7161-0.8362,10.9253-1.31,16.1255c-1.8884,20.7261-3.3579,41.5037-5.8529,62.157
		c-2.126,17.5987-5.6505,35.0236-8.1746,52.5803c-2.2191,15.4357-4.9331,30.743-8.6228,45.9048
		c-5.5818,22.9376-11.7424,45.6877-21.0186,67.4461c-3.6253,8.5035-7.7182,16.831-12.028,25.0122
		c-3.3865,6.4285-7.76,12.2274-13.4622,16.9251c-1.3676,1.1266-2.506,2.642-3.4351,4.1699
		c-3.0132,4.9559-5.9459,9.9641-8.7609,15.0347c-0.7654,1.3786-1.2287,3.0164-1.4548,4.5894
		c-2.8282,19.672-8.1534,38.6164-16.1713,56.8161c-4.4086,10.007-10.0725,19.2618-16.2375,28.2505
		c-10.6527,15.5322-26.687,11.9641-35.1512-1.5165c-0.7167,1.4579-1.3545,2.6677-1.916,3.912
		c-3.5045,7.7651-6.5759,15.7625-10.6123,23.2394c-3.4274,6.3486-7.7041,12.2981-12.1171,18.0298
		c-2.1423,2.7823-5.2538,4.9855-8.2817,6.8845c-6.7728,4.2477-13.6429,2.3689-20.2765-0.5927
		c-1.3056-0.583-2.1544-2.1892-3.3223-3.4397c-3.2023,5.0193-6.2138,10.1276-9.6221,14.9556
		c-2.5926,3.6725-5.1978,7.6156-8.6634,10.3347c-7.4092,5.8135-12.8085,4.7242-18.6297-0.1381
		c-3.9479-3.2976-6.3655-7.0028-7.3958-12.1478c-1.7913-8.9445-3.6194-17.8125-1.7692-26.9385
		c0.6078-2.9979,1.6075-5.9164,2.4907-9.0972c-0.9529-1.2774-2.0151-2.7011-3.5304-4.7322
		c-0.4294,1.6185-0.7896,2.6738-0.9852,3.7588c-2.1214,11.7675-3.6663,23.6726-6.4705,35.274
		c-2.9688,12.2823-9.2946,23.1836-16.7684,33.3501c-3.5665,4.8517-8.2509,8.095-14.1975,9.4116
		c-4.1245,0.9132-5.5058,0.1179-5.6232-4.0339c-0.1887-6.6707-0.0439-13.3506-0.041-20.0266
		c0.0014-3.3529,0.0002-6.7057,0.0002-10.4236c-2.4048,5.1437-4.4525,10.168-7.0479,14.8911
		c-2.5275,4.5995-5.4088,9.0428-8.5172,13.2736c-2.9844,4.062-6.9503,6.8431-12.3025,7.1045
		c-4.3466,0.2123-6.1529-0.8057-6.8942-5.0411c-0.7491-4.2791-1.1166-8.6404-1.4028-12.9819
		c-0.7721-11.7136,0.5024-23.0647,4.9044-34.1451c10.1887-25.6467,17.6044-52.1307,22.8304-79.2289
		c1.6441-8.5253,3.3672-17.0353,5.0481-25.522c4.8994-2.03,6.383-1.8168,7.98,2.5689c1.655,4.5449,3.071,9.3343,3.5511,14.1211
		c1.649,16.4471,1.3159,32.918-0.4239,49.3655c-1.1413,10.7896-2.1033,21.5982-2.7267,32.5989
		c0.5345-1.2052,1.2351-2.3651,1.5786-3.6224c4.6737-17.1094,9.5611-34.1668,13.8394-51.3754
		c2.7485-11.0557,4.7325-22.3113,6.7808-33.5282c1.7537-9.6048,3.1893-19.2705,4.5967-28.9338
		c0.4201-2.8839,2.1649-3.4283,4.5316-3.5657c3.3925-0.1968,5.1508,0.803,5.8653,3.412c3.135,11.447,4.3959,23.1269,4.3602,34.969
		c-0.0038,1.2561-0.0005,2.5121,0.8431,4.0471c0.5371-1.1824,1.2538-2.3169,1.5842-3.5546
		c4.4368-16.6234,8.7386-33.2832,13.2538-49.8851c1.9476-7.1604,4.303-14.2102,6.4854-21.3066
		c0.908-2.9526,3.4771-3.0365,5.7855-2.905c2.2509,0.1282,3.6233,1.176,4.1799,3.9814c3.5721,18.0074,3.8783,36.1995,4.1288,54.6591
		c0.6115-1.6005,1.3004-3.1761,1.8224-4.8051c5.4763-17.0917,10.0071-34.4332,12.9633-52.1386
		c2.5663-15.3705,5.1837-30.7556,6.9494-46.2289c1.2275-10.7575,1.1704-21.6724,1.423-32.5232
		c0.0698-2.994-0.8076-6.0099-1.2635-9.1048c3.351-2.1526,5.432-2.4307,7.835,0.2707c2.2292,2.5062,4.4344,5.5231,5.2756,8.6813
		c2.3298,8.7465,4.3469,17.6204,5.7552,26.5592c3.032,19.244,3.0024,38.662,2.1921,58.0719
		c-0.3619,8.6695-1.0884,17.3237-1.2349,26.2196c0.4926-1.1284,1.1212-2.2178,1.4574-3.3911
		c4.9423-17.2388,9.553-34.5511,11.6829-52.4203c1.3096-10.9862,2.9454-21.9391,3.9946-32.9489
		c0.944-9.9053,1.4266-19.8622,1.8127-29.808c0.1172-3.0222-0.6831-6.0967-1.2032-9.1232c-0.923-5.3707-0.3432-6.9937,3.0355-7.881
		c5.5672-1.4622,9.8647,0.1844,11.3796,4.3563c9.7068,26.7323,13.8997,54.298,13.2617,82.7377
		c-0.379,16.8931-1.6465,33.6746-3.883,50.399c-0.5224,3.9071-1.3907,7.768-1.3246,11.9277
		c0.4641-0.7106,1.0559-1.3685,1.3733-2.1393c6.5698-15.9606,11.2989-32.4213,14.407-49.4314
		c4.5292-24.7882,4.2101-49.7184,3.4166-74.7209c-0.4078-12.8477-0.4066-25.7086-0.5574-38.5638
		c-0.0383-3.2592,0.6688-4.0026,4.0178-4.6048c4.9641-0.8925,7.341,0.8886,8.1168,5.8212c0.3071,1.9527,0.9332,3.8755,1.592,5.7495
		c3.5443,10.083,7.1403,20.148,10.7343,30.2134c0.2846,0.797,0.6907,1.5507,1.0402,2.3245
		C707.1151,805.5239,707.5407,805.4442,707.9662,805.3643z"/>
	<path class="st0" d="M427.6595,504.8018c-1.132,10.5191-2.2655,21.2956-3.4582,32.0655
		c-1.1142,10.0615-2.2898,20.1161-3.4409,30.1735c-0.5753,5.0259-1.0424,10.0679-1.777,15.0705
		c-0.4434,3.0186-1.1793,6.0114-2.0068,8.953c-1.8363,6.5272-6.0594,10.3937-12.8085,11.8477
		c-8.1284,1.751-16.0873,4.3732-24.2628,5.795c-7.0963,1.2343-14.3828,1.5043-21.6018,1.8767
		c-14.8325,0.7651-29.6711,1.5015-44.5165,1.8956c-13.4272,0.3565-26.8668,0.2762-40.3011,0.3182
		c-5.4448,0.017-10.9134,0.1364-16.3303-0.2992c-9.9098-0.7969-19.8008-1.8729-29.6757-3.036
		c-4.1788-0.4922-7.298-2.9974-9.7404-6.371c-6.2534-8.6379-10.3826-18.315-13.31-28.4586
		c-2.561-8.874-5.1039-17.8325-6.5414-26.9296c-1.5205-9.6219-1.7959-19.4467-2.4864-29.1919
		c-0.8185-11.5506-1.4152-23.1172-2.272-34.6646c-0.5034-6.7849,1.5835-11.0643,7.5692-14.2881
		c6.8938-3.7129,14.5015-4.3748,22.0973-4.9987c23.6887-1.9457,47.4265-2.074,71.1762-2.0086
		c35.3984,0.0974,70.7973,0.0111,106.196,0.0416c9.9249,0.0086,18.668,3.6507,27.0488,8.6892
		c4.6082,2.7706,5.2887,9.2312,4.4159,15.7352c-0.1625,1.211-0.5906,2.3864-1.1589,4.6031
		c23.8923-17.1634,46.9735-17.515,70.1268,0.0898c1.5602-3.6756,0.0639-7.599-0.3528-11.3726
		c-0.675-6.1118,1.3624-10.5769,6.4052-13.8539c4.8595-3.1578,10.4372-4.1155,15.9845-4.9359
		c4.8262-0.7138,9.7211-1.1731,14.5974-1.302c19.3918-0.5125,38.7879-0.8721,58.1832-1.2482
		c14.8748-0.2884,29.7513-0.7494,44.626-0.7172c22.683,0.0492,45.3648,0.5271,68.048,0.6818
		c9.8253,0.067,18.3812,3.6421,26.4261,8.8313c5.576,3.5966,5.4691,9.6278,4.3494,14.6536
		c-2.9587,13.2805-5.1011,26.6187-6.4364,40.1487c-1.5273,15.4747-3.5427,30.9009-5.3153,46.3517
		c-0.781,6.8072-0.6873,13.7041-3.6121,20.2027c-2.2559,5.0123-5.5186,8.29-10.9211,9.6483
		c-6.5007,1.6345-12.8177,4.2588-19.3961,5.2631c-9.6325,1.4705-19.4132,2.1122-29.1556,2.6792
		c-9.2283,0.5369-18.4918,0.4349-27.7341,0.7711c-13.5841,0.494-27.1603,1.5034-40.7449,1.6008
		c-14.8694,0.1067-29.7509-0.4126-44.6136-0.9989c-5.2129-0.2056-10.3851-1.425-15.5775-2.1701
		c-5.9402-0.8524-9.6481-4.6927-12.577-9.4927c-5.1324-8.4113-9.085-17.3719-11.6196-26.8831
		c-2.3795-8.929-4.65-17.905-6.4535-26.9628c-1.0887-5.4679-1.3616-11.1211-1.7057-16.7092
		c-0.5457-8.8569-0.7502-17.7355-1.3453-26.5883c-0.0925-1.3758-1.2328-2.9479-2.3283-3.9467
		c-7.6869-7.0072-17.0071-10.2779-27.2018-10.9615c-14.2594-0.9563-26.3312,3.8968-36.0705,14.4352
		c-1.1053,1.1959-2.2672,2.3846-3.5801,3.3308C431.174,503.1065,429.6449,503.7376,427.6595,504.8018z M734.2363,487.4717
		c-1.2066-2.3063-3.1345-4.7117-3.6981-7.4029c-0.6567-3.1356-2.3639-4.8306-4.9569-5.849
		c-4.3649-1.7143-8.7216-3.7508-13.2777-4.5994c-5.66-1.0541-11.5123-1.1847-17.2938-1.4533
		c-10.8623-0.5046-21.7321-0.8595-32.6009-1.208c-13.9558-0.4475-27.9123-0.8891-41.8713-1.2174
		c-12.3403-0.2903-24.6873-0.6852-37.0261-0.5531c-13.7758,0.1475-27.5502,0.7361-41.3162,1.3391
		c-5.7751,0.2529-11.5924,0.6713-17.2692,1.6905c-4.744,0.8517-9.5115,2.244-13.8968,4.2215
		c-3.923,1.7692-3.766,3.0934-3.1743,7.5281c1.6738,12.5446,3.1505,25.1165,4.6011,37.6896
		c0.9529,8.2598,1.2465,16.6266,2.7147,24.7874c1.4722,8.183,3.6282,16.3045,6.243,24.2019
		c2.3256,7.024,5.5883,13.7499,8.6384,20.5168c1.5087,3.347,4.0079,5.268,8.1159,5.1159c3.5856-0.1327,7.1964,0.7693,10.8065,0.8826
		c15.4063,0.4834,30.8152,0.9007,46.2257,1.2222c6.5333,0.1363,13.0812,0.179,19.6075-0.0938
		c10.85-0.4534,21.6852-1.2521,32.5319-1.7996c10.3107-0.5204,20.6262-0.9558,30.9431-1.3362
		c10.8502-0.4001,20.858-4.4814,31.2184-7.0161c2.7824-0.6808,4.0403-2.8876,4.6988-5.4979
		c1.2855-5.096,2.5749-10.191,3.8551-15.2884c2.074-8.2576,4.425-16.4581,6.1526-24.7877
		C727.7001,521.7258,730.8528,504.8166,734.2363,487.4717z M293.7835,498.8094c-15.9294,1.6857-31.1962,5.3758-45.0531,13.5258
		c-4.8162-2.991-5.6372-6.106-2.5106-10.1554c1.3074-1.6931,2.8703-3.3923,4.6884-4.4507
		c6.0983-3.55,12.0988-7.4821,18.6142-10.0619c21.1535-8.3758,43.1461-12.2191,65.9312-9.9323
		c8.6551,0.8686,17.1198,2.6642,25.097,6.5664c7.3778,3.6089,9.6992,9.7699,10.1424,17.2501
		c0.1357,2.2904-0.6899,3.7812-3.0266,4.4599c-5.1653,1.5003-10.2162,1.8552-15.4824,0.1126
		c-6.8696-2.2731-13.8786-4.1309-20.8536-6.0745C330.1169,499.7113,307.5364,496.3821,293.7835,498.8094z M325.1575,596.8057
		c12.3134-0.41,24.6265-0.8329,36.937-1.3208c3.2509-0.1288,6.4881-0.6002,9.739-0.7299
		c10.1032-0.4033,19.4464-4.1083,29.1018-6.4816c3.7054-0.9108,5.4559-3.0494,6.3346-6.5487
		c2.3843-9.4952,5.2193-18.886,7.3337-28.4382c4.4221-19.9769,8.5179-40.0264,12.6495-60.0663
		c0.2157-1.0461-0.297-2.3673-0.7886-3.4106c-1.4407-3.0578-3.0422-6.0398-5.1669-10.1989
		c-6.2461-4.7328-14.7636-6.7878-23.8087-7.1099c-12.6789-0.4514-25.3609-0.8137-38.0404-1.248
		c-17.7505-0.608-35.4983-1.3036-53.2509-1.8436c-6.5309-0.1987-13.0767,0.0957-19.6074-0.1059
		c-21.7714-0.6721-43.5058,0.0536-65.1682,2.1294c-5.669,0.5432-11.3724,2.2007-16.7123,4.2515
		c-4.4931,1.7256-4.8475,3.4855-3.8963,8.1756c2.5238,12.445,3.5312,25.0648,4.469,37.6982
		c0.4818,6.4901,0.5669,13.0788,1.8241,19.4263c2.0395,10.2972,4.4297,20.5786,7.5658,30.5865
		c2.2036,7.0323,5.8244,13.6309,8.9537,20.3574c1.1288,2.4265,3.0378,3.6481,6.0142,3.8031
		c6.6791,0.3477,13.323,1.5862,19.9984,1.7466c17.4143,0.4183,34.8378,0.4634,52.2579,0.6157
		C303.2063,598.1053,323.9839,596.8447,325.1575,596.8057z"/>
	<path class="st0" d="M402.1202,1029.0278c-2.5269,4.0778-5.0039,8.1875-7.5964,12.2231c-2.0609,3.2078-4.1737,7.0745-8.5912,6.4181
		c-4.0273-0.5985-6.0723-4.3109-7.6265-7.8152c-1.9644-4.4293-3.6411-8.986-5.9409-14.735
		c-1.2457,3.3523-1.8943,5.5731-2.8742,7.6367c-2.0974,4.4166-4.0827,8.9264-6.6378,13.0756
		c-3.045,4.9448-7.0487,5.0685-11.2365,1.2015c-5.4236-5.0079-9.0016-10.9398-12.0408-17.7599
		c-9.7421-21.8612-10.5801-44.9901-11.1698-68.2252c-0.3799-14.9682,2.188-29.5672,6.113-43.9557
		c1.9353-7.0945,11.0388-9.6254,16.2555-4.4365c0.9275,0.9225,1.9343,2.5923,1.7281,3.6974
		c-1.7392,9.3204,1.2222,18.0517,3.3609,26.7951c3.7903,15.4954,8.0935,30.8657,12.239,46.2731
		c0.3478,1.2927,1.1259,2.4697,2.5267,3.5591c0.6409-4.9459,1.3972-9.88,1.9011-14.8398c1.5008-14.77,2.9697-29.5441,4.2871-44.3311
		c0.2706-3.0367-0.1811-6.1364-0.2804-9.2076c-0.1395-4.3156,0.567-5.7985,3.153-6.6962c3.5976-1.2489,7.0937-0.3771,9.1978,2.6165
		c0.9067,1.29,1.3651,2.9304,1.8651,4.4644c1.7979,5.5161,3.3143,11.1329,5.3235,16.569
		c5.0051,13.5417,7.1986,27.7167,9.7056,41.8198c1.0443,5.875,1.7049,11.8182,2.5606,17.8771
		c2.6877-3.6904,9.0554-42.7079,9.8255-59.6219c4.3838-2.2733,5.5797-1.7627,7.1786,2.3802
		c3.3989,8.8063,3.9546,18.0973,4.2025,27.2961c0.4483,16.6401,0.3978,33.3022,0.1585,49.9495
		c-0.2072,14.4138-3.7665,27.9664-12.443,39.7774c-1.6883,2.298-3.786,4.4305-6.0808,6.113
		c-2.8254,2.0715-4.7508,1.3573-5.5846-2.1345c-2.2731-9.5204-4.2284-19.1127-3.2807-29.0139
		c0.2172-2.2686,0.3956-4.5409,0.5919-6.8114C402.6472,1029.1337,402.3837,1029.0808,402.1202,1029.0278z"/>
	<path class="st0" d="M545.204,861.5285c-0.1942,1.4645-0.419,2.6761-0.5067,3.8976c-0.5814,8.1002-3.6527,15.2528-9.3968,20.8303
		c-9.3745,9.1025-19.634,17.1741-30.8153,24.0131c-15.9506,9.756-32.6999,11.9127-50.5368,5.803
		c-11.24-3.8503-21.8712-8.6169-30.977-16.4734c-8.9984-7.7639-14.2818-17.6037-17.0849-28.9706
		c-0.7345-2.9782-1.5372-5.9407-2.3682-8.8936c-1.7155-6.0963-0.2159-8.7831,5.7753-10.2763
		c1.0533-0.2625,2.0742-0.6911,3.1391-0.8644c4.402-0.7162,8.6161-1.8007,13.2359,0.1569
		c3.3721,1.4289,7.4316,1.6414,11.1922,1.6804c20.3026,0.2109,40.6083,0.1157,60.9115,0.291
		c14.6556,0.1266,29.3355-0.161,43.9159,1.9157c2.4954,0.3554,5.076,0.077,7.5911,0.3408c1.7231,0.1807,3.9485,0.2954,3.89,2.8076
		c-0.0565,2.4261-1.7441,3.371-4.0472,3.4279C547.8866,861.2447,546.6545,861.4073,545.204,861.5285z M522.0715,865.6228
		c-0.2008-0.3298-0.4016-0.6597-0.6023-0.9895c-32.3,5.0001-64.6001,10.0003-97.5983,15.1085
		c4.1162,5.7007,8.6767,9.4178,14.0177,12.2076c7.1223,3.7201,14.7147,6.0351,22.5417,7.829
		c10.8673,2.4907,20.71,0.9354,30.0009-5.4796c9.6149-6.6387,18.2072-14.3884,26.4185-22.614
		C518.7288,869.8024,520.338,867.6506,522.0715,865.6228z"/>
	<path class="st0" d="M719.9852,430.7969c-10.8816-1.5167-21.503-2.191-31.2564-7.3229
		c-20.5229-10.7984-42.6122-15.9457-65.6068-18.0425c-14.6835-1.339-29.3603-1.6549-44.0029-0.5279
		c-16.2261,1.2489-32.491,2.6861-48.2135,7.3826c-2.2175,0.6624-3.8505,0.3571-5.0806-1.7439
		c-1.2672-2.1643-2.2734-4.3588-0.0345-6.3773c1.7281-1.558,3.6089-3.0464,5.6497-4.1409
		c10.6528-5.7131,22.2765-8.6693,33.9156-11.464c25.5085-6.1249,51.3867-8.9885,77.621-7.8933
		c16.1893,0.6758,32.1003,3.2287,47.2728,9.1598c4.8774,1.9066,9.5251,4.4547,14.1404,6.9623
		c4.604,2.5014,8.1384,6.3904,10.0706,11.1174c2.5218,6.1695,4.2415,12.6752,6.1218,19.0903
		C720.8875,428.0371,720.2374,429.3577,719.9852,430.7969z"/>
	<path class="st0" d="M213.5863,441.4758c-4.1896-3.9997-4.6117-6.8826-0.6871-10.8652c3.0272-3.072,6.4565-5.8608,10.0672-8.2257
		c18.0602-11.8285,37.5903-20.2869,58.6415-25.2573c15.0341-3.5497,30.2188-5.9834,45.6726-5.8829
		c11.984,0.078,23.881,1.5367,35.2394,5.6336c5.0906,1.8361,9.9791,4.264,14.8733,6.6035c3.9515,1.8889,5.9476,5.4218,6.2052,9.5922
		c0.2206,3.5696,0.0596,7.2782-0.6754,10.769c-1.9196,9.1164-9.964,12.9668-18.2174,8.8242
		c-10.7619-5.4017-21.938-9.501-33.803-11.6964c-14.1928-2.6261-28.4165-2.707-42.7612-1.3246
		c-19.0863,1.8394-37.4995,6.3726-55.3736,13.1124C226.3758,435.1688,220.2929,438.3987,213.5863,441.4758z"/>
	<path class="st0" d="M436.118,1080.9255c-0.8978-2.8324-1.7101-4.2971-1.7836-5.798c-0.6897-14.1046-2.5361-28.2775-0.1583-42.3085
		c1.4762-8.7111,4.5253-17.1451,6.615-25.7648c3.7927-15.6452,7.3766-31.3408,11.0892-47.0056
		c1.3781-5.8146,2.8823-11.5992,4.3095-17.4022c0.5801-2.3588,2.1592-3.2088,4.4408-3.039c2.175,0.1618,3.4593,0.9475,4.1251,3.4138
		c5.2251,19.3547,4.8099,39.1051,4.3932,58.8573c-0.1488,7.0586-0.3318,14.1299-0.8981,21.1632
		c-0.7929,9.8484-3.4873,19.2659-7.7331,28.1801c-3.9867,8.3702-8.256,16.637-15.14,23.0759
		C442.9323,1076.5852,439.9056,1078.2512,436.118,1080.9255z"/>
	<path class="st0" d="M567.2615,866.8288c-0.8712-2.0833-1.7126-3.3418-1.9136-4.6954
		c-1.5129-10.1935-3.0604-20.3875-4.2263-30.6235c-0.3403-2.9872,0.4484-6.1204,0.8423-9.1708
		c1.9225-14.8876,2.5011-29.847,2.4203-44.8398c-0.0143-2.6662-0.9153-5.6075,2.7492-6.6988
		c3.8456-1.1452,7.5687,0.0248,9.5563,3.2549c1.0328,1.6785,1.825,3.5742,2.3683,5.4741
		c4.7545,16.6249,8.0665,33.5502,7.3723,50.879c-0.3568,8.9073-3.6619,17.3495-8.6046,24.9117
		c-2.0663,3.1612-4.4865,6.1037-6.899,9.0187C570.1796,865.2418,568.927,865.7263,567.2615,866.8288z"/>
	<path class="st0" d="M500.2909,781.3338c0-4.336-0.0727-8.6735,0.0183-13.0076c0.1155-5.5017,3.9168-7.7228,8.7808-5.1231
		c2.9071,1.5538,5.2571,3.6627,6.938,6.6536c5.4648,9.7238,8.9818,20.1769,11.5178,30.9424
		c1.267,5.3792,0.2253,10.9256-1.9363,15.9177c-2.2821,5.2705-5.0875,10.3824-8.2292,15.1949
		c-3.6042,5.5211-8.5895,5.6461-11.7888-0.4597c-4.3739-8.3477-7.5229-17.2766-7.1114-27.0058
		c0.0305-0.7223,0.1174-1.4435,0.2055-2.1619c0.8524-6.9576,1.7109-13.9144,2.5676-20.8713
		C500.9324,781.3865,500.6117,781.3602,500.2909,781.3338z"/>
	<path class="st0" d="M534.2037,846.8641c-0.9575-2.631-1.8049-4.1933-2.0845-5.8514c-1.8661-11.067-4.1465-22.0165-3.0998-33.4622
		c0.8926-9.7601-0.7538-19.528-2.5356-29.1885c-0.8757-4.748,0.6531-6.2797,5.4543-6.012c3.576,0.1993,6.4357,1.921,7.9218,5.0044
		c3.0587,6.3461,5.8878,12.8191,8.4548,19.3794c1.2436,3.1783,1.7792,6.6517,2.4681,10.0256
		c2.7508,13.4725-1.6627,25.0298-9.8908,35.4C539.5172,843.8923,537.1518,844.8395,534.2037,846.8641z"/>
	<path class="st0" d="M402.2354,801.5574c0.8046-3.7267,1.2102-7.5636,2.4846-11.0861c2.3969-6.6246,4.9273-13.2568,8.137-19.5085
		c1.6618-3.2368,4.7194-5.8634,7.5051-8.3663c1.1834-1.0633,3.2864-1.5092,4.972-1.5105c2.4205-0.002,3.4983,1.874,2.6376,4.1335
		c-3.8348,10.0663-3.3155,20.3925-0.6612,30.4128c3.0066,11.3503-1.7562,20.1611-7.6189,28.8151
		c-2.1406,3.1596-4.9184,3.0508-7.6746,0.2971C405.6328,818.3662,403.8766,810.0859,402.2354,801.5574z"/>
	<path class="st0" d="M473.5536,761.8908c-0.0716-0.4178-0.1125-0.5952-0.1314-0.7748c-0.1999-1.9129-1.1233-4.0474,1.2527-5.2905
		c1.963-1.027,5.8467-0.155,7.3399,2.0081c2.5589,3.7067,5.2811,7.4349,7.0113,11.543c1.8777,4.4587,2.9037,9.3171,3.9418,14.0795
		c2.1517,9.8725,0.0698,19.014-5.36,27.4497c-1.1744,1.8244-2.2502,3.7433-3.6409,5.3914
		c-3.5631,4.2224-8.076,4.1181-10.5542-0.6869c-4.2138-8.1702-6.4967-16.688-4.215-26.1601
		c1.8972-7.8758,2.8035-15.9916,4.1072-24.0079C473.5072,764.1985,473.4866,762.9186,473.5536,761.8908z"/>
	<path class="st0" d="M393.8047,765.0834c-0.7352,3.4849-1.8358,6.4372-1.8922,9.4095c-0.1472,7.768-0.0362,15.5543,0.3381,23.3156
		c0.5063,10.4978-2.9016,19.5886-9.2299,27.7324c-1.4414,1.8548-3.2758,2.1882-5.131,0.388
		c-0.5212-0.5058-1.1273-0.953-1.5415-1.5357c-5.9404-8.3566-10.2745-17.396-7.6505-27.8555
		c2.8139-11.2167,8.0721-21.3307,16.3051-29.7351C387.4617,764.2925,389.9698,763.4669,393.8047,765.0834z"/>
	<path class="st0" d="M444.8132,823.1556c-1.6228-1.7735-3.5877-3.2189-4.604-5.1606c-3.3063-6.3176-5.4821-12.9262-4.1871-20.2944
		c1.8119-10.3085,3.4112-20.6542,5.106-30.9834c0.1172-0.714,0.2799-1.4205,0.4077-2.1329
		c0.3047-1.6984,1.4375-2.8336,2.9921-2.2751c1.0395,0.3734,2.2464,1.8071,2.3898,2.8965
		c0.8226,6.2491,1.1306,12.5694,2.0448,18.8022c0.759,5.1747,1.8556,10.334,3.2627,15.3716
		c2.2985,8.2286-0.0927,15.2943-4.7247,21.9254C447.0349,821.9714,446.0867,822.301,444.8132,823.1556z"/>
	<path class="st0" d="M522.0715,865.6228c-1.7335,2.0278-3.3427,4.1796-5.2218,6.062c-8.2113,8.2256-16.8036,15.9753-26.4185,22.614
		c-9.2909,6.415-19.1335,7.9703-30.0009,5.4796c-7.827-1.7939-15.4194-4.1089-22.5417-7.829
		c-5.3409-2.7899-9.9014-6.5069-14.0177-12.2076c32.9982-5.1082,65.2982-10.1084,97.5983-15.1085
		C521.6699,864.9631,521.8707,865.293,522.0715,865.6228z"/>
	<path class="st0" d="M611.853,491.2c-13.7607,3.6383-23.5286-0.2806-33.6098-7.6423c1.6607-6.6261,5.5007-10.5354,11.8234-12.4248
		c10.3529-3.0936,20.738-2.5429,31.2302-1.0886c15.119,2.0956,29.9899,5.1299,44.0927,11.1651
		c9.9124,4.2419,19.2398,9.4809,26.4584,17.6955c2.2238,2.5307,3.8105,5.6503,5.4824,8.6167
		c0.4265,0.7567,0.064,1.9581,0.064,3.9382c-17.6728-17.0707-39.292-20.2513-62.994-21.3791
		C624.7004,489.4803,617.617,490.1685,611.853,491.2z"/>
</g>
</svg>
