<?xml version="1.0" encoding="utf-8"?>
<!-- Generator: Adobe Illustrator 24.3.0, SVG Export Plug-In . SVG Version: 6.00 Build 0)  -->
<svg version="1.1" id="Layer_1" xmlns="http://www.w3.org/2000/svg" xmlns:xlink="http://www.w3.org/1999/xlink" x="0px" y="0px"
	 viewBox="0 0 1053.8693 1027.4965" style="enable-background:new 0 0 1053.8693 1027.4965;" xml:space="preserve">
<style type="text/css">
	.st0{fill:#FFFFFF;}
</style>
<g>
	<path class="st0" d="M161.9373,856.0352c1.8575,8.9261,4.1805,16.9786,5.1316,25.1901
		c4.4998,38.8492-6.8839,72.0658-36.0723,98.6705c-12.9407,11.795-28.3315,14.7258-45.144,12.176
		c-1.9476-0.2954-3.8701-0.9995-5.7007-1.7625c-2.3724-0.9887-4.8948-2.2335-4.8082-5.2604
		c0.085-2.9706,2.6585-4.1301,4.9785-5.2039c1.3085-0.6055,2.7256-1.2922,4.117-1.3464c5.0564-0.1968,8.3573-3.2293,11.3555-6.7215
		c12.3213-14.3506,21.9188-30.2288,27.2531-48.5274c5.2292-17.9382,7.5214-36.2189,6.8814-54.8866
		c-0.1493-4.3544-0.2344-8.7197-0.1085-13.073c0.2124-7.3478,2.7564-10.2417,10.0765-10.9363
		c4.2503-0.4033,8.5702-0.0733,13.1124-0.0733c-0.8605-1.3545-1.7644-2.889-2.7744-4.3502
		c-19.4151-28.0905-29.6283-59.6437-34.7635-93.0424c-2.4086-15.665-3.3719-31.4611-1.0721-47.2255
		c3.2944-22.5825,8.818-44.5452,20.4484-64.4727c3.2811-5.6216,7.1143-10.9946,11.2804-15.9931
		c1.8661-2.2388,5.177-3.2735,8.0943-5.0107c-0.6907-0.8409-1.6702-2.1108-2.7293-3.3106
		c-8.8266-9.998-13.3568-21.8372-15.3609-34.88c-1.8924-12.316-1.3465-24.6291-0.548-36.9584
		c0.3746-5.7845,0.9465-11.5563,1.4514-17.6025c-1.6373-0.7253-3.3276-1.3121-4.8568-2.1821
		c-4.5632-2.5962-5.1523-6.4786-1.5889-10.2979c0.9848-1.0554,2.06-2.1224,3.2964-2.8299c4.375-2.5034,7.8789-5.4771,8.7857-10.9087
		c0.4167-2.4959,2.786-3.919,5.2883-4.0233c3.2225-0.1342,6.4657,0.2093,9.6991,0.3659c1.7486,0.0846,3.5452,0.5278,5.2348,0.2635
		c12.5376-1.9607,25.0302-4.2171,37.5813-6.082c31.471-4.676,63.064-2.4493,94.636-1.4735
		c17.5172,0.5415,34.6568,3.3962,51.5504,7.8978c6.5284,1.7396,12.7499,4.1899,18.1745,8.3724
		c8.2196,6.3377,13.1512,14.3901,13.3115,25.0208c0.0321,2.1278,0.3081,4.2521,0.4959,6.6938
		c19.61,0.7989,38.7677,1.5793,57.9219,2.3597c2.1448-8.8156,4.1952-17.2432,6.2621-25.7386
		c-0.1287-0.2408-0.215-0.6791-0.4762-0.8498c-5.7653-3.7682-6.9321-8.1011-2.5731-13.4053
		c2.9318-3.5676,6.6736-6.7966,10.677-9.0856c7.3817-4.2206,14.9963-8.2285,22.92-11.2653
		c15.5719-5.9679,31.2746-11.6881,47.2039-16.6006c12.6983-3.9161,26.015-4.9497,39.3143-5.1538
		c18.3455-0.2815,36.7053-0.344,54.8716,2.6727c18.5059,3.073,35.5917,10.1324,51.4652,19.9603
		c12.9288,8.0048,19.894,19.727,20.3235,35.189c0.3425,12.3314,1.5583,24.6215-0.0156,36.9869
		c-2.0132,15.8172-5.7634,30.9591-13.739,44.9822c-6.3926,11.2399-15.3575,19.1738-27.3837,23.7187
		c-17.9327,6.7771-36.4506,10.6201-55.5547,12.6202c-20.9488,2.1932-41.1909-0.3878-61.5137-5.0751
		c-18.0506-4.1631-36.2629-7.5641-53.0917-15.7369c-4.4017-2.1377-8.8474-4.238-13.0384-6.7469
		c-17.3694-10.3978-25.4308-26.2549-26.4895-46.0622c-0.1716-3.2104-0.0241-6.4379-0.0241-9.7598
		c-19.141-0.9427-37.7428-1.8589-56.5698-2.7861c-0.25,0.861-0.6661,1.6879-0.7094,2.5337
		c-0.6375,12.4766-4.0349,24.3818-8.2136,35.9865c-5.4547,15.1481-13.9895,28.5784-27.7255,37.3992
		c-7.2188,4.6356-15.7359,7.3522-23.8435,10.4767c-12.2831,4.7338-25.0247,7.1958-38.2733,7.4748
		c-9.0574,0.1908-18.099,1.3371-27.138,2.1613c-23.5875,2.1511-46.7693-0.2885-69.6237-6.1931
		c-6.8979-1.7821-13.3125-4.7708-19.1142-8.9838c-0.8396-0.6097-1.7707-1.0934-3.4711-2.1305
		c-2.5552,18.064-5.1031,35.4411-7.4322,52.8474c-0.9626,7.1936-1.9467,14.4409-2.0811,21.6793
		c-0.761,40.9893,7.0312,80.1907,25.8555,116.8203c8.7548,17.0355,20.4942,32.0912,32.8473,46.6747
		c27.073,31.9607,58.8204,58.6072,92.9678,82.6266c27.6615,19.4573,56.5332,36.8898,86.2767,52.9263
		c4.9621,2.6753,10.0732,3.471,15.7354,2.2936c12.6999-2.6407,24.5479-7.7137,36.6806-12.0297
		c28.8398-10.259,56.3701-23.3266,82.5113-39.1282c17.077-10.3225,33.3638-21.9473,50.0728-32.8846
		c27.2754-17.8538,52.5507-38.2983,76.347-60.462c16.8661-15.7088,32.7192-32.5529,45.9692-51.5532
		c5.1827-7.4319,9.5624-15.4212,14.369-23.1184c8.5545-13.6992,17.1381-27.3804,25.7458-41.0463
		c3.3788-5.3644,7.3116-10.414,8.8803-16.7487c0.6714-2.7113,2.7556-4.265,5.1858-5.2154
		c8.1116-3.1723,16.2944-3.2199,24.4736-0.2109c3.3955,1.2492,5.4225,3.6429,5.4946,7.3293
		c0.0494,2.5208,0.0934,5.1069-0.3987,7.5557c-0.5672,2.8224-1.355,5.7224-2.6899,8.249
		c-8.8145,16.6835-17.34,33.5455-26.8555,49.8257c-10.783,18.4488-25.2167,34.082-40.2879,49.1586
		c-26.2599,26.2697-54.6119,50.111-84.766,71.6701c-23.9111,17.0956-48.3481,33.5598-73.3824,48.9531
		c-29.6144,18.2097-61.5939,31.6378-94.5523,42.7679c-14.6411,4.9442-29.27,9.6661-44.5914,12.0154
		c-16.2771,2.496-31.8752-0.3362-46.9535-6.2142c-16.9544-6.6094-32.6388-15.7983-48.4954-24.6495
		c-37.3907-20.8718-72.0238-45.7023-104.9101-72.9839c-17.2132-14.2795-32.7151-30.3862-47.0037-47.6235
		C164.8316,859.2733,163.5556,857.8834,161.9373,856.0352z M465.1039,508.7151c0.959,11.9928,1.736,24.666,3.0711,37.2802
		c0.7798,7.3676,1.9438,14.7747,3.8307,21.9277c3.6298,13.7593,11.6261,24.3542,24.316,31.3222
		c8.9482,4.9134,18.1299,9.1281,28.0451,11.6516c7.7318,1.9678,15.4695,3.9128,23.1866,5.9365
		c10.7878,2.829,21.6318,4.0804,32.8495,2.9887c15.7748-1.535,31.2401-3.9324,46.075-9.9245
		c9.5497-3.8572,16.8583-9.7889,21.3843-19.048c1.3531-2.7681,2.627-5.5782,3.8438-8.4091
		c4.5031-10.4772,6.1418-21.5694,7.0729-32.8286c1.2352-14.9375,0.2892-29.7377-2.7314-44.3945
		c-1.711-8.3022-5.7946-15.4575-12.7535-20.2735c-10.3414-7.157-21.5889-12.8446-33.9461-15.5203
		c-17.3716-3.7614-35.0376-2.8684-52.5807-1.5406c-6.9635,0.5271-13.9811,2.2728-20.6431,4.468
		c-16.1982,5.3379-31.8726,12.0326-47.208,19.5395C480.243,496.1362,471.6652,500.3809,465.1039,508.7151z M251.6278,493.0788
		c-21.0436,0.0412-41.6089,3.3863-62.1327,7.2946c-8.1944,1.5604-15.4709,4.9042-22.3186,9.5425
		c-2.2596,1.5306-3.0097,3.1549-2.819,5.8163c0.5962,8.3222,0.8285,16.6705,1.4259,24.9926
		c0.9085,12.6544,1.8277,25.3127,3.0667,37.9376c1.5424,15.7166,9.9748,27.8005,21.3489,37.9827
		c3.0258,2.7087,6.885,4.8263,10.7221,6.2282c14.3161,5.2304,29.2469,7.1273,44.4139,6.4026
		c13.2223-0.6318,26.4195-1.8301,39.6171-2.9082c3.0533-0.2493,6.2029-0.632,9.0667-1.6393
		c8.2025-2.8852,16.309-6.0526,24.3969-9.2512c4.1155-1.6275,7.6407-4.2268,10.2874-7.8079
		c6.83-9.2414,12.5717-19.0146,15.6519-30.2556c4.7443-17.3137,6.6969-34.8625,5.5809-52.7844
		c-0.6314-10.1389-6.6934-18.6357-16.4523-21.37c-8.1889-2.2944-16.5185-4.5731-24.934-5.4736
		C289.6246,495.7602,270.6075,494.5945,251.6278,493.0788z"/>
	<path class="st0" d="M65.7071,544.8564c1.6058,22.8823,3.0337,46.6273,5.0137,70.3261c1.4807,17.7224,3.612,35.3922,5.6081,53.068
		c0.342,3.0289,1.2502,6.0451,2.2814,8.9297c0.9088,2.5421,0.1497,4.3165-1.8296,5.6353c-1.4864,0.9904-3.1654,1.7981-4.8696,2.3356
		c-5.671,1.7886-11.4687,1.6579-17.2434,0.6067c-4.6973-0.8552-8.6641-3.0748-10.6087-7.6251
		c-2.5553-5.9793-5.5801-11.9247-6.9763-18.2021c-4.7258-21.2476-8.9662-42.6072-13.1192-63.9772
		c-4.2613-21.9271-7.4089-44.0301-9.4004-66.2858c-1.9147-21.3972-1.8807-42.768,0.3289-64.1696
		c3.0075-29.1305,7.6353-57.9623,15.5889-86.1622c10.9526-38.8332,24.6348-76.7044,41.8441-113.221
		c13.7791-29.238,32.0187-55.6568,52.6457-80.4352c13.7076-16.4664,27.955-32.4482,43.7305-47.0212
		c16.5899-15.3253,34.5191-28.8923,53.5001-41.055c28.1582-18.0434,57.2881-34.3338,88.3058-46.9985
		c30.4486-12.4323,61.7983-22.1465,93.6854-30.1174c26.8798-6.7192,54.3655-9.1291,81.9013-11.1363
		c15.7771-1.1501,31.5548-1.6446,47.3476-0.5148c25.0377,1.7912,48.9448,8.3878,72.2421,17.3806
		c6.0796,2.3467,11.9934,5.1705,17.8356,8.0727c7.2595,3.6063,13.1698,8.9803,18.3945,15.1149
		c0.9349,1.0978,1.7944,2.3089,2.4439,3.5917c1.891,3.7342,0.7706,6.4209-3.2973,7.4295
		c-3.7743,0.9358-7.8308,1.2196-11.0299-1.2808c-16.6578-13.0195-36.3195-18.5777-56.3975-23.2494
		c-18.7958-4.3734-37.69-8.2766-57.1068-6.5513c-16.8031,1.4931-33.5458,3.6934-50.2989,5.7161
		c-28.6815,3.4628-55.7668,12.9623-82.8969,22.219c-48.5344,16.5597-92.7304,41.2538-133.7017,71.8773
		c-17.3567,12.9731-32.9323,27.9153-47.5306,43.912c-21.1058,23.1277-40.1596,47.7725-56.3249,74.6375
		c-12.4866,20.7515-22.5368,42.6642-31.7093,65.0134c-10.6127,25.8583-20.8714,51.854-28.7266,78.7148
		c-9.7019,33.1755-17.488,66.7876-19.462,101.3883C64.9052,509.8271,65.7071,526.9324,65.7071,544.8564z"/>
	<path class="st0" d="M889.9639,818.5876c5.0208,2.2153,5.2235,6.676,5.7677,10.9695c1.4372,11.3397,2.517,22.7383,4.385,34.0064
		c3.043,18.3559,8.9737,35.8748,16.4614,52.8931c4.7608,10.8206,11.2875,20.2564,20.5177,27.7547
		c2.3914,1.9426,4.6863,4.0271,6.855,6.2155c4.203,4.2411,3.7003,7.843-1.9302,9.882c-4.007,1.4511-8.4536,2.1345-12.733,2.2755
		c-5.4757,0.1803-10.7939-1.2767-15.6968-3.8914c-9.0045-4.8022-17.38-10.5132-25.0456-17.2673
		c-9.3535-8.2409-14.4726-18.9344-17.7657-30.6563c-6.0851-21.6602-5.4364-43.4286-0.8544-65.2392
		c0.3276-1.5591,0.6335-3.1227,0.1515-5.2354c-1.3353,1.3334-2.6732,2.6643-4.0054,4.0008
		c-7.6872,7.7119-15.1432,15.6727-23.1163,23.0768c-10.6424,9.8828-23.1798,9.9044-36.1993,5.7375
		c-1.1817-0.3782-2.3047-1.1011-3.3017-1.8643c-2.9232-2.2378-3.4432-4.4445-1.3736-7.5152
		c2.3295-3.4561,4.8923-6.7726,7.551-9.9865c16.663-20.1423,33.5372-40.1121,50.0394-60.385
		c18.5692-22.8122,36.7216-45.9575,52.5649-70.803c20.1178-31.5489,35.2609-65.4371,47.6341-100.6682
		c10.9752-31.2502,19.3615-63.1526,24.8208-95.8086c5.9537-35.6127,8.4802-71.4741,4.5541-107.4342
		c-8.5561-78.3681-38.613-147.337-92.0986-205.618c-22.4703-24.485-48.3978-44.9226-76.2527-62.9602
		c-15.5598-10.0758-31.4402-19.5993-48.5557-26.8162c-5.9963-2.5284-12.3226-4.2867-18.5317-6.2933
		c-4.8876-1.5795-9.5541-1.2295-14.1691,1.3731c-1.9534,1.1017-4.4418,1.5207-6.7239,1.665
		c-1.1969,0.0756-3.1006-0.835-3.533-1.8107c-0.4095-0.9247,0.2944-3.03,1.1944-3.7149c2.4033-1.8289,5.0006-3.7639,7.8328-4.6012
		c8.9418-2.6436,17.9908-1.5602,26.9372,0.3233c17.905,3.7694,34.6108,10.8288,50.8495,19.025
		c43.9286,22.1723,84.0357,49.7325,118.2,85.3737c47.4891,49.5422,78.8295,107.7398,93.4022,174.9644
		c8.1493,37.593,10.4894,75.4857,7.1891,113.7181c-2.9597,34.2879-9.8298,67.8785-19.6789,100.8376
		c-11.4193,38.2137-26.366,74.9645-46.1835,109.655c-13.9124,24.3535-30.2964,46.9639-48.2686,68.4476
		c-8.6199,10.3042-17.3757,20.4948-26.072,30.735C893.2668,814.732,891.7416,816.5075,889.9639,818.5876z"/>
	<path class="st0" d="M727.063,571.8378c-1.2142,10.7279-2.22,21.0103-3.5688,31.2474
		c-3.013,22.8666-6.5001,45.6561-13.1021,67.8288c-1.9734,6.6276-4.5773,12.9789-8.6912,18.665
		c-7.2329,9.9973-18.3364,9.8008-25.8434,7.1812c-4.5246-1.579-5.5271-4.1854-2.5647-7.719
		c3.826-4.5637,5.2616-10.3014,6.6883-15.9412c4.24-16.761,6.4825-33.8662,8.4705-50.9985
		c3.2279-27.8173,4.9384-55.7138,3.6154-83.7314c-1.7975-38.0633-7.9783-75.4247-18.2425-112.1045
		c-9.892-35.3495-20.9822-70.2808-37.5312-103.2079c-4.9722-9.8933-10.3638-19.5769-15.2741-29.4996
		c-1.3912-2.8114-3.6361-3.0781-6.3188-3.4183c0.2459-3.3193,2.5469-4.3946,4.9086-5.1572
		c5.4771-1.7686,10.4996-0.3672,14.8104,3.0957c2.8073,2.2551,5.3021,4.9686,7.6378,7.7296
		c15.5684,18.4036,28.283,38.719,38.926,60.2584c17.0245,34.4541,30.4534,70.2654,38.6417,107.9078
		c6.5934,30.3097,9.5659,60.9584,8.2415,91.9854c-0.0697,1.6321-0.0981,3.2672-0.0923,4.9006
		c0.0011,0.3096,0.2537,0.6182,0.6237,1.4556c0.9281-1.338,1.8816-2.3502,2.4196-3.5491c2.7484-6.1242,5.7013-12.182,8.0132-18.4723
		c8.8801-23.9165,16.0239-43.7829,22.2919-75.0844c1.4231-7.3009,2.4806-14.6724,3.765-22.0012
		c0.8154-4.6528,2.0688-5.8894,6.0663-6.2852c4.3901-0.4346,8.2578,1.2198,9.2866,4.9283
		c1.4464,5.2132,2.5426,10.5958,3.0713,15.9764c1.1525,11.7285-0.9084,23.1923-4.1161,34.4218
		c-5.8951,20.637-13.2017,40.7571-23.0098,59.8918c-1.9811,3.865-4.2748,7.601-6.7366,11.1818
		c-4.7366,6.8892-11.2636,10.0377-19.7104,8.6809C729.0309,571.8911,728.3019,571.9106,727.063,571.8378z"/>
	<path class="st0" d="M895.4166,627.6869c-0.7314,20.4589-8.1707,38.3394-19.7193,54.6747
		c-15.3936,21.7742-36.6714,34.7249-62.4896,40.3446c-7.1243,1.5508-14.4718,1.4163-21.5842-0.6271
		c-4.4435-1.2766-8.4781-3.2805-10.4333-7.958c-1.607-3.8447-1.0757-5.7,2.6973-7.4662c5.6652-2.6521,11.7021-2.77,17.5754-1.2342
		c3.3152,0.8669,5.8796,0.4873,8.6932-1.2269c26.9513-16.4209,43.8394-40.0743,48.918-71.1586
		c3.8991-23.8652-6.0918-51.7988-32.0818-67.9034c-5.8596-3.6309-10.8109-3.1191-16.0671,0.3516
		c-2.5723,1.6986-4.9637,3.678-7.5744,5.3107c-4.6774,2.9252-9.7311,3.9105-15.1094,2.2247
		c-3.9818-1.2481-4.9724-3.0745-3.6187-6.9564c1.6422-4.7094,5.1404-7.8594,9.3577-10.2031c5.606-3.1154,11.6526-5,18.0024-5.9025
		c16.4137-2.3331,31.3383,1.7078,45.0382,10.6993c17.9754,11.7975,30.8527,27.4509,35.7556,48.7766
		C894.1496,615.4042,894.563,621.5961,895.4166,627.6869z"/>
	<path class="st0" d="M232.0369,455.2964c-4.04-0.426-7.4686-0.737-10.8811-1.174c-1.2448-0.1594-2.4808-0.5352-3.6688-0.9585
		c-2.2459-0.8003-4.8039-1.71-4.7244-4.5296c0.0776-2.7496,2.6088-3.7662,4.8699-4.47c2.0578-0.6405,4.2257-1.206,6.3608-1.2689
		c7.4415-0.2192,14.2007-2.7136,20.806-5.812c32.4205-15.2073,58.9883-37.3182,79.3892-66.8532
		c17.9696-26.015,33.9503-53.2032,48.5941-81.1943c2.0956-4.0056,3.6441-8.2968,5.4567-12.451
		c1.851-4.2421,5.168-5.9174,10.1745-5.1573c4.3117,0.6547,6.2617,2.4372,6.4339,7.341c0.1512,4.306-0.2176,8.7197-1.0557,12.9471
		c-0.9476,4.7804-2.3305,9.5421-4.1198,14.0769c-10.1509,25.7267-22.884,50.1141-37.9332,73.3406
		c-16.2942,25.1481-38.146,43.9622-64.3784,58.0147c-13.1493,7.044-26.5513,13.4437-41.3453,16.2344
		C241.2205,454.2869,236.3367,454.7203,232.0369,455.2964z"/>
	<path class="st0" d="M447.7893,287.2445c-0.3643,10.2582-2.0533,18.9798-4.6686,27.5128
		c-7.2225,23.5648-17.2013,45.916-30.8518,66.4467c-12.6532,19.0306-28.1681,35.5629-46.3986,49.4076
		c-9.3424,7.0948-19.7315,11.6321-31.8152,10.4897c-2.6321-0.2489-5.3786-1.0332-7.712-2.2577
		c-2.9424-1.5441-2.8719-4.1139-0.0021-5.9039c2.2909-1.429,5.1135-2.0795,7.2378-3.6866
		c4.4746-3.3852,8.8585-6.9494,12.9068-10.8291c23.9284-22.9314,41.7325-50.1821,55.4009-80.1694
		c7.0708-15.5127,13.2867-31.4144,19.9345-47.1211c1.4837-3.5055,2.9234-7.0638,4.7981-10.3621
		c3.1828-5.5998,13.2621-7.4243,18.2403-3.3444c1.156,0.9474,2.0289,2.6089,2.3714,4.0941
		C447.7541,283.7905,447.7029,286.1921,447.7893,287.2445z"/>
	<path class="st0" d="M737.5892,889.5323c0.5832-20.2776,8.4015-35.7983,21.6373-48.7203c5.2519-5.1273,11.788-5.0071,18.341-2.7097
		c2.7176,0.9528,3.9537,3.079,3.5919,5.993c-0.1561,1.2573-0.3343,2.5248-0.6583,3.7463
		c-5.3687,20.2427-3.3427,40.3041,1.5084,60.2797c2.7421,11.291,5.8466,22.4651,11.2808,32.8447
		c2.8111,5.3693,6.3586,10.0841,11.0339,14.0068c4.4594,3.7418,4.0774,6.9577-1.3019,9.3632
		c-8.5335,3.8159-17.3347,3.7319-25.9302,0.2479c-8.983-3.6411-16.2111-9.6793-21.404-17.863
		C744.3418,928.8405,739.079,909.0455,737.5892,889.5323z"/>
	<path class="st0" d="M436.2893,199.1823c-9.3099,0.1944-18.5242-0.4003-27.4291-3.3251c-2.74-0.8999-5.5054-1.9535-7.9619-3.4311
		c-3.7376-2.2482-3.6059-5.2897,0.2564-7.462c1.8571-1.0445,4.0187-1.9674,6.0989-2.108c4.3125-0.2914,8.8885-0.8759,12.9488,0.1989
		c7.6206,2.0172,15.1197,1.7593,22.6695,0.6438c27.6506-4.0854,54.2525-11.3729,78.6187-25.6556
		c20.4524-11.9886,35.7114-28.305,43.6893-50.9174c1.0236-2.9012,1.8912-5.8679,2.6462-8.851
		c1.2678-5.0097,1.8492-5.7228,5.5789-6.0099c4.5353-0.3491,7.9249,1.32,9.2564,5.0596c0.7745,2.1756,1.3847,4.6491,1.1547,6.8949
		c-0.5331,5.2044-1.1491,10.4862-2.5728,15.4976c-4.4385,15.6243-13.322,28.4945-25.5767,39.0437
		c-17.0701,14.6944-36.7523,24.5231-58.3327,30.5719C477.3741,194.9271,457.1143,198.887,436.2893,199.1823z"/>
	<path class="st0" d="M882.9454,976.2854c-10.1371-0.0243-17.9993-2.1772-24.9252-6.8199
		c-17.8505-11.9652-31.083-27.7484-37.9156-48.3231c-1.6313-4.9128-1.9006-10.2869-2.6818-15.4662
		c-0.1856-1.2304-0.0018-2.543,0.1683-3.7964c1.4924-10.9832,8.3282-15.6956,19.226-13.437
		c4.0845,0.8466,6.7085,2.8909,8.1625,6.9869c6.1193,17.2383,15.3564,32.8664,26.0582,47.5577
		c4.6575,6.3939,10.5411,11.9354,16.1741,17.5571c2.1255,2.1213,5.1617,3.3088,7.7012,5.0417
		c3.6228,2.4724,3.6273,5.3068-0.0964,7.6653C890.6791,975.8722,885.9808,976.3475,882.9454,976.2854z"/>
	<path class="st0" d="M523.8895,293.3906c-0.2962,10.4535-1.8303,19.0038-4.6794,27.302
		c-8.7139,25.3796-21.8417,48.2416-39.6046,68.3491c-3.8171,4.3209-8.2369,8.2129-12.8216,11.7247
		c-5.1447,3.9407-11.155,6.0429-17.8218,5.4687c-1.2564-0.1082-2.6686-0.1071-3.7022-0.6953
		c-1.4605-0.8311-2.6355-2.1639-3.9326-3.2822c1.0484-1.1366,1.997-2.3902,3.165-3.3867c2.8831-2.4599,6.294-4.4305,8.7445-7.2484
		c26.5277-30.5046,45.0051-64.9006,50.3593-105.5318c0.0238-0.18,0.0429-0.3607,0.0693-0.5403
		c0.9884-6.7345,2.2542-8.1411,7.6398-8.4902c6.2352-0.4042,9.9306,1.9613,11.338,7.7612
		C523.4503,288.1469,523.6451,291.6209,523.8895,293.3906z"/>
	<path class="st0" d="M504.0152,858.2667c-3.1898,6.1954-7.5445,9.4462-11.9485,12.601
		c-13.8407,9.9144-28.9596,17.2344-45.3868,21.7012c-24.9576,6.7863-50.3541,10.7534-76.2616,10.3323
		c-6.8131-0.1107-13.6325-1.6568-20.3839-2.8982c-2.9024-0.5336-6.8821-1.2753-6.4694-5.2171
		c0.3741-3.5735,4.2902-4.0602,7.2462-4.645c2.458-0.4863,5.112-0.7327,7.5667-0.3547c10.5433,1.6237,20.9697,0.6176,31.4144-0.8232
		c20.5101-2.8295,40.9097-6.259,60.1299-14.3141c11.692-4.9001,23.0945-10.4966,34.5824-15.8758
		c4.1911-1.9626,8.4696-3.3792,13.1152-2.6417C499.6167,856.4484,501.5118,857.4067,504.0152,858.2667z"/>
	<path class="st0" d="M837.8783,523.9345c7.4164-11.6177,8.1735-24.4982,9.6962-36.9736
		c2.3503-19.2558,3.6996-38.635,5.3914-57.9691c0.4794-5.4794,0.7087-6.098,4.1918-7.022c4.3381-1.1509,9.1733,0.2585,11.1393,3.593
		c1.0861,1.8418,2.048,3.9648,2.2988,6.0532c0.8623,7.1822,2.1274,14.429,1.8942,21.6075
		c-0.5958,18.3447-3.0974,36.5118-7.3842,54.3809c-0.9659,4.026-2.3039,8.0687-4.166,11.7522
		c-4.0866,8.0833-11.614,9.0807-19.0928,7.1152C840.4327,526.1,839.2517,524.8403,837.8783,523.9345z"/>
	<path class="st0" d="M715.7818,63.8149c5.4391-0.3576,10.4863-0.9709,15.5276-0.9257c3.5845,0.0321,7.1968,0.7858,10.7259,1.5461
		c1.7208,0.3708,3.413,1.2987,4.8864,2.3117c3.908,2.6871,4.0804,6.3,0.0606,8.6769c-2.896,1.7124-6.2918,2.9604-9.6117,3.4842
		c-4.7415,0.748-9.1192,2.1627-13.4028,4.2515c-6.2477,3.0466-12.7087,5.1556-19.8846,4.7666
		c-6.6959-0.3629-12.0925-3.5628-17.3394-7.1225c-1.1155-0.7568-1.9206-2.7139-1.9788-4.154
		c-0.2198-5.4356-0.2819-10.8964-0.0148-16.3287c0.4108-8.354,3.4821-11.2501,11.8631-11.6659
		c1.8084-0.0897,3.6385-0.0625,5.4407,0.1043c5.3024,0.4908,9.327,2.7331,11.051,8.167
		C713.8133,59.1592,714.7962,61.3048,715.7818,63.8149z"/>
	<path class="st0" d="M185.9697,973.2401c7.0112-11.3545,8.4066-23.2731,10.129-35.0887c0.4699-3.2233,0.643-6.4888,0.9969-9.7302
		c0.4603-4.2165,1.8091-5.7784,5.8359-6.6638c1.2311-0.2706,2.5117-0.3849,3.7748-0.4308
		c9.4866-0.3456,13.5414,3.4072,13.1606,12.8514c-0.4559,11.3088-2.6517,22.3342-7.6449,32.5688
		c-4.2225,8.6549-11.8465,11.9622-20.7781,9.3705C189.6601,975.5996,188.0815,974.3745,185.9697,973.2401z"/>
	<path class="st0" d="M165.8007,455.8126c-0.5463,3.3575-0.7077,5.5429-1.274,7.6178c-2.1521,7.885-7.0616,9.3788-14.6876,7.5875
		c-2.2169-0.5207-3.4236-1.9499-2.4774-4.4532c1.8743-4.9583,1.2857-10.0454,0.2849-15.0056
		c-1.3205-6.5448-2.9702-13.0324-4.7379-19.4733c-0.7078-2.5791,0.1477-3.6703,2.4272-4.4235
		c4.6967-1.552,10.1467-0.0221,13.0572,4.0432c1.3558,1.8938,2.7464,3.969,3.328,6.1715
		C163.3765,444.145,164.6242,450.5208,165.8007,455.8126z"/>
	<path class="st0" d="M233.2933,541.5602c-2.3809-1.0465-4.7617-2.0931-7.1426-3.1396c0.1521-0.3843,0.3041-0.7686,0.4562-1.1529
		c2.5285,0.944,5.0571,1.888,7.5856,2.832C233.8928,540.5865,233.593,541.0734,233.2933,541.5602z"/>
</g>
</svg>
