<?xml version="1.0" encoding="utf-8"?>
<!-- Generator: Adobe Illustrator 24.3.0, SVG Export Plug-In . SVG Version: 6.00 Build 0)  -->
<svg version="1.1" id="Layer_1" xmlns="http://www.w3.org/2000/svg" xmlns:xlink="http://www.w3.org/1999/xlink" x="0px" y="0px"
	 viewBox="0 0 1113.1818 1080.3254" style="enable-background:new 0 0 1113.1818 1080.3254;" xml:space="preserve">
<style type="text/css">
	.st0{fill:#FFFFFF;}
</style>
<g>
	<path class="st0" d="M494.9839,69.6355c-3.9608-3.1177-3.5962-6.739-2.7106-10.2738c1.7888-7.1401,6.5605-12.3023,12.6899-15.6866
		c13.3235-7.3563,26.6498-14.8607,40.5731-20.9331c13.2663-5.7858,27.8436-6.4455,42.2115-7.0207
		c33.8599-1.3556,65.4077,6.6648,94.7527,23.5186c16.104,9.2491,29.3714,21.7858,41.5889,35.6058
		c7.5831,8.5778,12.9913,18.2603,16.5732,29.0987c4.4019,13.3195,9.7545,26.2017,18.6114,37.3204
		c4.5696,5.7365,9.7751,10.7368,16.3624,14.1165c8.5577,4.3907,17.1112,8.7916,25.7207,13.0796
		c18.357,9.1428,36.7367,18.2403,55.1297,27.3107c21.1113,10.4108,40.3719,23.6203,58.7365,38.2693
		c21.0226,16.7693,41.6808,33.9212,59.5905,54.096c15.9212,17.9346,28.5488,37.935,37.5363,60.2213
		c5.2009,12.8966,6.7505,26.2325,5.8302,40.0214c-1.2089,18.1112-6.1905,35.2466-12.6068,52.0977
		c-6.9561,18.2687-11.3468,37.2025-10.7985,56.7958c0.5434,19.416,4.2105,38.3787,15.0212,55.0085
		c5.9218,9.1094,13.1199,17.3786,19.4602,26.2289c10.2472,14.3038,20.3293,28.7276,30.3289,43.2059
		c2.6714,3.868,5.0562,7.9884,7.1132,12.2164c7.1458,14.6869,14.2195,29.412,21.0774,44.2352
		c8.5685,18.5202,11.0992,38.1617,10.3993,58.3842c-0.5638,16.2902-0.3698,32.6259-1.5167,48.8705
		c-0.9301,13.1695-3.1384,26.267-5.166,39.3366c-3.0685,19.7775-8.6367,38.9086-16.6034,57.2513
		c-12.0829,27.8199-28.6251,52.5185-51.9526,72.3243c-19.3116,16.3964-41.0639,28.5279-64.6562,37.5494
		c-30.8821,11.8088-62.8049,19.0665-95.6996,22.1572c-1.4457,0.1359-2.9003,0.2489-4.3271,0.5045
		c-9.7049,1.739-18.3641-0.5946-26.0834-6.6296c-4.7166-3.6873-9.4981-7.2972-14.1036-11.1189
		c-3.8761-3.2163-3.8646-4.2899-0.6085-7.9002c1.3372-1.4827,2.7582-2.8896,4.1055-4.3636
		c5.3861-5.8921,12.0675-8.9158,19.9926-9.9263c15.2967-1.9503,30.6526-3.7119,45.7904-6.5752
		c32.4525-6.1385,63.7878-15.9348,92.4725-32.6608c23.3373-13.608,43.3367-30.9894,57.1292-54.7399
		c7.2635-12.5077,11.8612-26.0562,15.7902-39.8467c4.8292-16.9509,7.8231-34.3025,9.225-51.8362
		c1.2545-15.6896,1.5405-31.4574,2.2054-47.1927c0.2672-6.3221,0.4624-12.6485,0.5883-18.9749
		c0.1857-9.3197-0.7654-18.5859-3.8394-27.359c-7.5669-21.596-15.7668-42.9911-28.8141-62.0092
		c-11.1786-16.2941-21.4961-33.225-34.5328-48.1932c-15.0869-17.3221-22.778-38.1461-28.3604-59.9568
		c-3.4454-13.4611-5.0399-27.2074-3.9783-41.017c1.348-17.535,4.0146-34.8983,9.9251-51.6295
		c3.3168-9.3887,6.7581-18.8107,9.001-28.4825c2.9911-12.8982,5.299-26.1209,1.3873-39.2613
		c-1.7449-5.8614-4.3586-11.5399-7.1756-16.9926c-9.6586-18.6956-22.387-35.1859-37.3024-49.9542
		c-20.1644-19.9657-41.5708-38.6024-65.1091-54.4128c-14.1046-9.4739-29.54-17.0061-44.5666-25.0578
		c-19.6758-10.543-39.6157-20.5923-59.2998-31.1201c-22.1362-11.8393-36.8213-30.1969-45.4639-53.5376
		c-3.0844-8.3296-5.8557-16.7783-8.6323-25.2179c-2.6283-7.9889-8.0609-14.1273-13.2167-20.44
		c-20.5457-25.1558-48.1051-38.6989-78.7935-46.4391c-21.6309-5.4557-43.7108-7.1378-65.8647-3.1318
		c-6.0234,1.0892-11.924,3.0854-17.7282,5.1043c-8.3912,2.9188-16.6576,6.2003-24.9477,9.4036
		c-3.5502,1.3718-7.0974,2.7893-10.5174,4.4506c-4.1463,2.0141-7.7298,4.7373-9.7425,9.123
		C496.7574,67.5822,495.9547,68.3422,494.9839,69.6355z"/>
	<path class="st0" d="M231.2868,986.5817c-1.1695,1.6356-1.6057,2.792-2.4404,3.3279c-7.9202,5.0853-15.6713,10.5082-23.952,14.934
		c-6.4951,3.4713-13.8221,3.7469-21.2274,2.6776c-26.1124-3.771-51.5289-10.0732-76.0379-19.9501
		c-21.9285-8.837-39.4043-23.5231-54.8526-41.0237c-13.5787-15.3828-23.9926-32.449-31.6839-51.6302
		c-9.2781-23.1387-12.2891-46.7887-11.0426-71.39c0.8545-16.8656,2.5343-33.6249,5.1708-50.2833
		c4.7079-29.7468,13.5375-58.2979,26.5944-85.3982c10.2388-21.251,21.4333-42.0405,32.1201-63.0771
		c11.4258-22.4911,22.7571-45.0304,34.1238-67.5515c4.7789-9.4684,8.2671-19.5168,9.3336-29.9581
		c1.0067-9.8555,0.8918-19.9633-0.0039-29.8446c-1.5066-16.6209-4.1175-33.1389-6.0886-49.7211
		c-2.2706-19.102-3.5917-38.2201-2.0002-57.499c1.9776-23.9568,7.5362-46.8533,18.67-68.2468
		c5.487-10.5432,12.7635-19.8426,20.8044-28.5244c15.7866-17.0451,31.566-34.1001,47.5848-50.926
		c11.3074-11.8771,19.6806-25.3823,25.8114-40.6054c8.4024-20.8633,17.2933-41.545,26.5627-62.0387
		c5.9167-13.0812,13.6583-25.2002,22.6883-36.4375c7.2119-8.9748,15.2554-17.0298,25.1697-23.0369
		c17.1289-10.3787,34.8414-19.5152,54.2906-24.7826c8.6093-2.3316,17.3589-3.7611,26.3579-2.9933
		c10.1886,0.8694,19.3608,4.5156,27.931,9.9045c1.3603,0.8553,3.3317,1.6261,2.1265,3.5828
		c-0.3643,0.5916-2.5729,0.3986-3.7946,0.0568c-12.1348-3.3945-24.2622-4.6877-36.2198,0.4739
		c-6.3132,2.7252-12.7504,5.3901-18.5612,9.0002c-9.3859,5.8313-18.427,12.2469-27.3716,18.7489
		c-6.1548,4.4741-12.1267,9.2599-17.7793,14.3517c-10.4237,9.3895-17.4731,21.2628-23.5072,33.7518
		c-9.6525,19.9784-16.4846,41.0569-24.0562,61.8534c-4.0897,11.2329-8.38,22.4422-13.4329,33.2639
		c-8.2154,17.5947-20.3658,32.4903-33.2789,46.8958c-15.1423,16.8925-29.6346,34.3666-44.4664,51.5388
		c-6.5301,7.5605-9.0007,16.886-11.5537,26.1506c-5.6646,20.5565-6.4074,41.5441-4.0009,62.5493
		c2.3331,20.3651,5.8801,40.5884,8.4714,60.9278c1.3272,10.4173,2.3124,20.9458,2.4292,31.4354
		c0.2382,21.3949-4.9492,41.7515-14.3669,60.8692c-18.3652,37.2805-35.8923,74.9756-55.792,111.501
		c-12.1763,22.3491-22.0416,45.7401-27.9663,70.6154c-3.9086,16.4105-7.3477,32.9062-8.3071,49.8181
		c-0.574,10.1176-1.6249,20.2198-1.8582,30.3428c-0.6675,28.9615,11.0925,53.1609,29.3552,74.7489
		c1.2884,1.523,2.6568,2.9807,3.9014,4.5381c13.1227,16.4194,31.2246,25.0674,50.3541,31.9245
		c18.4546,6.6151,37.3559,11.7855,56.6398,15.3222c10.2024,1.8712,19.4818,5.4393,27.7714,11.6608
		C223.494,981.122,227.1971,983.6598,231.2868,986.5817z"/>
	<path class="st0" d="M271.2336,618.8361c-0.896,1.0942-1.4793,1.7452-1.9947,2.4462c-2.6483,3.602-6.1731,4.774-10.5189,4.0134
		c-24.8187-4.3441-40.2415-22.6008-37.2603-48.7637c0.3277-2.8759,0.8131-5.7458,1.4395-8.571
		c0.372-1.6774,1.3925-3.014,3.4378-2.796c2.0459,0.2182,2.5899,1.6602,2.7342,3.4495c0.3203,3.972,0.6802,7.9409,1.0364,11.9099
		c0.0648,0.7227,0.1696,1.4431,0.2882,2.1592c1.9224,11.6094,8.3819,18.9641,20.0292,21.6233
		c4.8337,1.1035,10.9122,1.4771,17.2178,0.506c-0.3781-1.7353-0.7108-3.4525-1.1281-5.1487
		c-5.214-21.1896-9.3172-42.5724-9.357-64.4747c-0.0177-9.7382,1.0569-19.4774,1.6037-29.218
		c0.3749-6.6781,0.6743-13.3604,1.0575-20.038c0.0681-1.1868,0.3817-2.3595,0.6071-3.6877c3.037-0.1593,3.6882,1.5968,3.9208,3.6867
		c0.6218,5.5865,1.868,11.2003,1.6837,16.7641c-1.228,37.0744,7.2242,72.3795,18.8817,107.1609
		c10.0946,30.1183,20.7858,59.9987,33.8965,88.9706c11.2471,24.8538,24.2481,48.8163,39.6715,71.2295
		c21.1573,30.7455,44.9977,59.4155,75.5174,81.4822c30.6953,22.1937,64.3792,38.4585,101.4467,47.0884
		c10.5709,2.4611,21.2877,4.3425,31.9949,6.1495c4.2587,0.7188,7.1626,3.3701,10.2068,5.8094
		c2.19,1.7549,2.3164,4.7845,1.1368,7.0579c-2.315,4.4616-4.8008,8.9506-7.9562,12.8253
		c-2.7593,3.3884-6.9761,4.0321-11.4509,3.5677c-41.0703-4.2631-78.2766-19.3705-113.5126-40.1205
		c-28.168-16.5878-51.9854-38.2925-73.0189-63.0382c-31.5709-37.1431-54.8667-79.2184-72.6277-124.4861
		c-10.68-27.2205-19.7502-54.96-27.3752-83.1815C272.4836,621.8868,271.8975,620.6234,271.2336,618.8361z"/>
	<path class="st0" d="M879.1927,558.0547c-1.0146,1.2289-1.5252,2.3005-2.373,2.8017c-5.9464,3.5153-12.0099,6.8537-18.9127,8.0886
		c-5.5614,0.9948-10.7915-0.1708-15.7465-2.8752c-16.21-8.847-29.4048-21.061-40.595-35.6599
		c-10.8931-14.2115-17.2818-30.5757-23.0726-47.225c-3.8751-11.1413-7.4227-22.399-10.9729-33.6501
		c-5.2272-16.5658-15.6272-28.321-31.6619-35.2282c-12.9703-5.5872-26.3839-9.4302-40.505-9.524
		c-30.0421-0.1995-54.586-12.1701-75.8249-32.8826c-21.7673-21.2278-32.5987-47.5515-38.2031-76.6516
		c-0.3433-1.7826-0.7818-3.5645-0.9196-5.3663c-1.2474-16.3171-9.4074-29.1535-20.5861-40.3248
		c-14.2585-14.2489-30.664-24.9512-50.7712-28.9748c-13.0941-2.6203-26.2498-3.4495-39.4239-0.366
		c-5.0775,1.1884-9.7352,2.9443-12.1858,8.0972c-0.1933,0.4065-0.8437,0.5955-1.2714,0.8787
		c-2.7195-3.0802-3.2876-5.8302-1.0634-9.0985c1.5842-2.3278,3.7106-4.5279,6.0719-6.0404
		c7.0283-4.5016,15.0471-6.1863,23.2185-7.1002c15.1008-1.6888,30.1052-1.3484,44.6948,3.3533
		c20.4288,6.5835,36.8431,19.2219,51.2126,34.7732c10.5255,11.3911,16.4305,25.0585,19.5939,40.0903
		c2.4725,11.7485,5.5305,23.3421,11.1712,34.0482c14.0737,26.7119,35.3414,44.8246,64.5853,52.8802
		c6.9321,1.9096,14.2832,2.6266,21.4948,3.1313c21.7805,1.5245,41.9795,7.3551,60.1451,19.8875
		c12.4771,8.6079,22.0008,19.5096,27.5369,33.5881c4.7795,12.1542,9.056,24.5091,13.414,36.8251
		c4.3022,12.1586,8.5659,24.3069,15.52,35.3067c9.7933,15.4908,22.3683,27.9619,38.5133,36.8731
		c5.3683,2.9631,10.3117,6.7517,15.2343,10.4493C871.4017,551.0828,874.964,554.444,879.1927,558.0547z"/>
	<path class="st0" d="M584.1691,903.7731c7.5858-8.3196,14.6428-15.4582,25.2488-18.5731
		c16.2358-4.7685,31.41-12.296,46.3669-20.1386c13.9392-7.3088,26.1155-17.002,37.069-28.2779
		c22.8899-23.5636,43.7487-48.641,57.43-78.8599c8.0779-17.8424,16.11-35.7364,23.2521-53.9639
		c9.2628-23.6401,17.6533-47.6407,23.5799-72.3763c3.0373-12.6768,5.2516-25.5512,7.8214-38.3396
		c1.7126-8.5232,3.4355-17.0446,5.0716-25.5825c0.58-3.0272,0.8931-6.1049,1.3739-9.1522c0.2542-1.6118,0.3895-3.298,1.002-4.7751
		c0.332-0.8007,1.6237-1.7902,2.3554-1.697c1.0272,0.1307,2.2324,1.0018,2.8077,1.9078c0.5157,0.8124,0.4075,2.1056,0.3607,3.1774
		c-0.403,9.2155-0.9321,18.4261-1.2744,27.6437c-0.6065,16.3286-2.259,32.559-4.9637,48.6555
		c-1.9776,11.7689-4.5725,23.4338-6.8602,35.1513c-0.1987,1.0173-0.1586,2.0814-0.2728,3.7639
		c11.0547-2.7934,20.6114-6.966,26.9766-16.3784c5.7729-8.5365,9.0718-18.1094,11.2437-28.1085
		c0.2302-1.0599,0.2092-2.1969,0.5745-3.2c0.6721-1.8461,2.3843-2.4821,3.9752-1.8947c1.0891,0.402,2.4771,1.8108,2.5573,2.8593
		c1.4692,19.2159-3.2587,36.6937-15.3688,51.8664c-2.2291,2.793-5.0925,5.1758-7.9771,7.3268
		c-4.2886,3.1979-9.1086,3.5692-13.8322,0.9688c-3.3144-1.8248-6.3943-4.0751-10.2268-6.5544
		c-0.6285,2.057-1.2951,3.9943-1.8132,5.9703c-9.8295,37.4802-22.4077,73.9726-40.6296,108.2541
		c-16.5798,31.1921-38.4308,58.5031-63.8068,82.9966c-7.6026,7.3381-16.2379,13.3999-25.4377,18.5845
		c-14.8822,8.387-30.2043,15.7756-46.4365,21.314c-10.2206,3.4872-19.5323,2.9636-28.4217-3.3253
		c-2.5127-1.7778-5.256-3.2347-7.7298-5.0607C586.8032,906.9359,585.7587,905.4605,584.1691,903.7731z"/>
	<path class="st0" d="M432.9367,244.6129c0.1747,32.0668-10.6199,60.3586-29.8022,85.7005
		c-6.6836,8.8297-13.3538,17.7345-22.0537,24.7164c-4.929,3.9557-10.2485,7.4662-15.6036,10.8419
		c-18.2522,11.5056-37.0479,22.0663-55.875,32.6108c-15.3518,8.5982-28.8442,20.0799-42.1482,31.6187
		c-4.852,4.2083-8.6206,9.2724-11.6807,14.9115c-4.5859,8.4509-9.2356,16.8676-13.9151,25.2671
		c-5.4332,9.7522-7.4087,19.8745-4.2115,30.8714c1.9253,6.6222,0.0154,12.9456-2.9355,18.9139
		c-1.4388,2.9101-3.1438,5.7094-4.944,8.4154c-3.3494,5.0347-6.8767,4.9777-11.4743,1.1079
		c-5.4772-4.6103-7.4978-10.8898-10.071-17.0878c-3.3842-8.1513-5.3398-16.4873-5.5105-25.3369
		c-0.2089-10.8273,2.5638-21.0142,7.5379-30.3192c8.1144-15.1796,16.8624-30.0381,25.8218-44.7404
		c4.0576-6.6586,9.7065-12.1971,16.089-16.8245c15.1267-10.9669,30.4233-21.6825,47.4259-29.6303
		c16.5895-7.7546,33.1409-15.6055,49.9009-22.9779c30.9109-13.5972,52.0588-36.6394,66.2709-66.7896
		c5.9375-12.5961,9.1916-25.9095,11.9872-39.4108c0.2934-1.4171,0.4463-2.918,1.0526-4.1958
		c0.3819-0.805,1.5126-1.7702,2.2597-1.732c0.6607,0.0339,1.7586,1.3334,1.7946,2.1143
		C433.0354,236.6356,432.9367,240.6265,432.9367,244.6129z"/>
	<path class="st0" d="M311.4238,1002.1166c-6.4352-1.6461-12.8524-3.3668-19.3087-4.9253
		c-27.463-6.6288-48.8252-22.8251-66.4395-43.9676c-13.092-15.7144-21.0218-34.0303-22.9227-54.8578
		c-1.2494-13.6892-0.0518-27.157,1.7687-40.5784c2.9667-21.8713,6.9637-43.6035,9.8858-65.4799
		c4.5957-34.4064,2.7692-68.3689-9.1773-101.3062c-1.9657-5.4197-4.6238-10.6307-7.3973-15.7
		c-1.8817-3.4391-4.1527-6.9156-8.8241-7.2028c-0.2783-0.0172-0.6011-0.4107-0.7756-0.7049
		c-0.1717-0.2896-0.181-0.6754-0.3652-1.4608c2.6104-1.8571,5.4221-1.4178,7.8464,0.1754c2.3779,1.5627,4.6055,3.5372,6.4336,5.7206
		c6.8596,8.1922,10.9619,17.9033,14.5452,27.8171c7.7073,21.3233,11.4978,43.3118,11.727,66.0314
		c0.2311,22.91-2.5256,45.5147-5.3824,68.1586c-1.6295,12.9158-2.3746,25.9412-3.8696,38.8766
		c-1.4594,12.6272,0.0124,24.9144,3.4379,37.0239c4.0071,14.1652,11.7434,26.1768,22.6145,35.9184
		c7.9485,7.1226,16.6544,13.3987,25.0061,20.0729c13.4506,10.749,26.8999,21.4996,40.3,32.3112
		c0.8422,0.6796,1.2536,1.8933,1.8654,2.8586C312.0692,1001.3039,311.7466,1001.7103,311.4238,1002.1166z"/>
	<path class="st0" d="M840.656,770.2988c0,0.8718,0.1886,1.7939-0.0285,2.6079c-2.9377,11.0135-5.5854,22.1204-8.9893,32.99
		c-5.7403,18.3306-14.2939,35.2587-27.004,49.8514c-7.3015,8.3831-16.0293,15.1981-24.7138,22.0563
		c-11.6607,9.2083-23.8168,17.8862-34.7573,27.8887c-20.2528,18.5162-33.5043,41.2902-37.3417,68.8218
		c-1.2695,9.1077-1.9305,18.3648-1.9788,27.5584c-0.0406,7.7379,1.4681,15.4706,1.8295,23.2271
		c0.5228,11.2183,0.6354,22.4558,0.8995,33.6857c0.0202,0.8575-0.1461,1.7197-0.2247,2.5692
		c-2.2968,0.7025-2.6544-0.989-3.2725-2.1642c-9.1068-17.3163-15.669-35.1506-15.9342-55.2506
		c-0.4648-35.2258,9.0172-66.8735,31.0451-94.5071c9.118-11.4384,20.2975-20.6678,32.3445-28.8809
		c8.9919-6.1302,17.8955-12.3926,26.9561-18.4192c23.5731-15.6796,39.0424-37.4033,48.1929-63.9468
		c2.7748-8.0497,5.7525-16.0312,8.768-23.9946c0.6417-1.6945,1.8525-3.1734,2.8011-4.7516
		C839.7173,769.8598,840.1866,770.0793,840.656,770.2988z"/>
	<path class="st0" d="M398.963,1036.2771c-0.596-2.3857-1.2743-4.7545-1.7747-7.1603
		c-3.3914-16.3041-6.5162-32.6675-10.1772-48.9105c-3.5159-15.5994-12.0056-28.6628-22.354-40.5479
		c-10.2351-11.755-20.7692-23.2492-31.0581-34.9579c-16.0216-18.2327-28.3293-38.515-33.8251-62.4554
		c-0.7671-3.3417-1.3058-6.7393-1.847-10.1276c-0.1681-1.0525-0.1082-2.1755,0.0442-3.238c0.3272-2.28,1.7744-3.4487,4.0207-3.7509
		c2.5056-0.3371,3.6021,1.1273,4.3086,3.2094c1.8586,5.4774,3.6032,10.9992,5.6511,16.4056
		c6.0823,16.0574,15.8047,29.7584,27.9644,41.709c13.0658,12.8411,26.651,25.1592,39.5687,38.1441
		c13.4549,13.5247,23.8041,29.1597,29.8144,47.4804c4.0142,12.2363,4.5389,24.5889,1.1187,36.9167
		c-2.268,8.1747-5.4037,16.1108-8.2321,24.1252c-0.3984,1.129-1.2581,2.0952-1.9042,3.1368
		C399.8418,1036.2631,399.4024,1036.2701,398.963,1036.2771z"/>
	<path class="st0" d="M239.8241,375.0203c-3.141-6.4997-5.2659-13.4624-6.1197-20.5549
		c-3.2607-27.0887,3.1844-51.3079,22.0826-71.7201c9.7662-10.5487,21.647-17.4558,35.1578-21.8706
		c3.9654-1.2958,7.9154-2.6401,11.8602-3.9977c13.2016-4.5431,22.0017-13.5365,27.032-26.4783
		c4.2287-10.8796,6.5636-22.2,8.3892-33.6683c0.9667-6.0727,1.9481-12.1508,3.2213-18.1632
		c0.5548-2.6198,1.4562-5.3582,2.9491-7.5273c1.2221-1.7756,3.3743-3.323,5.4356-4.0173c3.5387-1.1919,4.6866,0.1629,4.559,4.4785
		c-3.8459,0.061-5.2467,0.9781-5.9209,5.0601c-0.7346,4.448-1.1069,8.9784-1.3075,13.4876
		c-0.5557,12.4947-1.2354,24.999-4.6082,37.0936c-1.9399,6.9566-4.3873,13.8407-7.3328,20.4328
		c-5.1922,11.62-14.1415,19.5034-25.9478,24.2639c-7.8933,3.1828-15.9034,6.1868-23.4752,10.0312
		c-12.7632,6.4801-22.4939,16.4222-29.8146,28.6642c-4.7543,7.9504-6.5961,16.7846-7.3303,25.9285
		c-0.5347,6.6599-0.8778,13.3801-2.0934,19.9274c-1.1769,6.3392-3.3596,12.4917-5.1005,18.7261
		C240.9147,375.0844,240.3694,375.0524,239.8241,375.0203z"/>
	<path class="st0" d="M504.8094,752.1253c0.7768,5.8976,1.3451,11.8317,2.3685,17.6861
		c3.418,19.5529,19.8395,35.8523,39.1649,38.6192c13.4753,1.9294,25.3673-2.1293,34.6385-11.9603
		c11.3814-12.0685,19.674-25.9935,22.0861-42.8322c0.4095-2.8591,0.8806-5.7522,1.7627-8.4877
		c0.7516-2.3305,2.136-4.4569,3.4064-7.0066c-1.817,0.542-3.8002,1.1141-5.7713,1.7249c-9.8717,3.0587-19.703,6.2544-29.6191,9.1609
		c-12.8116,3.7553-26.1371,4.077-39.2963,5.4387c-5.9493,0.6157-11.9357,1.0621-17.9128,1.1697
		c-6.5468,0.1179-11.8721-5.8911-11.4411-12.4559c0.1611-2.4543,1.2559-4.126,3.9499-4.3109
		c2.8933-0.1984,5.7824-0.5436,8.6781-0.6074c12.6646-0.2792,25.345-0.1887,37.9915-0.8088
		c8.6707-0.4252,17.3027-1.7328,25.9376-2.7659c9.903-1.1848,19.7825-2.5698,29.6926-3.6874
		c1.4431-0.1627,3.6368,0.1962,4.3627,1.1587c1.2817,1.6998-0.1256,3.329-1.6657,4.5011c-0.4241,0.3227-0.8194,0.6835-1.5094,1.2635
		c1.1321,0.2087,2.0031,0.2763,2.8134,0.5341c4.5073,1.434,6.0187,3.4794,5.0556,8.0828
		c-3.2232,15.4059-8.311,30.0542-18.525,42.4174c-6.1294,7.4191-12.2831,14.8113-20.7654,19.7948
		c-14.6895,8.6303-30.0139,9.9928-45.9796,4.1577c-5.1888-1.8964-9.7498-4.8577-13.5346-8.8923
		c-10.9645-11.6885-17.8766-25.0336-16.9384-41.6013c0.1939-3.4257,0.0281-6.8718,0.0281-10.3085
		C504.1279,752.115,504.4686,752.1202,504.8094,752.1253z"/>
	<path class="st0" d="M905.8623,600.9646c0-2.6564-0.0226-5.313,0.004-7.9692c0.111-11.0698,0.3292-22.1393,0.3306-33.2089
		c0.0013-10.6761,0.3112-21.3896-0.4453-32.0205c-1.6115-22.6465-4.6574-45.0307-14.6585-65.8888
		c-7.343-15.3147-17.8796-28.0788-30.2958-39.431c-8.4288-7.7065-17.1505-15.1042-25.3647-23.0301
		c-6.6346-6.4016-10.4835-14.3242-9.8111-23.8625c0.1677-2.3796,0.8547-4.7227,1.3032-7.0825
		c0.4211,0.0337,0.8423,0.0674,1.2634,0.1011c0.0952,1.6704,0.337,3.3475,0.2612,5.0101
		c-0.4143,9.0851,3.4462,16.2599,10.2437,21.8091c8.4247,6.8776,17.1562,13.3789,25.7366,20.0666
		c16.6992,13.0157,30.266,28.5936,39.335,47.8952c6.8477,14.5741,10.5984,30.0067,13.0002,45.8284
		c2.3961,15.7839,3.7347,31.6525,3.2284,47.6238c-0.5029,15.864-5.5551,30.4433-12.6749,44.387
		C906.8331,601.1166,906.3477,601.0405,905.8623,600.9646z"/>
	<path class="st0" d="M373.7869,488.1032c-6.0478-6.4439-8.1706-13.1915-6.8396-20.6761
		c2.1964-12.3512,8.4986-22.6322,17.4772-31.2437c4.4258-4.2448,9.8573-6.8023,15.9901-7.4343
		c5.5677-0.5737,11.1718-0.7952,16.7594-1.1777c12.2414-0.8378,27.1628,8.4196,29.8073,22.0867
		c0.4813,2.4872,1.2505,4.9299,1.5751,7.4336c0.4479,3.4537-0.167,4.3419-3.5781,4.5843
		c-9.3762,0.6662-18.6656,1.1435-27.8789-2.0883c-10.3012-3.6134-19.5465-1.2152-27.4514,6.5152
		c-4.8295,4.7229-9.346,9.5428-11.8087,16.0233C377.1072,484.0525,375.493,485.6434,373.7869,488.1032z"/>
	<path class="st0" d="M710.5215,488.2407c-1.5792-3.4175-2.8817-5.7633-3.7742-8.256c-2.7116-7.5739-7.6406-13.5775-13.4745-18.8269
		c-6.7334-6.0586-14.8306-7.5501-23.4155-5.2477c-9.2645,2.4846-18.3765,0.9547-27.5222-0.2776
		c-3.2992-0.4445-3.998-1.6124-3.3817-4.8747c3.4664-18.3465,17.2632-28.8686,34.9336-26.6011
		c5.0229,0.6446,10.0345,1.4226,15.0165,2.33c6.4785,1.18,11.9359,4.3802,16.1986,9.3399
		c7.8724,9.1593,13.0405,19.6678,14.2689,31.7738C720.1626,475.4013,717.5098,482.0648,710.5215,488.2407z"/>
	<path class="st0" d="M559.4224,154.2663c0.2449,1.7344,0.4573,3.239,0.701,4.9649c-5.0208-2.0057-6.4196-6.3537-3.104-9.6497
		c1.8614-1.8505,4.3547-3.3551,6.8395-4.2391c11.3763-4.0476,22.7776-3.9598,33.9236,0.905
		c6.8171,2.9754,11.2034,8.3457,14.1705,15.0918c3.9055,8.8798,5.6194,18.3147,7.4053,27.7386
		c2.3081,12.1807,5.5677,24.0745,11.9416,34.8007c11.1985,18.8451,28.0964,29.8636,49.1993,34.7604
		c8.8229,2.0473,17.7021,3.8515,26.5496,5.7944c1.5444,0.3392,3.0579,0.8188,4.976,1.3395
		c-0.5607,0.9143-0.7712,1.7245-1.2802,2.019c-10.3652,5.9977-21.0894,9.2348-33.2446,5.7319
		c-33.9419-9.7812-55.5586-31.625-64.4165-65.7366c-2.5833-9.9478-3.6121-20.29-5.6857-30.3832
		c-1.0508-5.1149-2.5137-10.2075-4.4312-15.0567c-1.0143-2.5653-3.0359-5.0554-5.233-6.7734
		C588.7789,148.5716,569.0886,146.7434,559.4224,154.2663z"/>
	<path class="st0" d="M446.1429,30.7649c4.4287-4.599,8.2233-8.9473,12.4469-12.8287c6.1065-5.6117,13.8132-6.1262,21.5248-5.3965
		c5.7614,0.5451,9.191,5.1864,7.7726,10.6987c-1.2471,4.8466-3.2127,9.5953-5.4971,14.062
		c-2.05,4.0084-4.9688,7.5721-7.4989,11.3356c-4.1449,6.1655-8.273,12.3424-12.4372,18.4949
		c-0.9115,1.3468-1.7983,2.7626-2.9537,3.8807c-2.1203,2.0519-4.149,2.1068-6.0878-0.0898
		c-1.7627-1.9971-3.6694-4.1995-4.4605-6.651c-1.5358-4.759-5.003-7.0843-9.2535-8.3305
		c-8.402-2.4633-14.1017-7.7578-17.5622-15.6274c-0.9464-2.1521-1.6976-4.4002-2.3979-6.6479
		c-1.4015-4.4981-0.672-5.345,3.8221-5.9193C431.62,26.7157,439.3977,27.4926,446.1429,30.7649z"/>
	<path class="st0" d="M442.7201,199.0846c-3.4002-1.1518-4.7762-3.7879-6.3398-6.1579c-4.7645-7.2213-7.8006-15.0802-8.6575-23.7507
		c-0.3202-3.2398-1.182-6.4418-1.3154-9.6809c-0.2483-6.0295-3.1437-10.546-7.5776-14.2034
		c-3.679-3.0348-5.3423-7.2743-7.1442-11.3896c-1.5033-3.4335,0.1732-6.3112,2.7244-8.6701
		c-3.3184-5.1722-7.4988-9.8198-7.2796-16.2269c0.2072-6.0583,2.7955-11.0734,8.9083-14.9474
		c-5.0772-2.4131-9.3677-4.2469-13.4557-6.4556c-3.7588-2.0308-8.968-2.1105-10.9209-7.8058
		c1.4517-0.308,2.7032-0.9945,3.6791-0.7159c10.2778,2.9346,20.7361,5.3939,30.2073,10.6215
		c4.5677,2.5211,5.1733,3.8158,3.1042,8.7115c-1.1003,2.6033-2.9068,4.9187-4.485,7.3043
		c-0.6651,1.0054-1.5636,1.8563-2.7691,3.2577c1.5477,0.9043,2.6773,1.6551,3.8858,2.2441
		c1.1326,0.5521,2.3792,0.8675,3.5231,1.3997c8.3874,3.9022,9.4595,6.5488,6.3091,15.4268
		c-0.3601,1.0148-0.7059,2.0346-1.1639,3.3567c2.9122,1.7972,5.1907,3.976,4.006,7.843c-0.18,0.5875,0.183,1.4146,0.4619,2.0585
		c4.2988,9.9228,5.5305,20.6279,7.4423,31.0879C447.4981,181.3393,446.36,190.3687,442.7201,199.0846z"/>
	<path class="st0" d="M494.3667,92.1957c-9.3011,8.2478-21.075,12.9944-31.7472,21.5451c3.742-0.554,6.2771-1.1151,8.8356-1.2588
		c2.874-0.1614,5.8368-0.3192,8.6404,0.1877c4.9563,0.8961,6.584,3.8087,5.1513,8.7371c-1.0799,3.7148-3.1032,6.9286-6.093,9.4631
		c-1.5197,1.2883-3.0451,2.5707-4.591,3.8273c-1.3862,1.1267-2.804,2.2145-4.2851,3.3803
		c2.4219,6.2643,0.5688,12.3139-0.5097,18.306c-0.7937,4.41-0.8515,8.5812,0.8295,12.7581
		c1.6286,4.0467,0.8634,7.7249-2.2548,11.8134c-1.4979-1.5025-3.0131-2.6368-4.0349-4.1127
		c-4.8548-7.0123-5.1093-14.85-3.7845-22.9145c0.261-1.5888,0.5935-3.1658,0.7602-4.0465c-2.3867-2.4575-4.7085-4.2054-6.1745-6.5
		c-2.5476-3.9873-2.0507-6.4751,1.6169-9.477c3.3599-2.75,7.0082-5.1457,10.4986-7.7392c1.2426-0.9234,2.3944-1.969,3.5878-2.9588
		c-0.1642-0.3497-0.3283-0.6995-0.4925-1.0492c-4.3257,1.0648-8.6548,2.1159-12.9754,3.201c-1.7521,0.44-3.46,1.1207-5.2339,1.3941
		c-2.5475,0.3926-3.8908-1.2354-5.0556-3.2773c-1.128-1.9775-1.3916-3.7982,0.321-5.4264c2.3558-2.2399,4.5686-4.8268,7.3333-6.406
		c11.9489-6.8253,24.0692-13.3513,36.155-19.9349c0.8671-0.4723,1.9586-0.5329,2.9457-0.7849
		C493.9955,91.3471,494.1811,91.7714,494.3667,92.1957z"/>
	<path class="st0" d="M524.8912,668.3682c-0.394-0.0781-1.1273-0.147-1.8098-0.3709c-5.2611-1.7259-11.8691-11.3668-11.2978-16.7704
		c0.1345-1.2717,0.9626-3.2471,1.8427-3.4769c1.2546-0.3276,3.3391,0.2132,4.209,1.1673c2.3496,2.5765,5.1698,3.8293,8.4534,4.4729
		c1.0484,0.2055,2.08,0.6422,3.0398,1.1296c4.2595,2.1636,6.0468,4.7057,5.2141,7.2861
		C533.5581,664.8576,528.4142,668.4832,524.8912,668.3682z"/>
</g>
</svg>
