<?xml version="1.0" encoding="utf-8"?>
<!-- Generator: Adobe Illustrator 24.3.0, SVG Export Plug-In . SVG Version: 6.00 Build 0)  -->
<svg version="1.1" id="Layer_1" xmlns="http://www.w3.org/2000/svg" xmlns:xlink="http://www.w3.org/1999/xlink" x="0px" y="0px"
	 viewBox="0 0 800.5186 1082.1239" style="enable-background:new 0 0 800.5186 1082.1239;" xml:space="preserve">
<style type="text/css">
	.st0{fill:#FFFFFF;}
</style>
<g>
	<path class="st0" d="M730.2338,200.0839c-0.7957,2.3916-1.6309,4.7709-2.3766,7.178c-0.8052,2.5996-1.4072,5.267-2.3077,7.8312
		c-2.4564,6.9959-6.2559,8.6646-13.4179,6.1015c2.5363-24.5978,2.0334-48.9268-6.9136-72.3421
		c-6.3292-16.5644-15.1896-31.6742-27.0815-45.0106c-15.4387-17.3139-32.6976-32.4752-51.7714-45.6405
		c-16.1644-11.1572-33.7762-19.0452-52.7637-23.9647c-19.0511-4.9361-38.3577-8.1353-58.0705-8.3753
		c-23.2471-0.283-46.0337,3.0395-68.0786,10.3428c-14.403,4.7716-28.6842,9.9857-42.7819,15.608
		c-18.841,7.514-36.3352,18.0465-51.8766,31.0814c-18.9633,15.9049-36.1401,33.567-51.1135,53.2514
		c-16.5822,21.7992-27.142,46.6878-35.5983,72.5223c-10.8362,33.1054-17.7497,67.0188-20.076,101.7962
		c-0.9934,14.8515-1.533,29.7356-2.1184,44.6112c-0.235,5.9728-0.0387,11.9626-0.0387,18.5101
		c0.8973,0.6978,2.4137,1.8771,4.1763,3.2478c-0.7354,1.1487-1.1216,2.218-1.8756,2.8451
		c-2.5571,2.1264-4.8423,4.3379-5.2088,7.9118c-0.0683,0.666-0.4672,1.5108-0.9908,1.8853
		c-6.8311,4.8854-5.271,12.4531-6.747,18.8199c0.7988,0.6081,1.0488,0.93,1.3646,1.0197c7.541,2.1407,7.7215,2.4658,5.8479,10.1822
		c-0.5995,2.4691-1.1918,4.9442-1.6558,7.441c-1.0508,5.654-0.6394,6.1158,4.7762,7.5349c2.4243,0.6353,4.9179,1.4229,7.0366,2.7078
		c3.0338,1.8397,3.5867,4.5025,0.9569,6.7497c-5.3724,4.5907-5.7835,11.0016-7.6925,17.2289
		c2.176,0.9481,4.1759,1.6991,6.0617,2.6714c2.3732,1.2235,3.2053,2.9738,2.455,5.835c-0.8479,3.2332-0.9713,6.6564-1.4495,10.3004
		c2.813,0.6008,4.9,1.001,6.9642,1.4962c5.9109,1.4181,7.5002,3.1312,8.4596,9.0694c0.2316,1.4336,0.3193,2.8925,0.5912,4.3171
		c0.8153,4.2712,2.4443,7.957,6.8356,9.7971c2.5763,1.0795,3.8169,3.1691,4.0106,5.9799c0.2419,3.5108,1.1519,6.6224,4.3549,8.8531
		c1.1811,0.8225,1.745,2.7155,2.297,4.2273c3.6066,9.8793,9.1974,18.529,16.351,26.153
		c6.5839,7.0167,13.4438,13.7741,20.0442,20.7758c4.4896,4.7624,9.6411,8.0261,16.6934,8.4362
		c-0.1849-1.1967-0.3188-2.3923-0.5587-3.566c-3.2546-15.921-5.0974-31.9231-2.5203-48.1371
		c0.4535-2.8533,1.3132-5.6503,2.1046-8.4394c1.1102-3.9124,3.9196-6.0372,7.7836-6.7253c1.9508-0.3474,3.98-0.4467,5.9644-0.3801
		c7.4477,0.2501,9.3553,2.118,10.4936,9.5338c2.3399,15.2437,4.39,30.5455,7.2528,45.6923
		c4.3408,22.9669,14.9987,43.0484,29.4555,61.2441c22.3715,28.1577,49.1991,51.2023,79.4222,70.6017
		c17.9927,11.549,37.0719,20.6907,56.8947,28.4038c14.1117,5.4908,28.9267,8.28,43.8781,10.3406
		c10.2371,1.4108,20.4749,2.8247,30.7342,4.0559c1.4164,0.17,3.1922-0.3577,4.3935-1.1678c2.5486-1.7186,4.866-3.7919,7.2122-5.7969
		c36.0978-30.8487,64.6417-67.5563,85.9172-110.0245c21.7856-43.4865,35.803-89.33,42.8394-137.4008
		c2.8415-19.4122,4.1496-39.0201,4.1978-58.6392c0.0431-17.5312,0.4177-35.0616,0.6401-52.5925
		c0.0244-1.9202,0.0034-3.841,0.0034-6.8918c-12.8504,10.9521-26.4235,7.0409-40.6262,4.786
		c-7.9183-0.5458-29.7604,0.7061-32.818,1.6585c-3.6381,1.1332-6.8807,2.6689-9.8542,4.9284
		c-4.8119,3.6564-10.1164,3.7259-15.5212,1.9772c-3.6882-1.1933-4.5508-3.6905-2.0106-6.6414
		c2.0707-2.4053,4.7747-4.5033,7.5928-5.9881c16.6378-8.7664,34.255-11.7519,52.7471-7.748c3.8636,0.8365,6.6395,0.174,9.2473-2.592
		c1.9905-2.1112,4.1942-4.0201,6.2769-6.0458c2.7751-2.699,6.1017-3.2708,9.7084-2.2986c3.0823,0.8309,4.142,3.5498,2.4379,6.2492
		c-1.8586,2.944-4.403,5.479-6.9353,8.5655c7.5446-1.5446,11.5255-9.1628,19.3855-9.9914c0-1.704,0.0112-3.2991-0.002-4.8939
		c-0.0571-6.9006-0.2504-13.8032-0.1346-20.7008c0.0695-4.132,1.5079-5.4168,5.5688-5.9193
		c6.3681-0.7879,9.5024,0.8837,10.6523,7.1664c2.0552,11.2285,4.4377,22.5316,4.9489,33.8817
		c1.2905,28.6573,2.2463,57.3592,2.1854,86.0408c-0.0968,45.6422-10.7617,89.2133-28.1002,131.2568
		c-11.9349,28.9402-25.8647,56.8594-43.3792,82.8632c-21.701,32.2196-47.4352,60.5894-79.9096,82.3845
		c-5.1384,3.4487-10.3376,6.916-16.7386,7.4041c-2.67,0.2036-5.4252-0.0405-8.0787-0.4702c-2.8594-0.463-3.9566-2.2846-2.6127-5.216
		c-10.7401-1.4598-21.3131-2.9553-31.9024-4.3258c-38.9036-5.0351-74.9551-18.0587-108.6921-38.0023
		c-27.0449-15.9876-51.8536-34.7562-73.9491-57.0916c-13.2121-13.3556-25.0477-27.8124-34.1108-44.3287
		c-3.6516-6.6547-6.5631-13.7155-9.9669-20.9203c-7.4566,5.0493-15.9115,5.4877-24.6433,3.4869
		c-8.5311-1.9547-15.0468-7.5116-21.8434-13.2076c-0.9792,6.9252-1.6202,13.1799-2.7901,19.3342
		c-1.8066,9.5038-5.153,18.5297-9.5657,27.1349c-5.7592,11.231-12.9984,21.0005-26.1053,24.9323
		c2.2869,6.9944,5.3561,13.1844,9.377,18.74c7.6579,10.5809,15.5109,21.038,23.6833,31.2253
		c13.8607,17.2778,28.4096,34.0144,41.9604,51.527c12.1231,15.6677,22.4658,32.5524,30.7791,50.6364
		c14.1446,30.7687,17.1199,62.7878,11.0095,95.8201c-3.5395,19.1345-8.4723,37.9131-15.9281,55.942
		c-2.8494,6.8902-6.1359,13.5459-11.1217,19.2512c-4.7237,5.4052-10.5957,6.6061-17.2807,5.2336
		c-2.1465-0.4406-4.2487-1.0899-5.1898-3.8413c8.8545-11.7269,12.4839-25.8239,16.2722-39.8024
		c5.1885-19.1452,8.7978-38.5981,9.5952-58.4628c1.1657-29.0399-5.9158-56.1177-19.8275-81.5281
		c-12.5301-22.8869-28.0551-43.6539-44.7179-63.6345c-11.0495-13.2495-22.2263-26.4012-32.9501-39.911
		c-9.5034-11.9722-17.7253-24.7621-23.2378-39.206c-7.6392-20.0164-8.3149-40.4053-3.8611-61.0773
		c2.0226-9.3875,4.5439-18.6879,7.2893-27.8935c2.4533-8.2264,6.8099-15.5916,11.523-22.7586
		c3.4138-5.1913,7.2938-9.1472,14.7428-7.5909c-1.776-6.034-3.3751-11.467-5.0744-17.241c-0.9678-0.529-2.2411-1.203-3.4936-1.9137
		c-4.5547-2.5845-8.2736-5.9908-9.9349-11.0937c-0.6477-1.9893-1.7546-2.9945-3.6851-3.495
		c-5.2561-1.3627-8.8872-4.8431-11.4364-9.4317c-0.9791-1.7624-2.2428-2.5547-4.0602-3.1739
		c-7.8824-2.6857-9.8255-5.3875-9.6415-13.6037c0.0727-3.2484,0.5161-6.5102,1.0614-9.72c0.5152-3.0322,1.3855-6.004,2.1527-9.2255
		c-0.0268-0.0918-0.0164-0.5597-0.242-0.7551c-4.4497-3.8535-5.6499-8.6069-4.3434-14.2694
		c0.335-1.4517,0.2208-3.3234-0.4295-4.6336c-3.6366-7.3268-4.0843-15.0653-2.7908-22.8665
		c0.5909-3.5634-0.3371-5.7945-2.8864-8.0621c-7.6419-6.7972-15.5441-13.141-25.3942-16.5063
		c-13.7473-4.6968-27.3239-2.9396-40.5477,1.8232c-19.4736,7.0137-35.7468,19.0187-50.5353,33.3171
		c-16.4735,15.9275-24.9472,35.7798-29.5338,57.7419c-6.5554,31.389-4.318,62.5054,2.825,93.443
		c5.6029,24.267,13.3912,47.8909,21.7624,71.321c6.9676,19.5015,13.7424,39.0546,17.4055,59.5137
		c5.9767,33.3807,7.4869,66.7956-0.5849,100.0443c-6.5668,27.049-16.8999,52.526-33.9584,74.8479
		c-7.0416,9.2144-15.6049,16.6694-26.4073,21.341c-5.23,2.2618-10.5037,2.7205-15.9281,1.0895
		c-1.3598-0.4089-2.7323-1.0458-3.8584-1.8963c-1.5406-1.1637-1.7191-2.7233-0.2889-4.2071
		c0.499-0.5178,1.0834-0.9799,1.6968-1.3566c10.8747-6.6785,18.2502-16.5173,24.355-27.384
		c14.2343-25.3371,22.8139-52.5589,26.1581-81.382c4.2468-36.6021-1.6481-72.122-13.0216-106.7595
		c-6.2783-19.1204-14.2757-37.6705-21.2219-56.5792c-8.0149-21.8181-15.4918-43.8156-19.7764-66.7504
		c-5.8236-31.1727-5.6248-62.0859,3.5406-92.7093c5.1103-17.0745,13.8559-31.8708,26.5397-44.3717
		c19.1925-18.9157,41.284-33.2424,67.0879-41.2652c20.3886-6.3391,41.2769-8.27,62.4174-4.224
		c13.8757,2.6556,26.294,8.2408,35.6489,19.3552c0.3217,0.3822,0.8659,0.5771,1.306,0.8591
		c3.2464-1.6281,2.6887-4.5182,2.4417-7.1702c-0.8757-9.4002-2.0162-18.778-2.7577-28.1879
		c-1.0554-13.3933-2.4838-26.8003-2.6322-40.2139c-0.4556-41.1635,8.1233-80.7355,22.0099-119.3236
		c12.3116-34.2112,31.1708-64.1796,56.7283-90.0592c17.7949-18.0192,36.4829-34.8666,58.1516-48.1848
		c13.1986-8.1123,27.1275-14.6427,41.6469-20.0002c21.978-8.1097,44.047-15.8759,67.0941-20.5027
		C506.685,5.0716,558.5096,9.1805,609.3005,27.2114c15.5051,5.5044,29.8419,13.3098,43.1665,22.8923
		c20.1276,14.4748,38.7916,30.6185,54.3115,50.0767c15.5529,19.4997,25.0545,41.5468,26.7759,66.6361
		c0.6647,9.6879-0.8953,19.1926-2.8414,28.6445c-0.3268,1.5873-0.4373,3.2193-0.6477,4.8306L730.2338,200.0839z M250.5864,636.2862
		c4.8173-3.9797,7.6051-8.6503,10.1121-13.4392c8.6888-16.5978,13.769-34.2469,15.1143-52.965
		c0.2423-3.3715,0.8906-6.7137,1.3395-9.9823c-3.3833-6.1428-6.7278-12.5611-10.4422-18.7578
		c-1.1866-1.9794-3.3535-3.3712-5.418-5.3663c-0.8578,2.0214-1.3674,3.1655-1.8326,4.3272
		c-9.0324,22.5563-12.1011,46.2164-12.6859,70.2751C246.5668,618.884,247.5786,627.3469,250.5864,636.2862z"/>
	<path class="st0" d="M167.8214,980.9895c7.6828-11.8438,9.5972-25.2532,12.3499-38.3624
		c6.2854-29.9335,10.3185-60.1069,9.2902-90.8049c-0.8916-26.6166-5.121-52.7623-11.5342-78.5266
		c-8.0211-32.2244-16.6079-64.3079-24.9415-96.4545c-6.3028-24.3129-9.9823-49.0753-12.5308-74.0205
		c-1.4023-13.7259-2.7575-27.4603-3.8432-41.2138c-1.2209-15.4656-1.0437-30.8688,3.9051-45.8292
		c4.3618-13.1857,11.174-24.785,21.9854-33.7836c9.9364-8.2704,21.307-12.2597,34.2542-11.3461
		c3.5608,0.2513,7.306,0.401,9.7494,3.8527c-0.8096,3.0728-3.4769,3.2929-5.6468,3.2486
		c-8.5233-0.174-14.3308,4.567-19.4912,10.4063c-9.5443,10.7997-14.5764,23.6953-17.0014,37.7319
		c-2.066,11.9587-1.2014,23.9379,0.2964,35.8308c3.947,31.3401,8.0051,62.7041,15.1463,93.4942
		c4.8751,21.0198,11.0911,41.7335,16.8921,62.5327c7.1706,25.71,14.0713,51.4586,18.177,77.8974
		c5.9734,38.4664,5.4701,76.7354-3.1292,114.7397c-3.8017,16.8018-8.1821,33.4822-12.7118,50.1055
		c-2.1025,7.7159-5.3805,15.0713-11.0189,21.0461C183.0342,986.8154,172.9804,986.6987,167.8214,980.9895z"/>
	<path class="st0" d="M449.287,92.3077c8.3388-12.68,21.2841-16.9122,34.8855-19.2904c24.793-4.3352,48.8962-1.5186,71.7348,9.2956
		c6.6753,3.1608,13.1426,7.0955,18.9932,11.6002c16.5362,12.7323,30.4169,28.0235,41.4234,45.8042
		c3.8485,6.2172,6.7859,12.8593,6.9976,20.3707c0.13,4.6092-0.5912,5.8364-5.1918,6.7875
		c-2.9643,0.6128-6.1308,0.7263-9.1541,0.4621c-4.5215-0.3951-7.2476-2.7139-8.7917-7.4756
		c-1.8799-5.7973-4.4656-11.6073-7.9069-16.6138c-12.7492-18.548-28.2227-34.5833-46.6971-47.5397
		c-12.0114-8.4238-25.4618-13.0812-40.1442-13.8173c-9.1734-0.46-18.1458,0.8869-26.6097,4.5533
		c-3.0605,1.3258-5.7988,3.3954-8.6841,5.1257c0.1074,0.4046,0.2146,0.8092,0.322,1.2137c1.7177,0.2672,3.433,0.5506,5.1534,0.7992
		c17.1924,2.4847,33.703,7.1368,49.075,15.4162c7.4168,3.9947,14.0491,9.0073,19.7559,15.2202
		c2.2824,2.4848,4.1364,5.1143,2.6141,9.5126c-2.0888,0.1272-4.4603,0.2716-7.1071,0.4327c-0.659-4.5003-3.5628-6.6966-6.36-9.0187
		c-14.6365-12.1504-31.7434-18.7771-50.1643-22.4261c-23.0768-4.5713-45.4833-2.7074-67.102,7.0015
		c-12.8429,5.7677-23.4939,14.2969-32.5731,24.9547c-6.8617,8.0547-12.6199,16.8499-17.7676,26.0586
		c-17.07,30.5364-30.5524,62.6146-40.7814,96.0438c-1.9008,6.2118-3.0096,12.7092-3.9577,19.1522
		c-0.5336,3.6266-2.2318,5.5699-5.5053,6.5301c-4.821,1.4142-9.6598,1.3629-14.5069,0.1386
		c-3.8283-0.9669-5.6877-3.3715-5.9986-7.3705c-0.6146-7.9052,0.5325-15.6144,2.4832-23.1866
		c9.9266-38.5329,25.9953-74.2294,49.24-106.6485c24.116-33.6344,57.3739-50.1039,98.0756-52.862
		C446.3005,92.446,447.5664,92.3973,449.287,92.3077z"/>
	<path class="st0" d="M99.3011,1054.3179c3.3435-3.6445,6.9148-3.7495,10.5415-3.339c5.5063,0.6229,6.4343,0.3976,8.6887-4.7382
		c5.0608-11.5288,5.9926-23.4384,2.622-35.6307c-2.5347-9.1688-6.6472-17.6625-11.3941-25.8306
		c-5.9256-10.1964-11.8231-20.4324-18.2927-30.2838c-9.7855-14.9006-12.0663-30.7072-7.7999-47.8731
		c3.6312-14.6102,9.9966-27.9716,17.4434-40.9045c3.0783-5.3463,6.3207-10.5977,9.457-15.9107
		c8.7747-14.8646,14.5228-30.8052,17.0007-47.9078c0.26-1.7948,0.5924-3.5812,0.9522-5.3591
		c0.9253-4.573,2.2049-5.8114,6.2792-6.1646c4.7978-0.4161,8.6156,1.4166,9.7434,5.2081c0.8176,2.7488,1.206,5.6904,1.3384,8.5667
		c0.6889,14.9673-2.4278,29.261-8.4621,42.8721c-3.8943,8.784-8.3539,17.3176-12.5698,25.9588
		c-6.4721,13.2657-11.5852,26.9756-14.1813,41.5817c-2.1743,12.2328-0.5786,23.8,5.051,34.892
		c5.9113,11.647,11.8048,23.3084,17.4064,35.1057c4.9181,10.3577,8.8856,21.0934,9.9799,32.6334
		c0.9436,9.9505-0.6191,19.5351-4.857,28.6318c-7.3674,15.8147-25.1019,16.7303-35.7347,11.1667
		C101.4727,1056.4484,100.6598,1055.4684,99.3011,1054.3179z"/>
	<path class="st0" d="M489.1712,167.0579c4.9708,0.8817,10.0001,1.5296,14.8857,2.7518c2.1743,0.544,4.2585,2.0163,5.9868,3.5225
		c0.807,0.7033,1.2915,2.8644,0.796,3.6829c-0.5464,0.9024-2.3598,1.2495-3.6705,1.3945c-0.7357,0.0814-1.6257-0.6559-2.3519-1.1601
		c-3.9656-2.7535-8.2838-3.1859-12.9845-2.5468c-10.025,1.363-18.6536,5.7594-26.6036,11.7173
		c-10.6788,8.0029-19.7321,17.7037-28.2372,27.8818c-21.1162,25.2699-37.9412,53.1577-49.8319,83.8992
		c-2.3369,6.0417-3.6823,12.4934-5.1434,18.8347c-0.5938,2.5773-1.7198,4.3766-4.0406,5.3573
		c-7.5441,3.188-15.1623,3.2172-22.7854,0.2625c-2.5573-0.9912-4.4104-2.856-4.6375-5.58
		c-0.3276-3.9304-0.7888-7.9972-0.1541-11.8338c2.2744-13.7477,7.8598-26.3985,13.9955-38.776
		c16.4572-33.1994,39.5447-60.7286,70.4898-81.3716C452.0968,173.6121,470.6478,167.7929,489.1712,167.0579z"/>
	<path class="st0" d="M273.1231,1065.762c-0.9786,2.6949-3.1469,3.057-5.302,3.4067c-7.8316,1.2708-16.2822-2.7159-20.375-9.7357
		c-3.3526-5.7502-4.6168-12.1626-5.6623-18.6389c-2.855-17.6845-0.3943-34.7762,6.1638-51.2673
		c4.0197-10.108,8.2763-20.1661,13.1648-29.8749c8.692-17.2629,11.7909-35.3152,9.4231-54.4119
		c-0.5358-4.3209-0.6977-8.7016-1.4682-12.9761c-0.6909-3.833-1.9823-7.5578-3.0906-11.6309
		c3.283-2.6298,7.972-2.6324,11.3714,0.9644c1.9467,2.0599,3.6989,4.5956,4.6738,7.2363
		c8.3395,22.5919,11.2649,45.35,1.7511,68.4629c-4.9724,12.08-9.8997,24.191-14.3695,36.4621
		c-5.7117,15.6802-8.6396,31.8661-6.9247,48.6474c0.3317,3.246,0.7193,6.5044,1.3825,9.6943
		c1.0523,5.0612,2.5331,9.9296,8.0678,12.0891C272.4734,1064.402,272.7632,1065.2662,273.1231,1065.762z"/>
	<path class="st0" d="M730.0653,200.2915c12.1158-6.8161,24.0687-3.1539,31.8295,6.6584
		c9.7281,12.2998,13.054,26.5445,12.4417,41.7927c-0.514,12.8019-3.9915,24.9765-9.3611,36.6309
		c-5.5425,12.0293-14.2681,20.7871-26.2759,26.3137c0,0,0.1535-0.1236,0.1535-0.1236c-2.7209,0.028-5.4609,0.2655-8.157,0.0203
		c-2.3141-0.2104-4.7324-0.6273-6.8305-1.5658c-3.8718-1.7319-4.2607-4.4128-0.7027-6.8308
		c6.0601-4.1185,9.9261-10.0297,12.819-16.5831c8.6272-19.5435,10.8508-39.7638,5.9121-60.6263
		c-1.728-7.2998-4.6411-14.0791-9.3561-20.0648c-1.2379-1.5715-1.5637-3.8616-2.3061-5.8255
		C730.2338,200.0839,730.0653,200.2915,730.0653,200.2915z"/>
	<path class="st0" d="M472.7127,397.3009c-5.8901,5.7712-24.4159,12.5445-34.0851,12.5428c-2.7625,0-5.6053,0.0045-8.4481-0.0009
		c-6.4472-0.0122-12.6642-1.1233-18.374-4.235c-2.9963-1.6328-6.0197-3.3493-7.5383-6.8731
		c1.3644-3.2376,4.3055-3.7731,7.1305-4.1878c4.9957-0.7335,9.7251,0.1338,14.1261,2.7867c2.3607,1.423,4.9001,2.4826,7.6198-0.0507
		c-2.2856-1.408-4.4991-2.5909-6.5043-4.0584c-1.9414-1.4208-3.6776-3.2481-2.9194-5.9457
		c0.7704-2.7408,3.3879-3.4806,5.6492-3.4019c2.7837,0.0969,5.5779,0.9955,8.2793,1.8328c1.1471,0.3556,2.1123,1.3842,3.0861,2.1958
		c2.7954,2.33,5.5897,2.5086,9.0627,1.1325c5.8863-2.3323,11.9571-4.2487,18.0482-5.9999
		c5.8211-1.6736,11.7991-1.9331,17.7885-0.6873c5.3042,1.1033,9.9821,3.4316,13.5398,7.5368c0.897,1.0351,1.56,3.1427,1.1012,4.2464
		c-0.4908,1.1807-2.3414,2.0534-3.7734,2.5025c-1.1036,0.3461-2.508-0.0459-3.7241-0.3372
		c-1.4034-0.3362-2.8736-0.7093-4.0952-1.4357C482.9872,391.4768,478.0433,393.2532,472.7127,397.3009z"/>
	<path class="st0" d="M260.188,448.141c0.6366-11.2769,3.2767-21.6697,8.9857-31.2894c1.8371-3.0955,4.341-4.7013,7.8993-4.9143
		c6.4725-0.3874,9.193,1.7833,9.2555,8.2918c0.1576,16.4165,3.8272,31.9784,10.739,46.8217
		c0.2295,0.4929,0.4243,1.0021,0.6353,1.5037c5.5561,13.211,15.688,19.3569,29.8287,19.531
		c3.4162,0.0421,6.8464,0.508,10.2279,1.0453c1.3682,0.2174,2.7661,0.955,3.8987,1.7953c2.1666,1.6074,2.3609,4.012,0.0685,5.3673
		c-2.7465,1.6237-5.853,3.0958-8.9649,3.5665c-15.3417,2.3203-30.4032,0.797-44.9686-4.5886
		c-12.0195-4.4443-20.1935-12.7227-23.2838-25.3398C262.7494,462.7462,261.6079,455.4095,260.188,448.141z"/>
	<path class="st0" d="M738.6994,311.6872c1.7846-0.2724,3.6116-0.9323,5.3458-0.743c4.7753,0.5213,7.5742-1.9693,10.4075-5.3756
		c6.6517-7.9964,12.0228-16.7471,16.7974-25.9423c2.8472-5.4834,7.6589-7.3338,13.6481-5.7299
		c3.7941,1.0161,5.1652,2.5254,5.4128,6.4479c0.3383,5.3601-0.9821,10.4416-3.1203,15.2988
		c-3.6522,8.2964-9.1447,15.2653-16.3552,20.667c-8.927,6.6876-18.8904,7.7439-29.3651,4.1087
		c-1.3524-0.4694-2.6595-1.1816-3.8484-1.987c-2.7899-1.89-2.8622-3.1524-0.4512-5.5491c0.5023-0.4995,1.1182-0.8848,1.6819-1.321
		C738.8529,311.5636,738.6994,311.6872,738.6994,311.6872z"/>
	<path class="st0" d="M599.5421,636.6085c-5.2352-0.799-12.2471-1.6523-19.1544-3.0304c-2.7654-0.5519-5.4665-1.9924-7.8992-3.5067
		c-3.2198-2.0043-3.0524-4.3416,0.3129-6.1121c4.5546-2.3964,9.5994-2.7001,14.3256-1.2722
		c9.4202,2.8459,18.6562,1.6354,27.9925-0.0252c8.1452-1.4489,14.3592-5.9183,19.2869-12.2826
		c3.3953-4.3851,7.6633-5.115,12.6187-3.7177c4.6699,1.3168,6.2056,3.9833,4.8826,8.594
		c-1.3481,4.6983-4.1176,8.4003-8.1324,11.2304c-7.5157,5.2977-16.187,7.215-25.0276,8.4417
		C613.007,635.7241,607.189,635.9626,599.5421,636.6085z"/>
	<path class="st0" d="M313.9872,421.1032c-3.029-0.4384-6.1128-0.6638-9.0599-1.4211c-1.1659-0.2996-2.7289-1.7199-2.8196-2.7442
		c-0.0811-0.9166,1.4515-2.2678,2.5684-2.9194c1.2023-0.7015,2.7302-0.925,4.1486-1.1635c15.9778-2.686,31.4082-7.3498,46.5-13.1221
		c5.5458-2.1211,11.1053-4.3408,15.2797-9.0411c2.2988-2.5885,8.4131-2.341,11.121-0.0752c1.411,1.1807,2.0745,2.7244,1.1347,4.3318
		c-1.0793,1.846-2.2494,3.8624-3.9061,5.1013c-3.609,2.6988-7.3197,5.4705-11.3995,7.2935
		c-14.9863,6.6968-30.8062,10.6202-47.0005,13.0689c-2.1427,0.324-4.3423,0.2711-6.5156,0.3927
		C314.0214,420.9044,314.0043,421.0038,313.9872,421.1032z"/>
	<path class="st0" d="M320.6543,373.8481c-4.3212-1.0648-8.7336-1.9905-13.0217-3.3181c-1.1243-0.3481-2.5836-1.9483-2.5757-2.9634
		c0.0079-1.0168,1.4975-2.609,2.6193-2.9142c2.7524-0.7489,5.6606-0.9587,8.518-1.2803c3.3811-0.3805,6.9339-0.1147,10.1342-1.0651
		c11.5124-3.4189,22.6879-7.6426,32.0962-15.5257c3.4751-2.9117,7.6394-3.2191,11.8424-1.8839
		c3.5548,1.1294,4.7954,3.6485,2.7853,6.7079c-1.8454,2.8087-4.2822,5.5-7.0443,7.3844
		c-8.1717,5.5749-17.3957,8.994-26.9296,11.3896C333.1255,371.8753,326.9987,372.6793,320.6543,373.8481z"/>
	<path class="st0" d="M331.0741,387.3165c-3.3706-0.5857-6.7708-1.0447-10.0976-1.8188c-1.3519-0.3146-2.6842-1.1433-3.78-2.0385
		c-2.2763-1.8596-2.177-4.1235,0.5596-4.9606c3.2008-0.9789,6.6897-1.0595,10.0663-1.4062
		c2.6447-0.2716,5.4271,0.0797,7.9417-0.6046c7.1877-1.956,14.0817-4.7289,20.2317-9.0578
		c3.4948-2.4599,7.3116-3.1452,11.3636-2.0021c4.2111,1.1879,5.3338,4.0165,2.5103,7.2617c-2.206,2.5355-4.9469,4.904-7.9229,6.4163
		C352.3136,384.001,342.0305,386.7343,331.0741,387.3165z"/>
	<path class="st0" d="M331.1484,540.1463c-3.7915,3.6043-8.3868,3.1047-12.3911,2.0249
		c-11.1507-3.0069-18.149-10.8018-21.851-21.4814c-1.5038-4.3382-0.2017-7.3364,2.5741-8.4397
		c3.4948-1.3892,7.7885-0.0983,10.0252,3.2151c1.515,2.2441,2.7022,4.7073,4.1727,6.9842
		c4.1342,6.4018,8.298,12.7977,16.048,15.4672c0.3136,0.108,0.5952,0.4229,0.7975,0.7082
		C330.7216,538.9039,330.7989,539.2684,331.1484,540.1463z"/>
	<path class="st0" d="M250.5864,636.2862c-3.0078-8.9393-4.0196-17.4022-3.8129-25.9083
		c0.5848-24.0587,3.6535-47.7188,12.6859-70.2751c0.4652-1.1617,0.9749-2.3058,1.8326-4.3272
		c2.0645,1.9952,4.2315,3.3869,5.418,5.3663c3.7143,6.1967,7.0588,12.615,10.4422,18.7578
		c-0.4489,3.2686-1.0972,6.6108-1.3395,9.9823c-1.3453,18.7181-6.4254,36.3672-15.1143,52.965
		C258.1915,627.6359,255.4037,632.3065,250.5864,636.2862z"/>
</g>
</svg>
