<?xml version="1.0" encoding="utf-8"?>
<!-- Generator: Adobe Illustrator 24.3.0, SVG Export Plug-In . SVG Version: 6.00 Build 0)  -->
<svg version="1.1" id="Layer_1" xmlns="http://www.w3.org/2000/svg" xmlns:xlink="http://www.w3.org/1999/xlink" x="0px" y="0px"
	 viewBox="0 0 972.6608 1109.4843" style="enable-background:new 0 0 972.6608 1109.4843;" xml:space="preserve">
<style type="text/css">
	.st0{fill:#FFFFFF;}
</style>
<g>
	<path class="st0" d="M757.91,538.683c-0.601,6.278-1.0193,11.7022-1.6567,17.1006c-1.6071,13.6111-5.7486,26.5592-10.2158,39.4525
		c-3.503,10.1104-10.331,16.5963-20.3839,19.4726c-7.3046,2.0899-14.7615,4.0637-22.283,4.9036
		c-26.6942,2.9807-53.4067,5.9604-80.1848,7.979c-28.2784,2.1318-56.6466,1.1828-84.9651,0.1243
		c-19.1144-0.7145-38.0008-3.3511-56.1456-9.6602c-5.7729-2.0073-11.3217-4.9072-16.6008-8.0282
		c-8.0533-4.7611-13.6849-11.7721-17.0766-20.5666c-5.2521-13.6185-7.3738-27.6562-5.9431-42.2062
		c0.1947-1.9801,0.3525-3.9639,0.5667-6.391c-17.5585,0-34.8618,0-52.5428,0c-0.0821,0.9216-0.287,1.7798-0.2134,2.6134
		c1.068,12.0994-1.0123,23.9063-3.3742,35.6698c-1.3672,6.8094-3.9568,13.1763-7.433,19.216
		c-3.1916,5.5451-7.6212,9.6243-13.345,12.3995c-13.1487,6.3755-27.0862,10.3655-41.2451,13.6837
		c-20.0365,4.6954-40.4732,6.7439-60.8911,8.6227c-17.8917,1.6463-35.857,2.6182-53.8104,3.4301
		c-15.4079,0.6968-30.844,0.8604-46.2701,1.018c-5.2496,0.0536-10.5063-0.6353-15.7606-0.9727
		c-1.9649-0.1262-3.9321-0.2175-6.2546-0.3441c-0.2386,1.9813-0.5379,3.5511-0.6015,5.1306
		c-1.4292,35.4547-6.0989,70.4866-12.6436,105.3559c-2.7699,14.7578-4.1019,29.8686-4.9495,44.8832
		c-1.0741,19.0276-1.2424,38.1194-1.3314,57.1857c-0.0833,17.8673,1.8645,35.541,7.5456,52.6151
		c3.6288,10.9061,8.9029,21.0444,14.7983,30.8763c0.2813,0.4692,0.3832,1.0459,0.8711,1.3299
		c3.1698-16.513,12.6986-29.0251,22.5147-41.3481c12.605-15.8242,28.6624-27.1622,46.987-35.3708
		c17.1056-7.6625,34.7091-13.8937,53.2633-17.0453c8.2598-1.4031,16.626-2.378,24.91-0.5649
		c4.0031,0.8761,7.8689,2.5974,11.6161,4.3275c1.7247,0.7963,3.7674,2.6733,2.3774,4.733
		c-0.8926,1.3226-3.2624,1.9671-5.0726,2.2437c-1.2873,0.1967-2.7667-0.6689-4.1238-1.1613
		c-3.4986-1.2693-6.9723-1.5954-10.6748-0.6917c-14.802,3.6129-28.2037,10.4221-41.3468,17.8422
		c-15.4972,8.749-27.2654,21.5458-38.103,35.3196c-8.435,10.7204-16.479,21.7094-21.8095,34.395
		c-1.5199,3.6172-4.6365,5.0579-7.9727,5.9789c-8.6457,2.3868-17.2224,2.268-25.5584-1.4475
		c-0.7546-0.3364-1.5142-0.6615-3.0118-1.3149c0.511,1.4221,0.6274,2.1009,0.9669,2.639
		c12.1417,19.2543,25.3447,37.6361,42.3748,53.0143c10.8588,9.8055,23.3709,17.1629,35.5158,25.1194
		c25.8639,16.9443,54.2917,27.4082,84.1769,34.5587c20.8444,4.9873,41.6609,9.9288,63.0948,11.7101
		c28.0892,2.3344,56.176,3.7045,84.317,0.8372c14.988-1.5271,30.1434-2.0262,44.9527-4.5664
		c32.6114-5.5938,64.5645-13.8251,94.9742-27.3123c9.949-4.4125,20.0252-8.5773,30.2117-12.4073
		c19.7515-7.4267,37.1777-18.8596,54.3158-30.8315c11.1636-7.7986,22.4402-15.4612,31.8931-25.4167
		c31.3544-33.0217,56.5748-69.9281,72.0574-113.0828c6.8061-18.9706,13.7378-37.8945,18.2572-57.575
		c0.8417-3.6655,2.9227-5.7685,6.2034-6.8745c7.65-2.5789,15.3488-2.5483,22.975,0.1061c3.5068,1.2208,5.5403,3.5526,6.1746,7.4964
		c1.48,9.2015-0.2414,18.0815-1.967,27.0031c-6.7196,34.7399-20.9174,66.3065-40.2677,95.7604
		c-11.9948,18.2578-25.447,35.3596-39.8561,51.7327c-7.9543,9.0383-17.0822,16.7767-26.897,23.7382
		c-17.0399,12.0859-34.1014,24.2067-52.9874,33.2549c-11.9264,5.7141-24.5189,10.0195-36.605,15.4213
		c-34.4783,15.4094-70.3945,26.2384-107.3948,33.3271c-16.1916,3.1021-32.653,4.9996-49.0707,6.6696
		c-23.6694,2.4075-47.4185,3.999-71.246,3.4476c-25.7934-0.597-51.5474-1.7468-77.0507-6.0612
		c-21.4971-3.6365-42.5982-8.9745-63.6574-14.551c-31.1566-8.2504-60.0487-21.4558-87.2963-38.5751
		c-13.2283-8.3112-26.5851-16.3472-38.4631-26.6137c-17.3285-14.9774-31.4462-32.668-44.0233-51.6548
		c-4.8071-7.257-9.1791-14.8044-13.6834-22.2594c-10.8995-18.0397-16.59-37.8066-19.1946-58.5607
		c-4.2497-33.863-3.6456-67.8223-0.6971-101.6873c1.3811-15.8627,4.9924-31.5325,7.6266-47.2842
		c5.0629-30.275,9.6939-60.5983,10.9736-91.3316c0.1241-2.9807-0.2207-4.9084-3.3225-6.5
		c-16.1568-8.2899-23.9555-22.1187-25.2991-39.8655c-0.994-13.1299-0.5387-26.1436,4.0238-38.7177
		c0.3651-1.0061,0.5107-2.0917,0.7981-3.309c-0.9023-0.7019-1.7871-1.3148-2.5862-2.0242
		c-4.7712-4.2354-4.7464-7.6443,0.3069-11.5797c5.8335-4.543,12.7873-6.7568,19.6878-9.0333
		c2.5614-0.845,5.128-1.6741,8.0824-2.6376c0.4081-19.1613,0.8125-38.1507,1.2169-57.1401
		c-0.3797-0.1245-0.7593-0.2489-1.139-0.3734c-0.7002,0.8471-1.5253,1.6201-2.0794,2.5539
		c-2.6224,4.4189-5.8044,8.2888-9.9562,11.4062c-8.7983,6.6063-18.3972,6.9618-28.4531,3.8678
		c-1.524-0.4689-3.0252-1.3047-4.2789-2.2968c-2.4061-1.9038-2.845-3.9427-0.7526-6.0392
		c5.4974-5.5079,7.0907-12.6116,8.332-19.7472c2.737-15.7341,5.1113-31.5314,7.6271-47.304
		c2.918-18.294,6.2338-36.4816,11.7534-54.2333c5.9475-19.1277,16.9156-34.7957,31.7521-47.9515
		c3.5288-3.129,7.2766-6.0095,10.8611-9.0774c14.3698-12.2993,31.1966-19.7884,49.1997-24.7963
		c4.489-1.2487,7.8887-3.3777,10.4248-7.1656c3.6319-5.4245,7.8008-10.5508,10.8946-16.2626
		c9.0198-16.6525,1.2175-34.3959-17.0694-39.3608c-6.5587-1.7807-13.2574-2.2152-19.9481-0.6556
		c-1.102,0.2568-2.64,0.9015-2.9821,1.7622c-1.3381,3.3664-4.2325,3.1714-6.8495,3.2126c-3.1116,0.0489-6.2113-0.5351-8.4227-3.0951
		c-1.4653-1.6962-1.1889-3.5382,0.5151-4.7444c1.8953-1.3416,3.9705-2.7471,6.1727-3.2868
		c17.3421-4.2501,34.5434-4.0765,51.3638,2.4898c6.7367,2.6299,12.2809,6.9825,16.7438,12.6803
		c6.5681,8.3855,8.3319,17.7309,4.5933,27.6757c-1.9637,5.2235-4.9463,10.0688-7.5412,15.0472
		c-0.809,1.5522-1.8552,2.9808-3.1605,5.0484c6.4392,0,12.1326,0,18.3176,0c-0.4019-1.5918-0.6064-2.7552-0.988-3.8573
		c-3.2529-9.3933-2.6879-19.0168-1.3416-28.5682c3.3422-23.7115,12.7494-44.9205,27.1831-63.9506
		c14.0182-18.4822,29.9221-35.111,48.7867-48.7106c29.4458-21.2276,62.6177-30.5878,98.6879-30.7154
		c15.5202-0.0549,30.8411,1.1208,45.7492,5.7301c5.9227,1.8312,11.6433,4.1358,16.5612,8.0343
		c3.157,2.5025,4.063,4.5373,2.9847,6.2685c-1.1474,1.8419-4.467,2.5448-7.4771,1.2735c-3.1679-1.3379-6.137-3.1579-9.3281-4.4276
		c-9.8716-3.9277-20.2235-5.9081-30.7705-6.5638c-39.8192-2.4756-74.4419,9.419-103.0689,37.6734
		c-19.5619,19.3073-36.1585,40.7365-46.9796,66.2092c-6.4283,15.1321-10.877,30.8098-11.3097,47.3939
		c-0.0695,2.6647,0.3199,5.3414,0.5419,8.6864c2.2486-0.6472,3.9476-1.0049,5.5473-1.6205
		c5.4197-2.0855,10.7087-4.5679,16.2364-6.2944c3.5529-1.1097,7.4331-1.4987,11.1743-1.5417
		c1.9049-0.0219,3.8269,1.4326,6.7531,2.6358c-2.1653,2.4082-3.5135,4.2347-5.1771,5.7041
		c-9.8682,8.7165-21.5168,13.9919-34.0698,17.5659c-13.6717,3.8925-27.5953,6.2763-41.7425,7.4777
		c-1.6152,0.1371-3.2674,0.3376-4.8049,0.8196c-35.3962,11.0962-60.0083,33.8548-72.7845,68.7068
		c-5.5509,15.1422-9.6908,30.7996-14.5514,46.1979c-2.1306,6.7497-4.4072,13.455-6.7332,20.1402
		c-0.6881,1.9779-1.1134,3.6323,0.3337,5.5634c10.1754,13.5778,14.6457,29.5347,18.1208,45.7097
		c2.4736,11.5128,3.7188,23.2896,5.509,34.9491c0.2643,1.7214,0.5115,3.4455,0.7612,5.1317
		c11.2092-2.1624,21.807-4.5685,32.5225-6.2011c24.5836-3.7454,49.1909-7.3772,73.8544-10.5424
		c16.375-2.1014,32.8335-3.8193,49.3087-4.8106c24.9333-1.5002,49.726,0.1177,74.1402,5.8481
		c1.4121,0.3314,2.8165,0.7046,4.2075,1.1158c8.9646,2.6494,15.415,8.1402,18.2265,17.1621c1.9321,6.2,3.2256,12.599,4.9142,19.3472
		c18.3395-0.7706,37.245-1.565,56.4644-2.3726c1.7709-7.4079,3.6276-14.7637,5.204-22.1792
		c0.2577-1.2121-0.5383-2.7789-1.1639-4.0224c-1.53-3.041-0.9393-5.7761,1.3177-7.9766c2.0521-2.0006,4.3533-3.8535,6.8208-5.3007
		c8.453-4.9576,17.9591-6.7989,27.4167-8.5309c18.745-3.4329,37.4599-7.1445,56.5308-8.3908
		c7.792-0.5093,15.5865-1.1341,23.3887-1.3062c39.4073-0.8694,78.8329-1.7474,118.1943,0.9623
		c15.1876,1.0455,30.3254,3.1366,45.4052,5.3111c9.8156,1.4154,19.2114,4.3765,25.0728,12.9436
		c4.3537-2.5083,8.1505-5.2514,12.3651-6.9692c4.3015-1.7531,9.0134-2.4989,14.3855-3.9056
		c-1.7422-1.3272-2.9076-2.2664-4.1243-3.1336c-7.8542-5.598-7.8013-10.7139,0.4431-15.8593
		c3.3668-2.1013,7.1198-3.5819,10.687-5.3651c1.1033-0.5516,2.1733-1.1696,4.2177-2.2764c-3.9249-1.0268-6.9738-1.6636-9.9138-2.631
		c-4.4678-1.4703-9.1068-2.7125-13.2035-4.9221c-3.0752-1.6586-5.8578-4.3526-7.9739-7.1817
		c-3.2282-4.3159-2.4562-8.8123,2.0271-11.8313c3.4135-2.2986,7.4099-3.744,11.1851-5.4863
		c1.4271-0.6587,2.9613-1.0852,4.3652-2.4013c-5.3605-0.6855-10.713-1.4441-16.0835-2.0387
		c-7.3975-0.819-14.8273-1.3713-22.2045-2.3347c-2.8221-0.3686-5.7311-1.1777-8.2504-2.4691
		c-2.9006-1.4868-2.868-4.1798-0.114-6.0005c1.6257-1.0747,3.5638-1.9113,5.4717-2.272c3.1935-0.6038,6.4803-1.0733,9.7188-1.0222
		c22.7396,0.3589,45.3414,2.1164,67.5164,7.5309c3.3314,0.8134,6.5971,1.9745,9.7966,3.2224
		c2.2533,0.8788,4.3403,2.43,4.4578,5.0418c0.1319,2.9317-2.1907,4.5518-4.5251,5.5806c-3.1399,1.3839-6.442,2.4224-9.7209,3.4626
		c-4.842,1.5362-9.735,2.9111-14.5829,4.4293c-1.1274,0.3531-2.1609,1.0064-3.293,1.548c1.5211,2.9606,4.3256,2.9469,6.6721,3.616
		c5.7554,1.6414,11.639,2.8644,17.3247,4.7072c3.41,1.1051,6.7825,2.7075,9.7491,4.712c4.7137,3.185,4.9768,7.6198,0.6183,11.3222
		c-2.7198,2.3105-6.076,3.9044-9.2433,5.6438c-2.0608,1.1317-4.2911,1.9571-6.4535,2.9011
		c-2.1503,0.9388-4.3108,1.8543-7.1542,3.0751c2.0903,1.4464,3.7068,2.5002,5.2515,3.6506
		c1.8882,1.4065,3.9283,2.6946,5.5226,4.3912c2.7209,2.8954,2.5674,6.0724-0.6208,8.4745c-2.424,1.8263-5.3032,3.0931-8.0836,4.3859
		c-1.9238,0.8946-4.0243,1.4094-7.4423,2.5667c13.1352,5.4683,24.2052,11.9791,33.5168,23.2106
		c0.1362-3.5208,0.2455-5.7752,0.3074-8.0309c0.8297-30.2357,4.4722-60.1132,12.1609-89.3884
		c2.0616-7.85,5.4391-15.3608,8.3242-22.9851c1.2805-3.384,3.8635-5.1161,7.5509-5.2141c5.0513-0.1343,7.5077,1.7987,7.8342,6.8635
		c0.3384,5.2509,0.3387,10.526,0.4053,15.7915c0.3978,31.45-0.9326,62.8232-4.2774,94.1031
		c-0.7524,7.0372-1.6619,14.0587-2.3283,21.1035c-0.3871,4.0923-2.7994,6.0562-6.436,7.0856
		c-5.192,1.4696-10.3784,1.4886-15.6002,0.1569c-3.4906-0.8902-6.5547-2.282-7.8426-6.64
		c-7.7128,8.0908-17.8779,10.9294-28.2569,15.2194c3.4315,1.9105,6.0339,3.4281,8.6979,4.8289
		c6.2604,3.2916,12.5596,6.5093,18.8231,9.795c2.4728,1.2972,4.8212,2.8329,4.7552,6.0579
		c-0.0649,3.175-2.3669,4.7813-4.8676,6.0167c-5.5123,2.723-11.4631,3.415-17.5001,3.2563
		c-6.7734-0.1779-13.3816-1.4621-19.5624-4.2974c-13.715-6.2916-27.2524-12.9131-38.8334-22.8488
		C759.8737,539.6964,759.2115,539.4368,757.91,538.683z M479.9803,502.371c0,1.4005-0.0916,2.6673,0.0146,3.9173
		c0.7832,9.2146,1.7423,18.4163,2.3868,27.6402c1.2182,17.4349,3.9519,34.5398,9.0823,51.3193
		c3.534,11.5583,10.9962,18.5919,22.2165,21.7628c6.7806,1.9163,13.743,3.4711,20.7294,4.3241
		c21.1172,2.5781,42.3738,2.4042,63.6082,2.55c28.3787,0.1948,56.502-3.169,84.6582-6.0226
		c6.6657-0.6755,13.2552-2.0782,19.895-3.0415c4.3127-0.6256,6.8965-2.8975,7.6331-7.2389
		c0.1812-1.0681,0.5759-2.0981,0.8085-3.1597c3.351-15.29,5.0956-30.7515,5.3691-46.4133
		c0.136-7.7866,0.9076-15.5611,1.3519-23.3433c0.5784-10.1315,1.3537-20.2595,1.602-30.3998
		c0.2173-8.8791-0.8174-9.7986-9.4603-11.2802c-17.2186-2.9517-34.6439-3.5009-52.0344-4.3903
		c-24.8713-1.272-49.7134,0.1805-74.5602,1.0146c-19.4346,0.6524-38.827,2.0688-57.7507,6.7036
		C509.9853,490.1205,493.5517,491.6628,479.9803,502.371z M135.6163,527.1487c2.0016,29.3008,3.963,58.0134,5.9257,86.7435
		c1.4982,0.3577,2.5313,0.6661,3.5863,0.8469c12.7537,2.1855,25.6591,3.1155,38.5276,2.5508
		c30.4615-1.3364,60.9845-1.4752,91.3556-4.794c16.9853-1.8561,33.767-4.3049,50.3445-8.7203
		c11.1626-2.9731,16.7434-9.9514,19.4245-20.3526c0.3172-1.2303,0.6815-2.4512,0.937-3.6945
		c2.5384-12.3524,3.3671-24.795,2.1559-37.376c-0.5214-5.416-0.7645-10.8604-1.061-16.296
		c-0.3776-6.9225-1.3513-13.6924-3.8962-20.2232c-1.0999-2.8227-2.619-4.2247-5.7044-4.914
		c-13.05-2.9159-26.2625-3.3562-39.5337-3.2253c-20.4008,0.2013-40.5269,3.2159-60.6008,6.4002
		c-17.9122,2.8414-35.6935,6.4982-53.5812,9.5065C167.1353,516.3524,151.6488,521.9866,135.6163,527.1487z M759.545,492.0707
		c-0.381,0.3603-0.762,0.7206-1.1431,1.0809c2.2827,10.4485,3.338,20.9674,1.6144,31.9587
		c7.8597-1.41,14.8061-0.6386,21.6799,1.3781c1.3114,0.3848,2.9819,0.5685,4.1938,0.095
		c5.7322-2.2395,11.4935-4.4787,16.9841-7.2364c3.7675-1.8922,4.1573-4.6848,1.541-8.0822
		c-4.5173-5.8659-10.4512-10.0386-17.108-13.1261c-1.3766-0.6385-3.2083-0.2199-4.7918-0.5036
		c-4.0698-0.7294-8.1493-1.4498-12.1655-2.4198C766.7075,494.3357,763.1435,493.1317,759.545,492.0707z"/>
	<path class="st0" d="M587.7053,226.291c-9.1738-17.9365-13.7418-35.68-12.9753-54.6206c0.1459-3.6056,0.6777-7.2216,1.3493-10.7727
		c0.653-3.4525,1.737-6.7195,6.0366-7.4246c4.5339-0.7436,8.7807-0.5731,11.9236,3.2976c1.5944,1.9635,2.9933,4.1176,4.2524,6.3163
		c9.2012,16.0681,17.9683,32.3991,27.611,48.1962c9.8301,16.1041,20.2918,31.8371,30.8878,47.454
		c6.2189,9.1657,15.2734,15.3572,24.5772,21.1914c22.661,14.2104,47.4219,23.4512,72.8853,30.9828
		c5.3528,1.5833,11.0682,1.93,16.6068,2.9016c1.7827,0.3128,3.5979,0.6296,5.2859,1.2502c2.7086,0.9959,5.8646,1.931,5.8179,5.5743
		c-0.0417,3.2664-2.7936,4.6116-5.4111,5.3602c-3.4616,0.9899-7.0475,1.8934-10.6204,2.0864
		c-16.7183,0.9031-33.4052,0.6637-49.9568-2.3227c-19.1592-3.4569-37.8109-8.7707-56.0731-15.4491
		c-12.2535-4.4811-22.8536-11.9301-33.1014-19.734c-17.613-13.4125-35.6652-26.2245-52.7118-40.4238
		c-16.3895-13.6518-34.829-24.2849-55.0496-31.4817c-13.3395-4.7478-26.9312-5.4841-40.6805-1.8626
		c-4.8705,1.2828-9.7299,1.3105-14.5025-0.259c-2.0187-0.6638-4.4069-1.4367-4.6159-4.0533
		c-0.2128-2.6644,1.9633-3.9432,4.0204-4.5046c5.7526-1.57,11.5356-3.2342,17.4187-4.0864
		c30.5924-4.431,59.5896,1.6353,87.581,13.8565C574.3745,220.4325,580.4797,223.1214,587.7053,226.291z"/>
	<path class="st0" d="M887.0035,575.5999c-4.208,2.0936-8.063,3.649-11.5435,5.8082
		c-12.8079,7.9454-23.4312,18.2742-32.2165,30.4905c-4.5753,6.362-13.6792,8.5997-20.7202,5.0637
		c-3.1945-1.6042-4.6756-4.287-4.1168-7.5516c0.6335-3.7012,1.4976-7.5541,3.2136-10.8445
		c6.1556-11.8046,14.9166-21.4638,26.1458-28.6164c15.924-10.1429,33.2688-14.9902,52.299-13.1552
		c17.6786,1.7047,29.6167,10.645,35.7288,27.4084c3.8392,10.5297,5.6068,21.4282,5.8038,32.5461
		c0.638,35.9787-10.1898,68.303-32.0479,96.7806c-11.2695,14.6825-26.3595,24.7614-42.8411,32.812
		c-11.7311,5.7303-24.0327,9.2354-37.2208,8.8411c-6.2108-0.1857-12.3134-1.1301-17.8942-4.0444
		c-2.0609-1.0762-4.0867-2.4241-5.7307-4.0503c-3.0131-2.9803-2.7896-5.6735,0.5632-8.2643
		c3.7101-2.8671,8.1588-4.3268,12.7089-4.2185c6.5643,0.1562,11.7701-2.5461,17.1225-5.8425
		c20.0419-12.3424,33.4514-30.2246,43.6622-50.958c9.8577-20.0163,15.0266-41.1886,15.7953-63.4225
		c0.3661-10.5882-0.7927-21.0468-4.7897-30.9916C889.934,580.9241,888.5389,578.6199,887.0035,575.5999z"/>
	<path class="st0" d="M352.2327,52.9735c1.876-0.8272,3.6764-1.9989,5.6394-2.4297c26.4213-5.7979,52.8484-11.6581,79.9774-13.0577
		c21.6093-1.1148,43.2055-0.8457,64.7625,1.2921c24.2245,2.4023,48.2744,5.9219,72.1645,10.6248
		c31.6265,6.2258,60.9487,18.5695,89.7986,32.5405c19.9755,9.6734,37.9054,22.0392,54.3605,36.7644
		c7.2543,6.4916,13.3201,13.7653,17.2097,22.8516c2.2043,5.1495,5.301,9.9122,7.9066,14.8957
		c5.1171,9.7869,3.2109,14.4756-7.5723,16.8736c-14.5315,3.2316-27.9226,0.9521-38.5176-10.4257
		c-4.8044-5.1594-9.199-10.7298-13.465-16.3525c-4.0772-5.3739-8.2524-10.5767-13.5649-14.8124
		c-6.1017-4.8651-12.0278-9.9508-18.1437-14.7976c-21.7725-17.2544-46.1024-30.2375-71.2253-41.7137
		c-15.7585-7.1985-32.7485-10.7165-49.6669-14.0643c-21.0112-4.1576-42.1279-7.7326-63.5198-9.3814
		c-18.5032-1.4261-37.0117-1.6316-55.4988,0.0998c-14.6395,1.371-29.2498,3.0509-43.8836,4.4859
		c-3.6062,0.3537-7.2657,0.5167-10.8771,0.3246c-1.9763-0.1051-3.9033-1.1363-5.8525-1.7498
		C352.2538,54.2857,352.2433,53.6296,352.2327,52.9735z"/>
	<path class="st0" d="M66.7091,247.1387c-0.133,6.794,0.6079,13.422,3.6195,19.6259c1.7445,3.5937,4.2097,6.2245,8.4177,7.0078
		c1.9156,0.3566,3.8271,1.2208,5.5129,2.2335c4.5309,2.722,4.4828,6.455-0.1517,9.1926c-1.8448,1.0898-3.9412,1.9882-6.0347,2.3842
		c-13.9474,2.6384-27.2174,0.3994-39.1911-7.1124c-10.1113-6.3433-14.3383-16.5785-15.6386-28.0338
		c-2.2897-20.1707,2.5826-38.8719,12.0415-56.5903c14.0021-26.2289,33.7447-47.514,56.7236-66.0129
		c15.7645-12.691,32.7053-23.4364,51.4405-31.2867c23.1468-9.6989,46.8145-10.6621,70.9057-4.4872
		c3.4597,0.8868,6.7543,2.5972,9.9523,4.2595c1.933,1.0048,3.6617,2.7218,3.0479,5.2537c-0.672,2.7721-3.1392,3.4643-5.5349,3.498
		c-1.9257,0.0271-4.0499-0.238-5.7625-1.0531c-13.9356-6.6327-28.1585-6.278-42.3404-1.4228
		c-12.1367,4.1551-22.724,11.349-32.8395,19.0417c-27.7868,21.1314-49.6902,47.1047-63.7822,79.2826
		C70.9259,217.0058,67.0886,231.6777,66.7091,247.1387z"/>
	<path class="st0" d="M866.863,333.6145c0,2.4469,0.0223,3.8982-0.0044,5.3486c-0.0681,3.7061-1.9847,6.1929-5.3503,7.4384
		c-7.4456,2.7553-14.9175,2.6591-22.3131-0.253c-3.3009-1.2997-5.0764-3.9679-6.113-7.218
		c-2.4241-7.6003-4.8494-15.2003-7.258-22.8055c-13.5536-42.7948-29.2615-84.664-52.7296-123.2206
		c-1.8799-3.0885-3.5873-6.3212-4.9933-9.6481c-1.5248-3.6078-0.632-5.4334,3.1528-6.6046
		c7.3475-2.2738,13.9705-1.0505,19.4863,4.6363c13.8143,14.2426,26.2318,29.561,36.3282,46.7045
		c13.9481,23.6832,25.2733,48.5573,34.0197,74.6025C864.5731,312.9713,866.3884,323.6798,866.863,333.6145z"/>
	<path class="st0" d="M470.7288,827.2192c15.5665,0.4887,30.5103,4.0156,45.0422,9.4333
		c24.6968,9.2071,45.4412,24.0324,62.142,44.3868c9.4417,11.5073,15.876,24.6652,19.9427,38.9728
		c0.4438,1.5618,0.6688,3.1911,0.9239,4.8004c2.0701,13.0618-5.3701,21.0399-17.8685,24.3917
		c-5.7168,1.5333-11.5416,1.1287-17.1832-0.7073c-1.6971-0.5523-3.4102-1.3311-4.8353-2.3856
		c-2.709-2.0045-3.0958-3.9185-0.7106-6.3793c3.3361-3.4421,2.8907-7.263,1.9352-11.1807
		c-2.3513-9.6426-7.1053-18.2402-12.2767-26.5715c-16.6567-26.8342-40.2046-45.4579-69.2841-57.2338
		c-6.1898-2.5067-12.7499-4.0962-19.1308-6.1354c-1.7202-0.5497-3.5434-0.9639-5.084-1.8496
		c-3.3489-1.9252-3.4919-4.9711,0.0357-6.5829c3.3806-1.5446,7.2238-2.1534,10.9191-2.8986
		C467.0404,826.9277,468.914,827.2192,470.7288,827.2192z"/>
	<path class="st0" d="M533.5873,170.4012c1.4401-6.101-2.0177-9.1264-5.8076-11.7567c-7.1009-4.9283-15.0903-7.8261-23.4803-9.7127
		c-24.8018-5.5768-49.2626-4.9808-73.4403,3.4866c-21.7308,7.6105-38.7376,21.1124-51.0313,40.4341
		c-8.0273,12.6162-14.3348,26.0612-16.7678,41.0143c-0.8669,5.3275-1.0163,10.4215,3.7184,14.48
		c1.8669,1.6003,1.3399,3.4695-0.6568,5.0449c-0.1422,0.1122-0.2836,0.2303-0.4409,0.3175
		c-10.4898,5.806-30.8652,1.0794-31.6987-15.2059c-0.3205-6.2613,0.7558-12.2978,2.6085-18.2147
		c9.972-31.8483,30.6919-54.5376,60.6478-68.2812c38.2791-17.5622,78.0376-19.7619,118.4066-7.904
		c6.509,1.912,12.618,5.4351,18.6047,8.7654c2.7405,1.5245,4.963,4.2035,6.9982,6.7027c1.6365,2.0095,2.3001,4.6214,0.7206,7.1173
		C540.2019,169.4798,537.7493,170.9729,533.5873,170.4012z"/>
	<path class="st0" d="M810.2557,385.8237c-25.0884,0.4161-48.2531-2.7644-71.1345-7.8343
		c-7.3535-1.6293-14.3528-4.9241-21.4374-7.6561c-1.9908-0.7677-3.9391-2.0005-5.4818-3.4672
		c-1.3342-1.2685-2.855-3.1603-2.878-4.7964c-0.0345-2.4586,2.5544-3.2352,4.6685-3.8538c4.2859-1.2542,8.5929-1.152,12.8768,0.0417
		c2.9663,0.8266,5.8692,2.0199,8.8877,2.4921c7.5137,1.1755,15.0535,2.3027,22.6251,2.9691
		c27.7203,2.4397,55.4424,1.827,83.18-0.0343c7.3832-0.4955,14.8848-0.2429,22.2538,0.4724
		c4.0026,0.3885,8.1596,1.9174,11.6719,3.9336c4.3339,2.4879,4.0984,6.4341-0.3635,8.8256
		c-3.1346,1.6801-6.6992,2.8886-10.2112,3.4785C846.3099,383.5187,827.6922,386.6893,810.2557,385.8237z"/>
	<path class="st0" d="M189.9514,426.0751c30.097-0.8903,58.6248,8.5674,85.8347,22.8286
		c6.732,3.5284,13.2511,7.5335,19.5435,11.7985c2.9139,1.9751,5.3788,4.8645,7.447,7.7671
		c2.2118,3.1039,1.4237,5.1544-1.8119,7.1978c-6.2739,3.9621-20.5213,4.0922-26.1166-0.4721
		c-10.7126-8.7386-23.1757-14.1592-35.5948-19.6887c-12.2722-5.4641-24.7301-10.4767-37.9822-13.1303
		c-15.6375-3.1312-31.4001-2.6968-47.2042-1.7697c-3.9224,0.2301-7.9502-0.1874-11.8253-0.8858
		c-1.4592-0.263-3.5183-2.0684-3.6586-3.3507c-0.1293-1.1816,1.6931-3.1769,3.1045-3.8044
		c3.1184-1.3863,6.4639-2.4024,9.8145-3.1005C163.8068,426.9012,176.27,425.8358,189.9514,426.0751z"/>
	<path class="st0" d="M360.0688,964.356c-14.4258-0.3343-28.3419-2.4218-41.4612-8.4517c-3.2612-1.4988-6.3401-3.527-9.2057-5.7031
		c-1.6687-1.2672-3.0602-3.1503-4.0308-5.037c-2.5211-4.9007-1.046-9.0701,4.0721-11.0133
		c7.4909-2.8442,15.2182-2.9763,21.9972,1.5186c16.5191,10.9532,33.7755,9.1616,51.1946,3.4395
		c3.5822-1.1767,6.8437-4.0939,9.5823-6.8705c3.0751-3.1175,6.4195-5.2435,10.6335-6.1317
		c7.4208-1.5643,14.7951-1.6528,21.9817,1.0664c6.581,2.4901,7.7325,5.4029,4.7162,11.7626
		c-2.1635,4.5617-5.7397,7.8828-9.8996,10.6234c-9.5949,6.3212-20.4,9.5083-31.5239,11.418
		C378.8531,962.5687,369.4268,963.2638,360.0688,964.356z"/>
	<path class="st0" d="M613.9371,395.7097c17.0904,0.3933,29.9991,0.4663,42.49,4.2276c2.9289,0.882,5.8378,2.0439,8.4952,3.5399
		c1.8228,1.0261,3.5394,2.6246,4.6959,4.3698c2.343,3.5361,1.2402,7.3873-2.6544,9.0028c-6.6559,2.761-13.4446,2.6056-20.108-0.1658
		c-0.9664-0.402-2.1533-1.0816-2.5338-1.9436c-1.5307-3.468-4.4913-3.683-7.6465-4.0189
		c-19.3477-2.0592-38.4818,0.0224-57.3098,4.0237c-23.5673,5.0085-46.9338,10.9735-70.3414,16.7117
		c-4.5482,1.1149-8.9245,2.9871-13.3114,4.6873c-3.6445,1.4126-7.2732,2.301-11.1148,1.0071
		c-3.8141-1.2847-4.519-3.8018-1.4837-6.3322c2.3408-1.9513,4.9924-3.7429,7.7991-4.8842
		c10.4034-4.2304,20.8124-8.5007,31.4323-12.1332c20.0916-6.8722,40.5062-12.6881,61.6469-15.313
		C595.3173,397.0827,606.7269,396.3626,613.9371,395.7097z"/>
	<path class="st0" d="M759.545,492.0707c3.5985,1.061,7.1625,2.265,10.8048,3.1446c4.0162,0.9699,8.0957,1.6904,12.1655,2.4198
		c1.5835,0.2838,3.4152-0.1349,4.7918,0.5036c6.6567,3.0875,12.5907,7.2602,17.108,13.1261c2.6163,3.3974,2.2265,6.19-1.541,8.0822
		c-5.4905,2.7577-11.2519,4.9969-16.9841,7.2364c-1.2119,0.4734-2.8824,0.2897-4.1938-0.095
		c-6.8738-2.0167-13.8203-2.7881-21.6799-1.3781c1.7235-10.9913,0.6683-21.5102-1.6144-31.9587
		C758.783,492.7913,759.1639,492.431,759.545,492.0707z"/>
</g>
</svg>
