<?xml version="1.0" encoding="utf-8"?>
<!-- Generator: Adobe Illustrator 24.3.0, SVG Export Plug-In . SVG Version: 6.00 Build 0)  -->
<svg version="1.1" id="Layer_1" xmlns="http://www.w3.org/2000/svg" xmlns:xlink="http://www.w3.org/1999/xlink" x="0px" y="0px"
	 viewBox="0 0 688.6288 675" style="enable-background:new 0 0 688.6288 675;" xml:space="preserve">
<style type="text/css">
	.st0{fill:#FFFFFF;}
</style>
<g>
	<path class="st0" d="M319.4295,388.2269c0,5.5931,0.195,11.1954-0.0705,16.7758c-0.1691,3.5528-0.9495,7.086-1.5826,10.6052
		c-1.2174,6.7677-2.0421,13.6587-3.9414,20.2352c-1.6419,5.6852-3.9477,11.378-7.0581,16.3853
		c-3.2922,5.2999-6.5573,11.0591-12.9316,13.6505c-6.5959,2.6815-13.3886,4.3274-20.5399,4.6804
		c-5.1012,0.2518-10.1704,1.2561-15.2696,1.4133c-5.0379,0.1553-10.0961-0.321-15.1445-0.5419
		c-2.2473-0.0984-4.4908-0.3069-6.7387-0.3684c-19.2494-0.5275-37.0643-5.5165-53.2822-16.2267
		c-8.3675-5.5258-13.7227-13.3312-18.6225-21.6725c-5.4689-9.31-8.4897-19.5261-10.2996-30.0352
		c-1.0199-5.9219-0.8414-12.0483-1.2419-18.08c-0.1179-1.7766-0.4013-3.5417-0.5443-5.3174
		c-0.056-0.6953-0.2167-1.655,0.1501-2.0689c3.3424-3.7707,6.4758-7.8185,10.2892-11.0565
		c4.6068-3.9117,10.5972-5.2277,16.4218-6.0354c10.1315-1.4049,20.3214-2.5066,30.5221-3.2519
		c6.5959-0.482,13.2555-0.0374,19.885-0.1273c8.2375-0.1117,16.4922-0.7762,24.7052-0.4175
		c9.853,0.4302,19.6677,1.712,29.5034,2.5757c4.9285,0.4328,9.8609,0.8981,14.8016,1.0948
		c7.0824,0.2819,13.4876,2.4727,19.3531,6.3402c0.7953,0.5244,1.3497,1.4141,2.0379,2.1588
		c14.7353-4.0098,23.2864-7.1372,39.0895,1.7573c1.5149-1.6261,2.6873-3.4063,4.3122-4.5359
		c6.1693-4.289,13.1802-5.5576,20.6086-5.7836c5.5256-0.1682,11.0242-1.2247,16.5348-1.8858
		c3.5602-0.4272,7.1124-1.1268,10.6821-1.2317c10.9595-0.3219,21.9254-0.5222,32.8895-0.5602
		c6.9643-0.0241,13.942,0.1271,20.8915,0.5583c7.8872,0.4894,15.7483,1.3938,23.6233,2.0875
		c3.1183,0.2747,6.2439,0.4677,9.675,0.7207c-3.1727-3.9437-6.0331-7.5939-9.0279-11.1301
		c-0.5088-0.6007-1.569-0.9059-2.4184-1.0196c-7.1843-0.9617-14.369-1.9368-21.5742-2.7184
		c-3.6712-0.3982-7.3829-0.5066-11.0794-0.5697c-5.3575-0.0916-10.7336-0.2858-16.0728,0.0399
		c-7.4431,0.4542-14.8577,1.3666-22.2876,2.0484c-6.4576,0.5926-12.92,1.1306-19.3791,1.7067
		c-2.4253,0.2163-4.0949-0.8858-4.8075-3.1053c-1.0469-3.2607-1.9788-6.5712-2.6814-9.9189
		c-0.1432-0.6821,0.7675-1.8659,1.498-2.4022c3.1209-2.291,6.9428-2.382,10.5103-2.4061
		c10.6895-0.0721,21.4151-0.1945,32.0652,0.5644c16.2618,1.1589,32.362,3.7032,48.1676,7.8606
		c0.5978,0.1573,1.2365,0.1594,1.9048,0.2397c-1.5078-4.269-2.9978-8.4186-4.4274-12.5889c-0.3167-0.9239-0.5837-1.9223-0.576-2.884
		c0.0081-1.0127,0.1604-2.7635,0.6214-2.8957c1.4335-0.411,3.0403-0.709,3.8869,1.4915c3.1458,8.176,8.3474,15.0377,15.0051,20.5514
		c5.3593,4.4384,11.2166,8.3493,17.1642,11.9854c8.0881,4.9448,16.5269,9.3945,25.9747,11.1147
		c4.4822,0.8161,9.1328,0.8297,13.7138,0.951c6.7076,0.1776,9.1597,3.8256,6.4251,9.8594
		c-0.8807,1.9432-1.4359,4.1441-2.7236,5.7629c-1.3936,1.752-3.2828,3.3917-5.3076,4.2679
		c-1.5433,0.6678-2.0324,1.3582-2.2021,2.8064c-0.8878,7.5742-1.4404,15.2138-2.832,22.6962
		c-1.8603,10.0027-4.4011,19.8782-6.6177,29.8154c-2.6793,12.0116-5.6636,23.9674-7.9171,36.059
		c-5.1732,27.7565-10.5233,55.4442-20.7717,81.9037c-3.301,8.5226-6.3354,17.2725-12.05,24.4899
		c-3.522,4.448-8.1099,8.0805-12.3788,11.9007c-4.307,3.8544-8.6006,7.7825-13.2871,11.1377
		c-4.8693,3.486-10.0806,6.5495-15.3587,9.3968c-9.3693,5.0543-18.6732,10.3348-28.4247,14.548
		c-11.8718,5.1293-24.1796,9.2487-36.2953,13.8143c-5.9292,2.2343-11.7687,4.7471-17.7982,6.6641
		c-6.1781,1.9642-12.5185,3.4395-18.8319,4.944c-1.8961,0.4518-3.9399,0.2828-5.9158,0.4017
		c-1.9184,0.1154-3.7726,0.8216-5.5166,1.1752c-4.2743,0.8667-8.943,0.8074-13.2437,0.0022
		c-1.626-0.3046-3.4179-1.3139-5.2378-1.1395c-6.3046,0.6042-11.8731-2.2421-17.7801-3.5184
		c-14.5145-3.1361-27.6314-10.1444-41.6177-14.7281c-12.5937-4.1273-24.7659-9.2822-36.4021-15.6246
		c-8.4202-4.5895-16.8657-9.1744-24.9707-14.2836c-4.3926-2.769-8.0952-6.632-12.1108-9.9995
		c-3.5899-3.0106-7.3204-5.8716-10.7255-9.0782c-2.3222-2.1869-4.5162-4.6508-6.2078-7.3425
		c-8.463-13.4661-13.0489-28.5659-17.8186-43.5537c-5.5378-17.4014-8.9881-35.2932-12.0672-53.2631
		c-3.2573-19.0097-7.9207-37.699-12.6601-56.3825c-1.9312-7.6131-2.9532-15.4673-4.1867-23.2439
		c-1.2212-7.6986-2.2038-15.4355-3.2473-23.1614c-0.1447-1.0716,0.0332-2.1836-0.0655-3.2653
		c-0.1519-1.6642,0.313-3.2202,2.0903-3.076c1.2563,0.1019,3.0898,1.0704,3.5018,2.1123c1.2716,3.2157,2.1601,6.6147,2.887,10.0089
		c4.6425,21.6785,12.336,42.4026,19.299,63.379c4.5535,13.7174,7.9901,27.8409,11.284,41.9328
		c5.136,21.9723,11.7998,43.473,18.8872,64.8607c1.5397,4.6463,2.8497,9.4857,5.2139,13.7048
		c1.8752,3.3465,5.1516,5.9275,7.8943,8.7628c2.9672,3.0672,6.1478,5.9329,9.0393,9.0673
		c6.0069,6.5116,14.0606,9.906,21.3684,14.4711c17.613,11.0026,37.3134,17.0826,56.4893,24.4178
		c6.0912,2.33,12.0677,4.9957,18.2522,7.0366c6.7522,2.2282,13.6298,4.1479,20.5574,5.7492c4.8581,1.123,9.876,1.6721,14.855,2.0943
		c1.8547,0.1573,3.7938-1.1042,5.7083-1.1508c7.6115-0.1855,14.6628-2.7504,21.9439-4.5076
		c13.1195-3.1661,25.0643-9.3604,37.7503-13.6005c12.8901-4.3083,25.6435-9.0558,37.4935-15.8104
		c8.4091-4.7932,16.7392-9.7629,24.7982-15.1149c3.4164-2.2688,6.0803-5.687,9.0286-8.6403
		c3.8238-3.8304,8.3194-7.251,11.178-11.7116c2.914-4.547,4.3337-10.0919,6.1667-15.2849
		c10.6142-30.0724,17.7119-61.126,25.7696-91.9203c3.0904-11.8107,7.7438-23.2034,11.2952-34.9048
		c4.3906-14.4665,8.3784-29.0552,12.5207-43.5966c0.1174-0.4121,0.0148-0.8869,0.0148-0.8867
		c-5.5665-2.16-10.8743-4.2196-16.3747-6.354c0,2.0909-0.0073,4.3182,0.0011,6.5455c0.0516,13.749-2.7009,26.9944-8.412,39.4163
		c-3.7803,8.2224-8.3562,16.1623-15.0688,22.5367c-5.2866,5.0203-11.5331,8.6575-18.1188,11.5453
		c-6.5266,2.8618-13.2422,5.424-20.0842,7.3892c-4.596,1.3201-9.5413,1.551-14.3567,1.9518
		c-8.2491,0.6866-16.5134,1.407-24.7818,1.5672c-5.4619,0.1058-10.9437-0.7246-16.4136-1.1723
		c-3.2153-0.2632-6.467-0.3679-9.6284-0.947c-7.0487-1.2912-14.4837-2.3525-19.6484-7.7533
		c-5.1073-5.3408-9.4734-11.384-12.0683-18.558c-3.0278-8.371-4.9284-16.9005-6.131-25.7386
		c-1.1196-8.2283-2.3173-16.3788-2.0411-24.7042c0.068-2.048-0.0696-4.1849-0.6181-6.139c-0.3084-1.0987-1.4943-2.164-2.5512-2.8058
		c-8.3702-5.0832-16.897-3.4016-25.3385-0.2288c-2.6562,0.9984-5.0527,2.6702-7.6694,3.7986
		c-1.1744,0.5065-2.5984,0.4344-3.9091,0.6249C319.9744,388.35,319.702,388.2885,319.4295,388.2269z M368.6606,398.091
		c-0.1441,0.0143-0.2883,0.0285-0.4324,0.0427c0.846,7.8651,1.6212,15.7386,2.5551,23.5932
		c1.3157,11.0656,3.3484,21.8139,11.4898,30.4084c2.6246,2.7706,5.3306,5.0555,8.8872,6.3227
		c8.7832,3.1294,18.0417,3.1538,27.1476,3.6829c6.3493,0.369,12.788-0.4408,19.1642-0.987
		c7.1577-0.6131,14.2939-1.4878,21.4322-2.3122c7.8044-0.9014,14.8854-3.9778,21.7436-7.5736
		c6.4653-3.3898,13.0468-6.3265,16.4505-13.8461c3.4787-7.6852,6.2617-15.3645,7.1012-23.7892
		c0.6035-6.0569,1.7673-12.0558,2.5432-18.0983c0.6859-5.3428,1.4093-10.6979,1.6968-16.0701
		c0.2902-5.4215,0.1259-5.7168-5.2125-6.8784c-5.0637-1.1017-10.2762-1.5161-15.4211-2.2487
		c-3.7259-0.5305-7.4359-1.4322-11.1744-1.5657c-10.4171-0.3722-20.8448-0.5011-31.2694-0.5929
		c-10.3353-0.0911-20.6724-0.061-31.0081,0.0067c-2.8792,0.0188-5.7587,0.3273-8.6337,0.5583
		c-8.697,0.6989-17.4016,1.3261-26.0825,2.1899c-3.3624,0.3346-6.6659,1.246-10.0024,1.8607
		c-1.7695,0.3259-2.2581,1.359-2.154,3.0834C367.9283,383.2788,368.2765,390.686,368.6606,398.091z M212.6477,368.6917
		c-0.0202-0.1795-0.0405-0.3591-0.0607-0.5387c-7.155,0.7362-14.3259,1.3475-21.4601,2.2484
		c-5.591,0.7061-11.1426,1.7365-16.6996,2.693c-2.1544,0.3708-3.4805,1.3603-3.1653,3.9833
		c1.3923,11.5864,2.4613,23.2143,4.0189,34.7771c1.0719,7.9571,2.0187,16.0387,6.4432,23.1022
		c0.1904,0.3039,0.2572,0.6876,0.4577,0.9824c2.1772,3.2014,2.8631,7.329,6.6669,9.5334
		c10.9968,6.3728,21.9343,12.6519,35.0806,13.6353c10.3851,0.7769,20.7146,2.7336,31.097,2.98
		c8.9493,0.2124,17.9366-1.2709,26.9101-1.9647c10.4578-0.8085,16.8649-7.5363,21.1955-15.9478
		c2.8093-5.4568,3.9367-11.8712,5.2462-17.979c1.0305-4.8072,1.2065-9.7996,1.7257-14.7136
		c0.3966-3.7527,0.8383-7.5052,1.0682-11.2695c0.1769-2.8962-0.0561-5.8164,0.0912-8.7159
		c0.2657-5.2308,0.6301-10.4581,1.0587-15.6782c0.1459-1.7769-0.4965-2.7808-2.2082-3.0381
		c-5.4896-0.8253-10.9662-1.7961-16.4836-2.3611c-5.9956-0.6139-12.0324-0.8208-18.0493-1.2334
		c-6.562-0.45-13.1228-1.3345-19.6823-1.318C241.4809,367.9054,227.0645,368.3901,212.6477,368.6917z"/>
	<path class="st0" d="M488.5722,95.3021c-0.3205-1.0959-1.2168-2.546-0.8157-3.1981c0.5009-0.8143,2.0651-1.3433,3.1781-1.3569
		c15.2811-0.186,29.3021,4.5835,42.7232,11.3447c15.6536,7.8859,29.6754,18.0802,41.5189,31.042
		c5.5687,6.0946,10.5914,12.6876,12.114,21.1763c0.7458,4.1583,0.2034,8.1928-1.1129,12.1915
		c-2.3101,7.0181-6.3016,13.0304-11.3625,19.1418c4.1285,2.7019,8.048,5.4772,12.1644,7.9207
		c11.4044,6.7698,22.0424,14.5462,30.724,24.6111c10.5712,12.2556,19.308,25.6433,23.3582,41.6259
		c2.0004,7.8939,2.0555,15.8526,1.0238,23.8476c-0.594,4.6027-1.9789,9.1642-2.0493,13.7589
		c-0.0983,6.4232,1.499,12.7458,5.3711,17.9763c4.2877,5.792,9.1057,11.1994,13.8126,16.6713
		c9.1574,10.6459,16.9705,22.0424,20.1528,35.9972c1.4459,6.3407,1.6862,12.725,0.9631,19.2709
		c-1.4333,12.9781-5.6921,24.8722-12.6954,35.7796c-3.8971,6.0695-9.1075,10.9323-15.3771,14.5827
		c-4.4794,2.608-8.1581,2.268-12.1284-1.0687c-3.5209-2.9591-2.5928-8.5783,1.9205-11.9064
		c2.2426-1.6537,4.4047-3.4165,6.6284-5.0964c8.2526-6.2343,13.1225-14.7178,15.6853-24.5048
		c1.2389-4.7307,2.2892-9.7205,2.1537-14.5573c-0.2787-9.9514-3.3511-19.2211-9.8015-27.0093
		c-5.8227-7.0303-12.1208-13.6697-17.8746-20.7534c-6.903-8.4984-12.0712-17.8357-13.723-28.9854
		c-0.9675-6.5302,0.1845-12.7003,1.3696-18.9409c2.2344-11.7668,1.0922-23.0942-4.1901-33.8832
		c-8.7562-17.885-22.0151-31.6157-38.8476-42.1035c-5.4042-3.3673-10.6408-7.0442-15.6992-10.9128
		c-3.7498-2.8678-6.0311-7.1572-6.5732-11.6679c-0.3273-2.7222,1.0453-6.0152,2.5547-8.506
		c2.2718-3.7489,5.3035-7.043,8.0634-10.4894c5.4798-6.8428,5.7572-12.5482,1.1652-20.2739
		c-4.1138-6.921-9.6212-12.6594-15.2849-18.2434c-8.3149-8.198-17.5503-15.2339-27.7303-20.9846
		c-10.8782-6.1451-22.2755-10.9259-34.7226-12.8123c-2.0204-0.3062-4.0882-0.3002-6.134-0.4386
		C488.9207,94.7988,488.7465,95.0504,488.5722,95.3021z"/>
	<path class="st0" d="M77.8668,585.0977c-8.8432-0.5695-15.4968-3.6827-21.6708-8.1132
		c-11.131-7.9876-17.7808-19.0953-21.8865-31.8351c-2.4078-7.4714-2.0264-15.1985-1.1114-22.945
		c2.196-18.5905,10.8092-34.3701,21.1164-49.4813c3.5778-5.2452,6.8948-10.5984,8.0162-17.1069
		c1.3212-7.6683-0.1625-14.6194-5.2289-20.3317c-6.2311-7.0255-12.8896-13.6923-19.6286-20.2412
		c-7.2741-7.0688-13.1912-15.0064-16.8019-24.4995c-5.6596-14.8799,0.4229-29.9966,12.8472-38.6254
		c0.3651-0.2535,0.7884-0.5636,1.1989-0.5862c1.5449-0.0852,3.0958-0.0623,4.6444-0.0798
		c-0.0585,1.5148,0.3856,3.3115-0.2745,4.4892c-1.6545,2.9516-3.8774,5.5778-5.75,8.4152
		c-5.5428,8.3986-5.0426,17.888,1.1086,26.6349c5.0297,7.1522,11.8189,12.4045,18.5988,17.6707
		c10.2455,7.958,19.1207,17.0817,24.268,29.1975c2.6633,6.2689,3.2283,12.9049,2.5336,19.7563
		c-1.3777,13.5872-7.996,24.9545-14.8979,36.1872c-5.5903,9.0983-9.8678,18.6105-11.9238,29.1697
		c-3.5795,18.3837,5.6904,33.5989,20.4764,39.5637c2.6095,1.0527,5.5051,1.468,8.3077,1.9498
		c2.8747,0.4942,7.0121,3.0644,7.1056,4.9452c0.2826,5.6863-1.7906,10.5804-6.0508,14.2226
		C81.3882,584.7156,78.8949,584.7861,77.8668,585.0977z"/>
	<path class="st0" d="M52.5446,242.8826c-0.2406,4.5363,0.0397,9.1809-0.8743,13.5772c-0.8443,4.0609-3.0624,7.8304-6.504,10.5028
		c-1.087,0.844-2.0929,0.6954-3.3395-0.6078c-4.8966-5.1194-6.2875-11.5137-7.4652-18.1225
		c-1.3824-7.7581-0.2427-15.3379,1.1353-22.9298c0.731-4.0272,1.1441-8.1503,2.2939-12.0556
		c2.6522-9.0081,8.2074-16.1642,16.5211-20.3102c6.4776-3.2303,13.7512-4.8287,20.5586-7.4452
		c5.3772-2.0668,10.6566-4.2549,15.3568-7.9026c6.4431-5.0003,10.4847-11.3586,12.9444-18.9291
		c1.6506-5.0804,2.99-10.2787,4.9292-15.2444c2.6163-6.6994,5.3668-13.3844,8.6481-19.7733
		c2.3394-4.5548,5.2438-8.9765,8.6628-12.7658c2.3604-2.6161,5.8556-4.4406,9.157-5.919c4.5576-2.0409,9.3308-3.7182,14.1555-5.0167
		c7.0194-1.8891,14.1383-3.7146,21.5246-2.1764c3.0002,0.6248,6.0145,1.2894,8.9086,2.2714
		c1.5134,0.5135,2.9321,1.6003,4.0845,2.7404c0.4697,0.4647,0.4936,2.0699,0.0524,2.5974c-0.6012,0.7186-1.8789,1.3171-2.8005,1.234
		c-2.2918-0.2066-4.5537-1.2307-6.8139-1.1885c-3.331,0.0622-6.9587,0.0555-9.9113,1.3397
		c-6.6378,2.8871-13.1717,6.1796-19.2879,10.0365c-3.6403,2.2956-7.9095,4.3309-9.9415,8.5895
		c-1.5493,3.2471-2.9279,6.5846-4.2074,9.9485c-0.9507,2.4994-1.6974,5.0848-2.397,7.6693
		c-0.9156,3.3824-1.5535,6.8445-2.5648,10.1956c-1.7558,5.8182-3.4114,11.6958-5.6668,17.3251
		c-1.8651,4.6552-4.2288,9.1828-6.9216,13.4171c-3.8517,6.0565-7.8774,12.0803-14.1467,16.0688
		c-5.538,3.5232-11.396,6.2526-17.7481,8.0567c-5.3514,1.5199-10.6811,3.2727-15.7724,5.4916
		c-2.9465,1.2841-5.9618,3.2531-7.9126,5.7283c-1.7518,2.2229-2.4319,5.4952-2.9778,8.418
		c-0.9342,5.0022-1.3943,10.093-2.0535,15.1466C52.2953,242.8609,52.4199,242.8717,52.5446,242.8826z"/>
	<path class="st0" d="M325.1983,589.1723c-8.7247,0.078-16.8985-1.4054-24.0319-6.744
		c-8.9296-6.6828-14.6984-15.6465-18.677-25.9164c-1.4517-3.7474-3.2373-7.3709-4.573-11.156
		c-0.7927-2.2461-0.9962-4.6988-1.4809-7.0553c-0.4178-2.0312,0.6657-3.0699,2.4308-3.5283c2.8438-0.7384,5.681-1.6558,8.5797-1.992
		c3.9359-0.4564,7.9254-0.5007,11.8949-0.6071c8.4252-0.2258,16.8546-0.3087,25.2782-0.5786
		c8.6683-0.2777,17.329-0.8158,25.9982-1.0449c11.0499-0.2921,22.1047-0.4187,33.1583-0.5371
		c1.6889-0.0181,3.4141,0.2545,5.0663,0.6361c2.5116,0.5802,3.34,2.566,3.6656,6.6378c0.3929,4.914-1.6638,9.1693-3.4128,13.4366
		c-4.8323,11.7908-12.0897,21.8533-23.451,28.036c-8.1496,4.4348-16.9005,7.7296-26.2445,8.9122
		C334.6779,588.2689,329.9327,588.678,325.1983,589.1723z M381.2929,540.5751c-30.646,3.2984-60.8969,6.5543-91.6567,9.8649
		c4.102,4.7429,8.3289,9.3773,12.254,14.2545c2.7838,3.4592,6.1922,5.8141,10.4435,6.6448
		c5.0667,0.9899,10.199,1.8782,15.3404,2.1889c5.7162,0.3456,11.7362,1.0547,17.1604-0.2794
		c11.4265-2.8101,22.1867-7.4299,29.4001-17.6234C377.4756,551.0455,379.9009,546.1171,381.2929,540.5751z"/>
	<path class="st0" d="M301.4813,202.3911c0.1375,12.2902-3.4041,21.6756-10.0419,29.7143
		c-4.2136,5.1029-10.2603,7.6547-16.5766,9.5287c-9.4038,2.7901-18.8898,5.3945-28.0865,8.7706
		c-15.3286,5.627-24.013,16.9351-26.556,33.0464c-1.5854,10.0448-2.5119,20.2614-7.0398,29.6035
		c-1.2133,2.5034-2.4394,5.0256-3.9378,7.3606c-3.0162,4.7003-7.9367,4.6921-11.0892,0.0336
		c-1.102-1.6284-2.1321-3.3665-2.8308-5.1938c-1.3809-3.6112-1.2368-7.1188,0.0373-10.9552
		c1.7331-5.2186,2.8802-10.7063,3.6159-16.1678c2.3178-17.2071,7.77-33.0537,19.9657-45.8151
		c6.314-6.6069,14.7051-9.9673,23.4605-12.0473c10.1492-2.4112,20.3667-4.5644,30.6109-6.5372
		c8.9677-1.727,16.2836-8.5102,18.0771-17.6954c0.6852-3.509,0.9386-7.1244,1.1199-10.7049
		c0.3066-6.0571,0.3713-12.1262,0.6089-18.1875c0.0412-1.0513,0.0958-2.5787,0.7393-3.0217
		c1.0542-0.7257,2.5984-0.9483,3.9319-0.9364c0.4165,0.0037,1.0824,1.4143,1.1878,2.2379
		c0.7842,6.1284,1.5017,12.2664,2.145,18.4114C301.179,197.2392,301.3519,200.6616,301.4813,202.3911z"/>
	<path class="st0" d="M399.6104,242.4289c6.202,0.3611,11.8323-1.8781,17.5823-3.5684c2.7217-0.8002,5.5076-1.404,8.2908-1.9664
		c2.5798-0.5214,6.5371,2.6893,6.1671,5.2741c-1.4723,10.2857-4.506,16.514-15.6864,19.4997
		c-16.3945,4.3782-32.3008,2.4385-47.5479-4.6742c-12.5422-5.8509-20.1682-16.0463-23.0119-29.3569
		c-1.1125-5.207-0.5424-10.9352,0.1226-16.3196c0.8501-6.8829,2.5063-13.6719,3.9382-20.4755
		c1.0569-5.0219-2.241-7.7858-5.42-10.4125c-5.3187-4.3946-11.4908-6.8841-18.4867-6.9452c-3.171-0.0277-6.08,0.7882-8.1256,3.4227
		c-1.0088,1.2993-1.9315,1.1989-2.8706,0.0862c-3.3111-3.9234-4.0282-7.3126,1.2477-10.3328
		c6.9424-3.9742,14.5599-3.9259,21.9674-1.6627c9.0341,2.7602,17.0133,7.4692,22.2322,15.6617
		c1.4119,2.2164,2.3905,5.1728,2.341,7.766c-0.1302,6.8168-1.1504,13.6125-1.409,20.4321
		c-0.2373,6.2594-0.7436,12.5984,2.0522,18.5968c2.1377,4.5864,5.5524,8.0399,10.1551,9.5217
		c6.3441,2.0423,12.9673,3.2403,19.5027,4.6534C394.9226,242.1202,397.288,242.1749,399.6104,242.4289z"/>
	<path class="st0" d="M622.0156,557.9918c1.3242,4.5052,2.9442,8.7818,3.8151,13.2059c2.8733,14.5951,0.8839,28.3749-8.5625,40.2776
		c-3.4276,4.3189-8.5118,6.7519-13.8548,8.4252c-6.3644,1.9932-12.8568,3.182-19.3715,1.5047
		c-6-1.5447-10.5824-5.4719-14.283-10.4255c-1.1271-1.5087-0.4149-2.5217,0.8673-2.9801c3.003-1.0739,6.0487-2.1871,9.1733-2.7187
		c3.2661-0.5558,6.6438-0.583,9.9744-0.6061c7.8151-0.0541,14.1232-3.2775,18.7805-9.3446
		c3.4174-4.4518,3.739-9.8721,3.3782-15.3399c-0.5951-9.0188-5.4313-16.7523-7.5023-25.3082
		c-0.5185-2.1417-0.6158-4.5112-0.3148-6.6945c0.3998-2.9003,2.6465-4.2639,5.3875-4.9288
		c6.5754-1.5952,13.2429-2.9171,19.6734-4.9743c7.1768-2.2959,13.4231-6.2889,18.4133-12.1387
		c3.3994-3.985,4.6722-8.6399,4.8907-13.6555c0.5283-12.1286-2.5201-23.6388-6.207-35.041
		c-0.7077-2.1888-0.9902-4.5221-1.3839-6.8033c-0.3452-2.0011,1.5015-2.2346,2.6-2.4164c0.8259-0.1366,2.3607,0.6587,2.6983,1.4268
		c4.9916,11.3523,9.8887,22.7625,11.9798,35.0964c2.1802,12.8588-0.1617,24.8129-8.3854,35.0886
		c-6.5342,8.1647-15.5698,12.8842-25.2562,16.3842C626.4354,556.781,624.2658,557.3188,622.0156,557.9918z"/>
	<path class="st0" d="M312.087,33.8666c-0.5985-0.6326-1.388-1.1687-1.7644-1.9136c-2.3566-4.6629-6.6988-6.4648-11.2789-7.803
		c-4.1899-1.2242-8.4169-2.4488-12.7134-3.1383c-3.0913-0.4961-6.3675-0.4481-9.4828-0.0414
		c-4.4134,0.5762-8.8371,1.4238-13.1052,2.6722c-5.1268,1.4996-9.4977,4.5138-13.3515,8.2133
		c-2.6432,2.5374-5.3951,4.9917-7.7744,7.7616c-1.2655,1.4733-2.1062,3.4593-2.6746,5.3531
		c-1.2556,4.1835-2.2554,8.446-3.2903,12.6931c-1.5791,6.4804-4.4536,12.3294-8.024,17.9516
		c-2.7111,4.2691-5.5133,8.3577-9.5105,11.5216c-5.7859,4.5799-11.8132,8.2903-19.6314,8.5024
		c-7.1587,0.1942-12.785-2.4964-18.1252-6.9436c-5.3354-4.4432-8.1573-10.1734-10.1429-16.5449
		c-1.2296-3.9457-0.2579-4.9025,3.9-4.3358c6.9189,0.9431,13.2434,3.3415,19.2588,6.8461c2.9687,1.7296,6.235,1.2676,8.988-0.661
		c3.9569-2.7719,8.0554-5.4898,11.4343-8.8864c2.2453-2.2572,3.7218-5.516,4.8701-8.5786
		c2.4581-6.5558,3.9615-13.5115,6.8495-19.8507c2.202-4.8334,5.2241-9.4967,10.1985-12.4203
		c2.3487-1.3804,4.131-3.7118,6.4574-5.1464c2.9713-1.8322,6.1459-3.4147,9.3947-4.6936c3.0462-1.1991,6.2593-2.0881,9.4766-2.7151
		c7.0474-1.3734,14.0904-0.861,21.1696,0.2115c6.2723,0.9502,12.1716,2.88,17.7404,5.7637
		c4.6521,2.409,8.9239,5.5051,11.3294,10.331c0.7991,1.6031,0.5145,3.7463,0.7253,5.6426
		C312.7024,33.7274,312.3947,33.797,312.087,33.8666z"/>
	<path class="st0" d="M420.524,45.385c-5.1931-5.7263-11.7195-8.8505-18.6464-10.7908c-7.6126-2.1324-15.4268-3.6704-23.2412-4.9151
		c-5.4861-0.8738-11.1351-1.269-16.6833-1.075c-7.3469,0.2569-14.6658,1.3042-21.9981,1.9974
		c-2.4176,0.2286-4.838,0.4321-7.2598,0.6117c-2.8402,0.2106-5.0903-0.7269-6.481-3.6434c0.4528-0.3547,0.9164-0.9998,1.4952-1.1288
		c8.6243-1.9229,17.2547-3.8209,25.9021-5.6371c9.9323-2.0861,19.9183-2.4571,30.0655-1.629
		c9.2546,0.7552,18.3134,2.068,26.9336,5.5517c6.693,2.7049,13.059,5.9573,18.1524,11.3585
		c4.0451,4.2896,4.2266,9.1871,2.8083,14.337c-0.7028,2.5519-2.1872,4.8808-3.1729,7.3681
		c-0.2374,0.5991-0.1257,1.563,0.2126,2.1269c2.2112,3.6852,5.2725,6.4727,9.5852,7.2418
		c4.4881,0.8004,9.0417,1.2979,13.5869,1.6988c5.6528,0.4987,11.3628,0.4954,16.973,1.2603
		c2.2262,0.3035,4.4486,1.8315,6.3059,3.2743c1.5561,1.2088,1.9026,2.9439,0.424,4.951c-2.5471,3.4576-5.7092,5.1979-10.0229,5.2926
		c-10.2013,0.224-20.394,0.4101-30.3571-2.2799c-7.324-1.9775-12.7238-6.5284-16.3839-13.0894
		c-1.4744-2.643-2.7253-5.4394-3.7944-8.273c-1.607-4.2591,0.5445-7.6116,3.0108-10.8309
		C418.8547,47.9666,419.6466,46.6753,420.524,45.385z"/>
	<path class="st0" d="M173.9743,300.231c0-3.8055,0.0614-6.4391-0.0221-9.0681c-0.0536-1.6895,0.6276-2.5525,2.3051-2.6224
		c1.5654-0.0653,3.2164-0.1934,3.6205,1.8827c0.595,3.0575,1.2899,6.1119,1.6116,9.202c0.3817,3.6661,0.3233,7.3757,0.6126,11.0541
		c0.8417,10.7027-2.6872,20.1917-8.248,29.0084c-8.1064,12.8529-19.0244,22.4745-33.5995,27.3442
		c-8.1379,2.7189-16.4843,4.3397-25.1426,2.1536c-4.3828-1.1066-7.3828-4.0033-9.9893-7.32
		c-1.5238-1.9389-2.6443-4.2726-3.58-6.5773c-1.3443-3.3111-0.4016-4.8104,2.9866-5.7213
		c5.2504-1.4115,10.4899-2.2208,15.9519-1.1147c12.1504,2.4605,22.6056-1.7726,32.3406-8.5535
		c7.492-5.2185,14.2025-11.2213,18.119-19.6835C174.0447,313.5085,174.1773,306.2855,173.9743,300.231z"/>
	<path class="st0" d="M600.6634,395.3629c-0.4463,9.8994-2.5545,19.583-8.2073,28.2279c-1.8027,2.7569-5.1628,4.0222-8.2513,3.2824
		c-1.7435-0.4176-3.1389-3.7595-2.4614-6.5108c0.7231-2.9375,1.5558-5.8698,2.6259-8.6965
		c4.9062-12.9602,3.8165-25.6452-1.3898-38.2381c-4.6172-11.1679-13.7294-16.3373-24.8258-19.023
		c-8.7314-2.1133-17.5175-4.0585-26.1292-6.5891c-6.5487-1.9244-12.4876-5.2939-17.7513-9.7702
		c-6.1754-5.2516-9.0625-12.1132-9.9693-19.9476c-0.124-1.0716-1.6963-2.9411,0.6563-3.1675
		c0.8466-0.0815,2.4837,1.5061,2.7137,2.5602c2.796,12.8163,12.2045,18.3368,23.6816,21.0616
		c7.1824,1.7052,14.6029,2.525,21.9608,3.3454c11.0502,1.2321,21.488,3.9095,30.2595,11.1772
		c5.0431,4.1786,8.2775,9.6825,11.0649,15.4797C598.2058,375.9695,600.6645,386.9277,600.6634,395.3629z"/>
	<path class="st0" d="M5.9814,323.5099c0.2204-13.1564,4.1804-23.4449,12.7721-31.3062
		c5.0407-4.6122,11.0201-8.3406,16.9802-11.7654c5.7155-3.2842,11.9281-5.7145,17.9639-8.4274
		c8.6524-3.889,11.5939-7.5981,11.812-17.5541c0.0318-1.4526,0.1225-2.9184-0.0232-4.3569c-0.2123-2.0976,1.0655-3.08,2.7055-3.4327
		c1.7236-0.3707,2.5452,0.8135,2.8856,2.4584c2.075,10.0278,1.549,19.6942-5.7487,27.5358
		c-3.1792,3.416-7.5633,5.7556-11.5351,8.3798c-8.8048,5.8174-17.4095,11.8423-24.8397,19.4397
		c-4.458,4.5583-7.2829,9.8148-7.5241,16.1461c-0.0776,2.0369,0.8498,4.409,2.0515,6.1086
		c1.0574,1.4954,2.1864,2.8599,1.5751,4.5584c-1.2775,3.5493-2.6585,7.1072-4.471,10.4007c-1.0522,1.912-2.9932,1.795-4.849,0.3372
		C9.2387,336.9276,6.0346,330.2933,5.9814,323.5099z"/>
	<path class="st0" d="M261.5961,331.1655c2.496-0.1328,7.4572-0.5432,12.4233-0.6135c3.783-0.0535,7.5995,0.1025,11.3518,0.5653
		c4.9574,0.6113,6.9408,4.311,5.1501,9.0269c-0.4369,1.1506-0.876,2.3023-1.3702,3.4287c-2.1897,4.9905-2.6776,5.2383-8.8334,4.7059
		c-4.8356-0.4182-9.6602-0.9679-14.4857-1.4962c-5.9788-0.6546-11.953-1.3503-17.9302-2.0193
		c-0.7179-0.0804-1.443-0.1593-2.1632-0.1472c-10.1407,0.17-20.3032,0.0081-30.4146,0.6493
		c-7.9236,0.5024-15.7771,2.058-23.6765,3.0254c-2.1471,0.2629-4.4639,0.5178-6.4828-0.032
		c-1.3524-0.3683-2.3167-2.1621-3.4546-3.3181c0.9052-0.7741,1.7026-2.0132,2.7319-2.2517
		c12.4268-2.8802,24.845-5.8271,37.352-8.3228C234.0884,331.913,246.5426,330.6545,261.5961,331.1655z"/>
	<path class="st0" d="M447.7192,275.3841c0.1012-10.5706-0.6875-21.061-5.1421-30.7701c-1.7657-3.8485-4.3018-7.4374-6.9752-10.7507
		c-3.0638-3.7974-6.7658-7.0738-9.9789-10.7609c-0.9058-1.0394-1.894-3.3011-1.4068-3.9994
		c1.125-1.6128,3.3439-1.7473,5.0656-0.5844c3.6284,2.4509,7.2329,4.9615,10.6556,7.688
		c13.2106,10.5234,19.0354,24.9874,21.7722,41.1036c1.6569,9.7565,3.2454,19.4986,6.912,28.8315
		c2.278,5.7983-0.1465,11.2916-3.3759,16.2243c-1.1968,1.8279-2.9533,1.7387-4.6632,0.2892
		c-6.258-5.305-9.0182-12.5719-10.7111-20.1779C448.6292,286.8962,448.3998,281.0899,447.7192,275.3841z"/>
	<path class="st0" d="M79.7444,623.5898c0.6588-4.4888,1.3682-9.5305,2.1661-14.5583c0.1359-0.8563,0.4408-1.895,1.0427-2.416
		c0.7724-0.6686,1.9242-0.8991,2.9126-1.3184c0.1619,0.8615,0.5611,1.755,0.4502,2.5798
		c-1.6386,12.1928-0.7993,23.9899,5.838,34.7435c4.4222,7.1648,11.2178,10.4748,19.4599,10.451
		c4.4611-0.0129,8.9098-1.0866,13.3824-1.3017c3.7477-0.1802,7.5329,0.0619,11.2797,0.3762
		c1.7111,0.1436,2.1352,1.3607,1.2216,2.9468c-4.1403,7.1879-9.6601,12.0626-18.5558,12.2192
		c-10.0578,0.1769-19.0067-2.4692-26.359-9.4887c-5.94-5.6711-9.6079-12.7196-11.2035-20.7277
		C80.5401,632.8852,80.3223,628.5511,79.7444,623.5898z"/>
	<path class="st0" d="M96.8805,608.441c1.616-10.6975,2.9974-21.4377,4.9299-32.0778c1.3017-7.1671,3.3796-14.1934,5.1179-21.2809
		c0.1476-0.6018,0.235-1.2672,0.5621-1.7635c0.3836-0.5819,0.9989-1.011,1.5137-1.5064c0.3785,0.608,1.1283,1.2528,1.0725,1.8181
		c-0.2718,2.7554-0.7469,5.4913-1.1722,8.2307c-1.2181,7.8458-2.5647,15.674-3.6311,23.5402
		c-0.736,5.4297-1.5606,10.9171-1.4942,16.3683c0.0801,6.582-0.0783,13.3513,3.1751,19.4684
		c1.3915,2.6164,3.2649,4.3636,6.5934,4.1959c1.637-0.0826,3.3239,0.5785,4.9696,0.9797c1.7392,0.424,1.8382,1.5508,0.9887,2.8571
		c-4.2189,6.488-11.0765,7.4108-16.3046,0.4818c-4.6718-6.1917-5.9079-13.5471-5.4835-21.2061
		C97.4388,608.5114,97.1597,608.4762,96.8805,608.441z"/>
	<path class="st0" d="M642.986,584.684c2.4098-0.6887,3.574,0.1302,4.0565,2.6986c1.2365,6.5822-0.6653,12.669-2.9624,18.5751
		c-5.355,13.7687-14.8256,23.8246-28.275,30.0684c-4.9512,2.2985-10.2096,1.863-15.415,1.6966
		c-0.795-0.0254-1.5604-0.9804-2.3394-1.5055c0.6054-0.5537,1.1267-1.2681,1.8293-1.6364
		c6.8167-3.5728,13.905-6.6942,20.4482-10.7065c11.2219-6.8813,18.4514-16.9919,21.6-29.8176
		C642.668,591.0431,642.6503,587.8434,642.986,584.684z"/>
	<path class="st0" d="M121.6332,320.3643c2.3969-1.2917,4.239-2.6724,6.3108-3.3391c15.3832-4.9505,22.3746-17.0445,26.9477-31.2664
		c1.7391-5.4085,1.7834-10.9806,1.6326-16.5702c-0.0436-1.6147,0.2105-3.1032,2.2041-2.911
		c0.7461,0.0719,1.9205,1.0199,2.0202,1.6978c2.2391,15.2274-1.8546,28.9569-10.144,41.6316
		c-4.304,6.5808-9.7522,11.8626-17.5615,13.9384C129.0877,324.5967,125.2428,324.0191,121.6332,320.3643z"/>
	<path class="st0" d="M579.92,650.8375c5.6923,1.6998,11.4534,3.2005,17.0616,5.1429c10.0107,3.4672,18.3136,0.4712,25.5434-6.4642
		c3.1866-3.0568,5.9359-6.5683,8.9019-9.857c0.5428-0.6019,1.0856-1.3682,1.7859-1.6197c0.7871-0.2827,1.7529-0.0679,2.6409-0.0695
		c-0.4014,0.5646-0.8129,1.1226-1.2026,1.6953c-1.7119,2.5165-3.2631,5.1606-5.1558,7.5324
		c-4.7321,5.9302-9.6117,11.8641-17.0217,14.5507c-9.7106,3.5206-18.657,1.292-26.8964-4.4932
		c-1.7623-1.2374-3.4462-2.5959-5.0845-3.9944c-0.5313-0.4536-0.802-1.2124-1.1918-1.8316
		C579.5072,651.2319,579.7136,651.0347,579.92,650.8375z"/>
	<path class="st0" d="M32.5535,452.8001c0.6972-2.5459,1.0202-4.9052,1.971-6.9762c2.8433-6.1933,1.2471-11.3427-3.3464-15.8477
		c-1.4603-1.4322-3.4037-2.391-4.7755-3.8877c-1.0335-1.1275-1.5079-2.7676-2.2312-4.1795c1.482-0.1036,3.2784-0.8015,4.3936-0.2115
		c5.9254,3.1345,10.6874,7.4747,13.0247,14.0398c2.2173,6.2281-0.7863,15.1724-4.6781,18.2788
		c-0.8344,0.666-2.1162,1.0875-3.1596,1.0306C33.292,455.0215,32.9127,453.5188,32.5535,452.8001z"/>
	<path class="st0" d="M344.2338,494.3022c0.9323,4.4153-0.6464,7.6481-2.385,10.8169c-1.2187,2.2214-2.981,2.2203-4.9785,1.0465
		c-4.5913-2.6979-7.5602-6.8464-10.1394-11.333c-0.6655-1.1576-1.3443-2.3552-1.709-3.623
		c-0.2929-1.0182-0.1202-2.1704-0.1541-3.2631c1.3676-0.0038,2.9359-0.4335,4.0535,0.0932
		c1.4893,0.7019,2.6724,2.1013,3.9066,3.2849c1.7746,1.7019,3.3457,3.244,6.3138,2.2778
		C340.6284,493.1185,342.57,494.0323,344.2338,494.3022z"/>
	<path class="st0" d="M120.4168,300.8052c1.4986-1.6682,2.4766-3.1391,3.7995-4.1656c6.9739-5.412,12.2694-12.1495,16.1392-20.0335
		c0.7817-1.5925,1.7364-2.1808,3.9563-1.0383c-1.9039,3.826-3.4781,7.8317-5.7719,11.3709
		c-2.4805,3.8271-5.4644,7.3728-8.5489,10.7487C127.7541,300.1354,124.7405,301.3761,120.4168,300.8052z"/>
	<path class="st0" d="M368.6606,398.091c-0.3841-7.405-0.7323-14.8122-1.1792-22.2134c-0.1041-1.7245,0.3846-2.7575,2.154-3.0834
		c3.3366-0.6147,6.64-1.5261,10.0024-1.8607c8.6809-0.8638,17.3855-1.4911,26.0825-2.1899c2.875-0.231,5.7545-0.5395,8.6337-0.5583
		c10.3357-0.0677,20.6728-0.0977,31.0081-0.0067c10.4247,0.0918,20.8524,0.2207,31.2694,0.5929
		c3.7386,0.1335,7.4485,1.0352,11.1744,1.5657c5.1448,0.7325,10.3574,1.1469,15.4211,2.2487
		c5.3384,1.1616,5.5027,1.457,5.2125,6.8784c-0.2875,5.3722-1.0109,10.7273-1.6968,16.0701
		c-0.7758,6.0425-1.9397,12.0414-2.5432,18.0983c-0.8395,8.4248-3.6225,16.1041-7.1012,23.7892
		c-3.4037,7.5196-9.9852,10.4564-16.4505,13.8461c-6.8582,3.5958-13.9392,6.6722-21.7436,7.5736
		c-7.1382,0.8245-14.2745,1.6991-21.4322,2.3122c-6.3762,0.5463-12.8148,1.356-19.1642,0.987
		c-9.106-0.5291-18.3644-0.5535-27.1476-3.6829c-3.5566-1.2672-6.2626-3.5521-8.8872-6.3227
		c-8.1415-8.5945-10.1742-19.3428-11.4898-30.4084c-0.9339-7.8546-1.7091-15.7281-2.5551-23.5932
		C368.3724,398.1195,368.5165,398.1053,368.6606,398.091z M418.8375,396.1918c0.1745,0.8033,0.2439,0.9792,0.2461,1.1559
		c0.0188,1.5427-0.056,3.091,0.0494,4.6272c0.6562,9.5648,4.432,17.579,12.9622,22.3257
		c7.2772,4.0495,14.5919,4.0443,21.5752-1.6856c8.0777-6.6279,12.5055-14.6772,11.9011-25.5213
		c2.2878,0.8669,4.5444,1.7176,6.7976,2.5771c2.2657,0.8642,4.5567,1.6703,6.7856,2.6213c3.5818,1.5282,6.6368,0.7023,9.3966-1.8444
		c3.6544-3.3722,3.7804-9.4146-1.1077-11.6133c-7.576-3.4077-15.3241-5.8947-23.3694-7.8834
		c-8.8278-2.1822-17.688-4.0451-26.6663-2.4401c-9.5183,1.7015-18.7853,4.574-27.3741,9.2716
		c-3.0296,1.657-5.6693,3.759-6.8701,6.9794c-0.9101,2.4407-3.1986,4.6005-2.408,7.5445
		C406.8844,400.234,412.7662,398.2449,418.8375,396.1918z"/>
	<path class="st0" d="M212.6477,368.6917c14.4169-0.3016,28.8332-0.7863,43.2508-0.8227c6.5595-0.0165,13.1203,0.868,19.6823,1.318
		c6.0168,0.4126,12.0537,0.6195,18.0493,1.2334c5.5174,0.565,10.994,1.5357,16.4836,2.3611
		c1.7117,0.2574,2.3541,1.2613,2.2082,3.0381c-0.4286,5.2201-0.7931,10.4474-1.0587,15.6782
		c-0.1473,2.8995,0.0857,5.8197-0.0912,8.7159c-0.2299,3.7643-0.6717,7.5168-1.0682,11.2695
		c-0.5192,4.9139-0.6953,9.9064-1.7257,14.7136c-1.3094,6.1079-2.4369,12.5223-5.2462,17.979
		c-4.3306,8.4115-10.7376,15.1393-21.1955,15.9478c-8.9736,0.6938-17.9609,2.1771-26.9101,1.9647
		c-10.3823-0.2465-20.7118-2.2032-31.097-2.98c-13.1463-0.9835-24.0838-7.2625-35.0806-13.6353
		c-3.8038-2.2043-4.4897-6.332-6.6669-9.5334c-0.2005-0.2948-0.2673-0.6785-0.4577-0.9824
		c-4.4245-7.0635-5.3713-15.1451-6.4432-23.1022c-1.5576-11.5628-2.6266-23.1908-4.0189-34.7771
		c-0.3152-2.623,1.0108-3.6124,3.1653-3.9833c5.557-0.9565,11.1086-1.9869,16.6996-2.693
		c7.1342-0.9009,14.3051-1.5123,21.4601-2.2484C212.6072,368.3326,212.6274,368.5122,212.6477,368.6917z M214.0621,397.2146
		c0.2097,2.8817-0.0737,5.6753,0.6855,8.149c2.1626,7.0469,5.8654,12.8979,11.8736,17.7668
		c6.5194,5.2831,16.4613,4.3071,21.7562,0.9292c5.7796-3.6872,9.6097-8.9758,11.1707-15.6362
		c0.8941-3.8145,1.1012-7.7899,1.6726-12.1081c5.7944,1.9296,11.7554,3.9146,18.4248,6.1356
		c-1.7385-5.1297-2.8051-10.4337-7.5312-13.1083c-15.5142-8.7797-31.8975-14.0157-49.9875-9.8729
		c-10.3865,2.3787-20.952,4.3392-30.3011,9.8674c-1.3221,0.7818-2.6475,2.2592-3.0969,3.6894
		c-1.5902,5.0608,5.1995,11.6832,10.2698,9.7433c2.9315-1.1216,5.8669-2.2334,8.8109-3.3216
		C209.9679,398.6505,212.1432,397.8984,214.0621,397.2146z"/>
	<path class="st0" d="M381.2929,540.5751c-1.392,5.542-3.8172,10.4704-7.0583,15.0505
		c-7.2133,10.1935-17.9735,14.8133-29.4001,17.6234c-5.4242,1.334-11.4442,0.6249-17.1604,0.2794
		c-5.1414-0.3107-10.2737-1.199-15.3404-2.1889c-4.2513-0.8307-7.6597-3.1857-10.4435-6.6448
		c-3.9251-4.8772-8.152-9.5116-12.254-14.2545C320.3959,547.1294,350.6469,543.8735,381.2929,540.5751z"/>
	<path class="st0" d="M418.8375,396.1918c-6.0713,2.0531-11.9531,4.0422-18.0818,6.1147c-0.7906-2.9439,1.4978-5.1038,2.408-7.5445
		c1.2008-3.2204,3.8405-5.3224,6.8701-6.9794c8.5889-4.6976,17.8558-7.5701,27.3741-9.2716
		c8.9784-1.605,17.8385,0.2579,26.6663,2.4401c8.0453,1.9887,15.7934,4.4757,23.3694,7.8834
		c4.8881,2.1987,4.7621,8.2411,1.1077,11.6133c-2.7598,2.5467-5.8148,3.3726-9.3966,1.8444
		c-2.2289-0.951-4.5199-1.7571-6.7856-2.6213c-2.2532-0.8594-4.5098-1.7101-6.7976-2.5771
		c0.6045,10.8441-3.8234,18.8934-11.9011,25.5213c-6.9832,5.7299-14.298,5.7351-21.5752,1.6856
		c-8.5302-4.7467-12.306-12.7609-12.9622-22.3257c-0.1054-1.5362-0.0305-3.0846-0.0494-4.6272
		C419.0814,397.1711,419.0119,396.9952,418.8375,396.1918z"/>
	<path class="st0" d="M214.0621,397.2146c-1.9189,0.6838-4.0942,1.436-6.2527,2.2338c-2.944,1.0881-5.8794,2.2-8.8109,3.3216
		c-5.0703,1.9398-11.86-4.6826-10.2698-9.7433c0.4494-1.4302,1.7748-2.9076,3.0969-3.6894
		c9.3491-5.5283,19.9146-7.4888,30.3011-9.8674c18.0899-4.1429,34.4732,1.0932,49.9875,9.8729
		c4.7262,2.6747,5.7928,7.9787,7.5312,13.1083c-6.6694-2.2209-12.6304-4.206-18.4248-6.1356
		c-0.5714,4.3181-0.7785,8.2936-1.6726,12.1081c-1.5611,6.6603-5.3911,11.949-11.1707,15.6362
		c-5.2949,3.3779-15.2369,4.354-21.7562-0.9292c-6.0081-4.8689-9.711-10.7199-11.8736-17.7668
		C213.9885,402.8899,214.2718,400.0963,214.0621,397.2146z"/>
</g>
</svg>
