<?xml version="1.0" encoding="utf-8"?>
<!-- Generator: Adobe Illustrator 24.3.0, SVG Export Plug-In . SVG Version: 6.00 Build 0)  -->
<svg version="1.1" id="Layer_1" xmlns="http://www.w3.org/2000/svg" xmlns:xlink="http://www.w3.org/1999/xlink" x="0px" y="0px"
	 viewBox="0 0 864.8683 879.4299" style="enable-background:new 0 0 864.8683 879.4299;" xml:space="preserve">
<style type="text/css">
	.st0{fill:#FFFFFF;}
</style>
<g>
	<path class="st0" d="M345.6775,9.2487c16.5631,0.7903,34.0515,1.3753,50.9464,6.1857c5.8629,1.6693,11.3033,4.8373,16.9071,7.3861
		c0.8002,0.364,1.5125,1.0225,2.1263,1.6756c1.6772,1.7844,1.4047,3.7084-0.939,4.0802c-2.9507,0.4681-6.1595,0.6001-9.0387-0.0659
		c-4.6677-1.0798-9.1583-2.926-13.7231-4.45c-9.2451-3.0865-18.9092-3.4357-28.4852-4.2506
		c-26.8723-2.2866-53.3671,0.4589-79.4309,6.9759c-16.9188,4.2304-33.0963,10.6648-47.1446,21.2451
		c-18.1339,13.6574-31.8307,30.8871-40.0506,52.2658c-4.0336,10.4909-7.8573,21.1039-12.6346,31.2576
		c-6.6993,14.2391-17.6809,24.4062-32.1548,30.7865c-7.1382,3.1466-14.4989,6.0034-21.139,10.0168
		c-11.1637,6.7475-22.2377,13.7513-30.0104,24.7893c-9.7082,13.7865-15.1666,28.7143-12.9837,45.7624
		c1.0944,8.5468,2.7569,17.0194,4.0505,25.5426c0.8988,5.9221,1.656,11.8671,2.3899,17.8126
		c1.5867,12.8546-2.7201,23.9232-10.3175,34.024c-7.199,9.5711-14.8445,18.865-21.3205,28.9081
		c-10.8249,16.7875-17.7675,35.1487-18.7679,55.3484c-0.5014,10.1241,1.9142,19.8476,5.105,29.3573
		c4.5911,13.6832,9.7266,27.1949,13.9406,40.9904c4.9386,16.1677,6.8061,32.7386,3.0928,49.4926
		c-2.6214,11.827-8.4627,22.3545-13.9364,33.0271c-3.3084,6.4507-6.577,12.9709-9.1824,19.7228
		c-5.0081,12.9786-5.3501,26.0977,0.735,38.9155c4.9025,10.3268,10.217,20.4603,15.0191,30.8321
		c3.5381,7.6416,6.8853,15.4083,9.7035,23.3375c3.7499,10.551,1.9904,20.6188-4.3337,29.8182
		c-8.0524,11.7131-13.5819,24.5848-17.8862,38.0555c-4.7196,14.7706-1.854,28.6733,6.3313,41.1053
		c9.1189,13.85,21.1302,25.101,35.7168,33.3408c13.8619,7.8304,23.3491,19.3638,28.9608,34.1791
		c0.3204,0.8459,0.569,1.7234,0.7922,2.6012c2.0317,7.9904-0.8787,12.1161-9.0871,12.5345c-2.6883,0.137-5.456-0.0993-8.1008-0.6119
		c-2.8475-0.5518-4.78-1.959-5.6346-5.3466c-1.6876-6.6898-5.4754-12.5082-10.0226-17.6119
		c-3.9612-4.4461-8.5282-8.3551-12.8708-12.4555c-0.5709-0.539-1.3578-1.015-2.1152-1.1656
		c-9.3679-1.8618-16.4923-7.6157-22.8655-14.0724c-6.8582-6.9482-14.1776-13.9252-19.1041-22.1953
		c-10.2926-17.278-13.4807-36.0065-6.6458-55.7115c4.083-11.7712,8.2506-23.4858,14.7755-34.1686
		c5.313-8.6986,6.1324-17.7305,3.3352-27.4657c-3.4418-11.9783-9.313-22.8168-14.8176-33.8672
		c-3.5574-7.1414-6.7893-14.4644-9.7941-21.8576c-6.3646-15.6602-4.5923-31.2172,1.6261-46.4117
		c3.7101-9.0656,8.0837-17.8609,12.2075-26.7553c9.3204-20.1031,9.9943-40.9798,4.7052-62.0612
		c-3.086-12.3005-7.3412-24.3167-11.2848-36.3907c-4.5279-13.863-8.7549-27.7403-7.4004-42.6113
		c1.2771-14.0215,5.7689-27.0843,11.5435-39.8216c5.1869-11.4409,12.3011-21.5425,20.2844-31.1555
		c4.6342-5.5802,8.8014-11.5474,13.2022-17.3225c7.3937-9.7027,9.3243-20.7086,7.58-32.5008
		c-1.4607-9.8745-3.0899-19.7257-4.7691-29.566c-3.4932-20.4711,1.4849-38.7729,13.3902-55.6154
		c6.3294-8.9542,14.4849-15.6417,23.3687-21.7509c9.251-6.3617,18.9276-11.9172,29.4862-15.7143
		c17.072-6.1394,27.9343-18.5129,34.9983-34.574c3.7586-8.5458,6.7034-17.4473,10.0955-26.1571
		c8.2931-21.2943,22.0984-38.546,39.8683-52.5344c19.0048-14.9605,41.272-23.0227,64.5901-28.2645
		C300.347,11.2201,322.4749,9.1142,345.6775,9.2487z"/>
	<path class="st0" d="M507.5168,12.6556c34.3915,0.4707,67.4913,6.9659,98.9243,21.1937
		c13.5369,6.1273,26.3237,13.5262,37.8883,22.9025c14.6776,11.9002,23.4538,27.2357,26.3105,45.9268
		c1.1108,7.2679,1.9898,14.5752,3.2684,21.8126c2.541,14.3826,9.1436,26.5599,20.5958,35.7976
		c8.2632,6.6653,16.7735,13.0237,25.1484,19.5512c14.6859,11.4462,29.3176,22.9722,42.041,36.6532
		c10.1897,10.9566,18.4423,23.1337,22.5439,37.7551c2.5987,9.2642,1.553,18.5187,0.1066,27.8213
		c-1.2119,7.7953-2.2202,15.6302-3.04,23.4766c-1.0233,9.794,2.5184,18.1416,9.3952,24.8728
		c5.1642,5.055,10.7369,9.7487,16.4774,14.1472c11.5367,8.8397,23.3391,17.3669,32.7063,28.6361
		c13.2761,15.9721,18.0702,34.1625,14.2864,54.714c-2.4852,13.4981-7.3055,26.2054-12.0541,38.9705
		c-4.8221,12.9635-8.6823,26.1469-10.292,39.9789c-1.8513,15.9071,0.9686,30.8769,7.5578,45.3357
		c3.9518,8.6713,7.8651,17.3764,11.3387,26.2452c4.7145,12.0371,3.9487,23.8922-2.7141,35.1016
		c-6.5398,11.0024-13.2586,21.8987-19.9155,32.8315c-6.0325,9.9072-11.0787,20.2003-13.1913,31.7554
		c-1.8217,9.9648-0.403,19.7303,1.4997,29.4699c2.0709,10.6007,4.538,21.129,6.3978,31.7648
		c3.0882,17.662-1.1186,33.9113-10.5182,48.9271c-5.5475,8.862-11.3821,17.5706-19.2542,24.5855
		c-5.8368,5.201-12.2469,9.5974-20.6055,9.1089c-2.3859-0.1394-4.8574-0.7886-7.0498-1.7506
		c-2.5494-1.1188-2.6559-3.1589-0.509-4.8855c16.9083-13.5991,25.9183-31.9096,30.8431-52.4716
		c2.2378-9.3431,0.7025-18.8017-0.9911-28.1311c-2.1233-11.6952-4.5993-23.3365-6.3525-35.0862
		c-2.1259-14.2473,0.2329-28.069,7.1183-40.6534c6.9178-12.6439,14.8689-24.7197,22.2577-37.1098
		c3.0181-5.061,6.0149-10.1665,8.5506-15.4766c4.3345-9.0769,3.0864-18.3362-0.4958-27.2545
		c-3.6181-9.0073-7.7498-17.8115-11.7649-26.6555c-8.0414-17.713-9.6244-36.0956-6.2938-55.1375
		c2.822-16.1346,8.6168-31.276,14.5779-46.4089c4.3381-11.0129,7.7086-22.2972,8.1743-34.2747
		c0.6838-17.5883-5.6531-32.5712-17.9971-44.6099c-8.6714-8.4569-18.4353-15.8285-27.9797-23.3438
		c-7.3139-5.759-14.1938-11.8203-19.829-19.3047c-5.576-7.4059-7.4694-15.6923-6.463-24.6594
		c0.9509-8.4726,2.0009-16.9659,3.6597-25.3206c3.249-16.3626-0.9195-30.836-9.8234-44.495
		c-6.8746-10.5458-15.7057-19.2499-24.836-27.7118c-13.412-12.4303-28.1247-23.2235-42.8738-33.9822
		c-7.5615-5.5157-14.7789-11.519-20.5552-18.9814c-7.9662-10.2914-11.457-22.3068-13.2739-34.9836
		c-1.158-8.0801-2.2472-16.2058-4.082-24.1459c-4.0219-17.4043-14.9076-30.0224-29.324-39.8354
		c-27.2977-18.5812-57.5387-29.0587-90.3271-32.3506c-13.6603-1.3715-27.3389-2.5729-41.0385-0.6088
		c-4.1235,0.5912-8.1974,1.5696-12.2607,2.5139c-1.0985,0.2553-2.1597,0.9182-3.0933,1.5939
		c-4.0085,2.9013-8.2814,3.0845-12.6228,1.0959c-3.2449-1.4863-3.5421-4.2934-0.6373-6.3342
		c1.8985-1.3338,4.0946-2.374,6.3017-3.1172C476.16,13.8274,487.8637,12.4196,507.5168,12.6556z"/>
	<path class="st0" d="M690.6212,363.1719c0.4594,9.229,1.0632,18.4636,1.3459,27.7079c0.4417,14.4357,0.448,28.8868,1.0294,43.3156
		c1.0822,26.8591,2.1815,53.7224,3.7599,80.5553c1.8891,32.1158,3.1426,64.2411,2.584,96.407
		c-0.3906,22.4896-6.4849,43.7563-15.4409,64.2065c-4.471,10.2093-8.9996,20.4989-14.6982,30.0375
		c-6.878,11.5129-14.7041,22.5055-22.7007,33.2926c-10.8022,14.5717-21.992,28.8657-33.3353,43.0225
		c-7.1463,8.9186-14.8568,17.3865-22.3643,26.0131c-1.486,1.7075-3.0964,3.3394-4.8251,4.798
		c-14.9466,12.612-30.951,23.4003-49.7303,29.6697c-13.7617,4.5942-26.999,10.8221-41.3855,13.4479
		c-11.1659,2.038-22.3758,3.837-33.573,5.7008c-6.2673,1.0432-12.5276,2.181-18.8326,2.9229
		c-3.1148,0.3665-6.3384,0.0911-9.4845-0.2001c-1.7792-0.1648-4.0967-0.8736-3.7907-3.0251
		c0.1452-1.0212,2.4394-2.1843,3.9231-2.4891c6.042-1.2411,12.1261-2.3308,18.2382-3.152c2.7888-0.3747,3.7477-1.6292,4.107-4.2696
		c1.3211-9.7089,2.7879-19.3992,4.3187-29.0776c0.7364-4.656,1.8413-9.2538,2.5734-13.9104
		c0.3413-2.171,1.5004-3.2142,3.4663-3.5945c5.0858-0.9837,9.1433,0.0716,9.0275,6.5934
		c-0.2205,12.4182-2.6221,24.5224-5.1587,36.6107c-0.274,1.3054-0.5482,2.611-0.858,4.0865c0.9863,0,1.7049,0.1194,2.3701-0.0184
		c6.7575-1.4008,13.4897-2.9299,20.2654-4.2337c2.9127-0.5604,4.3066-2.1406,4.914-4.9531
		c2.0876-9.6671,4.3894-19.2881,6.4435-28.962c1.4674-6.9109,2.643-13.8835,4.0284-20.8126
		c0.1371-0.6854,0.6901-1.5167,1.2886-1.8432c3.6082-1.9683,7.8964,0.2633,8.2225,4.3583
		c0.6562,8.2377-0.7999,16.3012-2.4857,24.2998c-1.5131,7.179-3.3303,14.2938-5.0599,21.6349c0.3291,0,0.6779,0.0916,0.9513-0.0134
		c9.0667-3.4783,18.1163-7.0012,27.1936-10.4515c2.2606-0.8593,3.6102-2.3906,4.0327-4.7109
		c1.851-10.1667,3.8074-20.3171,5.4498-30.5179c1.1823-7.3428,1.9581-14.7523,2.8561-22.1393
		c0.3568-2.9343,2.5298-3.2663,4.7515-3.4341c3.1002-0.2342,5.2505,0.9252,5.6039,3.5267
		c0.5959,4.3881,1.3746,8.9022,0.9396,13.2494c-0.9922,9.9142-2.6718,19.7596-4.0771,29.6322
		c-0.087,0.6108-0.2184,1.2152-0.3291,1.8226c0.2034,0.1948,0.4068,0.3898,0.6102,0.5846
		c4.9019-4.1826,10.1372-8.0406,14.6126-12.6384c4.5408-4.6648,8.252-10.1269,12.4694-15.1191
		c5.7983-6.8632,11.9404-13.4449,17.5555-20.4517c7.8839-9.838,15.8072-19.6849,23.0087-30.0193
		c9.9092-14.2201,20.3196-28.2829,28.4203-43.5264c12.1171-22.8015,21.939-46.8469,24.6049-72.8657
		c1.3359-13.037,1.074-26.3256,0.4873-39.4537c-1.2161-27.2162-3.2819-54.3932-4.7206-81.6011
		c-1.6365-30.9513-1.8748-61.9257-0.2039-92.886c0.8563-15.8676,1.793-31.7425,3.3066-47.5554
		c0.4344-4.5382-0.8359-6.7789-4.1772-9.5616c-16.4252-13.6795-30.1033-29.5151-38.8061-49.4457
		c-5.9883-13.7141-12.7722-27.1088-19.7538-40.3545c-10.3984-19.7279-25.61-35.094-44.4317-46.9508
		c-20.9059-13.1698-43.1971-22.7058-67.9194-25.8133c-3.0588-0.3845-6.1788-0.7593-9.2327-0.5601
		c-2.609,0.1702-5.2537,0.9331-7.721,1.8626c-3.496,1.317-6.8994,1.6236-10.3076,0.0655c-2.5665-1.1733-2.9473-3.3717-0.4991-4.7214
		c2.9537-1.6283,6.2809-3.0074,9.5916-3.4828c11.716-1.6821,23.4151-0.6846,34.9515,1.6355
		c32.0454,6.4445,61.1895,19.4522,86.8864,39.7123c14.4202,11.3692,25.9152,25.4176,34.7499,41.5199
		c7.6832,14.0036,15.1042,28.1522,22.5419,42.2889c8.9885,17.0843,21.2529,31.5744,35.1331,44.8104
		c0.6568,0.6263,1.3127,1.2545,1.9476,1.9027c2.7062,2.763,2.3817,4.6009-1.3475,5.9042
		C695.5811,362.3767,693.04,362.6567,690.6212,363.1719z"/>
	<path class="st0" d="M302.3499,822.7108c-0.2431-5.4036-0.757-10.1924-0.5986-14.9588c0.2044-6.1511,0.9595-12.2833,1.4507-18.4258
		c0.201-2.5144,1.7459-3.659,4.0235-4.0797c0.7109-0.1313,1.4407-0.1984,2.164-0.2189c5.4783-0.1564,6.9576,1.126,7.3249,6.579
		c0.6165,9.1509,1.122,18.3094,1.7485,27.4597c0.2604,3.8027,0.6479,7.6004,1.1317,11.3807
		c0.0952,0.7437,0.7464,1.7696,1.3973,2.0337c5.951,2.4144,11.9587,4.6891,18.1883,7.0967c0-1.6898,0.0986-2.9461-0.0157-4.1827
		c-0.8316-8.9938-0.6579-17.9488,0.6734-26.8955c0.4193-2.8178,1.7767-4.3156,4.5382-4.9754
		c7.839-1.8731,11.7254,0.7402,12.1555,8.6973c0.4116,7.6159,0.5104,15.2488,0.7478,22.8741
		c0.0933,2.9963,0.1061,5.9988,0.339,8.9843c0.0641,0.8224,0.6329,2.1264,1.2353,2.3024c4.3256,1.2646,8.7195,2.2954,13.4241,3.4844
		c0.2935-5.2462,0.2753-10.0571,0.8948-14.7844c0.9165-6.9945,2.2432-13.9373,3.4782-20.8873
		c0.7438-4.1857,4.6125-4.8658,8.4057-4.4316c3.9562,0.4531,5.451,2.1746,5.1507,6.553c-0.596,8.6915-1.4641,17.365-2.2686,26.0413
		c-0.3009,3.245-0.7379,6.4774-1.1469,10.0087c8.0804,1.5397,16.0488,3.0579,24.3285,4.6356
		c0.611-5.2515,1.1122-10.2884,1.8004-15.2997c0.9873-7.1895,2.1318-14.3574,3.1648-21.5408
		c0.3459-2.406,1.7519-3.7286,4.025-4.1853c1.237-0.2483,2.5115-0.4308,3.7694-0.433c5.7216-0.0099,7.2855,1.5246,7.4758,7.2095
		c0.383,11.4356-1.6022,22.6003-3.7742,33.7552c-0.6328,3.25-3.1141,1.0961-4.7619,2.0144
		c0.3735,0.3105,0.6967,0.6158,1.0555,0.8711c1.8497,1.3166,1.4656,2.837-0.1933,3.6101c-1.8342,0.8547-3.9908,1.5259-5.9755,1.4506
		c-5.1583-0.1959-10.3419-0.5723-15.4391-1.3665c-12.5618-1.9571-25.0717-4.2446-37.6192-6.2966
		c-16.9953-2.7794-32.7502-9.4484-48.7297-15.4105c-9.9683-3.7194-19.8545-7.7321-28.5388-13.9816
		c-12.9107-9.2911-25.3183-19.0726-34.7452-32.287c-5.085-7.128-11.8455-13.0348-17.3531-19.8918
		c-18.141-22.5859-35.3802-45.85-50.9314-70.3106c-3.1986-5.0311-5.7561-10.5018-8.2829-15.9219
		c-7.1447-15.3255-13.4842-30.961-17.3748-47.486c-2.6116-11.0924-4.2233-22.325-4.0947-33.7259
		c0.2388-21.1631,0.6802-42.324,1.0345-63.4858c0.0149-0.891,0.0019-1.7825,0.0019-2.8102
		c-3.5087-0.4413-6.9266-0.7476-10.3001-1.3174c-12.7635-2.1561-20.6208-9.898-24.6832-21.9
		c-4.5573-13.464-3.8884-27.0933-0.5978-40.5843c1.6846-6.9071,4.5668-13.5327,7.0756-20.2227
		c0.9926-2.6468,3.2405-4.4044,6.011-4.5438c3.9264-0.1976,7.9628-0.2517,11.8014,0.4538c3.4966,0.6426,4.0791,2.4716,3.8136,6.0865
		c-0.7175,9.7718-1.7384,19.5508-1.8056,29.3327c-0.0705,10.2596,0.8879,20.5385,4.2332,30.3626
		c1.0695,3.1407,2.8681,6.033,4.3331,9.0389c0.3201-0.1207,0.6403-0.2413,0.9604-0.3619
		c0.3926-5.5735,0.9276-11.1411,1.1543-16.7213c1.3164-32.3964,2.5336-64.7968,3.8396-97.1936
		c0.6912-17.1474,1.4715-34.2913,2.2732-51.4339c0.1099-2.3488,0.4882-4.6968,0.9018-7.0168
		c0.5976-3.352,1.7387-4.2643,5.1336-4.4152c3.9906-0.1775,6.1174,0.9036,6.7625,4.0122c0.8099,3.903,1.5421,7.8689,1.7676,11.8383
		c1.2359,21.7617,2.4537,43.5264,3.3977,65.3022c1.2725,29.3535-0.25,58.6698-1.7894,87.9707
		c-1.2293,23.3978-2.9574,46.7704-4.0682,70.173c-0.4728,9.9614-0.4837,20.0116,0.2588,29.9494
		c1.4494,19.3986,7.9704,37.4855,15.028,55.4844c7.5759,19.3204,19.0632,36.1998,30.4114,53.3254
		c11.1639,16.8475,24.1401,32.2507,36.4529,48.1788c7.6518,9.8985,15.8015,19.4619,24.3316,28.6127
		c4.9054,5.2625,11.0137,9.4041,16.5851,14.0447C299.8816,820.7391,300.87,821.5159,302.3499,822.7108z"/>
	<path class="st0" d="M343.6006,103.3013c-1.2463-0.3693-2.5092-0.6041-3.6562-1.1048
		c-11.9567-5.2191-24.3777-5.1354-36.9346-3.2118c-18.1709,2.7835-33.0748,11.9492-46.5599,23.9185
		c-16.3391,14.5024-27.0339,32.5538-33.7964,53.1358c-5.7064,17.3677-12.2195,34.4195-21.4652,50.2512
		c-7.8742,13.4833-18.5448,24.3994-32.0155,32.3787c-6.6594,3.9446-13.8825,5.8196-21.6944,4.0847
		c-0.7971-0.177-1.7225-0.213-2.3447-0.6564c-1.6956-1.2084-3.9582-2.2944-4.7035-3.9953
		c-0.9625-2.1965,1.6401-3.2708,3.1531-4.4862c9.5363-7.6604,17.0212-17.0885,23.3742-27.4367
		c10.5874-17.2454,18.6611-35.6797,25.7356-54.6016c11.7375-31.3934,32.5876-55.0313,62.3237-70.25
		c26.7817-13.7067,55.1499-16.8383,84.4157-9.1598c3.6063,0.9462,7.0632,2.8448,10.2681,4.8226
		c2.8069,1.7322,2.3736,3.9203-0.7654,5.0848C347.2568,102.6977,345.4217,102.8979,343.6006,103.3013z"/>
	<path class="st0" d="M94.2425,721.3652c0.0917-11.0682,2.9475-25.8474,5.917-40.6369c3.1243-15.561,6.0747-31.1635,8.7048-46.8144
		c1.3228-7.8713,1.8561-15.9023-0.1825-23.8068c-0.4702-1.8232-1.2801-3.5778-2.0928-5.2883
		c-0.8605-1.8108-1.733-3.5101-4.4596-2.8252c-1.5909,0.3997-2.996-0.5963-3.3386-2.4461c-0.3462-1.8692,0.6827-3.001,2.2746-3.532
		c5.9738-1.9924,11.4615-0.5729,16.6062,2.6539c8.6198,5.4066,12.2683,13.811,13.7936,23.3832
		c2.1058,13.2151,1.5451,26.4797-0.2768,39.6318c-2.2033,15.9047-5.09,31.7136-7.5555,47.5834
		c-2.9451,18.9568-2.1459,37.7642,4.1425,55.949c4.8896,14.1398,12.4289,26.818,24.2732,36.4803
		c2.9071,2.3716,2.6952,4.4052-0.7971,5.7546c-5.1568,1.9928-10.3121,1.8309-15.2849-0.7313
		c-10.3293-5.3222-17.4724-13.9337-24.1326-23.1305C99.2497,766.2133,94.1634,746.6229,94.2425,721.3652z"/>
	<path class="st0" d="M530.4072,632.3423c0,1.6163,0.0165,2.7115-0.0071,3.8058c-0.0115,0.5366-0.1827,1.0788-0.1376,1.6063
		c1.0732,12.5535-1.7814,24.6724-5.4742,36.3665c-2.5283,8.0066-7.4672,15.2631-11.4261,22.8035
		c-3.9543,7.5316-10.0979,13.0825-16.2653,18.8192c-8.2328,7.6578-17.7766,13.2018-27.2848,18.7845
		c-10.4244,6.1207-22.0865,8.6802-34.1172,9.3461c-18.2062,1.0079-36.2131-0.2934-53.428-6.6782
		c-27.0549-10.0342-43.0439-29.8376-49.5369-57.6754c-2.43-10.4179-3.3734-20.9644-2.7697-31.6389
		c0.3949-6.9836,3.459-10.2972,10.4405-10.1287c6.5073,0.157,12.9833,1.3395,19.4889,1.8816
		c21.0222,1.7517,42.0736,2.2403,63.1525,1.2246c28.6243-1.3793,56.9013-5.7524,85.2024-9.9033
		c5.1156-0.7502,10.1717-1.9148,15.2926-2.6163c2.5696-0.3521,5.2328-0.2242,7.8329-0.032c0.8143,0.0602,1.5606,1.0388,2.338,1.597
		c-0.6812,0.6431-1.3124,1.3537-2.0611,1.905C531.1526,632.174,530.4897,632.309,530.4072,632.3423z M347.6066,646.957
		c-0.0841,1.0988-0.2034,1.8945-0.1972,2.6893c0.1033,13.3113,1.2282,26.5177,5.1318,39.3049
		c5.6605,18.5426,16.4198,33.0869,34.1562,41.7485c10.1941,4.9783,21.2222,6.4977,32.4164,7.6315
		c25.588,2.5916,46.4147-7.348,64.8531-23.8535c4.1732-3.7358,8.8621-7.3514,11.7312-11.9991
		c7.3756-11.9481,14.2309-24.2442,17.7113-38.1018c2.3374-9.3064,2.5963-18.7858,3.6094-28.8971
		C460.8209,646.8958,404.7394,653.8237,347.6066,646.957z"/>
	<path class="st0" d="M720.3787,666.6346c-0.2856-16.8468,2.8669-33.2241,6.6448-49.531
		c5.8983-25.4589,12.1813-50.8418,17.4011-76.4405c4.5616-22.3701,2.9042-44.4713-6.7592-65.5558
		c-0.8317-1.8147-1.734-3.5991-2.6612-5.3673c-0.959-1.829-0.2995-2.858,1.4894-3.5647c3.8817-1.5335,8.4284-0.5074,11.0226,2.9497
		c7.4706,9.9554,12.2426,21.0875,14.8233,33.2984c3.8307,18.1248,1.4648,35.8793-1.8973,53.7579
		c-4.5706,24.3055-11.7507,47.944-17.5386,71.9348c-3.9047,16.1846-7.3848,32.5549-6.0404,49.283
		c1.4748,18.351,3.9322,36.6248,6.0774,54.9186c0.4714,4.0198-0.0284,5.0005-4.0511,5.579
		c-5.1612,0.7422-7.4492-0.6871-8.6649-5.6585C724.951,710.6717,721.4189,688.8403,720.3787,666.6346z"/>
	<path class="st0" d="M608.1216,115.1992c-3.99-3.5195-7.8301-7.2282-11.9948-10.5271
		c-22.7249-18.0004-48.179-31.0153-75.3948-40.688c-7.9473-2.8245-16.0668-5.1687-24.1291-7.6629
		c-2.8172-0.8715-5.743-1.4043-8.5312-2.3509c-1.1466-0.3893-2.0609-1.4628-3.0809-2.225c1.0645-0.7367,2.0771-1.9938,3.2038-2.1061
		c2.6708-0.2662,5.4833-0.41,8.0854,0.132c31.4641,6.5531,61.7251,16.491,89.6578,32.7068
		c11.2457,6.5285,22.0577,13.7402,31.4908,22.7753c2.7308,2.6156,5.2721,5.5434,7.3606,8.6867
		c2.664,4.0094,1.4935,7.4746-3.1599,8.576c-3.9703,0.9397-8.2952,1.2814-12.3423,0.822
		c-10.8406-1.2306-20.722-5.8909-30.9009-9.4798c-11.7948-4.1586-23.6553-8.1306-35.4873-12.1836
		c-0.097,0.2489-0.1941,0.4979-0.2912,0.7468c2.1479,0.9095,4.3226,1.7609,6.4391,2.7384
		c10.7877,4.9819,21.6007,9.9124,32.3082,15.0621c2.4939,1.1995,4.775,2.999,6.8564,4.8561
		c2.2535,2.0107,1.7737,4.5638-1.1486,5.0367c-3.961,0.6409-8.1306,0.8516-12.1052,0.3723
		c-8.5463-1.0305-17.0251-2.6203-25.6555-3.5574c2.5827,0.9557,5.1981,1.8322,7.7417,2.8826
		c6.2901,2.5974,12.5884,5.1828,18.7927,7.9749c1.8796,0.8459,4.5513,1.8103,4.076,4.4418
		c-0.4507,2.4962-3.1789,3.0183-5.2755,3.0599c-4.7015,0.0932-9.4212-0.1408-14.1166-0.4775
		c-7.1534-0.5129-14.2924-1.229-21.4386-1.8466c-0.5828-0.0504-1.1738-0.0067-2.0361-0.0067
		c2.6161,1.7137,5.0728,3.0661,7.2303,4.7922c3.8898,3.1118,3.7595,6.6514-0.6783,8.7532
		c-4.3906,2.0795-9.1641,3.3646-13.8059,4.8876c-0.9082,0.298-1.9933,0.1958-2.9778,0.0937
		c-2.0563-0.2132-4.6158-0.164-5.1104-2.571c-0.1407-0.6849,2.4498-2.1333,3.9549-2.906c2.2131-1.1363,4.5764-1.9803,7.6255-3.2647
		c-1.7785-1.4275-2.851-2.465-4.0863-3.2444c-2.8382-1.7906-5.8809-3.2796-8.6066-5.2199c-2.866-2.0403-2.5107-4.074,0.8194-5.2287
		c1.7721-0.6145,3.7147-1.0839,5.5704-1.0515c8.8947,0.155,17.7862,0.4994,26.6785,0.789c1.1301,0.0368,2.2578,0.1475,3.5297-0.3197
		c-4.5043-1.8255-9.0052-3.6591-13.5135-5.4746c-6.2311-2.5091-12.5127-4.9014-18.6678-7.5841
		c-1.4002-0.6102-2.371-2.2058-3.5394-3.3478c1.4387-0.9452,2.8478-2.642,4.3214-2.7c5.2316-0.2059,10.5297-0.2324,15.7202,0.3757
		c8.1984,0.9605,16.3301,2.4901,24.4907,3.7745c0.5259,0.0828,1.0577,0.1291,1.7665-0.26c-3.5609-1.712-7.0777-3.524-10.6907-5.1183
		c-13.6185-6.0096-27.2789-11.9244-40.8946-17.9404c-1.9813-0.8755-3.9232-1.9491-5.6553-3.2376
		c-0.987-0.7343-2.2511-2.2519-2.0593-3.1242c0.2436-1.108,1.6875-2.3382,2.8817-2.7631c1.924-0.6847,4.0606-0.9868,6.1186-1.0433
		c9.6588-0.2653,18.8938,2.2688,28.1293,4.6104c17.1157,4.3396,33.4257,11.023,49.856,17.354
		c3.9586,1.5254,8.0172,2.7912,12.0299,4.1763C607.6957,115.8431,607.9086,115.5211,608.1216,115.1992z"/>
	<path class="st0" d="M414.5259,187.0675c-2.1514,1.6692-3.8889,3.1325-5.7413,4.4321c-4.7777,3.3519-10.0874,4.6456-15.7667,3.1828
		c-2.1105-0.5436-4.331-1.6456-5.8961-3.1307c-4.2274-4.0114-9.2344-4.8488-14.6103-4.1412
		c-27.1447,3.5726-52.6452,12.2394-76.623,25.3475c-23.6205,12.9127-41.6588,31.0569-51.6656,56.4587
		c-4.822,12.2402-7.3592,25.0456-9.1231,38.0357c-1.4541,10.7089-4.5909,20.7887-12.1523,28.8952
		c-3.4569,3.7061-7.4676,6.7284-13.0206,6.271c-0.9865-0.0812-1.996-0.2291-2.9296-0.5415
		c-2.688-0.8997-2.9893-2.1132-0.9744-4.0058c6.2975-5.9153,9.1289-13.5054,10.0149-21.8
		c1.2635-11.8298,2.3474-23.646,5.7282-35.1426c7.9613-27.073,23.951-48.2856,47.0923-64.0645
		c25.4507-17.3536,53.7899-27.7004,83.9898-33.1023c7.0443-1.26,14.1734-2.1683,21.3024-2.7947
		c6.0631-0.5328,11.9215,1.1122,17.5402,3.2726c2.3144,0.8898,4.3536,2.495,6.9155,4.0098
		c2.6597-2.1801,5.6299-4.5365,8.5092-6.9991c2.391-2.0451,5.118-2.9593,8.2291-3.0932c4.9513-0.2131,8.6426,1.5609,10.7395,6.2433
		c2.5928,5.7899,5.2527,11.5498,8.3101,18.2586c1.0637-1.4014,1.9037-2.8186,3.0369-3.9393c2.774-2.7433,5.6497-5.3871,8.548-8.0004
		c2.8083-2.5321,6.0814-2.5471,9.4568-1.4349c1.9167,0.6316,2.4109,1.7166,0.9654,3.4236
		c-4.4597,5.2661-8.8343,10.6045-13.3139,15.8534c-4.1974,4.9181-9.7295,5.7513-15.3624,3.6941
		c-2.4399-0.8911-4.7914-3.4259-6.0556-5.8115c-1.9715-3.7201-2.9707-7.9535-4.4055-11.961
		C416.4118,192.1036,415.5146,189.7405,414.5259,187.0675z"/>
	<path class="st0" d="M686.4489,760.1005c-0.4189-4.5824-0.7926-9.6541-1.3639-14.7033
		c-1.0546-9.3206,0.5439-18.0245,5.2735-26.2131c3.5594-6.1624,8.7252-6.1631,12.4352-4.9706
		c1.6552,0.532,2.3802,1.4235,1.5432,3.2667c-4.701,10.3528-5.0532,20.9153-2.1483,31.8938
		c3.761,14.2143,2.6017,28.6646,0.8799,43.0422c-0.6357,5.3088-1.5443,10.6066-2.7005,15.827
		c-2.7236,12.2962-10.087,21.9883-18.1486,31.202c-6.3486,7.2557-13.5454,13.4182-22.9062,16.5457
		c-4.6769,1.5625-9.3801,2.9568-14.3873,1.8337c-1.0532-0.2361-2.126-0.5658-3.0695-1.0752
		c-2.4778-1.3376-2.5778-3.463-0.0344-4.682c23.1638-11.102,34.0873-31.0388,39.463-54.8456
		C684.0042,785.1782,685.9191,772.9764,686.4489,760.1005z"/>
	<path class="st0" d="M452.128,130.2423c0,7.3502,0.1643,14.7056-0.0648,22.0487c-0.127,4.0713-1.4251,5.2225-5.3731,5.9789
		c-1.3239,0.2537-2.709,0.3489-4.0565,0.2911c-5.3248-0.2283-6.8754-1.676-7.3302-6.951
		c-1.3258-15.3783-2.5424-30.7662-3.9147-46.1402c-1.0978-12.2985-2.5228-24.5696-3.4885-36.8776
		c-0.5604-7.1421-0.6033-14.3317-0.6796-21.502c-0.0418-3.9237,1.116-4.8961,5.0686-5.1073
		c5.2884-0.2826,6.9801,0.7589,8.3357,6.0228C447.5721,74.9825,452.7058,102.2346,452.128,130.2423z"/>
	<path class="st0" d="M350.1822,397.5616c-7.4122-0.6389-14.8193-1.3463-22.2376-1.9044
		c-29.171-2.1952-58.3793-3.0788-87.6357-2.7249c-3.88,0.047-7.7943-1.3127-11.6527-2.1959
		c-0.7077-0.162-1.6617-1.1437-1.7002-1.7944c-0.0375-0.6348,0.8293-1.7163,1.5115-1.9332c3.1856-1.0123,6.4176-1.9164,9.6822-2.636
		c15.4986-3.4164,31.3233-3.5488,47.0593-4.3415c13.593-0.6848,27.2188-1.0295,40.8282-0.9799
		c11.2644,0.041,22.4805,1.2941,33.4064,4.2697c2.1492,0.5853,4.324,1.5261,6.1368,2.8009
		c3.4414,2.4201,3.4639,5.9527-0.2719,7.7962c-3.4908,1.7225-7.4955,2.4424-11.3188,3.4294
		c-1.1914,0.3076-2.5293,0.0479-3.8001,0.0479C350.1871,397.4509,350.1847,397.5062,350.1822,397.5616z"/>
	<path class="st0" d="M566.4247,393.066c-15.6716,1.1467-36.9415,2.7139-58.2136,4.2523
		c-5.5546,0.4016-11.102,0.3721-16.3914-1.6657c-2.6231-1.0106-5.6736-2.159-5.7426-5.4712
		c-0.071-3.4078,2.8522-4.9246,5.6223-5.9079c8.9821-3.1883,18.3958-4.1551,27.8146-4.8198
		c21.2574-1.5002,42.4597,0.0338,63.6584,1.4534c1.2681,0.0849,2.5427,0.2368,3.8072,0.1852
		c11.1779-0.4567,21.9556,2.3389,32.8616,4.0557c1.9434,0.3059,3.8486,1.0558,5.6693,1.8386
		c0.7029,0.3022,1.567,1.2825,1.5439,1.9245c-0.0231,0.6453-0.9626,1.6378-1.6671,1.8145
		c-3.5816,0.8987-7.2065,2.171-10.8358,2.2365C600.3918,393.217,586.2249,393.066,566.4247,393.066z"/>
	<path class="st0" d="M600.2803,634.1901c-0.4783,7.108-1.1007,14.0218-4.7845,20.2861c-1.7228,2.9295-6.4765,4.2073-9.2087,2.2723
		c-0.5309-0.376-0.8697-1.7655-0.6088-2.4081c6.1399-15.1323,3.8839-30.0522-1.1136-44.8712
		c-0.7107-2.1074-2.0546-4.0306-3.28-5.9261c-1.0955-1.6944-0.5526-2.5168,1.1865-2.8763c2.7676-0.5722,5.2008,0.1228,7.269,2.0732
		c4.4511,4.1976,7.0849,9.4498,8.2399,15.3365C599.0234,623.3934,599.5346,628.8148,600.2803,634.1901z"/>
	<path class="st0" d="M420.3142,589.8583c-3.4776-0.5438-6.5583-0.8194-9.5222-1.5614c-1.9781-0.4952-4.3169-1.4114-4.346-3.9007
		c-0.0295-2.523,2.3413-3.2875,4.3012-3.9261c2.1476-0.6997,4.3924-1.131,6.619-1.5514c4.1584-0.7852,7.8185-2.3031,11.2798-4.9841
		c5.2947-4.1009,11.5453-4.0342,17.6591-1.8912c4.7341,1.6594,5.7158,5.8953,1.722,8.9688
		c-3.4333,2.6422-7.5725,4.7424-11.728,5.976C431.0444,588.548,425.4571,588.9869,420.3142,589.8583z"/>
	<path class="st0" d="M441.6486,171.9933c-0.0688-1.0226-0.12-1.7473-0.166-2.4724c-0.2672-4.1997,0.3967-5.1456,3.7853-5.396
		c4.2229-0.312,5.9204,1.0297,6.1293,4.952c0.0916,1.7208,0.0417,3.4498,0.0337,5.1749c-0.0086,1.8571-0.4981,3.4059-2.5293,4.0222
		c-2.3797,0.722-4.6824,0.7089-6.7361-0.8242c-0.3784-0.2825-0.4651-1.098-0.4947-1.6773
		C441.6015,174.4169,441.6486,173.0551,441.6486,171.9933z"/>
	<path class="st0" d="M347.6066,646.957c57.1328,6.8667,113.2143-0.0612,169.412-11.4772
		c-1.0131,10.1113-1.272,19.5907-3.6094,28.8971c-3.4804,13.8576-10.3357,26.1537-17.7113,38.1018
		c-2.8691,4.6477-7.558,8.2633-11.7312,11.9991c-18.4384,16.5054-39.265,26.445-64.8531,23.8535
		c-11.1941-1.1338-22.2223-2.6532-32.4164-7.6315c-17.7364-8.6616-28.4957-23.2059-34.1562-41.7485
		c-3.9036-12.7872-5.0284-25.9937-5.1318-39.3049C347.4032,648.8515,347.5225,648.0558,347.6066,646.957z"/>
</g>
</svg>
