<?xml version="1.0" encoding="utf-8"?>
<!-- Generator: Adobe Illustrator 24.3.0, SVG Export Plug-In . SVG Version: 6.00 Build 0)  -->
<svg version="1.1" id="Layer_1" xmlns="http://www.w3.org/2000/svg" xmlns:xlink="http://www.w3.org/1999/xlink" x="0px" y="0px"
	 viewBox="0 0 403 471" style="enable-background:new 0 0 403 471;" xml:space="preserve">
<style type="text/css">
	.st0{fill:#FFFFFF;}
</style>
<g>
	<path class="st0" d="M40.224,305.5238c-3.4004-20.3499-7.8452-40.5963-9.8738-61.0821
		c-1.6511-16.6733-0.4565-33.6336-0.3469-50.4655c0.0077-1.1859,1.477-2.3622,2.2667-3.543
		c0.9314,1.3246,2.4959,2.5609,2.6947,3.9876c1.7055,12.2399,2.8364,24.5661,4.7709,36.7663
		c3.1046,19.5792,5.3268,39.4486,10.4472,58.5168c5.4713,20.3751,12.4585,40.6304,21.4527,59.6769
		c6.7545,14.3035,16.3252,27.9328,27.1746,39.4817c14.1391,15.0507,30.2035,28.4932,46.5538,41.1918
		c10.6776,8.2928,23.1916,14.3026,35.2092,20.7242c2.7986,1.4954,7.4651,1.7419,10.3531,0.4719
		c28.0331-12.3277,55.4344-26.2013,76.6154-48.8575c21.352-22.8391,39.0201-48.4216,53.9069-76.204
		c10.9742-20.4807,19.9864-41.289,24.2526-64.0089c2.1627-11.5175,3.0417-23.2834,4.3045-34.9583
		c0.3675-3.3981,0.0565-6.8696,0.0565-10.3075c0.698-0.3613,1.3959-0.7226,2.0939-1.0839c2.0435,2.1414,4.0871,4.2828,6.1307,6.4243
		c0.5257-0.2254,1.0515-0.4509,1.5772-0.6763c-1.936-4.0163-3.3216-8.4406-5.9286-11.9595
		c-4.6903-6.3308-4.9787-6.0597,2.3755-8.9796c0.8167-0.3242,1.2918-1.5088,2.162-2.5877
		c-9.4472-7.1447-18.5499-14.0288-27.9907-21.1686c7.4504-11.8414,18.3762-2.6208,29.6554-5.1513
		c-5.7483-4.838-9.8383-8.9275-14.5485-12.0941c-7.2247-4.8572-14.9355-8.986-22.2871-13.6644
		c-1.1986-0.7628-1.6105-2.7628-2.3861-4.1909c1.5319,0.0161,3.2125-0.3803,4.5734,0.1105
		c19.3823,6.9904,35.2198,19.5287,50.5852,32.7415c1.2517,1.0763,1.731,3.0515,2.9709,5.3554
		c-13.4783,4.2518-24.1359-4.8678-36.9523-4.6557c2.0189,6.829,9.1349,7.0417,13.4296,10.4293
		c5.1007,4.0231,10.7323,7.3746,15.8048,11.429c0.7556,0.604,0.3715,4.2673-0.6449,5.1016
		c-1.8477,1.5166-4.5662,1.9715-7.719,3.1735c2.5033,2.9955,5.33,6.3779,8.1873,9.7969c8.2726-7.5959,8.32-20.858,22.3162-23.857
		c-3.3268,9.5233-6.8067,18.9966-9.937,28.5841c-3.1001,9.495-6.9047,18.9515-8.3247,28.7266
		c-0.7646,5.2631,2.6419,11.2191,4.4854,16.7562c3.4675,10.4149,0.953,20.143-5.3475,28.0825
		c-6.492,8.1809-12.979,17.7329-26.0537,16.4348c-1.5379-0.1527-3.9449,2.3039-4.9684,4.1077
		c-7.1435,12.5887-14.301,25.1835-20.9333,38.045c-10.2885,19.9516-26.6302,35.1475-40.3666,52.3854
		c-13.3762,16.7859-31.8769,27.0359-50.1796,36.8976c-14.0414,7.5656-29.2872,13.3811-44.6212,17.8169
		c-6.0141,1.7397-14.4216-1.0193-20.5523-4.0959c-32.4374-16.2786-60.0885-39.1659-83.7602-66.3385
		c-17.61-20.2144-28.4057-44.8206-38.2047-69.6848c-0.7832-1.9873-2.8717-4.192-4.843-4.8684
		c-27.2861-9.3622-37.8047-33.4276-25.4425-59.5275c1.0581-2.2338,4.7898-3.2005,7.2795-4.7558
		c0.6159,2.6998,2.3565,5.7411,1.6582,8.0417c-3.508,11.5565-1.8419,22.5156,3.6601,32.7404
		c3.1571,5.8669,7.9362,10.8605,11.9852,16.2472C39.4086,306.5095,39.8163,306.0167,40.224,305.5238z M367.8543,266.1601
		c-4.0692,1.2027-9.6083,1.4028-10.2328,3.2582c-3.9766,11.815-6.8699,23.9949-10.5547,37.6679
		C359.876,296.2924,367.4505,284.5089,367.8543,266.1601z M358.966,226.8246c0,6.8545,0,12.7358,0,18.6171
		c0.5806,0.0548,1.1612,0.1096,1.7418,0.1644c1.6898-6.3443,3.3796-12.6887,5.2571-19.7375
		C362.8083,226.2997,360.7741,226.5776,358.966,226.8246z"/>
	<path class="st0" d="M277.88,107.74c-9.3081,5.2029-12.0781-1.8288-13.7985-7.4997c-5.1833-17.0853-14.649-30.8628-27.9677-42.6722
		c-14.6536-12.993-40.4741-16.7347-57.3808-7.322c-12.7455,7.0959-25.0841,15.3143-38.5561,20.6078
		c-14.7399,5.7916-30.4195,10.0252-46.7823,6.3842c-7.4546-1.6588-14.9003-3.3574-22.35-5.0379
		c0.2198-0.9684,0.4395-1.9368,0.6593-2.9052c6.6235,1.164,13.2596,3.3348,19.8676,3.2522
		c9.5288-0.1191,19.588-0.2804,28.4156-3.3328c11.1665-3.8612,21.8218-9.8791,31.7819-16.3722
		c10.9016-7.1069,22.7358-10.1464,35.0883-13.2222c21.6598-5.3932,41.2176,0.6337,58.712,11.3448
		c15.1246,9.2601,26.6765,23.5381,32.0866,41.1967C279.1324,96.9807,277.88,102.6367,277.88,107.74z"/>
	<path class="st0" d="M103.8472,157.5391c4.8567-1.7348,9.5953-4.3677,14.5936-5.0249
		c11.8712-1.5608,15.1833-10.7994,18.846-19.6657c8.6251-20.8785,22.383-35.5159,44.5031-43.1595
		c13.0982-4.5261,25.6296-5.1104,38.0727-1.4897c13.7703,4.0069,24.2536,13.0948,28.4402,27.5732
		c0.6284,2.1731-1.2034,5.058-1.8972,7.6137c-1.7775-1.7489-4.4128-3.1854-5.1827-5.3012
		c-3.1745-8.7242-8.248-15.3219-16.977-19.1784c-4.4865-1.9822-8.1941-6.436-12.7572-7.4084
		c-15.6058-3.3257-28.6945,1.3097-41.0389,12.0975c-11.0863,9.6883-15.2439,22.0353-20.331,34.7026
		c-2.0425,5.0861-6.8125,10.0071-11.6134,12.8622C128.1641,157.3103,117.0508,162.3046,103.8472,157.5391z"/>
	<path class="st0" d="M311.1091,216.5829c-3.3182,3.739-5.1423,5.7944-8.5455,9.6293c8.1969-2.6454,14.4468-4.6625,20.6967-6.6796
		c0.1985,0.8724,0.3969,1.7448,0.5954,2.6172c-12.778,9.7928-27.2028,11.2984-43.0682,7.3988
		c-5.7802-1.3529-13.6441-4.161-19.862-1.1267c-2.9724,1.5877-6.118,3.2678-10.8034,5.7705
		c5.4088-10.1889,17.0955-15.2052,29.5567-11.8989c10.2622,2.7229,18.4176-0.1319,26.7053-5.0684
		C306.9622,216.8808,307.8194,217.0054,311.1091,216.5829z"/>
	<path class="st0" d="M108.3426,227.3832c-8.4559,0.1814-17.9703,2.6668-27.0022-3.2809c5.4092,0,10.8185,0,16.2277,0
		c0.2636-0.7232,0.5272-1.4463,0.7908-2.1694c-1.95-1.219-4.0551-2.2552-5.7894-3.7283c-0.9768-0.8297-1.3423-2.3796-1.9831-3.6051
		c1.433-0.2482,3.3895-1.2266,4.2183-0.632c8.5894,6.162,17.7935,5.8803,27.8082,4.5299
		c9.6365-1.2994,19.3868,0.3459,26.9034,7.6837c2.0882,2.0385,3.4347,4.8374,4.3177,8.263
		c-8.3248-6.0761-15.686-13.5729-26.5476-10.9716C120.234,225.2623,112.2196,226.5612,108.3426,227.3832z"/>
	<path class="st0" d="M141.9224,37.5847c1.1896-1.9418,1.9162-4.6184,3.6432-5.7074c12.2327-7.7138,24.8484-13.7357,39.4213-17.0965
		c20.0298-4.6193,39.1098-1.3991,56.9697,4.9842c15.5098,5.5434,29.3864,16.3256,40.5394,29.2749
		c2.5859,3.0023,3.8394,7.268,5.2218,11.126c0.4464,1.2456-0.6566,3.0466-1.2487,5.3705
		C256.0227,25.6222,188.7961-2.6651,141.9224,37.5847z"/>
	<path class="st0" d="M296.0587,116.0603c11.6387-11.4525,25.8795-12.9579,38.778-7.7106
		c14.7493,6.0003,27.89,15.919,31.7137,32.0144c-10.8454-6.0613-22.6549-11.5638-33.2258-18.8616
		C321.4931,113.3343,308.7411,116.4114,296.0587,116.0603z"/>
	<path class="st0" d="M366.2591,113.9937c-4.3252-1.938-7.8135-2.8407-10.5119-4.8206
		c-14.2018-10.4204-29.8324-14.4724-47.2452-11.5598c-0.6976,0.1167-1.488-0.3215-2.3161-0.5206
		c3.2424-4.9722,19.6539-11.2429,28.2727-8.8055C347.5045,91.9767,362.5956,94.0835,366.2591,113.9937z"/>
	<path class="st0" d="M96.1087,149.0078c-16.5271,27.7507-61.6162,42.0515-83.4142,31.5081
		c2.9465-0.348,6.0614-1.4946,8.8121-0.9142c17.5319,3.6999,31.9205-3.4661,45.3412-13.1555
		c5.9762-4.3147,10.502-10.6443,16.4923-14.9326C86.2725,149.4145,91.048,149.8921,96.1087,149.0078z"/>
	<path class="st0" d="M62.7259,111.3721c-14.7519,6.3476-18.0863,20.2321-22.6105,33.2837
		c-4.5377,13.0907-14.9268,26.2347-27.5084,24.2991c12.9241-8.8976,18.1506-21.9648,22.1656-35.8974
		C38.1381,121.3792,52.2434,110.2681,62.7259,111.3721z"/>
	<path class="st0" d="M209.8372,377.5655c-7.1848,13.8878-50.1249,15.7273-55.7197,2.707
		c6.5208,1.0219,12.7196,3.1104,18.7276,2.6591c7.937-0.5964,15.7422-3.1078,23.5693-4.9441
		C200.838,376.9497,205.2184,372.5506,209.8372,377.5655z"/>
	<path class="st0" d="M98.145,91.6953c-3.0035,0.3414-6.0718,1.2583-8.9998,0.9286c-16.2327-1.8275-32.4092-3.9316-47.9982,3.4337
		c-2.1552,1.0183-4.68,1.2538-7.2424,0.673C53.833,83.3125,75.6799,85.7887,97.6618,89.431
		C97.8229,90.1858,97.9839,90.9405,98.145,91.6953z"/>
	<path class="st0" d="M299.4926,80.0715c9.8571-3.6032,19.7142-7.2064,29.5713-10.8095c0.3928,1.0964,0.7856,2.1929,1.1784,3.2893
		c-9.8147,3.5325-19.6293,7.065-29.444,10.5975C300.3631,82.123,299.9278,81.0972,299.4926,80.0715z"/>
	<path class="st0" d="M190.5655,308.3763c-4.0297-1.9866-8.1549-3.8109-12.0154-6.0848c-0.8634-0.5085-0.7985-2.594-1.161-3.9535
		c1.3589-0.0763,3.072-0.7187,4.0139-0.1288c3.6585,2.2914,7.0718,4.9744,10.5764,7.5116
		C191.5081,306.606,191.0368,307.4911,190.5655,308.3763z"/>
	<path class="st0" d="M367.8543,266.1601c-0.4038,18.3488-7.9783,30.1323-20.7874,40.9261
		c3.6848-13.6729,6.5781-25.8529,10.5547-37.6679C358.246,267.563,363.7851,267.3629,367.8543,266.1601z"/>
	<path class="st0" d="M358.966,226.8246c1.8081-0.247,3.8423-0.5249,6.9989-0.9561c-1.8775,7.0489-3.5673,13.3932-5.2571,19.7375
		c-0.5806-0.0548-1.1612-0.1096-1.7418-0.1644C358.966,239.5604,358.966,233.6791,358.966,226.8246z"/>
</g>
</svg>
