<?xml version="1.0" encoding="utf-8"?>
<!-- Generator: Adobe Illustrator 24.3.0, SVG Export Plug-In . SVG Version: 6.00 Build 0)  -->
<svg version="1.1" id="Layer_1" xmlns="http://www.w3.org/2000/svg" xmlns:xlink="http://www.w3.org/1999/xlink" x="0px" y="0px"
	 viewBox="0 0 727.4095 842.151" style="enable-background:new 0 0 727.4095 842.151;" xml:space="preserve">
<style type="text/css">
	.st0{fill:#FFFFFF;}
</style>
<g>
	<path class="st0" d="M671.7659,374.191c-4.3958-10.3937-9.6954-20.1101-16.569-28.8687
		c-7.6286-9.7208-15.5761-19.1909-23.2708-28.8608c-1.5974-2.0074-2.7225-4.3965-4.0132-6.6397
		c-0.9976-1.7339,0.212-2.4322,1.5365-3.038c1.3362-0.6111,2.2902-0.4807,3.0231,1.033c0.6133,1.2666,1.482,2.462,2.4418,3.5001
		c7.5066,8.1181,15.2318,16.0406,22.5646,24.3115c11.7302,13.231,20.9026,28.1865,28.9769,43.8761
		c3.2203,6.2578,0.7089,11.4493-2.3383,16.5742c-1.4166,2.3826-4.0112,1.4223-6.1867,1.0399
		c-0.9307-0.1636-1.8093-0.6234-2.9768-1.0442c3.2308,6.0879,8.6553,10.7081,8.2592,18.2268
		c-0.3628,6.8871-3.2889,12.6112-6.8176,18.5369c5.8749,9.1657,5.0151,18.8449,0.6129,28.503
		c-2.3143,5.0773-4.7918,10.1836-11.3323,11.6039c0,1.1264,0.0781,2.3914-0.0125,3.6441
		c-0.6948,9.6122-1.4213,19.2221-2.1403,28.8326c-0.3705,4.9511-0.7421,9.9021-1.1188,14.8527
		c-0.7171,9.4239-1.4383,18.8475-2.1578,28.2712c-0.3701,4.8463-0.5728,9.7126-1.1506,14.5341
		c-0.8422,7.0269-1.7994,14.0479-2.9882,21.0236c-1.772,10.3981-3.8535,20.7431-5.6865,31.1313
		c-2.9816,16.8975-5.7516,33.8635-12.4792,49.7932c-5.9748,14.1473-13.3869,27.5145-23.2935,39.344
		c-5.8408,6.9746-11.8502,13.8107-17.8887,20.616c-5.0931,5.7399-10.0261,11.6738-15.5831,16.9382
		c-9.7866,9.2713-21.3481,16.0977-33.2119,22.3544c-13.8566,7.3078-27.6863,14.6845-41.7582,21.5595
		c-7.5881,3.7073-15.6016,6.5784-23.5234,9.5604c-12.8462,4.8358-25.8803,9.1878-38.628,14.2645
		c-7.221,2.8757-14.2107,6.295-21.8815,7.8876c-5.6005,1.1626-11.2038,2.312-16.8086,3.4537
		c-6.2778,1.2787-12.5291,2.7205-18.8458,3.7662c-7.7584,1.2844-15.5453,2.5731-23.3727,3.2
		c-4.8157,0.3857-9.7756-0.1419-14.5906-0.8248c-9.094-1.2896-18.1465-2.8987-27.1822-4.5604
		c-3.4015-0.6255-6.6923-1.8308-10.0615-2.658c-8.33-2.0451-16.7901-3.6516-24.9785-6.1528
		c-6.1079-1.8659-11.6976-5.4642-17.8245-7.2249c-16.5085-4.7441-32.1346-11.7741-48.02-18.0845
		c-8.5408-3.3928-16.3024-8.6941-24.6506-12.6365c-14.0987-6.658-28.0744-13.5674-41.0351-22.2248
		c-6.8576-4.5807-13.404-9.8595-19.2446-15.6734c-7.7891-7.7536-15.0356-16.1051-21.994-24.6254
		c-6.7353-8.2472-13.3129-16.7104-19.0649-25.6543c-10.2536-15.9431-16.8338-33.474-20.2993-52.1474
		c-3.2116-17.3052-6.5798-34.5822-9.6776-51.9075c-1.2297-6.8773-2.0934-13.8336-2.8029-20.7867
		c-0.7581-7.4294-1.1228-14.8986-1.686-22.3483c-0.713-9.4326-1.4243-18.8655-2.1898-28.2941
		c-0.685-8.4377-1.428-16.8708-2.179-25.3029c-0.1752-1.9676-0.4865-3.923-0.7587-6.07c-0.3306,0.4295-0.647,0.8488-0.9719,1.2613
		c-1.4815,1.8811-3.1856,1.9553-5.0413,0.4692c-5.8131-4.6558-7.7361-11.3145-9.5811-18.073
		c-2.1156-7.7497-2.6333-15.6578-2.0904-23.5895c0.4028-5.8839,1.3303-11.7499,2.3459-17.5677
		c0.7558-4.3293,1.4079-8.3216-1.6653-12.2468c-1.6901-2.1587-2.3745-5.1047-3.5498-7.7812
		c-2.7507,0.5064-6.5003-1.1799-8.202-3.9556c-0.8949-1.4598-1.6951-2.9782-2.6068-4.4269
		c-2.9776-4.7315-2.6969-9.4529-0.7416-14.5779c6.2467-16.3733,14.8927-31.5454,23.0944-46.9388
		c4.8087-9.0253,9.8977-17.9014,14.8698-26.8394c1.2118-2.1783,5.2296-3.6407,7.4378-2.4994
		c0.7544,0.39,1.7211,1.7235,1.5496,2.3331c-1.2022,4.2739-2.3183,8.6323-4.1302,12.6633
		c-5.8979,13.1211-12.082,26.1135-18.0217,39.3052c4.9666-4.1772,11.2389-4.1115,17.016-5.5448
		c0.6292-0.1561,1.444,0.0562,2.068,0.3332c1.5824,0.7025,3.2714,1.332,4.5942,2.3937c0.8978,0.7205,1.6359,2.0749,1.7789,3.2285
		c0.781,6.2959-1.2466,12.0728-3.7067,17.7169c-2.5786,5.9162-5.201,11.814-7.8717,17.6892
		c-0.6268,1.379-0.7109,2.2945,0.1386,3.8436c0.9565,1.744,1.1353,4.197,0.9058,6.2585c-0.8421,7.5623-1.9478,15.0967-3.045,22.6284
		c-0.7982,5.4793-2.0534,10.9117-2.5105,16.4143c-0.3241,3.902,0.2285,7.8975,0.6081,11.8302
		c0.2652,2.7471,1.3772,5.4753,1.2817,8.1827c-0.3163,8.9752,2.2959,17.3981,4.4845,25.8839
		c4.6729,18.1175,9.163,36.2974,14.4698,54.2323c6.2912,21.2618,13.3837,42.2861,20.0886,63.4261
		c3.9374,12.4143,7.7317,24.8741,11.7085,37.2757c4.2169,13.1503,11.4958,24.6012,20.0785,35.2734
		c7.1571,8.8996,14.703,17.5011,21.5659,26.6192c8.258,10.9716,18.9176,18.9743,30.33,26.1668
		c9.8367,6.1993,19.8036,12.1922,29.6439,18.3859c6.0672,3.8186,11.7379,8.3517,18.0565,11.6689
		c13.3671,7.0178,27.0707,13.3921,40.5791,20.1449c6.5938,3.2963,13.2649,6.5156,19.5291,10.3734
		c7.3838,4.5475,15.4671,7.2441,23.4783,10.2173c1.1725,0.4351,2.4587,0.6687,3.5154,1.2944
		c8.278,4.9017,17.6814,6.6137,26.8411,7.7137c10.3304,1.2407,20.9658,0.8956,31.3855,0.1219
		c7.6493-0.5679,15.6734-1.7593,22.6283-4.7623c12.3336-5.3256,25.5456-8.587,36.9554-16.2902
		c6.5578-4.4275,14.3262-7.0425,21.4843-10.6047c8.6889-4.324,17.1405-9.1663,26.001-13.0939
		c11.207-4.9678,20.7895-12.4471,31.0811-18.8313c7.9781-4.9491,16.1764-9.5596,23.9918-14.7499
		c7.449-4.9468,14.7951-10.1278,21.6747-15.8239c4.3593-3.6094,7.8749-8.2699,11.6008-12.6036
		c4.3379-5.0456,8.7006-10.0933,12.6816-15.4173c7.4011-9.8979,15.4805-19.4649,21.4935-30.1715
		c5.3265-9.4843,8.6786-20.1814,12.1119-30.6035c7.3014-22.1642,14.3458-44.4211,21.0095-66.7849
		c5.7997-19.464,11.0127-39.1049,16.3243-58.7112c2.6589-9.814,4.9619-19.7245,7.4196-29.593
		c0.4483-1.8001,0.11-2.9699-1.3195-4.6337c-2.5405-2.957-4.4697-6.6117-5.9312-10.264c-1.017-2.5417,0.5461-5.0024,2.5469-6.955
		c4.1992-4.0982,4.1715-4.9491,1.0494-9.9096c-4.101-6.5155-8.2606-13.0119-11.955-19.7574
		c-1.6328-2.9812-2.5753-6.4924-3.1111-9.8769c-0.4778-3.0176,1.1704-4.6964,4.23-5.4906c2.9994-0.7785,6.0304-1.4352,9.422-2.2336
		c-2.6007-3.5355-5.1997-6.8347-7.5438-10.3059c-4.3-6.3679-8.5295-12.7873-12.6114-19.2963
		c-1.1589-1.8478-1.8142-4.0437-2.5084-6.1434c-1.2753-3.8566,0.2704-6.3795,4.2136-7.2164
		c2.2619-0.4801,4.4949-1.3715,6.7645-1.4583c1.9717-0.0754,4.2227,0.273,5.9241,1.209
		C657.4503,365.6952,664.4985,369.9489,671.7659,374.191z"/>
	<path class="st0" d="M300.988,390.5701c-2.0481,5.3403-4.0497,10.554-6.0473,15.7693c-1.7004,4.4393-5.4198,8.6895-11.6634,5.3131
		c-11.7328-6.3446-24.6426-6.5014-37.2252-5.257c-17.63,1.7436-35.0173,5.4474-50.8691,14.0156
		c-4.1709,2.2545-7.9556,5.2198-11.9384,7.8271c-3.2935,2.1561-5.3319,1.7527-8.6863-0.3877
		c-4.7988-3.0621-6.843-7.3697-7.1392-12.827c-0.2794-5.1482,3.1959-7.88,6.6605-10.6605
		c10.639-8.5383,22.7568-14.1974,35.6518-18.3517c0.3186-0.1026,0.6098-0.2964,0.9026-0.4671
		c0.0628-0.0366,0.0766-0.1571,0.347-0.7655c-8.4085,0.5599-16.5561,1.0553-24.6953,1.6624
		c-4.7488,0.3542-9.4892,0.8421-14.2243,1.3537c-4.004,0.4325-7.9975,0.967-11.9911,1.4904
		c-4.5275,0.5934-9.0509,1.2183-13.5745,1.8412c-5.0511,0.6954-10.1118,1.3368-15.1365,2.1889
		c-0.6515,0.1105-1.5313,1.303-1.5945,2.0542c-0.3709,4.4051-0.4822,8.8313-0.7829,13.2434
		c-0.14,2.0543-0.4125,4.1129-0.8308,6.1269c-0.1333,0.6419-0.899,1.5598-1.431,1.5991c-0.5525,0.0409-1.3875-0.7138-1.7155-1.326
		c-0.5835-1.0891-1.1167-2.3073-1.2476-3.5173c-0.3677-3.4001-0.4644-6.8284-0.7709-10.2363
		c-0.3865-4.2966-0.9024-8.5813-1.3089-12.8763c-0.2504-2.6452,0.8172-4.7292,3.3594-5.5374
		c5.0087-1.5926,10.0376-3.2024,15.163-4.3278c7.8662-1.7272,15.8049-3.144,23.7431-4.5172
		c6.2718-1.085,12.5624-2.1994,18.8924-2.7777c10.1419-0.9265,20.3146-1.7411,30.4902-2.016
		c12.8595-0.3474,25.7349-0.1094,38.6034-0.1162c2.7252-0.0014,5.4638-0.1373,8.173,0.0792
		c6.9828,0.558,13.9509,1.2971,20.9283,1.9258c3.1389,0.2829,6.2845,0.652,9.4297,0.6785
		c15.0233,0.1263,29.1634,3.5796,42.3397,10.8735c4.4609,2.4694,7.0083,5.9407,6.9392,11.2808
		c-0.1286,9.9378,0.0638,19.8799-0.0833,29.8172c-0.066,4.4595-0.628,8.9117-0.9922,13.7281
		c15.5515-5.5853,30.9887-6.176,45.8753-1.1037c0-10.6731,0.4215-21.4442-0.1902-32.1562
		c-0.2771-4.8528-0.221-9.5911,0.9306-14.1442c0.6181-2.4441,2.6487-5.1942,4.825-6.4618
		c7.8387-4.5655,16.0784-8.4615,25.1972-9.7575c6.3055-0.8961,12.6695-1.3805,19.0074-2.049
		c8.3056-0.8761,16.6112-1.7528,24.9171-2.6263c0.2703-0.0284,0.544-0.0307,0.8163-0.0346
		c15.4339-0.2201,30.8682-0.6261,46.3014-0.5839c8.4873,0.0232,17.0253,0.3546,25.4458,1.3491
		c11.1184,1.3131,22.1655,3.2886,33.2028,5.2124c9.2557,1.6132,18.4586,3.5338,27.6718,5.3831
		c1.7435,0.3499,3.4789,0.8728,5.1264,1.5414c4.3566,1.7681,5.5674,4.4985,4.7617,9.3194
		c-0.6204,3.7116-0.8344,7.4901-1.2652,11.2347c-0.4196,3.6485-0.8681,7.2938-1.3497,10.9345
		c-0.0679,0.5133-0.2933,1.0813-0.6276,1.4658c-0.4868,0.5597-1.1777,1.3898-1.7094,1.3397
		c-0.5603-0.0527-1.3505-0.9365-1.4897-1.5769c-0.4169-1.919-0.6724-3.8897-0.7961-5.8525
		c-0.2839-4.5056-0.381-9.0242-0.7374-13.523c-0.0598-0.7545-0.937-1.9269-1.6113-2.0674
		c-3.1449-0.6554-6.3476-1.0418-9.5361-1.4775c-6.4709-0.8844-12.9418-1.7722-19.4208-2.595
		c-5.8657-0.745-11.7328-1.4996-17.6161-2.0797c-7.5284-0.7424-15.0656-1.4491-22.6148-1.909
		c-4.5243-0.2756-9.0792-0.0506-14.3384-0.0506c1.3349,0.6019,2.0917,1.0387,2.9054,1.2956
		c12.5095,3.9492,24.0865,9.6801,34.3982,17.8639c3.6539,2.8998,7.0258,5.8268,6.6801,11.2156
		c-0.4124,6.4284-3.7938,10.6907-9.2524,13.5225c-2.1681,1.1247-4.3306,0.6289-6.4089-0.681
		c-5.7687-3.6357-11.2569-8.0052-17.4818-10.559c-8.623-3.5378-17.7699-5.8513-26.7787-8.3819
		c-11.4663-3.221-23.2509-3.8391-35.0792-3.2693c-7.4877,0.3606-14.6006,2.3623-21.4391,5.561
		c-5.1233,2.3964-8.6421,0.6939-10.6472-4.7618c-0.9676-2.6327-2.5908-4.8956-2.9488-7.9455
		c-0.3365-2.8668-2.4047-5.5303-3.9759-8.8415c-5.9032,1.7776-12.2133,3.7338-18.5613,5.5578
		c-2.1419,0.6155-3.0623,1.6725-3.0107,4.0195c0.1555,7.0831-0.2151,14.1874,0.1679,21.2538
		c0.6882,12.6979,2.4605,25.2698,5.6373,37.6136c1.4299,5.556,2.5959,11.1956,4.3555,16.6443
		c0.8267,2.5599,2.6214,4.8705,4.2566,7.0882c1.6049,2.1765,3.5739,4.0831,5.3647,6.1244c1.9843,2.2618,4.6581,2.9121,7.4726,3.2971
		c21.8023,2.9828,43.7333,2.0149,65.6179,1.9123c9.8966-0.0464,19.781-1.374,29.6843-1.8315
		c6.4368-0.2973,12.9097,0.1705,19.3448-0.1444c8.2621-0.4043,16.4984-1.3082,24.7543-1.8747
		c2.9846-0.2048,6.0009-0.1899,8.9885-0.0226c1.976,0.1106,2.9011-0.7379,3.7275-2.3885c2.459-4.9118,3.2122-10.2303,4.0812-15.5462
		c0.5761-3.5238,1.5432-6.9916,1.9792-10.5284c0.6151-4.991,0.8831-10.0242,1.3328-15.0364
		c0.441-4.9166,0.5578-9.9109,1.6218-14.692c0.3-1.3482,3.3381-2.5776,5.2861-2.9206c1.7055-0.3003,3.6548,0.6779,5.4758,1.1678
		c1.9719,0.5305,3.1093,2.692,2.917,4.9164c-0.4816,5.5711-1.1711,11.1495-1.2029,16.7283
		c-0.044,7.7226-1.1013,15.2699-2.5892,22.8087c-0.8672,4.3935-0.934,9.0068-2.2796,13.2285
		c-1.7369,5.4495-3.9906,10.8328-6.7975,15.8069c-1.7805,3.1553-4.902,5.3918-9.2115,5.1719
		c-5.053-0.2578-10.1323-0.1762-15.1946-0.0377c-13.5857,0.3717-27.1714,0.7786-40.7511,1.3196
		c-7.1328,0.2841-14.2652,0.7406-21.3769,1.3593c-19.4653,1.6937-38.9775,1.5365-58.4638,1.1228
		c-9.3021-0.1974-18.6924-0.7359-27.8439-3.1228c-5.526-1.4413-8.9335-5.2747-12.0089-9.5521
		c-5.9888-8.3295-9.2136-17.7725-10.942-27.8172c-1.1974-6.9587-2.5681-13.8894-4.0007-20.8038
		c-0.2017-0.9735-1.0066-2.0843-1.8552-2.6215c-10.3287-6.5386-21.7787-8.6527-33.7698-7.8218
		c-4.6552,0.3226-9.2407,1.6493-13.3887,2.4303c-1.5733,8.6338-3.246,16.6151-4.4347,24.6678
		c-1.2259,8.3038-3.1939,16.364-6.8996,23.8862c-3.2038,6.5033-6.8141,12.909-13.631,16.3223
		c-2.7339,1.3689-5.923,2.0485-8.9851,2.5061c-19.8106,2.9611-39.775,2.067-59.6911,2.0042
		c-9.1319-0.0288-18.2619-0.8094-27.3916-1.2706c-8.4892-0.4288-16.9737-0.9686-25.4663-1.3077
		c-8.2483-0.3294-16.5045-0.4558-24.7567-0.6901c-6.9467-0.1972-13.894-0.6111-20.8384-0.5629
		c-4.2032,0.0292-7.1511-2.1845-8.93-5.2244c-4.0821-6.9759-7.1286-14.4042-8.3041-22.5859
		c-1.7983-12.5155-3.9022-24.9671-3.3321-37.6982c0.1146-2.5596-0.614-5.1766-1.1044-7.7384
		c-0.5433-2.8383,0.8335-5.0471,3.6467-5.5462c0.4433-0.0786,0.9416-0.0288,1.3284-0.216c5.3183-2.5734,9.2641-0.0805,9.5807,6.2628
		c0.3776,7.5659,0.7153,15.1389,1.36,22.6841c0.2794,3.2701,1.2769,6.4796,1.9593,9.7142
		c1.1052,5.2386,1.8887,10.5742,3.4165,15.687c1.7846,5.9723,2.0801,5.6411,8.3214,5.9495
		c7.9922,0.3948,15.9562,1.3334,23.9447,1.8446c3.9815,0.2548,7.9916,0.0255,11.9868,0.1097
		c8.6008,0.1814,17.2547-0.1138,25.7896,0.7489c20.4514,2.0671,40.9323,1.1735,61.3939,1.1164
		c8.2989-0.0231,16.6013-1.5691,24.8819-2.5866c1.3258-0.163,2.8192-0.9215,3.7621-1.8733c2.7965-2.8229,6.0077-5.5282,7.8471-8.933
		c2.3899-4.4238,3.9976-9.3786,5.255-14.281c2.0289-7.9103,3.584-15.9473,5.1634-23.9654
		c0.7296-3.7041,1.3421-7.4782,1.4908-11.2409c0.4188-10.6016,0.5979-21.2132,0.7707-31.8225
		c0.0133-0.8198-0.5586-2.1425-1.1974-2.4041c-7.5733-3.1024-15.3133-5.649-23.5782-6.1133
		C301.3259,390.461,301.0592,390.558,300.988,390.5701z"/>
	<path class="st0" d="M390.049,32.2086c5.8076,0,11.1131,0,16.4187,0c7.1774,0,14.3562,0.0888,21.5321-0.0161
		c24.8652-0.3633,48.4413,4.9309,71.1516,15.0672c15.7305,7.021,31.1446,14.4924,45.4081,24.1951
		c13.267,9.0247,25.4865,19.3036,36.3206,31.1394c6.8133,7.4431,12.7469,15.5656,17.2606,24.6672
		c3.2101,6.473,1.1752,12.3549-1.9434,18.0553c-0.2822,0.5158-2.7701,0.6132-3.3809,0.0227
		c-2.4754-2.3933-5.0331-4.8776-6.8095-7.7869c-7.0027-11.4689-15.2257-21.966-24.874-31.2603
		c-13.1215-12.64-27.6741-23.4228-43.7316-32.1099c-15.8937-8.5985-32.2365-16.1799-49.5797-21.3947
		c-8.5269-2.564-17.2905-4.0804-26.2044-4.1924c-22.4176-0.2818-44.8375-0.379-67.256-0.6005
		c-2.7092-0.0268-5.5891,0.1494-8.0756-0.6945c-2.6859-0.9116-5.713-2.3839-7.3214-4.5532
		c-2.7021-3.6446-4.3994-8.0341-6.8377-12.7221c-4.8557-0.3145-10.7054-0.8643-16.5662-1.0358
		c-10.7993-0.3159-21.6063-0.6041-32.4077-0.5338c-8.5051,0.0553-17.0348,0.3482-25.5039,1.0973
		c-17.7974,1.5742-35.4324,4.3419-52.8027,8.5874c-8.2996,2.0285-16.5514,4.2626-24.7805,6.5622
		c-2.2166,0.6194-4.3456,1.6828-6.3792,2.7911c-2.0981,1.1435-3.1136,0.1984-4.028-1.5187
		c-0.8874-1.6664-0.5799-3.0366,1.0797-3.8528c4.9652-2.442,9.8285-5.193,14.9991-7.0972
		c17.5199-6.4524,35.5185-11.3539,53.777-15.1779c8.5768-1.7963,17.3148-2.9302,26.0296-3.9298
		c8.9369-1.0251,17.9275-1.6278,26.9078-2.214c7.9252-0.5173,15.8651-0.9115,23.8046-1.0854
		c13.8709-0.3039,27.7461-0.4385,41.6202-0.5476c3.2387-0.0255,6.5411,0.0206,9.6996,0.6288
		c2.1156,0.4074,4.0748,1.7866,5.9977,2.9125c0.4359,0.2552,0.5247,1.2504,0.6141,1.926c0.5887,4.4533-1.2926,8.2899-3.0928,12.1439
		C390.8402,30.2263,390.6322,30.7935,390.049,32.2086z"/>
	<path class="st0" d="M346.9821,167.599c-0.8235,0.2417-1.7869,0.8905-2.4491,0.6628c-7.4588-2.5643-14.9323-1.3042-22.4384-0.3695
		c-17.8143,2.2183-34.0469,9.0571-49.6992,17.3263c-17.9384,9.4769-35.6058,19.5275-51.8535,31.7188
		c-16.3296,12.2527-28.9418,27.5767-36.9021,46.715c-6.4784,15.5756-13.5133,30.9514-21.0289,46.0538
		c-5.8616,11.779-14.0042,22.0048-25.5731,28.8967c-4.903,2.9208-9.9649,5.8582-15.8543,6.0758
		c-5.5797,0.2061-10.537-1.6457-14.046-6.2569c-0.4914-0.6457-0.5083-2.0026-0.2104-2.8402
		c1.5197-4.2727,4.9504-6.7346,8.8203-8.6233c6.684-3.262,12.9655-7.2206,18.1292-12.5215
		c7.3342-7.5292,13.0954-16.2493,17.271-25.9432c6.8998-16.0183,13.4872-32.1779,20.7173-48.0452
		c6.4458-14.146,16.2362-25.8468,28.1674-35.8285c13.8567-11.5927,30.078-19.0251,46.1222-26.8242
		c14.0382-6.8239,28.6605-11.9249,43.8143-15.6087c10.872-2.6429,21.9154-3.6504,33.0101-2.847
		c7.506,0.5435,15.1897,1.1494,21.907,5.2818c0.8199,0.5044,1.4926,1.2482,2.2335,1.881
		C347.0737,166.8683,347.0279,167.2337,346.9821,167.599z"/>
	<path class="st0" d="M25.0651,252.3026c0.4002-12.8647,2.5986-24.6574,5.6033-36.2899
		c4.0161-15.5482,8.5706-30.9225,14.5101-45.8904c6.699-16.882,15.1677-32.6849,26.9133-46.5837
		c8.8568-10.4804,19.2519-19.2534,30.4669-27.1788c11.416-8.0673,24.3745-12.3744,37.4241-16.5981
		c0.828-0.268,1.8042-0.1685,2.703-0.1098c2.324,0.1519,2.744,1.1289,2.0605,3.3925c-1.1347,3.7579-4.3125,5.5029-7.1877,7.3815
		c-10.1044,6.6022-19.1831,14.3876-27.3111,23.2659c-12.8089,13.9913-24.2049,29.0408-32.4864,46.1848
		c-5.8885,12.19-9.8885,25.1348-13.1704,38.2294c-3.8184,15.2349-7.0958,30.6071-10.4863,45.9466
		c-1.2699,5.7453-1.8004,11.6788-3.3993,17.3192c-1.4231,5.0201-3.5567,9.9055-5.9196,14.5757
		c-2.9584,5.8473-8.0383,5.9027-11.302,0.1062c-3.359-5.9656-7.2762-11.7758-7.9676-18.8972
		C25.3335,255.2783,25.1666,253.3985,25.0651,252.3026z"/>
	<path class="st0" d="M632.3136,395.1467c0.2335,5.9639-2.756,10.7986-5.0895,15.7372c-1.3527,2.8626-3.7594,2.6887-6.4821,0.854
		c-7.1675-4.8299-9.7758-12.7082-13.3731-19.8134c-7.6502-15.1098-11.4921-31.5116-15.2905-47.8936
		c-3.2653-14.0831-5.8329-28.3367-11.0715-41.916c-5.4574-14.1469-12.9794-27.0989-22.2418-39.0254
		c-4.8629-6.2618-9.9177-12.4359-15.4389-18.1116c-9.0399-9.2931-19.7675-16.4901-30.7615-23.2962
		c-14.2308-8.8099-29.3749-15.4571-45.5743-19.6641c-1.8066-0.4692-3.7053-0.6414-5.5741-0.7973
		c-2.0036-0.1671-4.4276-1.9846-3.7315-3.1772c0.6545-1.1214,2.4969-2.2052,3.7935-2.1786c4.7527,0.0975,9.57,0.2657,14.2274,1.1341
		c11.2977,2.1066,22.3985,5.019,32.9992,9.6038c14.3089,6.1886,28.2231,13.094,40.7144,22.5449
		c22.5933,17.0939,38.6925,39.4176,51.2237,64.4685c6.6295,13.2528,10.1646,27.6331,13.7224,41.9324
		c4.4227,17.7756,9.8116,35.2297,16.3183,52.3513C631.5546,390.1908,631.7861,392.725,632.3136,395.1467z"/>
	<path class="st0" d="M417.502,661.9367c0.0504,0.4249,0.2335,0.8321,0.1103,1.0963c-3.0652,6.5666-2.5589,13.9464-4.8264,20.7264
		c-4.2496,12.7074-9.6345,24.6899-20.0048,33.69c-7.8834,6.8417-16.9657,11.1841-27.4146,12.5393
		c-16.23,2.105-30.7704-2.3196-44.0833-11.3717c-11.2911-7.6772-17.8344-18.5345-20.1785-31.828
		c-0.8256-4.6822-0.5625-9.5551-0.8172-14.3398c-0.2189-4.1117-0.1691-8.1837-1.9829-12.1391
		c-1.6464-3.5903-0.4938-5.2502,3.2573-6.1486c2.2387-0.5362,4.536-1.6295,6.7076-1.4236c2.2758,0.2158,4.473,1.6024,6.6239,2.6439
		c1.0457,0.5063,1.8077,1.6411,2.8685,2.0668c7.5417,3.0269,15.44,4.5345,23.5246,4.8983
		c10.7449,0.4838,21.4985,0.9955,32.2502,1.0388c8.1169,0.0326,16.2488-0.4887,24.3495-1.0927
		c3.4369-0.2562,6.8067-1.3759,10.2169-2.0533c0.7572-0.1505,1.9672-0.4344,2.2688-0.0729
		C412.3265,662.5093,415.0392,661.5623,417.502,661.9367z M312.7823,673.7198c0.2742,2.3794,0.5738,4.3914,0.7282,6.4146
		c1.0286,13.4838,8.6727,21.808,20.8775,26.3086c4.1439,1.5281,8.5349,2.6105,12.9075,3.231
		c4.3409,0.616,8.9958,1.2827,13.1695,0.3649c10.3524-2.2765,18.4068-8.5949,25.1108-16.6492
		c5.9004-7.0888,8.6026-15.5134,10.1369-24.6064C368.2607,672.5129,341.0331,677.8162,312.7823,673.7198z"/>
	<path class="st0" d="M671.593,245.4529c-3.603-22.3269-12.4622-42.3651-26.4412-60.1559
		c-7.4707-9.508-15.8955-18.0818-25.235-25.7556c-1.3044-1.0718-2.8527-1.8752-4.0319-3.0583
		c-0.5453-0.5471-0.4741-1.7089-0.6824-2.5919c0.9965-0.1485,2.2404-0.751,2.9465-0.3664c2.9839,1.6252,5.9692,3.3333,8.6606,5.3942
		c9.3355,7.1486,18.3351,14.7366,25.9552,23.7226c13.3017,15.6863,23.623,33.114,29.2057,53.0544
		c2.1085,7.5309,4.0532,15.1495,5.3594,22.8491c0.9633,5.678,0.3688,11.5209-2.8073,16.6457
		c-1.3989,2.2573-1.1781,4.0845,0.0454,6.3457c4.6028,8.5069,6.9506,17.6551,6.6886,27.3421
		c-0.1882,6.9615-1.7784,13.6288-5.3743,19.7077c-1.7966,3.0372-3.912,3.4468-6.1756,0.7646
		c-3.4551-4.0941-5.0355-8.6473-4.3646-14.3301c1.3107-11.1012-0.7292-21.8007-7.0417-31.1785
		c-5.0571-7.5128-11.1071-14.3604-16.1124-21.9039c-3.52-5.305-6.3206-11.1537-8.8848-17.0039
		c-1.8076-4.1239-0.04-6.7357,4.33-7.8602c2.0631-0.5309,4.2275-1.6293,6.1918-1.3573c2.9125,0.4034,5.9179,1.398,8.4646,2.8674
		C665.592,240.4896,668.4824,243.1087,671.593,245.4529z"/>
	<path class="st0" d="M311.1525,205.9946c-1.564-2.4182-0.8916-6.5672,2.5895-8.6287c3.4764-2.0587,7.3231-3.897,11.2407-4.7157
		c6.6341-1.3863,13.5296-1.506,19.9613,1.0007c3.9288,1.5312,7.6593,3.8265,11.0767,6.3281
		c2.4449,1.7898,4.1688,2.7977,7.5288,1.738c15.7126-4.9559,31.529-9.605,47.4134-13.9825
		c6.2684-1.7274,12.8166-1.1492,19.2295-0.0974c0.7415,0.1216,1.4123,0.6743,2.2587,1.0987
		c-1.4955,3.8224-5.0733,5.4613-7.6035,8.0572c-7.7728,7.9746-18.2793,9.6339-28.4147,11.9978
		c-10.7493,2.5071-21.5627,4.7413-32.3573,7.0517c-4.9192,1.0529-8.7023-1.1933-11.076-5.087
		c-4.5552-7.472-11.1959-10.7473-19.5999-11.8621c-5.3368-0.7079-10.4885-0.4858-15.3118,1.5313
		C315.5127,201.5018,313.538,204.014,311.1525,205.9946z"/>
	<path class="st0" d="M153.3439,45.9693c2.7543-7.2058,6.4399-14.665,11.6959-21.2439c0.8561-1.0717,2.148-2.0209,3.4334-2.4759
		c2.4984-0.8844,5.2407-1.1165,7.6861-2.104c2.6829-1.0834,4.6355,0.4896,6.7253,1.3543c0.7481,0.3095,1.3161,1.8459,1.3902,2.8642
		c0.4647,6.3907-2.6315,11.7554-5.2321,17.2462c-0.6944,1.4661-1.5917,2.8427-2.2082,4.3377
		c-0.9927,2.4073-2.4909,4.4147-1.4368,7.6303c1.0596,3.2324-0.0395,6.8405-1.9249,10.0342
		c-1.1623,1.9687-1.4258,4.4633-2.563,6.4531c-0.9283,1.6242-2.3592,3.1714-3.944,4.1296
		c-0.9224,0.5577-2.9142,0.3479-3.8519-0.3204c-2.2339-1.5923-4.1124-3.679-6.1724-5.5235c-0.3739-0.3348-0.931-0.668-1.3991-0.6621
		c-3.073,0.0393-6.1923-0.1297-9.2058,0.345c-4.4976,0.7085-7.4837-0.4135-9.9845-4.8411
		c-0.9622-1.7035-1.9922-3.4004-2.6859-5.2169c-1.1479-3.006-0.3132-5.5347,2.6062-6.5943
		C141.6909,49.4152,147.2619,47.8697,153.3439,45.9693z"/>
	<path class="st0" d="M103.3269,312.1348c-0.8187,5.8509-1.497,11.7257-2.4872,17.5475c-1.6906,9.9396-3.3284,19.899-5.4377,29.754
		c-3.3584,15.6915-6.8188,31.3716-10.7555,46.925c-2.4218,9.5683-5.7293,18.9183-8.8026,28.3128
		c-1.2653,3.8677-3.2311,7.4495-6.6103,9.9357c-0.9285,0.6831-2.2502,0.8315-3.3915,1.2253
		c-0.2982-1.0932-0.8023-2.1757-0.8597-3.2814c-0.2858-5.5052,1.525-10.5737,3.4676-15.5984
		c9.9393-25.7091,17.0456-52.2509,23.2009-79.0687c2.5686-11.1912,5.0367-22.4056,7.5163-33.617
		c0.3275-1.4809,0.2659-3.0691,0.7412-4.4881c0.28-0.8361,1.2625-1.4369,1.9291-2.1435c0.4228,0.7623,0.9776,1.4843,1.2271,2.2997
		c0.2033,0.6643,0.0413,1.4404,0.0413,2.167C103.1796,312.1147,103.2532,312.1248,103.3269,312.1348z"/>
	<path class="st0" d="M8.3519,474.2241c0.3667-11.6867,1.7744-20.8245,6.381-29.2439c1.9607-3.5835,4.5201-6.2989,8.6769-6.9607
		c0.8616-0.1372,1.8585,0.5757,2.793,0.8969c-0.3466,0.9424-0.5185,2.0065-1.0737,2.8036
		c-1.4821,2.1279-3.7723,3.9148-4.5906,6.2418c-2.5287,7.1914-3.0819,14.6405-2.0149,22.2787
		c0.9665,6.9182,2.4475,13.6867,6.7658,19.2121c2.724,3.4855,6.4416,6.2412,9.9054,9.0909
		c5.2824,4.3458,5.4464,5.7902,0.6216,10.6166c-4.8098,4.8113-8.6555,4.6499-14.4436-1.401
		c-5.3986-5.6437-8.9113-12.5648-10.8041-20.1052C9.2851,482.5409,8.8263,477.2207,8.3519,474.2241z"/>
	<path class="st0" d="M703.2424,463.3188c-0.3641-6.1626-1.3466-12.0622-3.928-17.575c-0.701-1.497-2.3839-2.5052-3.4166-3.8867
		c-0.6267-0.8385-0.871-1.9627-1.2872-2.9587c0.9392-0.3122,1.9367-1.0042,2.8074-0.8703c3.6041,0.554,6.2123,2.6601,8.0005,5.8088
		c4.0495,7.1307,6.0238,14.8092,6.6545,22.9807c0.6827,8.8422-0.1082,17.4698-3.419,25.6533
		c-2.9266,7.2337-6.4095,14.2379-13.4324,18.6703c-2.5896,1.6344-5.2134,2.0212-7.498,0.1838
		c-2.2505-1.8101-4.1319-4.1608-5.829-6.5231c-0.4597-0.6399-0.0289-2.5009,0.6257-3.2447c1.602-1.8201,3.3788-3.6344,5.4307-4.8838
		c7.4478-4.5352,11.1298-11.5453,13.0723-19.6063C702.1075,472.5675,702.5246,467.9069,703.2424,463.3188z"/>
	<path class="st0" d="M380.6497,588.634c-1.528,9.723-4.9854,18.2812-14.5367,23.1297c-3.9533,2.0069-7.8608,1.8593-11.4783-0.3065
		c-3.9084-2.34-7.5655-5.1184-11.2188-7.857c-1.5992-1.1987-1.8774-2.651-0.6269-4.6556c3.882-6.2227,9.977-8.2772,16.6254-9.6773
		c2.2917-0.4827,4.5153-1.5126,6.6181-2.5892c1.4079-0.7208,1.7664-1.8887,0.7759-3.5973c-0.7267-1.2535-2.636-2.8755-0.7281-4.5159
		c1.7415-1.4973,3.9262-1.8205,5.9894-0.5746c1.979,1.195,3.8727,2.5472,5.717,3.9451
		C379.9415,583.5685,381.2508,585.642,380.6497,588.634z"/>
	<path class="st0" d="M312.7823,673.7198c28.2508,4.0963,55.4784-1.207,82.9305-4.9366
		c-1.5343,9.093-4.2365,17.5176-10.1369,24.6064c-6.704,8.0543-14.7584,14.3727-25.1108,16.6492
		c-4.1737,0.9177-8.8287,0.251-13.1695-0.3649c-4.3726-0.6205-8.7636-1.7029-12.9075-3.231
		c-12.2048-4.5005-19.8489-12.8248-20.8775-26.3086C313.3561,678.1113,313.0565,676.0992,312.7823,673.7198z"/>
</g>
</svg>
