<?xml version="1.0" encoding="utf-8"?>
<!-- Generator: Adobe Illustrator 24.3.0, SVG Export Plug-In . SVG Version: 6.00 Build 0)  -->
<svg version="1.1" id="Layer_1" xmlns="http://www.w3.org/2000/svg" xmlns:xlink="http://www.w3.org/1999/xlink" x="0px" y="0px"
	 viewBox="0 0 656.0756 836.1463" style="enable-background:new 0 0 656.0756 836.1463;" xml:space="preserve">
<style type="text/css">
	.st0{fill:#FFFFFF;}
</style>
<g>
	<path class="st0" d="M612.3759,491.9573c1.014-3.5038,2.2625-6.9589,3.0029-10.5195c4.0706-19.578,7.7457-39.2066,6.9048-59.3676
		c-0.2989-7.1662-0.4389-14.3426-0.4636-21.515c-0.013-3.7699,0.9575-4.6697,4.3059-4.9628
		c3.6305-0.3177,5.1244,0.672,5.9985,3.9704c4.7437,17.8983,8.0875,36.0108,6.9879,54.6163
		c-0.567,9.5929-1.5681,19.1889-2.9623,28.6972c-1.938,13.2174-9.2557,22.3721-22.3482,26.9538
		c0.562,4.5673,1.2308,9.2172,1.6926,13.8875c2.6626,26.9236,6.5338,53.8185,5.0615,80.9464
		c-1.2932,23.826-2.3879,47.7372-7.5593,71.1644c-5.047,22.8638-13.4061,44.5618-25.334,64.6481
		c-5.7527,9.6873-12.6794,18.9429-21.9277,25.8392c-14.8632,11.0835-30.2969,21.1705-47.096,29.3114
		c-17.1159,8.2945-35.1189,13.189-53.5041,17.2634c-9.9263,2.1997-19.7384,4.9133-29.661,7.1307
		c-15.9261,3.559-32.0858,5.1879-48.4028,5.369c-5.7231,0.0635-11.4494,0.5911-17.1645,0.4653
		c-14.2551-0.3135-28.5027-1.1581-42.757-1.2559c-10.8879-0.0746-21.7816,0.6647-32.6724,1.0511
		c-0.6343,0.0225-1.2661,0.1893-1.8983,0.1848c-25.6308-0.1815-51.2785-0.2002-76.4344-6.1948
		c-16.5169-3.936-33.0795-7.7017-49.5073-11.9821c-10.7167-2.7923-21.097-6.6168-31.0258-11.7217
		c-10.4261-5.3605-20.9905-10.4366-30.6172-17.1876c-6.244-4.3788-12.5464-8.7018-18.5087-13.4441
		c-3.375-2.6844-6.1826-6.104-9.1306-9.2986c-13.0268-14.1165-20.3405-31.383-27.3613-48.9084
		c-7.8807-19.6721-12.1721-40.0853-14.0059-61.0814c-1.2325-14.111-2.4867-28.2311-3.1949-42.374
		c-0.7779-15.535,0.2417-31.0456,1.9067-46.5132c1.4379-13.3587,2.6944-26.7367,4.0491-40.1044
		c0.2451-2.4185,0.5772-4.8282,0.891-7.422c-5.295-1.2165-9.3749-4.1108-13.1066-7.6721
		c-6.5847-6.2839-8.9118-14.4078-10.0255-23.0031c-1.893-14.6092-3.6317-29.3138-1.6723-43.9906
		c1.6171-12.1133,4.339-24.0829,6.7016-36.0906c0.5346-2.717,2.5286-3.6048,5.9635-3.2306c3.0679,0.3342,4.0779,1.1743,4.0603,4.329
		c-0.0486,8.7165-0.3231,17.4315-0.4559,26.1479c-0.3125,20.5085,3.5555,40.4576,8.1918,60.2947
		c0.4409,1.8863,1.2726,3.6814,2.591,5.4463c0.7699-5.8723,1.5543-11.7427,2.3073-17.6172
		c3.2662-25.48,6.4192-50.9752,9.8545-76.4323c0.8959-6.6389,2.6231-13.1689,4.0429-19.7329
		c0.7242-3.3479,2.0896-4.2675,5.6285-4.0956c3.0503,0.1482,4.085,0.9381,4.3663,4.3911c0.4855,5.9605,1.068,11.9577,0.8951,17.9187
		c-0.4607,15.8855-1.0688,31.7744-2.0453,47.6356c-1.5399,25.0135-3.3693,50.0098-5.1858,75.0054
		c-2.0337,27.9847-5.577,55.9162-4.927,84.011c0.5563,24.0454,1.8073,48.1089,6.3932,71.8389
		c3.3515,17.3425,10.2295,33.4547,16.9045,49.6727c5.2776,12.8227,12.9601,24.1318,22.6251,33.7273
		c6.9443,6.8942,15.325,12.5587,23.7048,17.7375c10.0172,6.1907,20.5136,11.7095,31.1749,16.7292
		c11.618,5.4703,24.1398,8.4319,36.6671,11.2021c9.5741,2.1172,19.1675,4.2073,28.6229,6.784
		c10.6619,2.9053,21.47,4.8071,32.4568,5.4695c14.5847,0.8792,29.169,1.9581,43.8181,0.7975
		c7.0547-0.559,14.1701-0.45,21.2584-0.4642c9.9016-0.02,19.8045,0.0699,29.7051,0.222c7.8937,0.1213,15.804,0.8533,23.6729,0.5172
		c13.0548-0.5576,26.1924-1.0071,39.0891-2.9026c11.9029-1.7495,23.5296-5.3622,35.2879-8.1114
		c8.4003-1.9641,16.8654-3.6715,25.214-5.8315c9.3231-2.4122,18.3997-5.5342,27.0588-9.8933
		c11.8529-5.9667,23.5481-12.1035,34.5562-19.6155c12.838-8.7605,23.619-19.4328,31.2715-32.8329
		c4.9741-8.7099,8.6557-18.1757,12.6739-27.4083c7.6709-17.625,12.3549-36.0767,14.1717-55.1865
		c1.2975-13.6473,2.021-27.3488,3.0495-41.0223c1.5607-20.7506-0.364-41.3864-1.9932-62.0314
		c-2.3577-29.8755-5.0958-59.7263-7.0124-89.6299c-1.4927-23.2883-2.0663-46.6382-2.8422-69.9676
		c-0.1589-4.7778,0.4828-9.598,0.9722-14.3765c0.353-3.4473,1.3287-4.2393,4.3814-4.386c3.5385-0.17,4.9126,0.7471,5.6229,4.1012
		c1.5981,7.5465,3.1,15.1133,4.6478,22.6705c0.1201,0.5863,0.2936,1.1616,0.5899,2.3185c1.3682-2.4497,2.5408-4.3584,3.5316-6.3571
		c3.6672-7.3978,7.2678-14.8286,10.9091-22.2393c0.7636-1.5541,0.4526-2.9164,0.0574-4.6067
		c-0.9824-4.2028-1.8067-8.5565-1.8184-12.852c-0.0481-17.6524,1.455-35.2199,4.5055-52.5992
		c2.4451-13.9298,5.5329-27.7462,8.2477-41.6301c0.5491-2.8083,2.1871-3.747,4.801-3.6752
		c3.2168,0.0884,4.5599,1.2333,4.4246,4.5002c-0.2704,6.5315-0.6674,13.0622-1.2042,19.5774
		c-2.0724,25.1571-4.2513,50.3055-6.3012,75.4644c-0.2571,3.1559-0.6611,6.5464,0.1724,9.4984
		c2.5151,8.907-2.0082,15.8753-5.8859,22.8824c-4.0364,7.2936-8.7234,14.2399-13.3677,21.1762
		c-1.1479,1.7143-3.3423,2.6952-4.8364,4.2269c-0.6508,0.6671-1.1397,1.9184-1.0349,2.8274
		c0.801,6.9439,1.8356,13.8605,2.6676,20.8012c2.0098,16.7667,3.9481,33.542,5.9211,50.3132
		c0.058,0.4927,0.1821,0.9775,0.2753,1.4661C611.8791,491.8661,612.1275,491.9117,612.3759,491.9573z"/>
	<path class="st0" d="M361.1429,423.2907c-3.4524-0.3329-6.5014-0.4251-9.4742-0.9489
		c-11.8849-2.0943-23.8434-2.6734-35.8451-1.6548c-5.5937,0.4748-11.1267,1.6275-16.7077,2.3045
		c-2.1206,0.2572-4.2987,0.0418-6.7452,0.0418c-0.0212,0.2256-0.1391,0.895-0.1388,1.5643
		c0.0081,18.6227,0.0597,37.2454,0.0308,55.8679c-0.0117,7.5709-1.8671,10.6075-9.2765,12.2798
		c-8.2083,1.8527-16.6131,3.321-24.9996,3.8146c-33.4201,1.9666-66.8793,1.9083-100.2945-0.0371
		c-20.6779-1.2039-41.3041-3.2915-61.9562-4.9498c-2.8966-0.2326-5.8083-0.2747-8.7127-0.412
		c-4.5466-0.2148-7.6213-2.2548-9.1973-6.7235c-4.0249-11.4126-6.9675-22.9423-8.2042-35.1136
		c-1.8942-18.6418,0.1687-36.9848,1.9587-55.4081c0.2335-2.404,0.8529-4.7818,0.9373-7.1842
		c0.0428-1.2183-0.7094-2.4645-1.3148-4.3654c0.9478-0.3535,2.2486-1.1914,3.5998-1.2824c6.344-0.4275,12.7016-0.899,19.0548-0.9059
		c50.1783-0.0548,100.3569-0.088,150.5349,0.0746c10.6146,0.0344,21.2513,0.6024,31.8317,1.48
		c8.0372,0.6667,10.1829,2.7771,11.9702,10.6578c1.3415,5.9148,2.0928,11.9642,3.0721,17.9594
		c0.2449,1.4994,0.3561,3.0205,0.5107,4.3738c23.3654,0,46.4951,0,69.7007,0c0.7684-5.4055,1.4494-10.9716,2.3883-16.4938
		c0.5154-3.0312,1.3984-6.0075,2.236-8.9747c1.1212-3.972,3.8143-6.3917,7.8662-7.0039c4.5745-0.6911,9.1868-1.5659,13.7866-1.5891
		c54.7213-0.2768,109.4434-0.4536,164.1654-0.5356c8.8073-0.0132,17.6179,0.5123,26.4208,0.9213
		c1.4103,0.0656,2.7881,0.8315,4.4284,1.3521c-2.3345,3.157-2.1617,5.977-1.575,9.1435c1.072,5.785,1.7289,11.6618,2.262,17.5274
		c0.5585,6.1451,1.212,12.3349,1.0324,18.482c-0.3204,10.9637-0.4692,22.0289-2.145,32.826
		c-1.3489,8.6914-4.7199,17.0905-7.4467,25.5377c-1.2137,3.7599-4.5582,4.9529-8.2209,5.2248
		c-26.7309,1.9847-53.4388,4.4198-80.2009,5.8086c-30.5087,1.5833-61.0692,1.4563-91.5801-0.3932
		c-7.4073-0.449-14.7542-1.953-22.1149-3.0638c-1.5094-0.2278-2.9768-0.8101-4.4289-1.3264
		c-4.7202-1.6782-7.2148-4.9318-7.1876-10.0587c0.0464-8.7206,0.0076-17.4415,0.0122-26.1624
		c0.0056-10.5376,0.0205-21.0753,0.0251-31.6129C361.2013,423.804,361.142,423.2755,361.1429,423.2907z M85.8959,384.2043
		c-0.1244,1.1283,0.1152,2.3732-0.3704,2.8065c-3.1829,2.8405-2.3071,6.3326-1.9009,9.8067
		c0.2732,2.3369,0.6922,4.7021,0.5769,7.0315c-0.7231,14.6096-0.857,29.1819,0.2564,43.8062
		c0.9298,12.2119,3.5982,24.001,6.529,35.801c0.4932,1.9857,1.419,2.5819,3.2878,2.6892c4.0793,0.2343,8.15,0.6275,12.222,0.9806
		c17.6452,1.53,35.2739,3.2888,52.938,4.5532c26.3998,1.8897,52.8589,1.7912,79.2897,1.017
		c11.4933-0.3366,22.9663-1.89,34.4074-3.2396c5.1643-0.6092,5.743-2.0043,5.3932-7.158
		c-0.5039-7.4251-1.0931-14.863-1.1247-22.2977c-0.0752-17.7064,0.3529-35.4164,0.1501-53.1201
		c-0.067-5.8488-1.4408-11.6828-2.2219-17.5229c-0.322-2.4074-1.6506-3.6572-4.1332-3.7872
		c-3.7161-0.1947-7.4254-0.7126-11.1393-0.7287c-57.0663-0.2475-114.1329-0.4358-171.1994-0.6373
		C87.8717,384.2012,86.8867,384.2043,85.8959,384.2043z M566.8124,384.2928c-0.0685-0.0039-0.7849-0.0824-1.5012-0.0813
		c-50.7068,0.0738-101.4138,0.1021-152.1202,0.2777c-9.985,0.0346-19.974,0.5223-29.9491,1.0352
		c-4.3122,0.2217-4.6982,0.6027-5.3036,4.9819c-0.9424,6.8163-2.0069,13.6749-2.1338,20.5319
		c-0.2419,13.069,0.3186,26.151,0.2095,39.2248c-0.0879,10.5244-0.5456,21.0511-1.0851,31.5642
		c-0.3009,5.8629,0.032,7.0102,5.9673,7.7354c10.8952,1.3312,21.8272,2.7285,32.7805,3.1536
		c48.7772,1.893,97.3336-1.59,145.8112-6.6156c1.7006-0.1763,2.4557-0.7286,2.8926-2.4499
		c3.0593-12.0526,6.1432-24.089,6.519-36.6183c0.2884-9.6129,0.8086-19.2234,0.871-28.8372
		c0.0522-8.0517-1.1542-16.0939,0.2985-24.164c0.3383-1.8793-0.4972-4.0357-1.063-5.9861
		C568.6799,386.9214,567.8121,385.9548,566.8124,384.2928z"/>
	<path class="st0" d="M10.797,258.0309c0.8733-42.5193,7.4869-79.3189,21.4722-114.6802
		c7.1454-18.0669,17.9694-33.7672,31.3087-47.7863c15.3131-16.0937,32.4453-29.8547,52.0736-40.4169
		c12.6848-6.8258,26.0645-10.521,40.5684-9.3561c6.7949,0.5457,13.3656,2.2151,19.0606,5.9534
		c2.759,1.811,4.9654,4.6739,6.9276,7.4141c1.3639,1.9047,0.4633,4.0277-1.4475,5.4778c-1.8868,1.4319-5.547,1.855-6.9649,0.783
		c-0.3368-0.2547-0.7083-0.6709-0.7645-1.0563c-0.4939-3.3928-3.0585-5.0311-5.6218-6.6019
		c-9.5089-5.8273-18.5121-3.6978-27.4508,1.6136c-21.2333,12.6169-39.3003,28.8274-55.3413,47.5178
		c-15.1246,17.6226-25.1025,37.8882-32.2241,59.7751c-10.7765,33.1195-16.0876,67.1062-15.1373,101.8857
		c0.4855,17.7678,2.5743,35.4893,3.8369,53.2391c1.2883,18.1105,2.4333,36.2312,3.696,54.3436
		c0.1452,2.0829-0.7575,3.2742-2.549,3.9749c-4.4212,1.729-8.853,1.679-13.3107,0.0861c-2.3433-0.8375-2.936-2.7326-3.246-4.8984
		c-1.6208-11.3213-3.308-22.6333-4.8907-33.9599c-2.487-17.798-5.1088-35.5807-7.2867-53.4171
		C12.1098,276.4899,11.4092,264.9733,10.797,258.0309z"/>
	<path class="st0" d="M329.538,6.6553c36.9045-0.1813,72.3337,6.8653,106.521,20.88c30.687,12.5799,60.4375,26.8286,87.6578,45.9168
		c12.86,9.018,25.4629,18.4026,38.1586,27.6536c1.0914,0.7953,2.0914,1.759,2.9828,2.7766
		c2.0378,2.3261,1.7752,4.0826-1.1086,5.3043c-5.9323,2.5134-11.9214,2.5866-17.4769-0.9925
		c-9.6967-6.2473-19.3491-12.5694-28.8893-19.0522c-27.2674-18.5288-55.7236-34.9366-86.2161-47.5594
		c-18.7868-7.7771-37.67-15.4402-57.7823-19.3326c-33.9672-6.5737-67.7592-6.3889-101.25,2.9264
		c-13.2609,3.6885-26.2012,8.3329-37.5407,16.3677c-6.1394,4.3502-11.842,9.3172-17.7189,14.0343
		c-0.6282,0.5043-1.1824,1.1455-1.6366,1.8143c-3.2908,4.8453-11.1973,6.4097-16.134,3.1683
		c-1.8848-1.2375-2.4213-3.026-1.5607-4.9734c0.6439-1.4569,1.6819-2.7851,2.731-4.011
		c12.2989-14.3719,27.7622-23.9201,45.4163-30.4445c22.267-8.2292,45.1634-13.016,68.8622-14.067
		c2.5417-0.1127,5.0799-0.3237,7.6223-0.3947C324.6282,6.6016,327.0839,6.6553,329.538,6.6553z"/>
	<path class="st0" d="M530.1502,212.6041c-1.3229-2.3884-2.5858-4.3809-3.5664-6.5036c-1.6479-3.5674-0.6024-5.9352,3.0193-7.3179
		c6.4233-2.4523,12.1147-0.6941,15.7899,5.0807c2.825,4.4389,5.4424,9.0095,8.1667,13.5126
		c1.0346,1.7101,0.4699,3.1779-1.106,3.8697c-2.2966,1.0082-4.7636,2.1927-7.1843,2.2535c-8.8852,0.223-17.809,0.4473-26.668-0.1156
		c-26.3233-1.6724-52.4546-5.0529-78.3415-10.1357c-35.878-7.0446-71.1631-16.2887-105.6411-28.5566
		c-18.314-6.5164-36.9339-12.3217-54.1594-21.4478c-10.5606-5.595-20.694-12.0388-30.7683-18.4925
		c-6.8699-4.4009-11.2562-11.2525-15.6057-17.9833c-1.44-2.2285-0.8442-3.8953,1.8771-4.8012
		c5.2776-1.757,10.4652-1.4291,15.083,1.8626c2.7213,1.9398,5.2302,4.2154,7.6506,6.532
		c8.1197,7.7717,17.8439,13.0368,27.7358,18.0851c30.5064,15.5689,63.225,25.1661,95.7238,35.3075
		c29.7789,9.2927,60.1381,16.3486,90.8887,21.5065c17.9074,3.0036,35.9949,4.9368,54.0043,7.3288
		C527.9326,212.7063,528.8455,212.6041,530.1502,212.6041z"/>
	<path class="st0" d="M62.1706,314.2747c0.3232-11.73,2.9138-23.0436,5.983-34.27c4.1664-15.2392,8.7359-30.3282,15.2917-44.7705
		c7.5057-16.5352,17.2893-31.4754,30.112-44.3686c14.9953-15.0778,30.4948-29.5931,48.1222-41.6202
		c5.9168-4.037,12.3239-6.6835,19.7463-4.7016c0.7848,0.2095,1.5759,0.4533,2.3045,0.8046c3.2849,1.5833,3.4231,3.323,0.6171,5.6279
		c-22.2296,18.2592-43.2022,37.8028-60.5146,60.9069c-9.5702,12.7718-16.9666,26.8562-22.8281,41.684
		c-7.5465,19.0904-14.3146,38.4496-18.4001,58.6291c-0.827,4.0847-1.4179,8.2312-1.8468,12.3772
		c-0.2668,2.5791-1.5253,4.027-3.8907,4.5702c-1.4923,0.3427-3.0502,0.5793-4.576,0.5654c-6.3912-0.0583-8.887-2.3409-9.5743-8.6552
		C62.4717,318.801,62.3492,316.5348,62.1706,314.2747z"/>
	<path class="st0" d="M589.4299,218.9268c-3.9709-5.633-8.0985-11.4844-12.2195-17.3403c-0.4175-0.5934-0.8406-1.1903-1.1847-1.8268
		c-1.8114-3.3501-1.0798-5.6925,2.6387-6.6388c3.2834-0.8356,6.7579-0.9217,10.2219-1.3479
		c-2.4459-2.3262-5.1185-4.8388-7.7582-7.3854c-3.7909-3.6573-7.5782-7.3187-11.3201-11.0258
		c-0.8964-0.888-1.7023-1.9023-2.3853-2.9641c-1.9216-2.9875-1.3212-5.6751,2.071-6.7063c3.14-0.9546,6.7089-1.7494,9.8423-1.2027
		c5.5849,0.9745,10.9944,2.9787,16.4542,4.6284c1.7163,0.5186,3.3587,1.2811,5.3215,1.5359
		c-2.4224-2.0481-4.826-4.1191-7.2703-6.1408c-19.236-15.9088-40.6061-28.3643-63.1116-38.9937
		c-3.5596-1.6812-7.0107-3.5916-10.5911-5.4368c1.9847-2.7188,4.6937-3.3629,8.4182-1.9118
		c7.7818,3.0317,15.5955,6.0234,23.1942,9.4755c24.9554,11.3373,48.0799,25.6133,68.596,43.881
		c5.7598,5.1286,11.1816,10.6424,16.6527,16.0859c2.8183,2.804,2.2874,4.7367-1.5122,5.7588
		c-4.3688,1.1752-8.4482,0.6056-12.6034-1.5374c-10.6228-5.4786-21.4343-10.5917-32.1703-15.851
		c-0.1953,0.3179-0.3906,0.6358-0.5859,0.9536c1.8518,1.7358,3.7122,3.4624,5.5536,5.2091
		c6.1898,5.8712,12.3759,11.7463,18.5536,17.6302c0.5908,0.5627,1.2065,1.1358,1.6496,1.8099
		c1.1481,1.7461,3.8636,3.4392,2.3794,5.5426c-1.1586,1.6418-3.8492,2.9247-5.9291,3.0338
		c-3.4493,0.181-6.9586-0.6816-10.4333-1.1709c-0.7542-0.1062-1.4689-0.4928-2.7193-0.932c2.5214,3.553,4.7736,6.6008,6.8836,9.744
		c1.4139,2.1062,2.7821,4.2716,3.8919,6.5463c1.6573,3.397,0.7572,6.106-2.891,7.0558c-3.3412,0.8698-6.9453,0.8032-10.442,0.9639
		c-1.2194,0.056-2.4643-0.4414-4.2084-0.7875c2.5045,3.5076,4.725,6.653,6.9821,9.7722c6.5388,9.0362,10.6985,18.9413,11.061,30.228
		c0.0495,1.5399,0.0082,3.0889-0.0966,4.6265c-0.655,9.6044-9.6803,16.2084-19.0764,13.9583
		c-0.8747-0.2094-1.7722-0.4906-2.5413-0.9398c-1.8131-1.0589-1.9689-2.6854-0.0814-3.5081
		c4.8494-2.1136,5.4433-6.2056,5.3686-10.6191c-0.2086-12.33-4.6066-23.2009-11.7707-33.0749
		c-3.0405-4.1904-6.0965-8.3699-9.1031-12.5845c-3.2753-4.5911-2.3198-7.5622,3.2796-8.3902
		C580.6499,218.4271,585.0277,218.9268,589.4299,218.9268z"/>
	<path class="st0" d="M240.86,683.4511c-1.7143,4.322-5.033,6.4039-9.1018,6.7656c-3.919,0.3483-7.98,0.3063-11.8521-0.3314
		c-4.7402-0.7807-6.8301-3.2723-7.1173-8.0038c-0.2962-4.8807-0.2345-9.8005-0.02-14.6898
		c0.2094-4.7726,2.7744-7.8894,7.4519-9.2684c6.087-1.7945,12.3418-2.3641,18.2178-0.0653c3.9314,1.5379,7.6054,4.213,10.782,7.0615
		c3.1198,2.7977,6.3626,5.0612,10.2775,6.429c11.3205,3.9551,22.6154,8.3474,34.6662,9.1295
		c10.3986,0.6748,20.8825,0.4459,31.314,0.1313c30.9756-0.9344,61.0564-7.4999,90.9079-15.1812
		c5.4843-1.4113,10.6472-4.1209,15.8787-6.413c0.8522-0.3734,1.2875-1.6971,1.9154-2.5818
		c0.5098-0.7182,0.8764-1.6348,1.5527-2.1225c4.1593-2.9998,13.191-1.824,16.3134,2.1743c0.5616,0.7191,1.0002,2.3181,0.6042,2.859
		c-1.4264,1.9482-1.0218,3.9245-0.7528,5.9818c0.4857,3.7145-0.1982,5.247-3.899,5.854c-3.2159,0.5276-6.6028,0.0248-9.9137-0.0442
		c-0.8613-0.0179-1.7822-0.3498-2.5724-0.1431c-17.6449,4.6136-35.1737,9.7203-52.9317,13.8417
		c-28.9775,6.7252-58.4482,9.2802-88.1896,8.7899c-17.8119-0.2936-34.8949-4.4051-51.7683-9.6753
		C242.1089,683.7882,241.586,683.6553,240.86,683.4511z"/>
	<path class="st0" d="M589.937,361.1516c-6.2398-0.1522-8.3087-1.5314-10.2491-7.4146
		c-4.6606-14.1313-8.9251-28.4024-15.4097-41.8648c-8.5037-17.6546-16.1039-35.7885-26.8522-52.269
		c-6.9916-10.7203-14.2408-21.2933-23.7036-30.1057c-1.905-1.7741-1.4962-3.0484,1.1124-3.717
		c3.2571-0.8347,6.2726-0.1065,9.1417,1.5748c6.5209,3.8212,11.5861,9.282,16.7697,14.6345
		c13.9987,14.4549,24.3141,31.3966,33.2059,49.2648c5.414,10.8795,11.1768,21.6656,15.5005,32.9831
		c3.765,9.8549,5.8073,20.3765,8.4488,30.6451c0.8697,3.3808-0.0468,4.6151-3.4197,5.5084
		C593.0033,360.7827,591.454,360.9063,589.937,361.1516z"/>
	<path class="st0" d="M156.4023,95.4978c4.0007,0.1318,6.9472,1.3675,9.2581,3.9245c2.0847,2.3067,1.8269,3.5973-1.007,4.946
		c-6.3084,3.0023-12.8014,5.6567-18.9383,8.972c-15.8704,8.5738-28.5023,20.8722-39.1916,35.2344
		c-15.8922,21.3531-28.8928,44.3942-39.6399,68.7119c-1.5693,3.5508-2.6702,7.328-3.7459,11.0699
		c-0.6511,2.2649-1.8113,2.6011-3.8225,1.9082c-4.5941-1.5829-6.229-4.3704-5.2452-9.1022
		c2.1056-10.128,6.2579-19.5051,10.7463-28.7283c8.4571-17.3785,16.894-34.7821,27.5657-50.9604
		c9.6648-14.6519,21.3115-27.3191,36.7827-36.0961c7.2414-4.1081,14.9613-6.9805,22.957-9.1642
		C153.6866,95.7861,155.3366,95.6697,156.4023,95.4978z"/>
	<path class="st0" d="M235.2429,366.3027c-8.2538-1.3592-15.9589-2.614-23.659-3.8987
		c-25.4273-4.2421-50.5058-2.8812-75.1806,4.7238c-2.7717,0.8543-5.3745,2.347-8.1831,2.9637
		c-2.4884,0.5463-5.2254,0.6977-7.723,0.2691c-2.7406-0.4702-3.1147-2.5875-0.8322-4.193c2.359-1.6593,4.9365-3.0719,7.5634-4.2764
		c12.3755-5.6741,25.5895-8.0094,38.9858-9.6235c24.4631-2.9474,48.6139-1.3583,72.4535,4.8569
		c1.6573,0.4321,3.3292,0.9788,4.839,1.7687c2.8214,1.4761,2.8742,3.9768-0.0703,5.2155
		C240.7393,365.2435,237.7408,365.6626,235.2429,366.3027z"/>
	<path class="st0" d="M460.2471,350.733c19.3536,0.4275,36.215,1.6278,52.5679,6.3795c5.8951,1.713,11.5215,4.3632,17.2376,6.6673
		c1.1614,0.4681,2.3047,1.1631,3.2174,2.0106c0.7971,0.7402,1.9443,2.1052,1.7073,2.7233c-0.361,0.9415-1.7675,2.0462-2.7578,2.0734
		c-2.5742,0.0708-5.4156,0.1956-7.7072-0.7614c-19.4655-8.1294-39.9733-10.2722-60.6698-9.5755
		c-12.6392,0.4255-25.186,3.2698-37.8063,4.7568c-4.3642,0.5142-8.8383,0.4393-13.2356,0.1806
		c-2.0706-0.1218-4.6828-0.9755-4.8378-3.5951c-0.1549-2.6182,2.4677-3.3442,4.3819-3.7351
		c10.6685-2.1787,21.3434-4.3867,32.0979-6.0593C450.4294,350.8668,456.5749,350.9568,460.2471,350.733z"/>
	<path class="st0" d="M310.532,584.3183c-3.4172-0.7922-6.881-1.4344-10.2227-2.47c-0.9702-0.3007-2.1068-1.6753-2.2046-2.6537
		c-0.0744-0.7444,1.2292-1.9372,2.1786-2.4008c1.4374-0.7017,3.0945-1.2947,4.6675-1.3184c6.4904-0.098,12.144-2.8009,17.813-5.4382
		c4.1356-1.9238,8.2411-3.9434,12.9202-3.8353c2.1418,0.0494,4.3604,0.3623,6.3839,1.0364c2.4848,0.8278,2.9159,2.512,1.0421,4.3118
		c-2.3941,2.2997-4.8926,4.7293-7.8013,6.2095C327.6156,581.6747,319.2883,583.4949,310.532,584.3183z"/>
</g>
</svg>
