<?xml version="1.0" encoding="utf-8"?>
<!-- Generator: Adobe Illustrator 24.3.0, SVG Export Plug-In . SVG Version: 6.00 Build 0)  -->
<svg version="1.1" id="Layer_1" xmlns="http://www.w3.org/2000/svg" xmlns:xlink="http://www.w3.org/1999/xlink" x="0px" y="0px"
	 viewBox="0 0 759.5572 840.1989" style="enable-background:new 0 0 759.5572 840.1989;" xml:space="preserve">
<style type="text/css">
	.st0{fill:#FFFFFF;}
</style>
<g>
	<path class="st0" d="M311.1542,159.0571c5.9003,1.3444,11.326,2.3524,16.6216,3.8276
		c20.9225,5.8283,39.2057,16.6509,56.0719,30.0685c6.1961,4.9291,12.3245,9.9586,16.5742,16.7966
		c0.7667,1.2336,1.0728,2.7534,1.5916,4.1411c-1.7002,0.3668-3.4256,1.1222-5.0952,1.0143
		c-2.8951-0.1871-5.2596-1.582-7.0335-4.0946c-4.8439-6.8611-11.5082-11.835-18.1049-16.8169
		c-17.0207-12.854-35.2468-23.4913-55.9746-29.2029c-5.2299-1.4411-10.6674-2.172-16.0435-3.0112
		c-1.5426-0.2408-3.3236-0.0365-4.7897,0.5126c-4.9006,1.8354-9.7082,3.9195-14.5514,5.9083
		c0.0598,0.2522,0.1196,0.5045,0.1794,0.7567c3.9019,0.4367,7.8131,0.8031,11.7042,1.3212
		c28.687,3.8196,54.5558,14.7554,78.2243,31.1604c1.9966,1.3839,3.7521,3.1614,5.4302,4.9353
		c0.648,0.685,1.2881,2.1028,0.9911,2.7644c-0.3371,0.7508-1.6893,1.3314-2.6682,1.4576
		c-3.6519,0.4707-6.9691-0.4848-10.0219-2.6165c-25.4882-17.797-53.1534-30.0802-84.3002-34.0215
		c-5.9875-0.7577-10.5774,0.4479-14.8977,4.3196c-2.584,2.3157-5.4404,4.3276-8.3991,6.6527
		c6.639,1.0042,12.7595,1.6651,18.7648,2.8902c15.1204,3.0845,29.1009,9.0744,42.0783,17.3827
		c1.9679,1.2599,3.7104,2.9166,5.388,4.5622c0.6263,0.6143,1.2939,2.0006,1.0082,2.5379c-0.42,0.7897-1.6276,1.4614-2.5883,1.6102
		c-4.0446,0.6262-7.6641-0.5917-11.0969-2.7615c-14.2149-8.985-29.5946-15.0621-46.1481-18.0648
		c-4.196-0.7611-8.4552-1.1821-12.6933-1.6938c-0.546-0.0659-1.3604,0.0741-1.6776,0.441
		c-3.4245,3.962-6.7742,7.9886-10.1443,11.9975c0.123,0.2597,0.2461,0.5195,0.3691,0.7792c0.9348,0,1.8696-0.0052,2.8043,0.0008
		c12.8409,0.0815,25.6225,0.8493,38.1286,3.9902c3.5042,0.8801,6.8889,2.2834,10.2549,3.6303
		c0.7561,0.3025,1.2046,1.3741,1.7946,2.0916c-0.8517,0.4262-1.6811,1.1434-2.5601,1.2104
		c-1.3243,0.101-2.7864,0.0159-4.0113-0.4548c-10.973-4.2169-22.5056-4.8439-34.0417-5.3791
		c-4.5358-0.2105-9.0899,0.0033-13.6317-0.1217c-1.9194-0.0528-2.9165,0.7495-3.7893,2.3885
		c-7.0321,13.2044-10.7973,27.4974-14.3834,41.8945c-8.3642,33.5804-12.6088,67.8579-17.3868,102.0361
		c-3.1691,22.6692-7.3727,45.0051-16.9456,65.971c7.6418-0.8502,15.0927-1.6792,23.1415-2.5747
		c-2.6276-1.8232-4.8116-3.0059-6.5404-4.6633c-1.0309-0.9884-2.1463-3.0161-1.7691-4.0415
		c0.4108-1.1169,2.4437-2.0628,3.8816-2.2582c1.4805-0.2012,3.1907,0.3719,4.6353,0.9913c4.5762,1.9619,8.998,4.3076,13.6445,6.0699
		c1.729,0.6558,3.9332,0.2889,5.8879,0.0807c10.0793-1.0731,20.1806-1.8492,29.9709,1.4924
		c3.64,1.2423,7.0704,3.2822,10.3453,5.3551c2.8227,1.7867,2.4876,4.0464-0.769,4.9432c-2.2616,0.6229-4.8832,0.7118-7.182,0.2437
		c-3.3553-0.6833-6.5617-2.0914-9.8388-3.1685c-1.1795-0.3877-2.3799-0.7118-4.114-1.226
		c-4.7974-1.016-16.0582,0.2554-20.7133,1.347c-14.216,2.0259-28.119,5.7929-42.8392,2.3408
		c-10.4315,21.6552-27.1989,36.7987-51.1988,43.9541c5.3838,4.1992,6.5281,9.9276,7.5481,15.5087
		c6.1874,33.8559,18.2978,65.8184,32.1592,97.0403c8.1235,18.2979,18.2814,35.7617,29.7252,52.2982
		c9.7088,14.0294,19.4246,28.1078,30.0708,41.4178c8.658,10.8243,18.4189,20.82,28.1936,30.6849
		c14.4708,14.6044,30.1779,27.8455,46.8611,39.8793c14.0816,10.1574,29.4671,17.9061,45.5884,24.281
		c5.0578,2.0001,9.9666,4.381,14.9202,6.6389c2.6409,1.2037,5.2361,0.8003,7.6107-0.4399
		c7.385-3.8572,14.715-7.8231,22.0035-11.8602c3.0934-1.7136,5.9087-3.9534,9.0627-5.5287
		c8.1753-4.0831,14.3504-10.7961,21.6357-16.0277c17.1961-12.349,32.9125-26.4118,46.9747-42.1342
		c11.4847-12.8406,23.391-25.4722,32.5878-40.1708c9.5834-15.3163,19.7803-30.3864,26.4527-47.26
		c6.4086-16.2064,11.7547-32.8312,17.6443-49.2448c6.892-19.2076,11.248-39.082,15.6768-58.9414
		c2.4692-11.0729,5.2214-22.0902,7.3652-33.2251c1.1454-5.9493,1.1641-12.1084,1.915-18.1449
		c0.248-1.9941,1.1961-3.9012,1.9032-6.0931c-2.3884-3.3875-5.3206-6.9934-7.6467-10.9552
		c-5.5261-9.412-7.2643-19.8795-7.7474-30.6075c-0.7452-16.5464,1.5182-32.8136,4.5375-49.0218
		c2.2832-12.2577,3.9423-24.5776,3.0966-37.117c-1.9108-28.336-12.7137-52.6983-32.3582-73.1993
		c-9.999-10.4349-21.072-19.4773-33.7017-26.5434c-9.5915-5.3663-19.6595-9.058-30.9053-7.9462
		c-2.2234,0.2198-4.4559,0.7944-6.5754,1.5222c-3.815,1.3099-7.6745,1.7586-11.4919,0.511
		c-1.4806-0.4839-3.585-1.8424-3.7073-2.9843c-0.1477-1.3789,1.168-3.7542,2.4444-4.2943c4.4645-1.8891,9.0822-3.795,13.826-4.5789
		c18.8727-3.1186,36.95,0.0779,54.1023,8.2852c25.6294,12.2637,46.9044,29.914,62.4635,53.703
		c14.0309,21.4522,20.9557,45.3452,19.4304,71.1158c-0.6308,10.6577-2.7377,21.2477-4.4987,31.8141
		c-2.3626,14.1753-4.7584,28.3506-4.5117,42.7675c0.1904,11.1224,1.9913,21.9245,8.851,31.2203
		c3.978,5.3906,8.2141,10.4648,15.1012,12.2819c0.2609,0.0689,0.577,0.1424,0.7418,0.3263
		c1.0323,1.1527,2.8491,2.3654,2.8102,3.5038c-0.04,1.1737-1.697,2.8086-3.004,3.3109c-2.4144,0.9276-5.0842,1.5904-7.6578,1.6257
		c-6.7877,0.0932-13.3932-1.0562-19.5203-4.2206c-0.7026-0.3629-1.4332-0.6711-2.2856-1.0674c0,2.4062-0.1697,4.5698,0.0287,6.699
		c0.9698,10.4022-0.1242,20.6595-1.5941,30.9519c-1.9,13.3042-3.3307,26.6749-5.0299,40.0085
		c-0.398,3.1226-1.0629,6.2111-1.0715,9.6879c1.3795-1.3704,2.8594-2.6544,4.1224-4.1248
		c10.3637-12.0665,15.2892-26.3016,16.0466-41.9778c0.3496-7.2387-0.2357-14.5199-0.3074-21.7827
		c-0.0313-3.169-0.0747-6.3706,0.325-9.5016c0.3634-2.8471,2.4601-3.7488,6.3549-3.4648c2.6479,0.1931,3.728,1.4895,3.9725,4.1517
		c0.6721,7.3212,1.8092,14.6029,2.3737,21.9302c1.6656,21.6219-4.607,40.3571-20.686,55.3928
		c-0.1862,0.1741-0.2986,0.4271-0.6092,0.8844c1.1794,0.2429,2.2075,0.4249,3.2209,0.668
		c6.5427,1.5702,9.5247,6.3473,10.721,12.4207c1.1479,5.8277-1.2405,10.2921-6.1602,13.4492
		c-4.919,3.1567-10.3732,4.2825-16.1383,4.0121c-3.9901-0.1872-7.7519-1.0493-10.6954-4.7451
		c-1.5317,5.1511-2.9904,9.9647-4.3943,14.7942c-6.0627,20.8569-14.7704,40.4498-25.5599,59.3906
		c-14.1719,24.8786-31.9788,46.7916-51.5329,67.3453c-13.0128,13.678-27.1225,26.2847-42.8362,36.9954
		c-7.6388,5.2068-14.647,11.2653-23.0563,15.4075c-8.4589,4.1667-16.4723,9.2358-24.9193,13.4294
		c-5.4213,2.6915-11.2763,4.5079-16.9292,6.736c-0.6478,0.2554-1.5005,0.474-1.8262,0.985c-2.0913,3.2811-5.474,4.0214-8.889,4.6323
		c-6.4424,1.1526-12.6926,0.0646-18.7748-2.0344c-23.7457-8.1945-47.1071-17.3401-68.4831-30.7311
		c-16.1109-10.0927-31.048-21.8217-45.4873-34.2055c-16.0982-13.8066-31.3761-28.4656-45.1291-44.5728
		c-10.249-12.0034-19.6898-24.7091-29.255-37.2812c-12.9731-17.0511-23.4132-35.6593-32.9537-54.7927
		c-0.1187-0.2379-0.2984-0.4454-0.6101-0.9026c-5.3229,2.9531-11.1697,3.7703-17.0366,2.6538
		c-4.2071-0.8006-8.4561-2.1811-12.2494-4.1464c-4.414-2.2867-5.4455-6.1707-3.8751-10.9848
		c1.4206-4.3547,4.0303-7.8897,7.904-10.6404c-2.9124-2.175-5.8046-4.1399-8.4795-6.3657
		c-13.4433-11.1863-18.5889-25.9001-17.4956-42.9296c0.5165-8.0455,1.8518-16.0434,2.956-24.0436
		c0.4527-3.2801,1.6253-4.0939,4.6792-3.9305c2.72,0.1454,3.8226,1.2347,4.0409,4.4402c0.4198,6.165,0.5484,12.3536,1.1093,18.504
		c0.5432,5.9567,1.1049,11.9551,2.3163,17.7989c2.7165,13.1036,11.2274,22.351,21.3359,30.3326
		c0.9793,0.7733,2.613,0.7177,4.4497,1.1724c-1.7533-6.4279-3.3946-12.1733-4.8837-17.9581
		c-3.7725-14.656-6.7635-29.4579-5.6504-44.6898c0.4211-5.7625,1.8906-11.4497,2.9113-17.166
		c0.2173-1.2171,0.5612-2.4116,1.0359-4.4145c-5.7335,2.3209-10.9216,4.153-15.8672,6.497
		c-5.1241,2.4287-10.2746,3.5133-15.8385,2.1779c-0.5292-0.127-1.163-0.1411-1.5567-0.451
		c-1.3605-1.0707-3.1262-2.0441-3.7265-3.4779c-0.2784-0.6649,1.5346-2.7656,2.809-3.4307
		c9.087-4.7427,18.1606-9.5425,27.4714-13.8168c10.0041-4.5926,19.566-9.6868,26.8611-18.18
		c6.7731-7.8855,11.5061-16.9703,15.2054-26.6122c6.6812-17.414,10.4448-35.475,12.524-54.0005
		c2.9682-26.446,5.9613-52.9065,9.8593-79.2252c2.8746-19.4084,8.0518-38.3998,14.1359-57.0769
		c8.2258-25.2514,24.1545-44.5863,45.936-59.4689c15.4951-10.5873,32.1504-18.4163,50.5746-22.1488
		c17.3675-3.5184,34.8849-3.2404,52.389-1.1435c14.0034,1.6775,27.8728,4.1042,41.2231,8.8527
		c16.2158,5.7676,30.8032,14.2983,43.2243,26.2594c4.2228,4.0664,8.0352,8.5923,11.733,13.1532
		c1.3748,1.6956,2.2017,4.0223,2.6799,6.193c0.3242,1.472,0.135,4.0086-0.7686,4.5822c-1.4513,0.9214-3.7187,0.9193-5.5724,0.7067
		c-1.0789-0.1237-2.2435-1.2467-2.9946-2.2118c-7.472-9.6018-17.5447-15.9051-27.603-22.3406
		c-26.2719-16.8092-55.2386-22.9753-85.9994-22.3839C313.4957,158.8437,312.5993,158.9515,311.1542,159.0571z M581.7097,552.5156
		c2.451,0.8336,3.801,1.4616,3.0253,3.7435c-1.9045,5.6033,0.4937,10.4146,2.9547,15.2237
		c5.4775-2.6381,7.1857-7.1295,5.2757-13.3696C591.8494,554.4672,586.8742,551.7017,581.7097,552.5156z M120.1984,583.3692
		c2.2504-4.1276,1.8525-8.1596,0.1443-12.4453C116.827,575.4722,116.7472,581.0979,120.1984,583.3692z"/>
	<path class="st0" d="M43.824,477.0206c1.2342,18.5471,2.2481,38.3313,3.9483,58.0563c1.7007,19.7311,3.9448,39.4196,6.2089,59.097
		c2.9506,25.6434,9.7566,50.4523,16.7961,75.1956c7.6263,26.8058,17.0297,52.9662,30.1717,77.5809
		c8.8074,16.4962,18.284,32.6539,27.9725,48.6534c5.7207,9.4472,12.4379,18.2909,18.711,27.4033
		c0.1537,0.2231,0.3961,0.3903,0.5272,0.623c0.7191,1.2756,2.3137,3.21,1.9458,3.7206c-0.9447,1.311-2.6671,2.5525-4.2504,2.8254
		c-6.1626,1.0622-11.6839,0.0113-16.5477-4.6359c-9.6335-9.2043-17.1421-20.0178-24.0792-31.2025
		c-12.3946-19.9836-24.8872-39.9389-36.3538-60.4566c-12.1705-21.7772-21.0883-45.065-28.445-68.9069
		c-4.4719-14.4929-9.4098-28.8866-12.9465-43.6111c-3.9611-16.492-7.0734-33.2309-9.6513-50.0013
		c-3.2151-20.9155-5.7394-41.9466-8.1354-62.9763c-2.6385-23.1579-3.172-46.4346-2.0694-69.7064
		c0.9375-19.7858,2.224-39.56,3.6877-59.3147c1.7205-23.2216,5.4013-46.1823,10.2069-68.9563
		c5.0651-24.0037,10.3837-47.9474,18.5134-71.1564c6.3239-18.0536,14.5289-35.2581,23.4898-52.1249
		c9.3803-17.6565,18.5327-35.509,30.8763-51.3082c9.5989-12.2861,20.1145-23.862,30.3433-35.6488
		c13.0826-15.0753,27.7663-28.4808,43.5692-40.6277c24.7466-19.0214,51.9572-33.0414,82.2053-41.383
		c32.5261-8.9698,65.5129-11.8609,99.0652-9.9927c16.8982,0.9409,33.7431,2.2916,50.1464,6.7489
		c19.3737,5.2645,37.9953,12.4363,55.124,23.0567c10.3133,6.3946,18.0607,15.3884,24.5941,25.4825
		c0.7816,1.2075,1.3864,2.5653,1.8628,3.927c1.0803,3.0874-0.2591,4.9469-3.5486,5.0502c-2.8448,0.0893-4.9493-1.3263-6.945-3.2197
		c-6.3264-6.002-12.5564-12.1266-19.1703-17.7998c-11.3322-9.7202-25.1422-14.6806-38.9622-19.5866
		c-21.6866-7.6985-44.1247-9.1374-66.9026-8.9332c-32.9137,0.2951-64.3763,7.1985-94.5989,19.8611
		c-12.7623,5.3471-24.4279,12.8493-35.8275,20.6642c-21.3329,14.6246-39.7497,32.4637-56.9849,51.6486
		c-10.5642,11.7593-21.2476,23.4002-30.3199,36.3824c-10.6407,15.2267-19.2612,31.6296-28.0004,47.9841
		c-18.2851,34.2189-29.3614,70.8611-37.7209,108.5318c-7.321,32.9908-12.1564,66.2944-14.2513,100.0084
		C46.6753,430.5541,45.2948,453.1369,43.824,477.0206z"/>
	<path class="st0" d="M751.606,394.4422c0.7336,55.444-4.381,102.2924-16.3655,148.2981
		c-7.8063,29.9671-15.4728,59.988-24.1799,89.6984c-9.7453,33.2528-24.8857,64.3441-40.617,95.1136
		c-10.2663,20.0804-21.0507,39.8781-34.4047,58.1091c-4.4359,6.0557-9.7309,11.4818-14.631,17.1976
		c-4.0422,4.715-14.2241,3.0784-17.497,0.3665c-1.4107-1.1689-1.7411-2.3385-0.4571-3.9353
		c22.2705-27.6959,37.5371-59.3401,51.2978-91.7726c11.9255-28.1074,23.2205-56.5096,30.6843-86.1735
		c6.8011-27.0298,12.9503-54.2346,18.8143-81.4854c3.7611-17.4782,7.1238-35.0946,9.4827-52.8065
		c2.1072-15.8213,3.0096-31.8402,3.7115-47.8041c1.7502-39.8013-1.0801-79.4051-6.684-118.7922
		c-4.0396-28.3927-13.8793-55.0569-25.8089-80.9894c-7.6345-16.5958-15.5181-33.0955-25.8402-48.2218
		c-7.3647-10.7924-14.971-21.4622-23.1188-31.6682c-12.4211-15.5587-25.9069-30.2261-40.937-43.321
		c-10.3437-9.0118-21.3275-17.2556-33.2401-24.1763c-9.9691-5.7916-20.6683-8.2564-32.1569-7.4099
		c-4.3275,0.3188-8.2513,1.6379-11.1971,4.9137c-4.4026,4.8958-10.3626,4.4943-15.0384,2.5938
		c-3.4592-1.4061-4.265-4.0754-2.2968-7.2641c2.7898-4.5199,7.1356-6.9109,12.0268-8.382c10.014-3.0118,20.2327-2.9115,30.535-1.98
		c24.2115,2.1891,44.5758,13.2976,64.0787,26.8331c16.2277,11.2625,30.5007,24.6256,44.1758,38.7475
		c26.5381,27.4052,47.6147,58.5072,63.8249,93.0219c9.0904,19.3549,17.3294,38.9893,23.2689,59.5693
		c5.522,19.1333,8.4072,38.7006,9.9094,58.4797C750.2394,368.2352,751.0556,385.3047,751.606,394.4422z"/>
	<path class="st0" d="M488.5302,423.7183c-8.3581-2.2566-20.6178-6.207-25.7805-7.3069c-5.0189-0.8553-9.2256,0.702-13.441,2.6883
		c-3.1527,1.4857-6.4966,2.5669-9.7627,3.8087c-0.2404,0.0914-0.568,0.1038-0.8086,0.0198
		c-1.4028-0.4894-2.7917-1.0186-4.1854-1.5344c0.6392-1.2152,1.016-2.7078,1.9601-3.6003
		c5.935-5.6104,13.4294-7.7625,21.2201-9.0353c10.9942-1.7962,21.6899-0.3877,32.2381,3.0472c2,0.6513,4.554,0.6479,6.567,0.0245
		c7.2824-2.2554,14.5331-4.7005,20.3223-10.0788c0.4407-0.4094,1.9451-0.299,2.4987,0.1423
		c3.0071,2.3965,3.3187,6.8289,0.5911,9.5299c-2.0989,2.0785-4.5011,3.8508-6.7462,6.4347
		c3.4872-0.4966,6.9706-1.0228,10.4629-1.4805c2.9404-0.3853,5.8929-0.9344,8.8364-0.9131c1.192,0.0086,2.3746,1.3384,3.5614,2.067
		c-0.7816,1.1189-1.3291,2.5847-2.3851,3.2972c-4.8113,3.2462-10.4116,4.101-16.024,4.7856
		C507.8341,426.8121,498.0871,426.6539,488.5302,423.7183z"/>
	<path class="st0" d="M484.761,162.9343c-2.5032-0.7662-4.709-1.2481-6.7571-2.1065c-4.9958-2.094-5.9363-5.5216-2.0504-9.1549
		c4.0213-3.7598,8.5836-6.9572,13.0212-10.2496c2.9138-2.1618,6.0501-4.0213,9.0377-6.0871
		c1.1571-0.8002,2.179-1.7959,3.2625-2.7025c-0.0663-0.2864-0.1325-0.5728-0.1988-0.8592c-2.2176,0-4.4409,0.0985-6.6512-0.0281
		c-2.1531-0.1233-4.3228-0.3425-6.4219-0.8061c-0.6894-0.1523-1.6085-1.1793-1.6418-1.8452
		c-0.0328-0.6574,0.7824-1.6659,1.473-1.9852c1.3795-0.6377,2.9092-1.1798,4.4103-1.2852
		c6.6303-0.4655,13.2723-0.6582,19.7257,1.3856c1.3688,0.4335,2.7433,1.0128,3.9397,1.7939c2.7109,1.77,3.475,4.22,1.4842,6.7242
		c-2.5151,3.1636-5.6091,5.8719-8.5012,8.7283c-1.0157,1.0032-2.1727,1.8633-3.4688,2.9613
		c3.5183,0.6406,6.7355,0.9912,9.8024,1.8677c2.0344,0.5815,4.0228,1.6901,5.7282,2.9679c2.3259,1.7429,2.5804,4.0284,0.5747,6.1276
		c-2.1147,2.2134-4.5791,4.1208-7.0308,5.9768c-2.7924,2.1139-5.7398,4.0233-8.5363,5.9635c9.2241,0,18.3828-0.3204,27.5045,0.1215
		c5.3815,0.2607,10.7222,1.6414,16.0417,2.7148c1.3602,0.2745,2.6647,1.1625,3.8312,1.9971
		c3.5464,2.5374,3.308,5.2512-0.6668,7.1436c-4.0765,1.9408-8.5018,2.283-12.8182,1.4739
		c-17.311-3.2451-34.1319-1.0192-50.7614,4.0247c-6.4315,1.9507-12.9384,2.9161-19.5968,1.1459
		c-8.2195-2.1852-9.587-5.9231-3.5577-11.7451c4.6607-4.5005,10.2222-8.0708,15.4059-12.025
		C482.3378,164.4156,483.4361,163.7963,484.761,162.9343z"/>
	<path class="st0" d="M428.7429,94.2277c-0.8698-3.6711,0.0144-5.2574,3.4601-6.1607c5.5984-1.4677,10.9734-0.9138,16.3487,2.7199
		c0-1.4141-0.0001-2.4271,0-3.4402c0.0002-1.8203-0.2283-3.6941,2.172-4.3976c2.5222-0.7393,5.2967-0.0022,6.549,1.9858
		c0.4795,0.7611,0.7259,1.6653,1.1695,2.4531c3.8592,6.8546,7.6605,13.7441,11.6661,20.5125
		c1.0486,1.7717,0.8919,3.0646-0.7462,3.8144c-1.9396,0.8878-4.0796,1.3836-6.1751,1.8648
		c-1.0087,0.2316-2.1147,0.0399-3.4542,0.0399c0.7069,2.0403,1.32,3.732,1.8788,5.4413c0.7706,2.3574,0.1011,4.1092-2.2709,5.0612
		c-4.4208,1.7742-8.8737,1.8144-13.2465-0.0585c-1.0143-0.4344-1.835-1.4113-2.6323-2.2461
		c-3.0438-3.1869-5.647-6.9488-9.1285-9.5355c-11.9237-8.8594-24.7812-16.138-38.8374-21.1603
		c-2.6412-0.9437-5.1735-1.0685-7.979-0.5285c-2.3225,0.4471-4.8804,0.1356-7.246-0.3086
		c-1.1281-0.2118-2.0516-1.5129-3.0678-2.3205c0.8752-0.9265,1.5813-2.2018,2.6537-2.7215
		c5.9642-2.891,12.3361-2.8921,18.6812-1.9034c9.6082,1.4971,18.4606,5.3043,27.1624,9.4766
		C426.5918,93.2433,427.4937,93.6489,428.7429,94.2277z"/>
	<path class="st0" d="M340.1057,117.9632c-9.8636,0.895-19.9053,1.7262-29.9253,2.7671c-2.7747,0.2883-5.4566,1.4623-8.2314,1.7584
		c-3.3613,0.3587-6.7844,0.371-10.1619,0.1874c-0.8795-0.0478-2.2619-1.3141-2.3605-2.1456
		c-0.0887-0.7485,1.1191-2.1746,2.0068-2.4313c6.5123-1.883,12.9927-4.2711,19.661-5.1472
		c21.957-2.8848,43.9915-3.9471,65.8884,0.6716c19.3747,4.0867,38.0002,10.3376,55.3057,20.1333
		c6.1542,3.4836,11.2737,8.2477,15.8604,13.5767c2.2854,2.6553,1.7506,4.4021-1.7384,4.668
		c-2.1582,0.1645-4.9758-0.2869-6.5423-1.6007c-22.5515-18.9135-49.3267-27.2413-77.8015-31.1794
		C354.9034,118.2309,347.585,118.3607,340.1057,117.9632z"/>
	<path class="st0" d="M372.1134,663.3036c-11.0219-0.1635-21.9629-1.0582-32.569-4.3007c-5.0522-1.5444-10.01-3.4027-13.6054-7.5953
		c-2.6195-3.0545-2.1037-4.8998,1.7544-6.1367c4.3686-1.4005,8.8165-1.2537,12.6426,1.2082
		c8.1438,5.24,17.3033,6.2285,26.5451,7.1227c14.285,1.3822,27.7871-1.8419,41.0097-6.8632
		c3.048-1.1574,6.1791-2.4054,9.3706-2.7877c3.1487-0.377,6.4503,0.1112,9.6249,0.6052c0.9961,0.155,2.4823,1.5322,2.5142,2.3954
		c0.039,1.0549-0.9662,2.6713-1.9545,3.1527c-4.8874,2.381-9.7879,4.8551-14.9241,6.5817
		C399.4432,661.0826,385.9811,663.525,372.1134,663.3036z"/>
	<path class="st0" d="M373.3562,578.0125c-5.7015-0.8185-10.7663-1.2994-15.7064-2.3612c-2.3863-0.5129-4.6967-1.8926-6.7279-3.3245
		c-1.0013-0.7059-2.0084-2.6349-1.7147-3.6257c0.3447-1.1628,2.0376-2.5844,3.2563-2.6969
		c2.8104-0.2596,6.0745-0.6057,8.4613,0.5347c5.9012,2.8193,12.0385,3.0174,18.2943,3.2784
		c2.4048,0.1003,4.8329,0.5835,7.1547,1.2341c0.837,0.2346,1.9306,1.473,1.9268,2.2487c-0.0038,0.775-1.1207,2.0463-1.9451,2.2319
		C381.8857,576.5386,377.3553,577.2762,373.3562,578.0125z"/>
	<path class="st0" d="M581.7097,552.5156c5.1645-0.8139,10.1396,1.9517,11.2557,5.5977c1.91,6.2401,0.2018,10.7314-5.2757,13.3696
		c-2.4609-4.8091-4.8592-9.6204-2.9547-15.2237C585.5107,553.9772,584.1608,553.3492,581.7097,552.5156z"/>
	<path class="st0" d="M120.1984,583.3692c-3.4511-2.2713-3.3714-7.897,0.1443-12.4453
		C122.0508,575.2096,122.4488,579.2416,120.1984,583.3692z"/>
</g>
</svg>
