<?xml version="1.0" encoding="utf-8"?>
<!-- Generator: Adobe Illustrator 24.3.0, SVG Export Plug-In . SVG Version: 6.00 Build 0)  -->
<svg version="1.1" id="Layer_1" xmlns="http://www.w3.org/2000/svg" xmlns:xlink="http://www.w3.org/1999/xlink" x="0px" y="0px"
	 viewBox="0 0 633.8798 847.8271" style="enable-background:new 0 0 633.8798 847.8271;" xml:space="preserve">
<style type="text/css">
	.st0{fill:#FFFFFF;}
</style>
<g>
	<path class="st0" d="M587.9497,405.2721c1.5644-8.4644,3.1339-16.9279,4.6895-25.3938c0.3773-2.0536,0.6555-4.1264,1.0699-6.172
		c3.3623-16.5976-2.4211-30.6877-12.0873-43.6427c-2.8726-3.85-6.2592-7.3132-9.2012-11.1154
		c-2.2252-2.8758-2.0389-3.4981,0.5594-6.0276c-3.9645-5.8179-7.9368-11.6754-11.9395-17.512
		c-3.1296-4.5636-2.2247-6.8302,3.2397-7.7682c4.5881-0.7876,8.7881,0.4314,13.0718,2.5208
		c-0.5522-0.719-1.0586-1.4794-1.6638-2.1506c-7.4804-8.2958-14.999-16.5574-22.447-24.882
		c-1.5647-1.7488-3.0845-3.5999-4.2638-5.6152c-1.3832-2.3639-0.7731-4.422,1.793-5.2972c3.0191-1.0297,6.254-1.4269,9.559-2.1334
		c-2.7914-3.1805-5.6558-6.6492-8.7355-9.9149c-9.4685-10.0401-19.0093-20.0122-28.5432-29.9904
		c-4.0164-4.2036-3.3516-7.1262,2.2753-8.7645c5.7529-1.675,11.5688-1.4256,17.1088,0.8324
		c5.8791,2.3963,11.6082,5.1604,17.4067,7.7551c0.4697,0.2102,0.9697,0.3523,1.8139,0.0495
		c-3.5133-3.5767-7.0184-7.1617-10.5414-10.7289c-17.8492-18.0728-38.0852-33.3713-57.5388-49.5828
		c-4.0982-3.4151-7.9611-7.1592-11.6032-11.0591c-2.5715-2.7536-1.8976-4.262,1.8328-5.2297
		c3.2196-0.8352,6.3362-0.5005,9.1335,1.4003c18.2461,12.3986,36.7119,24.491,54.6506,37.3203
		c20.7486,14.839,39.2615,32.2582,56.0452,51.4781c3.6389,4.167,7.0502,8.5337,10.5341,12.8346
		c0.6822,0.8421,1.285,1.7671,1.8041,2.7194c1.8071,3.3155,1.097,5.7801-2.477,7.1488c-6.7604,2.5888-13.6334,2.7123-19.957-1.0909
		c-7.5413-4.5356-14.7958-9.5466-22.2067-14.3017c-1.7907-1.149-3.7075-2.1014-5.7693-2.7953
		c4.8768,5.5646,9.8749,11.0287,14.5936,16.7244c4.0496,4.8882,7.9492,9.9222,11.5956,15.116
		c2.779,3.9584,1.7447,6.4572-2.904,7.9665c-1.6177,0.5252-3.3641,0.7298-5.0696,0.8861c-1.5842,0.1452-3.1923,0.0309-5.3198,0.0309
		c9.6003,10.7255,19.6645,20.4527,26.9843,33.2686c1.2756-6.1524,2.3579-11.6144,3.549-17.0526
		c1.2814-5.8501,2.6667-11.6773,4.0033-17.5153c0.687-3.0008,3.1158-2.9662,5.3828-2.946c3.2285,0.0288,5.2473,1.3403,5.3233,3.8979
		c0.1509,5.0698,0.1927,10.1754-0.2296,15.2237c-1.415,16.9209-2.5724,33.8851-4.7358,50.716
		c-2.4402,18.9839-5.8629,37.8415-8.8578,56.7542c-0.1102,0.6957-0.2137,1.3925-0.3212,2.0951
		c6.5919,0.7297,6.5284,0.2176,7.1755,8.1866c1.5794,19.4537,3.4636,38.8826,5.0858,58.333
		c0.8896,10.666,2.1959,21.3858-0.3091,32.0037c-2.7341,11.5891-13.7949,20.3202-25.0901,19.9863
		c-1.7107-0.0505-3.4122-0.4102-5.4986-0.6753c0,1.1158,0.0189,2.1698-0.0027,3.2229c-0.4844,23.7039-1.0009,47.4072-1.4535,71.1118
		c-0.4648,24.3539-7.0674,47.0164-18.0172,68.6773c-13.0309,25.7782-26.6454,51.2211-41.6955,75.8746
		c-7.7983,12.7744-15.3635,25.7507-24.0675,37.895c-8.1219,11.332-17.3906,21.8575-27.9452,31.1627
		c-7.9015,6.9662-17.3526,10.7556-26.9727,14.392c-19.0372,7.1962-39.0204,10.6614-58.7607,15.1102
		c-21.1435,4.7648-42.6562,6.8769-64.1532,9.0445c-12.0106,1.2111-23.9029-0.8257-35.838-2.0081
		c-28.2901-2.8021-55.9175-8.988-83.4206-15.8081c-14.3024-3.5466-28.5193-7.8234-40.8531-16.0999
		c-6.5431-4.3908-12.2813-10.1917-17.709-15.987c-9.1176-9.735-17.8664-19.85-24.8689-31.2899
		c-4.5019-7.3549-8.8362-14.813-13.2004-22.2514c-9.1872-15.6584-18.8874-31.0474-27.3676-47.0808
		c-9.2013-17.3967-17.5197-35.2792-25.7182-53.1812c-5.5769-12.1774-7.9684-25.3685-8.5142-38.6451
		c-1.1006-26.7679-1.506-53.5644-2.1926-80.3492c-0.03-1.1694-0.0038-2.3402-0.0038-3.3012c-3.3271,0-6.4936,0.3631-9.5488-0.0658
		c-10.5908-1.4868-19.7729-10.9927-21.5812-22.1005c-1.6077-9.8761-0.6243-19.7563,0.2125-29.6164
		c1.6737-19.7195,3.4489-39.4303,5.176-59.1453c0.0872-0.9948,0.0919-1.9967,0.1754-2.992
		c0.1977-2.3578,1.2207-3.8986,3.8166-4.1143c3.266-0.2715,5.1882,0.4598,5.7532,3.1767c1.808,8.6949,3.5708,17.4113,4.93,26.1847
		c2.1658,13.9799,1.2297,28.0863,1.3703,42.1564c0.0822,8.2226,0.9662,16.4716,2.0342,24.6374
		c0.6787,5.1891,3.4213,9.6764,7.4209,14.0337c0.0835-1.3675,0.1835-2.2027,0.1784-3.0372
		c-0.2058-33.9109,1.897-67.7297,4.2899-101.526c1.1024-15.5687,2.9053-31.0881,4.4129-46.6277
		c0.1915-1.9742,0.661-3.7751,3.1175-4.1471c2.9037-0.4396,4.5463,0.5695,4.888,3.555c1.1968,10.4597,2.6099,20.9096,3.3348,31.4051
		c1.5958,23.1046,2.7677,46.2379,4.2116,69.3534c2.2422,35.8953,4.5495,71.7867,6.8653,107.6773
		c0.9356,14.4991,1.8498,29.0013,2.987,43.4855c1.0929,13.9197,6.1385,26.7053,12.3588,38.9789
		c11.2811,22.2594,22.7611,44.4072,35.7987,65.7357c10.4112,17.032,19.636,34.7953,30.2226,51.7115
		c6.4254,10.267,14.2511,19.6888,21.7954,29.2151c6.7113,8.4745,16.3623,12.6861,26.332,15.6142
		c14.8764,4.3691,29.9724,7.9956,44.9924,11.8702c18.3445,4.7321,37.1819,6.5403,55.8711,9.1923
		c3.358,0.4765,6.8651-0.2161,10.2806-0.0038c8.4947,0.5279,16.7691-1.1674,25.1255-2.1227
		c26.5179-3.0319,52.3721-9.2897,78.0168-16.3784c7.8186-2.1613,15.4677-5.4014,22.6913-9.124
		c7.7824-4.0105,12.9807-11.1114,18.3889-17.9058c17.2973-21.731,29.3399-46.6783,43.4871-70.3331
		c6.7055-11.2122,13.2726-22.5209,19.4746-34.0166c6.9354-12.8549,13.4937-25.9177,20.0179-38.9888
		c6.5809-13.1849,9.7748-27.2696,10.7136-41.9458c2.4528-38.3396,5.0973-76.667,7.4879-115.0103
		c1.3281-21.3024,2.0339-42.6454,3.5085-63.9363c1.4737-21.278,3.5556-42.5139,5.3721-63.7681
		c0.2006-2.3474,0.7962-4.2952,3.752-4.3242c2.7416-0.0268,3.926,0.7958,4.2991,3.7754c1.0036,8.0145,2.0063,16.0332,2.7672,24.0731
		c0.9149,9.6672,1.5799,19.3581,2.353,29.0388C587.5279,405.2853,587.7388,405.2787,587.9497,405.2721z M591.5908,503.3215
		c0.5135-0.6039,1.0981-1.2429,1.629-1.9238c3.2546-4.1757,5.5462-8.9404,5.9255-14.1343
		c0.7913-10.8383,0.9814-21.7198,1.4667-32.5813c0.5096-11.4055,1.0443-22.8102,1.642-34.2114
		c0.1299-2.4789,0.5739-4.9413,0.9447-8.0004c-4.9068,3.8851-9.9546,3.7684-14.986,2.554
		C589.3419,444.5406,590.4614,473.801,591.5908,503.3215z M604.0273,310.5233c-5.7654,1.7783-10.8823,1.2814-16.43-1.5166
		c2.9138,4.4916,5.3312,8.2142,7.7444,11.9394c1.1069,1.7088,1.9169,3.4112-0.4536,4.8441
		c1.8659,2.1418,3.5436,4.0677,5.5962,6.4238C601.7007,324.7673,602.8161,317.9384,604.0273,310.5233z"/>
	<path class="st0" d="M376.8644,32.0131c-17.5204-5.387-34.3427-7.1013-51.4113-1.7698c-4.6477,1.4517-9.4123,2.0391-14.2335,0.7972
		c-1.0468-0.2697-2.1111-0.603-3.056-1.1133c-3.1904-1.7233-3.4326-3.7091-0.6897-6.1198c2.3014-2.0226,4.7325-3.8976,7.4277-6.1008
		c-7.9236-1.7581-15.5494-2.4144-23.2458-2.0769c-23.0959,1.0127-45.6218,5.3321-67.56,12.4742
		c-21.7693,7.0871-42.6153,16.4581-61.1865,29.8952c-10.9082,7.8926-20.5886,17.5001-30.661,26.5153
		c-2.1393,1.9148-4.2702,2.5939-6.9118,2.1993c-2.9471-0.4402-3.8953-2.1002-2.2255-4.5419
		c2.6568-3.885,5.4065-7.7583,8.5408-11.2568c24.4584-27.301,56.0581-42.7166,90.3242-53.3008
		c24.8293-7.6694,50.2918-12.11,76.3947-12.0593c13.646,0.0265,26.9288,2.2376,39.7773,6.9045
		c3.6762,1.3353,4.5598,2.8038,3.5463,5.7881c6.4628,0.4646,13.045,0.3703,19.399,1.5285
		c9.3493,1.7042,18.5441,4.2682,27.7825,6.5554c1.3846,0.3428,2.7,1.0814,3.9591,1.7932c3.8365,2.1689,3.8811,5.0035-0.1008,6.9773
		c-2.7386,1.3574-5.7663,2.1371-8.6778,3.1368c-0.8515,0.2924-1.748,0.4537-3.1657,0.812c6.972,1.7861,13.4257,3.467,19.8936,5.0916
		c32.7006,8.2141,63.1818,21.499,91.3274,40.0727c7.6661,5.059,15.1597,10.4096,20.7658,17.8463
		c1.6104,2.1363,2.6628,4.7153,3.8221,7.1618c0.7931,1.674,0.1861,2.914-1.5459,3.7295c-4.9135,2.3137-10.4176,0.6295-12.962-4.041
		c-3.037-5.575-7.7941-9.548-12.7086-13.2913C475.69,85.1146,460.4603,77.0324,444.924,69.4746
		c-22.8423-11.1119-47.2452-17.5582-71.615-24.1283c-3.5834-0.9661-7.1406-2.1153-10.5679-3.525
		c-1.1172-0.4595-2.3833-1.9761-2.4588-3.0856c-0.0571-0.838,1.5192-2.218,2.635-2.6233c3.1454-1.1426,6.4294-1.9026,9.6562-2.8229
		C373.7787,32.9456,374.9765,32.5757,376.8644,32.0131z"/>
	<path class="st0" d="M326.9904,721.416c-18.1503,1.2332-35.4048-2.1319-51.4331-10.7314
		c-20.7276-11.1208-33.5731-28.3565-38.5505-51.3858c-0.2476-1.1457-0.3603-2.3401-0.3707-3.5134
		c-0.027-3.0545-0.3459-5.7205-3.3128-7.7494c-2.3336-1.5959-2.1772-4.6801-0.3565-6.4549c1.9696-1.9199,5.1861-1.847,7.2092-0.3447
		c2.4948,1.8525,5.166,3.5547,7.9675,4.8881c5.5093,2.6219,11.6573,2.3922,17.5044,3.5298
		c16.9902,3.3055,34.124,4.997,51.4071,5.0732c17.7291,0.0782,35.3883-0.9157,52.8043-4.5735
		c6.6344-1.3932,13.589-0.912,20.0182-3.5798c3.3457-1.3882,6.812-2.3464,9.2662-5.385c1.4889-1.8434,5.0073-1.4697,6.9232,0.3438
		c1.7859,1.6903,2.1084,4.7831-0.0843,6.243c-3.5099,2.3367-3.1411,5.6599-3.6661,9.0175
		c-0.6408,4.0977-1.5143,8.231-2.9066,12.1275c-9.3373,26.1304-28.292,41.7056-54.5492,49.0381
		c-4.6244,1.2914-9.367,2.1689-14.0722,3.1555C329.5555,721.3732,328.2581,721.3239,326.9904,721.416z M243.8826,655.1307
		c0.0377,0.3145,0.0531,1.0237,0.2137,1.6981c5.5941,23.4789,19.3726,40.5931,40.9128,51.1406
		c9.6984,4.7489,20.0594,7.7449,31.1909,7.3865c6.5674-0.2114,13.086,0.2802,19.6355-1.241
		c29.3867-6.8254,48.8572-24.3622,58.149-53.0979c0.6547-2.0246,0.9624-4.1614,1.3579-5.9193
		C344.6993,669.9786,294.3634,669.9991,243.8826,655.1307z"/>
	<path class="st0" d="M52.594,142.8386c-3.3278-0.6046-6.7058-0.8386-9.8212-1.8678c-5.517-1.8227-6.4526-5.0892-2.9357-9.7536
		c8.3336-11.0525,18.4702-20.2387,29.8605-28.035c8.016-5.4867,16.0135-11.0556,25.5108-13.8387
		c5.6604-1.6587,11.4162-2.389,17.1976-1.0087c1.5585,0.3721,2.8474,1.8735,4.26,2.8565c-1.3283,1.0407-2.5779,2.2134-4.0156,3.0706
		c-0.8057,0.4804-1.9835,0.7522-2.8892,0.5773c-3.7725-0.7288-6.7247,1.0553-9.5546,3.0013
		c-13.184,9.0659-24.8174,19.8126-34.7146,32.4081c-0.2048,0.2606-0.3278,0.5856-0.5291,0.9541
		c2.5564,0.4281,4.9537,0.7525,7.3127,1.2563c1.2267,0.2619,2.4571,0.7075,3.5617,1.3011c3.1904,1.7145,3.7133,4.001,1.5222,6.9138
		c-3.8731,5.149-7.7311,10.3156-11.7837,15.3225c-12.3961,15.3153-18.1868,33.2914-21.3244,52.3577
		c-0.8105,4.9249-1.6147,9.853-2.2696,14.7998c-0.1985,1.4996-0.1812,3.1581,0.2591,4.5825c0.7192,2.3264-0.301,3.4741-2.197,4.2247
		c-4.2496,1.6824-8.5412,1.6743-12.7339-0.1254c-2.7978-1.2009-4.0858-3.8327-4.2518-6.5521
		c-0.3082-5.0491-0.6046-10.2075,0.0781-15.1854c1.3038-9.5067,2.8499-19.0282,5.1247-28.3409
		c2.566-10.5051,8.8259-19.2355,15.3655-27.6731C46.5717,150.2842,49.6188,146.5633,52.594,142.8386z"/>
	<path class="st0" d="M152.5399,135.2179c-8.5577,3.2372-16.7154,7.2875-24.6049,11.9534
		c-15.2207,9.0017-28.5847,20.1783-40.1331,33.5633c-0.7324,0.8489-2.1381,1.8083-3.0306,1.6422
		c-0.9817-0.1827-2.0787-1.479-2.4727-2.5339c-0.3116-0.8342,0.2201-2.0969,0.6231-3.0672
		c4.9593-11.9409,12.224-22.1677,22.2435-30.4628c20.1404-16.6741,42.9005-27.3126,68.9954-30.4282
		c4.5084-0.5383,9.0502-1.1942,13.3785,0.8905c1.2159,0.5856,2.5086,1.1735,3.4846,2.0676
		c4.2686,3.9104,4.5902,6.0674-0.4768,9.1101c-11.4292,6.8633-21.5665,15.3688-30.6799,25.0887
		c-4.8213,5.1422-8.6991,10.9156-11.4446,17.4339c-1.1578,2.7487-2.3782,3.3908-5.0282,1.8956
		c-2.3132-1.3051-4.5851-3.0172-6.2158-5.0727c-0.9753-1.2293-1.25-3.599-0.8657-5.2261c2.214-9.3745,7.5874-16.974,14.1442-23.8105
		c0.8055-0.8399,1.9197-1.3839,2.8908-2.065C153.0784,135.8705,152.8091,135.5442,152.5399,135.2179z"/>
	<path class="st0" d="M548.0764,308.143c0,3.9043,0.0816,7.8997-0.0231,11.8903c-0.1042,3.9728-1.4833,5.3326-5.5254,5.384
		c-1.5948,0.0203-3.2675-0.2634-4.7725-0.788c-1.2984-0.4525-2.3766-1.3442-1.2973-3.1396
		c0.4087-0.6797,0.2545-1.7596,0.1992-2.6472c-1.0828-17.3925-1.8319-34.8184-3.5261-52.1517
		c-0.4579-4.685-3.4109-9.3099-5.8822-13.5783c-6.2468-10.7894-15.1176-19.4442-23.8482-28.1888
		c-12.4527-12.4727-25.2052-24.6065-39.5678-34.8999c-3.9787-2.8515-8.2296-5.3208-12.2808-8.0756
		c-0.793-0.5392-1.8327-1.7104-1.6953-2.3679c0.1665-0.7974,1.3615-1.6639,2.2866-1.9685c3.4867-1.1478,6.8979-0.9674,10.2744,0.754
		c19.7511,10.0697,36.2502,24.3635,51.6653,39.9889c6.2314,6.3165,11.8688,13.2175,17.8494,19.7861
		c0.5308,0.5831,1.6464,1.029,2.4158,0.934c4.3218-0.5335,5.8309,0.0777,6.6447,4.3801c1.5991,8.4542,3.1332,16.9536,4.0079,25.5045
		C546.3303,281.9544,547.0752,295.0091,548.0764,308.143z"/>
	<path class="st0" d="M95.6484,244.9087c2.4157-3.2901,4.225-6.5006,6.7269-9.0245c8.1705-8.2423,16.5906-16.2373,24.9207-24.3212
		c3.6483-3.5405,7.3583-7.019,10.9399-10.6254c1.1341-1.142,2.0593-2.539,2.8773-3.9378c2.043-3.4936,8.4181-4.7718,11.3873-2.0368
		c0.5726,0.5275,0.843,2.1856,0.448,2.8243c-1.8927,3.0602-3.6747,6.3438-6.2042,8.8266
		c-8.2906,8.1378-17.1583,15.6983-25.2796,23.9943c-6.0699,6.2005-11.5863,12.9973-16.8763,19.8914
		c-5.1734,6.7423-6.5282,15.0279-8.0376,23.1848c-2.4074,13.0099-3.2627,26.1012-2.5806,39.3085
		c0.0932,1.8053-0.0311,3.6367-0.2208,5.4385c-0.3776,3.5867-1.262,4.7201-4.784,5.1744
		c-6.8761,0.8869-9.4582-0.9795-10.3941-6.2648c-0.9408-5.3131-1.7238-10.8128-1.4066-16.1613
		c1.1456-19.3176,3.5433-38.498,8.0352-57.3651c0.1261-0.5298,0.2677-1.0559,0.4029-1.5835
		c0.9771-3.8134,2.0961-4.7099,5.5475-4.4449c2.9839,0.229,3.9392,1.3975,4.2443,5.1704
		C95.4344,243.4492,95.5205,243.9382,95.6484,244.9087z"/>
	<path class="st0" d="M195.6759,341.4554c9.1398-0.0827,22.523,1.7491,35.8095,4.3861c2.1165,0.42,4.3306,0.9974,6.1455,2.0901
		c1.5633,0.9413,3.3624,2.5543,3.7259,4.1699c0.5159,2.2938-1.7243,3.8259-3.7103,4.3956
		c-3.6245,1.0398-7.4042,2.3024-11.0898,2.2166c-9.6929-0.2259-19.3964-0.8604-29.0479-1.8154
		c-18.0248-1.7836-34.7958,2.0071-50.6822,10.4247c-4.8871,2.5894-9.8015,5.1449-14.8208,7.4617
		c-3.832,1.7687-7.9416,1.8241-11.9915,0.6649c-4.7424-1.3574-5.7967-4.3334-2.6044-8.0806
		c6.1652-7.2368,13.8544-12.4609,22.5703-16.1982C156.3463,344.1531,173.5228,341.3997,195.6759,341.4554z"/>
	<path class="st0" d="M514.1902,376.2839c-6.1859,0.0561-11.1447-3.2118-16.2038-5.9723
		c-10.735-5.8575-21.7778-10.7289-33.9545-12.7953c-10.5377-1.7883-20.9587-0.5606-31.4664,0.2674
		c-8.5548,0.6741-17.1942,0.5961-25.7812,0.3439c-2.525-0.0742-5.2061-1.5548-7.4422-2.9779
		c-2.5816-1.643-2.5716-4.4568,0.0727-5.9851c2.6956-1.558,5.739-2.7966,8.7846-3.4191
		c16.8714-3.4485,33.9138-5.1888,51.1458-3.9118c16.8272,1.247,33.1153,4.8218,47.7506,13.5398
		c5.2199,3.1095,9.884,7.3672,14.2163,11.6878c3.9109,3.9004,2.5659,7.2183-2.8417,8.5231
		C517.069,375.9227,515.6183,376.0563,514.1902,376.2839z"/>
	<path class="st0" d="M37.4572,314.0267c0.6157,17.4252,1.274,34.8492,1.7977,52.2771c0.0721,2.3996-0.602,4.8137-0.7709,7.2323
		c-0.0644,0.9228,0.2071,1.9163,0.5182,2.8106c2.6821,7.7102,5.4597,15.3876,8.0813,23.118
		c0.5827,1.7183,1.4048,3.7425-0.8826,5.0819c-2.0533,1.2024-6.4276,1.1783-7.8566-0.0677c-0.2592-0.226-0.507-0.5366-0.6125-0.8568
		c-2.0061-6.0899-3.6796-12.3107-6.0434-18.2572c-4.8847-12.2881-5.78-25.1169-5.9123-38.0974
		c-0.3258-31.9789,0.3484-63.935,2.142-95.8677c0.1234-2.1977,0.7913-3.4125,3.1409-3.4577
		c2.2945-0.0441,3.9134,0.5399,4.0674,3.2095c0.4233,7.3399,1.0606,14.671,1.3198,22.016
		c0.4805,13.6145,0.7522,27.2363,1.1108,40.8551C37.5237,314.0241,37.4904,314.0254,37.4572,314.0267z"/>
	<path class="st0" d="M390.0076,161.4191c-2.1751-0.1003-4.3624-0.0895-6.5228-0.325c-3.9684-0.4327-6.5918-2.8277-8.2957-6.261
		c-0.7223-1.4553-0.5106-2.7478,1.5729-2.7301c20.2154,0.1714,38.2064-7.6868,56.2052-15.5368
		c15.3725-6.7045,28.8214-16.3807,41.7274-26.9056c2.8724-2.3425,4.3676-2.2906,7.0528,0.1939
		c2.4889,2.3029,2.7433,4.2812,0.6294,7.1649c-6.8113,9.2915-15.4276,16.7117-25.275,22.4655
		c-17.3425,10.1333-35.8255,17.5141-55.7038,21.0574c-1.8708,0.3335-3.7781,0.5184-5.6767,0.6235
		c-1.8983,0.105-3.8069,0.0231-5.7109,0.0231C390.0094,161.2655,390.0085,161.3423,390.0076,161.4191z"/>
	<path class="st0" d="M334.4366,62.4006c-4.8026-0.6953-8.7332-1.5263-12.7018-1.7935
		c-17.2037-1.1582-33.0369,3.2252-47.8098,11.9799c-12.8925,7.6403-21.7073,19.0616-29.6795,31.3208
		c-1.0388,1.5975-2.2554,3.1118-3.0694,4.8174c-3.4977,7.3289-9.1215,6.7751-14.6888,6.2661
		c-0.6239-0.057-1.2387-0.2783-1.8436-0.4684c-3.8196-1.2006-4.7205-2.8754-2.9509-6.4926
		c5.8761-12.0115,13.0522-23.1805,23.8279-31.3709c23.1396-17.588,49.3937-24.1693,78.1468-20.9541
		c3.6532,0.4085,7.2324,1.6873,10.7676,2.8093c1.0264,0.3257,1.7809,1.5079,2.6601,2.2974
		C336.0011,61.4658,334.907,62.1195,334.4366,62.4006z"/>
	<path class="st0" d="M304.5146,151.9706c7.344-3.8282,14.5342-7.4719,21.6283-11.2939
		c20.8036-11.208,43.089-17.5736,66.4188-20.6733c9.7016-1.289,19.3697-2.8315,29.0499-4.28
		c2.7744-0.4151,7.8847,3.3143,8.0316,6.1273c0.0376,0.7203-0.7701,1.9489-1.4403,2.1647
		c-3.6078,1.1615-7.2432,2.3695-10.9636,3.0255c-13.403,2.3631-26.869,4.3705-40.2638,6.7765
		c-16.8326,3.0236-32.3965,9.8701-48.1259,16.2482c-5.4229,2.1989-11.1609,3.721-16.8659,5.0896
		C308.0747,156.0928,305.6849,154.6702,304.5146,151.9706z"/>
	<path class="st0" d="M242.8033,151.418c4.9663-0.8724,9.3215-1.2913,13.4788-2.4319c13.1835-3.6169,25.3521-9.5739,36.0996-17.9537
		c11.8678-9.2534,23.3051-19.0656,34.7827-28.8079c2.6663-2.2632,4.7275-5.2369,7.089-7.864
		c0.4035-0.4489,1.1225-1.2328,1.3484-1.1261c2.0571,0.9712,4.2066,1.886,5.9874,3.26c1.4892,1.1489,2.1532,3.0205,0.9568,4.8759
		c-1.5191,2.356-2.9112,4.871-4.8103,6.8925c-13.6618,14.5419-28.3498,27.9442-45.8664,37.7252
		c-12.1595,6.7897-25.2078,11.2681-39.3975,10.9088c-2.5359-0.0642-5.1073-1.4133-7.5136-2.4988
		C244.0871,154.0051,243.6517,152.6463,242.8033,151.418z"/>
	<path class="st0" d="M312.4766,599.9894c-3.5694-0.8734-7.9897-1.7205-12.2218-3.132c-1.291-0.4305-2.7612-2.3737-2.837-3.6993
		c-0.0534-0.9326,2.0072-2.6809,3.3047-2.8787c6.4385-0.9817,11.2681-4.5047,15.9599-8.6996
		c5.0315-4.4987,13.877-4.7849,19.6875-1.1696c3.0766,1.9142,3.7247,4.4265,1.7456,7.658c-2.9911,4.8838-7.543,7.8531-12.903,9.3987
		C321.409,598.5638,317.4256,599.0367,312.4766,599.9894z"/>
	<path class="st0" d="M105.0805,76.6124c3.2345,0.1659,5.9755,0.3066,8.876,0.4553c-0.6056-2.3662-1.1642-4.5489-1.7574-6.8668
		c4.2373,0.1135,6.6625,2.934,7.2302,7.7944c0.0725,0.6203-0.029,1.2842,0.1525,1.8647c0.8932,2.858,0.6735,3.2719-2.2523,2.9563
		c-2.516-0.2714-5.0304-0.7135-7.4895-1.3107C107.6376,80.9707,105.958,79.6605,105.0805,76.6124z"/>
	<path class="st0" d="M591.5908,503.3215c-1.1295-29.5205-2.2489-58.7809-3.3782-88.2971c5.0314,1.2144,10.0792,1.3311,14.986-2.554
		c-0.3708,3.0591-0.8148,5.5215-0.9447,8.0004c-0.5977,11.4011-1.1323,22.8058-1.642,34.2114
		c-0.4854,10.8615-0.6755,21.743-1.4667,32.5813c-0.3793,5.1939-2.6709,9.9586-5.9255,14.1343
		C592.689,502.0786,592.1043,502.7176,591.5908,503.3215z"/>
	<path class="st0" d="M604.0273,310.5233c-1.2112,7.4151-2.3265,14.244-3.5429,21.6907c-2.0526-2.3561-3.7303-4.282-5.5962-6.4238
		c2.3705-1.4329,1.5605-3.1353,0.4536-4.8441c-2.4133-3.7252-4.8306-7.4478-7.7444-11.9394
		C593.145,311.8047,598.2618,312.3015,604.0273,310.5233z"/>
	<path class="st0" d="M243.8826,655.1307c50.4807,14.8684,100.8167,14.8479,151.4598-0.033
		c-0.3955,1.7579-0.7033,3.8947-1.3579,5.9193c-9.2917,28.7357-28.7623,46.2725-58.149,53.0979
		c-6.5495,1.5212-13.068,1.0296-19.6355,1.241c-11.1315,0.3584-21.4925-2.6376-31.1909-7.3865
		c-21.5403-10.5474-35.3187-27.6617-40.9128-51.1406C243.9357,656.1544,243.9204,655.4452,243.8826,655.1307z"/>
</g>
</svg>
