<?xml version="1.0" encoding="utf-8"?>
<!-- Generator: Adobe Illustrator 24.3.0, SVG Export Plug-In . SVG Version: 6.00 Build 0)  -->
<svg version="1.1" id="Layer_1" xmlns="http://www.w3.org/2000/svg" xmlns:xlink="http://www.w3.org/1999/xlink" x="0px" y="0px"
	 viewBox="0 0 679 646" style="enable-background:new 0 0 679 646;" xml:space="preserve">
<style type="text/css">
	.st0{fill:#FFFFFF;}
</style>
<g>
	<path class="st0" d="M177.1372,333.0177c-5.3292-0.76-5.6547-0.7546-5.7972-6.0134c-0.2409-8.8854-0.2324-17.7892,0.0349-26.6743
		c0.6231-20.7158,2.7047-41.299,6.1098-61.7489c3.6196-21.7384,10.8796-42.3109,19.7921-62.3651
		c2.5055-5.6375,4.8692-11.3423,7.551-16.894c0.6118-1.2665,2.1373-2.5708,3.4791-2.9042c2.6605-0.6612,3.4421,0.4946,2.5049,3.1008
		c-3.9299,10.9275-7.7842,21.8833-11.8358,32.7656c-8.4917,22.8081-12.7527,46.5225-15.1658,70.6159
		c-1.5379,15.3545-2.7469,30.7419-4.0836,46.1163c-0.1449,1.6664-0.1585,3.3441-0.2099,4.4982
		c3.0153-4.7563,5.7514-10.1267,9.4555-14.7159c10.7868-13.364,25.3021-20.6159,41.8496-24.1544
		c9.8656-2.1097,19.7828-1.7167,29.8165-1.2497c9.8976,0.4607,18.9894,3.0944,27.6428,7.3756
		c15.9684,7.9003,27.805,19.6266,32.6042,37.357c0.6587,2.4337,1.0024,4.9527,1.5371,7.6609
		c13.8541-2.6267,27.6387-2.7202,41.7141,0.0441c0.347-1.9008,0.6279-3.7457,1.0246-5.5653
		c3.5535-16.3,13.514-27.8258,27.33-36.3997c8.0365-4.9873,16.7656-8.5961,26.0981-9.8179
		c22.2577-2.914,43.9232-1.396,63.5473,11.0809c10.7599,6.8411,19.1402,15.808,23.9318,27.8232
		c0.1575,0.395,0.3722,0.7671,1.0206,1.0688c-0.1442-2.3865-0.2921-4.7727-0.432-7.1595
		c-1.4724-25.1236-4.0537-50.126-8.2791-74.9442c-3.016-17.7144-8.8357-34.6094-15.0909-51.3789
		c-2.5679-6.8842-5.0046-13.8184-7.3981-20.7654c-0.3236-0.9394-0.0441-2.0866-0.0439-3.1375
		c1.5324,0.1948,3.1841,0.1089,4.5526,0.6897c0.8203,0.3481,1.3222,1.6836,1.7568,2.6682
		c8.9395,20.2573,18.1577,40.4126,23.4387,62.0507c4.0996,16.7979,6.5352,33.8796,7.8393,51.0826
		c1.1458,15.1133,1.5822,30.2816,2.2306,45.43c0.1198,2.7988-0.153,5.6263-0.4033,8.4264c-0.4719,5.2791-0.548,5.3042-5.648,5.9928
		c-0.7886,3.6485-1.2924,7.3553-2.4015,10.8712c-4.6396,14.7078-14.2975,25.6434-27.5897,32.7331
		c-29.7316,15.8579-59.6833,15.5413-88.6828-1.8747c-14.4549-8.681-23.8656-21.5947-26.3855-38.789
		c-0.1444-0.9857-0.3612-2.0117-0.2314-2.9769c0.386-2.8716-0.8297-3.8871-3.6518-4.2408
		c-12.0627-1.5121-24.0834-1.6233-36.1104,0.2848c-1.4397,0.2284-2.2253,0.5874-2.2877,2.298
		c-0.6379,17.4844-9.149,30.8083-22.8344,40.8097c-20.9493,15.31-44.5623,18.6003-69.5028,13.4105
		c-17.5597-3.654-32.3732-12.1766-43.1828-26.8634c-5.3323-7.245-8.5033-15.3654-9.3768-24.3504
		C177.3315,333.8503,177.2136,333.4189,177.1372,333.0177z M433.9397,385.5278c18.2063-0.0386,32.3531-4.2444,45.0243-13.0995
		c28.7668-20.1033,31.6075-57.453,5.4424-80.4163c-17.5231-15.3789-38.2257-21.2253-61.4903-16.1119
		c-10.7853,2.3706-20.7711,6.4532-29.6676,13.0776c-26.9439,20.0627-29.5994,55.0291-5.6677,77.699
		C401.288,379.6613,418.01,385.3093,433.9397,385.5278z M245.4597,385.4977c22.6465,0.0414,39.8245-6.3333,52.6412-17.9564
		c20.4773-18.5703,22.9858-46.6646,6.018-68.0709c-11.6618-14.7125-27.7998-22.1609-45.5895-24.7398
		c-20.5412-2.9778-39.4803,2.8365-55.5542,16.3848c-24.0793,20.296-25.0902,54.3356-2.2176,75.6956
		C214.4763,379.6223,231.0892,385.2722,245.4597,385.4977z"/>
	<path class="st0" d="M534.8242,381.5996c-1.2264,7.607-1.9048,15.0614-3.6874,22.2416
		c-4.6472,18.7189-11.0475,36.8627-19.9843,54.0034c-5.9552,11.4221-11.7569,22.9758-18.5511,33.8958
		c-8.6037,13.8284-19.3386,26.0806-30.884,37.5921c-16.5651,16.5163-35.4905,29.702-56.5779,39.7131
		c-15.075,7.1569-30.9828,11.9171-47.3981,14.8906c-5.2833,0.957-10.6248,1.6933-15.9722,2.1437
		c-2.0538,0.1731-4.2011-0.7194-6.2998-1.1556c-0.5216-0.1085-1.0123-0.4525-1.5294-0.4832
		c-12.4868-0.739-24.1712-4.8604-35.8795-8.7184c-19.8771-6.5497-37.5988-17.1309-54.1852-29.7374
		c-14.7724-11.2278-27.6987-24.3612-38.9322-39.0439c-23.125-30.2256-38.8925-64.1523-48.9607-100.7322
		c-1.985-7.212-2.4874-14.8323-3.6658-22.2656c-0.1113-0.702-0.1664-1.4129-0.2432-2.0816
		c-11.7215-1.5531-19.3104-13.993-17.6294-27.3283c0.7287-5.7804,1.7305-11.4782,5.1549-16.3116
		c-0.9652-0.4427-1.8942-0.8689-2.793-1.2812c2.9325-2.8658,5.8654-5.2892,8.2631-8.1595
		c6.7031-8.0244,11.4243-17.1984,15.0361-26.9853c0.4141-1.122,1.4059-2.4669,2.4429-2.8414c3.1185-1.126,5.3448,0.7001,4.3004,3.78
		c-1.8837,5.5547-4.3915,10.8969-6.608,16.3404c-0.3991,0.98-0.9453,2.0254-0.9268,3.0315
		c0.2681,14.6116,0.8277,29.2204,0.909,43.8322c0.1547,27.787,6.6923,54.1521,17.7038,79.4412
		c5.3907,12.3805,11.5193,24.4573,17.7113,36.4667c7.4229,14.3968,17.6363,26.8116,28.7348,38.5069
		c26.1259,27.5307,57.1875,46.8115,94.2734,55.7416c7.9038,1.9032,16.0128,3.4123,24.1026,3.9318
		c5.8761,0.3774,11.9915-0.6603,17.7994-1.9626c18.4057-4.1274,36.1193-10.2174,52.6518-19.5341
		c19.7138-11.1094,37.0133-25.0833,52.3708-41.7309c16.7407-18.1469,28.5976-39.1872,38.7607-61.4211
		c7.8004-17.065,14.1748-34.6086,18.1776-52.9337c3.2891-15.0574,3.837-30.4155,3.9609-45.7808
		c0.0762-9.4458-0.2106-18.9164,0.4056-28.3275c0.3471-5.2994-0.5082-9.8238-3.1091-14.3985
		c-1.8151-3.1926-2.8869-6.8493-3.9754-10.3955c-0.5109-1.6644-1.2758-3.8972,1.5543-4.6779
		c2.5397-0.7006,4.2025,0.2506,5.1569,2.922c3.5101,9.8245,8.278,18.981,14.9813,27.0049c2.3965,2.8687,5.3288,5.2899,8.2621,8.1552
		c-0.9138,0.4139-1.8459,0.8361-2.3936,1.0842c4.9255,11.3768,7.949,22.8177,0.9008,34.4904
		C545.2448,377.5029,541.019,381.1624,534.8242,381.5996z M143.0674,337.9037c2.6832,0.2615,2.8291,2.0944,2.4009,4.3072
		c-0.2923,1.5103-0.5611,3.0356-0.6822,4.5667c-0.553,6.9891-0.7741,13.9877,2.0089,20.6161
		c1.0734,2.5567,2.7016,4.8804,4.077,7.3102c0.325-0.1283,0.6499-0.2567,0.9749-0.3851c0-14.5732,0-29.1464,0-43.4712
		C149.071,333.0785,146.1379,335.4358,143.0674,337.9037z M534.8145,330.9275c0,14.3614,0,28.9194,0,43.4774
		c0.4272,0.1035,0.8545,0.2071,1.2817,0.3106c1.5866-3.4936,3.593-6.8632,4.67-10.5074c2.0645-6.9858,1.5836-14.1724,0.4332-21.2856
		c-0.3876-2.3968-0.7574-4.5885,2.0699-5.1595C540.3397,335.3945,537.423,333.0365,534.8145,330.9275z"/>
	<path class="st0" d="M16.4786,534.9429c0.5336-18.1274,5.6153-32.533,13.3809-46.1394
		c10.011-17.5406,23.8929-31.6927,39.3434-44.3498c9.682-7.9315,20.062-15.0103,29.7549-22.9295
		c5.2346-4.2767,10.08-9.1876,14.3869-14.4023c5.5193-6.6827,8.2653-14.6416,7.9879-23.4725
		c-0.0512-1.6314,0.0271-3.2679,0.0739-4.9012c0.0718-2.5045,1.3044-3.8034,3.8806-3.9069c2.5274-0.1014,4.18,0.6565,4.5716,3.4437
		c0.7284,5.1838,2.2703,10.3502,2.257,15.5207c-0.0256,9.9657-4.8117,18.2987-11.6805,25.0558
		c-8.7202,8.5784-17.9824,16.6198-27.2042,24.6715c-19.3166,16.8656-36.7761,35.177-46.4138,59.5215
		c-4.5139,11.4019-7.3727,23.1883-5.8121,35.6347c1.1314,9.0242,4.0668,17.465,8.2575,25.5009
		c5.4687,10.4863,11.2034,20.8268,19.6331,29.2831c2.1608,2.1676,5.1603,3.5044,7.7953,5.1903
		c0.6067,0.3881,1.3412,0.5771,1.9447,0.9691c2.331,1.5139,2.3745,3.4598-0.0414,4.8757c-3.5133,2.0591-7.3877,2.2642-11.3516,1.827
		c-8.621-0.9512-15.7398-4.9036-21.5257-11.1689c-12.4794-13.5135-22.2022-28.7112-26.9679-46.657
		C17.3852,543.3738,16.9695,537.9862,16.4786,534.9429z"/>
	<path class="st0" d="M669.9865,532.8134c-0.2756,11.0861-2.931,21.7407-8.1159,31.74
		c-6.1665,11.8924-13.1132,23.2393-22.9843,32.5211c-6.5022,6.114-14.1732,9.506-23.1161,9.3447
		c-2.7003-0.0486-5.5285-0.9911-8.0221-2.129c-2.2357-1.0202-2.2763-3.5417-0.0357-4.4331
		c13.3994-5.3303,18.9874-17.6215,25.8028-28.7346c4.8498-7.908,8.5914-16.3739,10.8275-25.4625
		c3.0586-12.4321,1.4341-24.5266-2.4094-36.4622c-5.4698-16.9857-15.1489-31.4019-26.9276-44.6505
		c-10.8589-12.2141-23.5926-22.2992-35.8779-32.9167c-7.2916-6.3017-14.3606-12.8521-19.4711-21.1651
		c-5.3639-8.725-6.8537-18.0384-4.0411-27.9636c0.4204-1.4835,0.8913-2.9691,1.1214-4.4866
		c0.4125-2.7206,2.1862-3.2505,4.5225-3.1648c2.381,0.0873,3.7451,1.1769,3.8473,3.6293c0.1586,3.8065-0.0366,7.6646,0.5227,11.4105
		c1.47,9.8457,6.4225,18.0515,13.86,24.3512c10.7218,9.0815,21.9697,17.5417,32.9907,26.2702
		c21.0735,16.69,39.6331,35.4772,50.3982,60.7135C667.1557,511.2528,669.7303,521.6882,669.9865,532.8134z"/>
	<path class="st0" d="M565.5716,274.5991c0,10.6251-0.0728,21.2511,0.0526,31.8747c0.0304,2.5753-0.963,3.7073-3.3764,3.8781
		c-2.7304,0.1933-3.9847-0.828-4.2285-3.6266c-1.1811-13.5664-2.0612-27.1649-3.541-40.6981
		c-3.6355-33.2493-8.5403-66.3105-18.5855-98.323c-7.3727-23.4956-19.283-44.7451-33.4774-64.8356
		c-12.2189-17.2943-26.2209-32.8261-43.5999-44.9249c-11.9-8.2844-24.0823-16.3753-36.9233-23.0404
		c-14.8822-7.7246-30.8992-12.7039-48.0775-12.1718c-6.3313,0.1961-12.3771,1.4902-18.0818,4.4439
		c-1.3672,0.7079-3.2977,0.3278-4.9691,0.4482c0.9906-1.4926,1.645-3.5363,3.0305-4.3815
		c5.6797-3.465,12.0428-4.7947,18.6471-5.4188c19.2206-1.8164,37.3198,2.849,54.502,10.5515
		c17.585,7.8831,33.879,18.258,49.1099,30.1339c17.283,13.476,31.0445,30.1684,43.678,47.9484
		c13.0356,18.3458,23.5473,37.9569,30.6714,59.282c5.4209,16.2268,8.6588,33.0015,11.0263,49.9314
		C564.1622,235.2157,565.3558,254.8681,565.5716,274.5991z"/>
	<path class="st0" d="M117.6486,274.5077c0.3511-35.7593,3.8247-71.1045,14.1579-105.4793
		c6.2121-20.6653,15.9832-39.7109,28.228-57.4674c8.2512-11.9652,16.8025-23.6988,26.7724-34.3361
		c14.3535-15.3145,31.045-27.5726,49.1808-37.9811c9.7619-5.6026,19.3583-11.5165,30.2373-14.8586
		c12.3534-3.7951,24.7407-7.3551,37.8624-6.9037c8.0191,0.2759,16.0195,0.7867,23.3024,4.619
		c1.7809,0.9371,3.4393,2.3364,4.7505,3.8685c1.1881,1.3882,0.3386,2.3893-1.4187,2.306c-0.7939-0.0377-1.6455-0.2504-2.3478-0.6186
		c-13.0813-6.8588-26.5795-5.6061-40.3442-2.5227c-20.0169,4.4839-37.1189,14.8713-53.9229,25.918
		c-18.1236,11.9142-34.1117,26.1445-47.2083,43.5568c-16.5346,21.9832-30.5442,45.3565-39.1298,71.6202
		c-7.327,22.4135-11.4754,45.5753-15.0672,68.832c-3.6614,23.7076-5.777,47.5782-7.4875,71.4917
		c-0.2218,3.1013-1.8705,4.2368-4.8659,3.7285c-2.1102-0.358-2.7465-1.5631-2.7328-3.6259
		C117.6868,295.9398,117.6486,285.2236,117.6486,274.5077z"/>
	<path class="st0" d="M157.7207,632.4297c1.0307-0.3683,2.0921-1.113,3.086-1.0317c2.5627,0.2097,4.1094-1.1869,5.47-2.9366
		c7.1001-9.1313,10.082-19.3365,8.0841-30.8807c-2.549-14.7285-9.8166-27.1701-18.5561-38.949
		c-7.3531-9.9103-15.1678-19.5423-21.741-29.9523c-10.9637-17.3633-12.7265-36.1039-5.0305-55.2625
		c1.8095-4.5047,5.1055-8.5125,8.1926-12.3686c2.077-2.5943,4.4332-2.6667,7.3-1.2636c-1.3018,1.4161-2.7053,2.6601-3.7675,4.1477
		c-4.4304,6.2044-6.5287,13.2818-7.617,20.7449c-2.915,19.9887,4.2171,36.8785,15.94,52.4212
		c8.1421,10.7951,16.5803,21.4004,24.1216,32.6052c7.0433,10.4648,11.2274,22.2581,11.0044,35.0932
		c-0.1741,10.0195-4.1677,18.6832-11.0862,25.9246c-2.9007,3.0361-6.5239,4.6467-10.7868,4.1638
		c-1.5858-0.1797-3.1099-0.904-4.6622-1.3799C157.6883,633.1468,157.7045,632.7882,157.7207,632.4297z"/>
	<path class="st0" d="M305.4938,137.3298c-3.3592,4.5391-6.5398,8.9389-9.825,13.2592
		c-18.3755,24.1661-29.5501,51.5059-35.4571,81.0895c-2.4839,12.4402-4.453,24.9863-6.4714,37.5139
		c-0.4025,2.4981-1.9638,2.5974-3.6561,2.6021c-1.8992,0.0053-4.1798-0.0651-4.0637-2.8116
		c0.2371-5.6115,0.4234-11.2478,1.1193-16.8128c1.9024-15.2137,4.2394-30.3558,8.302-45.1862
		c5.9031-21.5492,17.3095-40.0199,31.6479-56.8427c3.5855-4.2068,7.4425-8.1929,11.3266-12.1307
		C300.6666,135.7293,302.6727,135.6363,305.4938,137.3298z"/>
	<path class="st0" d="M380.8845,137.2057c3.0125-1.6816,5.347-1.1772,7.3033,0.8366c3.5386,3.6427,7.0368,7.331,10.4153,11.1221
		c19.9589,22.3966,32.5572,48.3234,37.0214,78.052c1.8309,12.1922,3.3237,24.4354,4.9352,36.6601
		c0.1532,1.1621,0.087,2.3578,0.0685,3.537c-0.0572,3.6442-1.508,4.893-5.0471,4.3796c-1.7031-0.247-2.5403-0.9467-2.7898-2.9394
		c-3.5854-28.6356-9.358-56.7723-21.0225-83.3332c-7.3051-16.6342-17.9664-31.2743-28.8975-45.6824
		C382.2825,139.062,381.6976,138.2832,380.8845,137.2057z"/>
	<path class="st0" d="M530.2801,444.9742c1.1592,0.3874,2.8603,0.4146,3.3939,1.2177c5.3546,8.0586,11.428,15.7191,13.7073,25.4842
		c2.1461,9.1942,1.6152,18.1449-2.6096,26.5312c-4.7682,9.4652-9.9955,18.7074-15.252,27.9159
		c-5.3322,9.3412-9.7171,19.0383-12.7292,29.3845c-4.5905,15.7684-3.5347,31.0308,3.6138,45.8399
		c1.7348,3.5938,3.5181,7.1641,5.2649,10.752c0.6225,1.2786,1.2034,2.5772,1.7921,3.8428c-2.7986,1.5908-4.8907,1.4772-6.192-0.5234
		c-6.4701-9.9475-11.9528-20.388-14.1801-32.1687c-2.513-13.2915,0.4226-25.9604,5.0396-38.3702
		c4.4671-12.0067,11.6259-22.5392,18.1227-33.4467c2.8727-4.823,5.4319-9.8521,7.8497-14.923
		c6.1964-12.996,4.7479-25.721-1.7913-38.1486c-1.7314-3.2907-3.6265-6.4949-5.4061-9.7608
		c-0.463-0.8496-0.7741-1.7819-1.155-2.6763C529.9261,445.608,530.1031,445.2911,530.2801,444.9742z"/>
	<path class="st0" d="M276.6811,128.2238c-0.7217,0.8675-1.3403,1.8536-2.1806,2.5848
		c-12.7963,11.1353-21.7574,25.2534-30.4836,39.4985c-12.898,21.0554-23.756,43.1254-29.7193,67.19
		c-3.0658,12.3716-4.7673,25.0886-6.8647,37.6863c-0.4064,2.4408-1.7113,2.7064-3.5163,2.7066
		c-1.9643,0.0002-3.1488-0.6758-3.1599-3.0444c-0.0523-11.1489,2.0259-22.0138,4.1033-32.8885
		c5.2045-27.2446,17.5302-51.3898,32.6968-74.2054c5.5623-8.3675,11.6367-16.4647,18.1664-24.0957
		c4.6811-5.4706,10.4401-10.0376,15.8782-14.8261c1.1232-0.989,2.9539-1.1746,4.4586-1.7304
		C276.267,127.4743,276.4741,127.8491,276.6811,128.2238z"/>
	<path class="st0" d="M409.6446,128.0004c2.7962-1.2355,4.3593,0.0126,5.982,1.2454c10.8948,8.2771,19.4811,18.6432,27.3718,29.7132
		c14.7844,20.7413,27.2827,42.6948,34.7352,67.1476c4.7677,15.6434,7.7271,31.7181,8.0087,48.1673
		c0.0518,3.0267-1.538,4.3217-4.4176,3.4605c-0.8551-0.2557-1.9644-1.4339-2.0395-2.2717
		c-3.7656-42.001-19.5591-79.522-42.6282-114.2881c-4.9558-7.4687-10.4175-14.621-15.959-21.6732
		c-2.558-3.2554-5.8829-5.9054-8.8291-8.8607C411.1338,129.9031,410.5186,129.0461,409.6446,128.0004z"/>
	<path class="st0" d="M139.2436,299.2023c-1.5103,12.8373-4.9315,25.0474-16.0281,33.8357
		c-7.6054,6.0234-15.2536,12.025-21.4319,19.6501c-5.4539,6.731-10.2245,13.8574-13.884,21.728
		c-5.6689,12.1924-3.9222,24.6398-1.3483,37.1077c0.5111,2.4758,1.2802,4.915,2.1377,7.2965
		c0.5503,1.5285,0.0394,2.1639-1.3175,2.6346c-3.3429,1.1593-6.043-0.0107-7.4761-3.8077
		c-7.2981-19.3362-7.6517-37.9453,5.0591-55.6358c7.7211-10.7461,16.4613-20.38,27.487-27.629
		c12.7166-8.3608,19.2697-20.3301,22.0528-34.8115c0.3396-1.7673,0.1415-3.6373,0.4739-5.407
		c0.1416-0.754,1.007-1.3721,1.5435-2.052c0.7355,0.6055,1.8921,1.0853,2.1182,1.8428
		C139.0878,295.489,139.0416,297.1739,139.2436,299.2023z"/>
	<path class="st0" d="M283.1582,258.7899c1.2305-17.0564,1.8398-33.6843,6.4319-49.8112
		c4.6375-16.2862,10.7492-31.9898,18.4343-47.0733c1.2943-2.5402,2.4768-5.4216,6.0805-5.5132
		c2.91-0.074,3.5182,0.8408,2.4962,3.5672c-7.3243,19.5379-15.1288,38.9176-20.1482,59.2341
		c-3.4756,14.0676-4.5532,28.4771-5.8009,42.8551c-0.1884,2.1703-0.5108,4.3527-0.4284,6.5164
		c0.0865,2.2721-1.0863,2.855-2.966,2.8958c-2.0358,0.0442-4.005-0.1572-4.0768-2.8173
		C283.0879,265.1963,283.1582,261.7446,283.1582,258.7899z"/>
	<path class="st0" d="M403.4158,258.3893c0,3.2685-0.0081,6.537,0.0025,9.8055c0.0087,2.7055-1.6575,3.3245-3.9533,3.2863
		c-2.1978-0.0366-3.0896-0.8452-3.1622-3.279c-0.9928-33.2574-8.9323-64.9603-21.5931-95.5969
		c-1.8008-4.3577-3.2732-8.8504-5.0211-13.2313c-0.7742-1.9406-0.07-2.6923,1.7576-2.9491c2.8768-0.4041,4.771,1.0673,5.8986,3.44
		c3.7364,7.8621,7.6783,15.6503,10.9323,23.7128c5.4738,13.563,10.2774,27.4058,12.1322,42.0007
		c1.3836,10.8879,2.1586,21.8532,3.2046,32.7841C403.5477,258.3713,403.4818,258.3803,403.4158,258.3893z"/>
	<path class="st0" d="M596.1636,411.4043c5.6989-1.3278,5.2486-6.0254,5.781-9.9724c1.2459-9.2339,0.8803-18.4361-0.895-27.6178
		c-2.2685-11.7329-8.3203-20.9437-17.8916-27.9409c-3.4427-2.5168-6.9433-4.9543-10.3956-7.4583
		c-13.5538-9.8311-24.9523-21.6029-32.6104-36.6593c-1.8351-3.608-3.4407-7.3574-4.8074-11.1654
		c-0.4673-1.3022-0.0336-3.0193,0.3135-4.4689c0.1102-0.46,1.3734-1.0437,1.9285-0.8954c0.6827,0.1825,1.4014,0.9709,1.7161,1.6719
		c2.2906,5.1035,3.9812,10.547,6.7998,15.33c9.1135,15.4652,21.9839,27.3401,36.8996,37.1216
		c6.6261,4.3453,12.9304,9.1077,17.8734,15.3864c6.3671,8.0878,8.6614,17.6882,9.5287,27.6485
		c0.7022,8.0653,0.4993,16.1586-1.5701,24.0684c-1.4139,5.4044-4.4565,7.4489-9.8051,6.7297
		c-0.897-0.1207-1.743-0.6205-2.6127-0.9452C596.3322,411.9596,596.2479,411.6819,596.1636,411.4043z"/>
	<path class="st0" d="M98.6321,612.5385c4.2264-4.5044,4.5305-9.8279,5.1534-15.0197c2.0386-16.9924-1.7685-33.1784-6.8577-49.187
		c-2.7444-8.6325-5.7416-17.203-8.0222-25.9584c-1.688-6.4803-0.502-12.983,2.2549-19.1185
		c0.3321-0.739,0.6403-1.7694,1.2427-2.0443c1.0546-0.4812,2.3289-0.4811,3.5111-0.6826c0.0963,0.8755,0.4753,1.8343,0.2456,2.6136
		c-2.4444,8.2904-2.0497,16.4084,0.7442,24.5857c3.7789,11.0596,7.626,22.1192,10.7656,33.3681
		c3.9883,14.2904,4.2549,28.8495,0.8828,43.3492c-0.5775,2.4831-1.8229,4.9329-3.2597,7.0605
		C103.7908,613.7295,101.4249,613.7849,98.6321,612.5385z"/>
	<path class="st0" d="M325.5685,490.0589c13.0407,0.6403,25.168-2.3307,36.4042-9.0562c5.8341-3.492,8.0111-2.1619,7.9856,4.918
		c-0.019,5.2896-0.6853,10.7405-2.1031,15.8299c-3.8431,13.7948-15.1123,19.7571-28.7446,18.568
		c-13.0695-1.1401-20.1089-8.7929-22.7538-19.5908c-0.6392-2.6097-0.1748-5.5583,0.1823-8.299
		c0.0984-0.7553,1.5687-1.7161,2.5365-1.8949C321.1968,490.1422,323.3993,490.1904,325.5685,490.0589z M364.7502,484.6599
		c-13.5301,8.7201-27.8512,10.7792-43.0317,9.9635c1.1884,6.0353,2.8861,11.5538,6.1109,16.6409
		c5.1107,8.062,16.9159,9.0522,24.2235,3.8849C362.2345,507.9496,363.9205,496.7718,364.7502,484.6599z"/>
	<path class="st0" d="M313.4981,255.8457c1.4905-17.9095,1.6996-36.2892,6.1445-54.1853c0.6911-2.7826,1.8369-5.4895,3.0934-8.0755
		c0.4771-0.9821,1.7597-1.9077,2.8489-2.1909c2.63-0.6838,3.4385,0.2945,3.1211,2.961c-2.5278,21.2399-5.0196,42.484-7.5221,63.7269
		c-0.0955,0.8101-0.1538,1.6262-0.2878,2.4297c-0.5011,3.0042-4.0943,4.5091-6.554,2.6528
		c-0.5136-0.3876-0.7548-1.3621-0.8073-2.0889C313.4174,259.4517,313.4981,257.8136,313.4981,255.8457z"/>
	<path class="st0" d="M373.0347,252.3246c0,2.8107-0.1295,5.6295,0.0433,8.4296c0.1258,2.0381-0.7986,2.9301-2.6038,2.9574
		c-1.8972,0.0287-4.2713,0.6006-4.6507-2.3513c-0.543-4.2249-0.9729-8.4641-1.4652-12.6956
		c-2.0008-17.1971-4.0049-34.3938-6.0182-51.5894c-0.0945-0.8075-0.4403-1.6109-0.3999-2.4025
		c0.054-1.0579,0.3268-2.9922,0.5829-3.0051c1.4297-0.0715,3.3528-0.1644,4.2196,0.671c1.3608,1.3115,2.5074,3.2562,2.8846,5.108
		c1.841,9.039,3.7589,18.0888,4.9516,27.2259c1.1955,9.1593,1.5667,18.4262,2.2992,27.646
		C372.9303,252.3206,372.9825,252.3226,373.0347,252.3246z"/>
	<path class="st0" d="M461.0467,539.9139c2.4888-1.1663,3.9565-0.272,5.1894,1.6369c6.1527,9.5272,7.8778,19.7841,5.0134,30.7508
		c-1.4664,5.6142-3.5595,11.0965-4.6133,16.7787c-1.4218,7.6663,0.1325,14.6456,7.0183,19.517
		c0.1991,0.1408,0.2894,0.4354,0.5281,0.8127c-1.8211,1.5916-3.6929,1.1298-5.4639,0.1497
		c-5.6594-3.1321-8.0315-8.5156-8.3154-14.4638c-0.206-4.3158,0.9083-8.7632,1.8829-13.0498
		c1.2639-5.5583,3.4409-10.9366,4.3816-16.5341c1.382-8.2228-0.5318-16.0582-4.5716-23.355
		C461.718,541.4736,461.4303,540.7401,461.0467,539.9139z"/>
	<path class="st0" d="M197.6253,547.399c0.043-7.965,0.7588-15.7913,3.2575-23.3864c0.2827-0.8595,0.4053-2.023,1.0195-2.4627
		c0.9036-0.647,2.2197-1.0966,3.2866-0.9766c0.5322,0.0599,1.416,1.6743,1.2679,2.4098
		c-2.8286,14.056-1.7047,28.2104-1.2338,42.3517c0.1001,3.0056-1.3187,4.1599-4.1598,3.1804
		c-0.8352-0.2878-1.8077-1.5248-1.8978-2.4102C198.5321,559.8819,198.1129,553.637,197.6253,547.399z"/>
	<path class="st0" d="M340.4381,447.8166c-5.0491-0.4123-9.1242-1.5346-12.4024-4.5577c-0.6998-0.6454-1.382-1.9897-1.1658-2.7565
		c0.2147-0.7617,1.5048-1.5283,2.4406-1.72c2.634-0.5397,5.0695-0.2536,7.4286,1.5426c1.6119,1.2273,3.8577,1.6331,5.8372,2.3597
		c0.5884,0.216,1.3115,0.1393,1.8361,0.4374c0.7312,0.4154,1.831,1.0324,1.8596,1.6085c0.0321,0.6472-0.8217,1.676-1.5219,1.953
		C343.1783,447.3054,341.463,447.5648,340.4381,447.8166z"/>
	<path class="st0" d="M433.9397,385.5278c-15.9297-0.2185-32.6517-5.8665-46.3589-18.851
		c-23.9318-22.67-21.2762-57.6363,5.6677-77.699c8.8966-6.6245,18.8823-10.7071,29.6676-13.0776
		c23.2646-5.1133,43.9671,0.733,61.4903,16.1119c26.1651,22.9633,23.3244,60.313-5.4424,80.4163
		C466.2928,381.2834,452.146,385.4892,433.9397,385.5278z"/>
	<path class="st0" d="M143.0674,337.9037c3.0706-2.4678,6.0036-4.8252,8.7794-7.0561c0,14.3249,0,28.8981,0,43.4712
		c-0.325,0.1284-0.6499,0.2567-0.9749,0.3851c-1.3754-2.4298-3.0036-4.7535-4.077-7.3102
		c-2.783-6.6284-2.5619-13.6271-2.0089-20.6161c0.1211-1.5311,0.3899-3.0564,0.6822-4.5667
		C145.8965,339.9981,145.7506,338.1652,143.0674,337.9037z"/>
	<path class="st0" d="M534.8145,330.9275c2.6085,2.1089,5.5251,4.4669,8.4548,6.8354c-2.8273,0.571-2.4575,2.7627-2.0699,5.1595
		c1.1505,7.1131,1.6313,14.2997-0.4332,21.2856c-1.077,3.6442-3.0834,7.0138-4.67,10.5074
		c-0.4272-0.1035-0.8545-0.2071-1.2817-0.3106C534.8145,359.847,534.8145,345.2889,534.8145,330.9275z"/>
	<path class="st0" d="M364.7502,484.6599c-0.8298,12.1119-2.5157,23.2897-12.6973,30.4893
		c-7.3076,5.1674-19.1128,4.1771-24.2235-3.8849c-3.2248-5.0871-4.9225-10.6056-6.1109-16.6409
		C336.899,495.4391,351.2202,493.38,364.7502,484.6599z"/>
	<path class="st0" d="M393.7746,322.7978c1.7095-2.7524,2.9152-5.4044,4.7424-7.5195c11.313-13.0953,25.7214-17.332,42.4375-14.0819
		c3.6234,0.7045,6.8932,0.7769,10.298-0.7133c2.025-0.8863,4.2733-1.5117,7.0312,0.2461c-2.4416,1.1406-4.4728,2.0895-6.662,3.1122
		c2.1449,1.5518,4.1608,2.2876,6.7197,1.5637c2.3407-0.6622,4.7984-0.9672,7.2258-1.2403c1.0661-0.1199,2.1852,0.2303,3.2802,0.3669
		c0.0384,0.3395,0.0768,0.679,0.1151,1.0184c-3.0236,0.8285-6.0471,1.657-9.0707,2.4855c-0.0565,0.2527-0.1132,0.5055-0.1697,0.7583
		c1.8993,0.5892,3.7636,1.467,5.7057,1.702c3.1425,0.3802,6.3413,0.269,9.5057,0.5072c1.321,0.0994,2.6147,0.5627,3.904,1.2555
		c-2.6957,2.7966-6.3575,1.6548-9.3726,2.7199c0,0.2958-0.0356,0.4719,0.0056,0.6277c0.3704,1.4006,1.4939,3.4753,0.9709,4.0462
		c-0.9188,1.0031-2.9508,1.6696-4.3211,1.417c-2.098-0.3867-4.5884-1.1743-5.9265-2.6722
		c-3.7828-4.2346-8.8584-4.4602-14.1499-5.7666c-6.3893-1.185-17.9686-0.5981-24.0924-0.8235
		c-4.4575-0.3236-8.7725,1.091-12.7295,3.0428c-3.3424,1.6486-6.3075,4.1512-9.2318,6.531
		C397.5086,323.4005,397.2191,323.701,393.7746,322.7978z"/>
	<path class="st0" d="M228.9221,299.7844c1.7798,0.1128,3.737-0.2122,5.3049,0.4234c4.1205,1.6703,8.0649,1.5974,12.4266,0.8102
		c16.3404-2.9492,30.3758,1.5093,41.3668,14.2513c1.827,2.118,3.0383,4.7671,4.6076,7.2889
		c-3.0368,1.7914-4.641,0.3034-6.0052-1.2325c-4.9082-5.5263-11.3828-7.8827-18.3425-9.2917c-1.2243-0.2479-2.5-0.242-4.0287-0.3779
		c-6.404-0.0755-17.4832-0.0755-23.8396,1.0497c-5.1022,1.1975-10.2402,1.2398-13.7574,5.5772
		c-1.9966,2.4622-4.7384,3.237-7.8164,2.861c-3.1602-0.386-3.8717-1.805-2.3611-4.612c0.2104-0.3909,0.4795-0.7502,0.8278-1.2885
		c-3.0547-1.5751-6.9493,0.0024-10.2465-3.2206c1.9268-0.4478,3.2166-0.9198,4.5346-1.0197c3.164-0.2396,6.3627-0.127,9.5054-0.5054
		c1.9452-0.2342,3.8135-1.1074,5.7162-1.6938c-0.0494-0.2728-0.0988-0.5457-0.1483-0.8185
		c-3.0026-0.7734-6.0052-1.5468-9.0079-2.3203c-0.0093-0.3036-0.0187-0.6072-0.028-0.9109c0.9294-0.2172,1.8864-0.6965,2.783-0.602
		c2.6082,0.275,5.2493,0.5692,7.7697,1.2532c2.5605,0.6947,4.5793,0.0174,6.8046-1.6209c-2.2152-0.9572-4.2268-1.8264-6.2384-2.6956
		C228.8069,300.6543,228.8645,300.2194,228.9221,299.7844z"/>
</g>
</svg>
