<?xml version="1.0" encoding="utf-8"?>
<!-- Generator: Adobe Illustrator 24.3.0, SVG Export Plug-In . SVG Version: 6.00 Build 0)  -->
<svg version="1.1" id="Layer_1" xmlns="http://www.w3.org/2000/svg" xmlns:xlink="http://www.w3.org/1999/xlink" x="0px" y="0px"
	 viewBox="0 0 666.9283 882.6992" style="enable-background:new 0 0 666.9283 882.6992;" xml:space="preserve">
<style type="text/css">
	.st0{fill:#FFFFFF;}
</style>
<g>
	<path class="st0" d="M592.5359,513.721c-0.5116,4.1498-0.9092,7.9146-1.4487,11.6589
		c-2.8475,19.7628-5.4563,39.5652-8.6858,59.2658c-2.7134,16.5523-5.6755,33.0954-9.412,49.4404
		c-4.692,20.5248-13.8904,39.5212-21.3918,59.0953c-9.4951,24.7767-22.187,47.988-35.2375,70.9115
		c-7.0814,12.4386-17.0282,23.2554-25.8031,34.7115c-1.5258,1.992-3.636,3.5417-5.5047,5.2649
		c-5.1372,4.737-10.417,9.3278-15.4021,14.2192c-5.6989,5.5917-11.9254,10.3685-19.1962,13.6923
		c-10.7316,4.9059-21.3932,9.9862-32.2754,14.5359c-13.8686,5.7982-28.4062,8.6928-43.4819,9.0167
		c-6.9833,0.15-13.9625,0.7844-20.9249,1.4079c-1.6399,0.1469-3.1682,1.5108-4.8102,1.6693
		c-5.0402,0.4863-10.1071,0.7864-15.17,0.9213c-6.0742,0.1618-12.1548,0.0909-18.2327,0.0986
		c-4.3783,0.0054-8.7314-0.1342-12.6665-2.4622c-0.3675-0.2173-0.8674-0.2604-1.3121-0.29
		c-7.1575-0.4772-14.3099-1.1679-21.4756-1.3582c-16.3885-0.4351-32.0235-4.0624-46.9731-10.6617
		c-9.632-4.252-19.1802-8.6968-28.7242-13.1448c-6.8194-3.1782-12.7044-7.6779-18.1087-12.9042
		c-5.2827-5.1086-10.6665-10.1273-16.2236-14.9337c-7.723-6.6796-13.0185-15.3473-19.4944-23.046
		c-11.1847-13.2965-18.0771-29.0798-26.3777-44.0817c-13.5075-24.4129-23.2912-50.4261-33.4414-76.269
		c-8.8022-22.4109-13.564-45.9116-17.0086-69.6902c-2.5762-17.7839-5.3172-35.5439-7.8853-53.3289
		c-0.9857-6.8266-1.6908-13.6935-2.5363-20.5406c-0.1185-0.9598-0.3092-1.9108-0.505-3.0994
		c-6.0113,2.5106-11.1808,0.625-15.9708-2.4039c-4.4423-2.8091-8.7529-5.8718-12.8707-9.139
		c-7.9893-6.3388-10.7557-15.2231-11.5056-24.9612c-0.7248-9.4111,1.5957-18.4,4.0036-27.3454
		c1.0102-3.7527,2.2737-7.471,3.8097-11.038c1.344-3.1211,3.9169-4.1511,6.8755-3.5819c2.1349,0.4107,3.2323,1.5253,3.0445,3.7372
		c-0.4068,4.7912-0.892,9.5765-1.2343,14.3721c-0.6994,9.7979-1.1694,19.5758,1.3911,29.2429
		c1.8803,7.0991,5.0345,13.3832,10.4598,18.4583c3.8368,3.5892,7.5582,7.3019,11.6612,11.2794
		c0.0998-0.9614,0.2397-1.5206,0.2026-2.0677c-0.8426-12.409-2.2124-24.8067-2.4572-37.2267
		c-0.51-25.8754-0.6519-51.7641-0.4743-77.6442c0.0689-10.05,1.371-20.0945,2.202-30.134c0.181-2.187,0.5653-4.3769,3.6047-4.5613
		c3.4584-0.2098,4.7721,0.5619,5.0611,4.0505c0.7044,8.5043,1.2915,17.0201,1.7915,25.5392
		c1.1012,18.7618,2.1246,37.5282,3.1699,56.2933c0.7677,13.7804,1.4515,27.566,2.2957,41.3417
		c1.1453,18.6884,3.6994,37.199,6.9877,55.6293c3.5076,19.6595,6.6498,39.3838,10.0895,59.0557
		c3.2742,18.7257,7.2379,37.3545,14.8446,54.8348c9.5213,21.8799,18.6627,43.9489,30.4916,64.7833
		c6.7185,11.8333,12.3429,24.2831,18.7394,36.3065c2.6292,4.9421,5.8682,9.5797,9.0558,14.1998
		c3.815,5.5295,7.6869,11.0403,11.8821,16.2806c3.3834,4.2263,7.1876,8.1326,10.9798,12.0101
		c4.3127,4.4095,8.9623,8.4938,13.2037,12.9677c4.6859,4.9427,9.8674,9.0297,16.1242,11.8409
		c9.5208,4.2778,18.8542,8.9774,28.4152,13.1594c11.4391,5.0034,23.466,7.2576,35.9969,7.6089
		c11.1464,0.3124,22.2593,1.6814,33.4032,2.2827c6.3319,0.3417,12.7112,0.3596,19.0431,0.027
		c11.6879-0.614,23.3454-1.9045,35.0367-2.3267c10.1991-0.3683,20.2134-1.8247,29.5397-5.6744
		c13.0751-5.397,25.863-11.5388,38.5207-17.8682c3.8597-1.9301,7.0071-5.3956,10.2664-8.3912
		c5.4756-5.033,10.873-10.1596,16.1201-15.4293c3.0619-3.0752,5.9485-6.3658,8.594-9.8056
		c4.7594-6.1882,9.5424-12.3882,13.819-18.9091c3.8689-5.8989,7.202-12.1644,10.5472-18.3887
		c7.1779-13.3557,14.5231-26.6354,21.2178-40.2328c7.0151-14.2481,13.189-28.9077,20.0154-43.2519
		c11.89-24.9848,17.4036-51.6823,21.8045-78.7305c3.0027-18.4548,6.6926-36.8049,9.3584-55.3052
		c2.4837-17.2363,4.6037-34.5676,5.8356-51.9315c1.8245-25.718,2.6324-51.5067,4.053-77.2554
		c0.735-13.3239,1.8114-26.6299,2.8318-39.9364c0.325-4.2387,1.684-5.1781,5.5134-4.7245c2.9135,0.3451,3.0977,2.5826,3.2454,4.5988
		c0.8625,11.7652,2.014,23.5304,2.2792,35.3133c0.4168,18.5204,0.6413,37.0666,0.1384,55.5799
		c-0.483,17.7777-1.9952,35.5274-3.0532,53.2895c-0.0459,0.7713-0.0721,1.5437-0.0998,2.1485
		c17.1246-11.7183,25.7239-27.6938,24.2432-48.6097c-0.5127-7.2419-1.2065-14.4718-1.6481-21.7175
		c-0.1322-2.1707-1.1312-4.9006,2.2213-5.9076c3.1925-0.959,6.1729-0.0421,7.4771,3.214c1.9483,4.8642,3.5286,9.9033,4.8915,14.9687
		c2.7068,10.0607,4.3307,20.2055,2.0436,30.665c-1.7268,7.8972-5.5334,14.3652-12.0512,19.1304
		c-4.1004,2.9979-8.2187,6.0163-12.5826,8.5965C602.9288,514.7238,598.1442,516.187,592.5359,513.721z"/>
	<path class="st0" d="M408.9487,38.3816c-10.6387-2.249-21.2056-4.9478-31.93-6.66c-28.5266-4.5546-57.3004-5.271-86.1276-4.599
		c-15.805,0.3684-31.6649,0.6204-47.1653,3.9765c-7.7481,1.6776-15.174,4.8254-22.7737,7.2187
		c-1.8561,0.5845-3.8126,1.0105-5.7441,1.1145c-0.7577,0.0408-2.0238-0.8775-2.2221-1.5913
		c-0.1612-0.5803,0.7517-1.8352,1.4882-2.2262c4.0001-2.1241,7.9706-4.3893,12.1785-6.0197
		c10.5054-4.0705,21.5889-5.6288,32.7312-6.62c24.8249-2.2084,49.7021-2.5192,74.5959-1.5947
		c26.7502,0.9935,53.2893,3.5334,79.0588,11.3626c3.2986,1.0022,6.6234,1.9953,9.7782,3.3581
		c1.4239,0.615,2.4602,2.1273,3.6723,3.2324c-1.3742,1.0335-2.6062,2.5545-4.1505,3.0049c-3.902,1.138-7.9445,1.7944-12.7003,2.8077
		c3.4586,0.4658,6.2528,0.5776,8.9021,1.2556c5.0796,1.2999,10.2299,2.5475,15.061,4.5248
		c4.0465,1.6561,7.3272,4.5677,6.7985,9.8666c0.8748,0.2114,1.6412,0.4665,2.428,0.5765
		c19.0674,2.6647,34.969,11.654,48.788,24.6423c12.7138,11.9494,24.8938,24.4202,35.7016,38.1591
		c1.9072,2.4244,3.6851,4.9558,5.4282,7.5024c1.7673,2.5818,1.3339,4.02-1.597,5.2065c-3.5117,1.4216-7.058,1.2252-10.6642,0.15
		c-3.3702-1.0048-6.8162-1.7557-10.2289-2.6183c-0.2002,0.2883-0.4004,0.5766-0.6006,0.8648
		c1.6498,1.4686,3.1397,3.191,4.9834,4.3519c3.6055,2.2703,7.4332,4.1845,11.1251,6.3218
		c11.0764,6.4121,22.418,12.4211,33.1271,19.3992c15.6066,10.1692,29.3439,22.5642,40.6744,37.4776
		c1.9752,2.5998,4.1997,5.0193,6.0596,7.6955c2.5328,3.6445,2.9885,7.4589,0.4872,11.4642
		c-1.5739,2.5203-0.6148,6.0526,2.252,8.4233c2.0906,1.7289,4.4195,3.1747,6.6759,4.6967c1.505,1.0153,3.1736,1.8141,4.574,2.9502
		c1.1225,0.9107,1.9517,2.1831,2.911,3.295c-1.4534,0.7649-2.8622,2.0418-4.3707,2.1731c-2.187,0.1904-4.7159,0.1007-6.6219-0.8381
		c-4.9489-2.4374-9.808-5.1499-14.382-8.2294c-4.6108-3.1043-6.2556-7.961-5.662-13.3701c0.3862-3.5194-0.5601-6.3893-2.6663-9.1039
		c-14.9048-19.2117-32.3727-35.5212-53.587-47.6413c-10.878-6.2148-21.7872-12.3848-32.4872-18.8956
		c-3.1672-1.9273-6.18-4.5744-8.3556-7.5545c-3.141-4.3027-1.4197-8.6643,3.8163-9.6956c4.6127-0.9085,9.4409-0.7225,14.3039-1.028
		c-3.2781-3.8513-6.6553-8.2191-10.4444-12.1942c-10.5821-11.1015-20.9101-22.4997-32.1557-32.8969
		c-8.8267-8.1608-19.6762-13.2559-31.7968-15.1587c-2.4926-0.3913-4.9492-1.1516-7.3478-1.9626
		c-2.3218-0.785-3.8453-2.3231-3.7156-5.0567c0.1146-2.4148-1.306-4.1521-3.3453-4.8273
		c-4.4467-1.4722-8.9687-2.8441-13.5634-3.7046c-4.1714-0.7812-8.5092-0.6374-12.7162-1.2785
		c-2.3971-0.3653-5.7039-0.7236-5.7377-3.9225c-0.031-2.9375,3.1184-3.4794,5.4011-4.1305
		c3.8269-1.0916,7.7406-1.8789,11.6177-2.7942C408.7883,38.9548,408.8685,38.6682,408.9487,38.3816z"/>
	<path class="st0" d="M230.0735,195.2845c-6.5699,2.1722-12.5778,5.4581-18.3749,9.2231
		c-6.3919,4.1513-12.8178,8.2599-19.3709,12.1477c-2.0561,1.2198-4.516,2.0073-6.8885,2.3926
		c-4.5865,0.7449-8.7238-0.2028-11.4839-5.379c-4.7529,3.7613-9.5509,6.9299-13.5938,10.8727
		c-13.422,13.0896-25.6425,27.2449-35.8839,42.9969c-1.9582,3.0119-3.2918,6.4506-4.7348,9.7701
		c-1.1408,2.6241-4.2235,3.8379-6.6382,2.214c-0.5177-0.3482-0.883-1.5671-0.6981-2.2053c0.8289-2.8623,1.4467-5.9139,2.9228-8.4402
		c11.8419-20.267,25.4152-39.1632,44.3752-53.5124c2.9226-2.2118,6.319-3.9917,9.7537-5.2899
		c6.088-2.301,9.7585-1.1757,14.4601,3.8508c3.9968-2.5876,8.1721-5.0884,12.1308-7.8949
		c8.7872-6.2296,17.8779-11.8996,28.3627-14.7486c3.3303-0.905,6.9921-1.32,10.4102-0.9944
		c4.6976,0.4475,6.2274,3.2198,4.7339,7.7432c-0.9317,2.8218-2.3432,5.5004-3.6933,8.1654
		c-2.1309,4.2062-4.6254,8.2424-6.5383,12.541c-2.5149,5.6515-2.4072,11.4308,0.5423,17.7343
		c1.8557-2.0242,3.6895-3.6116,5.0199-5.5452c6.8666-9.9794,14.3495-19.4564,23.077-27.8609
		c4.4343-4.2702,9.2099-8.2111,14.0429-12.0332c3.1703-2.5072,6.9284-3.5203,11.0363-2.4434
		c2.4493,0.6421,3.916,2.2244,3.647,4.7012c-0.4685,4.3132-1.0121,8.6533-2.0161,12.8648
		c-1.3359,5.604-0.8972,10.8975,1.454,16.5874c2.2177-1.7706,4.2644-3.2422,6.1267-4.9187
		c9.9886-8.9915,19.8983-18.0709,29.9146-27.0313c2.2923-2.0507,4.8309-3.8489,7.3758-5.5881
		c2.8809-1.9688,6.117-2.7589,9.5983-2.0403c2.719,0.5612,4.4047,2.1711,4.4102,5.0593c0.0054,2.8116-0.149,5.6245-0.2728,8.4351
		c-0.2828,6.4214,2.3569,8.6745,8.5973,7.4437c11.3091-2.2305,21.3349-7.5504,31.3914-12.8403
		c5.136-2.7017,10.2484-5.526,15.6208-7.6696c2.9222-1.1659,6.3649-1.3603,9.5761-1.3777c3.3926-0.0183,4.6753,1.9489,3.9113,5.2851
		c-1.586,6.9257-3.755,13.6271-7.9574,19.8584c5.0369-1.9661,10.094-3.8822,15.1069-5.9075
		c16.0344-6.478,30.2625-16.0822,44.4673-25.7307c1.9462-1.3219,3.9512-2.7197,6.1387-3.4768
		c2.0618-0.7137,4.3987-0.7878,6.6178-0.8081c0.7875-0.0072,1.8488,0.8238,2.2631,1.5643c0.2032,0.3632-0.642,1.5602-1.2583,2.0988
		c-21.7033,18.9655-46.557,31.7139-74.8022,37.6855c-1.8324,0.3874-3.814,0.4439-5.677,0.2287
		c-3.2449-0.3748-3.8109-1.6953-1.6585-4.1488c4.7746-5.4426,7.9885-11.6537,9.8166-18.6131
		c0.4004-1.5242,0.6098-3.0985,1.0694-5.4957c-2.8186,1.2465-4.9223,2.0192-6.8767,3.0696
		c-7.0352,3.781-13.9622,7.7665-21.0397,11.465c-7.6102,3.9769-15.6581,6.9563-24.1806,8.0479
		c-3.939,0.5045-8.1614,0.19-12.0485-0.6786c-4.0864-0.9132-5.9288-4.1729-5.9106-8.4054c0.0129-2.9917,0.1553-5.9827,0.2013-8.9745
		c0.0066-0.4285-0.2045-0.8604-0.4219-1.7081c-1.8688,1.5187-3.6009,2.802-5.193,4.2404
		c-9.434,8.5236-18.7084,17.2297-28.3112,25.5577c-3.7942,3.2905-8.1709,5.9812-12.5378,8.5027
		c-1.6588,0.9578-4.039,0.9263-6.0837,0.8957c-3.225-0.0483-5.0343-1.5574-5.9569-4.6307
		c-1.5607-5.1991-2.1247-10.4265-0.8733-15.8433c0.8652-3.745,1.2042-7.6115,1.7783-11.4237c-0.3122-0.16-0.6244-0.32-0.9366-0.4801
		c-3.2842,2.9191-6.7168,5.6894-9.8243,8.7858c-8.6263,8.5954-16.9342,17.4766-23.953,27.4923
		c-1.5487,2.2099-3.4225,4.2923-5.5029,5.9993c-1.8484,1.5167-4.0665,2.8384-6.3394,3.5326
		c-6.0101,1.8358-10.0909-0.6348-11.7596-6.6541c-1.9146-6.9063-0.9617-13.4942,2.2063-19.8202
		c1.7476-3.4896,3.7184-6.8732,5.3366-10.4196c1.1009-2.4129,1.7651-5.025,2.6245-7.548
		C230.6252,195.5997,230.3493,195.4421,230.0735,195.2845z"/>
	<path class="st0" d="M238.9994,394.7561c-4.5921-0.4215-8.5346-0.4765-12.3513-1.1972c-8.0544-1.5208-16.0978-1.099-24.1538-0.4182
		c-8.8648,0.7492-17.7227,1.5911-26.5735,2.4921c-11.0578,1.1258-21.3964,4.7941-31.4866,9.2298
		c-5.9782,2.6281-11.8789,5.4318-17.8261,8.1307c-3.8351,1.7404-7.7518,1.835-11.6328,0.2298
		c-3.1222-1.2913-3.5915-3.4845-1.33-5.9247c10.371-11.1912,22.4047-19.6194,36.6636-25.6529
		c22.971-9.72,46.8284-12.861,71.3397-12.3448c12.506,0.2633,25.0225,1.666,37.0833,5.3839
		c3.3398,1.0295,6.6643,2.4994,9.5875,4.3965c4.2446,2.7545,4.0448,6.531-0.2007,9.3249
		c-4.8299,3.1783-10.4131,4.1938-15.9852,5.0057C247.5632,394.0776,242.9379,394.366,238.9994,394.7561z"/>
	<path class="st0" d="M421.1655,368.9593c19.1365,0.8795,35.1358,1.167,50.3654,6.2561
		c10.3885,3.4714,20.5351,7.7597,30.5561,12.2093c8.3277,3.6978,14.6562,10.2815,21.1661,16.4809
		c1.1816,1.1252,2.3071,2.3156,3.3888,3.5377c2.0286,2.2918,1.6663,4.3943-1.1315,5.6364
		c-4.0273,1.7881-8.0628,1.5904-12.1346-0.1515c-10.9203-4.6717-21.7623-9.5646-32.8677-13.7537
		c-9.7653-3.6835-20.2331-4.0863-30.5472-4.959c-4.0714-0.3445-8.1461-0.6653-12.208-1.1022
		c-9.359-1.0068-18.6312-0.4023-27.9434,0.854c-11.0341,1.4885-21.9368,0.2986-32.5411-3.1035
		c-2.1218-0.6807-4.2127-1.7698-6.0067-3.0924c-3.3006-2.4335-3.3571-5.5751-0.126-8.1527
		c1.8121-1.4455,3.9613-2.5692,6.1125-3.4708c7.7018-3.2276,15.8752-4.4592,24.1129-5.2966
		C409.0279,370.0719,416.7038,369.3831,421.1655,368.9593z"/>
	<path class="st0" d="M633.3745,296.0995c-0.1298,22.2401-1.0406,44.4638-4.0892,66.5385
		c-1.501,10.8686-2.8342,21.765-4.6099,32.5888c-0.8187,4.9906-2.3923,9.8743-3.851,14.7383
		c-1.5123,5.0425-4.4414,9.157-9.1222,11.7538c-1.1947,0.6628-2.7479,1.1414-4.0701,1.0143c-2.6635-0.256-4.1586-0.386-2.385-3.8335
		c0.3235-0.6288,0.5073-1.3744,0.5737-2.0832c0.5076-5.4185,1.0114-10.838,1.439-16.2632
		c1.4763-18.7285,2.9803-37.4551,4.3594-56.1909c1.0665-14.4874,1.9331-28.9893,2.941-43.481
		c1.0203-14.6694,2.0425-29.3393,3.2222-43.9963c0.2004-2.4888,1.0471-4.9655,1.8679-7.3541
		c0.9439-2.7466,3.0585-4.0103,5.8516-3.9027c2.9559,0.1139,4.9008,1.3234,5.4177,4.3799
		c1.0411,6.1558,2.0882,12.3646,2.3539,18.5848C633.6647,277.7465,633.3745,286.9292,633.3745,296.0995z"/>
	<path class="st0" d="M96.5531,104.2227c5.6322,0.5581,10.594,0.9464,15.5219,1.5932c1.7628,0.2314,3.528,0.9127,5.1451,1.6932
		c3.894,1.8793,4.2179,4.545,0.6298,6.8971c-4.0113,2.6295-8.3277,4.7896-12.4708,7.2229
		c-10.3597,6.0844-20.2189,12.8677-29.0573,21.0536c-1.6681,1.5449-3.5304,2.8209-1.0797,5.503
		c1.6567,1.8131-0.5368,3.009-1.8211,4.0671c-4.4089,3.6323-8.9908,7.0701-13.2291,10.89
		c-5.5211,4.9761-10.7841,10.2391-16.1453,15.3921c-6.0511,5.8161-8.6624,13.2831-10.0695,21.286
		c-0.8169,4.646-1.4752,9.3201-2.1809,13.9851c-0.094,0.6213-0.3048,1.4289-0.023,1.8699c1.791,2.8019-0.4202,3.618-2.2428,4.2476
		c-1.5882,0.5487-3.388,0.7444-5.08,0.6857c-5.5757-0.1933-7.3971-2.0818-6.9992-7.6089c0.3445-4.7866,0.9214-9.5755,1.7357-14.3049
		c1.375-7.9862,5.0359-14.9007,10.4972-20.8826c4.1545-4.5505,8.2278-9.1753,12.4008-13.7085
		c5.4892-5.9632,11.4434-11.3945,18.8175-15.7708c-3.1066-3.6571-0.406-6.2065,1.7886-8.7183
		c7.7511-8.8713,17.3843-15.362,27.4657-21.2154c4.2876-2.4894,8.7881-4.6121,13.1262-7.4437c-1.3837,0-2.7676,0.014-4.1511-0.0024
		c-5.7034-0.0676-11.4185,0.0458-17.1047-0.3055c-2.5044-0.1547-5.2938-1.1696-6.0172-3.951
		c-0.7042-2.7075,1.7146-4.2522,3.5363-5.646c17.7806-13.6047,36.0461-26.4267,57.3334-34.132
		c6.5114-2.3569,13.1602-4.2843,20.2056-3.6547c1.8537,0.1657,3.7753,0.6615,5.4481,1.4611
		c1.7168,0.8207,1.7128,2.2505,0.056,3.3624c-0.6674,0.4478-1.4376,0.8687-2.2139,1.0088
		c-9.8271,1.7729-18.6839,6.1135-27.0381,11.1991c-12.0847,7.3565-23.7255,15.4421-35.5574,23.2139
		C97.4824,103.7052,97.164,103.8691,96.5531,104.2227z"/>
	<path class="st0" d="M477.7214,190.201c2.7712,1.03,5.7021,1.7603,8.2879,3.1382c17.4832,9.3164,32.4528,21.8926,46.1243,36.0915
		c9.6064,9.9769,17.7654,21.0949,25.4172,32.6049c2.9138,4.383,6.0043,8.6523,8.7957,13.1103
		c0.7266,1.1605,0.6443,2.8332,0.9088,4.2751c0.1772,0.966,0.2474,1.955,0.473,2.9083c4.1501,17.53,5.1105,35.3582,4.7278,53.2745
		c-0.1473,6.8938-4.8987,9.7299-11.2919,7.0906c-0.9331-0.3852-2.0302-1.6945-2.0991-2.6452
		c-0.6094-8.407-0.8849-16.8384-1.4916-25.2457c-0.7901-10.9513-1.7636-21.89-2.7502-32.8257
		c-0.0956-1.06-0.5469-2.4671-1.3262-3.028c-8.6028-6.1929-14.3422-14.8277-20.1961-23.3663
		c-15.3805-22.4345-33.9241-41.8322-55.7049-58.1293c-1.308-0.9787-2.7088-1.8391-3.9687-2.8735
		c-0.5783-0.4748-1.4227-1.4615-1.2621-1.8233c0.3145-0.7079,1.1728-1.3479,1.9471-1.6345
		c0.9941-0.3678,2.1272-0.3599,3.2004-0.5139C477.5823,190.473,477.6519,190.337,477.7214,190.201z"/>
	<path class="st0" d="M60.9853,253.5679c0.8873-0.3544,1.7746-0.7086,2.6618-1.0632c10.6132-4.2413,21.2176-8.5051,31.8514-12.6941
		c1.2446-0.4903,2.6411-0.7033,3.9857-0.8092c2.8408-0.2237,3.9408,1.2431,2.7505,3.8757
		c-0.7329,1.6209-1.7195,3.2895-3.0215,4.4585c-3.168,2.8444-6.5569,5.4475-9.9105,8.0794
		c-5.9126,4.6403-11.8653,9.2297-17.8011,13.8404c0.1261,0.2408,0.2522,0.4816,0.3783,0.7224
		c1.6173-0.5474,3.2172-1.1555,4.8563-1.6273c2.2604-0.6506,4.5208-1.4211,6.8359-1.7294c2.4735-0.3294,3.515,0.9542,2.6058,3.2768
		c-0.7424,1.8965-1.8443,3.8048-3.2486,5.2632c-6.0471,6.2802-12.2676,12.3932-18.4156,18.5764
		c-0.7627,0.7671-1.4691,1.5902-1.9361,2.9006c1.3112-0.5746,2.6169-1.1622,3.9346-1.7215
		c3.5916-1.5245,7.1371-3.1832,10.8124-4.4701c1.193-0.4178,3.5232-0.3151,3.9276,0.3741c0.623,1.0618,0.5531,3.167-0.1366,4.2449
		c-2.2403,3.5013-4.7465,6.8623-7.4202,10.0509c-7.1792,8.5619-14.696,16.8833-19.9862,26.8138
		c-1.3129,2.4646-1.8917,5.4315-2.2929,8.2411c-0.4526,3.1691-3.7586,7.4408-6.8388,8.0893
		c-1.4837,0.3124-2.5082-0.3193-2.4249-1.7299c0.1834-3.1078,0.0226-6.4485,1.1272-9.2508
		c3.7337-9.4723,9.8591-17.5241,16.2492-25.3534c2.0475-2.5087,4.161-4.9636,6.0028-7.7846
		c-2.9092,1.1844-5.7934,2.4359-8.7371,3.5272c-1.6909,0.6268-3.4512,1.1704-5.2276,1.4402
		c-3.3807,0.5135-4.7197-1.1532-3.2588-4.2921c1.0572-2.2716,2.4521-4.5009,4.14-6.3426
		c5.2756-5.7563,10.7417-11.3391,16.1923-16.9322c0.6519-0.6689,1.6635-0.9874,2.5084-1.4683
		c-0.2735-0.3036-0.5469-0.6073-0.8204-0.9109c-2.9222,0.8878-5.7993,2.0246-8.7843,2.5663
		c-1.6902,0.3068-3.5576-0.3631-5.3452-0.593c0.3967-1.7736,0.2515-4.0054,1.2914-5.235
		c3.1483-3.7225,6.5957-7.2346,10.2245-10.4974c4.6507-4.1818,9.5914-8.0411,14.218-12.4448
		c-4.8274,2.0006-9.6521,4.0076-14.4828,6.0004c-6.7121,2.7689-13.3853,5.6418-20.1752,8.205
		c-1.5939,0.6017-3.5888,0.1412-5.3991,0.1693c0.3948-1.8571,0.1731-4.3104,1.2919-5.4671
		c4.6489-4.8065,9.3697-9.6613,14.6831-13.6799c8.3912-6.3463,17.2796-12.0351,25.9574-18.0025
		c0.5917-0.4069,1.1814-0.8166,1.5996-1.7505c-13.9291,3.8442-27.8581,7.6884-42.2607,11.6634
		c0.1865-3.5163,2.1153-4.5538,4.2823-5.2991c9.868-3.3943,19.6953-6.9198,29.6407-10.0719
		c7.4349-2.3564,15.0051-4.3038,22.5689-6.2205c1.506-0.3816,3.2566,0.202,4.8944,0.3406
		c-0.6001,1.7016-0.8274,3.7023-1.8932,5.0302c-1.382,1.7218-3.3437,3.0373-5.2086,4.3026
		c-11.4941,7.7988-23.0334,15.5307-34.5485,23.2987c-0.7413,0.5001-1.405,1.1154-2.1047,1.6771
		C60.8476,253.2928,60.9164,253.4303,60.9853,253.5679z"/>
	<path class="st0" d="M41.288,370.8961c-0.5311,10.653-0.9883,21.4408-1.6486,32.216c-0.24,3.9157-1.8434,5.2677-4.9328,4.9535
		c-2.0272-0.2061-3.5035-1.1102-3.7594-3.2536c-0.4295-3.5978-0.6775-7.2174-1.1129-10.8144
		c-1.6026-13.2412-3.5341-26.4498-4.8072-39.722c-1.4644-15.2668-2.5614-30.5766-3.4417-45.8893
		c-0.6982-12.1455-0.9244-24.3217-1.1608-36.4882c-0.0844-4.3422,0.2483-8.7133,0.6974-13.0393
		c0.4541-4.3741,2.961-6.153,6.5957-4.6343c1.2371,0.5169,2.5374,2.1822,2.7952,3.5182c1.1156,5.783,2.1213,11.613,2.6825,17.4724
		c1.6261,16.9791,3.059,33.9772,4.4909,50.9743C38.9357,341.0196,40.0807,355.8585,41.288,370.8961z"/>
	<path class="st0" d="M287.8869,87.9805c-1.0834,2.4692-2.1365,4.9523-3.255,7.4055c-8.1885,17.9601-17.8747,34.9547-32.478,48.5925
		c-12.4848,11.6593-26.0222,21.8101-42.2484,27.8371c-3.8845,1.4428-5.254,1.1615-6.951-1.4912
		c17.9589-7.4972,32.354-19.9044,45.6336-33.6743c14.9218-15.4727,24.5226-34.3141,32.902-53.8462
		c1.5382-3.5858,3.0219-7.1969,4.6521-10.7404c0.6667-1.449,0.9315-3.6611,3.4008-3.0859c2.3836,0.5552,4.4716,1.5962,4.9976,4.3525
		c0.034,0.1783,0.0754,0.3581,0.0822,0.5384c0.5693,15.1863,0.9424,30.384-4.6505,44.8938
		c-2.4436,6.3394-5.4412,12.4652-8.1852,18.6889c-0.3109,0.705-0.6086,1.4159-0.4778,2.5127
		c1.6534-1.3307,3.4612-2.5103,4.935-4.0168c8.8849-9.0822,17.662-18.2699,26.5432-27.3558
		c3.4878-3.5681,7.1476-6.9683,10.7369-10.4369c1.4489-1.4002,3.0535-1.8136,4.9622-0.8824
		c3.1056,1.515,3.4813,3.0332,1.1144,5.5318c-10.2988,10.8719-20.4347,21.9087-31.0274,32.4875
		c-6.1957,6.1876-13.4213,11.1382-22.2668,13.0759c-0.4168,0.0913-0.8356,0.3697-1.1573,0.6656
		c-1.4912,1.3717-2.9008,0.5419-3.758-0.5516c-0.4895-0.6244-0.3163-2.1322,0.0685-3.0215
		c3.7426-8.6486,7.9167-17.1246,11.3279-25.8987C286.6964,109.508,288.3482,98.9249,287.8869,87.9805z"/>
	<path class="st0" d="M406.3051,694.684c0.0126-0.1797,0.0688-0.3677,0.0308-0.5342c-1.0218-4.4776,0.4441-6.1527,5.0901-5.5826
		c3.0385,0.3728,5.4814,1.6569,6.6316,4.8214c0.8042,2.2126,1.8268,4.3553,2.8803,6.4651c1.0865,2.1758,0.2091,3.2127-1.8675,3.756
		c-3.0191,0.7899-6.0113,0.1616-8.2453-1.5234c-4.3243,2.9202-8.556,5.6343-12.6342,8.562
		c-8.3501,5.9944-17.9311,9.0184-27.6316,11.8523c-18.8776,5.5146-38.2152,6.8668-57.7207,6.21
		c-13.9569-0.4699-27.665-2.7216-40.6787-8.0715c-3.1641-1.3007-6.0905-3.1837-9.1132-4.8228
		c-3.8247-2.0741-7.5892-4.2675-11.4843-6.1983c-1.0488-0.5199-2.4759-0.2906-3.7314-0.374
		c-0.6333-0.0421-1.2767,0.0389-1.9061-0.0263c-2.7232-0.2821-5.7197-0.3869-7.0241-3.272
		c-1.2186-2.6953,0.6268-4.8235,2.1704-6.8651c3.9711-5.2517,10.4586-6.9598,16.5493-4.212
		c0.9893,0.4464,1.8143,1.3995,2.5369,2.2671c2.1,2.521,3.6754,5.7048,6.2251,7.5885
		c15.8026,11.6749,33.6466,16.7737,53.307,16.6031c14.4263-0.1253,28.6738-1.3586,42.7044-4.5281
		c7.9522-1.7962,15.812-4.1447,22.757-8.7512c1.5018-0.9961,3.1508-1.8679,4.851-2.4489c5.297-1.8105,9.4038-5.2968,13.3917-9.0217
		C404.2265,695.7997,405.3275,695.309,406.3051,694.684z"/>
	<path class="st0" d="M103.1326,282.8064c0.7246,0.0359,1.4524,0.0403,2.1733,0.1127c5.4611,0.5483,6.3772,2.0192,5.5204,7.3555
		c-1.451,9.037-2.2277,18.1986-4.0349,27.157c-1.4432,7.1543-3.4945,14.2842-6.1863,21.0635
		c-3.3675,8.4814-15.3356,12.3245-23.5338,8.2395c-2.8609-1.4255-3.0123-2.672-1.0729-5.1865
		c0.9625-1.248,1.7267-2.8231,2.0495-4.3616c1.9154-9.1285,3.7008-18.2846,5.4793-27.4413
		c1.4584-7.5084,3.1533-14.8971,7.9021-21.1951C94.3938,284.6187,98.2198,282.6692,103.1326,282.8064z"/>
	<path class="st0" d="M571.9621,226.0644c1.7626,1.9309,3.6478,3.7491,5.2394,5.7956c2.6005,3.3435,1.7933,5.416-2.3637,6.2649
		c-3.4365,0.7018-6.3085,0.1954-9.1431-2.535c-4.6227-4.4529-9.91-8.2092-14.7932-12.4034
		c-1.2078-1.0374-1.9399-2.6285-2.8908-3.965c1.5867-1.0701,3.097-2.2898,4.7892-3.1534c0.9938-0.5072,2.2767-0.4481,4.1882-0.7725
		c-1.3687-0.8928-2.175-1.5013-3.0526-1.9787c-12.6674-6.8919-25.3535-13.7495-38.0098-20.6618
		c-1.9824-1.0827-3.9501-2.2536-5.7229-3.6414c-1.6567-1.297-1.4664-2.9194,0.5282-3.4581c2.002-0.5407,4.5093-0.9962,6.2919-0.264
		c9.3829,3.8537,18.6838,7.9303,27.8657,12.2435c11.4962,5.4003,22.863,11.0837,33.0786,18.7612
		c1.0833,0.8142,2.1214,1.7191,3.0469,2.7071c2.0201,2.1565,1.8105,3.9744-0.9525,5.071
		C577.585,225.0573,574.8483,225.3853,571.9621,226.0644z"/>
	<path class="st0" d="M196.3375,105.1226c-2.2895,1.0745-4.3422,1.9838-6.3474,2.9879
		c-10.9673,5.4918-19.7283,13.6863-26.7869,23.4717c-10.7705,14.9313-20.9225,30.3077-31.4203,45.4374
		c-2.4238,3.4933-5.0439,6.8752-7.8369,10.0789c-1.998,2.2918-5.9251,1.4659-7.1924-1.3209
		c-0.2252-0.4951-0.0434-1.3988,0.2855-1.8894c7.3176-10.9169,14.702-21.7889,22.0322-32.6974
		c7.4913-11.1483,14.8086-22.4237,24.3969-31.9719c7.5603-7.5286,16.0671-13.5425,26.3813-16.7406
		C192.5836,101.6307,194.6045,102.3466,196.3375,105.1226z"/>
	<path class="st0" d="M314.2491,647.1124c-6.9534,0.0637-13.5547-1.3376-19.5574-4.9183c-1.128-0.6729-2.7742-2.3265-2.5558-3.0016
		c0.3915-1.2103,1.8629-2.4025,3.1566-2.9271c3.8219-1.5501,7.8728-1.5915,11.7393-0.2577
		c2.8184,0.9723,4.6637,0.1018,6.3893-1.9772c2.318-2.7929,4.6157-5.6135,7.098-8.257c4.3694-4.6533,12.3952-6.0391,18.1305-3.2961
		c3.2941,1.5755,4.6753,5.8033,3.2481,10.2095c-1.1915,3.6787-3.5573,6.507-6.7096,8.6741
		C328.8784,645.6987,321.7314,647.028,314.2491,647.1124z"/>
	<path class="st0" d="M323.6525,160.8478c2.4952-1.2966,4.8127-2.3083,6.9333-3.6345c12.0992-7.567,22.2015-17.4844,32.2023-27.5193
		c6.8501-6.8734,13.4558-14.0315,20.7311-20.4248c4.5074-3.9609,9.9943-6.8469,15.2242-9.9029
		c0.7823-0.4572,2.6543,0.663,3.8115,1.3892c0.2184,0.137-0.2539,2.2346-0.9312,2.7994c-4.4529,3.7127-9.3325,6.952-13.541,10.9112
		c-9.3811,8.8252-18.1523,18.3148-27.7413,26.8977c-7.606,6.8079-16.002,12.7449-24.1776,18.8955
		c-1.8398,1.3842-4.204,2.0876-6.3575,3.0345C327.1815,164.4478,325.3057,163.4396,323.6525,160.8478z"/>
	<path class="st0" d="M190.1294,53.4553c-3.1422-1.0366-5.6868-1.8606-8.2206-2.7167c-2.0518-0.6933-4.145-1.3049-6.1107-2.1941
		c-0.8848-0.4003-1.5036-1.3888-2.243-2.1103c0.8092-0.7504,1.5499-1.602,2.4528-2.2142c0.5655-0.3833,1.3689-0.4364,2.0767-0.5847
		c1.4592-0.3057,3.6885-0.0887,4.242-0.9551c1.4741-2.3073,2.6835-5.0012,3.1165-7.6838c0.3163-1.9598,0.9887-2.9934,2.6332-3.5765
		c3.5353-1.2536,7.1368-1.285,10.6664-0.0686c2.6716,0.9207,4.5369,3.0693,3.9566,5.7839
		c-0.9154,4.2818-1.8767,8.8863-4.2339,12.4064C196.981,51.7581,192.9147,52.2455,190.1294,53.4553z"/>
	<path class="st0" d="M574.6713,259.5534c1.7213,0.6982,3.3833,1.041,4.6506,1.9401c8.3735,5.9412,15.2367,13.3961,21.1467,21.7395
		c2.0332,2.8705,1.9584,4.4966,0.1451,5.6519c-2.9508,1.88-6.3383,0.9277-8.2426-1.4388
		c-4.4274-5.502-9.1831-10.7422-13.8682-16.0334c-1.9821-2.2386-4.2045-4.2669-6.1489-6.5355
		c-0.8161-0.9522-1.1945-2.2796-1.7719-3.4364C571.9189,260.8239,573.2556,260.2069,574.6713,259.5534z"/>
	<path class="st0" d="M594.985,310.2023c-1.6845,0.0645-2.8335-0.8041-3.8776-3.0292c-2.6422-5.6314-5.864-10.9914-8.8687-16.4518
		c-1.4565-2.647-1.1415-3.3391,1.8041-4.0009c2.8195-0.6335,5.4888-0.141,6.9998,2.3258c3.1006,5.0619,6.1451,10.203,8.6329,15.5797
		C601.3798,308.3088,599.7029,310.145,594.985,310.2023z"/>
	<path class="st0" d="M44.7887,436.1032c-1.193-0.9153-2.8541-1.582-3.496-2.7901c-2.4643-4.6375-4.7257-9.3951-6.8131-14.2159
		c-1.188-2.7436,0.3464-4.5627,3.3134-3.9164c1.5538,0.3384,3.5518,1.2218,4.2434,2.4711c2.5316,4.5729,4.7931,9.324,6.7618,14.1683
		C49.8345,434.37,48.4126,435.6039,44.7887,436.1032z"/>
</g>
</svg>
