<?xml version="1.0" encoding="utf-8"?>
<!-- Generator: Adobe Illustrator 24.3.0, SVG Export Plug-In . SVG Version: 6.00 Build 0)  -->
<svg version="1.1" id="Layer_1" xmlns="http://www.w3.org/2000/svg" xmlns:xlink="http://www.w3.org/1999/xlink" x="0px" y="0px"
	 viewBox="0 0 864.192 1034.6947" style="enable-background:new 0 0 864.192 1034.6947;" xml:space="preserve">
<style type="text/css">
	.st0{fill:#FFFFFF;}
</style>
<g>
	<path class="st0" d="M118.5851,763.6972c-2.2018-0.1199-4.8949-0.2311-7.5826-0.4188
		c-16.1722-1.1284-30.0486-7.7784-42.525-17.7556c-15.7097-12.5631-28.8436-27.1558-35.4325-46.5901
		c-5.1978-15.3311-7.8249-31.0071-3.8711-47.1068c4.3051-17.53,19.5769-29.5108,37.6465-29.7582
		c2.325-0.0318,4.6509-0.0043,7.3642-0.0043c-1.067-5.8323-1.9328-11.1889-3.0371-16.4961
		c-6.0587-29.1185-1.5729-57.0195,9.5048-84.2043c1.6061-3.9414,3.9521-6.8507,8.2259-7.9995
		c1.1686-0.3141,2.3839-0.9373,3.2683-1.7539c14.7488-13.6192,32.4495-21.8379,51.3231-27.7108
		c27.2793-8.4886,55.1629-13.8801,83.6287-16.8067c29.9739-3.0816,59.846-2.5167,89.7124,0.4439
		c21.3514,2.1165,42.339,6.2424,62.6758,13.3548c15.9752,5.587,27.0794,16.445,34.6981,31.2442
		c0.6596,1.2813,1.3518,2.5458,2.1986,4.137c13.1391,0.1552,26.4005-1.3055,39.1732,1.9929
		c4.005-4.1819,6.3818-8.3246,6.6611-14.0768c0.2594-5.3427,2.0417-10.6702,3.5882-15.8751
		c1.5683-5.2783,5.7371-8.2679,10.6754-10.1313c11.57-4.3657,23.4242-7.7464,35.6416-9.7479
		c39.4388-6.4609,79.0721-7.4952,118.9145-4.871c19.2215,1.2661,38.3762,2.7612,57.3727,6.0038
		c16.1644,2.7592,31.7875,7.3907,47.043,13.3599c13.9803,5.4702,24.5443,15.1033,33.7224,26.7049
		c8.4928,10.7355,12.5361,23.1844,15.2496,36.2668c0.18,0.8679,0.2705,1.7543,0.4398,2.8792
		c0.845,0.0507,1.5474,0.2444,2.179,0.1086c23.6877-5.0967,44.7692,2.5306,57.8587,22.7426
		c17.9887,27.777,21.7697,57.291,7.2661,87.9762c-5.2241,11.0526-13.4703,19.731-22.7391,27.4874
		c-12.6812,10.6121-25.8918,20.4996-39.9702,29.211c-9.2313,5.712-19.0547,9.8771-29.9031,10.9323
		c-5.3571,0.5211-10.8067,0.0905-16.6455,0.0905c-0.1693,0.45-0.6116,1.2228-0.7479,2.0463
		c-6.9639,42.0969-19.485,82.5195-35.3932,122.0786c-8.499,21.1347-18.4324,41.487-29.7003,61.1503
		c-7.648,13.3466-16.2258,26.3418-25.8292,38.3403c-11.7875,14.7274-27.0692,25.6915-43.9583,34.2003
		c-10.6951,5.3883-21.2985,11.0283-32.2927,15.7388c-22.5385,9.6567-46.2419,14.7835-70.6686,16.6585
		c-10.4945,0.8055-20.9761,1.7854-31.4752,2.5215c-27.5431,1.9311-55.0711,3.2696-82.6343-0.0897
		c-31.5678-3.8474-62.2005-11.2321-90.8675-25.1246c-24.7003-11.9703-48.2079-26.1187-69.4528-43.6677
		c-7.9628-6.5774-15.6992-13.4786-23.0715-20.7086c-9.8414-9.6516-19.7136-19.3491-28.6939-29.7832
		c-13.1023-15.2234-22.6993-32.783-31.3428-50.8553c-3.6801-7.6948-7.783-15.1957-11.2389-22.9865
		c-2.7856-6.2795-5.5008-12.7083-7.1663-19.3422C124.8044,793.273,121.93,778.8681,118.5851,763.6972z M419.6709,528.665
		c0.2672,2.7939,0.4521,4.5798,0.6066,6.3682c0.7961,9.2159,2.5082,18.575-0.6377,27.5592
		c-4.6117,13.1701-9.6109,26.2166-14.8623,39.1461c-3.1338,7.7158-7.123,15.0809-10.6265,22.6505
		c-7.1532,15.455-17.8309,28.1556-32.6741,36.1791c-15.4729,8.3637-32.1055,14.4174-49.6697,17.1988
		c-10.035,1.5891-20.2393,2.3352-30.1389,4.5038c-17.8382,3.9076-35.9439,5.0466-54.0413,6.1585
		c-22.4391,1.3786-44.5355-1.7769-66.5237-6.0872c-16.7671-3.2867-32.4945-8.9174-46.752-18.459
		c-4.5237-3.0272-9.3572-5.6094-13.7607-8.7938c-5.2762-3.8156-10.3116-7.9762-15.3236-12.141
		c-3.9609-3.2913-7.7221-6.8224-11.6011-10.2139c-0.2098-0.1834-0.6883-0.0594-1.1628-0.085
		c-3.3399,2.1776-4.8895,5.6159-5.9692,9.3258c-1.7081,5.8691-1.7107,11.8445-0.7586,17.8173
		c4.9568,31.0938,20.2002,56.3911,43.6537,76.987c2.6644,2.3397,5.7539,4.1954,9.0845,6.5906
		c0.3126-2.0469,0.5111-3.282,0.6888-4.52c1.2878-8.9733,2.2235-18.0153,3.9573-26.9014
		c1.6286-8.3469,4.0524-16.5417,6.2204-24.7787c0.968-3.6778,3.4085-5.8152,7.2379-6.4807
		c6.5362-1.1359,13.568-0.3205,15.5094,9.4052c1.4534,7.2806,2.6728,14.653,3.3093,22.0437
		c2.8017,32.5333,10.0861,64.1367,19.3746,95.3326c1.2889,4.3287,2.9458,8.6192,5.0024,12.6354
		c7.7733,15.1799,15.4433,30.4301,23.807,45.2851c6.9434,12.3325,14.7276,24.2188,24.6587,34.4641
		c8.0854,8.3414,16.3235,16.535,24.5121,24.776c18.9485,19.0692,40.6664,34.3568,63.8517,47.8588
		c21.0919,12.2829,43.3163,20.7733,67.3397,25.3578c25.7975,4.923,51.6693,4.1437,77.6081,3.2185
		c10.5146-0.3749,21.0172-1.2089,31.5096-2.034c6.3243-0.4973,12.7214-0.8912,18.903-2.1967
		c10.8007-2.2811,21.8328-3.9281,31.9232-8.8061c10.619-5.1335,21.3657-10.0405,31.7375-15.6378
		c13.3317-7.1943,25.8375-15.8969,35.2096-27.8721c9.9359-12.6956,19.3405-25.9258,27.735-39.6806
		c11.7122-19.1907,22.4565-38.9385,31.1077-59.8306c8.9622-21.6432,18.1238-43.2355,24.7474-65.675
		c7.961-26.9707,14.1912-54.4495,18.614-82.2385c1.5164-9.5278,0.858-19.4017,1.1994-29.2982
		c-5.4724,0.8536-10.2703,1.8958-15.1216,2.3067c-18.638,1.5786-37.2553,2.2546-56.0132,1.2953
		c-32.3379-1.6537-64.4413-5.1981-96.1736-11.3209c-34.9274-6.7393-64.3586-23.3134-85.4294-52.7487
		c-13.1768-18.4079-19.9366-38.6117-15.0185-61.5388c1.0502-4.8958,2.2124-9.7677,3.3845-14.9209
		C439.9027,528.5293,430.1239,529.4506,419.6709,528.665z M111.1484,537.6577c0.8917,7.1851,1.4238,13.8887,2.5956,20.4786
		c4.0772,22.9285,11.9428,44.8691,18.0402,67.2697c1.2866,4.7264,3.9394,9.6558,7.356,13.1159
		c8.922,9.0355,18.7627,17.1217,30.3669,22.6761c1.9504,0.9336,4.0775,1.5253,6.1602,2.1509
		c26.0381,7.8212,52.5282,8.5928,79.2601,4.8433c10.9576-1.537,21.8111-3.9958,32.8065-5.0375
		c13.6931-1.2975,25.8709-6.8715,38.3009-11.8766c1.9834-0.7986,3.9008-2.041,5.4985-3.4698
		c7.6395-6.8317,14.571-14.3422,18.1839-24.1169c6.6039-17.8671,15.1688-34.9242,21.0113-53.1372
		c3.5515-11.0712,5.4904-22.0167,5.5231-33.6016c0.034-12.0839-3.8802-22.3381-11.4718-31.4855
		c-4.4112-5.3152-9.6792-9.2137-16.3911-11.1238c-15.0562-4.2847-30.391-7.1148-45.9697-8.4318
		c-22.1204-1.87-44.1948-1.7052-66.3189,0.8488c-22.4714,2.594-44.3284,7.5839-65.7298,14.6746
		c-14.8539,4.9214-28.1385,12.5299-38.7869,24.2967C126.2228,531.6552,119.6168,535.6462,111.1484,537.6577z M493.3349,523.0402
		c0,7.722,0.2232,14.9772-0.051,22.2135c-0.4393,11.589,1.7909,22.6474,5.0069,33.7339
		c5.7093,19.6824,18.2304,34.188,34.4378,45.5457c16.6691,11.6812,35.3123,18.7847,55.5901,22.2432
		c31.3759,5.3513,62.6706,9.9381,94.676,7.3145c10.7564-0.8818,18.6321-5.3315,24.2953-14.1383
		c4.1198-6.4069,7.78-13.1161,12.0352-19.4277c7.5886-11.2559,12.8651-23.4948,16.7372-36.4463
		c5.5812-18.6678,7.6155-37.3991,0.6224-56.1033c-5.5921-14.9573-14.366-27.4815-30.2078-32.9335
		c-9.5719-3.2942-19.3755-6.3772-29.3286-7.9926c-14.8328-2.4073-29.862-3.7791-44.8569-4.974
		c-27.3578-2.18-54.7551-2.7422-82.0784,0.572c-12.2208,1.4823-24.5042,2.5714-36.3759,6.4007
		c-4.5201,1.458-7.1292,3.4129-7.8293,8.229c-0.3817,2.6258-1.9279,5.0669-2.8021,7.6411
		c-0.8125,2.3923-1.9539,4.8352-2.0266,7.2832C501.0211,517.5242,499.118,521.3306,493.3349,523.0402z M784.7971,563.7794
		c-0.3628,0.5471-0.6592,0.8215-0.7402,1.1492c-0.2164,0.8763-0.3901,1.7697-0.4935,2.6665
		c-2.1451,18.5924-9.3104,35.3382-18.9583,51.1318c-4.5385,7.4293-9.4601,14.6243-14.0093,22.0474
		c-5.3492,8.7289-12.468,15.5092-21.4144,20.4258c-1.1858,0.6515-2.3137,1.4083-4.3983,2.6864
		c1.7294,0.2463,2.3661,0.3579,3.0075,0.4251c9.4277,0.9876,11.4724,2.4938,14.0291,11.6219
		c2.7513,9.8234,4.6074,19.8077,3.6414,30.1083c-0.076,0.8113-0.01,1.6359-0.01,2.4792c0.8478-0.0502,1.2587,0.0464,1.5146-0.1101
		c1.2363-0.7564,2.4717-1.5259,3.6338-2.3896c14.874-11.0556,29.5046-22.4722,42.3661-35.8301
		c19.0897-19.8265,28.9092-43.2735,25.389-71.2667c-1.4182-11.2773-4.3344-22.0934-11.2268-31.4392
		c-2.4882-3.3739-5.3286-6.3714-9.6693-8.0466C794.038,563.353,789.3659,563.7767,784.7971,563.7794z"/>
	<path class="st0" d="M469.7383,116.6426c-8.6038-3.3844-17.3913-4.6123-26.2752-5.0725
		c-24.7376-1.2814-49.3861-0.7752-73.6552,4.8587c-21.1669,4.9138-40.9422,13.5241-60.3318,23.1422
		c-37.0264,18.3667-71.5099,40.8612-105.2308,64.6019c-18.4191,12.9676-36.3743,26.5459-53.0965,41.6616
		c-9.5615,8.6429-18.897,17.5777-26.3535,28.1827c-2.1552,3.0653-3.7941,6.5824-5.1503,10.093
		c-1.1094,2.8716-2.6298,5.2195-5.2488,6.679c-11.6949,6.5176-24.0318,7.7252-36.8191,3.9688
		c-4.9051-1.4409-7.5951-5.1859-7.7281-10.1144c-0.0953-3.53,0.2757-7.4035,1.6861-10.5677
		c2.2687-5.0896,5.14-10.0439,8.5057-14.488c14.1301-18.6574,31.2069-34.4014,49.7628-48.5141
		c39.3955-29.9621,81.2824-56.0307,125.2637-78.6792c29.4142-15.147,59.6563-28.3102,92.0593-35.9165
		c30.9991-7.2767,62.4155-9.1839,94.1183-7.8251c15.4384,0.6617,30.8074,1.9112,45.8349,5.7774
		c14.1099,3.6301,27.6559,8.8036,40.5909,15.4945c2.8638,1.4813,5.6208,3.4066,7.9513,5.6267
		c3.6671,3.4933,3.25,7.0826-0.9002,10.0357c-4.4038,3.1336-9.5021,4.5031-14.8071,4.9289
		c-3.4282,0.2752-6.9024,0.2956-10.3384,0.1083c-38.2179-2.0836-75.2225,4.4025-111.5205,15.7817
		c-38.4984,12.069-73.3224,31.3774-106.0632,54.5949c-16.1367,11.443-31.9354,23.3713-47.7016,35.3244
		c-7.2223,5.4756-14.0621,11.4657-20.9426,17.377c-2.6239,2.2544-5.3554,3.7152-8.8596,3.2987
		c-2.2675-0.2696-3.4783-1.6675-2.4375-3.7507c1.4444-2.8911,2.9688-5.9358,5.1795-8.2164
		c8.711-8.9867,17.2108-18.2742,26.6825-26.4099c31.1069-26.719,64.8179-49.6414,101.7004-67.7651
		c25.2433-12.4043,51.8655-20.7717,79.2551-26.6452c13.637-2.9244,27.5448-4.5847,41.3279-6.8307
		C467.3857,117.1894,468.5581,116.8919,469.7383,116.6426z"/>
	<path class="st0" d="M864.2532,263.1655c0.3335,6.3178-1.5135,12.9097-5.078,18.9772
		c-12.081,20.5649-29.5856,32.0144-53.9532,31.3831c-4.3045-0.1115-8.6069-1.1495-12.8593-2.011
		c-1.7338-0.3513-3.45-1.1815-4.9698-2.1237c-4.7496-2.9445-4.6891-6.7953,0.2679-9.5202c2.1856-1.2014,4.6874-2.0958,7.1457-2.4666
		c3.2668-0.4928,5.7679-1.9357,7.9326-4.287c9.856-10.7057,14.5464-22.7577,10.3734-37.4219
		c-5.0576-17.7725-14.1432-33.2913-25.7151-47.5268c-13.8312-17.0148-30.1517-31.3972-47.3497-44.8212
		c-30.6603-23.932-62.978-45.3998-96.8177-64.5817c-33.6711-19.0863-68.4909-35.7483-104.5128-49.9164
		c-11.645-4.5802-23.1878-9.4212-34.7473-14.2153c-2.3349-0.9683-4.6988-2.027-6.7589-3.4612
		c-3.4477-2.4002-3.2425-5.1451,0.5664-7.0469c4.5031-2.2483,9.4153-2.8903,14.3299-1.8633
		c6.3851,1.3343,12.7555,2.8214,19.0233,4.6219c36.9835,10.6244,73.5837,22.3631,108.6761,38.3462
		c38.5335,17.5505,75.8533,37.327,110.9389,61.1259c25.1151,17.0358,49.4195,35.1309,70.7624,56.8469
		c12.889,13.1144,24.527,27.2518,32.846,43.8186C860.7579,239.7752,864.1766,252.1951,864.2532,263.1655z"/>
	<path class="st0" d="M502.3957,240.9929c-1.9885-3.7127-3.2769-6.6525-5.032-9.2806c-3.3255-4.9801-7.0703-9.682-10.3509-14.6896
		c-2.4738-3.7759-4.7671-7.7244-6.6337-11.8268c-1.5406-3.3862-0.5448-5.6516,2.9054-6.9764
		c6.6009-2.5346,13.5042-2.9777,19.101,1.8483c10.8501,9.3557,21.4467,19.0345,31.6953,29.0433
		c3.6857,3.5995,6.4901,8.3095,8.9396,12.9153c3.2007,6.0183,1.4793,11.186-4.8286,13.8958
		c-4.9265,2.1164-10.3012,3.6994-15.6154,4.3066c-14.8823,1.7004-29.7989,0.3075-44.5512-1.5629
		c-27.2954-3.4605-54.3484-2.0457-81.3677,2.3321c-22.2725,3.6086-44.2468,8.7165-65.2184,16.9493
		c-22.4459,8.8114-44.826,17.9838-66.0015,29.6608c-7.7681,4.2837-15.0671,9.4306-22.5014,14.3036
		c-9.2595,6.0694-18.3355,12.4237-27.6785,18.3593c-10.0715,6.3983-18.8864,14.0867-26.2185,23.5093
		c-6.7151,8.6297-14.2927,16.427-22.9083,23.1927c-15.0398,11.8106-31.7623,12.9996-49.4646,7.7921
		c-1.5377-0.4523-3.014-1.2951-4.3554-2.1989c-4.1164-2.7737-5.3163-6.2135-3.4606-10.8427
		c1.0692-2.6672,2.5681-5.214,4.1914-7.5986c10.2464-15.0509,21.0212-29.6937,36.0614-40.4211
		c6.7875-4.8411,13.9369-9.1872,21.0275-13.588c12.4903-7.752,24.9585-15.5484,37.6231-23.0085
		c18.5289-10.9145,38.6778-18.2613,58.5251-26.3191c29.3819-11.9287,59.6037-20.7527,90.808-26.2467
		c24.3527-4.2876,48.933-6.6673,73.6009-7.985c20.5685-1.0987,40.9852,1.3255,61.3885,3.5714
		C495.1056,240.4614,498.1516,240.6419,502.3957,240.9929z"/>
	<path class="st0" d="M433.4553,28.0247c-1.4325,3.3905-4.0688,3.4162-6.5909,3.6555c-8.4882,0.8055-17.011,1.3468-25.4587,2.4589
		c-18.9875,2.4996-37.2776,7.8353-55.0275,14.8682c-25.9609,10.2863-52.0279,20.3692-77.5744,31.6182
		c-23.2224,10.2256-46.1897,21.1792-68.5869,33.0948c-31.7096,16.87-62.9632,34.6706-91.365,56.8975
		c-8.9898,7.0354-17.7718,14.42-25.9888,22.3304c-5.707,5.494-10.4122,12.0608-15.3319,18.3312
		c-4.629,5.9-9.6055,11.4132-15.9513,15.4614c-11.7476,7.4941-24.2079,7.8419-37.0248,3.1745
		c-1.3321-0.4851-2.6038-1.325-3.694-2.2479c-2.5964-2.1982-3.3323-4.6044-1.2718-7.1452
		c5.0424-6.2178,7.2932-13.7593,10.5161-20.8186c8.291-18.1605,21.4002-32.1741,36.9259-44.295
		c13.6247-10.6369,27.9595-20.1959,43.0988-28.4762c21.7991-11.9228,43.3806-24.3557,65.7904-35.0265
		c47.8707-22.7945,97.0937-42.2839,148.1702-56.8477c16.9351-4.8288,33.9345-9.3482,51.4095-11.7438
		c18.9474-2.5975,37.9433-3.6946,56.9486-0.5926C426.4771,23.3793,430.7718,23.8512,433.4553,28.0247z"/>
	<path class="st0" d="M88.1781,487.0359c0,5.7008-0.0021,9.5133,0.0006,13.3258c0.0027,3.721-1.8733,6.2259-5.2232,7.5296
		c-8.6667,3.373-17.3604,3.3061-25.9894-0.1833c-3.9702-1.6055-5.6072-5.0459-6.4084-8.8945
		c-2.0706-9.9456-4.206-19.8846-5.9549-29.8893C35.635,417.6248,27.5785,366.164,16.8762,315.174
		c-3.4317-16.3501-5.861-32.8827-6.5968-49.6065c-0.1204-2.7375-1.399-6.2487,1.9709-7.8583
		c3.5633-1.702,7.5264-1.675,10.9612,0.5005c1.5956,1.0106,2.9546,2.737,3.8547,4.4384c2.5431,4.8071,5.1227,9.6396,7.1072,14.6903
		c16.7354,42.5925,32.4812,85.519,42.4758,130.3082c5.0639,22.693,9.31,45.5262,10.9812,68.7633
		C87.9299,480.5735,88.063,484.749,88.1781,487.0359z"/>
	<path class="st0" d="M662.6827,245.485c4.2714,4.4163,8.7169,8.9195,13.0478,13.5305c2.1096,2.2458,4.1168,4.6081,5.975,7.0653
		c4.4216,5.8472,3.6327,10.5082-3.0865,13.6446c-4.6849,2.1868-9.9062,3.8953-15.0151,4.3327
		c-6.4249,0.55-12.9799-0.4055-19.4777-0.7361c-1.0643-0.0541-2.1221-0.2352-3.4606-0.3897
		c-1.3848,8.251-7.5374,11.2496-14.4139,13.1183c-11.4291,3.1057-22.9811,3.1131-34.4727,0.2999
		c-2.4121-0.5905-4.8512-1.6544-6.8879-3.0636c-3.4477-2.3854-3.3842-5.5345,0.0274-7.9447
		c1.8814-1.3291,4.0953-2.1874,6.7613-3.5702c-2.774-2.6496-5.4498-4.9802-7.861-7.5583
		c-4.2083-4.4999-8.6113-8.8856-12.2794-13.8062c-4.931-6.6145-3.379-12.0835,4.4102-14.9914
		c5.0234-1.8753,10.5343-2.4674,15.8482-3.5269c1.5073-0.3005,3.09-0.2228,5.7122-0.3849
		c-3.866-4.0944-7.1099-7.4052-10.2054-10.8493c-2.2985-2.5573-4.6282-5.1373-6.5382-7.9798
		c-2.2629-3.3678-2.0181-6.2617,1.1925-8.6271c2.847-2.0976,6.2155-3.9506,9.6249-4.7382
		c12.2474-2.8292,24.1416-2.0736,35.1286,4.9112c4.1327,2.6272,8.5435,4.821,12.6407,7.4982
		c2.821,1.8432,5.1932,1.7088,7.9853-0.0169c9.2961-5.7452,17.8565-12.4256,26.1404-19.5337
		c5.9127-5.0735,12.0265-9.9517,18.3599-14.4849c6.6407-4.7533,14.3136-5.9644,22.342-4.8703
		c1.603,0.2185,3.223,0.5945,4.7325,1.1679c5.2409,1.9908,6.1733,4.4733,3.0462,9.0529
		c-10.6978,15.6671-22.3442,30.5559-38.4231,41.1169C677.0898,238.3854,669.9576,241.5753,662.6827,245.485z"/>
	<path class="st0" d="M752.3697,423.313c-0.6401,11.4906-3.3381,22.9605-6.6767,34.2907
		c-1.4554,4.9392-4.9149,7.8278-10.0048,8.9421c-5.7803,1.2655-11.4832,1.2398-17.2546-0.0465
		c-6.5034-1.4495-10.0315-5.5292-10.9128-11.9648c-0.4426-3.2319-0.5961-6.5063-0.8118-9.7659
		c-2.2319-33.7169-11.4913-65.6788-24.2847-96.7331c-4.4926-10.9051-9.4794-21.6069-13.9513-32.52
		c-2.8162-6.8726-5.2824-13.9053-7.5523-20.9796c-1.6039-4.9984-0.2211-7.0212,4.9811-8.0401
		c7.3481-1.439,14.0941-0.1569,19.7991,5.0108c1.4786,1.3394,3.0088,2.6587,4.2831,4.1815
		c16.6867,19.9399,32.6425,40.4116,44.3599,63.7891c9.347,18.6482,15.7306,38.2368,17.7457,59.1094
		C752.2289,420.0309,752.2642,421.4852,752.3697,423.313z"/>
	<path class="st0" d="M850.6362,340.7731c-5.5403,50.7734-13.7131,100.9856-28.6599,149.9533
		c-2.4111,7.8993-6.9082,11.7735-14.762,12.9126c-6.4333,0.9331-12.6764,0.6516-18.7656-1.5407
		c-5.5824-2.0098-7.7485-4.7886-7.0824-10.6844c1.0569-9.3541,2.3935-18.7122,4.2914-27.9287
		c4.8994-23.7916,9.807-47.5927,15.4038-71.226c4.8146-20.3306,11.4096-40.1257,21.9573-58.359
		c1.3603-2.3514,2.9011-4.6002,4.399-6.8697c1.8216-2.7599,4.4965-4.1038,7.7046-4.5526
		c10.5322-1.4734,15.3459,2.6773,15.5104,13.4044C850.6578,337.5121,850.6362,339.1428,850.6362,340.7731z"/>
	<path class="st0" d="M713.8474,260.0917c-4.1027-0.6551-8.2396-1.1534-12.2918-2.0398c-1.7012-0.3722-3.3976-1.3432-4.7866-2.4357
		c-2.2568-1.7751-2.3035-4.1835-0.1037-5.9966c1.3585-1.1196,3.0536-2.153,4.7443-2.4903
		c6.4827-1.2931,11.649-5.0049,16.5983-8.9377c10.6461-8.4598,21.2869-16.9495,31.5298-25.8855
		c6.5659-5.7281,13.8455-7.5762,22.1573-6.4976c1.773,0.2301,3.5786,0.7172,5.2078,1.4463
		c3.9062,1.7479,5.2834,4.4263,3.5062,8.3499c-1.8458,4.075-3.9892,8.2695-6.9662,11.5325
		c-11.3806,12.4741-24.9617,22.0419-40.4503,28.8394C726.9147,258.6442,720.5064,259.6794,713.8474,260.0917z"/>
	<path class="st0" d="M92.8317,444.8258c0.2951-4.8575,0.3831-9.5717,0.9182-14.2345c0.5866-5.1119,2.2777-6.808,6.4458-7.3874
		c4.7733-0.6635,8.2548,1.1067,9.8314,5.6904c1.2862,3.7393,2.3064,7.6631,2.741,11.5832c0.957,8.632,1.6441,17.304,2.1098,25.9774
		c0.392,7.3007-1.7685,9.374-9.1194,9.4546c-1.6068,0.0176-3.2299-0.3049-4.8247-0.5881c-3.2211-0.572-5.0878-2.3468-5.4261-5.7857
		C94.693,461.2552,93.7257,452.9897,92.8317,444.8258z"/>
	<path class="st0" d="M734.8477,303.5197c1.7475-1.8286,2.851-3.2321,4.1986-4.3375c2.2411-1.8382,4.5992-3.5424,6.9784-5.2018
		c6.9912-4.8763,14.0808-9.6141,21.0076-14.5794c4.8046-3.444,10.0103-4.069,15.536-2.7509
		c5.8369,1.3925,7.0817,5.0541,3.0195,9.3646c-2.5919,2.7505-5.518,5.3239-8.6891,7.3623
		c-6.8608,4.4101-13.8911,8.5766-21.0154,12.5498c-4.9965,2.7865-10.4603,2.9414-15.8231,1.0562
		C738.3447,306.38,736.9253,304.9354,734.8477,303.5197z"/>
	<path class="st0" d="M425.6749,907.6565c-10.5879,0.1304-21.0021-1.0213-31.0783-4.4227
		c-5.3907-1.8198-10.3474-4.4045-14.0652-8.902c-2.8732-3.4756-2.6056-5.8517,1.5868-7.6609
		c8.2194-3.5472,16.815-4.104,24.48,0.9145c5.7169,3.7431,11.6827,4.9567,18.0592,4.5082
		c16.0327-1.1277,31.0005-5.5262,43.9567-15.5211c9.1809-7.0822,18.7523-13.6718,26.4939-22.4846
		c3.2991-3.7554,11.1041-4.0653,15.0812-1.0316c2.4554,1.8729,3.1858,4.592,2.4021,7.3048
		c-0.8917,3.0862-2.1128,6.2175-3.8579,8.8942c-10.7169,16.4372-25.4371,27.5767-44.4307,32.9092
		C451.6675,905.712,438.8417,907.8712,425.6749,907.6565z"/>
</g>
</svg>
