<?xml version="1.0" encoding="utf-8"?>
<!-- Generator: Adobe Illustrator 24.3.0, SVG Export Plug-In . SVG Version: 6.00 Build 0)  -->
<svg version="1.1" id="Layer_1" xmlns="http://www.w3.org/2000/svg" xmlns:xlink="http://www.w3.org/1999/xlink" x="0px" y="0px"
	 viewBox="0 0 612 668" style="enable-background:new 0 0 612 668;" xml:space="preserve">
<style type="text/css">
	.st0{fill:#FFFFFF;}
</style>
<g>
	<path class="st0" d="M525.1003,340.0484c0.1804,3.4939,0.4614,6.6452,0.4818,9.7982c0.0461,7.0994-0.3767,14.1276-2.9859,20.8879
		c-0.3731,0.9667,0.3821,2.5875,1.0065,3.6823c2.618,4.5907,3.3029,9.2695,1.6091,14.3789
		c-1.5378,4.6391-4.9122,7.0644-9.3842,7.5533c-3.3508,0.3664-6.8894-0.0208-10.2201-0.6906
		c-3.743-0.7528-5.688-3.7448-5.8831-7.7756c3.0532-0.9902,3.8361-0.5461,5.8019,3.2913c3.4686-1.4033,4.9868-6.8875,3.3366-11.9259
		c-4.0598,0.1815-8.1039,0.3622-12.1012,0.5409c-1.803,5.7666-3.2998,11.7604-5.5343,17.4653
		c-5.7807,14.7582-11.9999,29.3445-17.8149,44.0897c-2.8571,7.2448-5.2794,14.6654-7.767,22.0508
		c-3.4031,10.1034-8.199,19.5118-13.8408,28.5212c-2.3521,3.7562-4.5124,7.6412-7.0163,11.2918
		c-4.324,6.3043-10.0885,10.9743-16.9287,14.4012c-2.6628,1.3341-5.045,3.2247-7.6967,4.5854
		c-6.1084,3.1344-12.2948,6.1178-18.466,9.1286c-7.0748,3.4516-14.156,6.8904-21.2562,10.2894
		c-5.2787,2.5271-10.6186,4.9274-15.8845,7.4804c-10.7066,5.1908-21.9411,8.4664-33.7963,9.6155
		c-5.3066,0.5143-10.5957,1.2163-15.9054,1.6909c-7.7827,0.6959-15.2987-1.4615-22.9412-2.2897
		c-11.3456-1.2295-21.7942-5.1276-31.9329-10.1406c-10.1979-5.0422-20.4636-9.9479-30.7175-14.876
		c-7.6486-3.676-15.4969-6.9777-22.944-11.0211c-7.9953-4.3411-16.2068-8.6169-22.1923-15.7589
		c-2.7748-3.3111-5.1346-7.0409-7.2404-10.8269c-4.3509-7.8227-8.7702-15.6446-12.4688-23.7816
		c-3.0627-6.7381-4.9735-13.9898-7.6779-20.9031c-3.9921-10.205-8.4252-20.2395-12.3246-30.4783
		c-4.9929-13.1101-11.0595-25.8571-13.8975-39.7245c-2.3735-11.5978-2.4661-23.2413-0.8387-34.9434
		c0.9127-6.5629,1.4564-13.1815,2.5189-19.7176c0.6657-4.0949,1.9099-8.1057,3.0862-12.0978
		c0.2046-0.6942,1.5073-1.6725,2.0525-1.5341c1.1915,0.3026,2.4109,1.066,3.2469,1.981c0.4938,0.5405,0.3779,1.7321,0.364,2.6282
		c-0.2005,12.8847-0.5575,25.7685-0.6029,38.6534c-0.0253,7.1577,0.1124,14.3504,0.7955,21.4679
		c0.9349,9.7426,4.4126,18.8735,8.062,27.8742c5.549,13.686,11.4994,27.2122,16.8798,40.9626
		c4.7863,12.2321,8.8736,24.7362,13.5591,37.0097c4.1664,10.9136,10.631,20.3922,19.7424,27.7776
		c3.3321,2.7008,7.3885,4.5087,11.118,6.718c0.3096,0.1834,0.6871,0.2686,0.9655,0.486c7.7341,6.0411,17.2122,8.7659,25.6795,13.443
		c9.9533,5.4979,20.4014,10.0995,30.6303,15.0992c11.7334,5.7352,24.3206,8.0826,37.1571,9.6317
		c11.5734,1.3967,22.7632-0.7852,34.0358-2.816c9.3456-1.6837,17.6076-5.8764,25.9467-10.0564
		c4.2786-2.1447,8.7737-3.8574,13.1706-5.7661c0.3321-0.1442,0.6727-0.2737,0.9904-0.4453
		c5.5677-3.0076,11.076-6.1323,16.7169-8.9956c4.1092-2.0858,8.3917-3.8304,12.5995-5.7214
		c0.4926-0.2214,1.0419-0.3406,1.4966-0.6189c5.6274-3.4444,11.509-6.5527,16.7714-10.488
		c3.852-2.8806,7.183-6.6157,10.2239-10.3905c6.5648-8.1494,10.2652-17.7451,13.7563-27.5495
		c5.5286-15.5262,11.7434-30.81,17.766-46.1579c4.2697-10.8806,8.9478-21.6066,12.9953-32.5672
		c4.5923-12.4355,5.6252-25.4224,5.084-38.6207c-0.3271-7.9773-0.0151-15.9788-0.1308-23.9674
		c-0.0762-5.2596-0.3389-10.5198-0.6874-15.7684c-0.0505-0.7606-0.9088-1.6705-1.6328-2.1492
		c-3.6345-2.4034-7.3325-4.7124-11.0388-7.0051c-4.696-2.9048-8.0498-6.9592-10.5613-11.8312
		c-6.0889-11.8118-8.3645-24.5011-8.6623-37.6197c-0.2861-12.6084-4.0714-23.9923-12.2169-33.6038
		c-2.8107-3.3165-6.6609-5.8452-10.3018-8.3472c-10.0974-6.9389-20.4694-13.4857-30.4358-20.6034
		c-3.0599-2.1853-5.9442-5.3437-7.5312-8.7066c-2.9443-6.2392-6.6596-12.3581-6.7465-19.6482
		c-0.0076-0.6333-0.471-1.4074-0.9585-1.8649c-3.0325-2.846-5.8938-5.9526-9.2502-8.3622
		c-16.3076-11.7075-34.4714-19.5942-54.0231-23.6281c-22.1241-4.5646-43.8353-2.5242-64.8772,6.3963
		c-12.1366,5.1452-23.4484,11.4979-33.8026,19.5896c-5.0731,3.9646-10.0678,8.0342-15.0003,12.1727
		c-7.8604,6.5951-14.1483,14.6337-19.8794,23.0242c-7.8787,11.5347-15.5016,23.2609-22.8,35.171
		c-8.3617,13.6454-14.0491,28.4431-17.4774,44.1003c-2.1339,9.7451-4.3853,19.4645-6.5931,29.1933
		c-0.2808,1.2376-0.6431,2.4568-0.9218,3.6949c-0.5812,2.5815-2.5608,2.4623-4.5042,2.3167
		c-2.0403-0.1529-2.3494-1.5417-2.3247-3.2782c0.0978-6.87-0.7151-13.8741,0.3453-20.586
		c2.8885-18.2831,8.3546-35.7342,17.5317-52.0687c8.1204-14.4536,17.4369-28.0663,26.9396-41.5672
		c8.7706-12.4607,19.2799-23.2606,31.699-32.3154c9.6556-7.0399,19.5557-13.5575,30.3489-18.6232
		c28.0625-13.171,57.426-17.118,87.6363-10.0394c20.0064,4.6877,38.7381,12.9528,55.1216,25.77
		c4.0491,3.1677,7.3175,6.9295,8.2647,12.3255c0.3521,2.0063,1.3831,3.9301,2.3055,5.7919
		c1.8927,3.8206,3.6355,7.7637,5.9814,11.2968c1.9677,2.9634,4.2872,6.0338,7.1751,7.9848
		c10.5978,7.16,21.3959,14.0393,32.3082,20.7142c15.2952,9.3559,22.7566,23.4019,24.1392,40.7149
		c1.0329,12.9355,2.2605,25.6611,8.1131,37.5147c2.7651,5.6002,6.4742,10.073,11.8454,13.4791
		c6.538,4.1459,13.1802,7.8978,20.3807,10.8174c8.0303,3.256,15.272,7.9916,21.8576,13.6624
		c7.8085,6.7239,12.0576,15.5417,14.6348,25.2826c0.2576,0.974-0.3248,2.1703-0.5173,3.2635
		c-1.6283-0.5031-3.2677-0.9749-4.8725-1.5443c-0.2307-0.0818-0.321-0.6252-0.4318-0.9694
		C533.0158,350.0587,529.8948,344.8182,525.1003,340.0484z M517.9722,366.4919c-0.792-1.1386-1.1796-1.7165-1.5881-2.2794
		c-1.6433-2.2644-2.3945-4.4948-1.7119-7.524c1.8213-8.0816,2.4108-16.2898,1.3076-24.5865
		c-0.2497-1.8782-0.9517-3.0922-2.2875-4.3411c-5.815-5.4368-13.3162-6.9536-20.4533-9.1727
		c2.6941,18.7013,6.6158,37.2467,3.92,56.9817c3.5652-0.8238,6.5421-1.5116,9.9822-2.3065
		c-1.5111-2.6543-2.6481-4.6517-3.7664-6.616C506.8672,363.6665,510.1236,363.5856,517.9722,366.4919z M512.9106,391.7295
		c0.2589,0.238,0.5177,0.476,0.7766,0.714c1.4008-1.2688,3.149-2.3126,4.142-3.8456c4.1339-6.3815,1.9772-16.637-4.2217-20.9981
		c-1.6448-1.1572-3.3023-1.2179-5.327,0.1373c3.6756,2.9305,5.1358,7.0302,6.2646,11.1447
		C515.7454,383.2566,515.4943,387.6892,512.9106,391.7295z"/>
	<path class="st0" d="M484.3372,113.2592c1.8127-1.2578,3.2505-1.3234,4.913,0.1324c5.846,5.1189,11.3105,10.5615,15.7258,17.0049
		c5.7397,8.3763,11.665,16.628,17.2849,25.0831c3.5165,5.2904,6.8457,10.7343,9.8508,16.3286
		c4.1912,7.8024,8.0276,15.7964,11.9636,23.7343c2.2722,4.5821,4.6294,9.1359,6.6151,13.843
		c3.4048,8.0713,6.5743,16.2427,9.7903,24.3927c1.4442,3.6599,2.8845,7.3293,4.1109,11.0652
		c2.2042,6.715,4.3619,13.4497,6.3209,20.2393c1.7838,6.1829,3.4323,12.4143,4.8553,18.6891
		c1.3626,6.0084,2.3685,12.098,3.5117,18.1556c0.7638,4.0468,1.6257,8.0813,2.2036,12.1554
		c0.662,4.6674,1.0769,9.3705,1.5646,14.0616c0.4332,4.1687,0.9423,8.3348,1.197,12.5155
		c0.3756,6.1674,0.6061,12.3452,0.8021,18.5217c0.1503,4.7386,0.2032,9.482,0.206,14.2233
		c0.0035,5.7213-0.0287,11.4443-0.1638,17.1637c-0.1078,4.5594-0.3056,9.1205-0.6192,13.6702
		c-0.5367,7.784-1.1524,15.5633-1.8193,23.3374c-0.3698,4.3102-0.7798,8.6249-1.4052,12.9035
		c-0.9315,6.3746-2.0353,12.725-3.1317,19.0744c-0.7159,4.1454-1.3526,8.3197-2.3742,12.3934
		c-1.5601,6.2212-3.2753,12.413-5.2064,18.5283c-1.3436,4.2547-2.8842,8.4939-4.8287,12.5013
		c-3.0366,6.2585-6.4751,12.3226-9.7768,18.451c-0.8079,1.4996-1.6125,3.0316-2.6461,4.3737
		c-5.6894,7.3881-11.1918,14.9439-17.2729,21.9987c-4.2823,4.968-9.2109,9.4288-14.171,13.7485
		c-4.5164,3.9333-9.3096,7.5996-14.2704,10.9554c-3.9942,2.7018-8.4038,4.796-12.6636,7.0959
		c-1.971,1.0641-3.9986,2.0329-6.0444,2.9468c-7.838,3.5013-15.6148,7.1612-23.5845,10.3351
		c-2.9073,1.1578-6.303,1.5557-9.4359,0.0394c-0.6039-0.2922-1.0676-0.8738-1.596-1.3219c0.5274-0.5392,0.9721-1.4133,1.5947-1.567
		c8.1104-2.0013,15.1447-6.374,22.4466-10.1318c6.5377-3.3645,13.2047-6.5671,19.3861-10.5125
		c7.9021-5.0438,15.1198-11.056,21.5249-17.9789c3.5989-3.8899,7.4949-7.5204,10.9061-11.564
		c3.2433-3.8446,6.2463-7.9354,8.9653-12.1683c3.8743-6.0315,7.571-12.1945,10.9994-18.4888
		c2.2163-4.0689,4.0109-8.4001,5.647-12.7445c2.2702-6.0281,4.47-12.1066,6.2218-18.2988
		c1.5601-5.514,2.5628-11.1942,3.6415-16.8336c1.228-6.4198,2.349-12.8629,3.3593-19.3205
		c0.6241-3.9898,1.0309-8.0186,1.4018-12.0421c0.7479-8.1151,1.4919-16.2325,2.0641-24.3611
		c0.3083-4.3795,0.2734-8.7839,0.366-13.1777c0.1229-5.8301,0.2389-11.6605,0.3203-17.4913
		c0.0586-4.2048,0.1343-8.4118,0.0622-12.6154c-0.1152-6.7028-0.2084-13.4112-0.5703-20.1031
		c-0.3339-6.1721-0.9161-12.3354-1.5608-18.4845c-0.6332-6.0387-1.2979-12.0852-2.288-18.0722
		c-1.0357-6.2632-2.4431-12.4662-3.7475-18.683c-1.2999-6.1945-2.5615-12.4008-4.053-18.5502
		c-1.0543-4.3469-2.404-8.6262-3.7319-12.9015c-1.3274-4.2735-2.7729-8.5107-4.2011-12.7522
		c-1.5103-4.4852-2.9534-8.9971-4.6198-13.4245c-2.4578-6.5302-4.9982-13.0328-7.6733-19.4766
		c-1.9217-4.6288-4.0834-9.1599-6.2058-13.703c-2.8074-6.0094-5.5953-12.0307-8.5549-17.9654
		c-2.1639-4.3391-4.5352-8.5785-6.9155-12.805c-2.7653-4.9099-5.5883-9.7891-8.4852-14.6224
		c-2.7688-4.6195-5.595-9.208-8.5236-13.7274c-3.0702-4.7378-6.1619-9.4725-9.4945-14.0254
		c-2.1642-2.9567-4.7808-5.5818-7.1833-8.3653C485.0007,114.2471,484.7244,113.7966,484.3372,113.2592z"/>
	<path class="st0" d="M75.485,390.6226c-1.5649,0.3218-2.3769-0.5981-3.0455-2.3004c-2.4193-6.1597-2.5691-12.5443-2.3134-19.0155
		c0.3476-8.7975,0.8985-17.5999,0.855-26.3978c-0.2582-52.2453,8.2223-103.2685,22.0878-153.4177
		c13.4424-48.6187,39.6626-89.4529,78.3704-121.8376c33.4865-28.0163,72.0892-45.0863,115.3199-51.8511
		c23.72-3.7118,47.3454-4.7362,70.9738,0.1013c35.3971,7.2469,65.8221,23.8279,91.5036,49.2046
		c4.8383,4.781,8.0551,10.4908,10.0269,16.9263c0.4697,1.5329,0.5811,3.2057,0.626,4.8206c0.0138,0.4932-0.783,1.4474-1.1405,1.416
		c-0.6313-0.0555-1.4848-0.5713-1.7592-1.1322c-0.7928-1.6204-1.3282-3.3653-1.9919-5.0505
		c-3.8455-9.7638-11.23-16.6823-19.1213-22.9992c-23.9177-19.1459-50.1824-33.5765-80.5977-39.6396
		c-22.069-4.3993-43.9909-3.4339-66.0737,0.1749c-45.8805,7.4978-85.4517,27.5149-119.1125,59.2829
		c-35.9858,33.9622-58.4512,75.7445-70.1456,123.5514c-7.1662,29.2955-12.928,58.8659-16.1637,88.8677
		c-2.4031,22.2822-4.4984,44.6003-6.458,66.9264C76.3908,368.8971,76.0913,379.5972,75.485,390.6226z"/>
	<path class="st0" d="M90.7587,344.8394c0.483,1.029,1.2881,2.0255,1.3956,3.0923c0.5984,5.939,1.4569,11.8973,1.4247,17.8446
		c-0.0652,12.0603-1.8916,23.9233-7.044,34.9364c-2.126,4.5444-5.2747,8.6329-8.1384,12.8051
		c-6.0601,8.8296-12.3898,17.4767-18.3393,26.3788c-16.2516,24.3172-24.2299,51.521-27.745,80.2755
		c-4.1062,33.5898,1.5353,65.8046,13.4207,97.1722c5.0184,13.2442,10.0641,26.4771,17.7183,38.504
		c0.9191,1.4441,0.4947,2.2212-0.9745,2.5749c-2.5341,0.6099-4.9902,0.5571-6.4733-2.0217
		c-4.6955-8.1641-9.6313-16.2106-13.9046-24.5929c-9.648-18.925-16.8393-38.7479-20.583-59.736
		c-5.2854-29.6315-2.5534-58.7183,5.6074-87.5105c6.2738-22.1344,17.9691-41.258,31.6039-59.4962
		c7.2678-9.7216,14.336-19.7315,20.2043-30.3259c7.627-13.7694,12.5816-28.5724,10.8006-44.8077
		c-0.1719-1.5665-0.023-3.1682-0.023-4.7536C90.0591,345.0658,90.4089,344.9526,90.7587,344.8394z"/>
	<path class="st0" d="M211.4094,294.8832c-1.7501-0.9653-3.5003-1.9307-5.2504-2.896c0.0842-0.3592,0.1684-0.7184,0.2525-1.0776
		c1.1534,0.1389,2.4575-0.0208,3.4328,0.4713c3.2633,1.6462,6.4215,2.1942,10.1835,1.5148
		c18.0994-3.2686,33.9105,1.5842,47.2923,14.2137c1.312,1.2382,2.5461,2.6195,3.535,4.1198
		c0.7686,1.1661,1.0987,2.6212,1.1819,4.3217c-7.0951-6.0314-14.3054-11.4789-23.914-13.818
		c-5.1172-1.6564-16.378-5.1073-28.7151-1.301c-5.5297,1.6163-10.9996,3.8431-15.7471,7.5828
		c-3.488,2.7475-6.9083,4.757-11.6548,2.6272c-1.8485-0.8295-4.3067-0.2218-6.4657-0.4621
		c-1.8181-0.2023-3.6051-0.6844-5.4059-1.0426c-0.0019-0.4067-0.0039-0.8134-0.0058-1.2202
		c1.2694-0.1208,2.5436-0.3773,3.8073-0.3329c2.3486,0.0824,4.6956,0.5092,7.034,0.4464c1.013-0.0272,2.0028-0.9133,3.644-1.7269
		c-3.6998-0.7147-6.4554-1.2469-9.2111-1.7792c0.0331-0.4727,0.0661-0.9454,0.0991-1.4181c1.2698,0,2.5429-0.0594,3.8086,0.0127
		c2.4308,0.1384,4.861,0.5079,7.284,0.4534c0.9171-0.0207,1.8137-0.9484,2.8327-1.5268c-3.5889-1.4339-6.8757-2.7469-10.1624-4.0601
		c0.0629-0.4308,0.1258-0.8615,0.1886-1.2923c1.2492,0,2.5709-0.2631,3.732,0.0568c2.1751,0.5993,4.2503,1.5551,6.3798,2.3276
		c2.2521,0.8169,4.2478,0.4283,5.9206-1.3394c-2.3406-2.1633-4.6677-4.3142-7.0599-6.5252
		c1.9002-1.6929,3.1685-1.1656,4.5309-0.1249c1.795,1.3712,3.6484,2.6825,5.5778,3.8529c0.7526,0.4565,1.7799,0.4602,2.682,0.6702
		C211.2809,295.3686,211.3452,295.1259,211.4094,294.8832z"/>
	<path class="st0" d="M420.5827,291.9497c-1.7515,0.9717-3.5031,1.9435-5.2546,2.9153c0.0302,0.213,0.0604,0.4259,0.0906,0.6389
		c0.9093-0.164,1.9573-0.0951,2.701-0.5375c1.9385-1.153,3.793-2.4658,5.5858-3.8392c1.3576-1.0399,2.6246-1.6095,4.5992,0.05
		c-2.3391,2.1792-4.6076,4.2926-7.0115,6.5323c1.2184,1.4275,2.8672,2.2477,4.9937,1.5627c2.3264-0.7495,4.5864-1.7152,6.931-2.3941
		c1.241-0.3593,2.6004-0.3095,4.0192,0.0514c-2.6349,3.0432-6.3238,3.6088-9.9976,4.8704
		c4.3559,4.2228,9.4864,0.1898,14.6618,1.4928c-2.914,2.8235-6.1493,1.8559-9.1288,3.4067
		c1.0585,0.4704,2.1061,1.3036,3.1778,1.3358c2.2473,0.0676,4.5047-0.34,6.7629-0.4462c1.2655-0.0595,2.5411,0.0933,3.8121,0.1504
		c0.0546,0.2961,0.1091,0.5922,0.1636,0.8882c-0.6505,0.338-1.2685,0.8545-1.9576,0.9795
		c-1.8698,0.3389-3.7742,0.4806-5.6563,0.7587c-2.2031,0.3257-4.4005,0.6924-6.594,1.0782
		c-3.3212,0.584-6.0579-0.6868-8.5043-2.7295c-4.5446-3.7948-9.8483-6.1123-15.3882-7.9325
		c-6.5695-2.1585-20.2822-4.1564-30.7059,0.5921c-4.0903,1.9944-8.3692,3.6846-12.2175,6.0695
		c-3.7836,2.345-7.1302,5.3951-10.6686,8.1357c-0.2901-0.1741-0.5803-0.3482-0.8705-0.5224
		c0.8302-1.6245,1.4066-3.4554,2.532-4.8401c7.1294-8.7724,16.5104-13.9735,27.3204-16.8052
		c8.0603-2.1114,16.1566-2.1039,24.2422-0.2245c3.0927,0.7189,5.6651-0.5249,8.3502-1.6492
		c1.1131-0.4661,2.3747-0.5777,3.5688-0.8504C420.2872,291.1082,420.4349,291.5289,420.5827,291.9497z"/>
	<path class="st0" d="M389.5616,156.5883c2.8482-1.4605,2.4134-3.3384,1.4653-4.8993c-2.2059-3.6316-4.7373-7.0646-6.977-10.6771
		c-0.7882-1.2712-1.1105-2.8313-1.6456-4.2595c1.7279-0.2996,3.696-1.2791,5.138-0.7695c4.0789,1.4414,8.0943,3.2274,11.8493,5.3763
		c4.0012,2.2897,7.6758,5.15,11.7878,7.9628c-7.188-15.0603-20.045-24.4149-32.5995-34.0498c0.191-0.3904,0.382-0.7809,0.573-1.1713
		c1.5597,0.2702,3.3492,0.1399,4.6393,0.88c5.58,3.2015,11.3185,6.2536,16.4328,10.1112
		c8.6904,6.555,16.9528,13.6774,25.3997,20.5555c0.7183,0.5849,1.4718,1.1265,2.209,1.6883
		c0.2332-0.1715,0.4663-0.3429,0.6995-0.5144c-0.6879-1.5052-1.2441-3.089-2.0868-4.502
		c-3.4864-5.846-7.0964-11.6183-10.586-17.4624c-1.8575-3.1107-3.7229-6.2359-5.2812-9.4995
		c-1.1286-2.3636-0.1947-3.9914,2.361-3.762c2.6169,0.235,5.3154,1.1145,7.6742,2.3111c3.6285,1.8406,6.9975,4.1929,10.4781,6.3314
		c0.0544-0.1628,0.1965-0.364,0.147-0.49c-1.7751-4.5138-0.1255-5.3888,4.2742-5.5128c2.5222-0.0711,3.8967-1.0099,4.6237-3.257
		c0.7246-2.2399,1.6552-4.4383,2.1143-6.7312c0.381-1.9025,1.5663-2.0047,2.9681-1.9869c1.6738,0.0212,2.3295,1.1167,1.9442,2.5454
		c-0.795,2.9483-1.5044,5.9922-2.8685,8.6828c-0.6448,1.272-2.6261,2.0772-4.1685,2.6211c-1.3929,0.4911-3.013,0.338-5.0798,0.5161
		c0.9697,2.1857,1.8219,4.1276,2.6914,6.0617c1.1947,2.6573,0.4647,3.9526-2.3961,3.5748
		c-1.8182-0.2402-3.6664-1.0433-5.2652-1.9917c-3.4138-2.0249-6.6743-4.3083-9.9975-6.4858c-0.174,0.1633-0.3481,0.3267-0.5221,0.49
		c1.7212,2.2244,3.4193,4.467,5.1679,6.6697c4.8181,6.069,9.3441,12.3218,11.5892,19.8677c0.6534,2.1959,2.3288,4.6426-0.481,6.6546
		c-3.3611,2.4068-6.2098,2.626-9.2249,0.1068c-5.2937-4.4228-10.3653-9.1105-15.5624-13.6501
		c-3.2008-2.7959-6.4619-5.5228-9.696-8.2807c-0.1721,0.1502-0.3442,0.3004-0.5163,0.4506
		c0.5812,0.6677,1.1404,1.3561,1.7471,1.9999c5.7663,6.1193,10.6229,12.8813,14.3324,20.4354
		c0.4021,0.819,0.3781,1.8472,0.5518,2.7783c-1.1236,0.1666-2.3396,0.6815-3.3482,0.4141
		c-1.3495-0.3578-2.6053-1.2253-3.7844-2.0427c-4.6245-3.2061-9.1861-6.5032-13.8102-9.7099
		c-1.2365-0.8574-2.6122-1.514-4.2973-1.8512c1.0721,1.4822,2.197,2.9297,3.1993,4.4577c0.7929,1.2088,1.5562,2.4655,2.116,3.7923
		c0.8405,1.9922,2.0093,4.2501-0.0882,6.0246C395.3257,158.1908,392.7947,157.9115,389.5616,156.5883z"/>
	<path class="st0" d="M310.7658,484.4846c-9.7346-0.3914-20.7278-4.5816-29.3188-14.1136
		c-5.7314-6.3593-7.881-13.9527-7.1987-22.3996c0.2453-3.037,1.1862-4.0951,4.2916-4.0512
		c3.526,0.0498,7.0633,0.4219,10.5649,0.8856c17.0015,2.2518,34.0679,1.607,51.1275,1.2329
		c3.4381-0.0754,6.8694-0.4268,10.3068-0.5847c2.3394-0.1076,4.5074,0.3609,4.4302,3.2995
		c-0.0673,2.5599-0.2275,5.2044-0.9424,7.6364c-0.7575,2.5769-2.1063,5.0071-3.3899,7.3976
		C343.3189,477.4163,326.3613,484.776,310.7658,484.4846z M282.9868,447.8949c0.8137,6.683,2.2516,12.7162,5.7441,17.9282
		c6.6148,9.8712,15.8185,16.1368,27.9175,14.6404c16.7778-2.075,27.8622-14.5508,30.5629-31.6327
		C325.9079,449.2503,304.6022,450.9261,282.9868,447.8949z"/>
	<path class="st0" d="M270.1039,268.3567c-0.0337,2.815-1.7474,4.0917-5.0566,3.4875c-7.5692-1.3818-15.148-2.735-22.6687-4.352
		c-11.4626-2.4645-22.8205-2.6729-34.1718,0.6216c-7.3155,2.1232-14.6964,4.0206-22.022,6.1104
		c-1.6321,0.4656-3.1077,1.5013-4.7461,1.9153c-0.9869,0.2494-2.149-0.1947-3.2323-0.3272
		c0.3002-1.0601,0.2877-2.4371,0.9698-3.1102c1.1898-1.1741,2.7069-2.1581,4.261-2.8c17.8995-7.393,36.5277-11.3307,55.9177-11.326
		c8.7372,0.0022,17.4055,0.8555,25.779,3.5742C268.8773,263.3656,270.1433,265.0605,270.1039,268.3567z"/>
	<path class="st0" d="M356.6119,268.378c-0.045-3.1414,1.0871-5.1566,4.4467-5.9879c5.6151-1.3893,11.3089-2.8469,17.0456-3.2887
		c20.1741-1.554,39.8374,1.0672,58.7244,8.5602c3.6653,1.4542,7.2406,3.1777,10.7069,5.0548
		c0.6817,0.3691,0.6707,2.0174,0.9792,3.0757c-0.9951,0.1765-2.0995,0.7256-2.9681,0.4708
		c-7.4594-2.1882-14.8682-4.548-22.3079-6.8046c-8.1088-2.4596-16.3539-4.5909-24.8739-3.809
		c-6.6532,0.6106-13.2283,2.0914-19.8315,3.2239c-5.7083,0.9791-11.3966,2.0793-17.1147,2.9948
		C358.2179,272.3806,356.6513,271.1295,356.6119,268.378z"/>
	<path class="st0" d="M327.7065,411.266c-1.543,0.4503-3.0901,1.3006-4.6283,1.2849c-8.8106-0.0899-16.8626-2.8846-24.3969-7.3207
		c-0.0774-0.0456-0.1504-0.1034-0.2139-0.167c-1.291-1.2927-3.351-2.3391-2.1129-4.649c0.6929-1.2926,4.081-1.3415,5.79-0.0066
		c6.6452,5.1906,14.3486,7.4541,22.5423,8.5162c0.9971,0.1292,1.934,0.7229,2.8987,1.1013
		C327.6259,410.4388,327.6662,410.8524,327.7065,411.266z"/>
	<path class="st0" d="M517.9722,366.4919c-7.8486-2.9063-11.1051-2.8254-14.5974,0.1554c1.1183,1.9644,2.2553,3.9617,3.7664,6.616
		c-3.4401,0.7949-6.417,1.4827-9.9822,2.3065c2.6957-19.735-1.226-38.2803-3.92-56.9817
		c7.1371,2.2191,14.6383,3.7359,20.4533,9.1727c1.3358,1.2489,2.0378,2.463,2.2875,4.3411
		c1.1031,8.2968,0.5137,16.505-1.3076,24.5865c-0.6827,3.0293,0.0685,5.2596,1.7119,7.524
		C516.7927,364.7754,517.1802,365.3534,517.9722,366.4919z"/>
	<path class="st0" d="M512.9106,391.7295c2.5837-4.0402,2.8348-8.4729,1.6346-12.8478c-1.1288-4.1145-2.589-8.2142-6.2646-11.1447
		c2.0247-1.3552,3.6822-1.2945,5.327-0.1373c6.1989,4.3611,8.3556,14.6166,4.2217,20.9981c-0.993,1.533-2.7412,2.5768-4.142,3.8456
		C513.4283,392.2054,513.1694,391.9674,512.9106,391.7295z"/>
	<path class="st0" d="M282.9868,447.8949c21.6154,3.0311,42.9211,1.3554,64.2245,0.9359
		c-2.7007,17.0819-13.7851,29.5577-30.5629,31.6327c-12.099,1.4964-21.3027-4.7693-27.9175-14.6404
		C285.2384,460.6111,283.8005,454.5779,282.9868,447.8949z"/>
</g>
</svg>
