<?xml version="1.0" encoding="utf-8"?>
<!-- Generator: Adobe Illustrator 24.3.0, SVG Export Plug-In . SVG Version: 6.00 Build 0)  -->
<svg version="1.1" id="Layer_1" xmlns="http://www.w3.org/2000/svg" xmlns:xlink="http://www.w3.org/1999/xlink" x="0px" y="0px"
	 viewBox="0 0 1144.5215 1050.521" style="enable-background:new 0 0 1144.5215 1050.521;" xml:space="preserve">
<style type="text/css">
	.st0{fill:#FFFFFF;}
</style>
<g>
	<path class="st0" d="M11.5555,657.6592c0.7025-1.3872,1.7764-2.7045,2.0526-4.1719c5.6772-30.1607,15.8404-58.8569,28.3945-86.7478
		c9.0196-20.0387,17.8153-40.1553,25.0319-60.9328c1.3069-3.7626,2.8671-7.4647,4.6367-11.0327
		c2.6996-5.4429,11.4439-7.4924,16.5133-4.1555c2.0015,1.3175,2.2437,3.2763,2.0898,5.268
		c-0.5591,7.2312-0.9411,14.4973-1.97,21.6669c-2.693,18.7644-8.4618,36.7544-14.2065,54.7518
		c-7.6737,24.0403-15.1811,48.141-19.517,73.072c-2.7744,15.9529-4.6605,31.9971-3.7435,48.2388
		c0.2233,3.9556,0.7551,7.8939,1.1543,11.9336c4.0704,0.5214,7.1122-1.1523,10.1277-2.6974
		c9.192-4.71,16.455-11.8516,23.6524-19.0499c21.747-21.7499,35.3889-47.6843,39.8105-78.2093
		c3.1232-21.5609,2.0649-43.0918-1.1526-64.5862c-4.395-29.3602-14.6321-56.8557-26.1861-83.98
		c-12.0929-28.3896-24.2829-56.7451-35.8329-85.3567c-9.2412-22.8921-13.2128-46.8595-10.4619-71.5337
		c4.3752-39.2435,19.5157-73.424,48.8406-100.6277c25.7294-23.8683,56.2893-38.8508,89.6974-48.4824
		c23.9425-6.9026,48.2142-12.1248,73.1624-13.7964c20.2272-1.3553,40.2926-0.3188,60.1519,3.7852
		c4.0625,0.8395,8.0497,2.2098,11.9265,3.7103c1.8559,0.7184,3.3727,2.3131,5.2292,3.6445
		c-3.2773,4.2562-7.1065,3.6189-10.8505,3.2326c-9.0111-0.9298-18.0026-2.4352-27.0331-2.7189
		c-25.707-0.8075-50.4948,4.6094-74.8938,12.1449c-17.7227,5.4735-35.1326,11.7157-51.0715,21.4322
		c-16.5523,10.0905-31.4226,22.1608-43.8005,37.1939c-14.7842,17.9556-23.0827,38.7967-28.0708,61.2771
		c-7.4642,33.6397-3.6708,65.9393,10.044,97.4207c10.4389,23.962,20.4046,48.1339,30.3138,72.3218
		c9.0969,22.205,16.7355,44.894,21.2813,68.533c5.0396,26.2065,6.808,52.5707,3.7256,79.1435
		c-3.5478,30.5845-15.757,57.2391-37.0288,79.5343c-6.753,7.0779-13.842,13.9273-21.3912,20.1343
		c-16.2534,13.3637-34.4611,22.1451-56.2135,21.1237c2.1228,20.1359,39.4367,56.4288,64.1557,62.4918
		c0.0963-0.6817,0.4122-1.397,0.2483-1.9767c-6.0267-21.3077-1.8976-41.542,7.4374-60.792
		c6.1629-12.7087,13.6092-24.8111,20.7891-37.0034c3.4603-5.8759,12.9175-7.64,18.8757-4.1439
		c1.9726,1.1575,2.8175,2.8887,2.5005,5.0209c-0.6387,4.2962-1.2102,8.6302-2.278,12.8295
		c-2.9501,11.6024-6.5925,23.0448-9.1459,34.7286c-5.8411,26.7271,0.7454,50.2609,18.9974,70.6995
		c10.1581,11.3752,20.0484,22.9999,29.7647,34.7559c8.1154,9.8192,14.9422,20.5048,20.3403,32.1173
		c11.3601,24.4376,11.3675,49.1202,2.1676,74.1196c-4.6837,12.7272-11.6255,24.2013-19.6749,35.0142
		c-12.2578,16.4659-24.9563,32.5851-39.2116,47.3977c-3.0135,3.1313-6.1685,6.202-9.623,8.8191
		c-9.9557,7.5425-21.1819,8.8928-33.0913,6.0338c-1.4005-0.3363-2.7877-0.8572-4.0787-1.4984
		c-5.614-2.7886-5.8211-5.5833-1.7804-10.4456c7.19-8.6524,14.3247-17.3835,20.9229-26.4874
		c9.9032-13.6639,19.5871-27.5041,28.868-41.5961c7.8565-11.9292,12.905-25.1359,15.6573-39.2143
		c3.8683-19.7868,0.3306-38.4248-9.3974-55.7372c-5.1315-9.1321-11.271-17.7895-17.71-26.0745
		c-11.344-14.5963-24.4959-27.7651-33.8354-43.0734c-6.894,0.1221-13.217,0.6067-19.4929,0.2538
		c-8.4113-0.4728-16.3958-3.079-24.0568-6.5147c-20.3345-9.1194-38.0082-21.9043-52.6474-38.759
		c-7.5921-8.7411-13.1715-18.6479-16.7606-29.6832c-0.4576-1.4069-1.5531-2.6063-2.353-3.9019
		C11.5555,696.9016,11.5555,677.2803,11.5555,657.6592z"/>
	<path class="st0" d="M777.6636,409.625c0-5.5113,0.0286-9.7748-0.0076-14.0378c-0.0417-4.9048-0.165-9.8091-0.2076-14.7139
		c-0.0391-4.5087,1.0316-5.8599,5.4102-6.513c1.7804-0.2655,3.6302-0.2732,5.4319-0.1512c5.706,0.3867,7.3141,1.8091,7.983,7.5567
		c1.8683,16.0531,3.6487,32.1168,5.3882,48.1845c1.0749,9.9295,2.1386,19.8638,2.9377,29.8176
		c0.2628,3.2726,1.4758,5.8294,3.4078,8.3483c8.9521,11.6716,18.1714,23.1618,26.6205,35.1908
		c17.2933,24.6202,30.4424,51.153,35.2434,81.2438c3.8432,24.0878,3.7532,48.1528-1.1441,72.0685
		c-2.3276,11.3664-5.1313,22.6559-8.2463,33.8334c-2.201,7.8976-5.7739,15.2967-11.299,21.551
		c-5.0992,5.7723-15.3337,5.9875-20.8365,0.4744c-0.0023-0.3574-0.1347-0.7881,0.0167-1.0618
		c7.9048-14.2899,10.7731-30.0159,12.6374-45.9166c5.3469-45.6047-4.5707-88.4131-24.3965-129.2966
		c-2.82-5.8152-5.9834-11.4641-9.5595-17.0907c-3.619,70.085-13.4531,138.7312-41.2095,203.9332
		c13.923,6.6089,17.5156,18.4552,18.1808,31.7222c0.3999,7.9766,0.0451,15.9889,0.3408,23.9736
		c0.2349,6.3421,0.7146,12.6946,1.4902,18.9927c1.3841,11.2396,6.0942,21.2909,12.2801,30.5791
		c4.9235,7.3929,10.4652,14.3749,15.7651,21.5151c0.5045,0.6796,1.241,1.1869,2.4236,2.2914
		c0.7084-2.5517,1.4426-4.5263,1.7937-6.5668c2.5846-15.0234,5.0514-30.0671,7.6542-45.0873
		c0.6493-3.7472,1.5709-7.4548,2.5287-11.1387c0.9109-3.5029,3.332-5.6706,6.861-6.1826c2.8433-0.4125,5.7747-0.5583,8.6418-0.3907
		c5.2617,0.3074,9.0468,3.0566,10.3003,8.213c1.7079,7.0261,3.686,14.1155,4.212,21.2759
		c1.6332,22.2319-3.027,43.6774-9.0751,64.9283c-9.0038,31.6368-25.3959,59.257-45.4172,84.9713
		c-10.9968,14.1237-23.2917,26.9522-38.1457,37.05c-5.2253,3.5521-10.9314,6.4565-16.6138,9.2596
		c-5.7604,2.8415-11.9316,2.9409-18.0812,1.2316c-1.5431-0.4289-3.1024-1.1248-4.3962-2.0564
		c-2.519-1.8141-2.511-3.7344-0.2213-5.8188c0.3987-0.363,0.869-0.6574,1.3348-0.9354
		c17.5351-10.4676,30.656-25.4247,42.327-41.8094c19.6129-27.5344,33.1021-57.9286,41.921-90.4752
		c0.1781-0.6573,0.2177-1.3522,0.3827-2.426c-1.5071,0.1215-2.7267,0.1719-3.9335,0.3248
		c-9.4334,1.1946-18.1635-0.7308-25.6947-6.5652c-4.2842-3.319-8.2241-7.14-12.0051-11.0393
		c-7.9968-8.2466-14.7917-17.4374-20.5472-27.3881c-4.5404-7.8498-7.2591-16.2705-7.3174-25.3627
		c-0.0557-8.6869,0.2637-17.3762,0.4243-26.4047c-0.8268,1.1445-1.7167,2.1742-2.3859,3.3315
		c-24.7692,42.8354-54.5797,81.9014-88.9523,117.4044c-24.9607,25.7816-52.2298,48.9298-83.0793,67.5228
		c-17.3698,10.4689-35.8867,18.9129-55.8209,22.4042c-33.5284,5.8722-65.5743,1.9082-95.1888-17.0095
		c-18.6536-11.9159-37.8468-22.9926-56.2117-35.4049c-33.2494-22.4722-63.4496-48.5319-91.2755-77.3558
		c-11.8513-12.2762-23.3744-24.895-34.5692-37.7732c-14.4554-16.6292-26.7506-34.7778-37.205-54.2421
		c-11.5134-21.4359-16.7277-44.3816-18.0396-68.4161c-0.835-15.2968,0.7745-30.4721,2.3603-45.6589
		c1.5652-14.9899,3.0182-29.9987,4.1096-45.029c1.3415-18.4739,2.1027-36.9898,3.4193-55.4658
		c0.7091-9.9506,2.0296-19.8585,3.1378-29.7784c0.1802-1.6132,0.6364-3.2041,1.0595-4.78c1.4377-5.3542,3.4756-7.0585,8.6654-7.3353
		c5.2601-0.2805,8.1244,1.5298,9.9945,6.5344c5.1154,13.6895,7.8599,27.9016,9.6692,42.3731
		c3.2588,26.0644,3.1898,52.2137,2.0464,78.3578c-0.4827,11.038-2.3097,22.0209-3.6152,33.0183
		c-2.6519,22.3394-2.8245,44.5647,2.5765,66.5978c4.3263,17.6488,11.8632,33.9359,21.376,49.2726
		c14.7066,23.7104,32.8158,44.8038,51.4861,65.4257c33.4294,36.9238,70.5515,69.6301,111.794,97.5908
		c10.8199,7.3354,21.8332,14.39,32.8485,21.4314c8.2638,5.2825,17.5586,7.9585,27.1564,9.085
		c14.5977,1.7131,28.7886,0.2113,42.7694-5.1254c26.3171-10.0458,49.339-25.4506,71.1816-42.7182
		c49.5658-39.1841,89.9092-86.5653,122.6106-140.476c21.5981-35.6063,37.2405-73.8171,48.8109-113.8103
		c7.4927-25.8985,12.7449-52.1976,16.1198-78.8882c2.5964-20.5324,5.1253-41.0878,6.9571-61.6977
		c1.3816-15.5441,1.588-31.1916,2.3782-46.7901c0.1378-2.7192-0.8719-4.802-2.4531-6.9599
		c-6.7563-9.2213-13.5388-18.4349-19.9349-27.9059c-9.4238-13.9543-13.0583-29.733-14.0505-46.3439
		c-0.9958-16.6714,1.2473-32.9735,4.7736-49.1789c0.5402-2.4822,1.0002-4.9817,1.5114-7.4703
		c0.5718-2.784,2.2972-4.595,5.0287-5.0961c2.4699-0.4531,5.0558-0.8566,7.5251-0.6146c5.9979,0.5879,8.3552,2.7674,9.5031,8.6877
		c0.6531,3.3683,0.9178,6.8319,1.1085,10.2664c0.8143,14.6778,0.3528,29.4444,3.1324,43.9821
		c0.3408,1.7824,0.6896,3.5637,1.0748,5.3369C776.7556,407.5094,777.0068,407.9613,777.6636,409.625z"/>
	<path class="st0" d="M1052.7814,658.9571c0.2854,24.2184-3.2931,47.9159-7.3754,71.5565
		c-2.5968,15.0381-5.556,30.0206-10.5206,44.473c-2.2264,6.4814-5.3373,12.6846-8.4059,18.8348
		c-0.8915,1.7869-2.7842,3.5264-4.6317,4.3035c-7.0056,2.946-14.1979,2.7863-21.1986-0.1372
		c-3.8435-1.6052-4.5403-3.3082-3.3026-7.3328c7.0887-23.048,9.6871-46.9009,12.5895-70.6828
		c2.4445-20.0296,3.7152-40.1437,3.162-60.3472c-1.0921-39.8792-9.1237-78.1841-26.0629-114.4314
		c-8.9515-19.1549-20.5407-36.7485-32.6477-54.014c-22.7686-32.4697-48.134-62.8645-74.4854-92.4284
		c-21.9903-24.6713-44.5269-48.8548-66.7523-73.3173c-22.0022-24.2171-43.1248-49.1522-60.9769-76.6657
		c-13.1217-20.223-23.2172-41.9238-30.4147-64.9092c-6.1645-19.6866-5.5691-39.3193,1.1894-58.8785
		c1.6584-4.7998,3.8629-6.3175,9.3716-6.1933c5.1943,0.1171,8.0625,2.1926,9.1945,6.8469c0.7265,2.987,1.16,6.0738,1.4172,9.1417
		c1.5612,18.6225,5.3535,36.6846,14.0509,53.3773c7.1284,13.6812,14.1495,27.4633,22.1472,40.6365
		c14.9213,24.5771,32.308,47.4325,51.4973,68.8291c21.581,24.0636,43.6692,47.6714,65.3741,71.6248
		c37.5755,41.4677,74.4769,83.4849,105.8339,130.0326c17.9766,26.6854,32.6024,54.9055,41.2443,86.0557
		C1049.7769,609.4747,1052.9447,634.0541,1052.7814,658.9571z"/>
	<path class="st0" d="M598.4218,14.5144c34.5116,0.3094,67.3213,3.3835,99.2999,12.8511
		c46.3804,13.7314,87.3314,37.2184,123.5576,69.0693c14.8312,13.04,26.5234,28.8042,37.8541,44.8628
		c21.7811,30.8698,36.044,64.9219,44.0506,101.7715c3.6983,17.0207,7.5247,34.0495,13.9664,50.3258
		c11.7715,29.7429,29.3444,55.4067,53.7217,76.27c4.1805,3.5779,8.6301,6.6096,14.2946,7.4046
		c1.5843,0.2224,3.1363,0.9095,4.6177,1.574c2.207,0.9901,4.4056,2.3201,4.3126,5.0559c-0.0912,2.6843-2.2543,4.1119-4.5255,4.9235
		c-2.5405,0.9079-5.1862,1.8414-7.8425,2.0519c-14.1261,1.1196-27.4852-1.4722-39.658-9.0158
		c-14.6776-9.0959-26.6926-21.2063-38.0048-34.0481c-23.1534-26.2842-37.2862-56.8645-43.3747-91.3058
		c-2.0215-11.436-4.306-22.8416-6.9632-34.1452c-4.2184-17.9451-11.0354-34.9217-19.8989-51.1059
		c-9.5301-17.4014-20.2717-34.011-32.3954-49.691c-15.7359-20.3519-35.1848-36.5702-56.9164-50.1761
		c-24.6419-15.428-50.8068-27.3073-79.1196-34.2327c-17.351-4.2441-35.0051-6.3642-52.8121-7.1143
		c-29.8679-1.258-59.5148,0.8973-88.9241,6.3061c-12.3541,2.2721-23.4364,7.326-33.7814,14.4188
		c-8.0744,5.536-16.5327,10.5185-24.8957,15.6237c-3.4867,2.1285-7.3305,3.1553-11.4789,2.3738
		c-6.4391-1.213-7.8584-4.8808-3.8286-9.9404c0.6764-0.8492,1.4513-1.6255,2.225-2.3906
		c18.0411-17.8406,39.175-29.6144,64.4149-34.0684C543.9419,17.2877,571.734,14.8316,598.4218,14.5144z"/>
	<path class="st0" d="M687.2117,365.5495c-5.2476,0.0717-9.1832-1.9445-13.3987-3.7297
		c-7.1343-3.0212-14.7052-5.2494-22.2904-6.9047c-8.8409-1.9294-17.8532-3.573-26.8644-4.1088
		c-14.9849-0.891-29.7175,1.2007-43.7636,6.8683c-3.6225,1.4616-7.2801,2.5341-11.1049,1.3889
		c-1.5943-0.4773-3.7913-1.5436-4.1451-2.7883c-0.3169-1.115,1.1769-3.4264,2.4725-4.1891
		c3.7284-2.1945,7.6191-4.2912,11.7015-5.6702c9.8432-3.3251,20.0738-4.9861,30.4146-5.8296
		c23.346-1.9042,45.9819,1.6162,68.0757,9.1251c2.0446,0.6949,4.1008,1.3557,6.8433,2.2604
		c-0.3973-2.9729-0.5815-5.4429-1.0711-7.8507c-6.1486-30.2329-12.0139-60.5291-18.665-90.6515
		c-3.1809-14.4066-9.1003-27.9346-17.3771-40.313c-10.9425-16.3653-25.4644-29.0251-42.4766-38.3648
		c-25.2323-13.8523-52.511-21.0966-81.4472-20.5423c-17.3278,0.332-33.6643,4.8598-48.6524,13.9398
		c-12.0813,7.319-21.8253,16.7148-28.3932,29.3582c-4.2755,8.2303-10.4207,10.833-19.4803,8.8052
		c-4.8897-1.0945-5.9523-2.9057-4.4642-7.7746c4.5735-14.9641,14.5284-25.7613,26.9998-34.5204
		c17.6873-12.4224,37.6816-18.605,58.9279-20.8187c40.0337-4.171,78.2491,3.3137,114.4032,20.3092
		c24.8325,11.6734,45.9714,28.4336,61.1071,51.8701c9.3774,14.5202,15.0574,30.5884,19.1078,47.2491
		c8.5444,35.1459,15.2512,70.6203,18.6865,106.6728c1.8669,19.5919,5.3542,38.8795,12.8021,57.2076
		c2.6536,6.5303,5.9169,12.8422,9.3024,19.0348c2.1334,3.9023,5.3918,6.7859,10.1844,7.4436
		c1.3778,0.189,2.7618,0.9449,3.9585,1.7244c3.2599,2.1234,3.2484,4.9494-0.3383,6.559c-2.7447,1.2318-5.8939,2.09-8.8846,2.1573
		c-16.0469,0.3612-29.0188-5.3088-37.494-19.6562c-9.8029-16.5953-16.1768-34.4684-20.1188-53.245
		C690.0588,382.4178,688.7704,374.1809,687.2117,365.5495z"/>
	<path class="st0" d="M961.6326,675.0819c-1.1089,0.8644-2.1749,2.1857-3.5366,2.6628c-3.8188,1.3384-6.4111,4.0549-8.7437,7.0942
		c-14.6634,19.1061-21.443,40.7865-19.3889,64.7104c1.2704,14.7954,4.2089,29.4459,6.3506,44.1684
		c3.741,25.7159,6.627,51.4634,5.23,77.5587c-1.5026,28.0706-10.5877,53.583-24.8947,77.4679
		c-5.6198,9.3821-11.9053,18.2883-20.3221,25.4018c-15.7676,13.3262-33.735,16.8443-53.5092,11.366
		c-2.2147-0.6137-4.421-1.7618-6.2455-3.1639c-2.7645-2.1246-2.6911-4.7192,0.1483-6.7314
		c1.7318-1.2275,3.8354-2.0838,5.8974-2.6511c2.254-0.6202,4.7349-1.2658,6.9722-0.9318c5.8752,0.8771,9.5549-2.2385,13.0965-6.1101
		c9.8484-10.7659,16.1674-23.6098,21.7096-36.8858c10.4744-25.0905,14.4371-51.373,12.6876-78.3472
		c-1.6206-24.9857-4.2443-49.9083-6.5649-74.8458c-1.8558-19.9413-1.2684-39.5309,6.9339-58.2738
		c6.9115-15.7933,17.0561-29.074,30.6683-39.6194c7.7809-6.028,16.6422-8.7438,26.5417-7.3439
		C957.3735,670.9913,960.086,671.5114,961.6326,675.0819z"/>
	<path class="st0" d="M1127.9128,593.189c0.0007,14.1598-0.0337,28.3196,0.0114,42.4791c0.0389,12.245-5.0916,22.0529-14.04,30.0623
		c-1.0562,0.9454-2.3651,1.7493-3.6978,2.2212c-7.0894,2.5103-14.2623,2.5701-21.317-0.032
		c-5.5845-2.0596-5.9395-4.1056-3.2865-9.3239c2.0303-3.9934,3.8796-8.3005,4.66-12.6732
		c7.0581-39.5486,4.2681-78.4357-8.6615-116.5104c-8.3916-24.7111-24.9132-43.0918-45.7675-57.9957
		c-11.2133-8.0138-23.0279-15.2609-32.9199-24.9737c-5.164-5.0704-10.126-10.3996-14.7004-16.0029
		c-4.7917-5.8696-7.2347-12.9598-8.4991-20.3933c-0.8345-4.9056,0.3625-6.5869,5.1247-7.899
		c7.2586-1.9999,12.7144-0.1462,16.725,6.3906c6.7623,11.0218,15.4982,20.1248,26.0643,27.4309
		c11.6324,8.0433,23.3766,15.9333,35.2319,23.6443c19.2144,12.4975,36.3719,27.128,48.844,46.6199
		c6.8881,10.7649,11.8408,22.4663,15.2174,34.7825c0.8013,2.9225,0.9471,6.0916,0.9677,9.15
		C1127.9652,564.5062,1127.912,578.8478,1127.9128,593.189z"/>
	<path class="st0" d="M257.5104,368.2563c40.377-13.3985,79.8942-12.026,119.1492,1.4888c2.8053,0.9658,5.9516,1.6817,7.8053,4.7188
		c-1.2275,2.756-3.6387,3.0671-5.9294,2.8675c-3.2322-0.2817-6.4635-0.8646-9.6255-1.6134
		c-18.6364-4.4132-37.4605-7.0894-56.6559-5.8563c-13.2602,0.8518-26.2837,3.2951-39.03,7.0338
		c-2.7129,0.7957-5.1349,2.546-7.7469,3.7332c-2.595,1.1794-5.2607,2.2033-8.2438,3.4399c-0.0275,0.0822-0.3264,0.577-0.3408,1.08
		c-0.1772,6.1878-1.4104,7.8794-7.3338,9.5356c-6.0834,1.7008-12.2018,1.6966-18.2862-0.0272
		c-4.129-1.1697-6.7661-3.4821-7.7925-8.0527c-2.5444-11.3303-2.8436-22.7417-1.3481-34.1209
		c3.4554-26.2929,10.0668-51.8289,23.3553-74.9214c16.3407-28.3967,39.4712-49.7253,70.6987-60.9253
		c20.3773-7.3085,41.2193-8.0038,61.8847-0.5331c3.0285,1.0948,5.861,2.8511,8.593,4.6c1.4807,0.9478,2.7545,2.3885,3.7764,3.8486
		c2.2325,3.1899,2.2101,6.8153,0.2015,8.4477c-2.6365,2.1427-8.5986,1.9691-10.459-0.9415
		c-5.1808-8.1056-13.4565-8.6733-21.5868-9.1314c-8.0995-0.4564-15.7816,1.6676-23.0107,5.5089
		c-12.7314,6.7649-22.8979,16.4667-32.263,27.2329c-18.2691,21.0024-29.348,45.6955-37.0549,72.0624
		c-3.1001,10.6063-5.3783,21.4565-7.8907,32.2284C257.8147,362.3671,257.8402,364.9118,257.5104,368.2563z"/>
	<path class="st0" d="M219.1763,205.1001c6.3033-0.1352,12.2188,0.5832,17.6888,3.3883c2.4116,1.2367,5.0962,2.5215,4.836,5.876
		c-0.1571,2.0246-3.5658,3.3555-7.4976,2.8382c-1.9335-0.2544-3.8428-0.991-5.6618-1.7514
		c-3.0854-1.2898-6.0205-1.2202-8.8316,0.583c-11.6788,7.4918-22.6969,15.8919-30.699,27.3423
		c-8.0932,11.5807-10.4403,24.6621-6.6796,38.4163c1.6186,5.9197,3.7626,11.77,6.3428,17.339
		c8.7195,18.8196,14.2765,38.4062,15.2385,59.1855c0.8165,17.6352-3.0238,34.3228-11.2861,49.8401
		c-8.1273,15.2637-26.5042,20.9129-42.1884,13.4763c-0.492-0.2333-1.0992-0.3573-1.4524-0.7248
		c-1.0816-1.1254-3.0655-2.5737-2.859-3.4751c0.3311-1.4453,1.9245-2.9967,3.3737-3.6923c1.8979-0.911,4.223-1.571,6.2778-1.3846
		c4.49,0.4072,6.5428-1.9716,8.0772-5.6039c6.0642-14.3555,8.429-29.234,6.3572-44.7241
		c-2.6654-19.9289-8.2722-38.9832-16.8376-57.203c-2.847-6.056-5.6771-12.2589-7.3637-18.6963
		c-5.5252-21.0893,0.3729-39.1819,16.1718-53.8457c10.1574-9.4276,21.8455-16.8167,34.5042-22.5295
		C203.8833,206.507,211.4675,204.8142,219.1763,205.1001z"/>
	<path class="st0" d="M601.58,486.6152c-4.8571,3.5068-9.6672,7.0824-14.5988,10.4816c-5.8834,4.0554-12.3379,3.9709-18.7707,1.7751
		c-4.4919-1.5334-5.4149-4.7412-2.3316-8.4559c7.8849-9.4995,16.9395-17.4622,29.3698-20.5377
		c11.6513-2.8828,23.3792-5.1841,35.451-5.2883c3.9886-0.0345,7.9745-0.3678,11.9618-0.5609
		c6.0112-0.291,11.2549-2.5612,16.032-6.1155c1.5978-1.1888,3.2068-2.4942,5.0205-3.2271c2.1377-0.8639,4.5038-1.6156,6.7697-1.6123
		c4.302,0.0063,5.4677,2.1593,3.6458,5.9582c-2.4689,5.1481-6.5231,8.7231-11.6356,10.9938
		c-3.6285,1.6116-7.4632,2.7587-11.5591,4.2409c0.5861,0.3162,1.1051,0.8461,1.6055,0.829
		c9.1749-0.3136,18.0966-1.8996,26.1528-6.5025c2.9249-1.6711,5.4933-4.0639,7.966-6.4009
		c2.2911-2.1653,5.0416-2.8838,7.2075-1.3334c1.9995,1.4313,2.4606,4.0303,1.0515,6.8916c-2.0179,4.0973-5.606,6.6068-9.4006,8.8087
		c-7.9995,4.6417-16.7893,6.7812-25.8817,7.76c-4.1451,0.4462-8.3314,0.5035-12.4969,0.7682
		C629.9033,484.1693,611.3602,480.9001,601.58,486.6152z"/>
	<path class="st0" d="M311.6713,498.4547c-10.3141-2.1938-20.4871-4.024-30.4611-6.6191c-5.017-1.3054-9.7482-3.8459-14.4491-6.1531
		c-1.5649-0.768-2.633-2.5485-4.1033-4.0443c3.2776-3.1669,6.5031-2.9364,9.705-2.1894c4.0615,0.9475,8.0509,2.201,12.1027,3.1948
		c2.2235,0.5454,4.5115,0.8282,7.6208,1.3806c-4.7713-8.6848-11.0412-14.389-18.9148-18.4344
		c0.5839-3.1031,3.0505-3.6314,4.975-3.6191c3.7515,0.0239,7.8249-0.0232,11.1772,1.3717
		c6.3219,2.6306,13.1075,5.2639,18.122,9.6861c10.2906,9.0752,22.4249,11.4747,35.2293,12.3254
		c10.3246,0.6859,20.7085,0.5129,31.0241,1.2835c4.6041,0.3439,9.2724,1.6359,13.5968,3.3106
		c3.101,1.201,6.2734,3.3928,5.7812,7.6674c-0.2913,2.5294-3.79,4.3594-8.6663,3.9254c-2.9505-0.2626-5.8037-1.6575-8.6914-2.5732
		c-1.6799-0.5327-3.3583-1.6559-5.0081-1.6028c-11.4044,0.3669-22.8012,0.9735-34.4461,1.5146
		C326.1176,499.0626,326.2993,500.6064,311.6713,498.4547z"/>
	<path class="st0" d="M306.15,902.5317c-0.448,14.5692-4.6026,28.2356-10.6492,41.3284
		c-9.0522,19.6008-20.9878,37.2502-36.5428,52.353c-9.7288,9.4459-21.162,15.2677-34.7987,15.9784
		c-3.4986,0.1823-7.2466-0.5155-10.5553-1.709c-3.2006-1.1546-3.1636-3.8749-0.2555-5.6683
		c1.3558-0.8361,2.9668-1.3911,4.5362-1.7245c5.5194-1.1724,9.9863-4.1251,14.0859-7.8334
		c8.1264-7.3506,14.8967-15.8423,21.1023-24.8218c12.5779-18.2,22.2409-37.7919,28.2078-59.1417
		c2.5555-9.1437,4.0804-18.4416,3.1275-27.9519c-0.3126-3.1197,1.0898-4.2482,3.6918-4.9174
		c5.6445-1.4518,11.4152,0.9725,14.3305,6.1984C305.5359,890.1886,306.287,896.2667,306.15,902.5317z"/>
	<path class="st0" d="M129.8251,914.8442c-10.7423-0.0234-20.146-3.2589-27.7737-10.2289
		c-14.7628-13.4901-24.392-30.0934-27.7934-49.9394c-1.5905-9.2802,0.6662-18.023,5.3322-26.1545
		c2.2128-3.8563,5.5177-5.5369,9.9576-5.2667c4.8323,0.294,5.817,1.3739,6.1792,6.2435c0.4837,6.5026,0.6117,13.1166,1.9647,19.4537
		c3.7411,17.5229,11.8264,33.0483,23.219,46.8433c1.4936,1.8087,3.2898,3.3763,5.0112,4.9858
		c2.4818,2.3204,5.2412,3.3173,8.8504,3.163c3.3151-0.1418,6.8712,0.5955,9.9836,1.8104c3.0906,1.2064,3.0101,4.1166,0.0066,5.7033
		C140.0252,913.9604,134.8316,914.8099,129.8251,914.8442z"/>
	<path class="st0" d="M275.6539,89.3909c1.3966-3.2904,4.4705-4.1327,7.3324-5.1339c11.4185-3.9947,23.1887-4.083,34.9884-2.6102
		c26.166,3.2659,50.1631,12.8642,72.9647,25.6975c8.694,4.8932,17.2478,10.0545,25.6688,15.4033
		c3.0106,1.9122,5.7681,4.4656,8.0547,7.2143c2.9012,3.4874,2.0949,6.1295-2.076,7.4447
		c-6.3557,2.0041-12.1668,1.4973-17.9284-2.8203c-6.6446-4.9791-13.8763-9.2547-21.1561-13.289
		c-15.3966-8.5326-30.9121-16.9368-47.5819-22.7522c-8.1919-2.8578-16.7134-4.8195-25.1602-6.8818
		c-6.7888-1.6576-13.6853-1.3201-20.5567-0.1333c-2.6771,0.4623-5.4036,0.8936-8.1056,0.8812
		C279.6633,92.3999,276.9011,92.4385,275.6539,89.3909z"/>
	<path class="st0" d="M486.6535,796.1551c-18.9683-0.6287-35.9234-2.3605-52.5096-6.6901c-4.7104-1.2295-9.2972-3.0792-13.75-5.0709
		c-1.6002-0.7158-3.4879-2.5494-3.7386-4.1142c-0.3872-2.4165,2.0963-3.6088,4.1347-4.416
		c5.5854-2.2118,11.3653-2.2744,17.1342-0.9435c32.3238,7.4565,64.6523,8.6141,97.0638,0.4797
		c2.5379-0.6369,5.4284-0.7087,7.989-0.2028c3.2249,0.637,3.8956,3.3316,1.4966,5.6505c-1.7899,1.7302-4.0065,3.1452-6.253,4.2552
		c-11.3642,5.6151-23.5275,8.467-36.0482,9.8547C496.4068,795.5967,490.5995,795.8596,486.6535,796.1551z"/>
	<path class="st0" d="M529.9037,90.0921c3.1122,0.8183,6.3917,1.262,9.2904,2.5579c3.0348,1.3567,2.9249,4.1217-0.0639,5.7018
		c-1.8962,1.0025-4.0356,1.6388-6.1367,2.1453c-16.5348,3.9862-32.0172,10.6115-46.6611,19.1123
		c-5.1269,2.9762-9.814,6.8346-14.3051,10.7458c-4.2189,3.6741-8.8224,4.9042-14.0998,3.8233
		c-4.4374-0.9088-6.0547-3.4491-4.2248-7.5155c1.4496-3.2214,3.4161-6.6415,6.102-8.7832
		c5.2058-4.151,10.8192-7.9677,16.7281-11.0252c14.3945-7.4484,29.4789-13.1321,45.6387-15.4935
		c2.509-0.3667,5.0437-0.5576,7.5665-0.8298C529.7932,90.3849,529.8484,90.2385,529.9037,90.0921z"/>
	<path class="st0" d="M438.1457,660.0226c6.3977-8.4034,7.3328-17.9357,8.338-27.4603c0.3778-3.5791,1.4415-4.6818,4.8995-5.4412
		c0.7035-0.1545,1.4276-0.2332,2.1467-0.2956c8.9213-0.7757,12.1061,2.2498,11.3231,11.092
		c-0.579,6.5382-2.1266,12.854-5.9283,18.3639c-4.4234,6.4108-11.4007,8.6119-18.0057,5.7506
		C440.1334,661.6916,439.4934,661.0148,438.1457,660.0226z"/>
</g>
</svg>
