<?xml version="1.0" encoding="utf-8"?>
<!-- Generator: Adobe Illustrator 24.3.0, SVG Export Plug-In . SVG Version: 6.00 Build 0)  -->
<svg version="1.1" id="Layer_1" xmlns="http://www.w3.org/2000/svg" xmlns:xlink="http://www.w3.org/1999/xlink" x="0px" y="0px"
	 viewBox="0 0 698.9695 902.3148" style="enable-background:new 0 0 698.9695 902.3148;" xml:space="preserve">
<style type="text/css">
	.st0{fill:#FFFFFF;}
</style>
<g>
	<path class="st0" d="M642.8166,545.8105c5.4332-1.2485,8.8171-4.1135,10.234-8.7596c4.241-13.9067,6.8713-28.1164,7.3907-42.6849
		c0.3237-9.0779,0.6966-18.1545,1.1469-27.2268c0.0772-1.5555,0.6541-3.0862,1.0284-4.7547
		c-2.567,0.2545-4.8566,0.7225-7.1303,0.6555c-4.3849-0.1291-5.1151-1.7681-3.0937-5.6146
		c4.0221-7.6541,6.6062-15.8199,8.0873-24.3259c2.1873-12.5609,4.2506-25.1436,6.4789-37.6972
		c3.8296-21.5739,4.4499-43.4311,6.1019-65.2092c1.9204-25.3145,0.8586-50.6212,0.7-75.9293
		c-0.0978-15.6028-0.8947-31.2007-1.3297-46.8022c-0.0984-3.5296,0.9763-4.8908,3.831-5.3183
		c2.3517-0.3522,5.0558,1.6432,5.4775,4.4114c0.9424,6.1875,1.9731,12.3818,2.4688,18.6131
		c1.3357,16.7939,2.6238,33.597,3.5403,50.4177c1.554,28.5203,1.3515,57.0431-1.7664,85.4589
		c-1.8369,16.7417-4.1561,33.4381-6.6417,50.0977c-1.1702,7.8439-2.9936,15.6179-4.9871,23.3027
		c-1.58,6.0909-3.87,11.9977-5.9036,18.1646c2.4586,0.4919,2.8456,2.1585,2.9498,4.3799
		c0.3827,8.1621,0.9031,16.3206,1.5458,24.4667c0.39,4.9425,1.5107,9.8545,1.574,14.7896
		c0.1083,8.4295,0.1175,16.9144-0.7316,25.2847c-0.6685,6.5891-2.5759,13.069-4.1579,19.5425
		c-0.9412,3.8516-4.1863,6.2831-7.243,8.0002c-5.7914,3.2533-11.9849,5.8392-18.6617,6.9982
		c-0.7758,0.1346-1.8139,1.4231-1.9286,2.2836c-1.0076,7.5575-1.7449,15.1508-2.7314,22.7114
		c-1.78,13.642-3.4626,27.3024-5.5948,40.8909c-1.5842,10.0966-3.6592,20.1252-5.8082,30.1212
		c-1.5743,7.3234-3.5259,14.5711-5.4898,21.8035c-1.7495,6.4429-3.6483,12.8498-5.665,19.2143
		c-1.7131,5.4067-3.4753,10.8163-5.5954,16.0715c-3.7375,9.2641-7.7491,18.418-11.6765,27.6049
		c-1.7717,4.1442-3.4421,8.3456-5.4762,12.3601c-2.1837,4.3096-4.6848,8.4632-7.1489,12.6248
		c-3.1212,5.2714-6.1956,10.5808-9.5763,15.6842c-2.2555,3.4048-4.9843,6.4997-7.548,9.6959
		c-3.3234,4.1433-6.6025,8.3273-10.0656,12.352c-4.4956,5.2249-9.2685,10.213-13.7126,15.4797
		c-5.724,6.7838-12.6779,12.1541-19.6061,17.5566c-5.4324,4.2359-11.103,8.1683-16.5027,12.444
		c-9.5458,7.5586-20.3884,12.7725-31.3263,17.8708c-4.6194,2.1531-8.9653,4.9424-13.6826,6.8231
		c-4.78,1.9057-9.8563,3.0765-14.8187,4.5145c-6.8414,1.9825-13.7573,3.7288-20.5337,5.9105
		c-10.0359,3.2312-20.2188,5.386-30.7557,6.2725c-6.3542,0.5345-12.6159,2.1678-18.9199,3.3034
		c-2.1419,0.3859-4.2731,0.871-6.4312,1.1194c-8.4257,0.9697-16.8451,2.3625-25.2964,2.6162
		c-6.0597,0.182-12.1858-1.06-18.2473-1.9145c-8.6129-1.2142-17.2165-2.5264-25.7825-4.033
		c-10.9529-1.9263-21.9061-3.8929-32.7782-6.2208c-6.6022-1.4136-13.0728-3.4689-19.5623-5.3729
		c-5.0977-1.4956-10.2524-2.9075-15.1655-4.8918c-5.4648-2.2072-10.6836-5.0229-16.0118-7.569
		c-1.3072-0.6247-2.6273-1.222-3.9348-1.8461c-5.1319-2.4499-10.4092-4.6437-15.3471-7.4372
		c-4.3409-2.4558-8.3345-5.5374-12.4197-8.4298c-4.1779-2.9583-8.3244-5.9647-12.405-9.0552
		c-5.0758-3.8444-10.1875-7.6571-15.0551-11.7549c-2.9259-2.4631-5.4237-5.4365-8.1006-8.1934
		c-3.1213-3.2146-6.3385-6.3453-9.3109-9.6928c-3.1114-3.5039-5.9644-7.2362-8.9619-10.8424
		c-2.8582-3.4388-5.8953-6.7383-8.6009-10.2917c-2.9918-3.9294-5.8175-7.9993-8.4947-12.1504
		c-3.2006-4.9625-6.3931-9.9552-9.1751-15.1561c-3.0976-5.7909-5.843-11.78-8.536-17.7751
		c-3.5723-7.9525-7.0971-15.9333-10.3569-24.0171c-2.6929-6.6778-5.1048-13.4781-7.3945-20.3068
		c-2.1185-6.3183-4.0129-12.7175-5.8174-19.134c-2.0269-7.207-4.0651-14.424-5.6956-21.7264
		c-2.2256-9.9683-4.3717-19.9727-6.0039-30.0504c-2.1264-13.1297-3.7235-26.3453-5.5336-39.526
		c-1.2792-9.3147-2.4947-18.6385-3.8715-27.9387c-0.1147-0.7745-1.1645-1.8958-1.9137-2.015
		c-6.5182-1.0377-12.5346-3.6193-18.2194-6.6562c-4.8511-2.5914-7.9876-7.0123-9.3025-12.6674
		c-4.1587-17.8855-4.3097-35.8979-2.3437-54.046c0.9541-8.8072,1.6421-17.6475,2.2261-26.4876
		c0.1576-2.3863,1.1328-3.312,3.2745-3.3015c1.98,0.0097,4.1627-0.2193,4.5134,2.6754c0.3161,2.6091,0.8746,5.1958,1.0696,7.8114
		c0.7409,9.9373,1.1482,19.9048,2.1158,29.8186c1.0387,10.6418,2.2203,21.2953,4.0277,31.8256
		c0.916,5.3375,3.063,10.5354,5.1979,15.5654c1.3246,3.1207,4.5796,4.304,8.3917,5.2009
		c-0.7447-6.0042-1.4823-11.6179-2.1205-17.243c-0.2966-2.6142-0.4941-5.2473-0.5763-7.8768
		c-0.6158-19.6939-1.5821-39.388-1.6358-59.0842c-0.0331-12.1437,1.0514-24.3188,2.1894-36.4275
		c0.7939-8.4475,2.6201-16.7938,3.8045-25.2107c0.5677-4.0345,0.9027-8.1242,0.9841-12.1961
		c0.0474-2.3701,1.0684-3.1884,3.1564-3.4856c3.8704-0.551,6.4635,0.6334,7.0503,4.4894
		c0.8688,5.7089,0.9741,11.5371,1.3308,17.3192c0.1211,1.9629,0.0192,3.9396,0.0192,5.9879c2.4875,0,4.6408,0.0059,6.7941-0.0009
		c32.9792-0.1045,65.9587-0.3408,98.9376-0.2793c32.1599,0.0599,64.3197,0.381,96.4783,0.7051
		c4.3402,0.0438,8.6693,0.8259,13.0108,1.1748c6.5066,0.5228,9.8784,4.7587,11.2249,10.4176
		c1.5694,6.596,2.3334,13.3865,3.3719,20.1042c0.3174,2.053,0.3873,4.1443,0.5993,6.5451
		c25.7674-1.8633,51.439-1.8806,77.3057-0.0162c0.5722-5.0358,0.8569-10.0132,1.7664-14.8736
		c0.9734-5.2021,2.3195-10.3621,3.9106-15.412c1.2148-3.8554,4.3581-5.9528,8.3183-6.4281
		c5.5825-0.67,11.1929-1.5364,16.7941-1.5567c63.5037-0.2295,127.0078-0.3371,190.5118-0.3986
		c6.0775-0.0059,12.1573,0.4876,18.2318,0.8267c1.0582,0.0591,2.2272,0.2985,3.0903,0.8518
		c0.4954,0.3175,0.9047,1.7059,0.6234,2.147c-1.8344,2.8765-1.2574,5.7346-0.6951,8.8362
		c0.8226,4.5375,0.9961,9.1886,1.5744,13.7751c1.5436,12.2414,3.1739,24.5304,2.2489,36.8556
		c-1.0337,13.7754-1.937,27.6434-6.2723,40.9372c-1.2825,3.9327-2.7523,7.804-4.1151,11.7108
		c-1.3739,3.9387-4.2403,5.9602-8.2901,6.2541c-6.1578,0.4468-12.3372,0.6234-18.4863,1.1578
		c-10.1958,0.8862-20.3574,2.2308-30.5649,2.9049c-17.7599,1.1725-35.5336,2.3233-53.3202,2.8541
		c-20.9426,0.6248-41.9194,1.1562-62.8544,0.637c-15.7348-0.3904-31.4253-2.5222-47.1391-3.8359
		c-4.364-0.3648-8.2015-2.2718-11.7816-4.443c-1.6163-0.9802-2.8097-3.3062-3.345-5.2551
		c-0.6579-2.3954-0.5587-5.0346-0.5605-7.5685c-0.0142-19.9858,0.0267-39.9716,0.0435-59.9574
		c0.0005-0.6152-0.0753-1.2305-0.0728-1.1924c-8.7497-0.9042-17.2355-1.9833-25.7545-2.616
		c-14.2661-1.0596-28.4884-0.6868-42.5667,2.2368c-1.3133,0.2727-2.719,0.2484-4.068,0.1575
		c-1.2418-0.0836-2.4651-0.4429-3.9774-0.735c-0.0459,0.9253-0.1183,1.7024-0.1179,2.4795
		c0.0104,20.6217,0.0583,41.2436,0.0031,61.8651c-0.0062,2.3254-0.1677,4.8226-1.0323,6.9206
		c-0.727,1.7642-2.3224,3.5078-3.9882,4.4847c-5.1519,3.0216-10.9674,4.0971-16.8432,4.5521
		c-11.2219,0.8693-22.4475,1.9548-33.6897,2.242c-21.5811,0.5515-43.1992,1.364-64.757,0.6708
		c-24.561-0.7897-49.0766-3.0537-73.604-4.7893c-7.5791-0.5363-15.131-1.4514-22.6979-2.1668
		c-1.6101-0.1523-3.2309-0.1907-5.2981-0.307c0.2519,3.0814,0.4114,5.9338,0.7311,8.7682
		c0.8639,7.6577,1.708,15.3193,2.7198,22.9582c1.9497,14.7208,3.8894,29.4449,6.0648,44.1334
		c1.5112,10.2035,3.2089,20.3889,5.1947,30.5096c1.774,9.0406,3.9438,18.0095,6.1537,26.957
		c1.5776,6.3873,3.4392,12.7078,5.3058,19.0192c1.7651,5.9683,3.4968,11.9602,5.6206,17.8046
		c2.1709,5.9738,4.8288,11.7694,7.217,17.6658c1.089,2.6887,1.9767,5.4592,3.0702,8.146
		c2.2411,5.5065,4.3103,11.1033,6.9129,16.4372c2.8744,5.8907,6.054,11.6597,9.4882,17.2433
		c4.2303,6.878,8.5715,13.7265,13.4076,20.1812c4.0626,5.4222,8.9396,10.2299,13.3872,15.3692
		c3.2948,3.8073,6.3072,7.8728,9.7598,11.5261c3.6866,3.9009,7.6516,7.5549,11.6658,11.1245
		c3.1271,2.7806,6.4499,5.3553,9.8048,7.8621c4.4679,3.3385,9.0512,6.5227,13.5854,9.7725c3.189,2.2857,6.3242,4.6526,9.5905,6.822
		c1.723,1.1443,3.6516,1.9926,5.5281,2.8893c4.9465,2.364,10.1795,4.2527,14.8167,7.1119
		c8.0321,4.9528,16.9135,7.5305,25.7656,10.2112c8.5581,2.5916,17.4303,4.2446,25.8198,7.2668
		c8.8989,3.2056,18.2235,2.5146,27.2201,4.3655c3.6706,0.7552,7.2699,1.8729,10.9523,2.5507
		c4.6351,0.8529,9.3124,1.4992,13.9888,2.1005c8.1048,1.0422,16.2025,0.377,24.0766-1.4131
		c7.654-1.7399,15.2625-3.5197,23.0945-4.2041c1.6268-0.1422,3.2406-0.476,4.8685-0.5571
		c11.3369-0.5661,21.7823-5.0322,32.6795-7.5137c5.6106-1.2775,11.0574-3.3376,16.5032-5.257
		c4.6629-1.6434,9.3325-3.3495,13.7966-5.4569c7.5417-3.5604,15.0494-7.2344,22.3255-11.3004
		c4.4308-2.4758,8.4412-5.7206,12.5685-8.7189c5.874-4.2672,11.6979-8.6038,17.5144-12.9493
		c9.2001-6.8735,16.8565-15.3199,24.2416-24.0225c4.1685-4.9122,8.314-9.8538,12.243-14.9567
		c4.211-5.4691,8.4529-10.955,12.1392-16.7767c4.3168-6.8175,8.2091-13.9208,11.9742-21.0643
		c2.2586-4.2852,3.9387-8.8771,5.8498-13.3437c2.6833-6.2713,5.6006-12.4586,7.9437-18.8554
		c3.1636-8.6366,6.0151-17.3952,8.7413-26.1819c2.3532-7.5846,4.4627-15.2509,6.4604-22.9382
		c1.9282-7.4201,3.8623-14.8591,5.281-22.3864c2.2935-12.1683,4.3091-24.3939,6.1787-36.6356
		c1.9812-12.9723,3.6703-25.9894,5.4577-38.991c1.3782-10.0251,2.8118-20.0444,4.0283-30.0895
		c0.8074-6.666,1.2158-13.3794,1.9084-20.0606c1.1112-10.7183,2.3461-21.4236,3.4585-32.1418
		c0.6934-6.6802,1.5667-13.362,1.8237-20.0637c0.873-22.7595,1.4395-45.5307,2.2977-68.2908
		c0.152-4.0302,0.8677-8.0963,1.8348-12.0197c0.7097-2.8791,6.6619-4.1124,8.8312-2.0611c0.4466,0.4224,0.5891,1.2778,0.6711,1.9578
		c1.259,10.4432,2.3235,20.9124,3.7498,31.3323c3.6791,26.8807,4.5673,53.8308,2.6405,80.8935
		c-0.619,8.6943-0.7186,17.4259-1.3531,26.1188C644.5738,532.0401,643.6207,538.6558,642.8166,545.8105z M534.1437,534.2614
		c18.0601-1.5887,36.1062-3.3375,54.1592-5.008c2.4409-0.2258,4.8998-0.2852,7.3286-0.5933
		c0.6276-0.0796,1.5238-0.7001,1.6985-1.259c1.1499-3.678,2.2426-7.3815,3.146-11.1268c0.9136-3.7881,1.5922-7.6331,2.3643-11.4551
		c0.6241-3.0898,1.5711-6.1591,1.7881-9.2782c0.7055-10.1437,1.1716-20.3047,1.6741-30.4618
		c0.6405-12.949-1.896-25.9199,0.321-38.8832c0.3084-1.8035-0.5069-3.9224-1.2147-5.734c-0.4859-1.2436-1.6865-2.208-2.5677-3.2972
		c-1.0248-0.5831-2.4686-0.5847-3.9124-0.583c-52.1509,0.0579-104.302,0.0715-156.4527,0.2058
		c-13.08,0.0337-26.1877,0.0089-39.2288,0.8475c-9.4865,0.61-7.6733-0.7504-9.5588,8.9134
		c-2.1742,11.1433-1.5454,22.438-1.6748,33.6904c-0.2492,21.6561,1.7353,43.3499-1.2571,64.9633
		c-0.7179,5.1849,0.5248,6.9013,5.6982,7.5189c12.4138,1.4819,24.843,3.316,37.3101,3.756
		c18.6022,0.6566,37.2426,0.2388,55.8666,0.2656C490.4963,536.744,527.9553,534.8058,534.1437,534.2614z M71.9592,416.5885
		c-0.2183,1.2082-0.099,2.7432-0.6051,2.9886c-3.0324,1.4705-2.5807,4.2335-2.352,6.556
		c0.6795,6.9012,0.7473,13.7886,0.6655,20.7133c-0.0619,5.2346,0.5556,10.4763,0.8465,15.7162
		c0.1308,2.3569,0.0914,4.7279,0.3192,7.074c1.2453,12.8264,2.4315,25.6606,3.8849,38.4641
		c0.7013,6.1786,1.9506,12.2946,2.9356,18.4416c0.227,1.4164,0.8225,2.1193,2.4384,2.2632
		c5.6651,0.5047,11.2993,1.3763,16.968,1.816c20.3625,1.5793,40.7346,3.0342,61.1023,4.5464
		c5.953,0.442,11.8991,0.9929,17.8571,1.347c3.0181,0.1793,30.5887,0.4359,31.6107,0.4072
		c15.7666-0.4405,31.5461-0.6418,47.2933-1.4623c8.403-0.4378,16.7821-1.7491,25.1088-3.0656
		c4.3016-0.6802,4.9061-2.0157,4.6159-6.4078c-0.3232-4.8919-0.9005-9.7828-0.9218-14.6761
		c-0.0743-17.0714,0.0374-34.1437,0.091-51.2156c0.0407-12.9481,0.3523-25.8985-3.1104-38.5902
		c-0.6534-2.3948-1.7435-3.3674-3.9924-3.5089c-4.0752-0.2564-8.1487-0.7441-12.2243-0.7603
		c-63.2159-0.2512-126.432-0.4421-189.648-0.6465C73.8583,416.5856,72.8741,416.5885,71.9592,416.5885z"/>
	<path class="st0" d="M630.9984,358.2788c-0.0169,6.9441-1.4851,8.4899-8.3942,8.7238c-0.9055,0.0306-1.8213,0.0207-2.7208-0.0767
		c-5.6281-0.6093-6.197-1.2453-7.3742-6.6823c-2.4102-11.1315-4.7953-22.2717-7.4601-33.3435
		c-1.6241-6.7479-3.6261-13.4136-5.6887-20.0446c-1.8467-5.937-3.6504-11.9315-6.1187-17.6204
		c-3.4292-7.9037-7.0018-15.818-11.3814-23.2135c-3.472-5.8631-7.2728-11.6925-12.7928-16.1214
		c-5.2218-4.1895-9.9467-9.013-15.2727-13.0534c-4.1966-3.1837-8.9007-5.7326-13.5136-8.3244
		c-5.6435-3.1707-11.403-6.1388-17.1627-9.0962c-2.0884-1.0723-4.28-1.9822-6.4977-2.7568
		c-7.3125-2.5544-14.5741-5.3095-22.0147-7.4276c-7.8867-2.2451-15.9165-4.0406-23.9546-5.6874
		c-10.6375-2.1792-21.3822-3.839-32.0118-6.0529c-17.4927-3.6434-35.278-4.0531-53.0006-5.1802
		c-6.1621-0.3919-12.3495-0.3864-18.5114-0.7802c-26.5308-1.6958-53.0887-3.0988-79.5689-5.3915
		c-11.6845-1.0117-23.2462-3.6946-34.7897-5.9905c-7.1677-1.4256-14.2267-3.4401-21.2791-5.3906
		c-6.2493-1.7284-12.4356-3.6911-18.6158-5.657c-1.0701-0.3404-1.989-1.186-2.9458-1.8447
		c-1.3332-0.9178-1.1181-2.0577,0.2357-2.3678c2.1638-0.4957,4.5386-1.0389,6.6457-0.6339
		c6.5588,1.2608,13.0078,3.0818,19.5484,4.4521c7.193,1.5069,14.4227,2.8577,21.6679,4.0911
		c11.0632,1.8834,22.1001,4.122,33.2449,5.2774c16.2176,1.6812,32.5075,2.7798,48.7913,3.6808
		c23.9379,1.3246,47.926,1.8478,71.8372,3.5101c13.9937,0.9729,27.9144,3.2697,41.8028,5.3955
		c10.376,1.5882,20.6764,3.7192,30.9567,5.866c7.4246,1.5505,14.8134,3.3349,22.1203,5.3671
		c6.1637,1.7142,12.3055,3.6377,18.2394,6.0124c6.3188,2.5288,12.4132,5.632,18.547,8.6054
		c5.3414,2.5893,10.7465,5.1002,15.8539,8.1041c4.5484,2.6752,8.8323,5.8405,13.0435,9.0388
		c5.5627,4.2247,11.1162,8.4955,16.3293,13.1335c2.9074,2.5866,5.2488,5.8587,7.608,9c3.115,4.1474,6.4281,8.2369,8.8763,12.7722
		c3.4637,6.4166,6.4596,13.1184,9.2034,19.8818c2.8651,7.0625,5.4419,14.2664,7.6738,21.5528
		c1.5884,5.1852,2.5178,10.5866,3.5264,15.932c1.7406,9.2257,3.3341,18.4794,4.9377,27.7304
		C630.8805,355.1816,630.8784,356.7408,630.9984,358.2788z"/>
	<path class="st0" d="M14.5033,319.5654c0.902-15.5982,1.6478-35.5705,3.3402-55.4622c1.2884-15.1422,3.5295-30.2203,5.8366-45.2518
		c1.2027-7.8361,3.2909-15.5551,5.3027-23.2422c1.55-5.9227,3.384-11.7944,5.4956-17.5403
		c2.2231-6.0494,4.9425-11.9157,7.4109-17.8761c0.9005-2.1744,1.7809-4.363,2.534-6.5912
		c1.7251-5.1042,3.454-10.2106,4.9945-15.3719c0.5554-1.8608,1.6096-2.4579,3.3507-2.4195
		c1.7425,0.0385,3.6297,0.2983,3.5645,2.4381c-0.1452,4.7683-0.138,9.6281-1.0916,14.2659
		c-1.6891,8.2146-3.9967,16.305-6.136,24.4235c-4.0069,15.2062-6.0918,30.7103-7.5618,46.3364
		c-4.3418,46.1537-5.3787,92.4135-4.1541,138.718c0.3811,14.4095,1.7927,28.8137,3.2647,43.1658
		c1.2737,12.4188,3.3317,24.7563,4.9703,37.1393c0.3324,2.5116,0.4987,5.0712,0.4198,7.5986
		c-0.0318,1.0193-0.6904,2.2912-1.4781,2.9608c-1.931,1.6417-8.5097,1.6245-10.4575,0.1113
		c-0.5147-0.3998-0.9271-1.1229-1.0771-1.7693c-0.9016-3.8872-1.6701-7.8051-2.5636-11.6943
		c-1.8981-8.2613-4.0419-16.4715-5.7234-24.7758c-2.1525-10.6304-4.21-21.2936-5.8215-32.0159
		c-1.463-9.7343-2.5813-19.5446-3.2846-29.362C14.9385,343.5764,14.9436,333.7519,14.5033,319.5654z"/>
	<path class="st0" d="M65.9474,368.3005c-0.8168,0-1.6563,0.1246-2.447-0.0193c-7.7537-1.4109-7.997-2.8821-6.7859-8.8502
		c1.9937-9.8242,4.3096-19.5905,6.7748-29.3088c1.6193-6.3833,3.5258-12.7138,5.6853-18.9355
		c3.4585-9.9642,6.8179-19.9987,11.0064-29.6623c3.3431-7.7131,7.4694-15.1644,11.9677-22.2769
		c4.25-6.7199,9.3537-12.912,14.239-19.2144c4.3327-5.5896,8.6409-11.2316,13.4046-16.444
		c4.4543-4.8739,9.5038-9.2027,14.2701-13.7934c2.7035-2.6039,5.2563-5.3754,8.075-7.8454
		c2.8242-2.4749,5.8955-4.6676,8.8571-6.9859c4.1103-3.2175,8.1285-6.5624,12.3583-9.6141
		c3.1979-2.3071,6.6047-4.3492,10.0504-6.2731c1.0141-0.5662,2.5592-0.6566,3.7153-0.3725c1.4332,0.3522,2.7149,1.3208,4.0621,2.023
		c-0.8622,1.02-1.6532,2.1124-2.6015,3.045c-1.9801,1.9474-4.1113,3.7434-6.0556,5.7241c-2.693,2.7434-5.2185,5.6513-7.9126,8.3934
		c-2.8883,2.9397-5.9547,5.7052-8.8193,8.6669c-2.1804,2.2544-4.2487,4.6302-6.2224,7.0689
		c-4.0751,5.0352-8.2098,10.0346-12.0249,15.264c-3.3293,4.5634-6.2097,9.4518-9.3717,14.1404
		c-2.2482,3.3338-4.6683,6.5513-6.942,9.8685c-0.8136,1.1869-1.3843,2.5371-2.132,3.7728
		c-5.3126,8.7804-10.573,17.5457-14.0521,27.3145c-3.4661,9.7321-7.56,19.2392-11.3118,28.871
		c-3.7586,9.649-7.4918,19.3088-11.1274,29.0047c-2.5567,6.8186-5.1174,13.65-7.1959,20.6189
		c-0.3298,1.106,0.5548,2.8747-1.0025,3.6057c-2.003,0.9402-4.1651,1.5602-6.2933,2.2036
		c-0.6652,0.2011-1.4425,0.0313-2.1684,0.0313C65.9474,368.3144,65.9474,368.3074,65.9474,368.3005z"/>
	<path class="st0" d="M108.0386,88.2424c-2.2592,3.929-4.8169,8.5673-7.5594,13.0937c-2.7853,4.597-5.9492,8.9725-8.5911,13.6464
		c-3.367,5.9566-6.5191,12.0465-9.4906,18.2105c-2.0582,4.2694-3.472,8.8526-5.5873,13.089
		c-0.5236,1.0485-2.6283,1.7408-4.0518,1.8249c-4.1781,0.247-5.5468-1.3148-4.1108-5.213
		c2.1935-5.9547,4.8918-11.726,7.4474-17.5437c1.2749-2.902,2.5778-5.806,4.1001-8.5819c2.5325-4.6181,5.306-9.1035,7.8779-13.7008
		c2.7697-4.9509,5.4264-9.9651,8.1286-14.9537c2.8993-5.3525,5.8118-10.6979,8.6822-16.0658
		c1.1941-2.233,2.5495-4.4284,3.3662-6.8011c0.8466-2.4594,2.7088-3.2544,4.807-3.8717c0.9396-0.2764,1.9827-0.3555,2.9668-0.302
		c8.498,0.4624,7.9681,2.2394,7.0194,8.3205c-0.5527,3.5426-1.4325,7.0333-2.1094,10.5581
		c-0.1829,0.9527-0.1625,1.9444-0.2797,3.5093c2.9022-0.8959,5.398-1.7006,7.9144-2.4351
		c3.6546-1.0668,7.5139-1.6647,10.9419-3.2205c4.9452-2.2443,9.6737-5.0173,14.3243-7.845
		c4.5579-2.7713,8.8823-5.9241,13.3464-8.8526c4.406-2.8905,8.8463-5.7293,13.2941-8.5553
		c5.0918-3.2352,10.2348-6.3905,15.3055-9.6581c3.6006-2.3203,7.0837-4.8233,10.6889-7.1362
		c1.5918-1.0212,3.3438-1.7984,5.0446-2.6432c4.8266-2.3974,9.749-4.6176,14.4731-7.2012
		c4.4664-2.4426,8.7881-5.1666,13.0624-7.9382c3.3768-2.1896,6.6362-4.5711,9.8546-6.9913
		c3.5093-2.639,7.4306-2.6761,11.4469-1.9956c3.6859,0.6246,4.3458,2.1729,2.4994,5.4389
		c-2.7552,4.8735-5.519,9.7393-5.6332,15.9091c4.6427-1.5363,9.4024-2.6661,13.7487-4.6858
		c3.6891-1.7143,7.2562-4.0714,10.2425-6.8311c4.7816-4.4189,12.2062-6.4953,17.7394-3.8248
		c1.3341,0.6439,2.7614,2.2425,3.073,3.641c0.9135,4.0992,3.424,6.7731,6.8142,8.7067c6.0636,3.4583,12.5674,5.835,19.3827,7.3878
		c2.9846,0.6801,5.8995,1.6713,8.8902,2.3169c0.9624,0.2077,2.3352,0.1114,3.0585-0.4455c3.2183-2.478,6.6599-1.8496,10.0681-0.9099
		c0.9667,0.2666,2.0618,1.3158,2.37,2.247c0.1801,0.5445-1.0549,1.5853-1.6953,2.3686c-2.8557,3.4927-6.8434,3.5766-10.8717,3.6557
		c-6.7805,0.1333-13.2028-1.6577-19.7128-3.2384c-7.4184-1.8013-14.5383-4.3787-21.3346-7.7143
		c-3.3953-1.6665-6.2585-4.4171-9.7678-6.9726c-2.8322,1.5281-6.0809,3.6974-9.6334,5.0942
		c-4.6245,1.8183-9.4793,3.0595-14.2559,4.4787c-2.9158,0.8663-5.8315,1.8584-8.8205,2.3135
		c-2.4694,0.376-5.0721,0.2701-7.5698-0.019c-4.3643-0.5052-6.0667-2.6546-6.1243-7.1251
		c-0.0089-0.6963-0.0912-1.3916-0.1664-2.4744c-2.4368,1.3055-4.5954,2.4787-6.7691,3.6232
		c-4.6151,2.43-9.3476,4.6602-13.8305,7.3128c-5.6991,3.3722-11.16,7.144-16.794,10.6299
		c-7.0314,4.3505-14.1946,8.4898-21.184,12.9053c-4.2321,2.6736-8.1187,5.9003-12.3843,8.5132
		c-5.3558,3.2806-10.9318,6.2034-16.4288,9.2514c-7.1598,3.97-15.2618,4.8693-22.9427,7.1592
		c-5.4541,1.626-10.8336,2.9755-16.4797,2.5282C113.2733,90.0259,110.7752,88.9678,108.0386,88.2424z"/>
	<path class="st0" d="M620.1808,195.9613c2.3057,2.5865,4.5767,5.205,6.9255,7.7518c3.349,3.6311,6.7949,7.1731,10.1238,10.8221
		c2.5875,2.8362,5.1094,5.7364,7.5596,8.6917c1.0858,1.3095,1.9294,2.8208,2.8712,4.2484c1.5352,2.3275,3.3116,4.5375,4.5368,7.019
		c2.4104,4.8819,1.1843,7.9756-4.3162,9.3682c-3.889,0.9846-8.2372,0.1976-12.3786,0.1138
		c-1.056-0.0213-2.1053-0.3759-3.4601-0.6352c2.2943,3.9928,4.4799,7.6468,6.5187,11.3811
		c2.7607,5.0567,5.6372,10.0706,8.0287,15.3019c1.725,3.7733,0.4987,5.6876-3.5493,6.7612
		c-1.3049,0.3461-2.6709,0.5193-4.0204,0.6242c-1.3404,0.1042-2.6953,0.0228-4.4207,0.0228
		c1.1444,2.7357,2.1537,5.317,3.3002,7.8359c0.9237,2.0293,2.0919,3.9473,3.0151,5.9767
		c3.4217,7.5213,7.2453,14.9042,10.0206,22.6602c2.0261,5.6622,2.7154,11.8145,3.8625,17.7749
		c0.7127,3.7029,1.3073,7.4405,1.7062,11.189c0.5991,5.629-1.2333,10.6619-4.2637,15.3206
		c-2.4563,3.7762-9.9445,5.568-13.6947,3.1666c-0.422-0.2702-0.6738-1.7816-0.405-2.0092c4.0424-3.4229,5.405-8.0155,4.8389-12.9073
		c-0.9778-8.449-2.2294-16.8942-3.9567-25.2184c-1.0537-5.0779-2.9394-10.0404-4.9475-14.8475
		c-2.1689-5.1918-4.9316-10.1346-7.3993-15.2035c-0.5933-1.2186-1.0011-2.5263-1.5691-3.7585
		c-1.8416-3.9952-3.8121-7.9337-5.5543-11.9712c-1.7477-4.0502-0.8671-5.7053,3.4705-6.475
		c2.2897-0.4063,4.659-0.3639,7.4974-0.5587c-1.9781-3.5133-3.9063-6.9037-5.8019-10.3121
		c-3.1839-5.7248-6.3774-11.4446-9.5029-17.2013c-1.1484-2.1153-0.4735-4.2846,1.6621-5.499
		c4.0728-2.3158,8.4154-1.7956,12.7449-1.0161c1.7648,0.3178,3.5012,0.7936,5.9755,1.3649
		c-1.5955-2.232-2.7216-3.9839-4.0229-5.5943c-3.6605-4.5299-7.3575-9.0314-11.1082-13.4867
		c-3.0608-3.6357-6.2623-7.153-9.3231-10.7887c-2.99-3.5515-5.9106-7.163-8.7926-10.8029c-0.6641-0.8388-1.1526-1.86-1.5391-2.8674
		c-1.2518-3.2634-0.2884-4.6627,2.8793-6.0875c5.0259-2.2607,9.6564-0.6292,14.3859,0.7653
		c4.0651,1.1986,8.1313,2.3939,12.4344,3.2068c-2.7914-2.5894-5.5679-5.1951-8.3779-7.7641
		c-3.2249-2.9481-6.5431-5.797-9.7014-8.814c-2.5912-2.4753-5.0876-5.0626-7.4714-7.7379c-1.4113-1.5838-2.5807-3.3968-3.7487-5.179
		c-0.8098-1.2357-1.6461-2.955,0.1575-3.7047c1.3373-0.5559,3.4478-0.567,4.6387,0.1434c1.873,1.1173,3.2198,3.0911,4.8637,4.6226
		c4.898,4.5635,9.674,9.2763,14.7927,13.58c6.2493,5.2541,12.8605,10.0751,19.1956,15.2304
		c4.3079,3.5057,8.4665,7.2027,12.5617,10.9563c0.905,0.8295,1.9377,2.4502,1.6805,3.3576c-0.261,0.9206-1.9644,1.6797-3.176,2.0416
		c-6.0766,1.8154-11.0789-1.4354-16.2998-3.6487c-4.0713-1.7259-8.1719-3.3829-12.2611-5.0663
		c-2.2139-0.9114-4.4316-1.8139-6.6475-2.7205C620.5396,195.5767,620.3602,195.769,620.1808,195.9613z"/>
	<path class="st0" d="M441.5476,36.8614c-4.8731,3.7279-9.8367,5.371-15.2442,5.87c-6.662,0.6148-12.8365-1.821-19.1567-3.1902
		c-12.3839-2.6828-24.6074-6.1976-37.3777-6.6959c-2.5398-0.0991-5.0883-0.0271-7.6233-0.1855
		c-2.2398-0.14-5.2784-0.474-5.3298-2.9109c-0.0496-2.3547,3.0447-2.775,5.1221-2.8032c6.8905-0.0935,13.8064-0.2432,20.6708,0.2321
		c6.4141,0.4441,12.8011,1.5025,19.1515,2.5775c5.8747,0.9945,11.6758,2.4165,17.527,3.5589
		c3.5871,0.7003,3.8466,0.4681,4.9352-3.082c1.1972-3.9042,3.7436-6.346,7.8505-6.791c3.9528-0.4283,7.6892-0.3457,11.5159,1.7111
		c7.2139,3.8775,14.723,7.2327,22.23,10.5305c8.3989,3.6895,16.9164,7.1116,25.4101,10.5819
		c9.7446,3.9813,19.5094,7.9139,29.2847,11.8192c9.452,3.7761,18.92,7.5121,28.3974,11.2239
		c5.5386,2.1691,11.131,4.2014,16.6606,6.3927c9.3914,3.7216,18.8286,7.3438,28.0937,11.3604
		c4.655,2.0181,9.0388,4.7015,13.4274,7.2842c5.0355,2.9634,10.0814,5.9485,14.8521,9.3085
		c3.1199,2.1973,5.8032,5.0304,8.6003,7.6655c2.798,2.6359,5.5548,5.3217,8.2172,8.0937c2.3594,2.4565,4.7314,4.933,6.8013,7.6283
		c3.8799,5.0521,7.6332,10.2081,11.2562,15.4473c1.4305,2.0686,2.5016,4.4189,3.5098,6.7395
		c2.1489,4.946,4.1929,9.9391,6.1909,14.9484c0.8682,2.1767,0.0956,3.3142-2.1187,2.8072
		c-1.4227-0.3257-3.1115-1.3126-3.8419-2.5135c-2.7082-4.4528-4.8379-9.2633-7.6245-13.661
		c-2.7191-4.2913-5.876-8.3206-9.025-12.3198c-2.9952-3.8039-6.1272-7.513-9.3911-11.0885
		c-2.4678-2.7035-5.1979-5.1742-7.884-7.6702c-3.0937-2.8747-6.2513-5.6814-9.4152-8.4792
		c-1.1252-0.9951-2.3148-1.9268-3.5351-2.8038c-7.0848-5.0916-14.303-9.9699-22.4735-13.2072
		c-10.6262-4.2104-21.2523-8.4227-31.9153-12.5387c-4.7869-1.8478-9.6718-3.4401-14.4966-5.1914
		c-5.4139-1.9652-10.8114-3.9759-16.2139-5.9728c-5.5809-2.0629-11.1765-4.0875-16.7346-6.2099
		c-9.6711-3.6928-19.3308-7.416-28.9722-11.1859c-9.8172-3.8386-19.6388-7.6697-29.3925-11.6652
		C449.3396,40.7778,445.3604,38.6689,441.5476,36.8614z"/>
	<path class="st0" d="M237.9752,739.7666c0.0308,3.0382-1.8148,4.1405-4.0345,4.5889c-4.3012,0.8693-8.5806,1.3145-12.3469-1.8544
		c-0.6267-0.5273-1.6903-0.5485-2.5602-0.7715c-3.5566-0.9117-4.4201-2.6355-3.6559-6.2233
		c0.6346-2.9789,0.9498-6.0417,1.1928-9.0845c0.3885-4.8657,1.9031-6.6523,6.4738-8.4829
		c3.9368-1.5768,7.8678-2.9473,12.1173-2.2866c2.274,0.3536,4.4742,1.2708,6.6627,2.0587c1.8914,0.681,1.5551,2.1435,1.0556,3.6177
		c-0.7816,2.3074-1.5256,4.6275-2.1724,6.5979c8.3583,4.8753,16.8189,7.2391,25.5592,8.8059
		c9.9618,1.7857,19.9429,3.493,29.8476,5.5604c12.9597,2.7051,26.0286,1.9966,39.0055,1.0963
		c20.3391-1.4108,40.6567-3.3282,60.914-5.6399c10.3124-1.1768,20.5524-3.3411,30.6761-5.699
		c7.2395-1.686,14.2268-4.4503,21.3353-6.7059c4.4025-1.397,8.893-2.5509,13.2123-4.1661c4.0934-1.5305,8.0151-3.52,12.649-5.5924
		c-0.1089-1.0063-0.2594-2.846-0.5193-4.6702c-0.2667-1.8709-0.5859-3.6252,1.9067-4.3448c2.946-0.8505,5.604,0.0419,6.8697,2.1312
		c3.4759,5.7378,3.4495,12.2582,4.3086,18.5746c0.1504,1.1063,0.1038,2.7248-0.5641,3.375
		c-3.3604,3.2712-10.8605,2.8499-14.3965-0.8804c3.3872-0.9578,3.3094-3.4769,2.7904-6.6802
		c-1.6298,1.084-3.0542,2.0522-4.5007,2.9861c-0.9847,0.6356-1.9313,1.4197-3.0135,1.801
		c-7.9979,2.8181-15.95,5.8032-24.0656,8.2394c-7.7572,2.3287-15.6255,4.4073-23.5681,5.9696
		c-11.7085,2.3028-23.4915,4.2927-35.3046,5.9849c-25.6476,3.6736-51.4778,5.001-77.3535,4.4294
		c-10.3963-0.2298-20.8275-1.5516-31.1162-3.1774c-9.088-1.436-18.0226-3.8936-26.9783-6.09
		C245.0063,742.4012,241.7416,741.0375,237.9752,739.7666z"/>
	<path class="st0" d="M340.8627,659.1047c-2.6029-0.3016-5.2159-0.5362-7.8051-0.928c-1.757-0.2659-3.3588-1.3647-3.0611-3.1333
		c0.1712-1.0168,1.8597-2.3618,3.012-2.5253c4.2043-0.5965,8.391-1.1885,12.1007-3.3551c2.8275-1.6514,5.8343-3.2572,8.1062-5.5363
		c3.3083-3.3189,7.0619-3.855,11.2182-3.0632c3.798,0.7235,5.1389,3.7131,2.92,6.9195c-1.4803,2.139-3.4698,4.1905-5.6914,5.5017
		C355.3024,656.7377,348.471,659.2462,340.8627,659.1047z"/>
	<path class="st0" d="M531.1392,685.1787c-0.6807,2.9238-1.2202,6.3469-2.3317,9.573c-0.6056,1.7577-4.2896,2.1937-5.7232,1.002
		c-0.3394-0.2821-0.5464-0.9124-0.5481-1.3835c-0.0269-7.3104-0.0093-14.621-0.0043-21.9315
		c0.0003-0.4528,0.0013-0.9071-0.0325-1.3581c-0.1324-1.763,0.046-3.2367,2.2999-3.5198c2.3247-0.2921,3.6888,0.6815,4.0602,2.9
		C529.6433,675.1436,530.3201,679.8442,531.1392,685.1787z"/>
	<path class="st0" d="M509.5247,424.5066c4.3588,0.429,12.7889,0.6122,20.9306,2.2387c8.4294,1.6841,16.5926,4.7248,24.8444,7.2626
		c3.1125,0.9573,6.2752,1.9051,9.1884,3.323c4.8074,2.3398,9.4459,5.0305,14.1226,7.6327c1.4951,0.8318,2.9651,1.7502,4.3071,2.8062
		c2.6765,2.1063,3.4946,4.2619,2.3198,5.629c-1.4306,1.6647-5.5916,1.8858-7.6254,0.3811c-0.6476-0.4792-1.2866-0.9853-1.8558-1.553
		c-5.692-5.6776-12.9705-8.6774-20.2103-11.5555c-8.0915-3.2167-16.2436-6.5349-24.6657-8.6009
		c-10.1363-2.4864-20.6415-3.1825-31.1174-2.4966c-6.9675,0.4562-13.9831,0.9037-20.841,2.1217
		c-8.4359,1.4981-16.7575,3.6866-25.0661,5.8199c-2.1013,0.5396-3.8716,2.3111-5.9668,2.9491
		c-1.8168,0.5532-3.8838,0.4258-5.8284,0.3374c-0.623-0.0284-1.5988-0.8229-1.7005-1.3939c-0.1015-0.5696,0.5328-1.59,1.1181-1.9059
		c2.3016-1.2423,4.6161-2.6048,7.0984-3.3404c6.9045-2.0463,13.8627-3.9347,20.8593-5.6417
		C481.2854,425.629,493.3721,424.6832,509.5247,424.5066z"/>
	<path class="st0" d="M195.9344,424.5078c4.9801,0.4543,14.2493,0.9118,23.3894,2.251c7.9426,1.1636,15.8082,3.0667,23.5723,5.1487
		c4.1286,1.1071,8.0117,3.1985,11.9078,5.0514c0.8788,0.4179,1.3501,1.6929,2.0089,2.5734
		c-0.8902,0.5285-1.8225,1.5601-2.6627,1.4899c-2.3811-0.1989-5.1051-0.2463-7.0036-1.4461
		c-3.951-2.4967-8.2999-3.417-12.658-4.5003c-13.3121-3.3089-26.8089-5.7275-40.5335-5.537
		c-9.2203,0.1279-18.5006,1.0282-27.6071,2.4948c-6.1774,0.9949-12.2689,3.1588-18.0943,5.5436
		c-7.4632,3.0554-14.6895,6.7238-21.8689,10.4178c-2.2495,1.1573-4.0157,3.2525-6.0072,4.9134
		c-0.5528,0.461-1.062,1.0216-1.6916,1.3346c-2.2172,1.1024-6.357,0.5259-7.0257-1.1523c-1.0162-2.5502,0.8555-4.1601,2.6093-5.3694
		c4.3464-2.9969,8.5949-6.0951,13.6933-7.9464c6.227-2.261,12.1538-5.3407,18.3546-7.6852
		c3.9666-1.4998,8.2081-2.2604,12.3011-3.4402C169.4201,425.5361,180.4935,424.674,195.9344,424.5078z"/>
</g>
</svg>
