<?xml version="1.0" encoding="utf-8"?>
<!-- Generator: Adobe Illustrator 24.3.0, SVG Export Plug-In . SVG Version: 6.00 Build 0)  -->
<svg version="1.1" id="Layer_1" xmlns="http://www.w3.org/2000/svg" xmlns:xlink="http://www.w3.org/1999/xlink" x="0px" y="0px"
	 viewBox="0 0 673 676" style="enable-background:new 0 0 673 676;" xml:space="preserve">
<style type="text/css">
	.st0{fill:#FFFFFF;}
</style>
<g>
	<path class="st0" d="M549.6196,370.95c-0.5592,3.9841-1.1734,7.9743-1.665,11.9796c-0.4242,3.4564-2.5186,5.9665-4.9168,8.0635
		c-3.0135,2.6351-6.3597,4.9083-9.6746,7.1732c-2.0117,1.3745-4.2356,2.4385-7.1661,4.0955
		c-0.3779,7.8384-0.7233,16.511-1.2291,25.1743c-1.0052,17.2197-2.312,34.4445-6.5038,51.217
		c-1.8456,7.3851-4.8468,14.5394-7.8934,21.5508c-3.3919,7.8063-6.8264,15.718-11.3852,22.8536
		c-3.5646,5.5795-7.0112,11.4698-12.3371,15.8925c-2.9775,2.4725-5.1031,5.9429-7.8887,8.6829
		c-2.6026,2.5602-5.5338,4.7944-8.3862,7.0903c-3.4709,2.7938-6.937,5.6036-10.5395,8.2216
		c-4.4741,3.2513-9.102,6.29-13.6332,9.4639c-4.3619,3.0554-8.6382,6.2354-13.0458,9.2224
		c-2.1404,1.4506-4.4956,2.584-6.7526,3.8629c-2.6495,1.5013-5.3516,2.919-7.93,4.5341c-2.0788,1.3021-3.9207,2.9888-6.0223,4.2463
		c-3.5228,2.108-7.1289,4.0869-10.7722,5.9811c-5.5984,2.9109-11.2115,5.8024-16.9105,8.5079
		c-3.0751,1.4597-6.326,2.5583-9.5257,3.7442c-4.6382,1.7191-9.3361,3.2816-13.9412,5.0829
		c-2.6548,1.0383-5.1183,2.5671-7.7751,3.599c-2.9183,1.1335-5.9426,2.0089-8.9516,2.8914
		c-5.2427,1.538-10.2377,4.3254-15.9967,3.369c-2.3901-0.3969-4.7914-0.793-7.1327-1.4014
		c-3.3974-0.8826-6.8134-1.7734-10.0959-2.9976c-3.8311-1.4286-7.5276-3.2184-11.2805-4.856
		c-0.4083-0.1781-0.7901-0.423-1.2068-0.5749c-4.8221-1.758-9.746-3.2786-14.4492-5.3104
		c-5.7943-2.5029-11.3934-5.4552-17.101-8.1623c-3.4861-1.6534-7.0425-3.1595-10.5209-4.8286
		c-2.6653-1.2789-5.2677-2.6909-7.878-4.0813c-1.0058-0.5357-1.981-1.1384-2.927-1.7746c-2.6384-1.7745-5.2088-3.6538-7.8907-5.3586
		c-3.165-2.0119-6.4534-3.8292-9.624-5.8326c-3.1457-1.9879-6.2294-4.0759-9.3075-6.1679
		c-3.7577-2.554-7.5417-5.0754-11.2049-7.7604c-4.9558-3.6324-9.814-7.3984-14.7009-11.1243
		c-2.3698-1.8067-4.8048-3.5451-7.0332-5.5148c-1.7742-1.5683-3.2336-3.4871-4.9188-5.1636
		c-1.3834-1.3762-2.9264-2.5905-4.342-3.9362c-6.2677-5.9581-11.8436-12.4822-15.8706-20.1861
		c-3.4863-6.6697-6.632-13.5225-10.2571-20.1134c-4.2684-7.7606-7.0267-16.0668-8.8686-24.61
		c-2.1075-9.7754-4.0649-19.6552-5.0108-29.5921c-1.3924-14.6282-1.8309-29.3472-2.6794-44.0273
		c-0.0516-0.8933-0.1357-1.7848-0.1649-2.1627c-10.3774-4.8434-19.9043-9.8863-22.8917-22.0338
		c-9.4894,37.4972-3.5607,72.8073,13.2441,106.7902c-2.974,2.1734-5.6845,1.5865-7.4919-1.6035
		c-6.4226-11.3354-10.567-23.4619-13.7703-36.0899c-4.066-16.0289-6.472-32.1664-5.4908-48.6577
		c0.5538-9.3085,1.4473-18.6777,3.2589-27.8071c1.7013-8.5737,5.1111-16.7551,9.76-24.2769
		c2.9384-4.7543,5.9913-9.4398,9.0819-14.0971c2.3868-3.5967,4.6858-7.2885,7.4268-10.605
		c4.4699-5.4085,9.3117-10.5081,13.9053-15.817c1.6497-1.9066,2.9295-4.1315,4.5612-6.0558
		c5.4784-6.4607,11.3959-12.5835,16.4737-19.3403c5.6775-7.5547,11.9782-14.7357,16.0112-23.4436
		c3.066-6.6199,6.4205-13.1122,9.3077-19.8074c2.9949-6.9448,5.6521-14.039,8.3323-21.1151
		c5.4761-14.4575,7.0952-29.8965,11.2694-44.6875c0.7287-2.5819,1.564-5.1335,2.3174-7.7086
		c0.6997-2.3918,2.5473-2.5516,4.5585-2.3945c2.2236,0.1737,2.5741,1.6552,2.3469,3.4794
		c-0.9084,7.2922-1.6628,14.6087-2.7897,21.8673c-1.4176,9.1305-2.5446,18.3717-4.9011,27.2729
		c-2.4892,9.4023-6.2517,18.4699-9.5351,27.6561c-0.3462,0.9685-1.2816,1.7109-1.8158,2.6323
		c-0.4881,0.842-0.8025,1.7847-1.1935,2.683c0.1825,0.159,0.365,0.318,0.5475,0.4771c0.6294-0.2153,1.3238-0.3241,1.8785-0.6621
		c7.857-4.7871,16.7405-6.6122,25.5714-7.8599c13.2437-1.8711,26.5684-1.0964,39.8261,0.8145
		c9.0697,1.3073,14.0982,7.0211,17.7641,15.5805c-1.8098,0.3161-3.4069,1.0482-4.7754,0.7458
		c-3.5525-0.7849-7.1467-0.8042-10.7164-2.3836c-4.6734-2.0676-9.9963-3.0156-15.1365-3.6114
		c-13.2198-1.5325-26.5278-1.9193-39.5404,1.3766c-6.4527,1.6344-12.733,4.1711-18.822,6.9002
		c-2.1337,0.9564-3.6017,3.6059-5.1287,5.6639c-3.0555,4.1181-5.9317,8.3689-8.9018,12.5509
		c-2.0957,2.9507-4.0601,6.015-6.3732,8.7866c-4.3806,5.249-9.0288,10.2738-13.4496,15.4902
		c-2.6289,3.102-4.9366,6.4763-7.5658,9.578c-4.2442,5.0071-9.0286,9.6044-12.8674,14.8953
		c-5.2904,7.2918-9.8085,15.1384-14.8465,22.6201c-7.3977,10.986-6.1172,22.5976-2.4811,34.2651
		c0.7426,2.3828,2.8744,4.5022,4.7775,6.3096c2.2304,2.1184,4.9108,3.763,7.396,5.6131c0.2364-0.1453,0.4728-0.2906,0.7092-0.436
		c0-1.1143-0.0042-2.2287,0.0007-3.343c0.0523-12.0753,0.1174-24.1505,0.1447-36.2258c0.0034-1.4888,0.4046-2.4503,2.0784-2.5356
		c1.5428-0.0786,2.6893,0.3115,2.974,2.032c0.2074,1.2528,0.5137,2.4951,0.634,3.7556c1.9111,20.0257,3.7637,40.057,5.7047,60.0798
		c1.3654,14.0858,2.2715,28.25,4.4489,42.2129c1.8155,11.6427,4.2662,23.3362,9.5812,34.0515
		c5.1795,10.4421,10.1535,21.0558,16.2889,30.9284c3.7375,6.0141,9.4707,10.7972,14.3675,16.0777
		c2.3511,2.5353,4.6682,5.1489,7.3104,7.3562c3.6779,3.0726,7.6648,5.7733,11.4824,8.6817c1.6987,1.2942,3.2623,2.7662,4.9655,4.054
		c3.9854,3.0134,7.9322,6.09,12.0554,8.9055c4.2522,2.9034,8.7,5.5198,13.0526,8.277c4.4561,2.8227,8.8442,5.7575,13.3651,8.4715
		c4.9978,3.0004,10.0438,5.9359,15.1953,8.6606c5.3731,2.8419,10.8529,5.4937,16.3696,8.0484
		c4.0484,1.8748,8.2354,3.4496,12.3535,5.1749c4.2894,1.7971,8.5244,3.7347,12.8673,5.3904
		c4.5516,1.7352,9.2006,3.2161,13.8139,4.7878c0.7535,0.2567,1.6792,0.2133,2.2923,0.6418c2.7612,1.9302,5.4448,1.975,8.5795,0.6781
		c4.4714-1.8499,9.1879-3.0976,13.7186-4.8162c6.3804-2.4202,12.777-4.8337,19.0019-7.6183
		c8.218-3.6761,16.2765-7.7087,24.4035-11.5881c3.5591-1.6989,7.1797-3.2831,10.6517-5.1445
		c1.8258-0.9788,3.3082-2.5796,5.0895-3.6631c5.883-3.5782,12.0554-6.7256,17.7015-10.6377
		c8.1322-5.6346,15.8878-11.8116,23.8295-17.7231c3.3576-2.4992,6.8707-4.7974,10.143-7.4007
		c2.5475-2.0267,4.8083-4.4104,7.2412-6.5855c1.5251-1.3635,3.1826-2.5799,4.695-3.9564
		c6.1913-5.6345,11.6727-11.9128,15.9446-19.1075c3.2917-5.5438,6.066-11.3928,9.1324-17.0725
		c4.7269-8.7557,8.4691-17.9333,10.861-27.5631c1.9931-8.024,3.8688-16.1557,4.7827-24.3527
		c1.8802-16.8627,2.9939-33.8093,4.5956-50.7051c1.0073-10.6251,2.3573-21.2173,3.4952-31.8306
		c0.5609-5.2322,0.9758-10.4798,1.4845-15.7178c0.2014-2.0739,1.2745-3.0789,3.4635-2.7528
		c1.9558,0.2914,2.3371,1.4605,2.3332,3.2523c-0.0272,12.3473,0.0348,24.6948,0.0678,37.0422
		c0.0015,0.5385,0.0002,1.0771,0.0002,2.6273c3.0087-2.3929,5.4999-4.3073,7.9178-6.3102
		c6.3718-5.2783,6.6962-12.6471,7.1804-20.1105c0.4047-6.2382-2.1224-10.7065-6.7883-14.443
		c-1.1471-0.9187-1.7418-2.4984-2.702-3.6839c-5.4775-6.7629-10.0097-14.1216-14.3047-21.6831
		c-6.1633-10.8503-8.6385-22.8052-10.8089-34.8098c-2.4925-13.7869-4.2245-27.7105-6.6646-41.508
		c-1.2061-6.8202-3.1375-13.5238-4.9636-20.2194c-2.0506-7.5187-3.8813-15.1507-6.6786-22.3973
		c-2.7844-7.2133-6.4348-14.1252-10.1146-20.9486c-2.5169-4.667-5.4073-9.2178-8.7133-13.3551
		c-5.5616-6.9601-10.773-14.3013-17.9165-19.8374c-5.6872-4.4075-11.4091-8.7747-17.2184-13.019
		c-7.7417-5.656-16.6403-8.9855-25.4874-12.4206c-25.0406-9.7228-51.1354-12.5021-77.7123-11.4081
		c-14.9406,0.615-29.5905,3.6885-43.7309,8.4568c-10.9359,3.6877-21.7233,8-32.1603,12.918
		c-6.885,3.2443-13.1483,7.8881-19.4348,12.2712c-1.7836,1.2435-2.8231,3.6902-3.9252,5.7352
		c-1.0274,1.9064-3.8961,2.73-6.5891,1.5826c-2.4535-1.0454-2.0576-2.9393-0.9363-4.4702c1.6174-2.2083,3.3508-4.529,5.5454-6.0785
		c5.5089-3.8895,11.1048-7.7471,17.0404-10.9158c6.1323-3.2737,12.7545-5.6162,19.0773-8.5493
		c13.3567-6.196,27.6984-8.879,41.8942-12.2038c20.8535-4.8841,41.8442-4.5036,62.7276-1.3322
		c16.6232,2.5244,33.2935,5.5118,48.9286,12.1877c5.7997,2.4763,11.5518,5.1904,16.9734,8.3924
		c6.3411,3.745,12.5105,7.863,18.3575,12.3378c5.2,3.9797,10.2716,8.2944,14.6461,13.1416
		c5.05,5.5957,9.5833,11.7303,13.7765,18.008c4.896,7.3297,9.7089,14.8092,13.5705,22.7065
		c3.2409,6.628,4.9675,13.9848,7.5346,20.9563c5.9355,16.1186,7.9626,33.0389,10.7786,49.8407
		c2.3737,14.1626,5.1317,28.3478,9.1171,42.1186c2.1754,7.5169,7.2499,14.1958,11.0284,21.2465
		c0.471,0.8789,1.0322,1.709,1.5179,2.5805c1.6533,2.9669,3.0655,5.9847,6.2733,7.885c1.4667,0.8688,2.0829,3.1118,3.1971,4.6503
		c2.1671,2.9921,4.3224,6.0011,6.6573,8.8604c1.6945,2.0751,3.5815,4.0157,5.5438,5.8433c2.1754,2.0262,4.5497,3.8375,6.8079,5.7766
		c1.7541,1.5063,1.5928,2.5528-0.5742,3.2043c-2.8098,0.8447-5.5504,0.7508-8.0688-1.0283
		C554.7383,374.4645,552.1317,372.6888,549.6196,370.95z"/>
	<path class="st0" d="M608.265,660.2839c1.7122-4.141,3.3286-7.9216,4.8376-11.7447c1.032-2.6146,2.0016-5.2609,2.8453-7.9414
		c1.6336-5.1896,3.1691-10.4104,4.7268-15.6238c3.5439-11.8617,7.3253-23.6596,10.5462-35.6085
		c3.4559-12.8206,6.33-25.7972,9.5485-38.683c5.2-20.818,7.4856-42.0537,9.5012-63.3553
		c1.3877-14.6655,1.8286-29.3495,0.9974-44.0107c-1.1854-20.911-2.8364-41.8013-4.6484-62.6691
		c-1.1376-13.1019-2.6019-26.1961-4.5341-39.2025c-1.7667-11.8923-4.3376-23.666-6.5988-35.4836
		c-0.954-4.9865-1.8577-9.9917-3.0704-14.9179c-3.1115-12.6391-6.1501-25.3042-9.6669-37.8328
		c-2.6603-9.4775-5.8787-18.8071-9.0994-28.1158c-2.6555-7.6757-5.4771-15.308-8.5927-22.8068
		c-3.3943-8.1695-7.0601-16.2362-10.8978-24.2079c-2.6565-5.5183-5.6966-10.8625-8.7638-16.1697
		c-3.115-5.3899-6.3052-10.7513-9.7585-15.9278c-8.8236-13.2267-18.2341-26.0279-28.817-37.918
		c-4.302-4.8334-8.7935-9.5007-13.2697-14.1758c-5.2325-5.4651-10.2439-11.1929-15.8908-16.198
		c-7.8942-6.997-16.1095-13.6664-24.5264-20.0274c-6.1653-4.6592-12.8798-8.5909-19.342-12.8581
		c-8.3514-5.5146-17.656-8.9998-26.7913-12.9165c-13.3215-5.7115-27.2737-9.0346-41.3134-12.2475
		c-27.7526-6.3509-55.7599-6.3732-83.8911-3.7561c-5.691,0.5294-11.4466,0.9446-17.0085,2.1616
		c-11.8368,2.5899-23.7445,5.1026-35.2856,8.7233c-10.1316,3.1786-20.0038,7.4006-29.6161,11.9524
		c-8.2803,3.921-16.3267,8.5199-23.9289,13.6333c-6.4803,4.3588-12.0454,10.0129-16.6448,16.4592
		c-1.1207,1.5707-4.2999,2.1915-5.9175,0.9558c-2.1185-1.6184-1.0829-3.3392,0.1056-4.959
		c5.948-8.1063,13.3545-14.546,21.7272-20.1253c7.2179-4.8098,14.9672-8.3579,22.8653-11.7365
		c3.2997-1.4116,6.4171-3.2883,9.7789-4.5084c8.6888-3.1533,17.3894-6.3145,26.225-9.0158
		c27.6219-8.4449,56.0941-10.3234,84.7444-10.196c20.6622,0.0918,41.175,2.1682,61.2836,7.0718
		c8.4973,2.0721,16.7999,4.9609,25.1533,7.5979c4.7513,1.4999,9.4892,3.0834,14.1158,4.9241
		c3.5806,1.4245,7.0627,3.155,10.442,5.0159c8.2289,4.5314,16.595,8.8716,24.4849,13.9436
		c7.1956,4.6256,13.968,9.9478,20.6836,15.2699c5.6387,4.4686,11.0233,9.2738,16.343,14.1247
		c5.1888,4.7315,10.335,9.5368,15.1641,14.6282c4.892,5.1578,9.4323,10.6554,14.0179,16.0958
		c5.2219,6.1952,10.3921,12.4371,15.4429,18.7717c1.9651,2.4647,3.5464,5.2359,5.2972,7.871
		c3.5937,5.4088,7.3552,10.7157,10.7282,16.2589c3.5096,5.7677,6.7464,11.7095,9.9122,17.6762
		c3.3838,6.3773,6.7396,12.7833,9.7501,19.3409c3.1195,6.7952,6.0155,13.7103,8.6392,20.7116
		c3.7092,9.8982,7.316,19.848,10.5298,29.9151c3.4891,10.9292,6.742,21.9497,9.6175,33.0547
		c3.5356,13.6544,6.4519,27.4679,9.8558,41.158c5.2645,21.1725,7.6184,42.787,9.8605,64.4037
		c1.822,17.5656,3.4331,35.1658,4.5625,52.7876c1.8097,28.2361,1.744,56.4821-2.8479,84.4929
		c-2.5912,15.8071-5.6106,31.567-9.1335,47.1911c-2.7809,12.334-6.4464,24.4814-10.0517,36.6129
		c-3.0358,10.2153-6.3954,20.3423-9.9009,30.4077c-2.9704,8.529-6.3062,16.9327-9.5928,25.3478
		c-0.7422,1.9001-1.8853,3.66-2.9876,5.3929c-0.3146,0.4945-1.1276,0.9274-1.7245,0.9442
		C615.2318,660.3316,611.9738,660.2839,608.265,660.2839z"/>
	<path class="st0" d="M163.5616,82.9716c-1.7763,0.1477-3.7177,0.8349-5.3006,0.3506c-7.2574-2.2203-13.4066,0.5279-19.3687,3.9843
		c-3.7241,2.159-7.3084,4.5967-10.7758,7.153c-8.389,6.1845-16.1978,13.0467-22.5075,21.3933
		c-3.9575,5.235-7.6997,10.6587-11.1779,16.2232c-3.676,5.881-7.0687,11.9529-10.3186,18.0828
		c-3.2922,6.2097-6.4615,12.5018-9.3164,18.9216c-3.6624,8.2358-7.1419,16.5645-10.3589,24.9836
		c-3.2865,8.6009-6.4054,17.2828-9.1534,26.0683c-3.6417,11.6425-7.2449,23.3236-10.1492,35.1636
		c-3.7054,15.1058-6.68,30.3904-9.9989,45.5915c-5.1174,23.4385-7.2072,47.2663-9.5007,71.0914
		c-3.3811,35.1222-3.5413,70.3122-2.8899,105.5228c0.2064,11.1554,0.8033,22.3535,2.1107,33.427
		c2.0174,17.0882,4.3248,34.1721,7.3894,51.0984c3.2242,17.8079,7.2655,35.479,11.3753,53.1107
		c2.3174,9.942,5.4312,19.7022,8.3271,29.5026c0.6644,2.2485-0.0684,3.1589-2.0968,3.7239
		c-4.1192,1.1473-7.3516-0.2943-8.7502-4.2946c-2.0638-5.9032-3.9513-11.8682-5.8983-17.8121
		c-2.3315-7.1177-4.5987-14.2569-6.9785-21.3584c-5.8909-17.5789-8.7273-35.8272-12.2507-53.9536
		c-7.9668-40.9861-8.6414-82.3598-7.6887-123.8728c0.6003-26.1556,1.7354-52.275,4.5125-78.3007
		c0.6065-5.6839,1.1895-11.3846,2.159-17.0128c3.0743-17.8488,6.0273-35.7274,9.6101-53.4767
		c2.5753-12.7577,5.8258-25.3975,9.2581-37.9579c2.6418-9.6676,5.891-19.1792,9.1367-28.6689
		c3.0105-8.802,6.1854-17.5589,9.6403-26.1946c2.9488-7.3708,6.2488-14.6128,9.6724-21.7785
		c2.8378-5.9398,5.991-11.7355,9.1719-17.5028c3.266-5.9216,6.3053-12.0385,10.2206-17.5146
		c5.2856-7.3927,11.0007-14.5406,17.1304-21.2462c4.2119-4.6077,9.5863-8.1296,14.1823-12.4144
		c7.1864-6.6998,16.0448-10.2967,24.8073-14.2017c7.4201-3.3068,14.8833-3.417,22.4869-1.1631
		c1.257,0.3726,2.2818,1.5288,3.4138,2.3229C163.6448,82.2991,163.6032,82.6353,163.5616,82.9716z"/>
	<path class="st0" d="M418.9361,307.7501c-5.4542,3.2281-10.4937,5.2959-14.4514,9.4489c-3.6556,3.836-8.014,7.0321-12.238,10.2825
		c-1.7842,1.373-3.9935,1.3747-6.4174-0.255c1.6482-1.7942,3.1015-3.4867,4.6729-5.0615c2.4708-2.4762,4.8802-5.0437,7.5695-7.2653
		c4.4282-3.6581,9.0267-7.1137,13.6129-10.5757c6.0316-4.5533,13.1727-6.2053,20.3951-7.6008
		c7.2985-1.4102,14.4953-0.5034,21.5607,1.3255c4.3972,1.1382,8.1471,0.6568,11.7223-2.2605
		c1.0092-0.8235,2.7229-0.7838,4.8296-1.3235c-1.2381,4.0813-4.3697,4.5536-6.9069,6.21c5.4512,2.7636,10.8199-1.0948,16.045-0.0833
		c0.1028,0.3621,0.2056,0.7242,0.3084,1.0863c-2.4922,0.9871-4.9843,1.9742-7.6062,3.0127c2.1045,2.163,4.5529,2.348,7.3455,1.4478
		c1.1589-0.3736,2.4589-0.3096,3.6947-0.4446c0.1353,0.3923,0.2705,0.7846,0.4058,1.1769
		c-1.2604,0.7551-2.5208,1.5101-3.9316,2.3553c1.9056,3.1273,5.9462,2.3244,8.7335,4.5739
		c-1.6938,0.3582-3.3877,0.7164-5.2184,1.1035c0.0563,0.4042,0.1945,0.8335,0.1591,1.2479c-0.1034,1.21,0.1469,3.0761-0.5037,3.4916
		c-1.7,1.0856-3.754,1.226-5.458-0.4706c-6.6863-6.657-8.0929-7.4276-17.5812-9.7166
		C454.4506,307.6974,431.1118,302.8843,418.9361,307.7501z"/>
	<path class="st0" d="M290.451,327.5422c-2.9888,1.0608-5.1399,1.3326-7.3077-0.678c-2.5782-2.3911-5.4483-4.4644-8.127-6.7513
		c-1.6404-1.4006-3.006-3.1659-4.7636-4.3779c-3.9708-2.738-8.1082-5.2343-12.3745-7.9544
		c-11.8427-5.6228-31.8215-0.174-40.8183,1.3379c-6.1084,2.2197-12.1345,2.9238-16.3705,7.9221
		c-1.3065,1.5416-2.6078,3.8279-5.4793,3.2741c-2.1787-0.4203-3.3953-1.2119-2.4291-3.6424c0.2194-0.552,0.2399-1.183,0.3515-1.7749
		c-1.8468-0.3676-3.5403-0.7047-5.2338-1.0417c0.0036-0.2211,0.0072-0.4422,0.0108-0.6633c2.9925-1.0887,5.985-2.1774,9.5395-3.4706
		c-2.1167-1.2608-3.4336-2.0453-4.7505-2.8297c0.1053-0.2841,0.2107-0.5683,0.316-0.8524c3.5273-1.5006,7.8994,3.1437,10.959-1.4486
		c-2.3869-0.8783-4.9087-1.8062-7.4304-2.7341c0.0703-0.402,0.1406-0.804,0.2109-1.206c1.5627,0,3.1772-0.2548,4.6779,0.0501
		c3.7473,0.7616,7.4459,1.5846,11.5234,0.1437c-2.2855-1.8984-5.7496-2.0059-6.7229-5.4243
		c1.7856-0.9668,3.3337-0.8506,4.7761,0.4125c3.2975,2.8875,6.9902,3.4961,11.17,2.2762
		c11.9865-3.4982,23.7874-2.331,35.1898,2.2552c4.3748,1.7596,8.6777,4.2083,12.3062,7.2006
		c6.3148,5.2076,12.095,11.0659,18.0615,16.6915C288.6336,325.1026,289.3261,326.1662,290.451,327.5422z"/>
	<path class="st0" d="M336.3195,545.6013c-11.5732-0.5228-20.2323-1.8837-27.4836-7.6562
		c-2.4544-1.9539-4.5274-4.3837-6.9615-6.3668c-6.0538-4.9321-8.5294-11.9366-11.2843-18.8198
		c-0.8607-2.1504-2.303-4.107-2.9175-6.309c-1.5074-5.4017-2.8633-10.8603-3.9404-16.3625c-0.7585-3.8753,1.7982-7.854,5.7888-8.555
		c6.0459-1.062,12.1867-1.6767,18.3121-2.1742c13.8345-1.1236,27.6831-2.0757,41.5285-3.0614
		c4.435-0.3157,8.8901-0.3898,13.3145-0.804c5.6602-0.53,11.2986-1.2918,16.9463-1.955c0.4508-0.0529,0.8996-0.1239,1.3508-0.1725
		c8.8201-0.9518,9.8691-0.1769,10.9435,8.6476c1.3752,11.2953-0.7035,22.1585-5.5686,32.2578
		c-4.5257,9.3948-11.657,16.4733-20.5285,22.4179C355.8217,543.3876,345.0136,544.9271,336.3195,545.6013z M386.7818,475.2271
		c-1.2104,0.067-2.3702,0.0994-3.5241,0.1997c-20.8658,1.815-41.729,3.6602-62.597,5.4489
		c-8.4919,0.7279-17.0031,1.2422-25.4875,2.0432c-3.8264,0.3611-5.7859,3.2039-4.9301,6.9166
		c2.582,11.2011,5.6701,22.2505,11.4478,32.3071c1.6534,2.8779,3.5598,5.679,5.755,8.1566c1.957,2.2087,4.6147,3.7811,6.7101,5.886
		c3.2847,3.2997,7.4155,4.8008,11.7414,5.7244c10.3694,2.2139,20.4272,1.0041,29.8719-3.834
		c3.1635-1.6204,5.8681-4.1148,8.8744-6.0682c6.1494-3.9957,10.7007-9.5547,13.678-16.0062
		c2.999-6.4984,5.3207-13.428,6.961-20.3987c1.399-5.945,1.4272-12.2151,2.0057-18.3467
		C387.3433,476.6719,386.9987,476.0505,386.7818,475.2271z"/>
	<path class="st0" d="M397.8835,258.9539c0.4818-3.1347,2.2951-5.1973,3.9425-7.4239c5.5343-7.4795,13.9357-8.4675,22.1129-9.9049
		c14.1682-2.4905,28.1343-0.5769,41.7738,3.0885c9.7032,2.6076,18.1996,8.024,25.9911,14.427
		c1.9488,1.6015,4.1493,2.8942,6.1289,4.4616c1.1175,0.8849,2.3397,1.8926,2.9111,3.1248c0.3965,0.8553-0.0168,3.0324-0.4499,3.1446
		c-1.1944,0.3091-3.2251,0.3431-3.8045-0.3945c-4.7189-6.0064-11.3331-9.0693-18.1481-11.4605
		c-17.2294-6.0453-34.984-6.973-52.9251-4.0411c-8.67,1.4169-17.2625,3.3073-25.893,4.9681
		C399.1136,259.0226,398.6754,258.9539,397.8835,258.9539z"/>
	<path class="st0" d="M162.7655,63.8062c0.6494-1.9549,1.0588-3.9327,1.9348-5.6762c2.1064-4.1924,4.2456-8.3909,6.727-12.3651
		c1.9863-3.1812,5.3685-3.8318,8.8997-3.4374c3.4835,0.3891,5.7359,2.6157,6.4556,5.799c0.6852,3.0308,1.269,6.4184,0.5901,9.3458
		c-1.0285,4.4344-2.8745,8.7681-4.9691,12.8379c-1.6661,3.2374-4.9986,5.1086-8.6534,4.5994
		c-8.599-1.198-17.1629-2.7155-25.6683-4.4584c-1.6373-0.3355-3.9894-2.1527-4.1703-3.5284
		c-0.3169-2.4103,2.4003-3.2745,4.3992-3.5128c3.2998-0.3934,6.6639-0.3313,9.9994-0.3002
		C159.7348,63.1232,161.1557,63.5413,162.7655,63.8062z"/>
	<path class="st0" d="M181.9192,106.9921c-6.5839-2.6028-6.8755-4.0695-2.5042-10.6737c-0.2737-0.0547-0.5493-0.078-0.8027-0.1657
		c-1.8089-0.6261-3.9181-1.1695-3.9475-3.51c-0.032-2.5488,2.3539-2.9224,4.0975-3.1528c3.9327-0.5195,7.9209-0.795,11.886-0.7894
		c1.2398,0.0017,3.1323,0.9627,3.524,1.9578c0.358,0.9092-0.6902,2.6254-1.5042,3.6916c-1.8824,2.4656-3.9983,4.7529-6.3728,7.5249
		c1.6111,0.45,2.5356,0.6783,3.4409,0.9667c2.8565,0.9101,3.6556,2.6911,2.4808,5.4761c-0.0352,0.0835-0.0796,0.1631-0.1158,0.2463
		c-0.755,1.7304-2.3906,3.7008-2.0043,5.1211c0.3526,1.2963,2.9935,1.8703,4.4479,2.9932c1.687,1.3025,3.7157,2.5969,4.5824,4.3859
		c0.6576,1.3573-0.1472,3.5116-0.5408,5.2573c-0.2473,1.0968-1.1438,2.0486-1.3835,3.1454
		c-0.4336,1.9844-0.0816,3.424,2.5218,3.7414c2.3966,0.2922,4.707,1.2667,7.0657,1.9022c3.0247,0.815,4.324,3.0248,4.925,5.8777
		c0.9825,4.6642,1.1176,9.1347-1.9501,13.2543c-1.5049,2.0209-5.3284,3.1635-7.3497,1.5954
		c-0.5356-0.4155-0.5751-1.8227-0.4234-2.7023c0.3774-2.1871,1.5094-4.3531,1.4239-6.491c-0.2792-6.9758-1.7145-8.4297-8.4808-9.865
		c-0.9733-0.2065-1.941-0.4655-2.8852-0.7788c-5.7999-1.925-5.5854-6.0044-3.3119-10.0418c1.2131-2.1543,1.152-3.6432-0.9277-4.9921
		c-2.5586-1.6595-5.0921-3.3581-7.6605-5.0022c-2.0257-1.2966-1.7599-2.8278-0.6574-4.5869
		C180.3413,110.023,181.0483,108.5797,181.9192,106.9921z"/>
	<path class="st0" d="M320.8114,438.7001c-3.7719-1.0878-7.0987-2.36-9.3271-5.4179c-0.2774-0.3806,0.4473-2.1422,0.6779-2.1362
		c1.4398,0.0381,2.9391,0.2079,4.2898,0.693c2.1199,0.7613,4.15,1.7811,6.1912,2.7482c0.5975,0.2831,1.3141,0.6562,1.5725,1.1853
		c0.1548,0.317-0.3451,1.1872-0.7751,1.5061C322.6334,437.877,321.6634,438.256,320.8114,438.7001z"/>
	<path class="st0" d="M386.7818,475.2271c0.2169,0.8234,0.5615,1.4448,0.5064,2.0286c-0.5785,6.1316-0.6068,12.4017-2.0057,18.3467
		c-1.6403,6.9708-3.962,13.9003-6.961,20.3987c-2.9773,6.4514-7.5286,12.0105-13.678,16.0062
		c-3.0063,1.9534-5.7109,4.4478-8.8744,6.0682c-9.4447,4.8381-19.5025,6.0479-29.8719,3.834
		c-4.3259-0.9236-8.4567-2.4247-11.7414-5.7244c-2.0955-2.105-4.7532-3.6773-6.7101-5.886
		c-2.1952-2.4776-4.1016-5.2786-5.755-8.1566c-5.7777-10.0566-8.8658-21.106-11.4478-32.3071
		c-0.8558-3.7126,1.1037-6.5554,4.9301-6.9166c8.4845-0.801,16.9956-1.3153,25.4875-2.0432
		c20.868-1.7887,41.7312-3.6339,62.597-5.4489C384.4116,475.3265,385.5714,475.2941,386.7818,475.2271z"/>
</g>
</svg>
