<?xml version="1.0" encoding="utf-8"?>
<!-- Generator: Adobe Illustrator 24.3.0, SVG Export Plug-In . SVG Version: 6.00 Build 0)  -->
<svg version="1.1" id="Layer_1" xmlns="http://www.w3.org/2000/svg" xmlns:xlink="http://www.w3.org/1999/xlink" x="0px" y="0px"
	 viewBox="0 0 863.808 1080.2432" style="enable-background:new 0 0 863.808 1080.2432;" xml:space="preserve">
<style type="text/css">
	.st0{fill:#FFFFFF;}
</style>
<g>
	<path class="st0" d="M774.5315,504.582c0.7109,12.1705,1.2567,23.7642,2.0923,35.337c1.5825,21.9144,3.2415,43.824,5.039,65.7217
		c1.4706,17.9137,3.2109,35.8053,4.7929,53.71c4.0199,45.4973,5.1395,91.006,0.3572,136.5248
		c-1.4435,13.7401-3.748,27.322-7.5059,40.649c-1.8958,6.7233-4.8247,12.7982-8.8934,18.5217
		c-25.4764,35.8386-53.5256,69.6729-81.0667,103.8886c-11.1489,13.851-24.2073,26.0132-37.6378,37.7706
		c-17.1443,15.0086-35.7054,27.9768-54.7083,40.4231c-16.0388,10.5048-33.2501,18.5626-51.1148,25.3618
		c-9.4354,3.5909-19.382,4.6858-29.2368,6.1744c-31.2132,4.7153-62.2583,2.5079-93.2733-2.2539
		c-29.9954-4.6053-59.4455-11.8224-88.9918-18.4979c-39.0961-8.8331-75.7341-24.1542-109.5543-45.6511
		c-23.0634-14.6595-43.6325-32.5216-62.5215-52.3307c-23.0378-24.1602-41.0443-51.6872-55.6006-81.5947
		c-3.4955-7.182-6.9056-14.4062-10.4633-21.5571c-9.8926-19.884-15.407-41.0346-18.6602-62.9032
		c-4.2815-28.7805-6.4511-57.7302-7.53-86.7823c-0.4847-13.053-1.022-26.104-1.547-39.4496
		c-1.2629-0.1719-2.4793-0.5078-3.6863-0.4769c-25.5757,0.6559-41.8456-12.5153-52.1303-34.8116
		c-8.4354-18.2872-5.567-35.3901,5.264-51.6025c7.7042-11.532,17.2672-20.9306,31.6898-24.7628
		c-6.6297-6.1153-9.6397-13.655-12.3498-21.3282c-6.2592-17.7221-9.7654-36.0609-12.0419-54.6651
		c-5.0099-40.9428-7.9565-82.0421-9.4628-123.256c-1.2121-33.1637,2.2126-65.953,13.2376-97.1497
		c13.4604-38.0882,33.4005-72.6709,60.9928-102.8359c23.8555-26.0798,51.6996-46.7739,81.9159-64.3271
		c36.8396-21.4008,75.6823-38.5185,117.0309-49.4153c38.0591-10.0299,76.764-15.8954,116.125-17.1116
		c19.2405-0.5945,38.4883-1.0175,57.736-1.3045c24.9774-0.3724,49.638,2.5444,74.0846,7.5492
		c23.4734,4.8055,46.8589,9.9355,69.6272,17.5362c46.1122,15.3935,86.1329,40.7408,121.0203,74.3554
		c21.679,20.8881,40.608,44.0434,55.8796,70.0539c18.0026,30.6618,28.6061,63.8503,32.9065,99.0488
		c1.5179,12.4242,2.5805,24.9315,3.1926,37.4331c1.2772,26.0894-1.4982,51.8854-7.0999,77.353
		c-6.472,29.424-13.2112,58.7892-19.9008,88.1649c-0.8041,3.5309-2.2193,6.9238-3.0009,10.4583
		c-1.1315,5.1178-4.5672,7.1111-9.3358,7.5897C778.6031,504.2999,776.9977,504.3921,774.5315,504.582z M367.0316,306.8299
		c-1.1096-0.8797-2.0783-1.677-3.077-2.4348c-5.3502-4.0597-10.4362-8.5441-16.1083-12.0904
		c-30.9644-19.3593-63.5061-35.1242-99.5753-42.6059c-15.4684-3.2086-30.9758-6.21-46.7762-7.1562
		c-10.0594-0.6025-19.664,1.1401-27.4374,8.1189c-4.968,4.4601-9.9997,9.0458-14.0182,14.3248
		c-7.6905,10.1028-14.6062,20.7921-21.9962,31.1287c-2.7365,3.8276-5.5922,7.6661-8.9433,10.9362
		c-5.5406,5.4067-10.168,11.3148-13.1634,18.4896c-0.8344,1.9985-1.9923,3.8759-3.1257,5.7332
		c-4.5978,7.5343-7.5339,15.7184-9.1901,24.3275c-1.3019,6.7672-2.1128,13.6273-3.2442,20.4291
		c-1.3218,7.946-1.2204,15.6404,1.0324,23.5877c2.8864,10.1823,2.5903,20.852,2.4555,31.3989
		c-0.5453,42.6693-1.0911,85.3385-1.6481,128.0076c-0.0427,3.2698-0.1894,6.5381-0.2611,9.8076
		c-0.7164,32.683-1.9284,65.3649-2.0116,98.0497c-0.1018,39.954,1.1567,79.8859,4.8693,119.7131
		c1.8848,20.2201,5.8228,39.8474,14.2016,58.4518c4.3236,9.6002,8.2097,19.4136,12.8927,28.8328
		c12.5738,25.2899,27.1169,49.2433,46.889,69.7963c14.9057,15.4944,30.8485,29.7061,47.9563,42.6907
		c23.1903,17.601,48.7848,30.7314,75.9,40.9952c22.8005,8.6304,46.452,14.1584,70.2444,19.3627
		c26.4436,5.7841,52.8661,11.6171,79.876,13.7308c17.5338,1.3722,35.2007,2.4092,52.7206-0.5342
		c9.0971-1.5282,18.4147-2.0481,27.1042-5.6587c17.4708-7.259,34.4498-15.4246,50.107-26.1659
		c6.5864-4.5186,13.6769-8.3599,19.9594-13.2523c14.8834-11.5904,29.8759-23.1115,43.9827-35.6103
		c17.8704-15.8331,32.1937-34.9648,46.8357-53.72c13.4068-17.173,26.8286-34.3358,40.0558-51.6467
		c5.2855-6.9172,9.7746-14.4506,15.1689-21.2744c4.5045-5.6982,7.4423-11.907,9.3939-18.8222
		c3.9579-14.0245,6.6501-28.2908,8.0262-42.7607c3.5301-37.1208,4.4476-74.3063,1.9789-111.5441
		c-0.7448-11.2335-1.3326-22.4777-2.1319-33.7071c-1.6758-23.544-3.4775-47.079-5.162-70.6223
		c-0.9979-13.9458-1.806-27.9053-2.8176-41.85c-1.1166-15.393-2.4742-30.7689-3.5369-46.1653
		c-1.7027-24.6704-1.438-49.368-0.7068-74.0663c0.069-2.331,0.2518-4.5112-1.6024-6.605c-1.6077-1.8156-1.6891-4.1577,0.2764-6.3753
		c0.9389-1.0594,1.5506-2.9344,1.3972-4.3403c-0.5082-4.6574-0.8693-9.4495-2.2859-13.8699
		c-10.0601-31.3924-22.8907-61.5809-40.0566-89.8137c-7.6366-12.56-14.6867-25.5517-23.2354-37.4629
		c-10.5733-14.7322-22.4084-28.5604-33.7538-42.7347c-1.3214-1.6508-2.9949-3.0195-4.5487-4.5622
		c-2.0696,1.568-3.7537,2.8439-5.3776,4.0743c1.364,1.2933,2.617,2.4813,3.9913,3.7843c-2.3936,3.8348-6.0743,3.882-9.319,4.4536
		c-11.2576,1.9829-22.5565,3.729-33.8318,5.6121c-29.4476,4.9182-58.2115,12.5216-85.9935,23.3988
		c-30.7497,12.0391-59.2551,28.2403-85.5981,48.2348c-8.5257,6.471-17.2203,12.7692-26.2159,18.5587
		c-11.3887,7.3299-23.9521,8.0172-36.6833,4.2601C363.4607,317.4682,362.489,314.1645,367.0316,306.8299z M229.4807,229.0175
		c-2.0701-2.1434-3.1376-3.2907-4.2492-4.3936c-18.1848-18.0422-36.0729-36.3774-52.0634-56.4211
		c-6.6618-8.3504-12.7385-17.1942-18.6615-26.093c-2.0478-3.0766-3.215-6.9069-4.0733-10.56
		c-0.8402-3.5761,0.4733-5.2971,3.7977-6.9182c7.7206-3.7651,17.6487-1.9333,23.4402,4.4668
		c18.0315,19.9266,35.8857,40.0156,54.0694,59.802c14.4964,15.774,29.3849,31.1874,44.0758,46.7831
		c3.5566,3.7757,7.7473,6.2981,12.6832,8.0679c8.1871,2.9355,16.1516,6.4904,24.221,9.757c0.99,0.4007,2.0483,0.6326,3.075,0.9427
		c-0.9785-1.6915-2.2169-2.7293-3.5-3.7087c-30.9377-23.6144-60.4278-48.8764-87.3065-77.0788
		c-12.0441-12.6372-23.4908-25.8126-32.3689-40.932c-3.0108-5.1274-5.4396-10.6771-7.4761-16.2734
		c-2.025-5.5648-0.4675-7.62,5.4708-8.4425c4.8381-0.6701,9.5571,0.0634,13.452,3.0939c3.2713,2.5453,6.3356,5.4506,9.08,8.5598
		c6.0071,6.8055,11.6695,13.9139,17.6194,20.7712c31.3821,36.1678,65.8084,69.2312,102.8957,99.4626
		c16.9795,13.8406,33.7157,28.2847,54.7812,36.0659c1.2754,0.4711,3.0114,2.4158,2.8521,3.4038
		c-0.2311,1.4339-1.7459,3.1141-3.1504,3.8223c-4.5389,2.2887-9.4895,2.3972-14.3722,1.3739
		c-4.9139-1.0298-9.7525-2.4192-15.6573-3.9122c3.6624,3.3606,6.7238,5.8712,9.4196,8.7269
		c2.7111,2.8718,5.0584,6.0868,7.4772,9.0439c11.1455-8.3672,22.1278-16.6118,34.0055-25.5286
		c-10.4286,0.2538-18.2865-3.856-25.9347-8.5354c-2.3223-1.4208-4.6331-2.8635-6.9046-4.3638
		c-19.1173-12.6267-37.1143-26.7448-54.8645-41.1951c-30.1695-24.5608-59.1833-50.3844-85.7278-78.872
		c-5.8075-6.2326-11.2544-12.8321-16.4791-19.5639c-2.7543-3.5488-4.9319-7.6224-6.8868-11.6912
		c-1.6777-3.4919-0.484-5.3852,3.2854-6.4233c0.8683-0.2391,1.7883-0.3038,2.6891-0.4089
		c7.0339-0.8204,12.681,1.7962,17.6454,6.6797c33.6678,33.1189,68.3415,65.158,103.9881,96.1335
		c21.7977,18.9413,43.9141,37.5065,67.7972,53.8289c1.7736,1.2121,3.7565,2.1428,5.7085,3.0634
		c2.7429,1.2936,5.5481,2.4552,8.9463,3.9449c2.4576-1.3659,5.5451-3.0819,8.9454-4.9718
		c-5.4866-3.3526-10.644-5.9857-15.2128-9.4051c-9.153-6.8506-18.1306-13.9552-26.9225-21.2654
		c-35.093-29.1785-67.9285-60.7835-99.6151-93.5843c-15.7946-16.35-30.5343-33.6013-42.0267-53.3767
		c-1.0511-1.8086-2.2971-3.5038-3.8105-5.793c2.132-0.9185,3.673-1.9584,5.3393-2.2304c5.1992-0.8486,10.1652-0.0835,14.4467,3.2564
		c2.1443,1.6727,4.2401,3.4273,6.212,5.2985c36.3569,34.4996,72.544,69.1798,109.0912,103.4764
		c19.3253,18.1352,39.2441,35.6394,58.9794,53.3342c1.663,1.491,3.8878,2.9891,5.9924,3.2245
		c4.6366,0.5186,8.9086,1.5272,12.6277,4.9646c25.2515-12.6099,52.0825-20.4297,79.4985-27.4202
		c-6.7114-2.0941-9.9492-7.4782-13.5436-12.4383c-9.27-12.7919-18.3741-25.7054-27.746-38.4217
		c-28.6534-38.8782-57.6658-77.4718-91.2057-112.3878c-2.1807-2.2702-2.096-4.1642,0.5266-5.8011
		c1.5027-0.9379,3.2864-1.6783,5.0279-1.9344c5.8363-0.8581,11.696-0.7435,17.0074,2.1361c4.1309,2.2396,8.1899,4.726,11.9132,7.582
		c11.5575,8.8652,21.9726,19.0073,31.8683,29.6652c32.6724,35.1889,58.8674,75.0955,83.9356,115.7969
		c2.1166,3.4366,3.1445,7.5437,4.8033,11.649c0.6309-0.0735,1.8945-0.1521,3.1292-0.3842c1.1743-0.2207,2.3185-0.6019,4.2161-1.1112
		c-34.8494-60.2517-71.0095-118.8285-118.9863-168.9686c2.5746-3.3363,3.2818-3.8775,6.3666-4.2629
		c4.9462-0.618,9.8929-0.4366,14.3455,1.9896c4.4462,2.4227,8.9168,4.9353,12.9301,7.9944
		c18.6196,14.1928,34.3848,31.2543,48.5189,49.8025c19.7503,25.9184,36.2953,53.8979,51.8657,82.4574
		c4.9337,9.0495,9.3455,18.3835,14.1799,27.9508c4.6886-0.2784,9.5652-0.5927,14.4448-0.8508
		c4.9476-0.2616,9.8979-0.4676,14.9472-0.7027c-1.7647-2.728-3.2689-4.9698-4.6901-7.2629
		c-13.2935-21.4499-26.3184-43.0713-39.9218-64.3226c-16.359-25.5564-33.9045-50.2817-53.886-73.1986
		c-2.1165-2.4274-4.1434-4.3818-7.6943-4.0744c-1.0858,0.094-2.2558-0.7874-3.2787-1.1804
		c-0.2277-1.9705-0.3184-3.6023-0.6186-5.1945c-0.8599-4.5598-0.1573-5.9106,4.2584-6.7246
		c5.8725-1.0824,11.7826-0.7198,16.9139,2.4144c6.013,3.6726,12.0177,7.5484,17.3334,12.1382
		c17.7119,15.2931,32.2814,33.4092,45.382,52.6879c19.2963,28.3965,36.9394,57.7731,51.1777,88.5949
		c3.4169,0.329,6.5657,0.6322,10.5389,1.0148c-2.1863-5.6688-4.0076-11.1052-6.3362-16.3147
		c-17.1835-38.4427-38.3624-74.5559-63.6721-108.2145c-2.9213-3.8849-4.9269-8.8286-10.9805-9.6559
		c-2.5167-0.3439-2.4437-5.3014,0.0297-6.5596c1.2469-0.6342,2.7526-0.9145,4.1684-1.0344
		c5.5688-0.4714,10.538,1.5108,14.5839,5.0003c6.7219,5.7974,13.4235,11.7122,19.4301,18.2262
		c14.4753,15.6984,26.1565,33.4359,36.4517,52.1033c9.7419,17.6642,18.9768,35.5845,25.5139,54.7186
		c1.9797,5.7948,3.0524,11.9257,4.2097,17.966c0.7689,4.0134-0.0645,7.6482-4.9645,9.2585
		c3.3836,3.3445,5.9046,6.9958,10.2937,9.3997c0.1607-1.8575,0.3439-3.0912,0.3632-4.3273
		c0.4308-27.5042-1.6173-54.8267-7.0873-81.7869c-1.7562-8.6556-4.9424-17.0418-7.7858-25.4459
		c-1.1138-3.292-2.9277-6.4164-7.2524-8.1624c4.9953-1.9867,8.8992-0.9339,12.0055,1.6107c3.459,2.8334,6.7094,6.152,9.2672,9.8076
		c5.4795,7.8317,8.4514,16.84,10.6009,26.0814c3.6381,15.64,4.8036,31.5979,5.2033,47.5721
		c0.2629,10.5057-0.3678,21.0441-0.8762,31.5544c-0.2468,5.0994-1.2986,10.0993-5.9641,13.6356
		c3.3508,3.9015,6.5048,7.5738,9.848,11.4663c0.8657-1.051,1.5632-1.6645,1.968-2.4323c1.2679-2.4055,2.6452-4.7872,3.5911-7.3233
		c7.6212-20.4323,11.2643-41.644,12.1518-63.3727c0.0428-1.048-0.1178-2.1551-0.43-3.158
		c-1.4863-4.7751,0.3579-7.7972,5.3536-7.9115c2.9334-0.0671,5.8853,0.6767,9.2095,1.1048c-1.68-2.3894-3.1904-4.6307-4.7941-6.8031
		c-10.2562-13.8934-20.9887-27.3897-33.2271-39.6211c-28.2848-28.2684-60.2138-51.2158-97.2024-66.8545
		c-21.8574-9.2412-44.8007-14.6151-67.8725-19.6215c-22.397-4.86-44.9337-8.6728-67.9281-8.6252
		c-31.7863,0.0658-63.5533,0.8231-95.197,4.1923c-27.139,2.8896-53.944,7.7895-79.877,16.2621
		c-46.0099,15.0319-89.0296,35.9526-127.8536,65.3759c-27.7548,21.0344-50.0425,46.7534-69.4404,75.3073
		c-0.621,0.9141-0.8992,2.0611-1.6978,3.9541c12.4107-4.4101,21.2789,0.638,29.1929,8.408
		c4.1444,4.0689,7.9905,8.4407,12.108,12.5383c6.1736,6.1438,12.468,12.1661,18.7097,18.2415
		c1.684,1.6391,3.4118,2.2134,5.8849,1.4034c19.8176-6.4911,40.1028-8.0925,60.7591-5.4756
		C222.9454,228.4734,225.567,228.6482,229.4807,229.0175z M138.9583,244.6434c-0.2271-0.3251-0.358-0.7072-0.6223-0.8631
		c-17.4037-10.2683-30.8718-24.4939-41.7474-41.3581c-1.4394-2.232-3.1842-4.267-5.1436-6.8653
		c-4.9738,8.3175-9.2977,16.2959-13.298,25.0348c1.7811,0,2.6732,0.0903,3.5419-0.0141c8.1051-0.9736,14.5794,1.8939,19.5667,8.2655
		c2.1237,2.7132,4.2655,5.416,6.284,8.2068c4.8902,6.7607,9.6935,13.5842,14.585,20.3439c0.6743,0.9319,1.6504,1.6452,2.3622,2.3383
		C129.513,254.4915,134.2418,249.561,138.9583,244.6434z M59.3822,561.5539c-13.6462,20.833-8.9036,63.399,8.9918,75.9794
		c0-24.7681,0-49.2269,0-73.2852C65.2837,563.3222,62.5757,562.5108,59.3822,561.5539z M104.1564,293.4524
		c3.0423-5.4879,5.7248-10.3267,8.4175-15.1838c-15.3223-14.5157-28.1208-30.679-38.2031-49.9723
		c-3.9752,8.1701-7.9236,15.3818-10.5314,23.5239c7.7077,2.797,12.8592,8.1707,17.6866,13.8117
		c5.5307,6.4628,10.748,13.1938,16.1053,19.8052C99.6591,287.9395,101.6979,290.433,104.1564,293.4524z M78.8777,334.6583
		c4.9611-9.1239,9.3044-17.1117,13.3345-24.5235c-5.0182-4.2865-9.8979-7.8055-13.9751-12.0885
		c-6.2426-6.5575-11.9256-13.6472-17.8634-20.4961c-0.8822-1.0175-1.8589-1.953-3.3389-3.4971
		c-1.2213,6.5486-2.241,12.2484-3.3653,17.9274c-0.4357,2.2011,0.549,3.726,1.7355,5.4384
		c4.6434,6.7013,9.2401,13.4419,13.6141,20.3205C72.2214,322.7751,75.0485,328.0494,78.8777,334.6583z M738.3729,300.8875
		c6.4471-8.0387,26.3342-62.9164,23.979-66.5902c-0.9158-0.1455-2.1006-0.3337-3.0505-0.4847
		c-0.4118,0.3938-0.5772,0.4945-0.662,0.6418c-1.0854,1.8845-2.0683,3.8346-3.2503,5.6558
		c-8.761,13.4989-17.0958,27.4098-32.7032,34.523C727.8848,283.3343,732.9891,291.877,738.3729,300.8875z M54.852,428.5412
		c-0.3633,0.1339-0.7266,0.2679-1.0899,0.4018c0.2574,9.3779,0.4953,18.7563,0.8053,28.1325
		c0.0283,0.8553,0.3108,1.8583,0.827,2.5172c5.2267,6.6723,10.5267,13.2872,16.5219,20.8173
		c0.4839-2.727,0.8456-4.2368,1.0056-5.7676c0.4527-4.331,0.5303-8.7234,1.3022-12.9929c0.8855-4.8976-0.3534-8.6457-3.8483-12.222
		c-3.1477-3.221-5.6533-7.082-8.3455-10.732C59.5703,435.3604,57.2397,431.9298,54.852,428.5412z M68.3607,546.8316
		c0.2898-0.5734,0.4361-0.7321,0.4442-0.8975c0.6886-13.9307,1.3373-27.8635,2.0764-41.7914
		c0.1121-2.1125-1.0039-3.3037-2.3747-4.5776c-3.1861-2.9608-6.26-6.0423-9.4291-9.0219c-0.7957-0.7482-1.7791-1.2968-3.3302-2.4039
		c1.7664,17.4883,3.4609,34.0508,6.7863,50.4113c0.4331,2.1309,0.0594,4.4257,0.0594,6.9448
		C64.3371,545.8995,66.4028,546.3781,68.3607,546.8316z M767.8472,290.616c-6.1378,9.2697-11.1991,19.3162-22.8978,22.702
		c3.595,8.9947,6.9783,17.4598,10.8364,27.1126C761.389,323.2602,765.1241,307.1019,767.8472,290.616z M50.1086,335.782
		c0,3.5134-0.2161,7.0457,0.0876,10.5326c0.1612,1.8511,0.8992,3.8401,1.9351,5.395c5.1147,7.677,10.4043,15.2377,15.6668,22.8155
		c0.6321,0.9102,1.474,1.6747,3.0976,3.4887c0-7.2234,0-13.1216,0-19.3056C61.8813,353.3886,57.4151,343.5803,50.1086,335.782z
		 M743.6252,176.5659c-0.3957,0.1886-0.7915,0.3772-1.1872,0.5658c3.2482,10.2931,3.4169,20.7825,1.3835,31.1696
		c-2.0354,10.3971-4.8622,20.6392-7.342,30.9493c6.9604-11.5784,13.1877-23.45,13.6183-37.666
		c1.8948-0.5974,3.8643-1.2184,6.3566-2.0043C752.0309,191.645,747.8281,184.1054,743.6252,176.5659z M772.8669,421.2645
		c3.442-3.2432,5.8557-6.7708,6.5153-11.1799c1.418-9.4796,2.8206-18.9618,4.1836-28.4494
		c0.1562-1.0873,0.0211-2.2165,0.0211-4.5645c-4.1368,8.7324-7.7028,16.2063-11.196,23.7141
		c-0.3618,0.7775-0.4361,1.7621-0.3985,2.6401C772.247,409.373,772.5677,415.3183,772.8669,421.2645z M759.7784,352.2225
		c0.8867,2.9696,1.4899,5.0123,2.1072,7.0507c0.5766,1.9036,1.1483,3.809,1.7587,5.7018c0.6052,1.8766,1.2562,3.7385,1.8872,5.6069
		c0.3708-0.0356,0.7417-0.0712,1.1125-0.1069c2.8599-9.0567,5.7198-18.1135,8.5797-27.1702
		c-0.3093-0.2161-0.6185-0.4322-0.9278-0.6483C771.4481,348.4773,767.5042,352.6942,759.7784,352.2225z M77.9487,423.1572
		c0.4762-0.1154,0.9525-0.2309,1.4287-0.3463c0.8105-6.0974,1.6211-12.1947,2.4242-18.2361c-4.8646,0-9.1091,0-13.8829,0
		C71.3473,410.9267,74.648,417.0419,77.9487,423.1572z M760.4298,230.6662c2.9327-0.5235,5.3977-0.9635,8.1262-1.4505
		c-0.7371-2.1386-1.267-3.8519-1.9191-5.5173c-0.6089-1.5548-1.3477-3.0588-2.4924-5.6223
		C762.7359,222.8499,761.6852,226.4112,760.4298,230.6662z M717.3099,266.2735c2.0038-2.4268,3.6663-4.4399,5.3286-6.4531
		c-0.2268-0.2284-0.4537-0.4568-0.6806-0.6852c-2.4091,0.977-4.8181,1.954-7.6655,3.1088
		C715.3444,263.6487,716.1285,264.6959,717.3099,266.2735z M773.9713,432.6416c-1.4881,4.2273-1.383,8.5092-0.5365,12.8365
		C773.6341,441.1796,776.3123,437.1039,773.9713,432.6416z"/>
	<path class="st0" d="M858.4213,586.831c-0.1519,23.9036-11.4622,44.3062-30.3372,60.8329
		c-8.9692,7.8535-20.0368,9.7658-31.6561,8.8052c-1.7782-0.1469-3.7122-0.5201-5.2067-1.4075
		c-1.5634-0.9284-3.7598-2.6481-3.7062-3.9398c0.0581-1.3991,2.2921-2.8356,3.7794-3.9965
		c0.8053-0.6286,2.0139-0.9127,3.0726-1.0126c3.2814-0.3096,5.8433-1.9791,8.035-4.2069
		c24.3953-24.7982,33.5545-58.6057,19.4984-91.0018c-3.4441-7.9378-8.3652-14.8554-14.946-20.5079
		c-2.4968-2.1445-4.983-3.499-8.8422-2.5635c-3.1125,0.7545-6.8269-0.0637-10.0531-0.9708
		c-2.6874-0.7555-3.2227-3.2702-1.1009-5.0706c2.2648-1.9218,5.0675-3.723,7.9092-4.3649
		c14.2628-3.2216,26.9864,0.7123,38.1778,9.6354c10.8488,8.6499,17.4694,20.2219,21.6175,33.3059
		C857.2063,568.3905,858.3389,576.635,858.4213,586.831z"/>
	<path class="st0" d="M234.6463,544.3955c-17.7392,6.571-23.1879,10.7233-38.4695,16.076
		c-5.5416,2.8835-11.0528,4.3324-15.2053,8.7696c-1.8847,2.0139-4.6454,3.5611-7.3001,4.4365
		c-8.4987,2.8027-17.2009,2.8434-25.6857,0.0057c-2.8071-0.9388-5.4944-2.8314-7.6856-4.8777
		c-3.3617-3.1397-3.4742-6.6329-0.4267-10.1521c2.1111-2.438,4.6481-4.6123,7.3076-6.452
		c10.8522-7.5068,23.0417-12.1957,35.4489-16.381c17.9977-6.0712,36.3626-10.1304,55.4808-9.6434
		c16.1254,0.4108,31.8575,2.9319,46.1784,10.8456c4.2179,2.3308,7.9177,5.6887,11.5864,8.8842
		c1.7228,1.5007,3.5722,3.9585,1.9151,6.1921c-1.2337,1.6629-3.6783,2.8283-5.796,3.3449
		c-3.6084,0.8804-7.0831-0.0037-10.4399-1.8702c-9.9002-5.5048-20.2934-9.6442-31.7174-10.7803
		C244.3473,542.2474,241.3888,542.3934,234.6463,544.3955z"/>
	<path class="st0" d="M626.6801,417.9583c19.2322-0.2234,38.0707,1.9535,56.1376,8.9124
		c13.6738,5.2668,25.9308,12.998,37.4246,21.978c1.8344,1.4332,3.4677,3.2337,4.8433,5.1201
		c2.4921,3.4173,2.4558,6.3211,0.2634,8.3556c-2.2964,2.131-7.1016,2.4986-9.5381,0.0087
		c-4.7134-4.8165-10.6514-7.5078-16.47-10.4311c-11.0324-5.5428-22.1649-10.9054-34.1759-14.0465
		c-17.0668-4.4632-34.2103-3.5398-51.2967-0.1683c-30.2706,5.9729-58.0301,18.2763-84.4325,33.9124
		c-1.5576,0.9225-3.0475,1.9869-4.4631,3.1177c-11.3931,9.1013-24.0203,8.9205-37.137,4.9536
		c-1.1971-0.362-2.3404-1.008-3.4043-1.6859c-3.9822-2.5374-5.0351-5.131-2.5654-9.1031c2.2503-3.6191,5.0802-7.1154,8.3556-9.8153
		c10.1618-8.3764,21.9161-14.1893,33.838-19.5818C556.6691,424.7348,591.1066,418.5946,626.6801,417.9583z"/>
	<path class="st0" d="M645.2853,544.9715c-8.8236-4.8499-29.6652-14.2358-45.3141-15.5195
		c-3.6865-0.7496-5.9533,1.1698-8.1521,2.8123c-5.5547,4.149-11.7969,4.5021-18.1861,3.265
		c-3.3304-0.6449-7.0739-1.7095-7.8961-5.7135c-0.8229-4.0074,2.1454-6.3202,5.0123-8.3254
		c7.9813-5.5826,17.1168-8.0084,26.6288-8.5041c30.1905-1.5731,57.1773,7.8499,81.7617,24.8248
		c2.7731,1.9148,5.2734,4.5324,7.1846,7.3156c2.8112,4.0938,1.5315,7.5582-2.9266,9.7836
		c-8.6712,4.3284-20.7308,2.6958-28.0009-3.6328c-2.0406-1.7764-4.3737-3.2281-6.6367-4.7322
		C647.8958,545.9709,646.8517,545.667,645.2853,544.9715z"/>
	<path class="st0" d="M299.5476,483.5496c-3.1215,0.057-7.7656-1.1598-12.3989-3.0144
		c-16.6673-6.6718-33.3921-13.2038-50.1585-19.623c-16.0199-6.1335-32.6043-6.8058-49.3439-4.1208
		c-7.3192,1.174-14.5539,3.0012-21.7318,4.8928c-6.2749,1.6537-11.4667,5.2016-15.8613,10.0634
		c-5.1302,5.6755-14.5574,6.6082-20.8926,2.3707c-3.6204-2.4216-4.5441-5.3604-2.6842-9.3961
		c2.1138-4.5866,5.6183-7.9728,9.8348-10.6572c8.54-5.4368,18.0415-8.4913,27.763-10.8298
		c22.0318-5.2999,44.3558-7.4742,66.989-5.4535c11.9814,1.0697,23.7811,3.3252,34.931,7.8605
		c12.925,5.2573,25.711,10.8958,38.3216,16.8669c4.8493,2.2961,9.2478,5.7143,13.484,9.0835
		c3.5841,2.8504,3.2044,5.7891-0.7038,8.2705C312.3326,482.8875,306.9192,483.5087,299.5476,483.5496z"/>
	<path class="st0" d="M430.4225,897.9538c-21.1352-0.2097-42.0047-2.3845-62.1951-8.9886
		c-5.3188-1.7397-10.4085-4.188-15.577-6.3734c-1.159-0.49-2.283-1.1405-3.2923-1.8927c-3.3783-2.5178-3.2785-5.1524,0.5743-6.9887
		c2.3982-1.1431,5.142-1.7694,7.7975-2.1193c4.9471-0.6517,9.665,0.5297,14.3705,2.1606
		c32.3277,11.2045,64.999,12.204,97.8273,2.5032c15.424-4.5579,28.4574-13.4484,40.1416-24.2892
		c3.7604-3.4891,7.7952-5.1794,12.8147-4.3835c4.3868,0.6957,5.9999,2.9603,4.7784,7.2876c-0.726,2.5724-1.922,5.0992-3.3438,7.3734
		c-7.2105,11.5332-17.9281,18.7872-30.1618,24.0083C478.2943,893.0212,455.6748,898.571,430.4225,897.9538z"/>
	<path class="st0" d="M432.6406,809.4539c-13.7316-0.464-25.4299-6.5974-35.9989-15.3135
		c-6.3712-5.2542-11.4061-11.6025-14.8987-19.1426c-1.869-4.0352-2.8136-8.2054-2.3819-12.6552
		c0.5018-5.1718,3.0307-8.5507,8.0459-9.6626c2.9369-0.6511,6.1052-0.7354,9.1154-0.4677c4.5668,0.4064,7.2729,2.9807,8.7382,7.6021
		c4.6186,14.5676,14.411,25.296,26.4859,34.1697c1.9611,1.4411,4.1286,1.7452,6.6052,1.8456
		c3.7303,0.1512,7.6078,0.6815,11.0853,1.965c3.6919,1.3625,3.7878,3.8951,0.894,6.6379c-3.1824,3.0163-7.215,4.0604-11.3688,4.6794
		C437.0017,809.4042,434.988,809.3395,432.6406,809.4539z"/>
	<path class="st0" d="M473.0384,214.4433c-2.1394-2.6549-3.9577-5.0817-5.9493-7.3568
		c-27.1405-31.0045-54.2827-62.0075-81.4737-92.9676c-12.2196-13.9134-24.5148-27.7611-36.8556-41.5672
		c-2.6447-2.9587-5.5756-5.6721-8.4816-8.3839c-3.2088-2.9943-2.8651-5.6573,1.3173-7.3879
		c4.6677-1.9314,9.5442-2.0264,14.4415-0.8947c7.7985,1.8022,14.5277,5.8526,20.5228,10.8642
		c11.8303,9.8896,23.7133,19.7722,34.8837,30.3848c34.3058,32.5926,64.8745,68.5166,93.211,106.3646
		c3.26,4.3541,6.3741,8.842,9.2212,13.4735c2.6607,4.3286,1.7749,6.8846-2.895,9.0704c-6.5023,3.0436-13.3693,3.0152-20.2757,1.8321
		c-1.9529-0.3345-3.8425-1.0378-6.1094-1.669c-2.2255,5.5101-7.1252,6.9846-12.4703,7.8446
		c-9.9903,1.6073-19.4068-0.1257-27.3539-6.2917c-13.3256-10.339-26.4972-20.9151-39.2322-31.9689
		c-30.2319-26.2407-57.3448-55.5616-83.3311-85.94c-7.7863-9.1023-15.3289-18.4155-22.8754-27.7195
		c-3.3419-4.1201-2.5493-6.6132,2.6946-8.1091c7.9363-2.2638,15.6404-1.5038,22.1929,3.7947
		c8.1798,6.6144,16.4322,13.226,23.9406,20.5677c23.6217,23.0969,46.7953,46.6516,70.3683,69.7989
		c15.0222,14.7508,30.4728,29.0646,45.6597,43.6489C466.5951,214.1425,469.1476,215.2141,473.0384,214.4433z"/>
	<path class="st0" d="M131.9618,157.4354c6.2184,0.275,11.1319,2.5581,15.2751,7.3118
		c10.8378,12.4344,21.8218,24.7486,33.0267,36.8523c4.7657,5.1479,9.5564,10.3896,16.1624,13.5231
		c3.0944,1.4678,3.0098,4.2337-0.0481,5.687c-2.2358,1.0626-4.805,1.7378-7.2766,1.9302
		c-7.0819,0.5513-13.9187-0.8401-19.5257-5.2796c-8.6572-6.8545-17.2554-13.848-25.2796-21.4175
		c-6.5676-6.1954-12.4418-13.166-18.2511-20.1047c-2.2706-2.7119-3.8386-6.1505-5.1601-9.4827
		c-1.566-3.9487-0.3739-6.1878,3.6657-7.5193C126.9276,158.1524,129.4853,157.9172,131.9618,157.4354z"/>
</g>
</svg>
