<?xml version="1.0" encoding="utf-8"?>
<!-- Generator: Adobe Illustrator 24.3.0, SVG Export Plug-In . SVG Version: 6.00 Build 0)  -->
<svg version="1.1" id="Layer_1" xmlns="http://www.w3.org/2000/svg" xmlns:xlink="http://www.w3.org/1999/xlink" x="0px" y="0px"
	 viewBox="0 0 928.4688 1023.9675" style="enable-background:new 0 0 928.4688 1023.9675;" xml:space="preserve">
<style type="text/css">
	.st0{fill:#FFFFFF;}
</style>
<g>
	<path class="st0" d="M17.5382,680.463c-0.6236-46.6851,3.9521-92.8981,11.9639-138.7824
		c5.5558-31.8187,10.9359-63.7083,17.9121-95.2303c14.1335-63.8622,32.4284-126.573,55.6271-187.7786
		c10.9499-28.8894,23.311-57.1445,39.5253-83.5632c15.1257-24.6449,31.6323-48.3066,50.7185-70.0611
		c10.0493-11.4542,20.3028-22.7614,30.9899-33.6173c24.7915-25.1832,54.8807-41.2447,88.7062-50.9217
		c29.3655-8.4011,59.2214-10.8724,89.5136-8.3233c18.3964,1.5481,36.1784,5.8995,52.7486,14.3544
		c13.046,6.6567,23.3268,16.0282,28.3698,30.1927c1.2098,3.3981,2.1168,6.9594,2.6665,10.5223
		c0.6246,4.049-0.5937,5.9745-3.5618,7.0182c-3.1629,1.1123-5.8415,0.1967-7.9785-2.8018c-2.3179-3.2523-4.6084-6.5245-6.8792-9.81
		c-9.5143-13.7655-22.8294-21.9524-38.6075-26.7601c-18.4853-5.6326-37.2452-5.753-56.103-2.9994
		c-23.6617,3.4551-45.6595,11.6065-65.772,24.6152c-13.2064,8.5418-24.5521,19.2691-35.139,30.7966
		c-32.4559,35.3394-60.4784,73.8621-82.5645,116.5297c-10.105,19.5217-18.3033,39.9169-25.898,60.5322
		c-23.5071,63.8085-42.043,129.075-56.2195,195.5478c-9.8479,46.1762-17.5035,92.7547-23.0116,139.6649
		c-4.0738,34.6946-5.0113,69.5313-4.7101,104.4291c0.331,38.3522,2.0812,76.6058,7.6427,114.6023
		c4.9514,33.8283,12.7488,67.0383,22.2016,99.8625c5.3763,18.6687,11.4538,37.1164,19.1233,54.9964
		c3.5835,8.3544,7.5847,16.4774,12.9826,23.864c3.1466,4.306,2.414,6.9327-2.3033,9.6168
		c-10.3614,5.8953-27.9502,4.0152-36.8652-3.9137c-9.7166-8.6418-15.8341-19.788-21.4878-31.1952
		c-10.2574-20.6959-18.3856-42.2708-25.6693-64.1561c-10.38-31.1893-19.6327-62.7019-26.0375-94.9843
		c-4.1048-20.6896-6.5289-41.6219-8.0155-62.6295C19.7661,726.8991,18.7988,703.6707,17.5382,680.463z"/>
	<path class="st0" d="M914.4983,640.1413c-0.1832,34.3073-1.4089,71.7023-5.4459,108.9177
		c-5.5125,50.8184-15.3372,100.8192-30.4138,149.7138c-3.0519,9.8977-6.7727,19.5057-13.4844,27.7333
		c-3.9807,4.8796-8.8649,7.2551-14.9747,7.6888c-5.3074,0.3768-10.5509,0.2581-15.5218-1.873
		c-4.2589-1.8259-6.3304-4.2595-3.1421-9.2692c5.6448-8.8694,7.7958-19.1227,10.1448-29.1791
		c9.5048-40.6895,16.8663-81.7459,21.0671-123.357c5.5729-55.2024,6.9891-110.5203,4.8796-165.931
		c-1.2919-33.9319-3.7816-67.7906-7.3538-101.5667c-6.2964-59.5354-17.016-118.1444-35.765-175.1519
		c-14.4155-43.8308-35.067-84.4776-62.4514-121.5231c-25.0059-33.8278-55.353-62.4382-89.4482-87.0136
		c-21.0979-15.2071-43.0634-29.0135-67.4998-38.3712c-11.5353-4.4174-23.2332-8.5567-35.6629-9.4289
		c-11.8827-0.8338-23.5359,0.2972-34.2985,6.2307c-6.2408,3.4406-12.86,3.7419-19.4446,1.0594
		c-5.0841-2.0712-5.902-5.7374-1.618-9.0108c3.8279-2.9251,8.2368-5.3601,12.7468-7.067
		c9.7227-3.6797,19.9638-5.3243,30.3149-6.1354c23.1909-1.8173,45.5155,2.5303,67.537,9.3468
		c21.8253,6.7557,42.0198,16.9707,61.647,28.4427c47.6129,27.8295,88.5688,63.3606,121.533,107.568
		c27.9696,37.5094,49.0593,78.7702,63.5092,123.396c14.0746,43.4665,24.0904,87.8259,30.4814,133.0363
		C910.2097,517.645,913.8643,577.2253,914.4983,640.1413z"/>
	<path class="st0" d="M487.7733,890.5648c-21.6578,0.7386-44.286-3.3783-66.7476-8.8972
		c-30.4483-7.4813-59.7316-17.9969-87.3195-33.0305c-17.4612-9.5151-33.3058-21.2817-48.3831-34.1849
		c-11.3297-9.696-22.0684-19.9007-31.8697-31.2025c-13.1495-15.1627-23.0764-32.0494-29.995-50.813
		c-10.0298-27.2018-15.8609-55.093-13.8221-84.2563c0.2513-3.5946,0.9889-7.1811,1.7955-10.704
		c0.8627-3.7684,3.5327-5.8641,7.2999-6.364c2.1456-0.2847,4.3454-0.3175,6.5135-0.2446c5.2888,0.1776,8.9321,2.6056,10.4231,7.8931
		c2.5609,9.0818,5.2097,18.1391,7.7492,27.2268c6.6994,23.9733,14.4912,47.5192,24.9305,70.202
		c10.5734,22.9744,25.5669,42.616,43.6587,59.941c15.761,15.0931,32.6557,28.8508,51.7849,39.6113
		c21.4691,12.0767,44.1161,21.2862,67.99,27.311c11.7718,2.9707,23.661,5.5547,35.5974,7.7743
		c12.9558,2.4091,26.0549,1.1874,39.1177,0.5677c21.0052-0.9963,39.9343-8.9255,58.4877-17.7205
		c26.4177-12.5229,49.3384-30.0018,68.3505-52.1675c34.4387-40.1516,57.6441-86.0875,68.8605-137.8897
		c4.9153-22.7014,9.4879-45.477,14.2148-68.2191c0.0369-0.1776,0.0519-0.3599,0.0898-0.5372
		c1.9438-9.0703,4.6221-11.4777,14.049-11.6624c3.5709-0.0701,7.266,0.4281,10.7153,1.3646
		c4.3628,1.1844,5.5022,3.0142,5.2772,7.6149c-0.4965,10.1522-0.9165,20.3213-1.8843,30.434
		c-1.3487,14.092-2.5795,28.2377-4.9146,42.184c-4.5615,27.2431-13.6294,53.0847-27.0247,77.2516
		c-7.8265,14.1196-16.082,28.0356-24.8171,41.6104c-17.7379,27.5653-40.7685,50.0057-68.0836,68.0498
		c-25.0855,16.5712-52.2134,28.4901-81.6771,34.6791C522.1,889.7562,505.7604,890.6271,487.7733,890.5648z"/>
	<path class="st0" d="M441.9694,528.2734c0.073,20.1436-6.0012,36.5358-16.8471,50.9256
		c-16.5581,21.9684-37.5865,38.8325-62.4532,50.5563c-18.618,8.7778-38.3479,10.6311-58.5337,6.7308
		c-25.4613-4.9198-48.3796-15.2629-67.7615-32.7524c-17.7659-16.0313-26.9268-36.1127-27.8018-60.0302
		c-0.9638-26.3455,5.8185-51.0268,15.9231-75.0096c6.1866-14.6834,13.9306-28.3896,25.7878-39.3164
		c13.6541-12.5828,29.4941-21.0272,47.9164-24.187c5.7621-0.9883,11.5676-1.59,16.3831,3.106
		c0.6411,0.6252,2.0321,0.5799,3.0903,0.6646c46.3729,3.7094,81.4068,26.2077,106.6154,64.6844
		c9.0714,13.8459,14.4565,29.2374,16.9766,45.5881C441.8157,522.8076,441.8368,526.4631,441.9694,528.2734z M285.9738,422.3562
		c-9.761,7.1-16.3934,15.1666-21.9051,24.2141c-6.0874,9.9925-10.2214,20.8604-13.6615,31.9713
		c-6.9691,22.5088-11.5635,45.3335-9.325,69.1443c1.6765,17.8337,8.1829,33.3939,20.5449,46.3743
		c12.7871,13.4268,28.3437,22.3727,45.7847,28.4693c12.3324,4.3108,24.197,3.8672,35.9991-1.4708
		c1.8186-0.8225,3.6976-1.5325,5.4497-2.478c17.0731-9.2127,32.5992-20.5609,45.4701-35.0972
		c14.5316-16.412,21.1611-35.8024,19.0667-57.7775c-1.3639-14.3094-6.2796-27.6258-13.3798-40.0044
		c-11.8871-20.7245-28.4184-37.0923-48.6192-49.7428c-9.8945-6.1964-20.4051-11.0327-31.87-13.6884
		c-3.2692-0.7572-5.5374,0.0099-7.6937,2.468c-1.5165,1.7288-3.2658,3.6345-5.3132,4.4432
		c-5.5819,2.205-11.3846,2.0282-17.0441-0.0164C286.8714,428.2238,285.0404,426.5654,285.9738,422.3562z"/>
	<path class="st0" d="M604.277,640.5901c-33.987-0.3224-64.6462-10.298-90.528-32.8157
		c-14.6512-12.7468-25.8374-27.9617-29.9434-47.5026c-2.8103-13.3749-2.5865-26.7255,0.8121-39.9235
		c5.7252-22.2334,15.4116-42.6522,29.5635-60.7538c9.9258-12.6959,22.8152-21.1413,37.8892-27.3181
		c16.6613-6.8271,32.9501-6.206,49.5291-1.7086c27.2343,7.3878,53.5516,17.109,77.4146,32.5731
		c8.2552,5.3497,15.806,11.5591,22.6401,18.6482c20.2133,20.9676,26.2711,45.4932,17.7267,73.2599
		c-14.4066,46.8168-46.1696,74.5912-93.955,84.3472c-3.0139,0.6154-6.1053,0.9963-9.1773,1.1464
		C612.2668,640.7371,608.2683,640.5901,604.277,640.5901z M692.6365,532.4564c-0.2241-2.5302-0.3579-5.6172-0.7908-8.6617
		c-2.0718-14.5676-9.1306-26.5923-19.0686-37.1449c-8.9363-9.4889-19.4949-16.8315-30.8788-22.9689
		c-18.2667-9.8481-37.5759-17.1617-57.4901-22.9291c-3.7591-1.0887-7.2571-1.4015-10.9429,0.6711
		c-3.3118,1.8622-6.9301,2.8394-10.9632,1.5739c-2.9067-0.9121-5.5063,0.2896-7.9458,2.3222
		c-6.3519,5.2924-11.7227,11.3916-15.8458,18.5187c-12.5009,21.6094-21.1161,44.6399-23.418,69.5989
		c-1.6267,17.6375,1.9481,34.3331,12.3633,49.1072c15.019,21.3049,35.1951,35.2209,60.3335,42.005
		c14.946,4.0336,29.5687,2.9978,43.5575-3.5405c20.9637-9.7984,37.6041-24.5079,48.7844-44.9535
		C687.6519,562.6675,692.0344,548.373,692.6365,532.4564z"/>
	<path class="st0" d="M383.9185,191.8287c16.7165,0.5026,34.4419,3.8281,51.1869,11.5086c3.6038,1.6529,7.0248,3.7835,10.3123,6.015
		c1.7542,1.1907,3.3014,2.8946,4.4863,4.6709c2.201,3.2999,1.1596,6.0316-2.6537,7.0293
		c-4.1861,1.0952-8.3539,0.7729-12.0514-1.6819c-9.5621-6.3485-20.3063-9.438-31.3675-11.8264
		c-13.3769-2.8884-26.1186-1.3511-38.9223,3.5308c-19.9038,7.5891-36.6114,19.7584-52.1253,33.9409
		c-9.137,8.3529-17.6065,17.2597-24.7531,27.4283c-8.4334,11.9996-14.0394,25.373-19.4038,38.8684
		c-10.2798,25.8615-17.4088,52.6768-23.9928,79.6618c-2.6651,10.923-5.5073,21.8165-8.7467,32.5796
		c-1.5549,5.1662-4.1827,10.0149-6.3981,14.9745c-1.2554,2.8105-3.5261,4.5783-6.399,5.5484
		c-7.2912,2.4619-14.6414,2.5725-21.8922,0.0012c-5.1331-1.8203-5.7455-3.8773-4.6613-9.1214
		c2.7165-13.1389,5.1985-26.3278,7.6431-39.521c4.3622-23.5428,7.7023-47.3008,14.2569-70.3849
		c2.623-9.2377,5.7378-18.3551,9.0403-27.3766c8.2478-22.5307,22.2387-41.0603,40.4483-56.4574
		c12.8868-10.8964,25.7354-21.9339,40.9267-29.6154C331.9382,199.9282,356.1118,192.1171,383.9185,191.8287z"/>
	<path class="st0" d="M537.2897,206.4789c19.4503,0.919,38.0706,6.7458,55.916,15.2293
		c17.1956,8.1746,32.4196,19.1504,46.0465,32.5122c34.5789,33.9061,59.384,74.0892,76.473,119.1175
		c10.1133,26.648,18.8394,53.8004,25.1046,81.6463c1.5809,7.0267,1.8402,14.3516,2.6949,21.5408
		c0.4467,3.7588-1.664,5.7589-4.8975,6.8513c-5.5059,1.8603-11.0681,1.9578-16.5753,0.0598
		c-2.4768-0.8537-4.2775-2.2698-4.873-5.2469c-5.8298-29.1415-16.9312-56.6223-26.8017-84.4903
		c-9.7217-27.4477-21.6753-53.8551-36.3465-79.0398c-13.9832-24.0038-30.5389-46.0004-50.9252-64.8977
		c-18.2727-16.9381-40.0721-27.2784-64.3955-32.3539c-5.2652-1.0987-10.3194-1.1187-15.0502,2.421
		c-3.1852,2.3833-7.1737,2.3242-11.0209,1.4039c-2.0116-0.4812-3.858-1.2853-4.3162-3.5988
		c-0.4485-2.2647,0.7513-3.9424,2.4617-5.0829c1.9426-1.2954,4.0209-2.4838,6.1941-3.3184
		C523.3575,206.7823,530.0727,206.4458,537.2897,206.4789z"/>
	<path class="st0" d="M423.2603,155.9088c-1.6297-7.4352,3.3785-9.6292,8.9331-12.0346c-1.709-2.265-3.1974-4.2216-4.6688-6.191
		c-2.7127-3.631-5.6208-7.1374-8.068-10.9399c-2.7976-4.3469-1.9577-7.5317,2.7239-9.7416c2.8878-1.3632,6.1759-1.9668,9.3451-2.614
		c2.0788-0.4245,4.2662-0.3179,7.2384-0.5003c-1.0689-1.9582-1.6996-3.6-2.7328-4.9288
		c-7.7876-10.0162-15.6534-19.9714-23.5003-29.9414c-0.223-0.2833-0.5739-0.4803-0.7493-0.7843
		c-0.9515-1.65-2.807-3.4639-2.5811-4.9527c0.3709-2.4445,3.2026-2.5183,5.3481-2.7568c3.8957-0.433,7.6462,0.13,10.9171,2.4179
		c4.454,3.1156,9.0675,6.0707,13.1711,9.6069c12.4063,10.6909,23.7407,22.4258,33.0094,36.0042
		c5.0254,7.3622,3.6539,10.8691-4.9232,13.2549c-1.3653,0.3798-2.7278,0.7694-4.47,1.2613c1.905,2.8368,3.7131,5.2807,5.2589,7.8806
		c3.7556,6.3169,2.4212,10.4829-4.3657,13.4221c-2.4344,1.0542-5.0674,1.6498-7.9199,2.5529
		c1.244,2.7591,2.4669,5.1511,3.416,7.6472c1.6891,4.4419,0.787,6.8467-3.583,8.7614c-6.7956,2.9775-13.7527,2.7273-20.7201,0.4558
		c-6.3712-2.0771-12.6732-4.4422-19.1583-6.0737c-6.8413-1.7211-13.8485-2.8107-20.8129-4.0025
		c-3.2088-0.5491-6.3693-0.4892-9.6174,0.6844c-4.754,1.7178-9.6879,1.4115-14.3329-0.6907
		c-3.6714-1.6617-3.9854-4.027-0.8544-6.5764c4.1152-3.3507,9.1218-4.304,14.2514-4.6221
		c11.849-0.7348,23.5413,0.6442,35.1728,2.7548C420.0476,155.4546,421.1184,155.5869,423.2603,155.9088z"/>
	<path class="st0" d="M182.6594,656.1487c-22.3584-0.6716-39.1735-10.6057-50.1594-30.1717
		c-1.5086-2.6868-2.8482-5.4769-4.1274-8.2825c-7.0462-15.4538-7.2669-30.9565,0.2225-46.2842
		c4.0578-8.3047,8.3826-16.4976,12.9888-24.5098c3.3633-5.8503,13.88-7.5336,19.3507-3.5803
		c2.3944,1.7303,2.7627,4.1925,2.3557,6.8063c-0.9772,6.2752-1.9507,12.556-3.1606,18.789
		c-4.6532,23.9732,2.8251,44.7783,16.6943,63.8522c3.8191,5.2524,8.824,9.0497,15.4887,10.3299
		c1.8999,0.365,3.8154,1.2948,5.4217,2.4033c3.0284,2.09,3.0268,4.9277,0.0205,7.0972c-3.6577,2.6396-7.94,3.438-12.3716,3.5474
		C184.4758,656.168,183.5673,656.1487,182.6594,656.1487z"/>
	<path class="st0" d="M521.2586,125.5385c3.9376,1.5608,7.2758,2.5477,10.2864,4.15c5.5897,2.9749,6.821,7.4333,3.3303,12.6828
		c-2.4985,3.7572-5.6589,7.075-8.5333,10.5813c-1.6932,2.0655-3.4045,4.1162-5.7589,6.9603c2.4949,0.1594,4.0084,0.388,5.5112,0.332
		c18.8102-0.7012,35.564,5.982,51.7936,14.4624c2.3572,1.2317,5.2573,2.7281,4.5815,6.0083
		c-0.642,3.1164-3.8197,3.7464-6.4293,4.2425c-5.0441,0.959-10.0427,0.7851-14.9861-1.1196
		c-7.9499-3.0631-15.9565-6.0007-24.0381-8.6942c-8.2252-2.7413-15.9796-1.4135-23.3737,3.1687
		c-8.9804,5.5653-18.6311,5.5858-28.2892,2.172c-5.8252-2.059-7.7303-6.2379-4.8054-11.6324
		c3.1715-5.8492,7.2087-11.28,11.2906-16.5673c2.8553-3.6983,6.4197-6.8489,10.1266-10.7241
		c-1.6264-0.4271-2.7344-0.7052-3.8349-1.0101c-1.7433-0.483-3.5672-0.7899-5.2059-1.5136
		c-5.0816-2.2441-6.5054-5.8062-3.3764-10.4401c2.7009-3.9999,5.8842-8.0678,9.7736-10.7943
		c9.9337-6.9635,20.2884-13.3467,30.6703-19.6395c3.7953-2.3005,8.2522-2.6611,12.6707-1.4375
		c4.7314,1.3102,5.4664,3.1397,2.3724,6.8318c-2.0854,2.4886-4.504,4.7261-6.9449,6.8821
		c-3.808,3.3636-7.8051,6.5126-11.6332,9.8543C524.7137,121.8161,523.1831,123.5812,521.2586,125.5385z"/>
	<path class="st0" d="M811.1905,559.1905c-0.6928-5.7466-1.2076-11.5229-2.1544-17.2275c-0.4642-2.7975,0.4453-4.1622,2.9803-4.7365
		c6.0124-1.3619,13.0939-0.7836,16.5904,7.6026c7.7189,18.5129,9.3936,37.2446,0.4837,55.8347
		c-6.3409,13.2299-15.3589,24.5762-26.4058,34.2397c-11.0318,9.6502-24.2134,14.4308-38.5527,16.0378
		c-3.4649,0.3884-7.1446-0.6327-10.6544-1.3523c-1.9664-0.4031-4.1361-1.7555-3.7351-3.9634
		c0.254-1.3988,2.1732-2.6117,3.5425-3.6479c0.8217-0.6218,2.0008-0.8388,3.0557-1.0747
		c10.7064-2.3937,19.1187-8.4501,26.3096-16.447c7.3018-8.1201,13.5923-16.9481,18.9517-26.4822
		C808.3842,585.908,810.5941,572.8307,811.1905,559.1905z"/>
	<path class="st0" d="M440.7668,754.8239c-9.3566-0.2311-18.5879-1.0886-27.0879-5.2105c-3.6899-1.7894-7.0849-4.34-10.276-6.9568
		c-2.5841-2.1191-3.8242-5.2474-4.0761-8.6488c-0.3016-4.0742,1.8191-6.347,5.8511-5.619c1.9914,0.3597,4.1698,1.5005,5.5841,2.9506
		c11.2781,11.563,24.753,14.0727,39.4911,8.9152c10.573-3.7,20.8678-8.3195,30.9807-13.1669
		c6.9852-3.3483,13.3654-7.936,20.1697-11.6913c5.9269-3.2711,12.2005-3.2415,18.3304-0.4976
		c3.0789,1.3784,3.5404,3.2809,1.6968,6.1546c-0.9568,1.4914-2.2086,2.9543-3.6588,3.9443
		c-19.303,13.1777-39.6015,24.2299-62.9544,28.392C450.1956,754.2136,445.4536,754.3633,440.7668,754.8239z"/>
	<path class="st0" d="M285.9738,422.3562c-0.9334,4.2092,0.8976,5.8676,3.5036,6.809c5.6595,2.0446,11.4622,2.2214,17.0441,0.0164
		c2.0474-0.8087,3.7967-2.7145,5.3132-4.4432c2.1562-2.4581,4.4245-3.2253,7.6937-2.468
		c11.4649,2.6557,21.9755,7.4921,31.87,13.6884c20.2007,12.6505,36.732,29.0184,48.6192,49.7428
		c7.1002,12.3786,12.016,25.695,13.3798,40.0044c2.0945,21.9751-4.5351,41.3655-19.0667,57.7775
		c-12.8709,14.5364-28.397,25.8845-45.4701,35.0972c-1.7521,0.9455-3.6311,1.6555-5.4497,2.478
		c-11.8021,5.338-23.6667,5.7816-35.9991,1.4708c-17.441-6.0966-32.9976-15.0425-45.7847-28.4693
		c-12.362-12.9804-18.8683-28.5406-20.5449-46.3743c-2.2385-23.8107,2.3559-46.6355,9.325-69.1443
		c3.4402-11.1109,7.5742-21.9789,13.6615-31.9713C269.5804,437.5228,276.2128,429.4563,285.9738,422.3562z M312.268,472.9903
		c-7.6797-0.0792-15.2523,0.7148-22.5065,3.2455c-2.8484,0.9937-5.7243,2.4346-8.0293,4.3453
		c-4.1598,3.4485-3.3181,7.811,1.705,9.6231c5.9446,2.1445,11.9449,2.0011,17.1063-1.8877
		c3.4519-2.6007,7.101-3.4739,11.1658-3.3503c10.7971,0.3285,21.2666,2.3832,31.114,6.8574
		c3.0621,1.3913,6.2573,3.3158,8.3443,5.8564c4.4374,5.4019,10.0495,6.0525,16.1897,5.2658
		c2.8109-0.3602,6.6009-0.7105,7.0831-3.9383c0.3329-2.2282-1.3529-5.1426-2.8875-7.1864c-3.35-4.4615-8.2956-6.9356-13.3031-9.1371
		C343.6003,476.2436,328.1546,473.5567,312.268,472.9903z"/>
	<path class="st0" d="M692.6365,532.4564c-0.6021,15.9166-4.9846,30.2111-12.3053,43.5984
		c-11.1804,20.4456-27.8207,35.1551-48.7844,44.9535c-13.9888,6.5383-28.6115,7.574-43.5575,3.5405
		c-25.1384-6.7841-45.3145-20.7001-60.3335-42.005c-10.4152-14.7741-13.99-31.4697-12.3633-49.1072
		c2.3019-24.959,10.9171-47.9894,23.418-69.5989c4.123-7.1272,9.4939-13.2263,15.8458-18.5187
		c2.4395-2.0326,5.0391-3.2343,7.9458-2.3222c4.0331,1.2655,7.6514,0.2883,10.9632-1.5739
		c3.6858-2.0725,7.1838-1.7598,10.9429-0.6711c19.9142,5.7675,39.2234,13.081,57.4901,22.9291
		c11.3839,6.1374,21.9425,13.48,30.8788,22.9689c9.938,10.5526,16.9968,22.5773,19.0686,37.1449
		C692.2786,526.8392,692.4124,529.9263,692.6365,532.4564z M621.9739,483.8607c-8.2368-0.1097-16.4073,0.5742-24.1143,3.5309
		c-3.2747,1.2564-6.3671,3.4394-8.9855,5.8149c-2.1688,1.9676-1.4817,4.3081,1.0865,5.809
		c1.0724,0.6267,2.3308,1.0038,3.5522,1.2953c4.9402,1.179,9.6803,0.2451,14.4523-1.2078c3.6099-1.0991,7.3454-2.1277,11.082-2.3967
		c7.8307-0.5635,15.5954,0.4366,23.1742,2.5043c1.8792,0.5127,4.1335,1.1535,5.3004,2.5179
		c5.5662,6.509,12.5553,5.7119,19.5468,3.987c5.5241-1.3628,6.6612-5.6785,2.52-9.6855c-2.4007-2.3228-5.5497-4.1404-8.6789-5.3949
		C648.4376,485.6352,635.2692,484.298,621.9739,483.8607z"/>
	<path class="st0" d="M312.268,472.9903c15.8866,0.5664,31.3323,3.2533,45.9817,9.6937c5.0075,2.2015,9.9531,4.6756,13.3031,9.1371
		c1.5347,2.0438,3.2204,4.9582,2.8875,7.1864c-0.4822,3.2278-4.2722,3.5781-7.0831,3.9383
		c-6.1402,0.7867-11.7523,0.1362-16.1897-5.2658c-2.087-2.5406-5.2822-4.4651-8.3443-5.8564
		c-9.8474-4.4742-20.3169-6.5289-31.114-6.8574c-4.0648-0.1237-7.714,0.7495-11.1658,3.3503
		c-5.1615,3.8888-11.1617,4.0322-17.1063,1.8877c-5.0231-1.812-5.8647-6.1746-1.705-9.6231
		c2.305-1.9107,5.1808-3.3516,8.0293-4.3453C297.0157,473.7051,304.5883,472.9111,312.268,472.9903z"/>
	<path class="st0" d="M621.9739,483.8607c13.2953,0.4372,26.4636,1.7745,38.9357,6.7745c3.1292,1.2545,6.2782,3.072,8.6789,5.3949
		c4.1412,4.007,3.0042,8.3227-2.52,9.6855c-6.9915,1.7249-13.9805,2.522-19.5468-3.987c-1.1669-1.3644-3.4212-2.0052-5.3004-2.5179
		c-7.5788-2.0677-15.3434-3.0678-23.1742-2.5043c-3.7366,0.2689-7.4722,1.2976-11.082,2.3967
		c-4.772,1.4529-9.5121,2.3868-14.4523,1.2078c-1.2214-0.2915-2.4797-0.6686-3.5522-1.2953
		c-2.5682-1.5009-3.2552-3.8414-1.0865-5.809c2.6184-2.3755,5.7108-4.5585,8.9855-5.8149
		C605.5667,484.4349,613.7372,483.751,621.9739,483.8607z"/>
</g>
</svg>
