<?xml version="1.0" encoding="utf-8"?>
<!-- Generator: Adobe Illustrator 24.3.0, SVG Export Plug-In . SVG Version: 6.00 Build 0)  -->
<svg version="1.1" id="Layer_1" xmlns="http://www.w3.org/2000/svg" xmlns:xlink="http://www.w3.org/1999/xlink" x="0px" y="0px"
	 viewBox="0 0 795.519 1089.7521" style="enable-background:new 0 0 795.519 1089.7521;" xml:space="preserve">
<style type="text/css">
	.st0{fill:#FFFFFF;}
</style>
<g>
	<path class="st0" d="M79.8835,445.1747c0.4444,1.4508,1.2413,2.8923,1.2794,4.3537c0.4483,17.2215,0.7385,34.447,1.1634,51.6692
		c0.2816,11.413,0.6027,22.8271,1.1064,34.2318c0.6071,13.7464,1.0274,27.5188,2.2432,41.2166
		c2.0462,23.054,4.5569,46.0688,7.0624,69.0794c1.7625,16.1874,3.9592,32.3275,5.7518,48.512
		c3.5159,31.7437,8.4054,63.1858,19.5803,93.315c1.2345,3.3284,2.5437,6.629,3.935,10.2458
		c0.8923-0.7244,1.4081-0.9643,1.6527-1.3682c4.6632-7.7029,12.6152-8.5735,20.3377-9.4329
		c5.9011-0.6566,9.4428,3.5858,8.249,9.5085c-1.5731,7.8041-3.7089,15.4981-5.1706,23.3202
		c-0.9254,4.9523-0.9121,10.0726-1.6022,15.0786c-0.5537,4.0158,1.0322,6.9766,3.7143,9.6611
		c1.7325,1.7339,3.3616,3.5712,5.4596,5.814c1.3345-5.7195,2.4429-10.6154,3.6304-15.4921
		c0.5139-2.1101,1.3101-4.1545,1.7724-6.2736c1.6581-7.6015,6.522-11.1552,14.0811-11.9502
		c5.7944-0.6093,5.6919-0.697,10.5628,1.5111c2.4565,1.1136,3.0081,2.7336,2.9897,5.1234
		c-0.0658,8.5358-0.1668,17.0756,0.0226,25.6078c0.1445,6.512,0.6472,13.0192,1.1357,19.5176
		c0.1019,1.3561,0.8404,2.6644,2.239,4.0045c0.378-1.6817,0.822-3.3516,1.1237-5.0468
		c2.9691-16.6837,7.4385-32.8888,15.3143-48.0018c1.088-2.0879,2.2797-4.1367,3.5943-6.0886
		c2.4236-3.5984,7.2092-5.4205,11.3815-4.4898c3.683,0.8216,4.9024,2.4427,4.2479,6.2373c-0.6149,3.5645-1.51,7.0815-2.3056,10.614
		c-4.2193,18.7332-5.1663,37.7375-3.55,56.7686c0.9924,11.6847,3.4055,23.2498,5.2307,34.8607
		c0.1603,1.02,0.693,1.9814,1.1402,3.2104c3.9874-0.3427,8.0636-1.743,11.7421,1.647c0.2255,7.9049,1.775,15.874,4.4178,23.6063
		c2.572,7.525,5.7856,14.7657,10.724,21.4718c0-2.7377-0.0017-5.4755,0.0004-8.2133c0.0034-4.5042-0.0479-9.0096,0.0442-13.512
		c0.0331-1.6182,0.2825-3.2606,0.6587-4.8381c1.5906-6.6686,5.2198-9.6109,11.9384-9.2354
		c1.8365,0.1026,3.6056,1.4114,5.2872,2.1169c4.136,26.9263,12.17,51.8795,30.8066,72.325
		c-1.4486-7.7894-3.1293-15.5444-4.2932-23.3762c-1.8977-12.7701-2.6973-25.6015,0.499-38.3048
		c1.8843-7.4889,10.6862-11.0309,17.6192-7.5386c2.3287,1.173,2.8773,2.8829,3.2342,5.1636
		c2.1057,13.4536,5.2805,26.6254,10.2603,39.3492c3.6539,9.3362,8.041,18.2668,13.7938,26.4759
		c2.0315,2.8987,4.4903,5.4982,7.6193,7.7612c-0.575-4.4147-1.2437-8.8195-1.708-13.2458
		c-1.6147-15.3958-1.6999-30.7584,1.487-45.9948c0.5536-2.6472,1.4594-5.2303,2.3307-7.7996
		c1.6557-4.8826,4.881-7.6927,10.187-8.5164c5.156-0.8004,8.6439,0.8802,7.9279,7.3172c-0.7368,6.624-1.2163,13.4163-0.609,20.0245
		c1.9683,21.416,7.5349,41.6997,20.896,59.1524c0.8457,1.1046,1.8003,2.1257,3.6997,3.0258c0-2.2443,0.0338-4.4893-0.0055-6.733
		c-0.2288-13.0534-0.9512-26.1201-0.5812-39.1561c0.3742-13.1806,1.7782-26.3345,2.8468-39.4906
		c0.1891-2.3279,0.9228-4.6147,1.4435-6.9117c1.4252-6.2872,5.5147-9.3586,11.7773-10.3156
		c5.8289-0.8909,9.4696,2.9127,9.6355,7.4576c0.2572,7.0523,0.7325,14.1083,1.4439,21.1295
		c0.9666,9.5382,2.2373,19.0458,3.4163,28.5617c0.032,0.2586,0.5069,0.4623,1.2936,1.1346
		c0.9308-6.4188,1.5889-12.5281,2.7402-18.543c1.9397-10.1345,4.099-20.23,6.3705-30.2958
		c0.6732-2.9828,2.1396-5.7773,3.0535-8.7169c1.5912-5.1178,5.6005-6.8103,10.3227-7.4961c4.6705-0.6783,7.2361,1.4897,7.2556,6.197
		c0.0488,11.8054-0.2298,23.6178,0.0925,35.4146c0.2803,10.2571,1.2034,20.4965,1.8424,30.7437
		c0.4794,0.1344,0.9588,0.2689,1.4382,0.4033c1.0874-1.736,2.3076-3.4038,3.2413-5.219
		c6.8536-13.3233,11.1937-27.532,14.196-42.1298c1.7834-8.6713,3.0906-17.4612,4.1302-26.2549
		c0.4374-3.6998-0.2282-7.5624-0.6496-11.3221c-0.4091-3.6527,0.0079-4.5875,3.3521-5.6124
		c7.6122-2.3329,12.1771-0.2186,13.9213,7.5058c1.5849,7.0197,2.849,14.2595,2.9974,21.4283
		c0.455,21.9813-1.3696,43.7793-7.2106,65.107c-3.1332,11.4405-7.8187,22.2209-13.638,32.5107
		c-1.5041,2.6598-3.3679,5.204-5.4681,7.4205c-4.725,4.9867-8.2716,5.0867-13.6173,0.8561
		c-0.5455-0.4316-1.1859-0.7434-1.9596-1.2202c-0.7441,0.95-1.6148,1.6949-2.0167,2.6394c-1.6164,3.798-2.9257,7.7338-4.6797,11.463
		c-0.9011,1.9161-2.2636,3.7667-3.8367,5.1807c-2.5587,2.2997-4.8973,2.0377-7.6643-0.2157
		c-1.3488-1.0985-2.7679-2.1106-4.1862-3.1852c-2.6982,6.5062-5.0567,12.5115-7.697,18.3903
		c-0.9438,2.1016-2.2985,4.1758-3.943,5.7704c-2.8372,2.7511-4.5685,2.0177-8.0456,0.0564
		c-8.7693-4.9465-11.4515-14.165-16.2986-21.8737c-0.7552-1.201-1.3185-2.5228-2.2521-4.3352
		c-2.3771,5.6736-4.424,10.8673-6.7432,15.9364c-0.8815,1.9269-2.1179,3.8667-3.6702,5.2737
		c-2.8675,2.599-4.9431,2.0302-8.1934-0.0835c-6.9683-4.5309-11.4816-10.8721-14.8851-18.2415
		c-0.8102-1.7543-2.0181-3.3248-3.1412-5.1384c-0.7669,0.5287-1.5176,0.8036-1.5194,1.0835
		c-0.0296,4.562-3.1692,7.9637-4.4753,12.0487c-0.5336,1.6687-1.7091,3.2222-2.8796,4.5807
		c-3.7185,4.3157-8.5423,4.553-13.4577,0.9598c-8.8961-6.5032-16.6858-13.9429-21.1501-24.2997
		c-0.3506-0.8135-0.9286-1.5288-1.5868-2.5891c-1.5094,3.6027-2.8067,6.9537-4.316,10.2064
		c-0.91,1.9609-1.8982,3.9857-3.2911,5.6029c-3.3696,3.9121-8.24,4.0588-12.5517,0.4161
		c-5.3574-4.5261-10.5743-9.2186-16.2528-14.1902c-5.0868,3.4237-9.1467,0.2419-13.9243-3.0343
		c-13.8741-9.5144-22.1181-23.2429-29.8086-37.5315c-0.9106-1.6917-1.959-3.3092-3.4145-5.7515
		c-1.2891,2.3919-2.1928,4.0867-3.1138,5.772c-0.7768,1.4216-1.3812,2.9919-2.3987,4.2168
		c-2.6576,3.1989-5.3451,2.9116-8.9145,0.8604c-9.6677-5.5556-13.3056-15.4763-18.4236-24.3455
		c-1.4228-2.4656-2.5507-5.1013-4.1536-8.347c-0.9221,1.7331-1.5288,2.9333-2.1902,4.1024
		c-0.9769,1.7267-1.8067,3.5789-3.0269,5.1177c-3.7672,4.7513-7.5114,4.5165-12.469,1.2485
		c-7.4003-4.8784-12.4945-11.2413-16.1436-19.1919c-2.8602-6.2319-6.3741-12.1636-9.8435-18.6913
		c-0.5057,0.1331-1.6524,0.3909-2.7713,0.7382c-2.3458,0.728-4.1621-0.0756-5.9444-1.6313
		c-2.1733-1.8972-4.6305-3.4681-6.8161-5.3527c-1.9043-1.642-4.1102-3.2353-5.3087-5.3463
		c-8.2231-14.4844-17.2085-28.614-21.1983-45.119c-3.5095-14.5179-6.3041-29.1129-4.5452-44.1135
		c0.7349-6.2674,2.1707-12.4707,3.6082-18.6285c0.5714-2.4475,0.5608-4.4863-0.5449-6.7754
		c-12.2292-25.3184-20.0903-52.0281-24.7473-79.6821c-1.6204-9.622-2.5798-19.368-3.526-29.0881
		c-1.98-20.3412-3.8088-40.6979-5.5828-61.0584c-0.8933-10.2524-1.5311-20.5271-2.3172-31.2375
		c-10.3008,3.3549-15.1988-3.887-19.914-10.3542c-6.6362-9.102-9.9706-19.6852-11.3184-30.8456
		c-1.9496-16.1437-1.1876-32.2068,1.9393-48.1373c0.7642-3.8933,2.0801-7.7032,3.4359-11.4451
		c0.6951-1.9186,1.5818-4.1696,5.0579-3.7918c0,2.9065,0.3382,5.7665-0.0571,8.5212c-1.9667,13.7029-2.3368,27.4698-1.7415,41.2592
		c0.3767,8.7255,1.8539,17.3054,5.4099,25.3792c3.1709,7.1993,7.9045,12.9333,16.2436,16.299
		c0.0631-4.0674,0.1747-7.7379,0.1679-11.408c-0.0378-20.5164-0.2884-41.0345-0.1048-61.5487
		c0.1574-17.5984,0.7505-35.1938,1.2495-52.7878c0.2466-8.6948,0.6386-17.3878,1.1492-26.0708
		c0.1018-1.7309,1.0411-3.4126,1.5941-5.1169C77.5346,447.2889,78.7091,446.2318,79.8835,445.1747z"/>
	<path class="st0" d="M79.8835,445.1747c-1.1745,1.0571-2.3489,2.1142-3.5234,3.1713c-3.4013,3.5057-6.7668,7.0472-10.2111,10.5103
		c-8.955,9.0039-15.3657,19.6164-20.1911,31.2986c-1.4849,3.5949-3.4953,6.9728-5.4573,10.8277
		c0.6284,0.8317,1.8289,2.1979,2.7775,3.7211c2.1872,3.5119,2.2165,6.5824,0.2444,8.515c-2.1288,2.0861-6.8095,2.5638-9.607,0.4105
		c-2.9883-2.3002-5.9741-4.8306-8.2294-7.8137c-7.0539-9.3302-10.7536-20.1056-12.2608-31.6208
		c-2.7401-20.9349,0.8259-41.1878,7.0678-61.0845c0.9654-3.0773,2.5971-5.9825,4.1969-8.811
		c1.0764-1.9031,2.6471-3.515,5.8005-2.6904c-0.2868,1.3537-0.3756,2.7306-0.8668,3.9447
		c-5.5822,13.7983-7.53,28.2921-8.5671,43.0055c-0.6445,9.1432,0.2836,18.1044,2.4654,26.9329
		c0.9379,3.7954,2.5557,7.4228,4.2798,11.0469c2.4174-8.8586,5.0016-17.3914,10.1145-24.9011
		c1.3105-1.9249,1.5055-3.8769,1.1681-6.1789c-2.4396-16.6478-1.5178-33.2753,0.7241-49.8571
		c0.2823-2.0884,1.214-4.1941,2.3003-6.0209c0.4884-0.8214,2.1306-1.3758,3.1885-1.2912c0.6991,0.056,1.6278,1.3803,1.8539,2.2865
		c0.3884,1.5569,0.3769,3.2292,0.4138,4.8558c0.263,11.5899,0.4779,23.181,0.7694,34.7702
		c0.0252,1.0032,0.4928,1.9952,0.9519,3.7417c3.971-3.8368,7.6359-7.014,10.7991-10.63c1.1204-1.2807,1.3996-3.6289,1.4102-5.4935
		c0.0557-9.7834-0.4098-19.5791-0.0553-29.3474c0.1951-5.3763,1.4857-10.741,2.5993-16.0444
		c0.5739-2.7331,2.3324-4.4808,6.2498-3.1613c-1.3364,13.854-2.3806,27.8498,0.1203,42.0515
		c0.8461-0.3794,1.3918-0.4882,1.7542-0.806c25.2874-22.1745,54.0221-38.3633,85.4998-50.0458
		c15.4687-5.741,30.5036-12.6398,45.8777-18.6491c21.5124-8.4088,44.0908-13.2075,66.3778-18.9695
		c4.8896-1.2642,9.824-2.3554,15.2019-3.6368c-0.1926-2.4305-0.2663-4.7433-0.5746-7.0245
		c-1.948-14.4164-2.2272-28.9103-2.098-43.4247c0.0064-0.7219,0.153-1.4419,0.2201-2.164c0.2042-2.1952,1.5318-3.3824,3.603-3.2032
		c2.1113,0.1826,2.9487,1.7503,3.0619,3.8307c0.2162,3.972,0.3217,7.9696,0.8758,11.8998
		c1.6668,11.8249,3.5233,23.6231,5.3216,35.4294c0.1051,0.6898,0.3492,1.3585,0.6209,2.3856
		c5.7695-1.0992,11.3645-2.1652,17.5517-3.3441c-7.643-9.5519-7.9127-20.6099-8.2349-31.6373
		c-0.1481-5.0704-0.2755-10.1498-0.1296-15.2171c0.0773-2.6875,0.481-5.44,1.2432-8.0134c0.8318-2.8084,3.2516-3.9333,5.9912-3.383
		c2.6183,0.5258,3.3498,2.3145,3.4843,4.7666c0.3871,7.0526,0.8597,14.1016,1.4153,21.1429
		c0.1991,2.5235,0.5917,5.0515,1.1371,7.5242c1.8147,8.2285,1.8254,16.2152-3.7258,24.5189
		c6.7012-1.0719,12.2988-2.0285,17.9156-2.8546c19.6798-2.8944,39.3375-5.9622,59.057-8.5586
		c28.4768-3.7494,57.1992-4.4574,85.8056-3.7596c48.14,1.1743,95.222,9.2242,139.9498,27.8628
		c29.2419,12.1854,57.1547,27.0738,81.9436,46.9596c21.2111,17.0157,39.7924,36.6058,52.4629,61.1051
		c1.991,3.8497,3.9224,7.7303,6.0927,12.014c4.1843-4.0836,6.7081-8.7841,8.7511-13.729c3.7086-8.9765,5.4105-18.4315,5.8573-28.081
		c0.9107-19.6667-2.6063-38.6492-9.5014-57.0145c-0.912-2.4291-2.487-4.852-4.3628-6.6403
		c-28.1077-26.7973-60.0831-47.9216-95.1473-64.4716c-1.8054-0.8521-3.7269-1.5511-5.3445-2.6794
		c-1.3224-0.9224-2.2718-2.3795-3.5791-3.8104c3.068-2.2659,5.4495-1.3731,7.8599-0.644
		c16.9146,5.116,32.9277,12.3525,48.4465,20.7132c17.6184,9.4919,34.2886,20.4362,49.9918,32.8636
		c6.7812,5.3665,11.5645,11.968,13.6519,20.4052c0.4252,1.7188,0.5939,3.5011,0.9371,5.5988
		c-1.5538,0.3541-2.724,0.6207-4.0213,0.9163c0.1306,0.6992,0.1591,1.4414,0.4086,2.0998
		c4.647,12.2614,7.9167,24.8506,9.3707,37.9098c2.2484,20.1939,0.4555,39.8225-8.1573,58.4633
		c-1.6627,3.5985-4.0042,6.8823-6.0151,10.3216c-1.3127,2.2453-2.5939,4.509-3.9954,6.9496c-0.4304,0-1.2718,0-2.2111,0
		c-0.0824,0.6284-0.2548,1.1555-0.2025,1.6592c2.1065,20.2943,2.1357,40.5256-1.8347,60.6331
		c-1.8712,9.4766-4.559,18.7358-9.143,27.2505c-2.3821,4.4247-5.476,8.5388-8.6989,12.4191
		c-3.6011,4.336-8.6689,6.3809-14.7652,7.1233c0,2.1504,0.0175,4.0974-0.0029,6.0439c-0.1184,11.2545,0.105,22.5259-0.4402,33.7599
		c-1.3074,26.9431-3.8699,53.7761-8.6419,80.3521c-5.9908,33.3642-12.8823,66.5352-22.6332,99.0334
		c-3.0201,10.0659-6.5339,19.9988-10.2309,29.8389c-1.4484,3.8551-2.0514,7.5786-1.9572,11.6375
		c0.3492,15.0596-0.2975,30.0782-3.0988,44.9157c-2.9144,15.4361-8.208,30.0574-15.8285,43.7981
		c-2.5609,4.6177-5.3165,9.2444-10.9118,10.7827c-1.4717,0.4045-3.5063,0.7734-4.6272,0.0877
		c-4.4257-2.7083-9.142-5.1624-11.5507-10.278c-1.3638-2.8965-3.1922-5.5742-5.1635-8.9541
		c-1.1794,2.3427-1.9318,4.1079-2.9194,5.7299c-1.2204,2.0042-2.3893,4.1343-4.018,5.7756c-3.609,3.637-6.6147,3.616-12.1622,0.3845
		c-2.4355,5.4443-4.7482,10.94-7.348,16.2963c-1.4173,2.9203-3.0621,5.8101-5.0718,8.3426c-2.475,3.119-5.692,5.1044-10.2704,3.3229
		c-1.0386,2.9009-1.9207,5.8127-3.1094,8.5934c-2.6309,6.1542-5.2283,12.3367-8.2269,18.3131
		c-1.2634,2.5182-3.2776,4.7921-5.3681,6.7253c-2.0414,1.8878-5.1337,3.2002-7.5303,1.6439
		c-3.7302-2.4221-7.3806-5.3433-10.1292-8.7975c-2.8937-3.6367-4.868-8.0609-6.9236-12.2964
		c-3.6517-7.5245-4.3638-15.146-0.7482-23.0634c7.4554-16.3266,10.9629-33.6875,13.3088-51.3895
		c2.6095-19.6915,2.7294-39.4494,1.6262-59.181c-0.9089-16.2559-3.1299-32.4242-6.75-48.3497
		c-0.2411-1.0604-0.5624-2.1166-0.6638-3.192c-0.3238-3.433,0.3863-4.3713,3.845-5.3372c6.235-1.7411,9.3212-0.6337,12.832,4.9844
		c6.2256,9.9626,9.6714,21.0698,12.8235,32.2542c4.7771,16.9504,7.7676,34.2507,9.7005,51.7427
		c0.0574,0.5194,0.2527,1.0234,0.7001,1.5452c5.4567-26.4211,7.2256-53.1263,5.8309-79.8593
		c7.4014-3.2836,10.4184-2.0576,12.6063,5.1013c3.3039,10.8103,4.1895,22.0203,5.1534,33.2067
		c0.3545,4.1141,0.6949,8.2293,1.8652,12.4537c1.0704-5.8006,2.3502-11.5718,3.1697-17.4076
		c1.9896-14.1681,3.768-28.3629,3.7168-42.7177c-0.0164-4.5794,0.2347-4.4803,4.7019-5.7478
		c7.0014-1.9866,10.8301,0.6498,12.2603,7.4539c0.9289,4.4189,1.7538,8.8828,2.2359,13.3683
		c1.5919,14.8095,1.9515,29.6633,1.1404,44.542c-0.0466,0.8556,0.119,1.7227,0.2465,3.368
		c5.3937-5.6248,7.9324-11.6331,8.4435-18.6777c1.1543-15.9089,2.4017-31.8062,0.4355-47.7448
		c-0.2878-2.3331-0.2328-4.7071-0.3758-7.0598c-0.1396-2.2964,0.7695-3.6534,3.0546-4.4455
		c6.9979-2.4255,11.5563,0.3298,13.5526,5.9576c0.9562,2.6958,1.9404,5.3818,3.2938,9.1299c0.8171-2.1244,1.386-3.3133,1.7389-4.563
		c11.0305-39.0787,20.7974-78.4564,26.5635-118.6964c2.3336-16.2854,3.9308-32.6869,5.461-49.0732
		c1.0934-11.7087,1.6569-23.4735,2.2072-35.225c0.8564-18.2896,1.5552-36.587,2.2164-54.8849
		c0.4521-12.5123,0.8112-25.0293,1.0597-37.5472c0.3278-16.5148,0.5046-33.0326,0.7565-49.5489
		c0.0109-0.7164,0.1227-1.4312,0.2466-2.7986c2.646,2.394,4.9565,4.4844,7.6578,6.9285c0.3721,8.566,0.9857,17.6028,1.1178,26.6467
		c0.4668,31.9375,0.7697,63.8774,1.1304,95.8164c0.0204,1.8101,0.0026,3.6205,0.0026,6.1767
		c1.6653-0.6851,2.9797-1.0231,4.0772-1.7088c9.5836-5.9877,14.8906-15.1679,18.5539-25.4454
		c5.4125-15.1852,7.5291-30.9658,7.9064-47.0044c0.162-6.8893,0.0271-13.7856,0.0271-20.6149
		c-3.3978-0.4378-6.4557-0.4271-9.2504-1.2796c-5.1487-1.5707-5.927-4.2035-2.6491-8.4256
		c2.5518-3.2867,5.4401-6.3122,8.6918-10.0421c-0.0447-0.0939-0.5593-1.3976-1.252-2.5983
		c-9.085-15.7448-21.2988-28.7615-34.8018-40.8012c-23.1965-20.6828-50.2203-34.9758-78.088-48.0074
		c-34.5772-16.1693-70.8525-26.8552-108.3756-33.2633c-16.9599-2.8963-34.1261-4.3835-51.36-5.168
		c-22.8997-1.0424-45.7213,0.1769-68.5533,1.3935c-27.1964,1.4492-53.9118,6.5019-80.7175,10.9139
		c-32.7781,5.3951-64.9426,13.3828-96.8989,22.3147c-17.3681,4.8544-33.6778,12.4197-50.2071,19.435
		c-8.6842,3.6858-17.4368,7.2103-26.1543,10.8175c-27.2572,11.2787-51.9753,26.5922-73.7548,46.5418
		C82.1667,441.9105,81.1137,443.6393,79.8835,445.1747z"/>
	<path class="st0" d="M753.0696,320.8159c-0.992-2.695-1.6725-4.2983-2.1777-5.9551c-4.3376-14.2243-8.6415-28.459-12.9609-42.6888
		c-0.8021-2.6422-1.937-4.8745-4.534-6.4535c-15.6404-9.5094-32.482-16.0453-50.1179-20.6829
		c-0.3256-0.0856-0.7098,0.0509-1.486,0.1223c0.0143,7.6599-0.1337,15.3989-4.0785,23.7569
		c-2.9-9.049-0.7722-17.2878-1.6921-25.6546c-4.5555-1.5428-9.209-3.1188-13.8626-4.6948c0.0872-0.3986,0.1745-0.7972,0.2617-1.1958
		c4.2087,0.2907,8.4175,0.5815,12.6029,0.8706c1.3389-4.6591,0.936-9.4592-1.8102-21.1235
		c-7.9097-1.9255-16.1348-2.8644-24.4117-3.7341c-7.8743-0.8274-16.0854-0.0267-23.4875-3.8783
		c15.737-4.6936,30.9606-0.2781,46.7917,2.674c-1.0765-8.1182-3.1129-15.196-8.3551-21.338
		c2.5861-2.0125,4.4479-1.1355,5.6642,0.8428c1.6984,2.7627,3.2684,5.6676,4.4103,8.6939
		c1.5916,4.2182,2.7366,8.6049,4.1842,13.2794c4.8068,1.4128,9.8438,2.8184,14.8339,4.3748
		c11.7432,3.6628,11.7341,3.6919,14.1575,7.0449c-5.2816-0.1517-9.4545-2.5077-13.9086-3.4555
		c-4.4207-0.9406-8.7843-2.1503-13.8927-3.4211c0.9597,7.3945,1.8566,14.3058,2.8014,21.5856
		c17.8712,5.1572,35.1879,11.9096,51.3257,22.2509c0.8547-2.3912-0.45-4.0387-0.9882-5.7516
		c-7.682-24.4503-19.7987-46.6857-33.7056-68.0795c-12.2794-18.8902-24.8428-37.5579-40.2512-54.0821
		c-25.0516-26.8656-53.8084-48.7051-88.0432-62.5581c-19.5485-7.9103-39.9948-13.0194-60.7592-16.7192
		c-17.3125-3.0848-34.7036-5.4887-52.341-5.6284c-6.1587-0.0488-12.3154-0.3244-18.4739-0.4472
		c-1.208-0.0241-2.4203,0.1787-4.8068,0.3722c14.7968,14.3081,25.1353,30.5181,33.474,48.3824
		c7.7372-0.9856,15.1986-1.9361,23.7213-3.0218c-3.9774-7.8277-7.528-14.8153-11.1928-22.0276
		c2.8247-0.9242,4.4083,0.8798,5.5185,2.5177c3.0367,4.4802,5.7873,9.1573,8.5707,13.8047c0.9044,1.51,1.5598,3.1692,2.3898,4.8859
		c5.1634-0.7443,9.9254-1.4307,15.0172-2.1646c-0.368,3.8849-3.0786,4.2119-5.3558,4.9332c-2.3913,0.7574-4.8348,1.35-7.5401,2.0927
		c3.4116,9.9751,6.7266,19.6679,10.153,29.6864c2.8603-0.47,5.6314-0.9254,8.9731-1.4746
		c-1.5798,3.9969-5.6666,3.5134-8.0591,6.0005c5.8356,22.0867,8.8937,44.6197,6.0259,67.6925
		c-5.8919-21.5598-6.33-44.1286-12.3986-65.9854c-7.693,1.6712-15.2379,3.3102-23.3513,5.0728
		c-0.2376,10.9053-0.1704,21.8927-3.7357,32.5313c-4.3974-9.7677-3.8608-20.5061-6.2153-30.8121
		c-17.7742,1.7032-35.3557,3.3879-52.9611,5.075c0.6994,10.5548,1.5625,20.951,2.0292,31.3651
		c0.4597,10.2545-0.0849,20.4453-3.401,30.2281c-0.4676-0.0125-0.9352-0.0249-1.4028-0.0374
		c-0.318-5.7255-0.7892-11.4477-0.9156-17.1774c-0.16-7.258,0.218-14.5339-0.1117-21.7805
		c-0.3357-7.3772-1.2492-14.7281-1.9583-22.6335c-11.961-0.2746-23.4503-0.5384-34.9396-0.8022
		c-0.0517-0.3604-0.1033-0.7208-0.155-1.0812c0.8748-0.4061,1.7281-1.1066,2.6277-1.1723
		c8.3076-0.6072,16.6253-1.0755,24.935-1.6558c1.9596-0.1369,3.9003-0.5436,6.5801-0.9321
		c-1.9409-7.0009-3.7812-13.6388-5.6214-20.2767c8.2964,4.4054,7.4618,13.2752,10.9511,20.6521
		c17.4267-1.4108,35.0789-2.8398,52.5935-4.2577c1.4802-5.4067-1.8999-20.0135-7.3026-31.9704
		c-4.2947,0.4524-8.7513,0.961-13.2159,1.3857c-22.8947,2.1776-45.8055,4.1977-68.681,6.5589
		c-10.2155,1.0544-20.2632-0.0352-30.3454-1.1752c-1.1264-0.1274-2.2031-0.6938-3.3085-2.1424
		c1.4773-0.4003,2.9373-0.8874,4.4347-1.1875c14.2532-2.8569,28.722-3.7601,43.1821-4.7824
		c20.0529-1.4178,40.0996-2.9247,60.1458-4.4352c1.6019-0.1207,3.1793-0.5655,5.0181-0.906
		c-0.5296-1.4892-0.8929-2.8845-1.501-4.1634c-6.8239-14.3546-15.4582-27.4862-26.3487-39.1148
		c-3.7576-4.0122-7.7584-5.8947-13.718-5.7876c-50.7444,0.9119-99.6248,11.5583-147.2776,28.1488
		c-24.437,8.5079-46.8915,21.2255-68.3302,35.7521c-25.2425,17.104-47.7344,37.3156-68.3527,59.6658
		c-7.6484,8.2909-14.0315,17.5901-19.665,27.3602c-6.7062,11.6306-13.0852,23.4522-19.9108,35.0109
		c-6.9917,11.84-9.589,24.9472-11.9741,38.1931c-2.7628,15.3438-5.0738,30.7975-9.9429,45.6788
		c-1.2955,3.9593-2.7605,7.888-4.4901,11.6743c-2.4496,5.3623-5.8946,6.0921-9.3778,1.5537
		c-4.3415-5.6569-7.7943-12.1077-6.4421-19.5822c3.9381-21.7695,8.0292-43.5148,12.3972-65.2018
		c2.2314-11.079,6.3673-21.5919,11.8165-31.4992c7.9557-14.4645,15.9073-28.94,24.2793-43.1645
		c10.4928-17.8278,24.484-32.7917,39.4309-46.9567c19.9684-18.9237,41.4108-35.8803,64.9067-50.2454
		c25.2366-15.4293,52.0917-27.0783,80.4331-35.4781c29.0554-8.6115,58.5314-15.3561,88.5375-19.4591
		c22.4771-3.0735,45.1701-4.0054,67.8475-3.57c23.1779,0.445,46.29,1.8763,69.1599,6.2893
		c23.7532,4.5834,47.2272,10.2156,69.3248,20.126c26.8654,12.0487,50.8237,28.6203,72.2802,48.8789
		c23.4801,22.1691,41.9025,48.0508,57.4423,76.1754c11.951,21.6297,23.7001,43.3723,30.0306,67.4494
		c4.8845,18.5774,9.1939,37.3079,13.6127,56.005c1.3328,5.6398,2.3846,11.3668,3.1669,17.1082
		C755.9537,312.5446,756.8979,316.428,753.0696,320.8159z M502.8067,130.4647c-3.4649-10.9521-6.604-20.8742-9.8014-30.9808
		c-7.9917,1.3266-15.2522,2.5318-22.4775,3.7312c3.0045,10.5379,5.9618,20.9107,9.0696,31.8111
		C486.8655,133.5977,494.2577,132.1449,502.8067,130.4647z"/>
	<path class="st0" d="M137.8907,293.7988c-1.3118-16.2632,0.3683-32.0451,3.2584-47.8471
		c-4.4834-0.0722-8.0367,2.6361-13.4806,1.1144c3.1095-2.2573,5.0152-4.1809,7.3204-5.209
		c5.9827-2.6682,8.4636-7.0171,9.8074-13.498c2.087-10.0647,5.7004-19.8264,8.9236-29.6322
		c0.7848-2.3875,1.5609-5.1823,4.8604-6.723c0.2009,1.3501,0.6315,2.3608,0.4387,3.2338
		c-2.4975,11.3104-5.0923,22.5992-7.6318,33.9003c-0.2255,1.0038-0.2354,2.0559-0.4075,3.6669
		c2.1328-0.8509,3.7482-1.5586,5.4061-2.1468c12.2957-4.3619,24.5569-8.8285,36.9277-12.9668
		c3.6805-1.2312,7.5619-2.5689,11.7574-1.4636c0.1828,2.9565-2.1564,3.7039-3.9625,4.5644
		c-6.2144,2.9609-12.475,5.8371-18.8072,8.5359c-10.0053,4.2643-20.0556,8.4273-30.1509,12.4732
		c-2.2585,0.9051-3.5374,1.9503-3.7992,4.56c-0.9382,9.3549-2.2002,18.6772-3.1638,28.0299
		c-0.5178,5.0258-0.6773,10.0884-1.0524,15.9825c2.1063-0.81,3.567-1.2616,4.9326-1.9127
		c48.1435-22.955,98.4308-39.88,149.9896-53.1802c27.5544-7.108,55.4577-12.4355,83.7006-16.0506
		c17.076-2.1857,34.1372-4.2412,51.3813-4.4139c11.4197-0.1144,22.8875-1.1923,34.2441-0.4559
		c16.4099,1.0641,32.7897,3.0103,49.0899,5.2525c23.4149,3.2209,46.2911,8.9113,68.4333,17.2436
		c8.4783,3.1905,16.754,6.9455,25.0134,10.6834c7.7206,3.4941,14.2648,8.6378,19.4998,15.3337
		c1.0082,1.2895,1.5916,2.911,2.5472,4.7113c-4.8174,1.4153-8.7254,0.2624-12.4445-0.7869
		c-5.394-1.5218-10.7099-3.4388-15.8815-5.6099c-29.4454-12.3617-60.0772-20.1309-91.6742-24.4894
		c-20.5032-2.8282-41.063-4.5413-61.744-4.045c-22.8218,0.5477-45.5176,2.6388-68.134,5.9294
		c-22.4193,3.2619-44.7196,7.0838-66.7248,12.4277c-62.917,15.2794-124.2366,35.2162-182.2637,64.2982
		c-14.248,7.1408-27.7944,15.6785-41.6945,23.5187c-2.9371,1.6567-4.4085,3.6598-4.2075,7.3613
		c0.4405,8.1132,0.3498,16.2567,0.4132,24.3884c0.0433,5.5601-0.8041,7.8197-4.422,12.1157
		c-4.572-3.2781-5.6703-8.2495-5.8967-13.2223c-0.2624-5.7657,0.3296-11.5694,0.5206-17.3576
		c0.0329-0.9974-0.084-1.9998-0.1617-3.629c-7.0075,4.3608-12.8141,9.2053-18.151,14.5695
		c-4.6019,4.6256-8.891,9.5639-13.2836,14.3955c-1.5013,1.6514-3.0423,3.6873-5.4277,1.9112
		c-2.3186-1.7263-1.7901-4.2432-0.4393-6.3686c4.1787-6.575,8.1372-13.3303,12.8156-19.5374
		c6.3692-8.4504,14.4742-15.2497,22.8248-21.6963c18.0208-13.9117,37.4728-25.5493,57.6019-36.1028
		C135.5483,295.1544,136.4755,294.5976,137.8907,293.7988z"/>
	<path class="st0" d="M265.4523,883.6019c-1.7775,5.2554-2.9797,9.5151-4.661,13.5764c-1.5815,3.82-3.3035,7.6808-5.6256,11.07
		c-2.8797,4.2031-5.4986,3.5616-9.9824,0.9141c-8.6862-5.129-11.5329-14.1782-15.9272-22.1135
		c-3.6521-6.5949-4.1978-14.1166-4.2099-21.642c-0.0229-14.202,2.9308-27.7,9.1178-40.4644
		c3.2871-6.7817,9.3828-10.2086,16.6765-9.6637c3.7627,0.2811,5.9328,2.4161,5.7826,6.2595
		c-0.1479,3.787-0.9397,7.5497-1.0698,11.3362c-0.1924,5.6022-0.0498,11.2158,0.8068,16.9388
		c0.3541-2.805,0.7943-5.6022,1.0484-8.4161c1.7461-19.334,6.8939-37.7452,15.2716-55.2177
		c3.9105-8.1556,14.435-11.2214,22.4896-7.2624c2.4742,1.2162,3.1008,2.917,2.8473,5.2081
		c-0.4579,4.1377-1.0567,8.2615-1.6771,12.379c-2.0586,13.6622-3.1043,27.3368-0.7393,41.0782
		c1.0562,6.1368,2.9381,12.0249,6.2182,17.3026c3.1292,5.0349,3.1895,10.5477,2.0522,15.7682
		c-0.877,4.0254-0.5323,8.8782-4.4673,11.8855c0.2667,4.7713-2.6469,8.4561-4.4415,12.4796
		c-1.1539,2.587-2.7414,5.1713-4.7376,7.1478c-3.117,3.0864-6.1555,2.7819-9.5041-0.1907c-0.9466-0.8403-1.8189-1.8497-2.913-2.4235
		c-4.5802-2.4026-7.4883-6.1522-9.3989-10.8612C267.8105,887.2163,266.8096,885.9053,265.4523,883.6019z"/>
	<path class="st0" d="M552.5657,842.7639c-0.152,11.3339-1.2716,22.4557-5.6552,33.0259c-2.0037,4.8317-4.011,9.6681-6.2339,14.4003
		c-1.5666,3.3349-3.7731,6.2958-7.4969,7.465c-1.2631,0.3964-3.0815,0.6492-4.0546,0.0332c-2.7233-1.7236-5.9415-3.4474-7.52-6.0479
		c-4.387-7.2271-9.3125-14.2793-10.5723-23.0494c-0.5504-3.8319-0.5911-7.4703,0.1627-11.2761
		c2.178-10.9965,4.6251-21.9573,4.5433-33.2864c-0.0862-11.9441-2.4434-23.3477-7.3213-34.2505
		c-1.2549-2.8049-2.6445-5.619-3.3658-8.5767c-1.0117-4.1486,0.4038-6.0095,4.5086-7.0357
		c1.2303-0.3076,2.4622-0.6099,3.6891-0.9308c7.3856-1.9322,13.0664,1.0129,17.6237,6.4977
		c10.8063,13.006,17.1125,28.0957,19.8208,44.6796C551.683,830.4696,551.9624,836.6432,552.5657,842.7639z"/>
	<path class="st0" d="M544.0358,954.3456c0.6595,22.946-4.6177,44.5448-15.4846,64.7422c-1.9671,3.6561-4.177,7.2543-6.7624,10.4896
		c-4.9637,6.2114-9.9243,6.2371-16.4886,1.7382c-6.6364-4.5483-12.9774-19.3386-9.9856-26.4802
		c1.249-2.9816,2.6008-6.083,4.6114-8.5566c13.9737-17.1912,19.024-37.6081,21.5021-58.9235
		c0.7928-6.8193,0.8485-13.7269,1.1727-20.5974c0.213-4.5152,0.7921-5.3036,5.0966-6.2985
		c6.3577-1.4695,9.964,0.5329,12.0885,6.8246c2.8057,8.3095,3.515,16.9858,4.1998,25.6386
		C544.2851,946.7079,544.0358,950.5367,544.0358,954.3456z"/>
	<path class="st0" d="M341.6814,788.7896c-1.4154,12.5235,1.0404,22.9011,6.1675,32.8345
		c2.7012,5.2332,1.8663,11.0172,0.8033,16.5186c-0.6687,3.4609-2.5545,6.8184-3.4579,10.0629
		c-1.1346,4.0746-3.1887,7.5931-4.7198,11.3617c-1.098,2.7025-3.2108,5.2535-5.4743,7.153
		c-2.598,2.1802-4.5888,1.6786-7.2655-0.4968c-1.5445-1.2553-3.0247-2.6454-4.7314-3.6338c-3.2955-1.9084-5.3959-4.727-7.0342-8.049
		c-1.2008-2.4351-2.4011-4.8973-3.8856-7.1613c-8.5514-13.041-10.39-27.3494-7.1455-42.2063
		c1.764-8.0777,4.8138-15.908,7.702-23.6946c1.7907-4.8279,5.2164-8.1696,10.867-8.5449c1.9526-0.1298,3.9537-0.6882,5.7725-1.4388
		c4.1749-1.7227,7.2101,1.1634,10.5016,2.5792c1.0332,0.4444,1.7263,2.67,1.8161,4.1271
		C341.842,782.1707,341.6814,786.1652,341.6814,788.7896z"/>
	<path class="st0" d="M474.7372,807.1541c0.0249,6.6188-1.1953,12.8634-4.3037,18.8312c-2.0554,3.9461-3.164,8.3754-5.0532,12.4219
		c-1.0468,2.2419-2.5297,4.468-4.3447,6.1205c-2.9462,2.6825-5.5208,2.3704-8.5655-0.2071c-1.2367-1.047-2.6236-1.9146-3.902-2.915
		c-1.1374-0.89-2.664-1.6298-3.2538-2.8162c-3.7769-7.5956-9.5879-14.2123-11.3381-22.7668
		c-0.6459-3.1569-1.0414-6.4648-0.8777-9.6694c0.559-10.944,0.0497-21.7396-2.97-32.3481c-0.7405-2.6015-1.362-5.3008-1.5289-7.9868
		c-0.257-4.138,1.313-5.8942,5.3743-6.8587c1.4077-0.3344,2.857-0.55,4.2159-1.0244c7.6887-2.6838,14.1421-0.0172,18.9371,5.645
		c9.062,10.7008,14.6844,23.2393,17.2595,37.059C474.7812,802.759,474.6337,804.9799,474.7372,807.1541z"/>
	<path class="st0" d="M285.2803,445.1972c-1.2763,3.3378-2.3883,6.7516-3.8837,9.9882c-1.0883,2.3556-3.285,2.6089-5.5932,1.7991
		c-0.5024-0.1763-0.9818-0.4753-1.409-0.8006c-14.5429-11.0753-30.5276-9.7872-46.6822-5.0511
		c-14.5318,4.2603-27.6917,11.5778-40.5439,19.459c-2.9208,1.7911-6.021,3.2947-9.0693,4.8713
		c-1.7901,0.9259-3.5808,0.8802-4.8972-0.7991c-1.3673-1.7442-2.5567-3.6879-1.0628-5.9408
		c1.4959-2.2558,2.7838-4.8041,4.7508-6.569c19.8433-17.8042,42.2643-30.263,69.1912-33.7799
		c11.6609-1.523,22.306,0.2119,32.179,6.6122C281.9157,437.3563,284.8361,440.1493,285.2803,445.1972z"/>
	<path class="st0" d="M475.2122,852.2372c1.3083,5.5746-1.4367,8.2686-4.2822,10.8318
		c-6.9597,6.2693-15.0845,10.6868-23.6442,14.2775c-20.6284,8.6534-41.9987,12.5574-64.3064,8.9609
		c-4.9546-0.7989-9.8421-2.4406-14.5494-4.245c-6.8781-2.6367-10.8059-8.332-13.5221-14.8568
		c-1.3801-3.3151-0.373-5.0314,3.0457-6.0389c4.8169-1.4196,9.3338-1.3629,14.1823,0.8646
		c22.7437,10.4489,46.2774,10.7498,70.1193,4.4241c9.8466-2.6126,19.3483-6.1139,27.7276-12.1802
		C471.3228,853.305,473.1541,853.0136,475.2122,852.2372z"/>
	<path class="st0" d="M514.0544,824.7048c0.0698,9.0535-3.7657,16.8458-7.9379,24.4361c-2.1487,3.9087-4.8188,4.2106-8.2552,1.3096
		c-8.2241-6.9431-13.3563-15.7185-13.2959-26.6186c0.0774-13.9775-2.6577-27.2758-7.7808-40.1809
		c-0.4654-1.1724-0.9382-2.3668-1.1846-3.5958c-0.4925-2.4564,0.2785-4.1225,2.934-4.9113
		c6.7066-1.9922,11.6265-2.3272,17.1321,4.9611c8.5228,11.2823,13.8228,24.1033,17.5769,37.6108
		C513.8633,819.9482,513.8011,822.3704,514.0544,824.7048z"/>
	<path class="st0" d="M428.5388,811.584c0.1988,12.5659-3.7019,20.5297-7.9313,28.283c-2.0813,3.8155-5.047,4.1491-8.385,1.1902
		c-8.7245-7.7341-13.5874-16.9666-13.3698-29.2363c0.1976-11.1357-1.0988-22.3557-2.4923-33.4435
		c-1.0973-8.7309-0.8849-9.5467,7.758-10.8922c3.8238-0.5952,6.5745,1.1057,9.2708,3.2634c0.5485,0.439,0.9635,1.0956,1.3158,1.7217
		C422.1489,785.7017,426.7023,799.8766,428.5388,811.584z"/>
	<path class="st0" d="M381.8889,816.2056c-0.7572,2.672-1.8142,7.0236-3.2422,11.2496c-1.1995,3.55-2.6597,7.0402-4.3391,10.389
		c-0.9336,1.8616-2.3474,3.6135-3.9183,4.9878c-1.6089,1.4076-3.5372,1.4282-5.413-0.1342
		c-11.8899-9.9044-17.7904-22.3023-16.2982-37.9758c0.4623-4.8564,0.3896-9.7617,0.6754-14.6381
		c0.1152-1.9647,0.4333-3.9332,0.8413-5.8614c0.5825-2.7526,2.1748-4.4023,5.174-4.7114c1.7738-0.1827,3.4737-0.9897,5.2398-1.3572
		c6.6901-1.392,11.7933,1.0464,14.3402,7.3321C378.6989,794.741,381.2542,804.3265,381.8889,816.2056z"/>
	<path class="st0" d="M612.9867,472.4276c-0.743-1.1669-1.6904-2.2515-2.1984-3.5131c-8.5627-21.2643-25.4-30.6882-47.1823-32.9434
		c-9.7991-1.0146-19.5755-0.7181-28.9862,2.5023c-4.2538,1.4557-8.319,3.5222-12.3541,5.5426
		c-4.825,2.4159-7.9657,1.8206-10.6593-2.373c-3.029-4.7156-2.5779-8.9662,1.4496-12.0217
		c1.4272-1.0828,3.0382-2.0732,4.7217-2.6464c28.5155-9.7089,55.3823-7.137,79.5978,11.6779
		c9.3337,7.252,14.0312,17.8121,17.2985,28.9327c0.4048,1.3779-0.1157,3.0277-0.2073,4.5515
		C613.9733,472.2338,613.48,472.3307,612.9867,472.4276z"/>
	<path class="st0" d="M431.0499,703.9955c0.1215,8.5666-2.8512,16.3588-6.2888,23.9628c-1.7809,3.9393-3.9606,7.7484-6.3857,11.3278
		c-1.4847,2.1915-3.6139,4.0498-5.7477,5.6705c-2.4732,1.8786-5.4095,2.1872-8.1915,0.5593
		c-6.0851-3.5607-9.9315-9.0088-11.6089-15.6925c-1.1856-4.7244-0.2746-9.421,3.3468-13.1365
		c4.9615-5.0905,9.0722-10.7672,12.6053-16.9473c2.2606-3.9543,5.2401-7.1066,10.3117-8.0093
		c6.0441-1.076,12.1284,0.8086,11.9621,9.0004C431.0308,701.8187,431.0499,702.9073,431.0499,703.9955z"/>
	<path class="st0" d="M707.5143,378.682c-3.3635-4.5131-4.1287-9.3542-4.7995-14.1309
		c-1.6567-11.7969-3.1417-23.6187-4.5823-35.4442c-0.2781-2.2831-0.04-4.629-0.04-6.8097c1.8506-0.9756,3.1054-0.4641,3.8132,1.0632
		c0.7537,1.6263,1.493,3.318,1.8484,5.0606c2.417,11.8539,4.8033,23.7152,7.0369,35.6046
		C711.5211,367.912,710.0061,374.0831,707.5143,378.682z"/>
	<path class="st0" d="M728.0507,396.4687c-2.463-3.9451-2.5323-7.8758-2.7462-11.7334c-0.5107-9.21-0.7697-18.4371-1.4557-27.633
		c-0.3311-4.437-1.3967-8.8191-2.1674-13.4528c2.9798-0.9385,3.9511,0.866,4.5105,2.7322
		c1.0366,3.4576,2.1257,6.9509,2.6216,10.5089c1.1708,8.4009,2.2708,16.8297,2.874,25.2846
		C732.0297,386.9742,731.0852,391.7785,728.0507,396.4687z"/>
	<path class="st0" d="M682.1782,319.7831c0.6784,1.529,1.7432,3.0024,1.9725,4.596c1.488,10.3374,2.8425,20.695,4.1309,31.0596
		c0.3966,3.1904-0.6456,6.0145-3.0871,8.4435c-3.5887-1.6357-4.1239-5.1504-4.3542-8.1426
		c-0.7891-10.2522-1.1368-20.5407-1.5049-30.8207c-0.059-1.6447,0.6397-3.3165,0.9882-4.9757
		C680.9418,319.8899,681.56,319.8365,682.1782,319.7831z"/>
	<path class="st0" d="M123.3189,299.1352c-3.7258-2.4431-4.8039-5.5899-4.9479-8.7789
		c-0.5475-12.1287,0.7915-24.1354,3.1269-36.0282c0.2829-1.4406,1.1384-2.7688,2.2756-4.0243
		c1.509,5.3338,0.4988,10.5406,0.2266,15.7654c-0.2913,5.591,0.0652,11.2219-0.3546,16.7982
		C123.2507,288.1109,126.5928,293.4404,123.3189,299.1352z"/>
	<path class="st0" d="M740.458,357.4975c6.561,8.9494,8.6227,44.7453,3.6226,54.3805c-0.4706-0.9073-1.123-1.6344-1.2103-2.424
		c-0.4164-3.7647-1.2746-7.6082-0.8903-11.3109C743.3938,384.5204,740.2287,371.1005,740.458,357.4975z"/>
	<path class="st0" d="M268.1464,314.2695c-5.4418-4.9336-6.7142-24.0818-2.0183-30.9003c2.4706-0.0985,2.9448,1.8414,3.1963,3.5646
		c0.9136,6.2601,1.8027,12.5321,2.3878,18.8287C272.053,309.4301,270.8936,311.5473,268.1464,314.2695z"/>
	<path class="st0" d="M102.3669,379.7119c-4.9158-9.5679-4.3317-19.8036-3.8624-30.0254c0.4137-0.1802,0.8275-0.3605,1.2412-0.5407
		c0.6818,0.8002,1.8089,1.5183,1.9738,2.4137c1.1756,6.3813,2.394,12.773,3.0891,19.2164c0.3171,2.9391-0.5221,6.003-0.8369,9.0102
		C103.4368,379.7614,102.9019,379.7367,102.3669,379.7119z"/>
	<path class="st0" d="M250.7229,295.2755c2.215,7.229,3.337,13.6837,1.1986,20.5511
		C247.8482,312.2639,247.048,302.0106,250.7229,295.2755z"/>
</g>
</svg>
