<?xml version="1.0" encoding="utf-8"?>
<!-- Generator: Adobe Illustrator 24.3.0, SVG Export Plug-In . SVG Version: 6.00 Build 0)  -->
<svg version="1.1" id="Layer_1" xmlns="http://www.w3.org/2000/svg" xmlns:xlink="http://www.w3.org/1999/xlink" x="0px" y="0px"
	 viewBox="0 0 1050.7236 1007.7765" style="enable-background:new 0 0 1050.7236 1007.7765;" xml:space="preserve">
<style type="text/css">
	.st0{fill:#FFFFFF;}
</style>
<g>
	<path class="st0" d="M337.2795,781.7513c-2.5923,0.9493-4.7868,1.7528-7.3338,2.6855c-1.6473,2.564-1.3501,5.6477-0.9235,8.687
		c0.97,6.9105,3.5227,13.3097,6.5559,19.5384c2.8602,5.8735,5.8117,11.7051,8.5418,17.6385
		c1.3611,2.9579,2.4125,6.0708,3.4383,9.1685c3.532,10.6655,2.9223,21.0982-1.9591,31.249
		c-2.203,4.5812-4.3435,9.194-6.6287,13.7339c-7.0232,13.952-10.237,28.7706-9.0558,44.2875
		c0.8524,11.1985,2.6372,22.3323,4.2155,33.4653c0.4506,3.1785,1.2755,6.2889,3.7799,8.834c1.888,1.9188,1.5124,3.9551-0.81,5.5439
		c-1.9012,1.3007-4.1402,2.3972-6.3791,2.8593c-6.2876,1.298-12.6234,1.2518-18.8793-0.4623
		c-5.9882-1.6408-10.46-5.2114-12.6548-11.0093c-2.0491-5.4132-3.9677-10.9478-5.1669-16.5939
		c-1.8076-8.5104-3.2332-17.1285-4.2885-25.7658c-1.528-12.5068,0.3431-24.6639,5.4099-36.2124
		c3.2074-7.3104,6.5543-14.5807,10.2702-21.6418c5.3339-10.1362,5.9113-20.4583,2.0278-31.0641
		c-2.4325-6.6432-5.4677-13.0726-7.7448-19.7639c-2.095-6.1559-4.1019-12.4409-5.1551-18.8326
		c-2.5159-15.2684,5.4054-25.1046,20.8313-26.2042c4.989-0.3557,10.0419,0.1863,15.5118,0.3293
		c-1.1903-1.8914-2.2814-3.7295-3.4718-5.5009c-15.6232-23.2489-29.9505-47.246-40.9198-73.0741
		c-5.3904-12.6921-10.407-25.6021-11.6963-39.5353c-0.3668-3.9639-0.3557-7.9715-0.3465-11.9586
		c0.0067-2.9036,1.6019-4.8708,4.446-5.4006c7.9944-1.4892,13.6781-0.3281,16.8339,7.6783
		c12.9878,32.9501,31.1388,63.0981,50.7224,92.4555c8.0599,12.0823,15.6938,24.4516,23.8747,36.4496
		c11.601,17.0139,26.0779,31.6501,39.6734,47.0079c12.1387,13.7122,26.3966,24.8875,41.8188,34.6254
		c9.0157,5.6927,19.1852,8.5769,29.3307,11.3708c10.3199,2.842,20.7341,5.6502,31.4408,6.1949
		c5.0996,0.2594,10.5637-0.6447,15.4062-2.3319c26.3761-9.1902,50.8405-21.9374,73.3868-38.6606
		c19.0214-14.1086,37.1169-29.2683,53.7093-46.0195c15.8201-15.9716,30.7914-32.8646,43.2836-51.7281
		c4.511-6.8118,9.3384-13.423,13.6427-20.3607c4.7772-7.6999,9.1898-15.63,13.6334-23.5317
		c3.7359-6.6434,7.3137-13.3762,10.9122-20.0958c1.9698-3.6786,4.2272-7.2651,5.6879-11.1442
		c9.262-24.5947,20.2326-48.525,25.9932-74.4421c3.5316-15.8886,9.3218-31.2919,14.3881-46.8184
		c5.7154-17.5157,9.2463-35.4554,11.3138-53.7216c0.49-4.3289,1.0026-8.6551,1.5157-12.9812
		c0.2885-2.4322-0.3515-5.441,3.0773-6.1873c3.6635-0.7973,7.3922-0.9103,9.9903,2.4047c1.3126,1.6747,2.4998,3.7043,2.954,5.7489
		c1.6094,7.2439,3.28,14.5132,4.1985,21.864c2.4067,19.2609-1.1022,37.9876-5.9105,56.5349
		c-1.5363,5.9259-3.1884,11.8219-4.9194,18.2192c5.1671-1.2127,8.4617-4.1348,11.361-7.6095
		c4.8408-5.8017,8.4371-12.3997,10.3599-19.6183c2.6095-9.7966,4.4747-19.7925,6.6086-29.7138
		c0.4572-2.1252,0.7997-4.2864,1.0203-6.4488c0.565-5.5351,3.8937-8.6447,9.0629-9.327c4.2623-0.5626,8.7006-0.6065,12.969-0.1027
		c5.3669,0.6336,8.5693,4.303,10.3798,9.2907c4.1185,11.3461,3.8466,22.8186,0.8598,34.3022
		c-2.2677,8.7188-6.3012,16.6542-11.9664,23.6511c-10.5549,13.0357-24.6036,18.1594-40.9881,17.047
		c-3.8513-0.2614-7.5942-2.118-11.809-3.3657c-0.6605,2.5024-1.5845,5.4108-2.1871,8.3844
		c-3.3317,16.4398-8.344,32.3142-15.5009,47.5103c-1.7756,3.77-3.2338,7.6998-4.6668,11.6187
		c-4.3786,11.9741-9.926,23.3466-16.4563,34.3157c-5.5665,9.3503-9.8688,19.4839-15.7679,28.5995
		c-14.7914,22.8568-30.1143,45.3058-48.0549,65.9702c-12.4312,14.3185-25.6937,27.7598-39.7735,40.2513
		c-23.1265,20.5177-47.9622,38.9047-76.1529,52.123c-15.6374,7.3323-31.7533,13.5797-48.9788,16.0253
		c-8.2177,1.1667-16.2859,3.9651-24.768,2.8828c-8.8175-1.1251-17.8143-1.5275-26.4033-3.6065
		c-14.4372-3.4947-28.9494-7.1714-42.8268-12.3792c-25.3559-9.5154-47.0106-25.0209-65.683-44.5951
		c-12.7816-13.3988-25.7341-26.6609-36.8753-41.5241C338.299,782.543,337.8258,782.2404,337.2795,781.7513z"/>
	<path class="st0" d="M239.3479,669.2277c1.0338-5.8579,2.6814-11.6831,2.9958-17.5794c1.4051-26.3444-2.428-52.1696-8.9621-77.601
		c-5.603-21.8077-11.6102-43.56-21.53-63.8768c-5.0737-10.3915-11.3868-20.1778-17.3417-30.5909
		c-2.4923,1.3863-4.371,2.3885-6.2091,3.4603c-19.4257,11.3279-40.4674,17.9088-62.6788,20.549
		c-31.0135,3.6865-61.9965,2.5117-92.8216-2.1885c-6.0263-0.9189-11.8456-3.2509-17.7223-5.055
		c-1.3577-0.4168-2.664-1.2024-3.8125-2.061c-3.3816-2.5276-3.4648-5.7359,0.2492-7.8147c2.9357-1.6432,6.3486-2.7391,9.6796-3.2852
		c3.3555-0.5501,6.9661-0.644,10.3018-0.0389c24.4807,4.4414,49.1427,4.1561,73.8375,3.1626
		c14.0533-0.5653,27.8067-3.0008,41.0393-7.7827c18.8201-6.8011,36.0271-16.4313,50.0703-30.9118
		c4.5166-4.6572,8.5268-9.9608,11.9649-15.4702c4.5708-7.3246,12.8867-7.4776,18.2058-5.6602
		c3.3024,1.1283,4.4416,2.6288,4.0102,6.1423c-0.4142,3.3736-1.4205,6.6745-2.33,10.7369c1.3779-0.689,2.3997-1.137,3.3609-1.6902
		c8.662-4.9862,18.3987-6.5474,27.9236-8.7749c17.426-4.0752,35.1829-4.8717,52.9796-5.6037
		c36.7359-1.511,73.3371,0.8102,109.9146,3.6016c9.1996,0.7021,18.3087,2.6191,27.4485,4.0474
		c1.6006,0.2501,3.1654,0.7902,4.7151,1.2938c4.4694,1.4525,6.7689,4.3905,6.9145,9.2592
		c0.1788,5.9784,0.7182,11.949,1.2185,17.9132c0.1765,2.1038,0.697,4.1788,1.1132,6.5698
		c15.8187-8.2172,31.7359-6.828,47.7007-2.8646c10.9491,2.7182,21.4938,6.626,31.4175,12.0839
		c0.9304,0.5116,1.9261,0.9043,3.0031,1.4038c1.9608-8.3599,3.9069-16.4189,5.6992-24.512c0.3335-1.5063-0.142-3.1771,0.0809-4.7251
		c1.2612-8.7575,6.2838-14.1737,14.5491-17.3134c13.6887-5.1999,27.8708-8.219,42.3105-9.8453
		c31.4556-3.5426,63.0345-3.8805,94.6369-2.5851c24.373,0.999,48.4465,4.226,72.1234,10.162
		c3.6817,0.9231,7.3891,2.0049,10.8297,3.5726c6.72,3.0618,9.5117,7.7856,7.7611,14.9639
		c-3.1292,12.831-5.9489,25.6992-10.631,38.2066c-7.553,20.1765-19.0147,38.3478-27.8822,57.822
		c-2.059,4.5216-5.6153,8.4265-8.8114,12.3471c-3.3055,4.0549-8.1556,5.4344-13.1098,5.812
		c-9.2214,0.7027-18.4655,1.2402-27.7095,1.4763c-8.3462,0.2132-16.7055-0.156-25.0583-0.1155
		c-27.8123,0.1348-55.5251-1.7651-83.2176-4.0328c-7.5867-0.6212-15.1763-1.3829-22.7062-2.4808
		c-10.25-1.4945-17.4368-7.1379-22.2084-16.453c-4.9889-9.7394-7.628-19.9647-8.1902-30.7874
		c-0.2067-3.979-0.0333-7.9777-0.0333-12.1539c-16.0014-10.2665-31.752-20.5834-50.4496-25.1503
		c-6.0409-1.4755-11.1263-0.9835-14.715,4.8161c-0.9432,1.5241-2.6086,2.6159-3.483,4.1655
		c-2.6903,4.7672-6.4806,7.7277-12.4112,7.9107c-0.5511,3.9279-0.7474,7.7366-1.6682,11.3614
		c-1.6469,6.4831-3.3166,13.0208-5.7905,19.2104c-1.427,3.5702-4.2172,6.7022-6.7917,9.6884
		c-10.8347,12.5676-25.661,16.6367-41.2508,18.3853c-30.5266,3.4242-61.162,5.1036-91.8861,3.7766
		c-9.7695-0.4221-19.6953-0.6429-29.22-2.5779c-18.1458-3.6865-31.3171-14.7428-39.8048-31.0513
		c-2.8223-5.4229-4.8074-11.3902-6.4151-17.3149c-3.892-14.3427-8.0902-28.6451-9.2589-43.0345
		c-3.0925-2.2066-5.8223-4.1544-8.5281-6.085c-6.091,6.202-12.3941,12.62-18.6356,18.9752
		c14.9675,8.9789,23.9634,23.6653,32.5738,38.3699c15.1216,25.8241,24.6238,53.7746,28.2594,83.508
		c2.45,20.0363,3.3329,40.1859,0.3893,60.2932c-1.4945,10.2085-4.4568,19.8339-11.9098,27.51
		c-4.1934,4.3189-12.7775,5.8344-18.1299,3.0843c-2.8983-1.4892-3.0063-2.5253-1.3274-5.5952
		c1.9816-3.6235,3.6691-7.4078,5.4841-11.1225L239.3479,669.2277z M574.8288,457.2526c0,1.104-0.0931,2.0106,0.0136,2.893
		c2.312,19.1002,4.457,38.2236,7.059,57.2845c1.2258,8.9792,3.4318,17.8208,5.0067,26.7578
		c0.7349,4.1707,2.9578,6.4188,7.1097,6.9573c3.5988,0.4667,7.1671,1.2578,10.7772,1.532
		c18.2816,1.3893,36.554,3.1641,54.865,3.8333c21.0329,0.7688,42.1048,1.3039,63.1528-0.3574
		c3.1158-0.246,5.1801-1.3196,6.4214-4.035c2.3347-5.1067,4.8398-10.1528,6.85-15.3871
		c6.1125-15.9166,11.4487-32.1582,18.1899-47.798c5.5963-12.9837,8.0274-26.7337,11.9304-40.1198
		c1.4469-4.9624,0.5186-6.0788-4.4059-7.266c-16.6287-4.0088-33.5244-6.1506-50.5504-7.6513
		c-23.0801-2.0344-46.0987-0.3146-69.1345,0.5217c-7.0672,0.2566-14.1685,0.6695-21.1596,1.6707
		c-10.5816,1.5155-21.2523,2.9622-31.0575,7.6596c-1.7344,0.8309-3.6917,1.9595-4.6481,3.506
		C582.6067,451.5255,579.3318,454.9935,574.8288,457.2526z M433.9604,444.3779c-1.2401-0.3207-2.0818-0.5912-2.9438-0.7536
		c-18.6205-3.5073-37.536-3.9226-56.356-5.2819c-23.766-1.7166-47.5387-1.234-71.3298-0.137
		c-15.7401,0.7258-30.9167,4.0122-45.9225,8.4235c-2.0405,0.5999-4.0791,1.6155-5.7748,2.8944
		c-3.5149,2.6512-3.919,5.3561-1.9209,9.3705c1.2134,2.4379,2.4626,4.8643,3.5371,7.364
		c5.5186,12.8374,11.041,25.6736,16.4547,38.5553c5.0505,12.0178,11.54,22.9552,21.472,31.7325
		c4.7732,4.2182,9.9497,6.0825,16.2357,6.4394c27.9957,1.5897,55.9218,0.2167,83.834-1.6471
		c6.8586-0.4579,13.7212-1.4587,20.4725-2.7726c9.4514-1.8395,15.4523-8.5963,18.2314-16.9896
		c5.8284-17.6025,6.9311-35.9039,5.1698-54.3766c-0.5851-6.1366-0.7995-12.3091-1.1478-18.4672
		C433.8925,447.3251,433.9604,445.9098,433.9604,444.3779z"/>
	<path class="st0" d="M811.022,251.9037c0.7104,6.4763,2.7211,12.4611,5.5001,18.1328
		c13.1258,26.7887,30.145,50.8701,50.9561,72.2296c10.9544,11.243,24.4065,18.7278,38.7108,24.8208
		c16.5654,7.0562,33.4995,12.9453,51.2564,16.2365c3.5646,0.6607,7.2109,1.0262,10.6789,2.0187
		c2.9081,0.8323,6.493,1.9656,6.3867,5.7124c-0.1033,3.6418-3.6323,4.7072-6.5562,5.6462
		c-7.0974,2.2794-14.4664,1.7379-21.6268,0.9193c-35.0671-4.0084-67.961-14.9961-98.5927-32.4199
		c-15.2424-8.6701-26.8232-21.4678-36.9396-35.665c-12.3713-17.3616-21.4938-36.1833-25.8583-57.1174
		c-1.0284-4.9329-1.6693-10.082-1.5014-15.0987c0.2863-8.5522,4.1756-12.186,12.7467-12.1608
		c4.043,0.0119,8.0824,1.202,12.3172,1.8897c-0.537-1.3747-1.2375-3.3026-2.0353-5.1893
		c-8.7567-20.7069-9.7543-41.8556-3.5895-63.3981c0.5969-2.0861,1.3606-4.1466,2.2653-6.1189
		c4.3171-9.4112,15.3344-13.2003,24.7683-8.7045c3.2895,1.5676,3.895,4.3475,4.3969,7.5378
		c1.6909,10.7476,3.299,21.522,5.4882,32.1733c2.0175,9.8153,5.866,19.0576,10.5532,27.9243
		c0.4231,0.8005,0.8604,1.5989,1.3673,2.3467c0.1719,0.2538,0.5786,0.3486,1.151,0.6687c1.7545-2.8752,2.0601-6.0683,2.2402-9.299
		c0.6359-11.4049-1.4218-22.4876-4.7441-33.2672c-13.197-42.8184-38.002-76.8969-77.0867-99.5681
		c-9.9771-5.7872-21.0305-9.732-31.6492-14.3871c-1.9602-0.8594-4.1953-1.1238-6.3248-1.5584
		c-4.0521-0.8269-7.7643-0.4806-11.3567,2.1c-3.5677,2.5629-9.3462,0.7528-11.2699-3.0768
		c-0.9768-1.9445-0.3712-3.8082,1.2805-4.7922c2.6103-1.555,5.3802-3.0737,8.2849-3.862
		c11.6951-3.174,23.4648-2.0889,35.0594,0.4968c41.8243,9.3271,77.3384,29.9052,106.2471,61.4109
		c19.3374,21.0743,32.0465,45.6676,35.5309,74.4718c0.8979,7.4225,1.0608,14.845-0.4912,22.2248
		c-2.1301,10.1285-9.4577,20.0041-22.8798,20.3545c-5.3802,0.1405-10.7769-0.3504-16.4474-0.5644
		c0.4631,0.7974,0.869,1.9236,1.6206,2.7257c9.2998,9.9241,18.3402,20.1191,28.076,29.5987
		c9.3507,9.1048,19.3506,17.5538,29.2347,26.095c4.6656,4.0318,9.7408,7.4638,16.0788,8.6696
		c2.2221,0.4228,4.4326,1.7022,6.2909,3.0746c3.7062,2.7372,3.853,6.2978,0.1826,9.001c-2.4237,1.785-5.3252,3.2101-8.2294,4.0059
		c-15.4399,4.2305-30.2462,1.8856-44.3724-5.1689c-12.7521-6.3683-24.1406-14.8401-34.7444-24.2495
		c-9.354-8.3004-18.4811-16.9187-27.056-26.0119c-5.1802-5.4934-9.1193-12.1579-13.6075-18.3024
		C812.1363,253.5933,811.5909,252.7399,811.022,251.9037z"/>
	<path class="st0" d="M944.1701,478.3022c2.7559,0.2675,4.7865,0.2561,6.7197,0.6841
		c20.7206,4.5876,40.5543,11.4649,57.9421,23.9817c4.9587,3.5694,9.6105,7.8263,13.5572,12.4845
		c7.6637,9.0454,6.8905,16.5846-1.8163,24.7399c-2.2468,2.1047-4.6896,4.0209-7.1674,5.8549
		c-13.6967,10.1378-13.366,24.5114-8.3134,34.4246c4.015,7.8771,8.8866,15.4207,14.1527,22.5391
		c22.9371,31.0049,28.5769,65.6783,22.1212,102.8586c-2.2512,12.965-7.4355,25.018-14.1646,36.3488
		c-10.6885,17.998-22.3454,35.2745-37.491,49.9268c-12.0244,11.6328-26.1426,19.4263-42.4771,23.1663
		c-5.9399,1.3601-11.8757,1.49-17.8099,0.0417c-1.4052-0.3428-2.8201-0.7418-4.139-1.3224
		c-2.5217-1.1102-5.3206-2.3876-5.4726-5.4807c-0.1712-3.4841,2.7957-5.0353,5.5414-5.9171
		c12.4935-4.0123,21.62-12.451,29.4634-22.4131c14.6918-18.6606,26.7996-38.7935,34.1945-61.5501
		c8.244-25.3696,7.5257-50.7277,0.3224-76.1489c-3.7458-13.2191-9.9944-25.2606-16.8903-37.0522
		c-3.291-5.6275-6.3519-11.4437-8.9153-17.4321c-6.6516-15.5389-3.0699-31.7987,9.5104-43.1948
		c4.1505-3.7596,8.8856-6.8838,13.421-10.2064c8.9803-6.5788,9.5349-10.4695,2.5887-19.1847
		c-5.4238-6.8051-12.3256-11.9212-19.9691-15.7368c-7.9243-3.9558-16.2798-7.0721-24.5452-10.3036
		c-2.1247-0.8307-4.643-0.5993-6.9391-1.0616c-2.6467-0.533-5.5807-0.9448-6.4157-4.1463
		c-0.5186-1.9886,1.5916-3.8306,5.6749-4.8211C939.4737,478.7457,942.2069,478.5783,944.1701,478.3022z"/>
	<path class="st0" d="M329.822,199.0699c0.4619,14.9327,3.8225,26.7793,9.5592,37.845c7.263,14.0096,15.2071,27.666,22.4703,41.6755
		c4.082,7.8734,7.7792,16,10.9474,24.2812c5.1477,13.456,5.497,27.3343,1.6122,41.1929
		c-4.9062,17.5023-16.0942,28.456-34.232,31.7415c-7.1634,1.2976-14.3901,2.3185-21.5986,0.3488
		c-2.2459-0.6136-4.5549-1.4026-6.4953-2.6429c-3.8374-2.4527-3.8578-5.6484-0.1432-8.1958
		c1.6134-1.1064,3.5107-2.0179,5.4082-2.448c4.92-1.1151,7.769-4.4139,9.8466-8.6296c5.6873-11.5403,6.6823-23.6556,3.9786-36.0866
		c-2.8892-13.2837-9.0858-25.2116-15.7615-36.8979c-8.0085-14.0193-16.5413-27.7496-22.8364-42.6909
		c-5.8104-13.7909-8.9896-28.0459-6.9149-43.0142c2.889-20.8434,13.6996-37.229,29.7846-50.2678
		c18.3008-14.8349,39.9392-20.9094,62.9202-23.1373c28.7069-2.7831,55.9377,3.4028,82.4214,13.8382
		c13.6874,5.3933,27.0834,11.4221,39.5019,19.4154c7.0679,4.5493,13.6354,9.7263,18.6225,16.5509
		c1.9927,2.7268,3.7074,5.8694,4.6667,9.0858c1.2425,4.1658-0.6084,6.5584-4.7928,7.5786
		c-5.8846,1.4347-9.1807-0.0667-12.7559-5.1875c-1.6385-2.3468-3.7312-4.4563-5.9125-6.3307
		c-10.143-8.7157-21.7122-15.1045-33.9199-20.4178c-19.5169-8.4946-39.3952-15.9247-60.6378-18.6936
		c-18.7423-2.443-36.3394,0.8533-51.2182,13.1761C338.6951,164.1187,330.7374,181.1234,329.822,199.0699z"/>
	<path class="st0" d="M275.0107,890.4247c0.0707,8.0523-0.3466,23.8571-4.1452,39.2971
		c-5.7847,23.5129-16.9324,43.9479-35.9343,59.4789c-8.0088,6.5458-17.2385,10.9288-27.6085,11.8943
		c-4.5765,0.4262-9.3147-0.608-13.9466-1.2261c-1.3573-0.181-2.7273-1.0397-3.8724-1.8848
		c-2.8541-2.1064-2.9092-4.4427-0.3014-6.7388c0.5401-0.4755,1.1468-0.9272,1.7999-1.2145
		c9.625-4.2338,15.6319-12.1761,20.9918-20.6867c9.0773-14.4133,13.5527-30.3224,15.3982-47.1668
		c1.8115-16.5343,0.4761-32.9952-0.405-49.4763c-0.8622-16.1266-1.8367-32.2477-2.8483-48.3658
		c-0.5228-8.3293-1.2768-16.6439-1.8496-24.9703c-1.264-18.3748-0.7899-36.618,3.789-54.6091
		c4.0504-15.9144,12.1268-29.3791,23.8047-40.8409c6.6638-6.5406,14.5475-7.8033,23.1494-5.6517
		c5.6467,1.4124,6.6404,3.915,4.3456,9.2342c-1.0056,2.3309-2.0509,4.6522-3.2227,6.9025
		c-6.5899,12.6542-9.2938,26.2208-9.8539,40.3655c-0.6642,16.7782,1.1993,33.3442,3.8253,49.8527
		C271.8288,827.8914,274.6831,860.1172,275.0107,890.4247z"/>
	<path class="st0" d="M146.389,513.6941c-2.0199,1.7078-3.2068,3.0425-4.6747,3.891c-4.6581,2.6926-8.1661,6.5248-11.5539,10.614
		c-11.8409,14.2922-20.2309,30.5209-26.9465,47.6769c-9.579,24.4708-16.1268,49.7281-18.3721,75.9492
		c-1.46,17.0505-0.8074,34.1331,1.3383,51.1089c3.0501,24.131,6.3557,48.2297,9.5382,72.3441
		c0.6877,5.2107-0.2188,6.8136-5.2289,8.4592c-6.0287,1.9802-12.1331,1.8232-18.2372,0.1678
		c-3.8115-1.0337-6.3957-3.2532-7.4584-7.146c-3.3909-12.421-7.3842-24.7115-10.0797-37.2808
		c-4.2214-19.685-7.9923-39.4894-11.1752-59.3679c-3.2799-20.4846-1.545-40.9408,2.8084-61.152
		c4.8042-22.3044,11.987-43.7032,23.9829-63.3382c9.1593-14.9921,21.1391-27.1762,35.4611-37.1396
		c7.4436-5.1783,15.9045-7.9734,24.8507-8.9581c3.347-0.3684,6.878,0.1488,10.2161,0.8112
		C142.5765,510.6748,144.0556,512.2214,146.389,513.6941z"/>
	<path class="st0" d="M773.3442,818.225c-1.2144,27.66-3.0213,60.4957-1.1511,93.3682c0.6791,11.9365,0.7768,23.994,4.9915,35.4438
		c0.8186,2.2241,0.1492,4.0074-1.6342,5.2575c-1.4634,1.0256-3.1103,1.907-4.8034,2.4659
		c-5.8299,1.9247-11.8083,1.8158-17.7695,0.744c-4.7204-0.8488-8.1935-3.4038-10.6642-7.6505
		c-3.7195-6.3931-5.9805-13.3132-7.0453-20.4851c-2.0772-13.9897-4.3098-28.0181-5.1756-42.1105
		c-1.1459-18.6489-1.6036-37.3821-1.3542-56.0658c0.4599-34.4464,5.3955-68.3717,14.3011-101.6542
		c1.8621-6.9592,4.4957-13.8387,7.7363-20.27c4.0104-7.9591,13.8741-10.5917,22.059-6.8434
		c2.3674,1.0841,3.8038,2.6947,3.8408,5.3916c0.0572,4.1731,0.3258,8.352,0.1851,12.5176
		C775.7934,749.9077,774.6484,781.4785,773.3442,818.225z"/>
	<path class="st0" d="M900.1475,663.3562c3.1165-5.536,3.9131-10.4937,4.1483-15.5999c0.6298-13.6735-0.7225-27.2186-2.851-40.6884
		c-1.0756-6.8065-2.4544-13.5743-3.9496-20.3032c-3.3259-14.9678-9.8195-28.4081-19.8197-40.1006
		c-0.3297-0.3855-0.4364-0.9618-0.6448-1.444c0.6882-2.5676,2.7845-3.2936,4.9109-3.7853
		c7.7617-1.7946,14.7279-0.572,20.5328,5.3757c11.827,12.1179,19.991,26.2125,23.4453,42.8883
		c3.845,18.5622,6.2778,37.2391,4.3173,56.2449c-0.6219,6.0294-2.2579,11.7082-5.5873,16.8955
		c-2.0447,3.1858-4.8596,4.8354-8.4426,5.2893c-5.1172,0.6483-10.1599,0.5048-15.3408-2.7217
		c0.2089,1.9422,0.2448,3.2972,0.5114,4.6052c6.6823,32.7911,7.0432,65.6175,0.4917,98.4651
		c-1.6764,8.4053-4.222,16.5485-8.707,23.9393c-5.9165,9.75-15.2245,14.0728-25.8037,12.0662
		c-1.2387-0.2349-2.4905-0.5584-3.6447-1.0539c-4.3203-1.8543-4.8325-3.8572-1.5818-7.1648
		c4.3828-4.4597,6.4376-10.0547,8.0471-15.8417c3.5723-12.8453,4.8109-26.0404,5.4586-39.2988
		c1.4056-28.7664-2.6423-56.9281-10.4122-84.5117c-5.0151-17.8038-11.0995-35.3082-16.7864-52.9203
		c-1.7177-5.3196-0.7991-7.3506,4.8021-8.2354c7.5726-1.1964,14.8486-0.0758,19.7192,6.3694
		c4.6799,6.1926,8.8853,12.8249,12.6086,19.6412c6.1251,11.213,9.7625,23.4222,12.9272,35.7576
		C898.9441,658.9697,899.432,660.7047,900.1475,663.3562z"/>
	<path class="st0" d="M759.8544,287.4796c-0.593,15.8334-2.6876,31.4399-6.6231,46.8166
		c-1.7513,6.8424-3.1628,13.799-4.2463,20.7787c-1.5212,9.7991,0.5914,19.1301,4.7003,28.0542
		c2.1204,4.6051,5.3416,8.2242,9.9169,10.4703c8.1295,3.9909,16.6592,6.1942,25.7841,5.0624
		c4.9707-0.6166,9.86-0.4099,14.3958,1.7004c1.6035,0.746,3.6285,2.6444,3.6801,4.0806c0.0502,1.3991-1.9005,3.5212-3.4608,4.194
		c-3.4586,1.4914-7.1614,2.8473-10.8735,3.2475c-18.5335,1.9982-36.5005-0.2418-53.8825-7.3697
		c-18.5246-7.5964-26.5295-22.114-28.0549-41.1149c-0.6615-8.2389,1.0669-16.2627,2.7778-24.2599
		c4.2544-19.8864,8.5394-39.8282,9.5345-60.1624c1.1929-24.3748-5.553-46.2546-25.1466-62.1722
		c-17.0061-13.8155-36.6928-20.2348-58.8523-17.5851c-2.7009,0.323-5.4029,0.6393-8.1004,0.9892
		c-3.8849,0.504-7.1675,2.0875-10.1572,4.7441c-5.0429,4.4812-11.1304,4.5363-16.386,0.5986
		c-3.5427-2.6543-4.0749-6.4404-0.6315-9.157c2.7778-2.1916,6.141-3.9252,9.5171-5.0244
		c13.2577-4.3163,26.9882-5.5193,40.8535-5.2427c27.0153,0.5389,51.3336,9.1455,72.6879,25.5427
		c21.2125,16.2883,31.4767,38.3871,32.5452,64.9197C759.9784,280.2152,759.8525,283.851,759.8544,287.4796z"/>
	<path class="st0" d="M615.9088,134.7768c-5.6097-1.545-9.967-2.677-14.2816-3.9537c-3.8235-1.1315-7.6953-2.1922-11.3685-3.7124
		c-3.4727-1.4372-7.5383-2.9257-7.6475-7.5349c-0.1094-4.6161,3.8854-6.5191,7.3027-7.88
		c5.8671-2.3366,11.9851-4.0961,18.088-5.7683c3.9894-1.0931,8.1381-1.6048,12.2509-3.2081
		c-6.6627-1.1005-13.3608-2.0252-19.9781-3.352c-6.3901-1.2812-12.7646-2.7488-19.0091-4.5972
		c-2.69-0.7963-5.3046-2.4384-7.4728-4.2664c-3.1739-2.6758-3.1671-6.3204,0.1604-8.8327c2.6926-2.033,5.8715-3.8017,9.1072-4.6581
		c7.1767-1.8997,14.4841-3.3941,21.8107-4.6214c17.7185-2.9682,35.4599-5.8155,53.2332-8.4323
		c5.3569-0.7887,10.8479-0.6818,16.28-0.9302c0.8939-0.0409,1.8207,0.1201,2.6978,0.3313c2.078,0.5005,4.8496,0.6442,4.9024,3.3792
		c0.0477,2.4672-2.5889,2.6783-4.4598,3.1362c-16.3851,4.0101-32.7836,7.9653-49.1735,11.9564
		c-1.3313,0.3242-2.6274,0.7932-5.0649,1.5392c9.7609,1.4357,18.3308,2.4419,26.8005,3.9947
		c17.889,3.2798,35.3492,8.1603,52.2073,15.0499c2.5051,1.0238,5.0353,2.1752,7.2318,3.7244
		c4.1346,2.916,4.2014,6.5428,0.3763,9.9397c-3.5289,3.1338-7.9005,4.5872-12.4457,4.9733
		c-5.7673,0.4899-11.59,0.6239-17.3792,0.4911c-8.8927-0.204-17.775-0.8307-26.6664-1.1402
		c-3.025-0.1053-6.0647,0.2053-9.2085,1.2061c3.7034,1.6356,7.4936,3.104,11.081,4.9636c2.5444,1.319,5.1244,2.8543,7.1376,4.849
		c3.2499,3.2199,3.0959,7.1481-0.5768,9.8638c-2.8484,2.1062-6.2153,3.9395-9.6257,4.7742
		c-8.7981,2.1532-17.7502,3.6751-26.6357,5.4745c-1.7679,0.358-3.5131,0.8284-5.8839,1.3937
		c1.4545,1.5879,2.6705,2.7811,3.7306,4.0994c2.5491,3.1699,2.6617,6.3024-0.0543,9.351c-1.6629,1.8665-3.7407,3.4366-5.8401,4.8257
		c-4.3885,2.9038-9.0137,5.4553-13.3491,8.4321c-2.816,1.9335-5.2006,4.4848-7.9474,6.5327
		c-2.4182,1.8029-4.8752,3.8977-7.6595,4.7964c-6.537,2.1099-13.2849,1.8999-19.809-0.3338
		c-5.9453-2.0356-7.5317-5.7745-4.8348-11.5099c1.0549-2.2437,2.6104-4.4267,4.4308-6.1017
		c4.6531-4.2814,9.5831-8.2617,14.561-12.4975c-0.3187-0.5319-0.6691-1.1413-1.0427-1.7361
		c-3.5472-5.6481-3.2156-9.2076,2.323-12.931c3.8512-2.5891,8.2989-4.4529,12.7025-6.0131
		c4.4222-1.5668,9.1236-2.3412,13.6946-3.4946C611.9654,136.0051,613.2994,135.5547,615.9088,134.7768z"/>
	<path class="st0" d="M501.6685,800.2533c-15.1141,0.2222-31.3038-5.3249-45.2049-16.9739
		c-3.8439-3.2212-7.3647-7.0793-10.188-11.2215c-9.638-14.1404-16.172-29.65-18.1476-46.7491
		c-0.5504-4.7639,0.3056-9.7111,0.7173-14.5571c0.23-2.707,2.1497-3.9561,4.6949-4.5767c4.1403-1.0095,7.8922,0.2051,11.6431,1.6809
		c12.761,5.0206,26.0877,7.7447,39.641,9.2706c15.1821,1.7093,30.1517-0.1956,44.6929-4.5311
		c11.2794-3.363,22.2845-7.6478,33.4044-11.5432c2.91-1.0195,5.7379-2.324,8.7059-3.1122c2.6012-0.6909,5.3478-1.1846,8.027-1.17
		c10.4341,0.0569,14.2827,4.1407,13.2996,14.4504c-0.462,4.8438-1.3986,9.7192-2.7802,14.3849
		c-5.9938,20.2405-16.7639,37.8513-31.4211,52.8281C544.0822,793.4239,525.6763,800.2751,501.6685,800.2533z M561.4077,716.8286
		c-0.3073-0.3273-0.6145-0.6545-0.9218-0.9817c-17.8911,6.3538-36.2183,10.361-55.2062,11.0458
		c-18.9969,0.6851-37.2893-3.1089-55.6279-9.2539c0.1537,1.6362,0.1109,2.3688,0.3018,3.0344
		c3.0508,10.6359,6.0833,21.2883,11.0309,31.246c6.4509,12.9832,14.1188,24.819,27.2399,32.3792
		c10.4036,5.9946,20.2256,6.0923,30.0912-0.6418c7.7549-5.2933,14.1932-11.9664,18.9515-20.0156
		c5.4429-9.207,10.5348-18.6323,15.4775-28.12C555.9142,729.437,558.5388,723.0692,561.4077,716.8286z"/>
	<path class="st0" d="M16.9716,411.1418c-3.4679-0.9269-7.1209-1.4412-10.3542-2.8913c-3.5804-1.6058-3.6024-4.7386-0.1139-6.4648
		c2.7074-1.3398,5.8026-2.0053,8.7958-2.6375c9.2221-1.9478,18.5616-3.3966,27.7049-5.6504
		c25.7197-6.3397,50.0872-15.9908,72.0691-31.024c12.3534-8.4484,22.6491-19.2295,33.1003-29.8361
		c19.6315-19.9236,35.0384-42.9421,49.7685-66.543c9.8886-15.8439,20.5065-31.2326,30.7946-46.8273
		c0.4992-0.7566,1.0101-1.5112,1.4375-2.3085c1.7692-3.2999,5.2637-4.6798,8.3624-2.9739c0.9201,0.5065,1.8711,1.9137,1.8873,2.9228
		c0.0457,2.8547,0.12,5.8756-0.7184,8.5483c-3.253,10.3701-6.3061,20.8568-10.4345,30.8882
		c-11.2322,27.2926-25.3545,52.8742-44.3387,75.7816c-21.5782,26.0374-47.7432,45.2075-79.1727,57.6181
		c-28.061,11.0804-57.1056,17.6416-87.0156,20.7741c-0.5406,0.0566-1.0863,0.0644-1.6297,0.0949
		C17.0666,410.7893,17.0191,410.9656,16.9716,411.1418z"/>
	<path class="st0" d="M427.9066,7.2316c24.0668-1.0379,45.2465,7.2463,65.0026,20.0939
		c9.1475,5.9487,18.0364,12.2705,25.5596,20.2447c2.464,2.6118,4.7962,5.5266,6.4448,8.6905c3.1263,6,0.7422,11.118-5.8198,12.2253
		c-3.8503,0.6497-7.9591,0.3865-11.8671-0.1193c-3.1192-0.4037-5.0142-2.3223-6.3332-5.7736
		c-1.4104-3.6903-4.3269-7.1959-7.4258-9.7718c-7.3845-6.1384-15.1649-11.82-22.9845-17.4074
		c-3.9735-2.8392-8.39-5.0552-12.5844-7.5891c-13.5492-8.1851-28.1861-9.6006-43.6059-7.6923
		c-17.0475,2.1098-31.454,9.3305-44.1314,20.66c-16.7348,14.9556-31.5683,31.5886-44.4587,49.9305
		c-6.4684,9.204-12.7364,18.5626-18.7406,28.075c-5.9304,9.3954-12.2512,18.4323-19.9201,26.5119
		c-4.4984,4.7393-8.8064,9.6635-13.106,14.5865c-5.5682,6.3755-12.163,11.3817-19.6083,15.366
		c-2.8729,1.5374-5.8531,2.1453-8.9218,1.3616c-1.4192-0.3624-3.0999-1.4045-3.7095-2.6173c-0.388-0.772,0.6358-2.852,1.6029-3.6123
		c7.8595-6.1788,12.8215-14.7491,18.9807-22.3459c9.99-12.3219,18.3587-25.6287,26.2877-39.3344
		c14.6111-25.2559,32.1653-48.2589,53.1096-68.7471c20.9196-20.4641,46.0754-30.2908,74.803-32.1977
		C420.2841,7.5169,424.0975,7.4074,427.9066,7.2316z"/>
	<path class="st0" d="M151.7746,628.521c2.9494,0.7761,6.0493,1.2084,8.8099,2.4161c3.4003,1.4876,3.5648,4.2752,0.2655,5.9443
		c-3.1756,1.6066-4.5442,4.2817-5.2602,7.1914c-2.1195,8.6139-4.1828,17.2657-5.6811,26.0035
		c-4.2633,24.8634-2.0826,49.5338,2.5535,74.1436c3.2292,17.1418,5.109,34.4706,5.5475,51.9227
		c0.2649,10.5436-0.1456,21.0565-2.7008,31.3698c-1.5546,6.2744-4.3471,11.843-8.769,16.6682
		c-5.7375,6.261-16.2927,5.6218-21.278,3.1329c-3.0613-1.5283-3.5387-3.0164-1.531-6.058
		c3.7378-5.6628,4.9401-12.0276,5.5631-18.5694c1.7562-18.4405-0.6285-36.6022-4.005-54.6588
		c-2.7005-14.4413-6.2877-28.7386-8.4549-43.2531c-4.0616-27.2012-0.6971-53.5654,11.2346-78.5626
		c1.4703-3.0803,3.4398-5.9822,5.5322-8.6934C138.1219,631.6606,144.3485,629.1292,151.7746,628.521z"/>
	<path class="st0" d="M239.4677,669.0837c-3.1572,2.4009-6.7299,3.7938-10.6382,2.9362c-2.7742-0.6087-4.5133,0.4644-6.2586,2.1957
		c-5.2429,5.2008-9.0796,11.3043-11.6535,18.2032c-3.6604,9.8112-5.2923,20.0555-5.3082,30.4364
		c-0.0253,16.52,0.54,33.0401,0.7892,49.5612c0.5275,34.9645-2.5798,69.6378-8.6212,104.0542
		c-0.8441,4.8085-2.4563,9.4788-3.617,14.2364c-0.8533,3.4976-3.1712,5.1249-6.5641,5.5079
		c-1.4387,0.1623-2.8951,0.3996-4.3298,0.328c-7.3694-0.3679-8.3974-2.0607-7.5514-9.3806
		c1.7291-14.961,3.3814-29.9432,4.5118-44.9583c2.1034-27.9398,1.1904-55.8741-0.473-83.8245
		c-0.8074-13.5674-0.9159-27.241-0.2593-40.8142c0.7731-15.9802,5.9025-30.6069,17.2425-42.492
		c7.9319-8.3132,17.5139-12.8186,29.1574-12.1595c2.687,0.152,5.3673,0.8293,7.9963,1.4836
		c2.5904,0.6448,4.5561,2.1875,5.4533,4.8348C239.3479,669.2277,239.4677,669.0837,239.4677,669.0837z"/>
	<path class="st0" d="M797.2673,870.1216c8.9551-19.0002,10.9955-39.2916,12.8958-59.4892
		c1.8351-19.5063,2.7341-39.1053,3.8263-58.6757c1.4106-25.2775-0.5054-50.4445-3.1326-75.5587
		c-1.4346-13.7139-3.199-27.3947-4.9481-41.0733c-0.327-2.5568,0.6423-3.6468,2.907-4.3074
		c6.3824-1.8616,13.0421,0.4484,15.4753,6.6798c3.153,8.0748,5.8077,16.4312,7.738,24.8808
		c7.2174,31.5933,8.4767,63.6136,5.8238,95.8311c-2.0865,25.3399-5.1037,50.5743-10.2382,75.4869
		c-1.8237,8.8492-4.6697,17.5035-7.3651,26.1483c-0.9012,2.8909-2.5703,5.6176-4.2618,8.1721
		C811.8484,874.4677,803.7619,875.3698,797.2673,870.1216z"/>
	<path class="st0" d="M875.8029,435.4099c-1.9095-0.8257-3.8058-1.6841-5.7309-2.4719
		c-13.9173-5.6959-26.5832-13.462-37.4431-23.8425c-4.2703-4.0819-7.6196-9.1547-11.1892-13.9252
		c-1.0479-1.4003-1.5745-3.2676-2.0507-5.0003c-0.6786-2.4688,0.3707-4.2851,2.7382-5.2008
		c4.3632-1.6876,8.6014-1.3555,12.4363,1.3706c3.251,2.311,6.3763,4.807,9.4778,7.319c18.4056,14.9074,38.7275,26.1725,61.6,32.6659
		c9.5959,2.7242,19.3328,3.1819,29.1371,1.8241c9.8741-1.3675,19.7089-3.0243,29.5516-4.6116
		c4.9375-0.7963,9.8421-0.7974,14.3997,1.3654c1.6027,0.7604,3.4164,2.4546,3.7596,4.023c0.2438,1.114-1.517,3.3023-2.8989,4.0261
		c-5.9249,3.1032-11.8599,6.3398-18.1235,8.6124c-14.5729,5.2876-29.8843,7.5276-45.1663,9.6015
		c-11.1409,1.5119-22.3329,2.826-33.5457,3.5943c-27.8993,1.9117-53.9594-5.2833-78.9347-17.0327
		c-3.7054-1.7432-7.1738-4.3041-10.2078-7.0811c-3.8102-3.4874-3.2833-6.6555,1.5057-8.8391
		c3.3938-1.5476,7.214-2.4761,10.9346-2.9193c6.0336-0.7188,11.8491,0.4505,17.46,3.0464
		c14.0699,6.5094,28.8817,10.7477,44.0748,13.6688c2.6035,0.5005,5.302,0.5072,7.9567,0.742
		C875.6304,436.0332,875.7167,435.7216,875.8029,435.4099z"/>
	<path class="st0" d="M704.332,843.9797c-1.4141,20.882-3.9457,41.213-10.6688,60.7726c-1.5839,4.6085-3.6273,9.1204-5.9795,13.3901
		c-4.3088,7.8214-10.9026,13.0114-19.613,15.2938c-4.7197,1.2366-9.4066,0.9191-13.821-1.1812
		c-3.7422-1.7802-4.0524-4.2457-0.4987-6.3385c5.6038-3.2999,8.2148-8.5692,10.4008-14.1864
		c4.2422-10.9008,6.1147-22.3696,7.8456-33.866c2.1147-14.0457,2.4144-28.2,2.6933-42.3618
		c0.1465-7.4422,0.3415-14.8871,0.7309-22.3195c0.2628-5.0151,1.9294-6.8447,6.8456-7.555c2.6626-0.3846,5.4344-0.347,8.1263-0.1265
		c5.4526,0.4468,9.4304,3.3496,10.5939,8.6812c1.5018,6.8828,2.4017,13.9097,3.2806,20.9097
		C704.6495,838.1308,704.332,841.257,704.332,843.9797z"/>
	<path class="st0" d="M645.7136,378.6152c23.598,0.098,44.2347,2.4273,63.7661,10.8341c4.3203,1.8596,8.4836,4.1171,12.5845,6.4303
		c1.1013,0.6212,1.7065,2.1219,2.5394,3.2188c-1.2191,0.9217-2.3745,2.5097-3.6697,2.6333
		c-3.1965,0.3052-6.527,0.3287-9.6784-0.2347c-7.8471-1.4032-15.5867-3.4116-23.4373-4.7908
		c-19.5743-3.4387-39.1179-2.3207-58.4073,1.8278c-20.0256,4.3068-39.8916,9.358-59.8216,14.1073
		c-6.4291,1.532-12.8796,2.2852-19.3822,0.5775c-1.9138-0.5025-3.8655-1.0951-5.5926-2.0295
		c-5.0553-2.7352-5.1128-6.4822-0.2465-9.3493c0.9333-0.5499,1.9411-0.9897,2.9492-1.3939
		c25.0248-10.0305,50.7477-17.4899,77.6063-20.5146C632.666,379.0595,640.4921,378.9302,645.7136,378.6152z"/>
	<path class="st0" d="M419.112,413.7315c-8.5621-1.4666-17.1355-2.8709-25.684-4.4133c-15.69-2.8309-31.2517-6.4961-47.2566-7.2553
		c-14.7728-0.7008-29.2889,1.4015-43.7848,3.9272c-5.1513,0.8976-10.4076,1.5214-15.624,1.5822
		c-2.7527,0.0322-5.7297-1.0125-8.233-2.2967c-3.2082-1.6459-3.466-4.8314-0.5826-7.0375c2.5493-1.9504,5.4986-3.5319,8.4916-4.722
		c13.4013-5.3287,27.484-7.8681,41.7048-9.7666c25.0255-3.3412,49.5616-0.3258,73.8332,5.8002
		c8.2515,2.0826,16.4771,4.3063,24.606,6.8169c3.2351,0.9991,6.4206,2.6026,9.1926,4.5513
		c3.9411,2.7705,3.7253,6.0565-0.3558,8.6414C430.4926,412.6798,424.8906,413.2458,419.112,413.7315z"/>
	<path class="st0" d="M213.3397,632.8503c-11.26-0.412-21.0076-4.5359-29.9215-10.8267
		c-6.5506-4.623-12.2586-10.1862-17.1376-16.5931c-8.3383-10.9493-11.2699-23.3429-10.0053-36.8715
		c0.1505-1.6104,0.5579-3.2122,0.9899-4.7783c3.8938-14.1156,15.4369-14.8696,24.856-12.1028
		c2.8985,0.8514,4.4345,2.7664,4.5183,5.9898c0.6208,23.8903,12.7116,41.8083,30.0686,56.8114
		c2.5076,2.1676,5.8915,3.3693,8.9619,4.8235c2.7698,1.312,6.4901,2.0375,6.4486,5.7288c-0.041,3.647-3.6231,4.8297-6.5534,5.6005
		C221.5719,631.6826,217.4223,632.1392,213.3397,632.8503z"/>
	<path class="st0" d="M297.2349,307.1452c4.1545-2.8859,8.5466-3.1367,12.5138-1.0373c3.6146,1.9129,4.524,5.897,4.4777,9.9
		c-0.0104,0.9035-0.0536,1.8242-0.2344,2.7056c-4.3848,21.3646-14.3204,38.8968-35.0728,48.1209
		c-25.5159,11.3413-52.1712,17.6399-80.3234,15.8562c-3.5841-0.2271-7.1539-1.0848-10.6623-1.932
		c-1.7296-0.4177-3.8333-1.453-3.2565-3.6168c0.3348-1.256,1.9993-2.653,3.3387-3.0394c2.5678-0.7408,5.3823-1.3272,8.0034-1.0657
		c14.5612,1.4526,28.5846-1.266,42.3663-5.3914c8.1421-2.4372,16.1779-5.3564,24.0215-8.6333
		c10.6825-4.463,19.124-11.8603,24.8891-21.9266c3.5932-6.2741,6.7352-12.8324,9.6892-19.4377
		C298.9594,313.2327,298.6805,312.272,297.2349,307.1452z"/>
	<path class="st0" d="M504.8611,110.826c-1.4151-0.3745-3.6932-0.5551-5.5457-1.5378c-10.4391-5.5377-21.795-7.944-33.2749-9.7114
		c-27.2894-4.2014-54.7593-6.4652-82.3754-6.7323c-3.7815-0.0366-7.5736,0.5026-11.3527,0.8606
		c-4.7332,0.4484-9.4996,0.7709-13.9043-1.3296c-1.4577-0.6952-3.2975-2.3723-3.3668-3.6848
		c-0.0667-1.263,1.6908-3.3917,3.0618-3.8242c5.1486-1.624,10.4093-3.4588,15.7314-3.867
		c21.9526-1.6839,43.882-0.3989,65.7797,1.4769c16.1136,1.3803,32.1165,3.5376,47.6393,8.1866
		c6.213,1.8608,12.228,4.4939,18.137,7.2033c2.3777,1.0902,4.5369,3.0685,6.2523,5.1012c3.046,3.6095,1.924,6.2311-2.7947,7.304
		C507.7914,110.5116,506.6952,110.5774,504.8611,110.826z"/>
	<path class="st0" d="M153.2091,430.3313c-11.6941-0.2513-24.2468-0.1867-36.5644-2.9496c-2.816-0.6316-5.673-1.4237-8.2381-2.6935
		c-1.3887-0.6874-3.1061-2.5988-3.0233-3.8487c0.0857-1.2944,1.9987-3.2121,3.4118-3.531
		c3.8301-0.8645,7.9323-1.8526,11.7262-1.3317c23.9854,3.2932,47.8214,1.939,71.6265-1.5519
		c14.2807-2.0943,27.2863-7.3445,38.8101-16.1066c3.5558-2.7036,7.4012-4.6089,11.974-4.5579
		c1.2562,0.014,2.5487,0.158,3.7568,0.4891c4.2964,1.1776,5.0314,2.9966,2.5319,6.6128
		c-4.108,5.9435-9.6908,10.3011-15.8303,13.9293c-10.3006,6.0874-21.6821,9.1515-33.2891,11.4908
		C184.9009,429.3461,169.4782,429.91,153.2091,430.3313z"/>
	<path class="st0" d="M210.3427,336.7033c2.5613-1.1152,4.3893-2.2894,6.3779-2.7176
		c17.1094-3.6846,29.3472-14.5947,40.2189-27.3202c2.5031-2.9299,3.8524-6.9072,5.4577-10.5245
		c1.4962-3.3715,2.6192-4.2714,6.1411-3.9135c2.9587,0.3006,4.1542,1.5551,4.405,5.1427
		c0.4381,6.2669-1.5092,11.8633-5.4365,16.6847c-10.0222,12.3038-22.3424,21.1793-38.0138,24.8474
		c-3.1747,0.7431-6.4026,1.3528-9.6407,1.7068C215.7784,341.0544,214.022,340.288,210.3427,336.7033z"/>
	<path class="st0" d="M574.8288,457.2526c4.503-2.2591,7.7779-5.7271,10.4197-9.9988c0.9564-1.5465,2.9137-2.6751,4.6481-3.506
		c9.8052-4.6974,20.4759-6.1441,31.0575-7.6596c6.9911-1.0013,14.0924-1.4142,21.1596-1.6707
		c23.0358-0.8362,46.0544-2.556,69.1345-0.5217c17.0261,1.5008,33.9218,3.6426,50.5504,7.6513
		c4.9245,1.1872,5.8528,2.3036,4.4059,7.266c-3.903,13.3861-6.3342,27.1361-11.9304,40.1198
		c-6.7413,15.6398-12.0774,31.8815-18.1899,47.798c-2.0102,5.2343-4.5153,10.2805-6.85,15.3871
		c-1.2414,2.7153-3.3056,3.789-6.4214,4.035c-21.048,1.6613-42.1199,1.1262-63.1528,0.3574
		c-18.311-0.6692-36.5834-2.444-54.865-3.8333c-3.6102-0.2743-7.1785-1.0653-10.7772-1.532
		c-4.1519-0.5385-6.3748-2.7866-7.1097-6.9573c-1.575-8.937-3.7809-17.7786-5.0067-26.7578
		c-2.602-19.0609-4.747-38.1842-7.059-57.2845C574.7357,459.2632,574.8288,458.3566,574.8288,457.2526z"/>
	<path class="st0" d="M433.9604,444.3779c0,1.5319-0.0679,2.9472,0.0117,4.3541c0.3482,6.1581,0.5627,12.3306,1.1478,18.4672
		c1.7613,18.4727,0.6586,36.7741-5.1698,54.3766c-2.7791,8.3933-8.78,15.1501-18.2314,16.9896
		c-6.7513,1.3139-13.6139,2.3146-20.4725,2.7726c-27.9122,1.8638-55.8383,3.2368-83.834,1.6471
		c-6.286-0.3569-11.4625-2.2212-16.2357-6.4394c-9.932-8.7773-16.4216-19.7147-21.472-31.7325
		c-5.4136-12.8818-10.9361-25.718-16.4547-38.5553c-1.0746-2.4997-2.3238-4.9261-3.5371-7.364
		c-1.9981-4.0143-1.594-6.7192,1.9209-9.3705c1.6956-1.279,3.7342-2.2945,5.7748-2.8944
		c15.0058-4.4113,30.1824-7.6977,45.9225-8.4235c23.7912-1.097,47.5639-1.5796,71.3298,0.137
		c18.8201,1.3593,37.7356,1.7747,56.356,5.2819C431.8787,443.7867,432.7204,444.0572,433.9604,444.3779z"/>
	<path class="st0" d="M561.4077,716.8286c-2.8689,6.2406-5.4934,12.6084-8.663,18.6924c-4.9427,9.4877-10.0347,18.913-15.4775,28.12
		c-4.7583,8.0492-11.1967,14.7224-18.9515,20.0156c-9.8657,6.7341-19.6877,6.6364-30.0912,0.6418
		c-13.1212-7.5602-20.7891-19.3959-27.2399-32.3792c-4.9476-9.9578-7.9801-20.6102-11.0309-31.246
		c-0.1908-0.6655-0.148-1.3981-0.3018-3.0344c18.3386,6.145,36.631,9.939,55.6279,9.2539
		c18.9879-0.6849,37.3151-4.692,55.2062-11.0458C560.7932,716.1741,561.1004,716.5013,561.4077,716.8286z"/>
</g>
</svg>
