<?xml version="1.0" encoding="utf-8"?>
<!-- Generator: Adobe Illustrator 24.3.0, SVG Export Plug-In . SVG Version: 6.00 Build 0)  -->
<svg version="1.1" id="Layer_1" xmlns="http://www.w3.org/2000/svg" xmlns:xlink="http://www.w3.org/1999/xlink" x="0px" y="0px"
	 viewBox="0 0 674.8368 864.1158" style="enable-background:new 0 0 674.8368 864.1158;" xml:space="preserve">
<style type="text/css">
	.st0{fill:#FFFFFF;}
</style>
<g>
	<path class="st0" d="M322.4224,419.7859c14.0193-8.5015,28.6602-11.0921,44.0925-2.9427c1.5635-3.3627,3.0168-6.4481,4.4356-9.5493
		c2.2652-4.9512,6.0637-8.2973,10.5586-11.3118c11.1839-7.5003,23.8772-10.6651,36.7322-13.2191
		c9.0757-1.8032,18.324-2.7512,27.5061-4.0015c7.1396-0.9722,14.2782-2.023,21.4512-2.6534
		c4.5981-0.4041,9.259-0.1803,13.8897-0.1101c8.9731,0.1361,17.9488,0.2515,26.9162,0.5745
		c18.9232,0.6814,37.2984,4.7133,55.6049,9.2079c7.0449,1.7296,14.1106,3.3455,20.1115,7.6416
		c4.765,3.4113,9.7797,6.6441,12.805,11.9326c2.2329,3.9036,3.3421,8.0987,3.5597,12.6392
		c0.2968,6.1911,0.9763,12.3638,1.478,18.5455c0.088,1.0839,0.1526,2.1732,0.1534,3.2601
		c0.0102,14.2577,0.2787,28.5226-0.1034,42.7701c-0.2023,7.5365-1.5063,15.0466-2.3824,22.5606
		c-0.5096,4.3714-0.9497,8.7671-1.7912,13.0797c-1.2042,6.1714-2.6048,12.3136-4.1791,18.4017
		c-2.2823,8.8264-4.6115,17.65-7.3041,26.3561c-0.9985,3.228-2.9002,6.2337-4.7172,9.1359
		c-1.9307,3.0836-5.3706,4.0426-8.6534,4.5477c-9.8879,1.5215-19.7915,3.0505-29.7428,4.0306
		c-25.3426,2.4961-50.7409,1.3982-76.1273,0.7056c-5.2648-0.1436-10.572,0.3174-15.7963-0.1735
		c-12.4919-1.1743-25.1188-1.0638-37.4125-4.2827c-6.2936-1.6479-11.2408-5.2937-16.2002-9.0941
		c-8.7589-6.7117-12.7083-16.2664-15.2686-26.5074c-3.4728-13.8914-6.9435-27.7925-9.9344-41.7921
		c-2.0473-9.5826-3.4926-19.3106-4.8167-29.0267c-1.797-13.1864-2.5359-26.4601-2.3482-39.7814
		c0.0116-0.8245-0.7634-2.0122-1.5099-2.4349c-3.4196-1.9359-7.1131-2.7087-11.0997-3.0101
		c-5.5534-0.4198-11.1316-1.067-16.2531,1.3424c-4.1946,1.9734-8.008,4.7772-11.9043,7.3437
		c-0.6117,0.403-1.0897,1.504-1.0816,2.2765c0.0816,7.7963,0.3441,15.5908,0.4228,23.3871c0.0797,7.9,0.3276,15.8183-0.0865,23.6977
		c-0.4009,7.625-1.4869,15.2183-2.3929,22.8111c-0.6827,5.7215-1.2296,11.4893-2.4184,17.1136
		c-1.979,9.3622-4.1809,18.6941-6.7585,27.9074c-1.7193,6.1452-4.1992,12.0827-6.4391,18.0756
		c-1.898,5.0781-5.8534,7.7797-11.0263,8.5502c-9.8932,1.4735-19.7947,2.9513-29.7355,4.0339
		c-23.5206,2.5614-47.1243,1.0789-70.6952,1.0812c-7.1689,0.0007-14.373,0.0746-21.4987-0.5718
		c-12.3988-1.125-24.9254-1.0721-37.1252-4.2736c-6.3855-1.6757-11.4377-5.3285-16.4315-9.2335
		c-8.6662-6.7766-12.6154-16.3438-15.1518-26.5845c-3.6182-14.6085-7.2148-29.2303-10.3631-43.9444
		c-1.8965-8.8635-3.081-17.8916-4.3073-26.8835c-1.8847-13.8188-2.4415-27.7217-2.2957-41.6693
		c0.1066-10.195,3.9216-18.9885,9.6248-27.128c0.8602-1.2277,2.1542-2.2104,3.3936-3.1041
		c9.9074-7.1441,20.9216-11.7383,32.9149-13.9377c8.8476-1.6225,17.7098-3.1783,26.5942-4.5829
		c7.8199-1.2364,15.6545-2.4827,23.5293-3.2352c6.2981-0.6018,12.6671-0.6405,19.0036-0.6201
		c9.3353,0.03,18.6742,0.2132,28.0038,0.548c18.9249,0.6791,37.2872,4.7667,55.5951,9.2614
		c7.0551,1.7321,14.1158,3.3411,20.1115,7.6355c5.7989,4.1535,11.9485,8.132,14.392,15.395
		C321.0053,413.1114,321.5869,416.4058,322.4224,419.7859z M533.2072,564.4701c0.0074,0.1616,0.0149,0.3232,0.0223,0.4848
		c11.5728-0.5366,23.1416-1.2228,34.7205-1.5243c3.789-0.0986,6.3476-1.2336,7.3287-4.9267
		c1.3156-4.952,2.4656-9.9481,3.6732-14.9285c1.8077-7.4555,4.0186-14.8428,5.3101-22.387
		c2.0734-12.1117,4.2675-24.2802,5.0657-36.5125c0.944-14.4688,0.4779-29.0307,0.5703-43.5525
		c0.0103-1.6092-0.4968-3.2236-0.4693-4.8306c0.1035-6.0636,0.4817-12.1268,0.4191-18.1866
		c-0.02-1.9362-0.4804-4.6256-1.7813-5.6597c-5.6765-4.5124-11.843-8.2808-19.2079-9.5821
		c-9.3965-1.6603-18.7316-3.7132-28.1661-5.1014c-10.6164-1.5622-21.2903-2.8654-31.9837-3.732
		c-8.7589-0.7099-17.583-0.8085-26.3784-0.8156c-7.5173-0.006-15.0773,0.1001-22.5423,0.8832
		c-10.0316,1.0523-20.0114,2.6708-29.9744,4.2867c-13.2871,2.155-25.8904,5.9007-37.3858,13.5244
		c-8.3195,5.5175-10.755,12.9657-10.4622,21.9754c0.2786,8.5747,0.8879,17.1454,1.5996,25.6971
		c0.5672,6.8159,0.8798,13.7446,2.3987,20.3727c4.7273,20.6289,9.7823,41.1887,15.1096,61.6714
		c2.3046,8.8608,8.5024,14.5645,17.3069,17.1871c11.1784,3.3298,22.8281,3.3387,34.2975,4.4139
		c8.3725,0.7849,16.8455,0.5254,25.2747,0.6699c12.7867,0.2191,25.5742,0.4092,38.3618,0.5616
		C521.9444,564.5259,527.5761,564.4701,533.2072,564.4701z M255.0069,565.5884c0.0073,0.1599,0.0145,0.3196,0.0218,0.4795
		c11.6622-0.5327,23.321-1.172,34.9885-1.533c3.5238-0.109,5.9966-1.1815,6.9255-4.6718
		c1.3464-5.0589,2.5802-10.1485,3.8024-15.2394c1.8939-7.8887,3.9166-15.753,5.5401-23.6981
		c1.0994-5.3805,1.6439-10.877,2.3716-16.3302c1.0515-7.8802,2.6302-15.746,2.9292-23.6578
		c0.4902-12.9703,0.148-25.9727,0.1131-38.9613c-0.0043-1.6066-0.4192-3.2144-0.3975-4.8183
		c0.0743-5.4726,0.5055-10.9532,0.2925-16.411c-0.1001-2.5646-0.5706-5.9845-2.2448-7.4514
		c-4.6079-4.0371-9.9412-7.3442-16.1012-8.6288c-9.2524-1.9295-18.5139-3.8962-27.8531-5.3081
		c-11.4096-1.7248-22.8755-3.221-34.3697-4.1967c-9.2065-0.7816-18.4911-0.827-27.7418-0.8448
		c-7.2456-0.0139-14.5342,0.1243-21.7283,0.8966c-10.0284,1.0765-20.0095,2.6667-29.9691,4.2928
		c-13.377,2.1839-26.0841,5.929-37.6145,13.6924c-8.0897,5.4468-10.5028,12.771-10.2466,21.567
		c0.2524,8.6674,0.9236,17.3296,1.6481,25.9742c0.5708,6.8115,0.8734,13.7365,2.3891,20.3607
		c4.7203,20.6295,9.7596,41.1922,15.094,61.6718c2.2746,8.7323,8.3633,14.4494,17.0716,17.077
		c11.3442,3.4229,23.1712,3.4468,34.8212,4.5114c8.1956,0.7487,16.4837,0.5077,24.7314,0.6569
		c11.8777,0.2148,23.7559,0.418,35.6347,0.5566C241.7449,565.6518,248.3763,565.5884,255.0069,565.5884z"/>
	<path class="st0" d="M622.4901,521.7313c0.0008,6.178,0.0729,12.357-0.0175,18.5337c-0.1141,7.7934-0.2816,15.5877-0.5733,23.3762
		c-0.2673,7.1362-0.6488,14.2705-1.1264,21.3958c-0.6758,10.0813-1.3297,20.1682-2.2682,30.227
		c-3.0231,32.4007-10.8198,63.624-23.4478,93.629c-6.7955,16.1465-15.7428,30.9663-27.3303,44.1369
		c-6.2254,7.0759-12.2352,14.382-18.9048,21.0189c-16.8453,16.7629-35.8701,30.7426-56.3495,42.7702
		c-22.5066,13.2183-46.6194,22.4943-71.8737,28.7427c-9.2562,2.2902-18.7969,3.4537-28.2296,4.999
		c-5.4354,0.8905-10.8937,1.8459-16.3781,2.1852c-8.2155,0.5084-16.462,0.5603-24.6971,0.6908
		c-5.2451,0.0831-10.5018,0.123-15.7376-0.1359c-3.2304-0.1598-6.3081-0.9301-9.0542-3.1393
		c-1.379-1.1093-3.7384-0.9661-5.6309-1.4766c-10.8913-2.9369-21.8992-5.5126-32.6343-8.9412
		c-17.9026-5.7177-35.7736-11.5988-53.3825-18.1509c-13.2869-4.9441-25.2133-12.672-36.6907-20.9738
		c-10.7746-7.7934-21.6752-15.4337-32.1392-23.6279c-6.9791-5.4653-13.3237-11.7467-19.8874-17.7341
		c-3.8216-3.486-7.4692-7.1622-11.2756-10.6654c-8.0586-7.4167-14.6654-16.0036-20.6499-25.1274
		c-7.4447-11.3499-15.2245-22.4867-22.4295-33.9851c-9.1379-14.5832-14.529-30.6779-17.8996-47.491
		c-2.9213-14.5715-6.0512-29.1035-8.7747-43.7115c-1.5362-8.2396-2.4795-16.5917-3.612-24.9037
		c-0.9615-7.0574-1.9489-14.1158-2.6679-21.2c-0.6025-5.936-1.1616-11.9095-1.1653-17.8667
		c-0.0094-14.8843,0.4125-29.7687,0.4375-44.6534c0.0088-5.2291-0.736-10.4563-0.894-15.6917
		c-0.0312-1.0352,1.0493-2.1039,1.6171-3.1571c0.6989,0.8419,1.9163,1.626,2.0178,2.5347
		c1.25,11.1827,2.4393,22.3747,3.4272,33.5834c0.587,6.6604,0.6353,13.3679,1.2088,20.0299
		c0.5945,6.9049,1.3103,13.8146,2.3719,20.6603c1.4041,9.0549,3.0797,18.0726,4.8489,27.0648
		c2.5204,12.8097,5.0188,25.6306,7.9206,38.3568c3.0031,13.1707,6.1091,26.3397,9.838,39.3176
		c4.6087,16.0399,13.1353,30.1443,23.0375,43.4793c6.528,8.7911,12.5238,17.9894,19.2863,26.5901
		c4.4641,5.6775,9.7557,10.7279,14.8839,15.8519c3.9114,3.9081,8.375,7.2731,12.1957,11.2605
		c10.2853,10.7341,22.2322,19.3953,34.2912,27.9065c9.312,6.5723,18.6783,13.0986,28.3343,19.1442
		c10.9556,6.8592,23.0856,11.2258,35.3978,14.9924c20.2926,6.2076,40.5768,12.4512,60.9649,18.3318
		c5.397,1.5566,11.2253,1.5506,16.7428,2.7712c10.6566,2.3578,21.2397-0.201,31.8369-0.3221
		c8.5561-0.0977,17.0779-2.4578,25.6309-3.705c18.8024-2.7416,36.7514-8.5165,54.3711-15.3796
		c20.1872-7.8631,39.0542-18.2339,56.8836-30.5283c15.1769-10.4651,29.4385-21.9939,42.1632-35.3876
		c13.7744-14.4986,26.8601-29.4823,35.4325-47.8275c10.3486-22.1466,18.1196-45.1615,22.564-69.2007
		c2.4619-13.316,4.3174-26.7524,6.1385-40.1763c1.4047-10.3553,2.4059-20.7682,3.4471-31.1694
		c1.0314-10.3034,1.9462-20.6194,2.7998-30.9393c0.4913-5.9385,0.7449-11.8964,1.1329-17.8438
		c0.3527-5.4053,0.7656-10.8067,1.0989-16.2131c0.0799-1.2957-0.1531-2.6451,1.8147-2.5974
		c1.868,0.0453,1.5738,1.4073,1.5757,2.5413C622.4958,503.1973,622.4891,512.4642,622.4901,521.7313z"/>
	<path class="st0" d="M655.1395,282.7076c1.1678-6.3367,2.1501-11.9744,3.2579-17.5872c1.0306-5.2211,2.2689-10.4018,3.261-15.6296
		c0.3635-1.9145,1.6697-2.233,2.951-1.8071c0.6645,0.2209,1.373,1.7254,1.2856,2.5696c-0.7332,7.078-1.6288,14.1396-2.5103,21.2018
		c-0.8817,7.0634-1.8898,14.1122-2.6815,21.1855c-0.7023,6.2749-1.1652,12.5762-1.7675,18.8626
		c-0.7132,7.4452-1.4803,14.8853-2.187,22.3311c-0.2557,2.6948-0.4587,5.3971-0.59,8.1006
		c-0.2325,4.7866-0.4051,9.5763-0.5779,14.3656c-0.2025,5.6131-0.0242,11.2705-0.7044,16.8238
		c-0.3812,3.1118-1.9692,6.154-3.4513,8.9996c-0.3839,0.7372-2.4147,0.6167-4.0501,0.9677
		c0.6636,1.9701,1.5421,4.5626,2.4103,7.1585c1.5322,4.5816,2.865,9.2522,1.2608,14.0357
		c-1.1115,3.3143-2.5602,6.5506-4.1968,9.6425c-1.2949,2.4462-3.9489,3.1621-6.2986,1.6232
		c-3.7698-2.4689-7.2986-5.3067-10.9199-8.0012c-0.9744-0.7249-1.9151-1.4951-3.2908-1.8728
		c1.2491,2.4717,2.5891,4.9023,3.7294,7.4233c2.831,6.2586,5.6862,12.5107,8.3141,18.8555
		c2.5298,6.1082-0.137,11.4767-3.024,16.6468c-0.9493,1.7003-2.6848,2.235-4.375,0.7212
		c-3.9127-3.5044-7.7325-7.1133-11.6776-10.5802c-1.985-1.7443-4.1611-3.2711-6.2508-4.8962
		c-0.2236,0.1577-0.4471,0.3154-0.6707,0.4731c2.2303,10.507,4.4415,21.0182,6.7184,31.515
		c0.2436,1.1227,1.1475,2.1381,1.2439,3.2469c0.1042,1.1983-0.38,2.4477-0.6076,3.6748c-0.9861-0.5451-2.4194-0.8463-2.8747-1.6809
		c-1.3784-2.5274-2.6151-5.1862-3.4836-7.928c-3.6354-11.4763-7.1232-22.9994-10.6428-34.5122
		c-0.3685-1.2054-0.6931-2.4425-0.855-3.6888c-0.2665-2.0509,0.2931-4.0207,2.3165-4.7436
		c3.1761-1.1346,6.4356-2.6847,9.9062-0.7655c0.3568,0.1973,0.8204,0.2015,1.5946,0.3768
		c-3.2147-6.255-6.5072-12.0722-9.244-18.1401c-3.2274-7.1556-6.0519-14.4977-8.8987-21.8182
		c-1.6198-4.1647,1.355-7.4107,2.8006-10.8643c0.5671-1.3548,7.822-2.2479,9.2313-1.3418
		c3.8588,2.4809,7.6718,5.0427,11.3924,7.7256c2.0358,1.4679,3.8479,3.2459,6.0967,5.1716
		c-0.0693-0.8502-0.0213-1.333-0.1559-1.7579c-4.4462-14.0279-10.2527-27.4709-16.9316-40.586
		c-6.3253-12.4206-12.5134-24.9317-18.1446-37.6757c-2.4111-5.4565-3.4346-11.5646-4.7471-17.4528
		c-0.7245-3.2502,0.471-4.5826,3.6883-5.3566c2.1719-0.5225,4.3265-1.2347,6.5302-1.4629c1.3585-0.1407,2.7947,0.4691,4.3062,0.7633
		c-3.063-5.2977-6.2673-10.7196-9.3572-16.2059c-9.1151-16.1839-18.1939-32.3884-27.2518-48.6043
		c-0.6099-1.0919-1.1289-2.3129-1.3367-3.534c-0.368-2.1633,0.215-3.6831,2.6899-4.5504c5.313-1.862,9.3759-0.8621,13.5311,3.1967
		c12.2009,11.9178,25.0612,23.1662,37.1377,35.204c10.9785,10.9433,21.2591,22.5862,31.8697,33.8997
		C650.7955,278.4378,652.7924,280.3474,655.1395,282.7076z M647.3064,329.8891c0.5569-1.1641,0.8464-1.5305,0.9073-1.9317
		c1.1606-7.642,2.2769-15.2907,3.4434-22.9318c0.3856-2.5252,0.1812-4.4706-2.4414-6.0392
		c-2.437-1.4576-4.5324-3.6222-6.4675-5.7571c-5.4061-5.9645-10.5951-12.1254-15.9753-18.1139
		c-5.9915-6.6689-12.0941-13.2381-18.163-19.8372c-0.7233-0.7864-1.5385-1.4881-2.3112-2.2291
		C620.381,278.2799,636.9814,301.9354,647.3064,329.8891z M635.4391,350.4403c2.4564,6.5061,4.8233,12.7751,7.1902,19.044
		c0.1255-0.047,0.251-0.0939,0.3766-0.1409c0.4503-4.9769,0.9007-9.9538,1.3683-15.1209
		C640.2502,355.2949,638.5164,351.8761,635.4391,350.4403z"/>
	<path class="st0" d="M288.633,211.0382c-6.273,1.6735-12.6741,3.2277-18.9814,5.098c-10.8827,3.2269-21.8552,6.2411-32.5171,10.099
		c-12.2599,4.4362-23.4248,11.061-33.0974,19.9052c-9.3024,8.5057-18.5738,17.0589-27.5464,25.9079
		c-7.8158,7.7082-15.1275,15.925-22.8028,23.7794c-2.968,3.0372-6.2257,5.8162-9.5263,8.4977
		c-4.7879,3.8897-10.4133,5.1943-16.5186,4.9463c-2.3935-0.0973-3.2214-1.2939-3.2132-3.4207
		c0.0024-0.6228,0.1121-1.2634,0.2829-1.8645c2.2122-7.7852,5.8332-14.6991,11.6198-20.5463
		c12.0667-12.193,23.6718-24.8515,35.945-36.8284c10.1592-9.914,20.6653-19.5451,32.8078-27.1111
		c13.0557-8.135,27.3389-13.2275,42.2005-16.869c15.4897-3.7954,30.9531-7.7,46.4703-11.379
		c3.4227-0.8115,6.8674-1.7177,10.5902-0.3024c5.1943,1.9747,4.7763,3.7994,4.3724,9.5997
		c-0.1418,2.0362-0.652,4.0467-1.0934,6.6565c2.7244-0.286,5.111-0.3943,7.4447-0.804c19.965-3.5049,39.4393-8.9232,58.3486-16.1329
		c7.9031-3.0133,15.2496-7.4786,22.883-11.2147c1.2829-0.6279,2.7382-0.9035,4.1367-1.3492
		c1.1242,2.7924-0.5423,3.9201-1.8524,5.0576c-6.6039,5.7338-13.9055,10.4488-21.7876,14.1973
		c-21.7527,10.3453-43.8403,19.8355-67.366,25.5045c-3.0593,0.7372-6.1414,1.3907-9.2323,1.982
		c-2.3531,0.4502-5.7326-1.7456-7.2859-4.7257C291.4607,216.9332,290.1275,214.0823,288.633,211.0382z"/>
	<path class="st0" d="M22.5637,285.5871c0.3645-28.6662,5.2557-56.4516,15.6692-83.1698
		c6.5072-16.6957,12.9802-33.4218,20.156-49.8337c4.78-10.9326,12.6177-19.7889,22.1041-27.1486
		c3.7171-2.8838,7.0216-6.2953,10.6841-9.256c1.269-1.0258,2.9971-1.7697,4.6119-2.0199c3.0157-0.4673,4.2009,1.0757,2.8201,3.8443
		c-2.0569,4.1242-4.3207,8.1783-6.8628,12.0197c-3.7862,5.7215-8.0444,11.1308-11.8256,16.8554
		c-5.5597,8.4172-8.2404,18.0402-10.973,27.6117c-4.8116,16.8536-9.9131,33.6331-14.2788,50.6017
		c-2.2984,8.9333-3.4116,18.1828-4.8556,27.3219c-2.0142,12.7476-2.0454,25.6235-1.6349,38.4647
		c0.2703,8.4546,1.4224,16.8795,2.1214,25.3225c0.4466,5.3942,0.5807,10.8219,1.2229,16.1905
		c0.9587,8.014-0.5308,15.594-3.4419,22.9738c-0.9256,2.3465-2.153,4.5743-3.2507,6.8523
		c-0.7785,1.6156-2.0458,1.9178-3.2674,0.7315c-1.7909-1.7391-3.6522-3.5221-4.9725-5.6096
		c-5.9897-9.4703-9.6056-19.7718-10.4987-31.0126c-0.8218-10.3423-1.836-20.6691-2.7492-31.0041
		C23.0558,292.08,22.8218,288.8325,22.5637,285.5871z"/>
	<path class="st0" d="M580.1161,102.2108c-1.7449-2.1562-3.0417-3.965-4.5441-5.583c-13.7756-14.8346-27.89-29.2692-45.3967-39.8842
		c-12.8118-7.7682-26.2978-13.5011-41.261-15.7058c-7.8345-1.1544-15.6397-1.6034-23.4709-0.9175
		c-3.8644,0.3385-7.8725,0.6619-11.2179,3.3488c-1.5861,1.2738-2.7829-0.4031-2.6659-1.7052
		c0.1196-1.3301,0.9675-2.9507,2.0201-3.7794c4.5796-3.6055,10.1948-4.7271,15.756-5.2314
		c6.8396-0.6202,13.781-1.001,20.6186-0.5593c11.1284,0.719,21.8914,3.3532,32.108,8.0599
		c11.6476,5.3659,22.8262,11.5002,32.7933,19.6253c10.9017,8.8869,21.5308,18.0988,30.7783,28.7487
		c5.815,6.6967,11.2266,13.7467,17.1119,20.3784c4.3335,4.8831,4.1646,9.8847,1.6052,15.3122
		c-0.348,0.738-0.6456,1.501-1.0191,2.2253c-1.4595,2.8294-3.336,3.2597-5.8956,1.4098c-0.7227-0.5223-1.5082-0.9579-2.6543-1.1074
		c2.0052,2.4272,4.0013,4.8621,6.0173,7.2802c7.4759,8.9666,15.1184,17.8001,22.3993,26.9223
		c9.8254,12.3101,16.5258,26.0893,18.3967,41.9335c0.9298,7.8742,2.005,15.737,2.6805,23.6335
		c0.4505,5.2667-2.0927,9.8459-4.5188,14.3005c-0.9172,1.6839-2.8288,2.3042-4.4395,1.1169
		c-1.9223-1.4171-3.8793-3.0591-5.1394-5.0378c-1.827-2.8688-3.072-6.1135-4.4914-9.2315c-0.2404-0.528-0.3948-1.4567-0.1081-1.8078
		c3.3833-4.1443,1.3291-8.7048,0.6829-12.9108c-1.1879-7.7304-2.6674-15.4804-4.8718-22.9733
		c-2.5197-8.5643-8.3792-15.3673-13.8565-22.2145c-13.4182-16.7744-27.2087-33.2218-42.3932-48.4749
		c-2.7604-2.7728-4.5293-6.7088-6.1678-10.3709c-1.5392-3.4398-0.1387-5.2181,3.5142-6.2673
		c4.7865-1.3749,9.5464-1.67,14.4103-0.5597C577.724,102.373,578.6315,102.2108,580.1161,102.2108z"/>
	<path class="st0" d="M471.4484,227.2706c0.1624-4.3248,2.2739-6.1136,6.0495-6.169c0.9711-0.0143,1.9644-0.2755,2.9009-0.5711
		c3.9241-1.239,6.4206,0.9671,9.0486,3.3775c2.8501,2.6141,6.0227,4.8747,9.0295,7.3202
		c8.9093,7.2459,18.4027,13.8971,26.5779,21.8948c14.8984,14.5749,29.5798,29.6282,39.3351,48.2995
		c6.5175,12.4742,11.6907,25.6788,17.0085,38.7426c3.9565,9.7197,7.3459,19.6837,10.6065,29.6634
		c0.7539,2.3074,0.4321,5.2593-0.2526,7.671c-0.9032,3.1812-2.5285,6.1873-4.0806,9.1443c-1.1246,2.1423-3.1943,2.202-5.2256,0.6736
		c-5.8362-4.391-8.272-10.8395-10.4126-17.3747c-4.5836-13.9942-8.9016-28.0752-13.4454-42.0827
		c-5.0601-15.5988-12.9094-29.6582-23.7147-42.025c-8.0394-9.2011-15.8088-18.6675-24.2972-27.4361
		c-5.3138-5.4893-11.7417-9.8996-17.6608-14.8046c-1.2441-1.031-2.4496-2.1085-4.0403-3.4818
		c-0.8003,1.9199-1.4633,3.6064-2.2061,5.2569c-0.444,0.9864-0.7837,2.302-1.5822,2.7769c-1.065,0.6335-2.9656,1.2607-3.7586,0.7433
		c-12.1986-7.9595-24.4838-15.8154-36.3094-24.3073c-8.2706-5.939-16.08-12.5745-23.7094-19.3346
		c-5.8772-5.2076-10.0542-11.8833-13.4346-18.9676c-0.4727-0.9908-0.4706-3.2152,0.033-3.476
		c1.5113-0.7827,3.2664-0.7334,4.5459,1.0169c2.1855,2.9896,4.4458,5.9289,6.7758,8.8074
		c5.1418,6.3524,11.6481,11.1078,18.5709,15.2707c9.7822,5.8823,19.6855,11.5631,29.5499,17.3081
		C468.5174,225.8871,469.7651,226.4284,471.4484,227.2706z"/>
	<path class="st0" d="M294.986,20.6766c-1.4145-1.7762-3.0287-3.4312-4.1978-5.3564c-1.8665-3.0737-3.6413-6.2388-5.0674-9.533
		c-1.1028-2.5474-0.0118-3.8935,2.5665-4.8741c5.3048-2.0176,9.5961-0.6089,13.3098,3.4087
		c0.6675,0.7222,1.4382,1.4405,2.3047,1.8737c14.9173,7.4575,29.9572,14.6817,46.0291,19.3296
		c5.5027,1.5913,11.3083,2.1164,16.9427,3.2869c1.1132,0.2313,2.0758,1.1877,3.1078,1.8097
		c-1.0377,0.8504-2.0761,2.4292-3.1128,2.4281c-5.1388-0.0055-10.4842,0.3826-15.3742-0.866
		c-11.5255-2.9429-22.8342-6.7352-34.2293-10.1881c-0.5102-0.1546-1.0078-0.3512-1.7629-0.6168
		c-1.1211,2.9903-2.0975,5.9517-3.3303,8.8022c-2.0429,4.7238-5.7716,5.781-9.3599,2.1479
		c-6.6583-6.7415-15.1854-8.6525-23.9247-10.2564c-16.8827-3.0984-33.9386-4.0036-51.044-3.3221
		c-11.1584,0.4446-21.8496,3.4479-32.1452,7.7534c-16.5492,6.9206-31.3219,16.7591-44.8584,28.3607
		c-12.6985,10.8834-24.2448,22.9144-32.6977,37.5589c-1.9027,3.2965-3.6337,6.6949-5.6069,9.9474
		c-2.8247,4.656-5.1267,6.088-9.093,1.4727c-2.718-3.1627-4.5367-7.3424-5.8905-11.3596c-1.1851-3.5168,1.3785-6.6409,3.1835-9.5109
		c7.29-11.5913,16.3649-21.6307,26.6257-30.7023c14.1402-12.5015,29.6281-22.8582,46.6808-30.954
		c12.2634-5.8221,24.9566-10.137,38.4853-11.6173c5.8283-0.6377,11.7668-1.4512,17.5589-0.9859
		c11.3928,0.9153,22.7492,2.4599,34.0623,4.1377c10.1132,1.4998,20.0028,4.0483,29.4354,8.1333
		c0.2956,0.128,0.6497,0.1206,0.9765,0.1763C294.7019,20.9994,294.844,20.838,294.986,20.6766z"/>
	<path class="st0" d="M100.4253,313.1934c1.0159-5.7444,2.0352-11.8477,3.2073-17.9215c0.3378-1.7502,0.9402-3.5078,1.7666-5.0805
		c0.4074-0.7754,1.6017-1.1374,2.44-1.6864c0.4701,0.8441,1.2815,1.6675,1.3344,2.537c0.0913,1.5015-0.4309,3.0302-0.4457,4.55
		c-0.06,6.1594-0.0277,12.3197-0.0234,18.4797c0.0024,3.4925,0.2046,6.9974-0.0256,10.4741
		c-0.2465,3.723-2.7332,6.3747-5.0312,9.0673c-0.5335,0.6251-1.1419,1.4653-1.1531,2.215
		c-0.1583,10.5978-1.392,21.0308-4.4475,31.2125c-0.1266,0.4219-0.1152,0.9042-0.0823,1.3521
		c0.6505,8.864-3.4795,16.0804-7.9581,23.1836c-5.5918,8.8687-11.4019,17.6108-16.6778,26.664
		c-4.3419,7.4507-5.0061,16.0871-6.8692,24.3479c-1.134,5.0284-3.3773,9.8473-5.4883,14.5977
		c-1.0479,2.3582-3.1189,2.516-5.1014,0.9268c-8.0164-6.4261-10.3364-14.6867-8.1596-24.576
		c3.6429-16.5501,11.3982-30.9777,22.2883-43.8005c4.4562-5.247,9.1024-10.3341,13.7185-15.4431
		c1.8211-2.0156,2.8069-3.8242,2.2433-6.9572c-0.5633-3.1317,0.3496-6.6308,1.0606-9.8712
		c2.4834-11.3192,2.8899-22.7726,2.5724-34.2865c-0.0471-1.7089-0.5049-3.4117-0.4947-5.1156
		c0.02-3.3188,1.5511-4.7906,4.8414-4.8606C96.0781,313.1564,98.2178,313.1934,100.4253,313.1934z"/>
	<path class="st0" d="M32.9294,402.6875c-1.0411-1.3949-1.8659-2.5002-2.7642-3.7038c-3.7563,1.0279-5.5903,4.15-7.2485,7.2035
		c-3.3194,6.112-4.9101,12.8197-5.6385,19.6765c-0.486,4.5752-0.9016,9.247-0.5271,13.8081
		c1.2257,14.93,4.6246,29.2537,13.4637,41.7602c3.7201,5.2637,8.4177,8.494,15.3313,7.9926c2.1231-0.154,4.6494,0.8408,6.429,2.1024
		c0.9842,0.6977,1.4614,3.2555,1.0174,4.5931c-1.038,3.127-2.337,6.356-4.3192,8.938c-3.2276,4.2043-10.0166,4.8709-15.6934,1.893
		c-7.3832-3.8731-12.3821-10.0184-16.4257-17.2218c-6.4979-11.5758-9.7405-24.0341-11.196-37.105
		c-1.5716-14.1133-0.31-27.8543,5.168-41.0379c2.4355-5.8613,5.0053-11.8226,10.2764-15.7335
		c2.2874-1.6971,5.2821-2.8038,8.1047-3.2634c1.4114-0.2299,3.6836,1.2281,4.6307,2.5789
		C35.0056,397.261,35.1469,399.8862,32.9294,402.6875z"/>
	<path class="st0" d="M675.5342,442.4404c-0.108,13.6581-1.9856,26.9749-7.0085,39.7513
		c-2.7342,6.9546-5.9518,13.6835-11.0074,19.2491c-4.3165,4.7518-9.4722,8.4004-16.3837,6.8218
		c-2.2441-0.5126-4.7702-1.8728-6.1459-3.6403c-2.3417-3.0085-4.1491-6.5311-5.637-10.0666
		c-0.7997-1.9003,0.3873-3.6934,2.7176-4.1983c2.3726-0.5141,4.7796-1.6471,7.0977-1.4808
		c5.6714,0.407,8.4821-3.4289,11.4068-7.0171c6.3204-7.754,9.0269-17.104,10.4763-26.7161
		c1.129-7.4869,1.4709-15.1211,1.6943-22.7036c0.1076-3.6513-0.7718-7.35-1.3823-10.9974c-0.3838-2.292-1.2863-3.925-3.7731-5.2771
		c-1.8772-1.0207-2.6107-4.3593-3.505-6.7941c-0.1814-0.4939,1.0346-1.9458,1.8809-2.2997
		c5.0892-2.1284,9.5683-0.6237,12.7453,4.0393c3.5507,5.2113,5.1325,11.1314,5.8828,17.2541
		C675.1641,433.0253,675.2386,437.7464,675.5342,442.4404z"/>
	<path class="st0" d="M374.6632,102.754c2.6393,1.6537,4.9387,3.0178,7.1583,4.5012c4.4698,2.9872,8.8253,6.1757,10.9546,11.3551
		c3.4196,8.3184,2.6655,16.4694-1.598,24.2984c-1.0431,1.9154-3.2633,1.9115-4.3468-0.0199
		c-1.7246-3.0742-2.997-6.2043-2.3506-10.019c1.0832-6.3922-0.2028-11.9506-6.3588-15.6839
		c-5.4066-3.2789-10.7639-6.7302-15.6859-10.6755c-2.2385-1.7943-3.6375-4.8404-4.9192-7.554
		c-0.894-1.8927,0.6573-3.3843,2.4306-3.8272c3.2174-0.8036,6.5034-1.3972,9.7938-1.8253c3.0291-0.3941,6.1013-0.4554,9.8937-0.7135
		c-0.9662-0.8424-1.3733-1.3781-1.9132-1.6414c-9.4352-4.6002-18.8794-9.1822-28.3381-13.7337
		c-3.9886-1.9193-8.0266-3.7359-12.0132-5.6593c-0.6164-0.2974-1.1998-0.8345-1.5887-1.4039
		c-2.1519-3.1508-1.7165-4.6361,2.0424-5.1728c3.3816-0.4829,6.8908-0.4844,10.3073-0.2229
		c7.0945,0.5429,14.179,1.2884,21.2389,2.1783c3.3701,0.4248,6.6841,1.329,10.0046,2.0977
		c1.4779,0.3421,3.5131,0.7391,2.8556,2.7461c-0.3669,1.12-2.1512,1.7757-3.2968,2.6406c-0.19-0.2534-0.38-0.5068-0.5699-0.7603
		c0.7643-0.5361,1.5287-1.0722,2.8984-2.0329c-11.0763-2.3511-21.676-2.6206-32.4496-1.9618
		c2.8122,1.0994,5.6426,2.1544,8.4331,3.3062c9.7048,4.006,19.5297,7.7466,28.2072,13.88c2.4594,1.7383,3.6617,3.9134,3.0011,6.6826
		c-0.7033,2.9478-1.5739,6.131-5.0341,7.1662C380.7645,101.4933,378.0175,101.9807,374.6632,102.754z"/>
	<path class="st0" d="M406.1774,23.0924c5.6935-3.8251,10.4836-7.5931,15.7822-10.4018c3.301-1.7498,7.3308-2.5746,11.1059-2.8616
		c4.3166-0.3282,6.9443,3.045,5.8928,7.2321c-2.442,9.7249-6.7116,18.4952-14.6452,25.0445
		c-3.1451,2.5963-3.7721,2.5373-6.9378,0.0666c-0.6335-0.4944-1.3554-0.8756-2.0363-1.3094
		c-3.7661,2.566-5.5658,1.9735-7.8097-2.1476c-3.3245-6.1057-6.9208-12.064-10.2158-18.185
		c-1.6671-3.0969-3.0821-6.3566-4.2824-9.6621c-0.3937-1.0842-0.1982-3.2406,0.5059-3.6914c1.6025-1.026,2.366,0.6469,3.1931,1.9056
		C399.8874,13.8863,403.15,18.6209,406.1774,23.0924z"/>
	<path class="st0" d="M311.7527,725.468c8.01-1.4749,16.0351-1.2657,24.1618-0.8201c8.0145,0.4394,16.1335,0.2725,24.1225-0.4994
		c7.5113-0.7258,15.0352-2.1246,22.3366-4.0498c14.3905-3.7943,24.8202-12.8259,31.9962-25.7905
		c0.7772-1.4041,2.2096-2.4943,3.4958-3.5352c0.3394-0.2747,1.5516-0.0369,1.8508,0.3559c0.3335,0.4378,0.3432,1.4706,0.0458,1.9858
		c-2.3994,4.1572-4.8643,8.2781-7.3844,12.3637c-7.9852,12.9458-20.2769,19.8226-34.4396,23.5762
		c-7.8062,2.0689-15.8588,3.3321-23.8692,4.4762c-10.714,1.5302-21.4632,1.7579-31.9554-1.6196
		c-2.8855-0.9288-5.7061-2.102-8.461-3.3704c-0.9615-0.4426-1.6355-1.5099-2.4409-2.2919
		C311.3923,725.9886,311.5725,725.7283,311.7527,725.468z"/>
	<path class="st0" d="M357.4879,622.0816c-1.5738,10.8224-4.0713,20.8439-12.1194,28.4228
		c-3.3315,3.1372-7.426,5.0905-12.1209,3.6086c-1.9753-0.6236-4.1366-1.915-5.3098-3.5508
		c-2.1754-3.0331-3.8883-6.454-5.3955-9.8884c-0.8457-1.9271,0.7275-4.3413,2.8924-4.7881
		c2.9931-0.6176,6.0486-1.1921,9.0877-1.2513c2.7514-0.0536,4.8935-1.0224,6.1835-3.2007c2.1517-3.6334,4.0225-7.4427,5.851-11.2548
		c1.5329-3.1959,7.0609-4.9111,9.5903-2.4909C357.1595,618.6564,357.1134,620.731,357.4879,622.0816z"/>
	<path class="st0" d="M533.2072,564.4701c-5.631,0-11.2628,0.0558-16.8931-0.0113c-12.7876-0.1523-25.575-0.3425-38.3618-0.5616
		c-8.4292-0.1445-16.9022,0.115-25.2747-0.6699c-11.4693-1.0752-23.119-1.084-34.2975-4.4139
		c-8.8045-2.6226-15.0023-8.3264-17.3069-17.1871c-5.3273-20.4827-10.3823-41.0425-15.1096-61.6714
		c-1.5189-6.6281-1.8315-13.5568-2.3987-20.3727c-0.7117-8.5518-1.321-17.1224-1.5996-25.6971
		c-0.2928-9.0097,2.1427-16.4579,10.4622-21.9754c11.4955-7.6238,24.0987-11.3694,37.3858-13.5244
		c9.963-1.6158,19.9428-3.2344,29.9744-4.2867c7.4649-0.7831,15.025-0.8892,22.5423-0.8832
		c8.7954,0.007,17.6195,0.1057,26.3784,0.8156c10.6934,0.8666,21.3673,2.1698,31.9837,3.732
		c9.4345,1.3882,18.7696,3.4411,28.1661,5.1014c7.365,1.3013,13.5315,5.0697,19.2079,9.5821
		c1.3009,1.0341,1.7613,3.7236,1.7813,5.6597c0.0626,6.0598-0.3157,12.123-0.4191,18.1866
		c-0.0275,1.6069,0.4796,3.2213,0.4693,4.8306c-0.0923,14.5219,0.3738,29.0837-0.5703,43.5525
		c-0.7982,12.2323-2.9923,24.4008-5.0657,36.5125c-1.2914,7.5443-3.5023,14.9315-5.3101,22.387
		c-1.2076,4.9803-2.3576,9.9764-3.6732,14.9285c-0.9811,3.6931-3.5397,4.8281-7.3287,4.9267
		c-11.5789,0.3015-23.1477,0.9877-34.7205,1.5243C533.222,564.7933,533.2146,564.6317,533.2072,564.4701z M476.853,412.1696
		c-4.5804,0.5599-10.3398,1.0326-16.0113,2.0136c-7.7479,1.3403-15.307,3.4114-22.2327,7.3518
		c-1.9133,1.0886-2.8898,2.4664-2.9124,4.7712c-0.066,6.742,3.0898,12.4427,5.7224,18.2999c1.428,3.1771,3.8729,4.0595,7.1396,2.881
		c3.4019-1.2273,6.7731-2.5393,10.1589-3.8112c16.2514-6.1048,32.8752-7.0373,49.8923-3.9562
		c11.4886,2.0801,21.9226,6.6335,31.9384,12.4122c3.6013,2.0778,7.2552,4.097,11.0269,5.8353
		c2.7606,1.2723,4.1023,0.3844,6.4323-3.2074c1.3935-2.148,1.714-4.029-0.4222-6.0053c-2.8629-2.6486-5.3527-5.7237-8.3416-8.2079
		c-6.176-5.1328-12.1168-10.7768-18.9766-14.8131C514.2599,416.3151,496.3215,413.4833,476.853,412.1696z"/>
	<path class="st0" d="M255.0069,565.5884c-6.6306,0-13.262,0.0634-19.8918-0.0139c-11.8788-0.1386-23.757-0.3418-35.6347-0.5566
		c-8.2478-0.1492-16.5358,0.0919-24.7314-0.6569c-11.6501-1.0646-23.477-1.0885-34.8212-4.5114
		c-8.7084-2.6276-14.7971-8.3447-17.0716-17.077c-5.3344-20.4796-10.3737-41.0424-15.094-61.6718
		c-1.5157-6.6242-1.8183-13.5493-2.3891-20.3607c-0.7244-8.6447-1.3956-17.3068-1.6481-25.9742
		c-0.2562-8.796,2.1568-16.1202,10.2466-21.567c11.5304-7.7634,24.2375-11.5085,37.6145-13.6924
		c9.9596-1.626,19.9407-3.2162,29.9691-4.2928c7.1941-0.7723,14.4827-0.9105,21.7283-0.8966
		c9.2506,0.0178,18.5352,0.0632,27.7418,0.8448c11.4941,0.9757,22.9601,2.4719,34.3697,4.1967
		c9.3391,1.4119,18.6006,3.3786,27.8531,5.3081c6.16,1.2846,11.4933,4.5917,16.1012,8.6288
		c1.6742,1.4669,2.1447,4.8867,2.2448,7.4514c0.213,5.4578-0.2182,10.9384-0.2925,16.411
		c-0.0217,1.6039,0.3932,3.2117,0.3975,4.8183c0.0349,12.9887,0.3771,25.9911-0.1131,38.9613
		c-0.299,7.9118-1.8777,15.7777-2.9292,23.6578c-0.7277,5.4532-1.2722,10.9497-2.3716,16.3302
		c-1.6235,7.9451-3.6462,15.8093-5.5401,23.6981c-1.2222,5.0909-2.456,10.1805-3.8024,15.2394
		c-0.9289,3.4904-3.4017,4.5628-6.9255,4.6718c-11.6674,0.361-23.3263,1.0004-34.9885,1.533
		C255.0215,565.908,255.0142,565.7482,255.0069,565.5884z M208.1029,412.3664c-4.2069,0.6088-12.0996,1.4487-19.8653,2.9471
		c-11.0631,2.1346-21.681,5.6638-31.3135,11.7458c-9.4377,5.9589-17.0269,14.0108-24.9272,21.7276
		c-1.971,1.9251-1.8237,3.7201-0.5215,5.8057c2.2684,3.6333,3.6896,4.5462,6.3688,3.4622c2.3368-0.9455,4.583-2.1651,6.7579-3.4518
		c13.577-8.0323,27.6657-14.5426,43.6907-15.9597c10.5167-0.93,20.9926-1.1837,31.2235,1.6913
		c7.2109,2.0263,14.2442,4.6886,21.3451,7.1014c3.4779,1.1818,5.9061,0.4043,7.3598-2.9013
		c1.9756-4.4927,3.8077-9.0605,5.4415-13.6878c1.2968-3.6729,0.3575-7.5901-1.9849-8.8863
		c-2.6793-1.4827-5.3998-3.0113-8.2834-3.9826C233.1672,414.5331,222.6564,412.5112,208.1029,412.3664z"/>
	<path class="st0" d="M647.3064,329.8891c-10.325-27.9537-26.9254-51.6093-41.0076-76.8401c0.7727,0.741,1.588,1.4427,2.3112,2.2291
		c6.0688,6.5991,12.1715,13.1683,18.163,19.8372c5.3802,5.9886,10.5692,12.1494,15.9753,18.1139
		c1.9351,2.1349,4.0305,4.2995,6.4675,5.7571c2.6226,1.5687,2.827,3.514,2.4414,6.0392
		c-1.1666,7.6411-2.2828,15.2898-3.4434,22.9318C648.1528,328.3586,647.8633,328.7251,647.3064,329.8891z"/>
	<path class="st0" d="M635.4391,350.4403c3.0773,1.4357,4.8111,4.8546,8.9351,3.7822c-0.4677,5.1671-0.918,10.144-1.3683,15.1209
		c-0.1255,0.047-0.2511,0.0939-0.3766,0.1409C640.2624,363.2154,637.8955,356.9465,635.4391,350.4403z"/>
	<path class="st0" d="M476.853,412.1696c19.4686,1.3138,37.407,4.1455,53.4141,13.564c6.8597,4.0363,12.8005,9.6803,18.9766,14.8131
		c2.989,2.4842,5.4788,5.5593,8.3416,8.2079c2.1362,1.9763,1.8157,3.8573,0.4222,6.0053c-2.33,3.5918-3.6718,4.4797-6.4323,3.2074
		c-3.7717-1.7383-7.4257-3.7576-11.0269-5.8353c-10.0159-5.7787-20.4498-10.3321-31.9384-12.4122
		c-17.0171-3.081-33.6408-2.1486-49.8923,3.9562c-3.3858,1.2719-6.757,2.5839-10.1589,3.8112
		c-3.2667,1.1785-5.7117,0.2961-7.1396-2.881c-2.6326-5.8572-5.7884-11.558-5.7224-18.2999
		c0.0226-2.3049,0.9991-3.6826,2.9124-4.7712c6.9257-3.9404,14.4848-6.0114,22.2327-7.3518
		C466.5132,413.2021,472.2725,412.7295,476.853,412.1696z"/>
	<path class="st0" d="M208.1029,412.3664c14.5535,0.1449,25.0643,2.1668,35.2913,5.6115c2.8836,0.9713,5.6041,2.4999,8.2834,3.9826
		c2.3424,1.2962,3.2816,5.2135,1.9849,8.8863c-1.6338,4.6273-3.4658,9.1951-5.4415,13.6878
		c-1.4537,3.3056-3.8819,4.0831-7.3598,2.9013c-7.1008-2.4128-14.1342-5.0751-21.3451-7.1014
		c-10.2309-2.875-20.7068-2.6214-31.2235-1.6913c-16.0249,1.4171-30.1137,7.9274-43.6907,15.9597
		c-2.1749,1.2867-4.4212,2.5063-6.7579,3.4518c-2.6792,1.0841-4.1004,0.1712-6.3688-3.4622
		c-1.3022-2.0857-1.4495-3.8806,0.5215-5.8057c7.9003-7.7168,15.4896-15.7686,24.9272-21.7276
		c9.6325-6.0819,20.2504-9.6112,31.3135-11.7458C196.0033,413.8151,203.896,412.9752,208.1029,412.3664z"/>
</g>
</svg>
