<?xml version="1.0" encoding="utf-8"?>
<!-- Generator: Adobe Illustrator 24.3.0, SVG Export Plug-In . SVG Version: 6.00 Build 0)  -->
<svg version="1.1" id="Layer_1" xmlns="http://www.w3.org/2000/svg" xmlns:xlink="http://www.w3.org/1999/xlink" x="0px" y="0px"
	 viewBox="0 0 749.4305 1023.7335" style="enable-background:new 0 0 749.4305 1023.7335;" xml:space="preserve">
<style type="text/css">
	.st0{fill:#FFFFFF;}
</style>
<g>
	<path class="st0" d="M440.6816,968.6338c-0.4878,2.0386-1.1908,4.0526-1.427,6.1201c-1.1737,10.2747-2.2032,20.5656-3.3406,30.8445
		c-0.1787,1.615-0.5987,3.2106-0.9952,4.793c-2.2605,9.0192-6.0452,12.6872-15.2365,13.7758
		c-8.2933,0.9822-16.3838,0.4536-22.8972-6.4896c-8.7244,2.8299-17.5968,3.0842-26.49-1.1306
		c-0.7654,4.5002-3.8127,6.0796-7.5043,7.0161c-6.162,1.563-12.2744,1.297-18.2601-0.6381
		c-4.9595-1.6033-8.5702-5.0261-10.0584-9.9919c-2.3907-7.9771-5.0414-15.983-6.2881-24.1738
		c-2.538-16.6754-4.705-33.4415-6.0997-50.2469c-1.2984-15.6454-0.0128-31.232,5.5219-46.1651
		c3.8045-10.2651,11.0537-13.7446,21.4289-10.5487c3.2747,1.0086,5.3692,2.9172,5.736,6.4421
		c0.1684,1.618,0.3417,3.2354,0.6649,6.29c1.6413-3.36,2.8796-5.543,3.7978-7.8531c1.5763-3.9655,4.0059-6.975,8.3799-7.7523
		c5.4228-0.9635,10.8494-1.3319,15.8805,1.6528c1.9841,1.1771,2.2611,3.1441,2.2691,5.2131
		c0.0224,5.8121,0.098,11.6243,0.075,17.4362c-0.0997,25.2709,1.0175,50.4816,4.2592,75.5525
		c1.1156,8.6274,2.9711,17.1602,4.5323,25.7282c0.5494,3.0148,1.9352,5.4515,5.7434,6.6541
		c0.2397-1.5193,0.6303-2.981,0.6786-4.4539c0.6964-21.2326,1.4107-42.465,1.9889-63.701
		c0.4942-18.1505,0.7803-36.3065,1.26-54.4573c0.0763-2.8876,0.7212-5.7575,1.044-8.6422c0.4648-4.1541,2.9304-6.511,6.7859-7.5684
		c4.8377-1.3268,9.7132-1.3032,14.5321,0.049c4.3297,1.2149,7.4801,3.9552,8.5435,8.3572
		c1.4882,6.1603,3.001,12.3694,3.7207,18.6475c1.0326,9.0093,1.3518,18.1002,1.9955,27.1547
		c0.1226,1.724,0.3379,3.4413,0.9087,5.116c0.537-10.6846,0.9153-21.3805,1.6658-32.0501c0.5217-7.4174,1.4455-14.8129,2.4065-22.19
		c0.4687-3.598,1.0971-7.3571,5.4357-8.6142c5.2699-1.527,10.5829-1.7118,15.0935,1.6933c1.6422,1.2397,2.5715,3.9534,3.0098,6.1569
		c1.2009,6.0383,1.9683,12.1627,3.007,18.8995c0.4154-1.5493,0.8806-2.5895,0.9525-3.6562
		c1.0296-15.2762,0.4911-30.4894-2.023-45.6093c-0.2376-1.4293-0.6093-2.8419-1.0024-4.2385
		c-1.3193-4.6873-0.8106-5.5434,3.9639-6.5056c7.0747-1.4258,13.2881,1.311,17.1228,7.7196
		c4.3672,7.2986,6.3672,15.3925,7.5781,23.7075c2.0807,14.288,1.6069,28.6265,0.5258,42.9475
		c-0.6283,8.3241-1.6655,16.6172-2.4875,24.9272c-0.1026,1.0377-0.014,2.0945,0.3955,3.1661
		c12.6352-49.9052,13.747-100.7547,12.6088-152.6639c-1.5696,1.543-2.5714,2.6549-3.7011,3.6165
		c-4.7015,4.0013-15.8259,4.9495-21.2536,1.849c-1.8688-1.0676-2.8173-2.2913-2.3903-4.8265
		c0.5879-3.4912,1.0945-7.2587,0.4053-10.6583c-3.4236-16.8876-7.2465-33.6944-10.9456-50.5259
		c-0.3114-1.4169-0.7507-2.8057-1.1234-4.2094c-0.6778-2.5521,0.4836-4.1475,2.668-5.2899
		c6.5602-3.4311,17.1072-1.3654,21.9796,4.4178c4.2847,5.0858,7.0407,11.0073,8.8594,17.3395
		c1.3991,4.8716,2.4775,9.8353,3.799,15.1635c3.3741-2.2842,6.9915-2.646,10.778-1.2852c3.8987,1.4012,6.0643,4.5757,7.8538,7.9485
		c4.6656,8.7935,6.5853,18.4316,7.9814,28.1521c4.4636,31.0745,4.9539,62.2271,1.4982,93.4366
		c-0.0571,0.5153,0.0555,1.0495,0.0916,1.6177c5.0336-3.5982,11.0024-13.0215,11.7739-18.6948
		c3.6083-26.5344,4.4183-53.1859,3.1331-79.9084c-0.7589-15.7792-1.7134-31.5488-2.5735-47.3232
		c-0.0791-1.4506-0.2177-2.9093-0.1414-4.3544c0.126-2.3854-1.2385-5.5372,2.0503-6.6315c3.3895-1.1278,6.9009-0.8028,9.6673,1.8683
		c1.398,1.3499,2.5145,2.9915,4.3344,5.2004c0.5561-3.6649,0.9252-6.6201,1.4668-9.5434c0.8086-4.3649,2.058-5.3784,6.5358-5.6015
		c5.2154-0.2599,7.9821,1.1367,8.8511,5.1978c1.0228,4.7809,1.8877,9.6506,2.1898,14.5211
		c1.1688,18.844,2.0846,37.7036,3.1031,56.5569c0.0383,0.7101,0.1639,1.4154,0.3597,3.0464
		c1.0614-1.5807,1.7319-2.4739,2.2931-3.4313c5.9015-10.0677,6.6097-21.3017,7.5096-32.5528
		c0.6938-8.6755,1.6473-17.3508,2.9897-25.9474c1.1221-7.1864,2.3293-7.9099,9.592-8.5269c0.5365-0.0455,1.067-0.1624,2.1059-0.3253
		c0.8648-3.4919,1.834-7.1277,2.662-10.7952c4.81-21.3051,7.4219-42.9136,8.9348-64.6782
		c2.0023-28.8025,4.165-57.5942,6.0684-86.4031c1.0176-15.4014,1.7814-30.8233,2.4053-46.2463
		c1.6298-40.2839,3.0721-80.5753,4.7191-120.8585c0.2291-5.6043,1.1835-11.1796,1.8165-16.7666
		c0.356-3.1421,2.296-4.9988,5.2399-5.4503c2.6522-0.4067,5.4258-0.5565,8.0837-0.261c3.5997,0.4002,5.8935,2.4919,6.3447,6.3445
		c0.9711,8.2891,2.5642,16.5419,2.9679,24.8549c2.2286,45.8948,4.2952,91.8,3.9399,137.7709
		c-0.0122,1.5803-0.0016,3.1607-0.0016,5.1028c6.8666-0.4272,11.938-3.3909,16.4266-7.4427
		c9.2776-8.3749,15.085-19.008,19.1307-30.6333c4.6302-13.3044,6.9976-27.0363,6.9351-41.1582
		c-0.0312-7.0679-0.0054-14.1361-0.0054-21.7342c-1.9027,0.4598-3.239,0.7108-4.5308,1.1067
		c-7.4749,2.2903-15.0182,2.5454-22.5641,0.5454c-2.389-0.6332-5.4713-1.3592-5.3194-4.5237
		c0.1302-2.7129,2.9591-3.3407,5.2004-4.095c0.3427-0.1153,0.705-0.2327,1.0606-0.2398
		c10.852-0.2172,15.3875-8.7291,22.0953-16.4282c-4.4825,1.227-7.7203,2.3013-11.0391,2.979
		c-5.4041,1.1034-10.8596,1.0574-16.1719-0.5308c-2.0469-0.6119-4.1724-1.4843-5.8241-2.7913
		c-3.9911-3.1582-3.2614-9.0074,1.2963-11.1625c1.6119-0.7622,3.4564-1.4461,5.196-1.4489c5.65-0.0089,8.7167-3.568,12.3262-8.4202
		c-2.4767,0.1828-4.1265,0.2712-5.7691,0.4317c-5.5176,0.5393-10.9135,0.0264-15.9809-2.2946
		c-4.7811-2.1898-5.4094-4.5923-2.4781-8.8887c9.3123-13.6488,18.7816-27.1921,27.959-40.9307
		c4.4317-6.6345,8.3567-13.6082,12.4824-20.4455c0.5427-0.8992,0.9143-1.9016,1.5063-3.1551c-2.5899,0-4.724,0.2097-6.8015-0.0437
		c-4.2953-0.524-8.7108-0.8102-12.8025-2.0789c-5.9167-1.8347-7.3138-4.8863-5.8165-10.8765
		c0.9644-3.8581,2.1938-7.6499,3.4437-11.9505c-2.9165-0.2612-5.5644-0.3187-8.1397-0.7805
		c-2.4782-0.4444-5.0261-0.9979-7.2856-2.0546c-3.9502-1.8474-4.4938-4.1678-2.0578-7.8102c2.2192-3.3183,4.751-6.428,6.9612-9.7518
		c3.4009-5.1145,6.6447-10.3335,10.6608-16.6115c-2.4027,0.6186-3.5389,0.7791-4.5701,1.1981
		c-6.3881,2.5958-12.842,5.0576-19.088,7.9638c-3.2147,1.4958-6.0435,3.8201-9.0497,5.7653
		c-0.9095,0.5885-1.7626,1.3387-2.7554,1.7119c-6.9103,2.5982-13.8939,2.7603-20.6876-0.2117
		c-5.757-2.5185-6.5144-7.019-1.6796-10.9373c3.6356-2.9465,7.6743-5.5625,11.8868-7.5925
		c6.8552-3.3033,13.9399-6.1589,21.0357-8.927c9.5287-3.7173,18.5923-8.1348,26.4769-14.8131
		c6.8214-5.7777,11.8212-12.7213,14.8647-21.1207c1.8122-5.0012,4.7189-6.4273,10.7508-5.479
		c4.5969,0.7227,6.6548,3.1401,6.8972,8.2991c0.299,6.3613-1.6584,12.1753-4.5384,17.7292
		c-0.8333,1.6071-1.8104,3.1396-2.9142,5.0376c3.8635,8.0562,2.2369,16.3884-0.0888,24.998
		c1.3967,0.4948,2.6962,1.0045,4.0255,1.4181c6.8784,2.1401,8.3673,4.2763,7.7932,11.5382
		c-0.1567,1.9838-0.5814,3.9466-0.8909,5.9179c-0.3083,1.9635-0.6264,3.9254-1.0225,6.4031
		c1.3865-0.138,2.5308-0.3187,3.6794-0.3548c5.0554-0.1592,10.1184-0.4768,15.1649-0.313c2.087,0.0678,4.2239,1.0106,6.1898,1.888
		c3.9009,1.741,5.9809,4.8457,5.2303,9.1571c-0.6494,3.7296-1.5842,7.4499-2.8187,11.0273
		c-1.7125,4.9627-3.8233,9.7878-5.9421,15.121c6.2703,3.2871,6.017,9.2449,5.5857,15.0409
		c-0.8578,11.5266-4.619,22.3472-8.6365,33.075c-0.8864,2.3668-1.8657,4.6987-2.7435,6.8997
		c0.2886,0.5189,0.4004,1.0284,0.6308,1.0894c7.0352,1.8603,7.0425,6.4411,5.9637,11.3623
		c-2.0116,9.1766-6.2063,17.4484-11.567,25.0665c-3.3318,4.7347-7.231,9.0703-10.8802,13.5811
		c-0.6522,0.8062-1.3275,1.5935-2.3863,2.8617c1.5132,0.3994,2.4843,0.7282,3.4821,0.9059
		c3.4105,0.6073,5.3123,2.6125,6.3232,5.9278c9.5002,31.1551,5.3029,60.3264-12.8542,87.3323
		c-9.3071,13.8431-22.5742,21.7713-39.0164,24.402c-3.9083,0.6254-7.8307,1.1617-12.0735,1.7872
		c-0.3425,6.3776-0.6561,12.5038-1.0029,18.6283c-1.5709,27.7394-2.7782,55.5056-4.8114,83.2112
		c-3.4236,46.6533-14.9146,91.235-35.5182,133.3833c-1.601,3.2749-1.9775,7.3076-2.2668,11.039
		c-2.0102,25.9381-5.6539,51.6221-12.2592,76.7999c-1.9239,7.3334-4.6853,14.5113-7.7169,21.4758
		c-5.0706,11.6492-14.866,15.7682-26.9516,15.4026c-2.1378-0.0646-4.3964-0.5123-6.335-1.376
		c-1.5047-0.6706-3.2346-2.0524-3.7187-3.5011c-0.6661-1.9929,1.2627-3.2589,3.012-3.9035
		c4.0331-1.4866,5.9468-4.8793,7.0521-8.5031c3.0649-10.0492,5.8627-20.1849,8.5233-30.35
		c1.1389-4.3508,1.6762-8.8591,2.6118-13.9799c-2.968,1.276-3.6558,3.6714-5.1541,5.2605
		c-5.267,5.5865-7.7058,12.356-9.4515,19.7742c-1.7315,7.3582-4.3696,14.6181-7.5714,21.4721
		c-1.9269,4.1249-5.3026,7.8254-8.7503,10.9078c-2.7632,2.4705-4.9595,5.1052-6.9646,8.1615
		c-4.7745,7.2776-9.6853,14.48-14.8727,21.4666c-2.2457,3.0247-5.1096,5.6885-8.0512,8.0742
		c-3.7915,3.0753-7.6929,5.8961-10.9257,9.6905c-3.7692,4.4238-9.3349,5.2999-14.8666,5.66
		c-1.9642,0.1279-3.9438,0.0204-6.3057,0.0204c-0.7431,3.197-1.3987,6.162-2.1261,9.1092
		c-0.8258,3.346-1.6926,6.6824-2.5836,10.0117c-1.5286,5.7119-5.5292,8.2816-11.1863,8.5959
		c-2.1554,0.1198-4.3231,0.0196-6.9353,0.0196c-0.7401,4.5239-1.3864,8.7714-2.1375,13.0003
		c-1.4938,8.4116-3.9921,10.7789-12.4344,11.6376c-4.5718,0.4649-9.0665,0.0433-13.3343-1.8544
		c-2.6078-1.1595-3.7878-2.9913-3.6105-5.9987c0.7578-12.8552,1.3456-25.7203,2.0114-38.5809
		c0.1026-1.9812,0.2892-3.958,0.4377-5.9398c0.0009-8.0968,0.0009-16.1907-0.0003-24.2852
		C440.6816,952.4319,440.6816,960.5328,440.6816,968.6338z"/>
	<path class="st0" d="M56.7405,428.9294c-0.7383,1.2737-0.9959,2.2823-1.6438,2.7494c-7.0755,5.1003-9.8803,12.9176-12.5908,20.5526
		c-8.0013,22.5385-8.38,45.5397-2.9627,68.6889c1.709,7.3027,4.6613,14.129,9.5085,20.006c3.2114,3.8936,7.16,6.5273,12.5778,7.7296
		c0.1128-1.8536,0.3026-3.4023,0.2868-4.9489c-0.2866-28.0078,1.3804-55.9098,4.6411-83.7165
		c1.7778-15.1613,4.4271-30.1736,8.5927-44.8836c2.55-9.005,6.791-12.1257,16.1763-11.7996
		c2.1561,0.0749,4.3056,0.5902,6.4395,0.9998c4.7668,0.9152,7.9894,3.7205,8.8014,8.5013
		c1.6389,9.6498,3.6295,19.3093,4.2793,29.0446c1.8625,27.9033,2.8486,55.865,4.7131,83.7681
		c1.5978,23.9113,3.9996,47.7681,5.9209,71.6591c1.6594,20.6339,3.475,41.2635,4.6175,61.9285
		c1.3264,23.9932,4.4417,47.7109,9.1871,71.2398c0.281,1.3933,0.7259,2.7535,1.1845,4.4648
		c1.6967-1.5258,2.9886-3.0735,4.6182-4.0683c2.9048-1.7733,6.1968-1.9911,9.494-1.3002c3.6625,0.7672,4.365,1.7756,4.4286,5.5863
		c0.2273,13.6186,0.4772,27.2368,0.7321,40.8549c0.0271,1.4462,0.144,2.8907,0.813,4.4302
		c0.7903-3.6368,1.3044-7.3616,2.4285-10.892c2.3059-7.2423,4.6245-14.511,7.5343-21.5212
		c2.4306-5.856,10.8387-8.0042,16.1567-4.4681c1.1602,0.7715,1.8961,2.484,2.353,3.9146c0.3649,1.1423,0.11,2.5272-0.0421,3.7835
		c-3.2749,27.0397-0.572,53.7013,5.7375,79.9999c4.9092,20.4619,10.6192,40.732,16.0016,61.0798
		c0.4081,1.5427,1.0427,3.0256,2.3294,4.4341c-0.1226-1.2693-0.1196-2.5657-0.3864-3.804
		c-4.905-22.7675-8.2829-45.7301-8.784-69.0533c-0.4424-20.5922,0.7641-41.0667,6.1114-61.0396
		c1.8154-6.7806,4.6578-13.3503,7.6295-19.7379c2.5399-5.4594,10.3205-7.6145,15.3907-4.5317
		c1.4507,0.8821,2.5777,2.9905,2.9872,4.7393c0.7363,3.1442,0.8176,6.4417,1.2945,10.7848
		c2.0117-4.3065,3.6367-7.6439,5.1416-11.0347c3.4942-7.873,9.8807-8.6487,17.3824-7.0019
		c1.9788,0.4343,3.5833,2.5732,5.4695,4.0132c0.1653-0.2402,0.6682-0.7846,0.9613-1.4251
		c3.8694-8.4562,11.4047-9.3809,19.3987-7.937c5.0223,0.9072,6.4415,2.6645,6.3875,7.8531c-0.0718,6.8961-0.38,13.7986-0.8545,20.68
		c-0.8618,12.4974-1.9429,24.9794-2.8868,37.4714c-0.3414,4.5176-1.4123,6.0391-5.7921,7.3942
		c-5.9228,1.8325-11.81,1.4697-18.0282-0.8211c0,1.5065-0.1668,2.7217,0.0302,3.8748c0.6751,3.9513,0.1594,5.2565-3.5165,6.5674
		c-6.2305,2.222-12.4634,2.1683-18.5515-0.642c-0.9544-0.4406-1.846-1.0174-3.2403-1.7956
		c-0.7318,5.0194,0.2606,9.509,0.2511,14.4633c5.5414-1.9842,10.576-2.9839,15.9501-2.0903
		c5.0428,0.8386,8.5265,3.2352,9.5973,8.2672c1.7364,8.1589,3.3202,16.3556,4.739,24.5759
		c2.9639,17.1722,5.7762,34.3706,8.6599,51.5568c0.1363,0.8123,0.36,1.6097,1.1477,2.3979
		c0.6797-4.2729,1.3659-8.5446,2.0378-12.8187c1.9655-12.504,6.3797-24.1899,11.9531-35.4703
		c2.999-6.0698,15.0358-7.769,19.2485-2.4889c1.4139,1.7722,1.9321,4.6987,1.9201,7.093
		c-0.0528,10.532-0.6255,21.0614-0.6878,31.5936c-0.1843,31.1617,2.4851,62.0267,10.2162,92.3174
		c0.7167,2.808,1.6211,5.5803,2.6323,8.297c0.8142,2.1874,1.874,4.093,4.1239,5.4786c4.6083,2.8376,4.2567,5.7995-0.6349,8.1834
		c-11.6737,5.6888-28.3088,0.8564-34.9801-10.1586c-0.3654-0.6035-0.7574-1.191-1.0779-1.6932
		c-4.5196,0.338-8.8256,0.9484-13.1284,0.9271c-12.1115-0.0601-18.2545-4.0293-22.2626-15.361
		c-3.3821-9.562-5.8496-19.4476-8.713-29.1925c-0.5452-1.8555-1.0485-3.7234-1.6758-5.9586
		c-7.8926,6.127-16.2017,5.4874-24.6725,3.2538c-13.1315-3.4626-22.9332-11.233-29.9766-22.7997
		c-8.6619-14.2249-14.4666-29.6572-19.6906-45.3538c-1.2606-3.7875-2.328-7.639-3.5351-11.4448
		c-0.4164-1.3129-0.9872-2.5769-2.2581-3.665c0.8115,5.5366,1.4668,11.1017,2.4703,16.6033
		c1.5955,8.7471,3.247,17.4921,5.2245,26.1582c1.0414,4.564,2.6359,9.0322,4.3439,13.4016
		c0.9831,2.5151,0.4595,4.1696-1.5282,5.6571c-0.1454,0.1088-0.2913,0.2172-0.4402,0.3211
		c-10.6593,7.4351-28.9546,2.2735-33.9237-9.6807c-4.4889-10.7993-6.6596-22.2336-8.7258-33.6691
		c-3.394-18.783-5.3939-37.7316-6.6455-56.772c-0.1354-2.0602-0.7557-4.3893-1.9323-6.0351
		c-18.6733-26.1173-29.3827-55.7408-38.2466-86.196c-9.7854-33.6214-15.1303-67.9922-17.5218-102.8765
		c-1.5648-22.8254-3.2794-45.6407-4.9051-68.4621c-0.2683-3.7662-0.4242-7.5405-0.6595-11.8088
		c-7.7929,2.7394-15.2042,2.7854-22.8245,0.8628c-19.4512-4.9074-30.6485-17.7736-35.8491-36.5004
		c-7.0019-25.2128-2.377-48.5904,11.8988-70.1573c3.6857-5.5682,8.1115-10.7084,12.6389-15.6397
		c4.211-4.5867,9.4093-8.0399,15.5806-9.5677C47.7936,425.7462,52.2579,425.4232,56.7405,428.9294z"/>
	<path class="st0" d="M119.0548,146.3387c9.1615-4.9136,17.8296-5.6304,26.7856-3.5844c1.4045,0.3209,2.8125,0.7717,4.1095,1.3916
		c4.5456,2.1726,5.4704,4.6187,3.1815,9.1625c-4.3268,8.5895-8.8344,17.0877-13.2241,25.6458
		c-0.7981,1.5559-1.3922,3.2165-2.3179,5.385c6.5053-1.1586,12.5689-3.618,18.2851,1.3079
		c-4.2537,10.0508-8.4321,19.8784-12.5748,29.7211c-10.7396,25.5162-17.7353,52.2084-24.5836,78.9309
		c-5.1847,20.2309-9.6347,40.6403-11.4806,61.4854c-0.9439,10.6584-1.1403,21.3832-1.666,32.0784
		c-0.0266,0.5419-0.0404,1.1006,0.0577,1.6296c0.3867,2.0851,1.7543,4.3521-0.1421,6.1745
		c-2.0532,1.9731-4.3957,3.6806-6.7707,5.2663c-1.0029,0.6696-2.3952,0.9433-3.6379,1.0381
		c-18.8786,1.4396-32.1679-0.252-43.3497-21.4075c-6.6626-12.6053-10.1892-26.3724-13.1898-40.238
		c-5.2813-24.405-8.5997-49.0579-6.8428-74.0562c2.6091-37.1244,10.2294-72.9951,29.5641-105.4321
		c4.6309-7.7691,10.3142-14.915,15.5847-22.2967c2.4012-3.363,5.7476-5.4377,9.6814-6.686
		c8.1854-2.5973,16.4274-2.7867,24.6903-0.5804c2.0744,0.5539,4.1297,1.4565,5.9635,2.576
		c3.7874,2.3121,4.4589,4.4485,3.1725,8.7219C120.0956,143.4216,119.7763,144.2514,119.0548,146.3387z"/>
	<path class="st0" d="M161.665,122.6098c1.2786-4.6816,2.5052-9.3781,3.844-14.0424c9.8769-34.4107,28.5718-63.3072,54.8851-87.3798
		c7.39-6.7607,15.5414-12.5337,24.3585-17.3143c4.8646-2.6376,10.0302-4.1999,15.654-3.8155
		c2.5512,0.1744,4.9927,0.5498,6.4789,2.7756c-0.1367,0.6405-0.0902,1.164-0.3015,1.3071
		c-15.5,10.5039-26.6705,24.8826-36.3575,40.5854c-13.3007,21.5608-21.4207,45.1825-27.5552,69.5789
		c-4.6555,18.5144-8.2893,37.2162-9.3,56.3227c-0.3154,5.9629-0.3913,12.0025,0.2085,17.9275
		c0.4096,4.0462,1.9576,8.0387,3.4088,11.9002c1.3571,3.6109,1.122,5.1957-2.1087,7.2408
		c-11.8376,7.4934-29.5776,2.187-35.2555-10.5921c-2.6226-5.9025-3.4104-12.2121-3.7296-18.5822
		c-0.6388-12.7511,0.5747-25.3884,2.4904-37.9763c0.2411-1.5839,0.4507-3.1725,0.746-5.2612
		c-1.5422,0.099-2.7082,0.1784-3.8749,0.2478c-3.4286,0.2041-6.8966,0.8341-10.2789,0.5259
		c-10.3627-0.9442-17.6727-5.9379-20.6173-16.4248c-3.7756-13.447-4.4526-27.1673-3.9844-41.016
		c0.396-11.7159,2.2995-23.0995,7.1821-33.8647c2.7929-6.1578,6.1109-11.9792,10.9072-16.8133
		c5.9834-6.0305,15.8591-8.0972,23.1748-4.9713c3.5333,1.5098,4.4963,2.9322,3.2223,6.2262
		c-5.8,14.9961-6.7784,30.7732-7.6499,46.5451c-0.7425,13.4385-0.3617,26.8664,1.7592,40.1947
		c0.3603,2.2641,0.9356,4.494,1.4116,6.7397C160.8103,122.6524,161.2376,122.6311,161.665,122.6098z"/>
	<path class="st0" d="M644.7216,204.5886c4.4926,3.3504,9.0583,6.6085,13.4475,10.0893c2.257,1.7899,4.4837,3.7602,6.2162,6.0356
		c2.5455,3.3431,1.9097,6.3957-1.8228,8.0693c-7.6717,3.4401-15.6193,3.8835-23.0087-0.5401
		c-16.1918-9.6927-32.2035-19.687-48.2554-29.6121c-3.8548-2.3835-7.7915-4.7134-11.3123-7.5392
		c-4.8438-3.8877-4.4309-7.9062,1.3242-10.3444c4.4265-1.8753,9.3511-2.5751,14.1608-3.8254
		c-0.6663-0.3882-1.548-1.1134-2.5593-1.4571c-7.0118-2.3832-13.7978-5.746-21.4931-5.32
		c-1.7813,0.0986-3.6782,0.1416-5.2979,0.7793c-7.5873,2.9869-15.238,5.8745-22.5954,9.3676
		c-8.0211,3.8082-16.0688,3.9515-24.3772,1.6838c-1.2072-0.3295-2.3957-0.8966-3.4541-1.5713
		c-3.4153-2.1769-3.8852-4.6581-1.2036-7.6142c1.5635-1.7235,3.3798-3.4473,5.4335-4.4564
		c8.7762-4.3123,17.5399-8.7087,26.5807-12.4081c9.8981-4.05,20.0988-7.3598,30.1608-11.011
		c1.3351-0.4845,2.6305-1.079,4.3387-1.7858c-1.662-2.3591-4.0277-2.8521-6.1305-3.3783
		c-5.274-1.3199-10.6545-2.2112-15.9365-3.5029c-3.3287-0.8141-6.7224-1.6917-9.7959-3.1529
		c-6.6913-3.1809-7.2062-7.6853-1.7405-12.5388c0.7825-0.6948,1.6043-1.3452,3.0887-2.5846
		c-4.092-0.887-7.3979-1.5445-10.6744-2.3257c-7.4051-1.7657-14.8682-3.3474-22.1602-5.5026
		c-3.4044-1.0061-6.7328-2.8022-9.6223-4.8942c-4.5239-3.2754-4.4001-7.4914,0.2617-10.6487
		c2.6573-1.7997,5.7439-3.2306,8.8428-4.0586c6.4727-1.7295,13.0806-2.9537,19.6353-4.3746c1.5488-0.3357,3.107-0.6283,4.759-1.9177
		c-7.8753-2.255-15.7698-4.4454-23.6213-6.7805c-10.7769-3.2051-21.5714-6.3665-32.2522-9.8703
		c-3.7466-1.2291-7.3636-3.1246-10.7023-5.2468c-3.1672-2.0132-2.8264-4.4968,0.585-6.1151
		c4.0721-1.9319,8.4532-2.3008,12.7773-1.1931c30.5724,7.8319,61.1343,15.7062,91.661,23.7134
		c3.6487,0.9571,7.2618,2.4494,10.5469,4.3039c5.5878,3.1545,5.5001,7.9282-0.3393,10.4747
		c-4.0892,1.7833-8.6257,2.7575-13.0624,3.475c-6.2297,1.0074-12.5522,1.4412-18.845,2.9317
		c5.5727,1.2255,11.1812,2.3107,16.7076,3.7175c5.0917,1.2962,10.1541,2.77,15.1124,4.5009
		c2.3464,0.8191,4.6497,2.1426,6.5684,3.727c3.8829,3.2066,3.6338,6.8806-0.4512,9.9142c-1.5432,1.1459-3.2788,2.0327-5.521,3.4
		c4.502,1.6208,8.4844,2.7958,12.2397,4.4776c3.9514,1.7696,7.9529,3.6486,11.4592,6.1446
		c7.2937,5.1923,7.194,11.1078-0.2017,16.0292c-3.4448,2.2923-7.3499,3.9053-11.0919,5.7332
		c-1.7507,0.8553-3.6093,1.4897-6.5805,2.6956c2.3458,0.8364,3.5455,1.3437,4.7891,1.6959
		c29.3896,8.324,56.5842,21.5124,82.6021,37.2958c1.6931,1.0271,3.3476,2.2292,4.7253,3.6381
		c1.8604,1.9026,1.8019,4.033-0.3092,5.6347c-1.6874,1.2803-3.7299,2.2995-5.7725,2.8676
		c-7.6058,2.1156-15.0737,1.5164-22.3445-1.6427c-4.942-2.1473-9.9357-4.176-14.9061-6.2577
		C645.11,203.8718,644.9158,204.2302,644.7216,204.5886z"/>
	<path class="st0" d="M271.0068,217.6092c-3.6607-0.7669-7.4261-1.3296-11.0538-2.372c-4.7382-1.3615-7.3036-4.796-7.1717-9.7118
		c0.1259-4.6955,0.3088-9.4747,1.2694-14.0485c5.2425-24.9632,13.0627-49.1158,24.6168-71.8883
		c10.77-21.2271,26.8179-37.3023,48.7783-47.0529c8.3823-3.7218,17.1951-5.8906,26.3927-5.6992
		c3.1743,0.066,6.5129,0.8362,9.4372,2.0816c3.4008,1.4483,3.2249,4.1469-0.0824,5.9524c-1.0946,0.5976-2.3948,1.2435-3.5721,1.193
		c-5.9831-0.2566-10.2964,3.1261-14.5144,6.546c-8.7408,7.087-15.7045,15.7756-20.1913,26.0244
		c-6.1774,14.1102-12.1483,28.3615-17.1919,42.9047c-6.4156,18.4995-11.9969,37.2979-17.5192,56.0905
		c-1.3087,4.4535-3.6573,7.0289-7.7822,8.0571C278.7571,216.5997,274.9558,216.967,271.0068,217.6092z"/>
	<path class="st0" d="M635.206,361.7028c-18.7881-0.1841-34.7839-7.3056-49.2814-18.3601
		c-21.5229-16.4114-33.5163-38.1626-35.7578-65.1651c-0.5437-6.5504,0.1059-13.0144,2.4266-19.2842
		c2.1021-5.6792,5.8594-9.0222,11.9726-9.5279c1.624-0.1343,3.2647-0.4317,4.8741-0.3187
		c9.3354,0.6557,12.3112,3.3271,13.8623,11.4824c4.3367,22.8013,14.7218,42.7195,29.562,60.397
		c5.9822,7.1261,12.9659,13.1469,20.7709,18.2503c2.3425,1.5317,4.3486,1.8037,7.0273,0.8122
		c7.3557-2.7226,14.946-2.7163,22.484-0.7736c2.2393,0.5771,4.4924,1.5657,6.4002,2.8639c3.6693,2.4969,3.7277,5.5795,0.2297,8.4324
		c-4.6885,3.824-9.9709,6.7789-15.8638,8.1026C647.7565,359.9968,641.4479,360.7015,635.206,361.7028z"/>
	<path class="st0" d="M310.9842,212.2348c0.8745-4.8082,1.5215-9.6711,2.664-14.4147
		c4.2699-17.7266,10.2111-34.9217,19.4859-50.6384c16.4073-27.8032,39.8699-46.2666,72.3538-51.6404
		c5.6658-0.9373,11.5782-0.7394,17.3532-0.4995c2.5798,0.1071,5.2823,1.2907,7.5972,2.5812
		c2.1975,1.2251,2.1384,3.6653-0.1416,4.7063c-2.5624,1.17-5.481,1.5974-8.2743,2.213c-2.4362,0.5369-5.0467,0.5264-7.3511,1.3778
		c-13.8323,5.1107-23.7679,15.0744-32.2737,26.6418c-10.4132,14.1613-17.6427,30.0343-23.8319,46.3488
		c-3.9184,10.3286-7.0711,20.9551-10.3409,31.518c-1.0002,3.231-1.7792,6.6261,0.1025,10.0396
		c1.0238,1.8573-0.0503,3.6596-1.7141,4.6517c-1.8438,1.0994-3.8514,2.0586-5.9119,2.6344
		c-6.1037,1.7058-12.2248,1.3296-18.2684-0.448C313.8997,224.7966,311.1929,221.098,310.9842,212.2348z"/>
	<path class="st0" d="M454.0955,199.0532c2.6309-2.4611,5.2207-4.968,7.9008-7.3744c6.7201-6.0337,14.4722-6.1634,22.4503-3.4165
		c4.5247,1.5579,5.5577,4.4118,3.1259,8.5095c-2.96,4.9877-6.4354,9.6675-9.6281,14.5197
		c-1.7444,2.6512-3.3657,5.3835-4.3322,8.7657c1.6614-0.9301,3.3347-1.8398,4.9822-2.794
		c5.0526-2.9266,10.2519-5.4769,16.1108-6.3513c5.14-0.7672,10.186-0.3604,14.9402,1.7727c4.2881,1.924,4.8014,4.3951,1.8909,8.1253
		c-1.0005,1.2823-2.2045,2.4102-3.3518,3.5729c-10.0154,10.1493-18.2411,21.646-25.3545,33.9502
		c-1.7748,3.0702-3.7423,6.1659-1.4781,10.1268c1.1625,2.0335-0.473,4.0499-2.3764,4.8435
		c-2.9741,1.2399-6.1031,2.3438-9.2704,2.8359c-6.6315,1.0303-13.0457-0.0088-18.91-3.4529
		c-5.896-3.4626-7.7256-7.7056-5.7231-14.2487c1.2561-4.1042,3.1488-8.0135,4.8671-12.2868
		c-2.1972-0.7403-4.2526-1.3219-6.2217-2.1169c-5.8897-2.3777-7.5027-5.3224-6.142-11.4885
		c1.8564-8.4124,5.3484-16.1697,9.7343-23.5526c1.0099-1.7002,1.8746-3.4868,2.806-5.2337c-0.0001,0-0.2003,0.2048-0.2003,0.2048
		c1.3259-1.5108,2.6518-3.0217,3.9778-4.5325C454.0058,199.2217,454.0732,199.0957,454.0955,199.0532z"/>
	<path class="st0" d="M469.6481,142.8681c-1.6647,1.0315-3.1459,2.417-4.889,2.9568
		c-17.3463,5.3722-31.5215,15.3906-43.0332,29.2639c-12.0067,14.47-22.022,30.18-28.8752,47.7746
		c-1.3766,3.5341-2.8798,7.0539-1.4156,11.0447c0.7478,2.0381-0.6706,3.3972-2.2507,4.4828
		c-5.851,4.0196-19.7962,3.4725-25.4504-0.9627c-2.9124-2.2845-4.5706-5.2011-4.2896-8.9259
		c0.2035-2.6958,0.3602-5.5061,1.2337-8.0239c13.3292-38.4203,36.5956-67.3163,76.9594-79.6011
		c7.1368-2.1721,14.4311-3.8344,21.9615-3.1545C463.2663,138.054,467.304,138.145,469.6481,142.8681z"/>
	<path class="st0" d="M484.016,311.7021c0.9265-12.0765,4.1558-24.8641,8.0859-37.5401
		c5.6672-18.2792,16.1933-33.0095,31.2567-44.7306c5.0117-3.8998,10.3205-5.0636,16.3044-3.6947
		c4.465,1.0214,5.6278,3.1818,4.1024,7.5464c-0.834,2.3863-1.9382,4.6878-3.0429,6.9683
		c-10.6566,21.9994-17.6265,45.2057-22.6146,69.0571c-0.4808,2.2994-0.6724,4.6631-0.9294,7.0045
		c-0.3019,2.7483-0.086,5.2466,1.7751,7.6712c2.0532,2.6746,1.4479,4.4326-1.3272,6.2783
		c-8.0285,5.3399-24.5642,2.6564-30.5156-4.9522C484.8564,322.4281,483.8869,318.5716,484.016,311.7021z"/>
	<path class="st0" d="M662.0846,182.5913c-3.1228-0.8163-6.3148-1.4385-9.3441-2.5173c-2.0204-0.7195-3.2601-2.391-2.3493-4.775
		c1.6442-4.3039,0.3801-8.405-1.4938-12.0917c-4.5967-9.0438-8.8679-18.3905-14.6157-26.6826
		c-11.2668-16.2546-23.4481-31.8755-35.2565-47.7546c-1.8416-2.4764-3.8011-4.8699-5.5488-7.4101
		c-2.8476-4.1391-2.0995-6.0563,2.8858-7.1686c5.918-1.3204,11.6882-0.8351,16.5871,3.025
		c5.1271,4.0399,10.2366,8.1681,14.8909,12.7299c16.9843,16.646,31.0261,35.5639,42.0341,56.6314
		c2.915,5.5788,5.2713,11.6194,6.792,17.7202C679.5268,175.7731,674.1012,182.0804,662.0846,182.5913z"/>
	<path class="st0" d="M320.112,42.0702c-2.1203,3.4169-5.0124,5.0586-8.4225,4.2494c-3.1075-0.7374-5.3078,0.4641-7.5951,1.8892
		c-7.9623,4.9607-14.6132,11.3934-19.9359,19.0508c-14.1369,20.3375-25.8376,42.0023-34.1814,65.3603
		c-1.2742,3.5671-3.2242,5.5023-6.6234,6.3256c-4.6586,1.1283-9.3563,1.2357-13.9751-0.1223
		c-4.9849-1.4656-6.6435-3.6441-6.1163-8.7515c0.3501-3.3919,1.096-6.836,2.27-10.0346
		c7.8691-21.4389,18.0282-41.6021,33.8664-58.4126c8.4367-8.9547,18.3568-15.8698,29.7998-20.4986
		c6.6362-2.6844,13.5438-4.2124,20.7076-3.6969C313.5879,37.694,317.6279,37.7916,320.112,42.0702z"/>
	<path class="st0" d="M273.6537,410.8548c-4.5795-0.5425-8.0418-0.7374-11.4155-1.3902
		c-13.5985-2.6311-27.1091-1.8127-40.5455,0.9586c-17.0614,3.519-33.9882,7.5557-50.2787,13.9028
		c-5.3931,2.1012-10.9582,2.5858-16.5129,0.6069c-4.999-1.7809-5.7812-4.8777-1.9204-8.4085
		c2.3816-2.1781,5.1068-4.1486,7.9905-5.5836c31.8039-15.8267,65.0428-25.7725,101.0291-24.0572
		c8.9495,0.4265,17.6476,2.2303,25.9148,5.7073c3.6753,1.5457,7.8376,3.3574,7.5202,8.2314
		c-0.293,4.4989-4.312,6.1176-7.9743,7.1375C282.6013,409.313,277.5727,410.0587,273.6537,410.8548z"/>
	<path class="st0" d="M590.8592,432.2087c-3.025-1.1242-6.2168-1.9315-9.0486-3.4225
		c-23.7752-12.5183-49.5701-19.3963-75.1316-26.8622c-6.0308-1.7614-12.4435-2.3885-18.7327-3.0067
		c-2.5257-0.2483-5.3465,0.5523-7.7664,1.5331c-8.1358,3.2977-16.2371,3.302-24.4334,0.4719
		c-0.8494-0.2933-1.672-0.7237-2.4307-1.2096c-3.7108-2.3764-4.0158-4.6-1.1788-7.9556c3.1789-3.7599,7.4377-5.725,11.9908-7.125
		c12.5574-3.8612,25.4248-3.675,38.3075-2.6003c13.0977,1.0927,25.794,4.0832,37.8726,9.3012
		c13.8043,5.9634,27.6096,11.9487,41.1769,18.4225c4.1422,1.9765,7.6011,5.4784,11.1679,8.5219
		c1.4736,1.2573,2.6059,3.0384,3.5512,4.7682C599.2983,428.7083,597.4562,431.712,590.8592,432.2087z"/>
	<path class="st0" d="M449.0087,17.5497c20.9262,0.7113,41.4232,4.2759,61.6431,9.5728
		c20.5211,5.3758,40.914,11.1614,60.3001,19.9564c5.7991,2.6309,11.3577,5.7098,15.7287,10.4992
		c3.6198,3.9662,3.0829,6.6759-2.0676,8.3321c-7.5816,2.438-14.7863,1.9778-21.7661-2.7226
		c-5.0611-3.4083-10.5861-6.4202-16.3057-8.5096c-31.2005-11.3974-63.0921-20.3626-95.8884-25.8811
		c-3.7363-0.6287-7.5914-0.521-11.3776-0.8949c-2.5126-0.2482-5.1293-0.3991-7.4522-1.2602
		c-1.4355-0.5322-3.0232-2.1702-3.3583-3.5911c-0.2043-0.8655,1.633-2.8244,2.9214-3.3051c2.8493-1.0629,5.9004-1.7576,8.927-2.1219
		C443.1732,17.2794,446.1072,17.5497,449.0087,17.5497z"/>
	<path class="st0" d="M307.5902,798.0378c-2.6214-0.1718-4.0814-0.1741-5.5131-0.3769c-8.079-1.1443-11.6434-4.3729-12.5507-12.5176
		c-1.7842-16.0173-0.8021-31.8942,4.1171-47.3286c1.252-3.9283,3.1873-7.7232,5.3262-11.267
		c4.3839-7.2637,16.0605-9.5682,23.0761-4.9055c2.1414,1.4232,2.4764,3.3517,2.2231,5.6748
		c-1.1984,10.9928-2.557,21.9738-3.4536,32.9919c-0.7934,9.7504-1.1687,19.5404-1.4982,29.3206
		c-0.1562,4.6368-0.5572,5.8018-4.8769,7.0959C311.8672,797.4964,309.14,797.7533,307.5902,798.0378z"/>
	<path class="st0" d="M565.3865,479.0652c-3.2999-0.6045-6.3607-0.9767-9.3024-1.7828c-1.4958-0.4098-3.3357-1.274-4.0527-2.499
		c-2.2822-3.8986-6.08-5.5598-9.7478-7.4815c-8.5322-4.4704-17.3453-8.2831-26.7318-10.5491
		c-9.5549-2.3067-19.0852-1.0452-28.6053,0.5528c-4.0898,0.6865-8.2382,1.4154-12.3567,1.3969
		c-2.5821-0.0116-5.3641-0.9931-7.6842-2.2349c-2.8263-1.5127-2.9733-4.1846-0.4716-6.1757
		c1.9484-1.5508,4.2334-2.8388,6.5666-3.7198c13.1129-4.9513,26.8213-6.0042,40.6687-5.6328
		c20.3483,0.5457,38.543,7.8676,55.6345,18.3263c2.9034,1.7768,5.6607,3.9992,7.9716,6.4922
		c4.0588,4.3788,3.0042,8.9466-2.5686,11.1432C571.7331,478.0731,568.4222,478.3897,565.3865,479.0652z"/>
	<path class="st0" d="M249.2691,449.7997c9.7936,0.0283,22.6049,1.2795,35.0503,4.7805c5.1698,1.4543,10.2019,3.7404,14.9328,6.3164
		c4.7094,2.5644,4.3617,5.9655-0.6468,8.1593c-6.5848,2.8842-13.3936,2.6372-20.2008,0.6139
		c-19.1937-5.7051-38.5001-6.6859-57.809-0.8006c-5.5172,1.6816-10.7907,4.192-16.119,6.4564
		c-5.8155,2.4714-11.7352,3.6978-18.0106,2.1699c-0.7035-0.1713-1.4274-0.284-2.1075-0.5221
		c-5.7272-2.0057-6.6727-5.6597-1.8482-9.3951c4.3927-3.4011,9.2547-6.4163,14.3199-8.6867
		C211.5767,452.2815,227.5191,449.56,249.2691,449.7997z"/>
	<path class="st0" d="M388.5998,827.9391c-10.0202-0.0897-19.032-0.7734-27.6513-4.0657
		c-7.5708-2.8918-14.3643-6.9857-19.6332-13.235c-2.4612-2.9193-5.237-6.3586-3.3773-10.2569
		c1.8815-3.9443,6.3063-3.6374,10.1266-3.6661c3.7786-0.0283,6.9963,1.3824,9.9856,3.6944
		c3.4339,2.6558,6.9963,5.1702,10.6591,7.5002c7.9343,5.0472,16.4899,7.4407,25.9257,5.3951
		c5.4786-1.1876,11.0459-2.1019,16.3813-3.7578c2.8131-0.873,5.7666-2.5879,7.6875-4.7743
		c4.1205-4.6899,17.6154-5.931,24.1566-2.0618c2.6389,1.561,3.0343,3.0335,1.9427,5.9246
		c-1.5826,4.1917-4.8239,7.0005-8.6852,8.5783c-7.0162,2.8671-14.2096,5.3716-21.4784,7.5229
		c-4.3121,1.2761-8.8898,1.7568-13.3845,2.2845C396.7575,827.5496,392.2148,827.6907,388.5998,827.9391z"/>
	<path class="st0" d="M454.0955,199.0532c-0.0223,0.0425-0.0897,0.1685-0.2023,0.378c-1.3259,1.5108-2.6519,3.0217-3.9778,4.5325
		c0,0,0.2002-0.2048,0.2002-0.2048c-6.1852,5.6782-10.8083,12.5179-14.2143,20.1058c-0.9904,2.2064-2.1696,3.7202-4.2701,4.5002
		c-6.5539,2.4341-13.1593,2.4084-19.607-0.2753c-4.9278-2.051-6.136-4.884-4.3165-10.0127c1.0228-2.8827,2.3693-5.695,3.9086-8.342
		c5.7699-9.9221,12.5499-19.0607,21.4927-26.4059c7.8647-6.4598,16.7339-10.051,27.0817-8.9861
		c2.1317,0.2194,4.3328,0.6582,6.2904,1.4921c4.2254,1.8,4.5471,4.0988,1.3403,7.3133c-3.0641,3.0716-6.2306,6.0547-9.1094,9.2925
		C456.9383,194.4361,455.6189,196.8354,454.0955,199.0532z"/>
	<path class="st0" d="M435.459,753.7778c-0.585,7.8533-3.0347,10.9719-10.7034,11.4077c-3.8703,0.2199-7.9457-0.3588-11.6824-1.4324
		c-3.3412-0.9598-3.496-2.4196-2.7292-6.1887c0.275-1.3522,0.1806-2.8777-0.1303-4.2359
		c-2.7885-12.1783-5.6388-24.3428-8.5384-36.4951c-0.4172-1.7487-1.139-3.4334-1.8146-5.1096
		c-1.4049-3.4859-1.1041-4.2872,2.3143-5.7235c7.52-3.1597,17.3667-0.5267,21.792,6.2915
		c2.2406,3.4523,4.3511,7.2713,5.3087,11.2185C431.7019,733.5109,433.4433,743.6776,435.459,753.7778z"/>
	<path class="st0" d="M445.6876,770.8549c2.5696-2.3987,2.1565-5.256,1.5923-8.4046c-2.2027-12.2919-4.2153-24.6196-6.1509-36.957
		c-0.6992-4.4571,0.1863-5.5204,4.5321-6.1071c7.048-0.9514,12.9754,0.9017,16.7863,7.3365
		c1.3792,2.3288,2.6855,4.7421,3.6701,7.256c4.2718,10.9062,6.0448,22.3594,6.7954,33.96c0.4241,6.553-2.0083,9.3566-8.5146,10.2233
		c-3.0142,0.4016-6.1589,0.3391-9.1875-0.0085C451.0484,777.6757,447.6431,775.7556,445.6876,770.8549z"/>
	<path class="st0" d="M351.4503,741.2665c-0.7798,12.0571-0.8503,21.8495,0.9899,31.5211c0.5116,2.6887-0.1647,4.3243-2.472,5.2072
		c-6.039,2.3107-12.0818,2.3168-17.8344-0.869c-3.4907-1.9331-4.5411-5.5049-5.2182-9.1306
		c-1.7847-9.5563-1.9057-19.2002,0.2992-28.6226c1.1303-4.8303,3.4137-9.549,5.9673-13.8481
		c3.2305-5.4387,9.1188-7.1463,15.13-5.3304c3.4478,1.0416,4.1059,1.8422,3.9527,5.4199
		C352.0085,731.5889,351.6471,737.5592,351.4503,741.2665z"/>
	<path class="st0" d="M364.4274,723.4003c0.197-3.2539,0.4242-6.5063,0.5822-9.7621c0.1456-3.0001,1.8432-4.6263,4.6092-5.249
		c6.3259-1.4238,14.5956-1.2543,17.1302,8.6343c1.4345,5.5968,2.7266,11.2689,3.5014,16.9858
		c0.923,6.8102,1.4467,13.6957,1.7252,20.5655c0.2432,5.999-1.6161,8.0016-7.451,9.5356
		c-4.3275,1.1376-8.6192,1.1706-12.8398-0.3586c-1.8956-0.6869-3.4909-1.608-3.7103-4.1099
		c-0.9805-11.1799-2.1216-22.3456-3.1973-33.5173c-0.0868-0.9018-0.1185-1.8089-0.1758-2.7136
		C364.5435,723.4074,364.4854,723.4039,364.4274,723.4003z"/>
	<path class="st0" d="M440.6816,968.6338c0-8.101,0-16.2019,0.0013-24.3026c0.0012,8.0944,0.0012,16.1884,0.0003,24.2852
		C440.6823,968.6193,440.6816,968.6338,440.6816,968.6338z"/>
	<path class="st0" d="M449.9155,203.9637c1.3259-1.5108,2.6518-3.0217,3.9778-4.5325
		C452.5673,200.942,451.2414,202.4529,449.9155,203.9637z"/>
</g>
</svg>
