<?xml version="1.0" encoding="utf-8"?>
<!-- Generator: Adobe Illustrator 24.3.0, SVG Export Plug-In . SVG Version: 6.00 Build 0)  -->
<svg version="1.1" id="Layer_1" xmlns="http://www.w3.org/2000/svg" xmlns:xlink="http://www.w3.org/1999/xlink" x="0px" y="0px"
	 viewBox="0 0 596.6047 670.8519" style="enable-background:new 0 0 596.6047 670.8519;" xml:space="preserve">
<style type="text/css">
	.st0{fill:#FFFFFF;}
</style>
<g>
	<path class="st0" d="M457.3282,267.8339c1.3161-0.9615,2.2394-1.7863,3.2927-2.3813c7.3427-4.1485,15.4171-5.8065,23.6702-6.7597
		c14.5296-1.678,28.9962-1.8259,43.2682,2.0522c0.1488,0.0404,0.3381-0.0681,0.6073-0.1297
		c-22.4854-33.698-36.2737-70.8587-44.7505-110.2079c-0.0832,0.0925-0.4615,0.3937-0.6888,0.783
		c-10.1021,17.3013-25.0514,28.8864-43.1773,36.7873c-14.1137,6.152-29.0697,9.6625-43.7253,14.1148
		c-13.3646,4.06-26.9035,7.6072-40.0907,12.1743c-15.8588,5.4923-29.6743,14.4728-40.6805,27.3274
		c-4.4136,5.1549-8.4224,10.6573-12.5821,16.0274c-0.4744,0.6124-0.7322,1.3925-1.1506,2.2126
		c21.5739-3.3807,42.6981-3.8388,63.1113,4.7537c1.6639,0.7004,3.1052,1.9298,4.8892,3.0658
		c-2.3358,2.0549-4.5079,1.951-6.4899,0.9548c-16.8239-8.4559-34.6789-8.5946-52.7061-6.2569
		c-11.8129,1.5319-11.8636,1.838-17.2829,12.5496c-3.2339,6.392-6.115,12.9628-9.1327,19.4634
		c-0.3715,0.8002-0.6069,1.6637-0.9293,2.5644c4.1489,0.713,8.0882,1.3899,12.5103,2.1497
		c-1.6867-2.0389-3.0316-3.6648-4.477-5.4119c1.8729-1.387,3.2386-1.2487,4.6136,0.0966c1.1008,1.077,2.331,2.0211,3.4426,3.0879
		c1.8732,1.7979,4.0067,2.369,6.7624,1.4435c-1.6308-2.142-3.2264-4.2376-4.8836-6.4142c1.8347-1.3529,3.2497-1.1783,4.5809,0.1908
		c0.1266,0.1302,0.2798,0.2446,0.3735,0.3955c3.6077,5.8126,8.5654,5.8869,14.6293,4.273
		c8.8332-2.3509,18.0793-2.1429,25.9402,2.5713c6.4121,3.8453,11.7358,9.5596,17.3378,14.6692
		c1.7155,1.5647,0.949,2.8296-1.4699,3.0372c-3.0133,0.2587-4.8041-1.745-6.7073-3.5807c-1.6929-1.6329-3.347-3.3285-5.1933-4.7724
		c-1.3226-1.0344-2.9343-1.6992-4.6218-2.6435c-7.5534-4.1411-17.0888-4.686-31.2318-2.8091
		c-11.185,0.668-22.1843,1.4457-32.607-3.7008c-2.0722,4.1564-4.0424,8.4299-6.289,12.5529
		c-6.272,11.5107-13.092,22.5894-23.0479,31.4684c-9.163,8.1719-20.1269,12.8755-31.3589,17.0979
		c-8.8614,3.3312-17.9112,6.0597-27.5673,5.5794c-1.2509-0.0622-2.5296-0.2495-3.7161-0.6277
		c-0.5781-0.1843-1.3262-0.9268-1.3493-1.4456c-0.0219-0.4914,0.7212-1.1541,1.2783-1.4967
		c0.5965-0.3668,1.3592-0.584,2.0656-0.6332c12.7591-0.8883,23.8331-6.4855,34.9558-12.155
		c9.4129-4.798,16.8714-11.6062,22.5556-20.3667c6.3124-9.7286,10.8553-20.348,14.5236-31.2999
		c6.4077-19.1308,15.3708-36.8259,28.3701-52.3615c15.7546-18.8285,35.0829-32.5246,58.4544-40.215
		c13.6165-4.4805,27.437-8.3424,41.0449-12.8476c11.87-3.9298,23.9128-7.6155,35.2686-12.7576
		c18.5352-8.3931,32.811-21.7912,42.2765-40.0683c3.8388-7.4124,7.9249-14.7021,12.0847-21.9405
		c2.2229-3.868,5.6859-4.9727,9.7404-3.8129c2.1023,0.6014,3.1235,1.7916,2.7488,3.9569c-0.5538,3.1994-1.1949,6.3836-1.8466,9.827
		c3.2255,0.4985,3.9254,3.0301,4.71,5.6224c10.0273,33.1308,21.6896,65.7039,36.0922,97.1605
		c11.8903,25.9697,28.238,49.0297,49.9365,67.9874c3.9636,3.4628,7.867,7.0113,11.5669,10.7491
		c1.2162,1.2287,2.6649,3.5056,2.2571,4.7115c-0.4262,1.2604-2.8709,2.2131-4.5887,2.5878
		c-4.2077,0.9178-8.015-0.6956-11.6397-2.8248c-0.3604,14.2909-0.2188,28.4126-1.2108,42.4542
		c-0.9894,14.0042-3.1152,27.9281-4.6903,41.4374c1.1644,1.9392,2.8274,3.6623,3.2894,5.6628
		c1.813,7.8514,3.3547,15.7707,4.8019,23.7004c3.9127,21.4387,1.0486,42.7033-1.8541,63.9526
		c-1.7673,12.9384-3.992,25.8272-5.3187,38.8089c-1.1763,11.5102,1.5088,22.3841,8.0179,32.14
		c1.999,2.9962,4.3571,5.5524,7.8458,6.8984c0.7161,0.2763,1.1994,1.1561,1.79,1.7577c-0.6863,0.5264-1.298,1.3157-2.0714,1.5351
		c-4.2109,1.1944-8.0511-0.3333-11.2919-2.6381c-2.8967-2.06-5.5278-4.7526-7.6176-7.6423
		c-8.3889-11.5992-10.2933-24.8875-8.6919-38.6804c1.8513-15.9457,4.5228-31.7954,6.4377-47.7349
		c1.3405-11.1575,2.6041-22.3865,2.7774-33.601c0.1234-7.9868-1.624-16.0026-2.5365-24.0054
		c-0.2955-0.0097-0.5911-0.0194-0.8867-0.0291c-0.321,0.9472-0.7357,1.8737-0.949,2.8445
		c-4.4949,20.4504-13.6002,39.0527-23.4969,57.2421c-12.452,22.886-26.8637,44.4943-45.7827,62.6399
		c-11.6801,11.2026-24.3037,21.2945-39.3409,27.8678c-6.2313,2.724-12.4166,5.5574-18.6979,8.16
		c-1.6205,0.6714-3.5962,1.4153-5.3774-0.4472c0.4666-0.3558,0.7742-0.6836,1.1521-0.8649
		c7.2798-3.493,14.5093-7.0986,21.8696-10.4138c8.2837-3.7311,14.6733-9.998,21.5085-15.6525
		c11.4778-9.4949,20.8197-20.9561,29.7726-32.7798c12.0757-15.9481,22.9346-32.5954,32.1146-50.4374
		c10.3676-20.1502,15.1243-41.9092,19.9849-63.6841c3.6867-16.5157,5.3536-33.307,6.1017-50.2098
		c0.61-13.7849,1.5134-27.5572,2.3504-41.3312c0.1283-2.1107-0.2883-3.7141-1.9825-5.2107
		c-10.6919-9.4444-20.978-19.2965-29.6818-30.6707c-1.0483-1.37-2.2856-2.6472-3.0703-4.1571
		c-1.9745-3.7991-5.2421-5.4485-9.1938-6.506c-17.6342-4.7193-35.2439-4.1532-52.8072,0.1729
		c-3.124,0.7695-6.0532,2.3977-9.0064,3.771C462.2019,269.4074,460.0017,269.6979,457.3282,267.8339z"/>
	<path class="st0" d="M297.9953,626.5029c-1.8078-3.464-3.2364-6.6761-5.0746-9.6337c-5.2885-8.5089-10.5738-17.0295-16.2053-25.311
		c-2.6697-3.926-6.0043-7.4316-9.2757-10.9034c-1.6261-1.7257-0.4715-2.3771,0.6761-3.1068
		c3.4421-2.1883,10.0826-1.2571,13.3931,1.2934c9.3135,7.1754,16.2267,16.4459,22.6306,26.0616
		c4.2372,6.3625,8.2993,13.0131,11.2108,20.0436c3.6614,8.8412,6.5974,18.0849,6.2002,27.9455
		c-0.242,6.007-1.4257,11.652-5.6578,16.2888c-1.5598,1.7089-3.4296,1.8594-5.4754,1.5306
		c-1.9098-0.3068-2.0038-1.8297-2.1186-3.3124c-0.1258-1.6268-0.4332-3.2645-0.3385-4.8784
		c0.2883-4.916-2.1875-8.6547-4.9503-12.3104c-1.3561-1.7943-2.6006-3.6825-4.0619-5.3854
		c-1.4615-1.7032-3.1597-3.2009-4.7038-4.8363c-8.052-8.5272-18.004-13.675-29.4272-15.6536
		c-6.8589-1.1879-13.8918-1.9409-20.8423-1.911c-13.7931,0.0594-27.5889,0.671-41.3735,1.2819
		c-19.5833,0.8679-39.1496,2.4127-58.7387,2.7425c-11.0204,0.1857-22.0695-1.5266-33.1105-2.3154
		c-10.8196-0.7731-20.7828-4.6365-30.9804-7.9196c-7.9607-2.5629-15.2904-6.3325-22.2305-10.5571
		c-7.1795-4.3702-13.6412-10.1082-19.807-15.8973c-5.2168-4.8981-9.9884-10.4171-14.1748-16.225
		c-4.2566-5.9055-8.0198-12.28-11.1474-18.8543c-3.2568-6.846-6.1412-14.0076-8.0539-21.3276
		c-4.9722-19.0287-5.8069-38.2725-1.8981-57.718c1.38-6.8651,2.7273-13.6678,5.3222-20.1756
		c3.348-8.3969,6.4428-16.9009,11.5391-24.4933c5.0304-7.4942,9.6178-15.2993,14.9044-22.6028
		c3.3048-4.5656,7.4466-8.549,11.3883-12.624c4.6942-4.8528,9.3263-9.8141,14.4309-14.2112
		c9.5704-8.2439,19.3354-16.276,29.2692-24.0782c5.4351-4.2688,11.4182-7.8341,17.0822-11.819
		c3.2549-2.29,6.3437-4.8148,9.547-7.1801c4.562-3.3687,9.1996-6.6363,13.7265-10.0511c2.1581-1.6279,4.0833-3.5612,6.2043-5.2423
		c5.8972-4.674,10.8754-10.2398,15.6242-16.0207c2.732-3.3257,6.1745-4.8996,9.1842-3.991
		c1.6921,0.5108,2.5936,1.3376,1.4543,3.1373c-3.1371,4.9557-5.866,10.239-9.5156,14.7831
		c-4.3827,5.4569-9.1652,10.7307-14.4609,15.2859c-9.4371,8.1175-19.3976,15.6257-29.1235,23.4084
		c-5.5533,4.4438-11.2026,8.7799-16.5733,13.4359c-4.6898,4.0658-9.0602,8.5012-13.5534,12.7924
		c-4.3648,4.1687-8.9445,8.1455-12.9932,12.6031c-4.2924,4.726-8.3517,9.7227-12.0064,14.955
		c-5.1745,7.4081-10.5577,14.7946-14.6693,22.7977c-13.0876,25.475-19.4836,52.4665-15.7526,81.2235
		c0.8809,6.7896,2.9934,13.4304,4.7067,20.0966c0.9426,3.6676,1.8492,7.4261,3.4464,10.827
		c3.4953,7.4424,6.9232,14.9991,11.3185,21.9116c3.9386,6.1943,8.7025,12.0185,13.8805,17.2332
		c7.463,7.5159,16.0304,13.9305,25.7269,18.2554c8.2363,3.6737,16.7919,7.103,25.5611,9
		c13.1186,2.8378,26.5964,4.1041,40.0643,3.6323c15.4162-0.54,30.8118-1.6727,46.2157-2.5606
		c3.7164-0.2142,7.429-0.6691,11.1449-0.6872c17.3438-0.0842,34.6975-0.4027,52.0292,0.058
		c11.4939,0.3055,22.5686,3.3422,33.1105,8.079C292.9031,624.4055,295.1552,625.3044,297.9953,626.5029z"/>
	<path class="st0" d="M176.1408,272.2114c-1.9197-10.4054-3.8312-20.3723-5.5852-30.3669
		c-2.6241-14.9531-2.1311-30.0244-1.5388-45.0973c0.8555-21.772,5.0253-42.9642,12.6738-63.2798
		c7.7043-20.4638,18.3695-39.3424,31.9427-56.7127c12.6994-16.2521,28.0478-29.0783,45.523-39.6014
		c20.4103-12.2908,41.9772-22.3174,65.1655-27.7046C357.159,1.8199,390.5-1.9103,424.3392,0.973
		c16.0146,1.3645,31.3311,5.014,45.616,12.5096c2.2332,1.1718,4.3267,2.636,6.3741,4.1179c0.5465,0.3956,0.6837,1.357,1.0088,2.0586
		c-0.7779,0.3301-1.5713,0.9597-2.3299,0.92c-1.1336-0.0592-2.3437-0.4029-3.3471-0.9468
		C451.6701,8.795,430.0907,5.0889,407.6131,4.7551c-22.2273-0.3301-43.9578,3.3385-65.6497,7.3726
		c-22.51,4.1863-42.9289,13.8397-62.7038,24.9584c-11.5813,6.5118-22.6852,13.8532-32.2716,23.0702
		c-17.4283,16.7566-31.2614,36.1445-41.822,57.9863c-12.4048,25.6559-18.6121,52.7369-20.5622,81.0044
		c-2.6628,38.5977,4.5065,75.6955,16.6564,112.0726c2.6721,8.0002,5.3686,15.9928,7.96,24.0192
		c1.2035,3.7277,0.5919,4.5842-3.2926,5.3478c-18.6474,3.6657-33.9798-6.0911-39.1811-24.8585
		c-2.6958-9.7268-2.1777-19.4037,0.2547-29.0596c0.7747-3.0755,1.8075-6.0851,2.6772-9.1377
		C170.6246,274.2102,172.0663,271.5168,176.1408,272.2114z M198.4032,337.4802c-9.3592-18.4352-15.1932-38.0142-20.629-57.8537
		c-0.9829,6.2092-1.9187,12.3841-2.0434,18.5754c-0.2213,10.9883,2.5225,21.2579,9.3556,30.0786
		C188.4493,332.6216,192.6608,336.0327,198.4032,337.4802z"/>
	<path class="st0" d="M499.4748,26.0093c1.6771-0.0904,3.5108-0.656,4.9968-0.1665c2.6292,0.8661,5.2547,2.0773,7.5183,3.663
		c11.9662,8.3826,21.4493,19.1434,29.9479,30.9691c15.929,22.1651,26.7064,46.6601,34.6009,72.66
		c6.471,21.3119,11.9219,42.8052,15.0048,64.8847c2.8996,20.766,3.8286,41.5593,1.6791,62.4603
		c-0.6403,6.2266-0.8045,12.5011-1.3842,18.7353c-0.4037,4.3416-4.0516,6.2873-8.0336,4.3457
		c-0.7377-0.3597-1.4622-1.5959-1.4842-2.446c-0.3127-12.0724-0.6304-24.1474-0.6954-36.2231
		c-0.1182-21.9601-2.9319-43.6299-6.8462-65.1755c-4.6829-25.7773-11.6561-50.9551-21.2631-75.3208
		c-9.152-23.2117-21.5497-44.6051-38.0692-63.4379c-4.7088-5.3682-9.7372-10.459-16.0241-14.101
		C499.44,26.5742,499.4574,26.2918,499.4748,26.0093z"/>
	<path class="st0" d="M433.4674,578.886c-1.5559,0.3155-2.7962,0.811-4.0233,0.78c-26.2291-0.6617-50.8418-8.2396-75.2102-17.214
		c-20.8766-7.6884-40.3064-18.0466-58.0973-31.2078c-14.1076-10.4363-26.3638-23.0187-37.5237-36.6373
		c-7.9948-9.7562-14.0522-20.6265-20.1321-31.617c-6.5857-11.9048-9.8239-24.5818-12.6274-37.6963
		c-3.7943-17.749-3.7053-35.7036-4.5952-53.6328c-0.1124-2.2643,0.5449-3.7172,2.9521-3.207
		c0.9323,0.1976,2.2367,1.3915,2.3501,2.2642c0.888,6.834,1.5882,13.6946,2.2325,20.5577
		c1.8227,19.4152,5.1328,38.6707,11.9305,56.8693c6.2516,16.7366,15.2675,32.2581,27.3784,45.794
		c12.0859,13.5081,24.9437,26.1375,39.6035,36.8198c21.9438,15.9899,46.3141,27.1531,72.1326,35.1505
		c15.2668,4.7289,30.819,8.4067,46.8575,9.5674C429.0827,575.6494,431.5963,575.9628,433.4674,578.886z"/>
	<path class="st0" d="M526.0361,291.8366c-1.7495,2.2434-3.3317,4.2723-5.0041,6.4169c4.7836,1.7383,7.1795-1.7278,9.8817-4.1718
		c1.4823-1.3408,2.7684-1.9241,4.9714-0.4878c-1.3889,1.7041-2.7126,3.3282-4.2205,5.1783c4.489,0.44,8.704-2.74,13.8839-0.5612
		c-1.2488,1.0111-1.9689,1.9492-2.9047,2.2843c-2.6354,0.9437-5.319,2.1028-8.0566,2.3426
		c-7.0956,0.6216-14.2286,1.8148-21.3541,0.1294c-0.2232-0.0528-0.493,0.0914-0.9244,0.1824
		c-11.8707-1.9505-24.539-0.1797-31.0056,2.9744c-4.0649,1.5034-6.9406,3.964-9.6935,6.751
		c-1.6021,1.6219-3.5928,2.9842-5.6433,3.98c-0.868,0.4215-2.339-0.399-3.5358-0.6549c0.3887-1.0215,0.4972-2.3336,1.2091-3.0197
		c7.7358-7.4559,14.8754-16.0698,26.6442-16.9929c5.1885-0.4069,10.4552,0.1692,15.6854,0.3298
		c0.5316,0.0163,1.0774,0.1914,1.5815,0.3846c5.4634,2.0939,9.8337,0.8456,13.1529-4.0866
		C521.8655,291.0884,523.488,290.2389,526.0361,291.8366z"/>
	<path class="st0" d="M381.955,468.3493c1.308,6.0311,2.2256,11.8563,3.8545,17.4753c4.9513,17.0791,18.679,22.4583,35.2805,19.682
		c4.7113-0.7878,8.5268-4.1632,11.3905-7.9855c5.3068-7.0835,9.0043-14.8955,9.3209-23.9861
		c0.0565-1.6211,0.5199-3.224,0.6641-4.8469c0.2412-2.7137,1.994-3.0995,4.2262-2.9995c2.3603,0.1058,3.061,1.5197,3.1483,3.5966
		c0.4624,11.0026-3.0573,20.8986-9.486,29.504c-4.8686,6.5172-11.8171,10.3672-20.2261,10.9786
		c-8.3205,0.6049-16.5367,0.1909-24.4762-2.6067c-12.6272-4.4494-20.9618-12.7935-23.143-26.3602
		c-0.7037-4.3772,0.0933-8.5508,1.4469-12.9688c1.3821-4.5111,4.3836-4.4155,7.3662-4.8614
		c5.9171-0.8846,11.8887-1.6923,17.8583-1.88c13.5244-0.4253,27.0608-0.4894,40.5931-0.6108
		c2.1591-0.0194,4.3507,0.2874,6.4689,0.7257c0.803,0.1661,1.441,1.1295,2.1543,1.7295c-0.7711,0.5416-1.4991,1.4651-2.3208,1.558
		c-3.3325,0.3766-6.6915,0.5448-10.0448,0.7051c-12.699,0.607-25.4027,1.1213-38.0979,1.796
		C392.7152,467.2712,387.5145,467.8676,381.955,468.3493z"/>
	<path class="st0" d="M191.1322,388.4413c0.6032-4.4865,1.062-8.9988,1.8565-13.4513c0.6063-3.3978,2.9272-4.5602,7.3369-4.1515
		c3.5525,0.3292,4.8616,1.6128,5.0902,5.0963c0.3382,5.1532,0.3392,10.3489,1.024,15.4541
		c1.0507,7.8328,5.8243,12.8041,13.1028,15.6052c1.0374,0.3992,1.8129,1.4792,2.7095,2.2442
		c-0.9402,0.7547-1.7805,1.9125-2.8424,2.1755c-1.898,0.4701-3.9787,0.7591-5.8974,0.497
		C203.1825,410.4996,190.8542,403.5884,191.1322,388.4413z"/>
	<path class="st0" d="M415.9485,434.284c-2.9991-0.5253-6.0388-0.8966-8.9734-1.6677c-0.9055-0.2379-2.1037-1.5605-2.1112-2.396
		c-0.0074-0.828,1.1846-1.8835,2.0941-2.4438c0.9643-0.594,2.1947-0.8609,3.3443-1.0316
		c7.0157-1.0415,13.4286-3.6325,19.3975-7.3959c3.4293-2.1622,7.0858-2.7539,10.9146-1.3799
		c3.2856,1.179,4.1843,4.0555,1.8279,6.618c-1.7324,1.884-3.8804,3.6006-6.1724,4.7143
		C429.7642,432.4627,423.7265,433.635,415.9485,434.284z"/>
	<path class="st0" d="M198.4032,337.4802c-5.7425-1.4475-9.9539-4.8586-13.3168-9.1997
		c-6.8331-8.8207-9.5769-19.0903-9.3556-30.0786c0.1247-6.1913,1.0605-12.3661,2.0434-18.5754
		C183.2101,299.466,189.044,319.045,198.4032,337.4802z"/>
</g>
</svg>
